<svg width="32" height="32" viewBox="0 0 32 32" xmlns="http://www.w3.org/2000/svg">
    <path d="M17.6667 14.6665H27.6667C28.1088 14.6665 28.5327 14.807 28.8453 15.057C29.1578 15.3071 29.3334 15.6462 29.3334 15.9998C29.3334 16.3535 29.1578 16.6926 28.8453 16.9426C28.5327 17.1927 28.1088 17.3332 27.6667 17.3332H17.6667H14.3334H4.33341C3.89139 17.3332 3.46746 17.1927 3.1549 16.9426C2.84234 16.6926 2.66675 16.3535 2.66675 15.9998C2.66675 15.6462 2.84234 15.3071 3.1549 15.057C3.46746 14.807 3.89139 14.6665 4.33341 14.6665H14.3334H17.6667Z" fill="#2945FF"/>
    <path d="M17.6667 8H27.6667C28.1088 8 28.5327 8.14048 28.8453 8.39052C29.1578 8.64057 29.3334 8.97971 29.3334 9.33333C29.3334 9.68696 29.1578 10.0261 28.8453 10.2761C28.5327 10.5262 28.1088 10.6667 27.6667 10.6667H17.6667H14.3334H4.33341C3.89139 10.6667 3.46746 10.5262 3.1549 10.2761C2.84234 10.0261 2.66675 9.68696 2.66675 9.33333C2.66675 8.97971 2.84234 8.64057 3.1549 8.39052C3.46746 8.14048 3.89139 8 4.33341 8H14.3334H17.6667Z" fill="#2945FF"/>
    <path d="M17.6667 21.3335H27.6667C28.1088 21.3335 28.5327 21.474 28.8453 21.724C29.1578 21.9741 29.3334 22.3132 29.3334 22.6668C29.3334 23.0205 29.1578 23.3596 28.8453 23.6096C28.5327 23.8597 28.1088 24.0002 27.6667 24.0002H17.6667H14.3334H4.33341C3.89139 24.0002 3.46746 23.8597 3.1549 23.6096C2.84234 23.3596 2.66675 23.0205 2.66675 22.6668C2.66675 22.3132 2.84234 21.9741 3.1549 21.724C3.46746 21.474 3.89139 21.3335 4.33341 21.3335H14.3334H17.6667Z" fill="#2945FF"/>
</svg>