<svg width="16" height="12" viewBox="0 0 16 12" fill="none" xmlns="http://www.w3.org/2000/svg">
<path d="M15.92 4.51844C15.8724 4.39569 15.801 4.28354 15.71 4.18844L12.71 1.18844C12.6168 1.0952 12.5061 1.02124 12.3842 0.97078C12.2624 0.92032 12.1319 0.894348 12 0.894348C11.7337 0.894348 11.4783 1.00014 11.29 1.18844C11.1968 1.28168 11.1228 1.39237 11.0723 1.51419C11.0219 1.63601 10.9959 1.76658 10.9959 1.89844C10.9959 2.16474 11.1017 2.42014 11.29 2.60844L12.59 3.89844H3C2.20435 3.89844 1.44129 4.21451 0.87868 4.77712C0.316071 5.33973 0 6.10279 0 6.89844V10.8984C0 11.1637 0.105357 11.418 0.292893 11.6055C0.48043 11.7931 0.734784 11.8984 1 11.8984C1.26522 11.8984 1.51957 11.7931 1.70711 11.6055C1.89464 11.418 2 11.1637 2 10.8984V6.89844C2 6.63322 2.10536 6.37887 2.29289 6.19133C2.48043 6.0038 2.73478 5.89844 3 5.89844H12.59L11.29 7.18844C11.1963 7.2814 11.1219 7.392 11.0711 7.51386C11.0203 7.63572 10.9942 7.76643 10.9942 7.89844C10.9942 8.03045 11.0203 8.16116 11.0711 8.28302C11.1219 8.40488 11.1963 8.51548 11.29 8.60844C11.383 8.70217 11.4936 8.77656 11.6154 8.82733C11.7373 8.8781 11.868 8.90424 12 8.90424C12.132 8.90424 12.2627 8.8781 12.3846 8.82733C12.5064 8.77656 12.617 8.70217 12.71 8.60844L15.71 5.60844C15.801 5.51334 15.8724 5.40119 15.92 5.27844C16.02 5.03498 16.02 4.7619 15.92 4.51844Z" fill="#2945FF"/>
</svg>
