<svg width="133" height="91" viewBox="0 0 133 91" fill="none" xmlns="http://www.w3.org/2000/svg">
<path d="M46.2182 49.3437C46.3512 48.9343 46.9304 48.9343 47.0634 49.3437L48.5362 53.8764C48.5956 54.0595 48.7662 54.1835 48.9587 54.1835H53.7248C54.1552 54.1835 54.3342 54.7342 53.9859 54.9872L50.1301 57.7887C49.9744 57.9018 49.9092 58.1023 49.9687 58.2854L51.4415 62.8182C51.5745 63.2276 51.106 63.568 50.7578 63.315L46.902 60.5136C46.7462 60.4004 46.5354 60.4004 46.3796 60.5136L42.5238 63.315C42.1756 63.568 41.7071 63.2276 41.8401 62.8182L43.3129 58.2854C43.3723 58.1023 43.3072 57.9018 43.1515 57.7887L39.2956 54.9872C38.9474 54.7342 39.1264 54.1835 39.5568 54.1835H44.3229C44.5153 54.1835 44.6859 54.0595 44.7454 53.8764L46.2182 49.3437Z" fill="white"/>
<path d="M65.5319 49.3436C65.6649 48.9342 66.2441 48.9342 66.3771 49.3436L67.8499 53.8764C67.9094 54.0595 68.08 54.1834 68.2725 54.1834H73.0385C73.4689 54.1834 73.6479 54.7342 73.2997 54.9872L69.4439 57.7886C69.2881 57.9017 69.223 58.1023 69.2824 58.2854L70.7552 62.8182C70.8882 63.2275 70.4197 63.5679 70.0715 63.3149L66.2157 60.5135C66.0599 60.4004 65.8491 60.4004 65.6933 60.5135L61.8375 63.3149C61.4893 63.5679 61.0208 63.2275 61.1538 62.8182L62.6266 58.2854C62.6861 58.1023 62.6209 57.9017 62.4652 57.7886L58.6094 54.9872C58.2611 54.7342 58.4401 54.1834 58.8705 54.1834H63.6366C63.8291 54.1834 63.9997 54.0595 64.0591 53.8764L65.5319 49.3436Z" fill="white"/>
<path d="M84.8459 49.3436C84.9789 48.9342 85.558 48.9342 85.6911 49.3436L87.1638 53.8764C87.2233 54.0595 87.3939 54.1834 87.5864 54.1834H92.3525C92.7829 54.1834 92.9619 54.7342 92.6136 54.9872L88.7578 57.7886C88.6021 57.9017 88.5369 58.1023 88.5964 58.2854L90.0692 62.8182C90.2022 63.2275 89.7337 63.5679 89.3855 63.3149L85.5296 60.5135C85.3739 60.4004 85.163 60.4004 85.0073 60.5135L81.1515 63.3149C80.8033 63.5679 80.3347 63.2275 80.4678 62.8182L81.9405 58.2854C82 58.1023 81.9349 57.9017 81.7791 57.7886L77.9233 54.9872C77.5751 54.7342 77.7541 54.1834 78.1845 54.1834H82.9505C83.143 54.1834 83.3136 54.0595 83.3731 53.8764L84.8459 49.3436Z" fill="white"/>
<path d="M104.16 49.3436C104.293 48.9342 104.872 48.9342 105.005 49.3436L106.478 53.8764C106.537 54.0595 106.708 54.1834 106.9 54.1834H111.666C112.097 54.1834 112.276 54.7342 111.927 54.9872L108.072 57.7886C107.916 57.9017 107.851 58.1023 107.91 58.2854L109.383 62.8182C109.516 63.2275 109.047 63.5679 108.699 63.3149L104.843 60.5135C104.688 60.4004 104.477 60.4004 104.321 60.5135L100.465 63.3149C100.117 63.5679 99.6485 63.2275 99.7815 62.8182L101.254 58.2854C101.314 58.1023 101.249 57.9017 101.093 57.7886L97.237 54.9872C96.8888 54.7342 97.0678 54.1834 97.4982 54.1834H102.264C102.457 54.1834 102.627 54.0595 102.687 53.8764L104.16 49.3436Z" fill="white"/>
<path fill-rule="evenodd" clip-rule="evenodd" d="M129.218 54.8399V56.8521L127.049 58.4279C126.907 58.5308 126.848 58.7131 126.902 58.8795L128.404 63.5026C128.525 63.8748 128.099 64.1842 127.782 63.9542L123.85 61.097C123.708 60.9941 123.517 60.9941 123.375 61.097L119.442 63.9542C119.126 64.1842 118.7 63.8748 118.821 63.5026L120.323 58.8795C120.377 58.7131 120.318 58.5308 120.176 58.4279L116.243 55.5707C115.927 55.3407 116.09 54.8399 116.481 54.8399H121.342C121.517 54.8399 121.672 54.7273 121.726 54.5608L123.228 49.9377C123.349 49.5656 123.876 49.5656 123.997 49.9377L125.499 54.5608C125.553 54.7273 125.708 54.8399 125.883 54.8399H129.218Z" fill="white"/>
<path d="M6.31037 64.3616H8.99478V62.0979H10.8378V59.7741H8.99478V50.599H6.81119L0.500823 60.375V62.0979H6.31037V64.3616ZM3.4657 59.8943L6.49067 55.0062V59.8943H3.4657ZM14.0121 64.5419C14.8935 64.5419 15.6348 63.8207 15.6348 62.9192C15.6348 62.0378 14.8935 61.3166 14.0121 61.3166C13.0906 61.3166 12.3494 62.0378 12.3494 62.9192C12.3494 63.8207 13.0906 64.5419 14.0121 64.5419ZM22.397 64.5219C25.1815 64.5219 27.3852 63.0194 27.3852 60.5754C27.3852 58.6923 26.3434 57.4302 25.0012 56.9294V56.8893C25.8426 56.5287 26.684 55.3868 26.684 54.0246C26.684 51.7609 24.861 50.4387 22.397 50.4387C19.993 50.4387 18.13 51.7008 18.13 54.0246C18.13 55.3868 18.9513 56.4887 19.8127 56.8893V56.9294C18.4905 57.4502 17.4288 58.7123 17.4288 60.5754C17.4288 62.9393 19.5523 64.5219 22.397 64.5219ZM22.397 55.8276C21.3753 55.8276 20.6541 55.1865 20.6541 54.285C20.6541 53.4236 21.3553 52.7024 22.397 52.7024C23.3986 52.7024 24.1599 53.3836 24.1599 54.285C24.1599 55.1865 23.4186 55.8276 22.397 55.8276ZM22.397 62.198C21.1549 62.198 20.1733 61.3166 20.1733 60.2148C20.1733 59.0328 21.0748 58.1915 22.397 58.1915C23.6991 58.1915 24.6206 59.0328 24.6206 60.2148C24.6206 61.2565 23.7191 62.198 22.397 62.198Z" fill="white"/>
<path d="M3.41869 87.6371C1.88618 87.6371 0.785907 86.8905 0.34056 85.8558L1.29675 85.4235C1.61111 86.1439 2.29223 86.6155 3.3401 86.6155C4.38798 86.6155 5.20008 85.9736 5.20008 84.9913C5.20008 84.1268 4.55826 83.3671 3.22222 83.3671H2.47561V82.424H3.3532C4.50587 82.424 4.97741 81.7035 4.97741 80.9831C4.97741 80.0924 4.2439 79.503 3.30081 79.503C2.41011 79.503 1.88618 79.8829 1.53252 80.4068L0.641824 79.9091C1.11337 79.0839 2.03026 78.4813 3.32701 78.4813C4.85952 78.4813 6.09078 79.3458 6.09078 80.8391C6.09078 81.6774 5.61923 82.4895 4.76784 82.8562V82.8955C5.72402 83.2623 6.32655 84.0744 6.32655 85.1484C6.32655 86.6417 5.0822 87.6371 3.41869 87.6371ZM10.6152 78.4813C12.3835 78.4813 13.7719 79.8829 13.7588 82.0179C13.7588 85.2925 11.4011 87.4407 9.06955 87.8729L8.74209 86.9429C10.3794 86.5238 11.9643 85.4497 12.5013 83.4325C11.925 83.9434 11.1129 84.2577 10.2222 84.2577C8.6504 84.2577 7.45844 83.1706 7.45844 81.4285C7.45844 79.7388 8.80758 78.4813 10.6152 78.4813ZM10.4711 83.2361C11.3749 83.2361 12.2132 82.7383 12.6847 82.0048V81.9262C12.6847 80.4592 11.8071 79.503 10.6283 79.503C9.37081 79.503 8.57181 80.3806 8.57181 81.4285C8.57181 82.5157 9.31842 83.2361 10.4711 83.2361ZM15.437 87.5586V77.9181H16.498V84.6638L16.5111 84.6769L19.6416 81.1796H20.9253L18.5414 83.8124L20.9515 87.5586H19.7333L17.8079 84.559L16.498 85.9736V87.5586H15.437ZM25.7725 87.5586V81.1796H26.8335V82.3454H26.8597C27.3181 81.5726 28.0517 81.101 28.9293 81.101C29.0209 81.101 29.0995 81.101 29.1912 81.1141V82.293C29.034 82.2799 28.8769 82.2668 28.7721 82.2668C27.5539 82.2668 26.8335 83.1968 26.8335 84.4804V87.5586H25.7725ZM35.8572 84.2577C35.8572 84.428 35.831 84.6114 35.831 84.69H30.8536C30.9977 85.882 31.836 86.6679 33.041 86.6679C33.8924 86.6679 34.495 86.3011 34.8879 85.8165L35.6345 86.4452C35.0844 87.1525 34.2854 87.6371 33.0017 87.6371C31.1156 87.6371 29.7795 86.3273 29.7795 84.3756C29.7795 82.4502 31.1025 81.101 32.9232 81.101C34.6652 81.101 35.8572 82.4371 35.8572 84.2577ZM32.9101 82.0703C31.8884 82.0703 31.0763 82.7383 30.8798 83.8255H34.7962C34.6391 82.7776 33.9579 82.0703 32.9101 82.0703ZM39.0306 87.5586L36.4371 81.1796H37.5898L39.5415 86.2094H39.5546L41.5062 81.1796H42.6458L40.0523 87.5586H39.0306ZM44.552 80.0138C44.1198 80.0138 43.7792 79.6733 43.7792 79.2541C43.7792 78.835 44.1198 78.4944 44.552 78.4944C44.9843 78.4944 45.3248 78.835 45.3248 79.2541C45.3248 79.6733 44.9843 80.0138 44.552 80.0138ZM44.015 87.5586V81.1796H45.076V87.5586H44.015ZM52.8187 84.2577C52.8187 84.428 52.7925 84.6114 52.7925 84.69H47.8151C47.9591 85.882 48.7974 86.6679 50.0025 86.6679C50.8539 86.6679 51.4564 86.3011 51.8494 85.8165L52.596 86.4452C52.0459 87.1525 51.2469 87.6371 49.9632 87.6371C48.077 87.6371 46.741 86.3273 46.741 84.3756C46.741 82.4502 48.0639 81.101 49.8846 81.101C51.6267 81.101 52.8187 82.4371 52.8187 84.2577ZM49.8715 82.0703C48.8498 82.0703 48.0377 82.7383 47.8413 83.8255H51.7577C51.6005 82.7776 50.9194 82.0703 49.8715 82.0703ZM55.6259 87.5586L53.4254 81.1796H54.5126L56.1237 85.9736H56.1499L57.6169 81.1796H58.5338L60.027 85.9736H60.0532L61.6512 81.1796H62.7384L60.5379 87.5586H59.5424L58.0753 82.8824H58.0622L56.5952 87.5586H55.6259ZM65.9189 87.6371C64.8579 87.6371 64.0458 87.2704 63.4302 86.7334L63.9672 85.9212C64.4649 86.4059 65.0282 86.6941 65.9189 86.6941C66.6917 86.6941 67.137 86.3142 67.137 85.8296C67.137 85.2663 66.5476 85.1091 65.6176 84.7686C64.5828 84.4018 63.7052 83.9827 63.7052 82.8169C63.7052 81.8345 64.5959 81.101 65.801 81.101C66.5738 81.101 67.2942 81.3106 68.0015 81.8869L67.4514 82.7252C66.9012 82.2144 66.3118 82.0441 65.7617 82.0441C65.2639 82.0441 64.7793 82.3323 64.7793 82.8169C64.7793 83.3147 65.2901 83.5635 65.9844 83.8124C67.3335 84.3363 68.2242 84.5721 68.2111 85.8165C68.2111 86.8119 67.4514 87.6371 65.9189 87.6371Z" fill="white"/>
<rect x="0.432836" y="1.16419" width="128.985" height="33.7612" rx="3.02985" fill="black" stroke="#999999" stroke-width="0.865672"/>
<path d="M33.698 18.2443C33.721 16.5672 34.6006 15.0184 36.0292 14.1394C35.122 12.8439 33.6571 12.0519 32.0763 12.0025C30.387 11.8251 28.8075 12.9991 27.9544 12.9991C27.1013 12.9991 25.7837 12.0193 24.3816 12.0531C22.5339 12.1141 20.8538 13.1401 19.9557 14.756C18.0384 18.067 19.4658 22.9405 21.3071 25.618C22.2278 26.9272 23.3005 28.3969 24.6857 28.3462C26.0709 28.2955 26.5692 27.5016 28.2247 27.5016C29.8802 27.5016 30.3448 28.3462 31.7806 28.3462C33.2165 28.3462 34.1794 27.0286 35.0663 25.7025C35.7255 24.769 36.233 23.737 36.5697 22.6449C34.8108 21.8936 33.6774 20.1569 33.698 18.2443Z" fill="white"/>
<path d="M30.9952 10.2457C31.7995 9.28205 32.1964 8.04277 32.1017 6.79114C30.8747 6.91877 29.7409 7.5038 28.9258 8.42974C28.1216 9.3447 27.7143 10.542 27.794 11.7576C29.0364 11.7708 30.2162 11.2136 30.9952 10.2457Z" fill="white"/>
<path fill-rule="evenodd" clip-rule="evenodd" d="M51.638 28.1435H53.5638L49.9234 16.9098H47.6851L44.0701 28.1435H45.9367L46.9418 24.841H50.5907L51.638 28.1435ZM49.3321 20.5587L50.2781 23.4981H47.2543L48.2594 20.5503C48.5016 19.6155 48.6789 18.9089 48.7916 18.4302C49.0449 19.5283 49.2251 20.2377 49.3321 20.5587Z" fill="white"/>
<path fill-rule="evenodd" clip-rule="evenodd" d="M61.7484 27.2652C62.5302 26.3616 62.93 25.1894 62.8633 23.9964C62.9077 22.9128 62.5564 21.8501 61.8751 21.0064C61.2215 20.2337 60.241 19.8156 59.231 19.8788C58.2209 19.942 57.3002 20.4792 56.7481 21.3273L56.6468 20.0435H55.0588C55.1039 20.9557 55.1264 21.8454 55.1264 22.7125V31.4461H56.9677V27.1807C57.4606 27.9607 58.3454 28.4031 59.2651 28.3294C60.2076 28.3493 61.1128 27.9614 61.7484 27.2652ZM60.4983 22.1128C60.8707 22.6936 61.0564 23.3745 61.0304 24.064C61.0649 24.7935 60.8668 25.5152 60.4645 26.1249C60.1042 26.6409 59.5053 26.9371 58.8766 26.9104C58.3391 26.9287 57.8217 26.7056 57.466 26.3023C57.1025 25.8906 56.9093 25.3561 56.9255 24.8072V23.4558C56.9319 23.2701 56.9602 23.0858 57.0099 22.9068C57.1083 22.4518 57.3585 22.0437 57.7194 21.7496C58.0577 21.4655 58.4855 21.31 58.9273 21.3104C59.5533 21.2933 60.1451 21.5956 60.4983 22.1128Z" fill="white"/>
<path fill-rule="evenodd" clip-rule="evenodd" d="M71.0733 27.2652C71.8551 26.3616 72.2549 25.1894 72.1883 23.9964C72.2318 22.9129 71.8807 21.8505 71.2 21.0064C70.5464 20.2337 69.566 19.8156 68.5559 19.8788C67.5458 19.942 66.6252 20.4792 66.0731 21.3273L65.9717 20.0435H64.3838C64.4288 20.9557 64.4514 21.8454 64.4514 22.7125V31.4461H66.2927V27.1807C66.7856 27.9607 67.6703 28.4031 68.5901 28.3294C69.5328 28.3504 70.4384 27.9623 71.0733 27.2652ZM69.8232 22.1127C70.1957 22.6935 70.3814 23.3744 70.3554 24.0638C70.3877 24.7802 70.1958 25.4888 69.8064 26.0909C69.4461 26.6069 68.8472 26.9032 68.2184 26.8765C67.6691 26.9189 67.1306 26.7072 66.7572 26.3021C66.3945 25.89 66.2013 25.3559 66.2166 24.8071V23.4557C66.2235 23.27 66.2519 23.0858 66.3011 22.9067C66.3989 22.4514 66.6492 22.0431 67.0106 21.7495C67.3489 21.4654 67.7766 21.3098 68.2184 21.3103C68.8563 21.2814 69.4636 21.5851 69.8232 22.1127Z" fill="white"/>
<path d="M82.5772 24.993C82.606 25.8792 82.241 26.7327 81.5805 27.3242C80.7211 28.025 79.6299 28.3777 78.5229 28.3124C77.5047 28.3604 76.4939 28.1172 75.6089 27.6113L76.0228 26.1079C76.8063 26.5844 77.7072 26.833 78.6242 26.8258C79.1903 26.8616 79.7513 26.7004 80.2122 26.3697C80.5837 26.0738 80.7935 25.6197 80.7781 25.145C80.7881 24.7144 80.6201 24.2988 80.3135 23.9963C79.8589 23.6111 79.3299 23.3235 78.7594 23.1516C76.7998 22.3971 75.82 21.3131 75.82 19.8998C75.7899 19.0055 76.1807 18.1488 76.8758 17.5855C77.6605 16.9785 78.6394 16.6782 79.6294 16.7408C80.5045 16.7123 81.3736 16.8948 82.1633 17.273L81.7325 18.7426C81.0698 18.3911 80.3287 18.2138 79.5787 18.2274C79.0429 18.1938 78.5135 18.3593 78.0921 18.6919C77.8031 18.949 77.6398 19.3187 77.6445 19.7055C77.637 20.1315 77.8273 20.537 78.1597 20.8035C78.6577 21.1701 79.2108 21.4552 79.7983 21.6482C80.6067 21.9331 81.3382 22.4015 81.9352 23.0165C82.3899 23.5713 82.6191 24.2769 82.5772 24.993Z" fill="white"/>
<path d="M88.5656 21.3947H86.5806V25.3308C86.5806 26.3331 86.9298 26.8342 87.628 26.8342C87.898 26.84 88.1676 26.8116 88.4304 26.7497L88.4895 28.1096C88.0376 28.2584 87.563 28.327 87.0874 28.3123C86.4563 28.353 85.839 28.1154 85.3982 27.662C84.9372 27.0307 84.7239 26.2524 84.7985 25.4743V21.3947H83.616V20.0433H84.7985V18.5568L86.5638 18.0246V20.0433H88.5487L88.5656 21.3947Z" fill="white"/>
<path fill-rule="evenodd" clip-rule="evenodd" d="M96.4546 27.0961C97.1833 26.2449 97.5634 25.1497 97.5188 24.0301C97.569 22.9462 97.2 21.8846 96.4884 21.0654C95.7509 20.2691 94.701 19.8367 93.6166 19.8829C92.5082 19.8314 91.4332 20.27 90.6773 21.0823C89.9316 21.9319 89.5414 23.0358 89.5877 24.1652C89.5488 25.257 89.9262 26.3228 90.6435 27.1468C91.3671 27.9427 92.4068 28.3759 93.4815 28.3293C94.606 28.3777 95.6944 27.9263 96.4546 27.0961ZM95.1708 22.1636C95.5062 22.7487 95.6728 23.4153 95.6522 24.0894C95.6602 24.774 95.4758 25.4471 95.1201 26.0321C94.8005 26.6334 94.1752 27.0092 93.4942 27.0092C92.8132 27.0092 92.1879 26.6334 91.8683 26.0321C91.5355 25.4521 91.3689 24.7916 91.3868 24.1232C91.3635 23.4381 91.5301 22.7599 91.8683 22.1636C92.1937 21.5381 92.8532 21.1588 93.5575 21.1923C94.2364 21.1823 94.862 21.559 95.1708 22.1636Z" fill="white"/>
<path d="M103.372 21.6229C103.185 21.5888 102.996 21.5719 102.806 21.5722C102.225 21.5426 101.67 21.8138 101.337 22.2902C101.022 22.7644 100.865 23.3262 100.889 23.895V28.1182H99.0898V22.5689C99.0898 21.6341 99.0673 20.7895 99.0222 20.035H100.593L100.661 21.5891H100.711C100.883 21.083 101.197 20.6371 101.615 20.3052C101.991 20.0255 102.447 19.8745 102.916 19.8745C103.065 19.8629 103.215 19.8629 103.364 19.8745L103.372 21.6229Z" fill="white"/>
<path fill-rule="evenodd" clip-rule="evenodd" d="M111.363 24.5538C111.413 24.2752 111.436 23.9923 111.43 23.7092C111.453 22.8166 111.202 21.9385 110.712 21.1921C110.115 20.3269 109.11 19.8343 108.06 19.8914C106.961 19.8484 105.907 20.3315 105.222 21.1921C104.535 22.0568 104.179 23.1377 104.217 24.2413C104.162 25.3359 104.549 26.4068 105.29 27.2144C106.08 27.9817 107.155 28.383 108.254 28.3209C109.186 28.344 110.112 28.1744 110.974 27.8226L110.695 26.5725C109.996 26.8348 109.254 26.9638 108.508 26.9526C107.871 26.9802 107.245 26.7795 106.742 26.3867C106.221 25.9228 105.933 25.2511 105.957 24.5538H111.363ZM109.395 21.8593C109.645 22.2764 109.766 22.7586 109.741 23.2445H105.991C106.031 22.7361 106.216 22.2498 106.523 21.8424C106.846 21.37 107.387 21.0934 107.959 21.1076C108.54 21.0728 109.092 21.3621 109.395 21.8593Z" fill="white"/>
<path fill-rule="evenodd" clip-rule="evenodd" d="M48.7918 12.239C49.4024 11.6554 49.7134 10.825 49.6364 9.98385C49.6942 9.22998 49.4123 8.48968 48.8678 7.96516C48.2374 7.49994 47.4616 7.27528 46.6802 7.33168C46.1682 7.33007 45.657 7.36961 45.1514 7.44993V12.8641C45.5804 12.9122 46.0119 12.9347 46.4437 12.9316C47.2837 12.986 48.1157 12.7405 48.7918 12.239ZM48.192 8.49738C48.5577 8.90283 48.7436 9.43913 48.7073 9.98394H48.741C48.7958 10.5983 48.5975 11.2084 48.192 11.6732C47.7501 12.056 47.1683 12.2367 46.5872 12.1716C46.3875 12.1844 46.1872 12.1844 45.9875 12.1716V8.04127C46.2216 7.99911 46.4592 7.97931 46.697 7.98215C47.2447 7.94344 47.7845 8.12948 48.192 8.49738Z" fill="white"/>
<path fill-rule="evenodd" clip-rule="evenodd" d="M54.1045 12.3319C54.4617 11.9143 54.6487 11.3776 54.6282 10.8284C54.6487 10.2935 54.4644 9.77098 54.113 9.36722C53.7505 8.97617 53.2352 8.76324 52.7024 8.78442C52.1575 8.75997 51.6294 8.97616 51.2581 9.37566C50.8936 9.79286 50.7031 10.334 50.726 10.8876C50.7074 11.4262 50.8946 11.9517 51.2496 12.3572C51.6048 12.7485 52.1153 12.962 52.6433 12.94C53.1962 12.9629 53.7311 12.7403 54.1045 12.3319ZM53.4711 9.9838C53.6184 10.2415 53.6996 10.5317 53.7076 10.8284V10.8876C53.7275 11.2357 53.6453 11.5821 53.4711 11.8842C53.3263 12.1888 53.0141 12.3781 52.6771 12.3657C52.3272 12.3869 51.9971 12.2021 51.8325 11.8927C51.668 11.6051 51.5862 11.2778 51.596 10.9467C51.5844 10.61 51.6663 10.2768 51.8325 9.9838C51.9955 9.67283 52.3267 9.48735 52.6771 9.5108C53.0122 9.49686 53.3238 9.68249 53.4711 9.9838Z" fill="white"/>
<path d="M61.2586 8.90268L60.017 12.8809H59.1724L58.6571 11.1917C58.5283 10.7695 58.4212 10.3409 58.3362 9.9078C58.2594 10.3427 58.1522 10.7718 58.0152 11.1917L57.4662 12.8809H56.6216L55.4897 8.90268H56.3935L56.8496 10.8285C56.9566 11.2733 57.0467 11.6984 57.1199 12.1039C57.1875 11.7716 57.2973 11.3493 57.4493 10.8369L58.0152 8.93647H58.7332L59.2737 10.7947C59.4032 11.2508 59.5102 11.6872 59.5947 12.1039C59.6614 11.663 59.7516 11.2259 59.865 10.7947L60.3464 8.93647H61.1911L61.2586 8.90268Z" fill="white"/>
<path d="M65.8534 12.881H65.0088V10.6004C65.0088 9.89658 64.7413 9.54465 64.2064 9.54465C63.9608 9.54251 63.7265 9.64734 63.5644 9.83183C63.4024 10.0226 63.3154 10.2658 63.3195 10.516V12.881H62.4749V10.043C62.4749 9.69387 62.4749 9.31378 62.4749 8.90272H63.1506V9.52776C63.2575 9.32986 63.4148 9.16377 63.6067 9.04631C63.8471 8.8957 64.1254 8.81661 64.4091 8.81826C64.7554 8.80718 65.0912 8.93843 65.3382 9.18146C65.6663 9.53842 65.8315 10.0156 65.7943 10.4991L65.8534 12.881Z" fill="white"/>
<path d="M68.2944 12.8809H67.3738V7.07828H68.2184L68.2944 12.8809Z" fill="white"/>
<path fill-rule="evenodd" clip-rule="evenodd" d="M72.9821 12.3319C73.3393 11.9143 73.5262 11.3776 73.5057 10.8284C73.5223 10.3073 73.3447 9.79857 73.0074 9.40098C72.645 9.00994 72.1296 8.797 71.5969 8.81818C71.0572 8.78504 70.53 8.98856 70.1525 9.37564C69.785 9.79155 69.5914 10.3329 69.612 10.8875C69.591 11.4251 69.7752 11.9504 70.1272 12.3572C70.4817 12.7495 70.9926 12.9632 71.5208 12.94C72.0738 12.9629 72.6086 12.7403 72.9821 12.3319ZM72.3486 9.98375C72.4959 10.2415 72.5771 10.5316 72.5851 10.8284V10.8875C72.6102 11.2175 72.5429 11.548 72.3908 11.842C72.246 12.1466 71.9339 12.3358 71.5969 12.3234C71.247 12.3447 70.9169 12.1598 70.7522 11.8504C70.5952 11.5752 70.5136 11.2635 70.5157 10.9466C70.5042 10.61 70.586 10.2767 70.7522 9.98375C70.9007 9.67952 71.2165 9.49336 71.5546 9.51075C71.8897 9.49681 72.2013 9.68244 72.3486 9.98375Z" fill="white"/>
<path fill-rule="evenodd" clip-rule="evenodd" d="M76.994 12.881H77.788C77.7457 12.559 77.7288 12.2342 77.7373 11.9096V10.44C77.7373 9.34194 77.2164 8.79292 76.1747 8.79292C75.695 8.77643 75.2205 8.89653 74.8064 9.13923L74.9753 9.74737C75.2773 9.55245 75.6295 9.44972 75.9889 9.45174C76.552 9.45174 76.8335 9.71358 76.8335 10.2373V10.271C76.2461 10.2384 75.6611 10.37 75.1443 10.6511C74.7511 10.8818 74.5172 11.3106 74.5361 11.7661C74.519 12.0787 74.6321 12.3845 74.8486 12.6107C75.087 12.8564 75.4189 12.9885 75.7609 12.9739C76.2169 12.9982 76.6548 12.792 76.9265 12.4249L76.994 12.881ZM76.8674 10.8959V11.5041C76.8704 11.7527 76.7502 11.9866 76.5464 12.1291C76.3914 12.2484 76.2015 12.3137 76.0059 12.3149C75.8481 12.3213 75.6939 12.2668 75.5751 12.1629C75.4546 12.0395 75.3931 11.8703 75.4062 11.6983C75.4062 11.1634 75.8933 10.8959 76.8674 10.8959Z" fill="white"/>
<path fill-rule="evenodd" clip-rule="evenodd" d="M82.0367 12.8809H82.8222C82.7997 12.5544 82.794 12.1996 82.8053 11.8167V7.07828H81.9607V9.35036C81.718 8.97292 81.2837 8.76395 80.8373 8.80979C80.3637 8.80237 79.9115 9.0068 79.6041 9.36725C79.2461 9.80703 79.0626 10.3633 79.0889 10.9298C79.0643 11.4607 79.2322 11.9826 79.5619 12.3995C79.8516 12.7648 80.2951 12.9741 80.7613 12.9654C81.2939 13.0021 81.7965 12.7158 82.0367 12.239V12.8809ZM81.9015 10.5245V11.1918V11.2002C81.9133 11.459 81.8324 11.7136 81.6735 11.9182C81.5069 12.135 81.2457 12.2577 80.9724 12.2476C80.6628 12.2558 80.3702 12.1063 80.1954 11.8506C80.0028 11.5676 79.9079 11.2295 79.9251 10.8877C79.9121 10.5307 80.0127 10.1788 80.2123 9.88259C80.3871 9.62692 80.6797 9.47743 80.9893 9.48561C81.2074 9.47972 81.4192 9.55841 81.5806 9.70521C81.7426 9.84645 81.8551 10.0359 81.9015 10.2458C81.9115 10.3384 81.9115 10.4319 81.9015 10.5245Z" fill="white"/>
<path fill-rule="evenodd" clip-rule="evenodd" d="M89.8663 12.3318C90.2235 11.9142 90.4105 11.3775 90.39 10.8284C90.4089 10.3083 90.2344 9.79976 89.9001 9.40094C89.5384 9.00893 89.0225 8.79581 88.4896 8.81814C87.9471 8.78249 87.4162 8.9862 87.0368 9.3756C86.6692 9.79151 86.4757 10.3328 86.4962 10.8875C86.4753 11.425 86.6595 11.9504 87.0115 12.3572C87.3666 12.7485 87.8771 12.9619 88.4051 12.94C88.9583 12.964 89.4936 12.7412 89.8663 12.3318ZM89.2328 9.98376C89.3801 10.2415 89.4614 10.5317 89.4693 10.8284V10.8875C89.4848 11.2235 89.4058 11.5571 89.2413 11.8504C89.0845 12.1457 88.7774 12.3303 88.4431 12.3303C88.1088 12.3303 87.8017 12.1457 87.6449 11.8504C87.4879 11.5752 87.4063 11.2635 87.4084 10.9466C87.3968 10.61 87.4787 10.2767 87.6449 9.98376C87.8 9.68976 88.1065 9.50718 88.4389 9.51076C88.774 9.49682 89.0856 9.68245 89.2328 9.98376Z" fill="white"/>
<path d="M95.1454 12.8809H94.3008V10.6004C94.3008 9.89653 94.0192 9.5446 93.4561 9.5446C93.2091 9.53518 92.9718 9.64134 92.8142 9.83178C92.6515 10.0221 92.5643 10.2656 92.5692 10.5159V12.8809H91.7246V10.0429C91.7246 9.69382 91.7246 9.31373 91.7246 8.90267H92.5017V9.52771C92.6092 9.33028 92.7665 9.16433 92.9578 9.04626C93.2103 8.88772 93.5044 8.8083 93.8024 8.81821C94.1488 8.80712 94.4845 8.93838 94.7315 9.1814C95.0597 9.53837 95.2249 10.0156 95.1876 10.499L95.1454 12.8809Z" fill="white"/>
<path d="M101.109 9.56155H100.137V11.4958C100.137 11.9857 100.315 12.2306 100.653 12.2306C100.784 12.2475 100.918 12.2475 101.05 12.2306V12.9063C100.829 12.9799 100.598 13.0142 100.365 13.0077C100.05 13.0327 99.74 12.9149 99.5208 12.6867C99.2939 12.3775 99.1887 11.9957 99.2251 11.614V9.56155H98.6423V8.90273H99.2251V8.17634L100.07 7.91451V8.90273H101.041V9.56155H101.109Z" fill="white"/>
<path d="M105.788 12.8809H104.943V10.6173C104.943 9.90219 104.676 9.54462 104.141 9.54462C103.751 9.53019 103.401 9.78514 103.296 10.1612C103.281 10.2676 103.281 10.3757 103.296 10.4822V12.8809H102.452V7.07828H103.296V9.47705C103.547 9.05683 104.007 8.80727 104.496 8.82668C104.821 8.80963 105.14 8.92198 105.383 9.1392C105.705 9.50576 105.866 9.98679 105.83 10.4737L105.788 12.8809Z" fill="white"/>
<path fill-rule="evenodd" clip-rule="evenodd" d="M110.628 11.1071C110.641 10.9722 110.641 10.8365 110.628 10.7016C110.627 10.2593 110.488 9.8283 110.231 9.46848C109.939 9.04184 109.446 8.79845 108.93 8.82655C108.389 8.80503 107.871 9.0437 107.536 9.46848C107.201 9.89293 107.027 10.4228 107.046 10.9635C107.018 11.501 107.207 12.0274 107.57 12.4247C107.957 12.8004 108.484 12.9965 109.023 12.9653C109.48 12.9747 109.934 12.8914 110.357 12.7203L110.222 12.1037C109.879 12.2321 109.516 12.2952 109.15 12.2896C108.844 12.2974 108.546 12.1988 108.305 12.0108C108.047 11.7824 107.905 11.4511 107.916 11.1071H110.628ZM109.614 9.7895C109.738 9.99529 109.797 10.2338 109.783 10.4737L107.95 10.4652C107.972 10.2173 108.063 9.98043 108.212 9.78105C108.371 9.5515 108.634 9.41553 108.913 9.41786C109.197 9.4041 109.466 9.54666 109.614 9.7895Z" fill="white"/>
</svg>
