<svg width="222" height="23" viewBox="0 0 222 23" fill="none" xmlns="http://www.w3.org/2000/svg">
<path fill-rule="evenodd" clip-rule="evenodd" d="M33.4149 9.28777V10.8542H37.1743C37.1154 11.592 36.8087 12.2882 36.3041 12.8296C35.5435 13.6043 34.491 14.0216 33.4062 13.9783C31.0993 13.9783 29.2291 12.1082 29.2291 9.80121C29.2291 7.49424 31.0993 5.62407 33.4062 5.62407C34.466 5.60679 35.4894 6.0105 36.2519 6.74668L37.3571 5.64148C36.3171 4.58837 34.8949 4.0013 33.4149 4.01413C31.308 3.93214 29.3252 5.0094 28.2473 6.82157C27.1695 8.63374 27.1695 10.8904 28.2473 12.7025C29.3252 14.5147 31.308 15.592 33.4149 15.51C34.922 15.5781 36.3848 14.991 37.4267 13.9C38.3384 12.8983 38.8252 11.5815 38.7843 10.2276C38.7871 9.8978 38.7579 9.56847 38.6973 9.24426L33.4149 9.28777ZM43.0665 8.14773C41.025 8.15253 39.3735 9.81053 39.3767 11.852C39.3799 13.8935 41.0366 15.5463 43.0781 15.5447C45.1196 15.5431 46.7737 13.8877 46.7737 11.8462C46.788 10.858 46.4006 9.90622 45.7 9.20898C44.9995 8.51175 44.046 8.12875 43.0578 8.14773H43.0665ZM47.4871 11.8578C47.4807 9.81743 49.1278 8.15733 51.1681 8.14773C52.1563 8.12875 53.1099 8.51175 53.8104 9.20898C54.5109 9.90622 54.8984 10.858 54.884 11.8462C54.884 13.8866 53.2317 15.5415 51.1913 15.5447C49.151 15.5479 47.4934 13.8981 47.4871 11.8578ZM48.9859 12.8196C49.3833 13.6515 50.2488 14.1559 51.1684 14.0915C51.7457 14.0782 52.293 13.8322 52.6863 13.4094C53.0795 12.9867 53.2853 12.423 53.257 11.8463C53.2548 10.9244 52.6892 10.0976 51.8309 9.76131C50.9725 9.42501 49.9958 9.64758 49.3679 10.3226C48.74 10.9976 48.5885 11.9878 48.9859 12.8196ZM40.8779 12.8263C41.278 13.6576 42.1461 14.1595 43.0662 14.0915H43.0575C43.6347 14.0781 44.182 13.8321 44.5753 13.4094C44.9686 12.9867 45.1744 12.423 45.1461 11.8463C45.1436 10.9237 44.5769 10.0965 43.7174 9.76094C42.858 9.42538 41.8808 9.64975 41.2538 10.3266C40.6268 11.0034 40.4777 11.995 40.8779 12.8263ZM69.6781 8.14796C71.1209 8.20109 72.3812 9.13934 72.8458 10.5063L73.0285 10.8979L68.0769 12.943C68.3873 13.6498 69.0982 14.095 69.8696 14.0656C70.6144 14.0675 71.3053 13.6774 71.6884 13.0387L72.9502 13.9089C72.2633 14.9371 71.1061 15.5516 69.8696 15.545C68.8867 15.5594 67.9402 15.1735 67.2476 14.4759C66.555 13.7784 66.1758 12.8292 66.1972 11.8465C66.1371 10.8862 66.4771 9.94383 67.1365 9.24318C67.7959 8.54253 68.716 8.14607 69.6781 8.14796ZM67.7989 11.7418C67.7632 11.1981 67.948 10.6629 68.3114 10.2569C68.6749 9.85086 69.1864 9.60822 69.7308 9.58366C70.3046 9.54585 70.8456 9.85403 71.1058 10.3669L67.7989 11.7418ZM65.4055 15.327H63.7782V4.44906H65.4055V15.327ZM61.115 8.97462H61.0541C60.558 8.42 59.8488 8.10341 59.1047 8.10439C57.1294 8.20017 55.5771 9.82961 55.5771 11.8072C55.5771 13.7849 57.1294 15.4143 59.1047 15.5101C59.8513 15.5227 60.565 15.204 61.0541 14.6399H61.1063V15.1707C61.1063 16.5892 60.3492 17.3463 59.1308 17.3463C58.3009 17.3269 57.5651 16.8077 57.2685 16.0322L55.8501 16.624C56.3963 17.9527 57.6943 18.8169 59.1308 18.8083C61.0367 18.8083 62.6118 17.6857 62.6118 14.9532V8.36546H61.115V8.97462ZM59.2501 14.0913L59.2528 14.0916H59.2441L59.2501 14.0913ZM60.7165 13.3934C60.3431 13.8161 59.8135 14.068 59.2501 14.0913C58.0878 13.9875 57.1968 13.0136 57.1968 11.8463C57.1968 10.6782 58.0892 9.70368 59.2528 9.60113C59.8151 9.62998 60.3419 9.88463 60.7138 10.3073C61.0857 10.73 61.2712 11.285 61.2283 11.8463C61.2762 12.4103 61.0913 12.9693 60.7165 13.3934ZM80.469 4.44914H76.5703V15.3271H78.1977V11.2022H80.469C81.7332 11.293 82.9422 10.67 83.6019 9.58786C84.2617 8.50569 84.2617 7.14562 83.6019 6.06345C82.9422 4.98128 81.7332 4.35832 80.469 4.44914ZM78.1978 9.67062H80.4691L80.5039 9.69672C81.5348 9.69672 82.3705 8.86099 82.3705 7.83007C82.3705 6.79914 81.5348 5.96341 80.5039 5.96341H78.1978V9.67062ZM90.5028 8.10417C89.2921 8.0318 88.1538 8.68469 87.605 9.76632L89.0496 10.3668C89.3406 9.83043 89.9208 9.51644 90.529 9.56617C90.9463 9.51743 91.3656 9.63837 91.6929 9.90183C92.0202 10.1653 92.2279 10.5492 92.2694 10.9672V11.0804C91.7468 10.8036 91.1639 10.6602 90.5725 10.6627C89.0147 10.6627 87.4396 11.5329 87.4396 13.108C87.4707 13.7866 87.7749 14.4237 88.283 14.8744C88.7911 15.3252 89.46 15.5513 90.1373 15.5012C90.9721 15.5611 91.773 15.1607 92.2259 14.4569H92.2781V15.3271H93.8446V11.1413C93.8446 9.23548 92.4 8.13027 90.5464 8.13027L90.5028 8.10417ZM89.0324 13.143C89.0324 13.7957 89.7721 14.0654 90.303 14.0654L90.3465 14.0916C91.3268 14.0677 92.1398 13.3252 92.2523 12.3511C91.8008 12.099 91.2899 11.9728 90.7729 11.9856C89.9549 11.9856 89.0324 12.2728 89.0324 13.143ZM99.5536 8.36548L97.6913 13.0822H97.6391L95.7072 8.36548H93.9667L96.8646 14.9619L95.2111 18.6256H96.9081L101.364 8.36548H99.5536ZM86.5521 15.327H84.9248V4.44906H86.5521V15.327Z" fill="black"/>
<path d="M0.606548 0.928348C0.329148 1.27127 0.192292 1.70672 0.223644 2.14668V21.3963C0.197148 21.8386 0.340312 22.2743 0.623952 22.6147L0.684869 22.6756L11.4497 11.902V11.6497L0.667464 0.867432L0.606548 0.928348Z" fill="#00D8FF"/>
<path d="M15.0182 15.4956L11.4502 11.9015V11.6492L15.0182 8.04639L15.0965 8.0899L19.3693 10.5179C20.5877 11.2053 20.5877 12.3367 19.3693 13.0328L15.1139 15.4521L15.0182 15.4956Z" fill="url(#paint0_linear_630_64287)"/>
<path d="M15.122 15.4523L11.4496 11.7712L0.606445 22.6144C1.11877 23.0648 1.8791 23.0867 2.41654 22.6666L15.1307 15.4436" fill="#F1324B"/>
<path d="M15.1224 8.09882L2.40824 0.875856C1.8708 0.45577 1.11047 0.477703 0.598145 0.92807L11.45 11.7712L15.1224 8.09882Z" fill="#00F076"/>
<path opacity="0.2" d="M15.0176 15.3655L2.40783 22.5449C1.89182 22.9307 1.18338 22.9307 0.667362 22.5449L0.606445 22.6059L0.667362 22.6668C1.18241 23.0555 1.89279 23.0555 2.40783 22.6668L15.122 15.4438L15.0176 15.3655Z" fill="black"/>
<path d="M0.606373 22.493C0.322732 22.1526 0.179569 21.7169 0.206064 21.2747V21.4052C0.179569 21.8475 0.322732 22.2832 0.606373 22.6235L0.66729 22.5626L0.606373 22.493Z" fill="black"/>
<path d="M19.3688 12.9025L15.0176 15.3653L15.0959 15.4436L19.3688 13.0244C19.8622 12.7926 20.1942 12.3146 20.239 11.7712C20.1398 12.2628 19.8184 12.6806 19.3688 12.9025Z" fill="black"/>
<path d="M2.40744 0.997835L19.3683 10.6401C19.818 10.862 20.1394 11.2798 20.2386 11.7714C20.1937 11.228 19.8618 10.7501 19.3683 10.5182L2.40744 0.876002C1.19781 0.179812 0.223145 0.754168 0.223145 2.14655V2.27708C0.223145 0.884704 1.19781 0.310347 2.40744 0.997835Z" fill="black"/>
<path d="M126.993 2.85321C127.139 2.40453 127.774 2.40453 127.919 2.85321L129.534 7.82139C129.599 8.02204 129.786 8.1579 129.997 8.1579H135.221C135.692 8.1579 135.889 8.76159 135.507 9.03888L131.281 12.1094C131.11 12.2334 131.039 12.4532 131.104 12.6539L132.718 17.6221C132.864 18.0707 132.35 18.4438 131.969 18.1665L127.742 15.096C127.572 14.972 127.341 14.972 127.17 15.096L122.944 18.1665C122.562 18.4438 122.049 18.0707 122.194 17.6221L123.809 12.6539C123.874 12.4532 123.802 12.2334 123.632 12.1094L119.406 9.03888C119.024 8.76159 119.22 8.1579 119.692 8.1579H124.916C125.127 8.1579 125.314 8.02204 125.379 7.82139L126.993 2.85321Z" fill="#2945FF"/>
<path d="M148.162 2.85297C148.308 2.40429 148.943 2.40429 149.088 2.85297L150.703 7.82115C150.768 8.0218 150.955 8.15765 151.166 8.15765H156.39C156.861 8.15765 157.058 8.76134 156.676 9.03864L152.45 12.1092C152.279 12.2332 152.208 12.453 152.273 12.6536L153.887 17.6218C154.033 18.0705 153.519 18.4436 153.138 18.1663L148.911 15.0958C148.741 14.9718 148.51 14.9718 148.339 15.0958L144.113 18.1663C143.731 18.4436 143.218 18.0705 143.363 17.6218L144.978 12.6536C145.043 12.453 144.971 12.2332 144.801 12.1092L140.575 9.03864C140.193 8.76134 140.389 8.15765 140.861 8.15765H146.085C146.296 8.15765 146.483 8.0218 146.548 7.82115L148.162 2.85297Z" fill="#2945FF"/>
<path d="M169.331 2.85297C169.477 2.40429 170.112 2.40429 170.257 2.85297L171.872 7.82115C171.937 8.0218 172.124 8.15765 172.335 8.15765H177.559C178.03 8.15765 178.226 8.76134 177.845 9.03864L173.619 12.1092C173.448 12.2332 173.377 12.453 173.442 12.6536L175.056 17.6218C175.202 18.0705 174.688 18.4436 174.307 18.1663L170.08 15.0958C169.91 14.9718 169.679 14.9718 169.508 15.0958L165.282 18.1663C164.9 18.4436 164.387 18.0705 164.532 17.6218L166.147 12.6536C166.212 12.453 166.14 12.2332 165.97 12.1092L161.743 9.03864C161.362 8.76134 161.558 8.15765 162.03 8.15765H167.254C167.465 8.15765 167.652 8.0218 167.717 7.82115L169.331 2.85297Z" fill="#2945FF"/>
<path d="M190.499 2.85297C190.645 2.40429 191.279 2.40429 191.425 2.85297L193.04 7.82115C193.105 8.0218 193.292 8.15765 193.503 8.15765H198.727C199.198 8.15765 199.394 8.76134 199.013 9.03864L194.787 12.1092C194.616 12.2332 194.544 12.453 194.61 12.6536L196.224 17.6218C196.37 18.0705 195.856 18.4436 195.475 18.1663L191.248 15.0958C191.078 14.9718 190.847 14.9718 190.676 15.0958L186.45 18.1663C186.068 18.4436 185.554 18.0705 185.7 17.6218L187.315 12.6536C187.38 12.453 187.308 12.2332 187.138 12.1092L182.911 9.03864C182.53 8.76134 182.726 8.15765 183.198 8.15765H188.422C188.633 8.15765 188.819 8.0218 188.885 7.82115L190.499 2.85297Z" fill="#2945FF"/>
<path d="M211.401 3.5044C211.533 3.09651 212.11 3.09651 212.243 3.5044L213.889 8.5716C213.948 8.75402 214.118 8.87752 214.31 8.87752L219.638 8.87752C220.067 8.87752 220.245 9.42633 219.898 9.67842L215.588 12.8101C215.433 12.9229 215.368 13.1227 215.427 13.3051L217.073 18.3723C217.206 18.7802 216.739 19.1194 216.392 18.8673L212.082 15.7356C211.927 15.6229 211.717 15.6229 211.561 15.7356L207.251 18.8673C206.904 19.1194 206.437 18.7802 206.57 18.3723L208.216 13.3051C208.275 13.1227 208.21 12.9229 208.055 12.8101L203.745 9.67842C203.398 9.42633 203.576 8.87752 204.005 8.87752L209.333 8.87752C209.525 8.87752 209.695 8.75402 209.754 8.5716L211.401 3.5044Z" fill="#2945FF"/>
<defs>
<linearGradient id="paint0_linear_630_64287" x1="20.9619" y1="2.89431" x2="-0.0891387" y2="2.89431" gradientUnits="userSpaceOnUse">
<stop stop-color="#FFE000"/>
<stop offset="0.41" stop-color="#FFBD00"/>
<stop offset="0.78" stop-color="#FFA500"/>
<stop offset="1" stop-color="#FF9C00"/>
</linearGradient>
</defs>
</svg>
