<svg width="216" height="24" viewBox="0 0 216 24" fill="none" xmlns="http://www.w3.org/2000/svg">
<path d="M15.6141 12.7532C15.6371 11.0805 16.5143 9.53584 17.9391 8.65919C17.0343 7.36711 15.5733 6.57729 13.9967 6.52797C12.312 6.35107 10.7367 7.52198 9.88592 7.52198C9.03511 7.52198 7.721 6.54481 6.32265 6.57851C4.47993 6.6393 2.80428 7.6626 1.90858 9.27413C-0.00362575 12.5763 1.42 17.4368 3.25639 20.1071C4.17458 21.4128 5.2444 22.8786 6.62591 22.828C8.00741 22.7775 8.50441 21.9857 10.1555 21.9857C11.8065 21.9857 12.2699 22.828 13.7019 22.828C15.1339 22.828 16.0943 21.5139 16.9788 20.1914C17.6362 19.2603 18.1423 18.2311 18.4782 17.142C16.7239 16.3927 15.5936 14.6606 15.6141 12.7532Z" fill="white" stroke="black" stroke-width="0.748575"/>
<path d="M12.9187 4.7759C13.7209 3.81482 14.1168 2.57886 14.0222 1.33057C12.7986 1.45786 11.6678 2.04132 10.8549 2.96479C10.0528 3.8773 9.64666 5.07143 9.72611 6.28377C10.9651 6.29688 12.1418 5.74116 12.9187 4.7759Z" fill="white" stroke="black" stroke-width="0.748575"/>
<path fill-rule="evenodd" clip-rule="evenodd" d="M35.4969 17.7635H37.4176L33.7869 6.55981H31.5546L27.9492 17.7635H29.8109L30.8133 14.4698H34.4524L35.4969 17.7635ZM33.1969 10.1985L34.1404 13.13H31.1247L32.1271 10.1901C32.3686 9.25782 32.5455 8.55303 32.6578 8.07568C32.9105 9.17078 33.0902 9.87838 33.1969 10.1985Z" fill="black"/>
<path fill-rule="evenodd" clip-rule="evenodd" d="M45.5799 16.8875C46.3595 15.9863 46.7583 14.8173 46.6918 13.6275C46.736 12.5468 46.3857 11.4869 45.7062 10.6455C45.0544 9.87484 44.0765 9.45783 43.0692 9.5209C42.0618 9.58396 41.1436 10.1197 40.593 10.9656L40.4919 9.68515H38.9082C38.9531 10.5949 38.9756 11.4822 38.9756 12.3471V21.0573H40.812V16.8033C41.3036 17.5812 42.186 18.0224 43.1033 17.9489C44.0432 17.9688 44.946 17.5819 45.5799 16.8875ZM44.333 11.7487C44.7044 12.3279 44.8896 13.007 44.8637 13.6946C44.8981 14.4222 44.7005 15.142 44.2993 15.75C43.94 16.2646 43.3427 16.5601 42.7156 16.5334C42.1796 16.5516 41.6635 16.3291 41.3088 15.9269C40.9463 15.5164 40.7536 14.9833 40.7697 14.4359V13.0881C40.7761 12.9029 40.8044 12.7191 40.8539 12.5405C40.9521 12.0867 41.2016 11.6798 41.5615 11.3865C41.8989 11.1031 42.3256 10.948 42.7661 10.9484C43.3905 10.9313 43.9808 11.2328 44.333 11.7487Z" fill="black"/>
<path fill-rule="evenodd" clip-rule="evenodd" d="M54.8792 16.8875C55.6589 15.9863 56.0576 14.8173 55.9911 13.6275C56.0346 12.5469 55.6844 11.4873 55.0055 10.6455C54.3537 9.87484 53.3758 9.45783 52.3685 9.5209C51.3611 9.58396 50.4429 10.1197 49.8923 10.9656L49.7912 9.68515H48.2075C48.2524 10.5949 48.2749 11.4822 48.2749 12.3471V21.0573H50.1113V16.8033C50.6029 17.5812 51.4853 18.0224 52.4026 17.9489C53.3427 17.9699 54.246 17.5828 54.8792 16.8875ZM53.6329 11.749C54.0043 12.3282 54.1895 13.0073 54.1636 13.6949C54.1959 14.4093 54.0045 15.1161 53.6161 15.7166C53.2567 16.2312 52.6595 16.5267 52.0324 16.5C51.4845 16.5423 50.9475 16.3312 50.5751 15.9272C50.2133 15.5162 50.0207 14.9835 50.0359 14.4362V13.0884C50.0428 12.9032 50.0711 12.7195 50.1202 12.5408C50.2177 12.0868 50.4673 11.6796 50.8278 11.3868C51.1652 11.1034 51.5918 10.9483 52.0324 10.9487C52.6686 10.9199 53.2743 11.2228 53.6329 11.749Z" fill="black"/>
<path d="M66.353 14.6215C66.3817 15.5053 66.0177 16.3565 65.3589 16.9464C64.5018 17.6454 63.4136 17.9971 62.3095 17.932C61.294 17.9799 60.2859 17.7373 59.4033 17.2329L59.8161 15.7334C60.5976 16.2086 61.496 16.4566 62.4106 16.4494C62.9752 16.4851 63.5347 16.3244 63.9943 15.9946C64.3648 15.6994 64.5741 15.2465 64.5587 14.7731C64.5687 14.3437 64.4011 13.9292 64.0954 13.6275C63.642 13.2433 63.1144 12.9565 62.5454 12.7851C60.5911 12.0326 59.6139 10.9515 59.6139 9.54192C59.5838 8.65004 59.9736 7.79564 60.6669 7.23379C61.4494 6.62846 62.4257 6.32899 63.413 6.39141C64.2858 6.36299 65.1526 6.54501 65.9402 6.92211L65.5106 8.38785C64.8497 8.0373 64.1105 7.86048 63.3625 7.874C62.8281 7.84053 62.3002 8.00552 61.8799 8.33731C61.5916 8.59364 61.4288 8.96244 61.4335 9.34817C61.4261 9.77305 61.6158 10.1774 61.9473 10.4433C62.444 10.8089 62.9956 11.0932 63.5815 11.2856C64.3878 11.5698 65.1173 12.0369 65.7127 12.6503C66.1662 13.2036 66.3948 13.9073 66.353 14.6215Z" fill="black"/>
<path d="M72.3255 11.0327H70.3459V14.9582C70.3459 15.9578 70.6941 16.4577 71.3905 16.4577C71.6597 16.4634 71.9286 16.4351 72.1907 16.3734L72.2497 17.7297C71.7989 17.8781 71.3257 17.9465 70.8513 17.9318C70.2219 17.9724 69.6063 17.7354 69.1666 17.2832C68.7069 16.6537 68.4941 15.8774 68.5685 15.1014V11.0327H67.3892V9.68492H68.5685V8.20233L70.3291 7.67163V9.68492H72.3087L72.3255 11.0327Z" fill="black"/>
<path fill-rule="evenodd" clip-rule="evenodd" d="M80.193 16.719C80.9198 15.87 81.2989 14.7778 81.2544 13.6612C81.3044 12.5801 80.9364 11.5214 80.2267 10.7044C79.4913 9.91019 78.4441 9.47902 77.3627 9.52507C76.2572 9.47364 75.1851 9.91112 74.4312 10.7213C73.6875 11.5685 73.2984 12.6695 73.3445 13.7959C73.3057 14.8848 73.6821 15.9477 74.3975 16.7695C75.1191 17.5633 76.1561 17.9954 77.2279 17.9489C78.3494 17.9971 79.4349 17.5469 80.193 16.719ZM78.9126 11.7997C79.2471 12.3833 79.4133 13.0481 79.3928 13.7204C79.4007 14.4031 79.2168 15.0744 78.8621 15.6578C78.5433 16.2576 77.9196 16.6324 77.2405 16.6324C76.5613 16.6324 75.9376 16.2576 75.6189 15.6578C75.2871 15.0794 75.1209 14.4207 75.1388 13.7541C75.1155 13.0708 75.2817 12.3944 75.6189 11.7997C75.9435 11.1758 76.6012 10.7976 77.3037 10.831C77.9807 10.8211 78.6046 11.1967 78.9126 11.7997Z" fill="black"/>
<path d="M87.0927 11.2604C86.9064 11.2265 86.7175 11.2096 86.5283 11.2099C85.949 11.1804 85.3953 11.4509 85.0625 11.9259C84.7483 12.3989 84.592 12.9592 84.6161 13.5265V17.7384H82.8218V12.2039C82.8218 11.2717 82.7993 10.4293 82.7544 9.67677H84.3212L84.3886 11.2268H84.4392C84.6098 10.722 84.9229 10.2773 85.3405 9.94633C85.7155 9.66737 86.1704 9.51671 86.6378 9.51672C86.7864 9.50517 86.9356 9.50517 87.0842 9.51672L87.0927 11.2604Z" fill="black"/>
<path fill-rule="evenodd" clip-rule="evenodd" d="M95.0618 14.1832C95.1124 13.9054 95.135 13.6232 95.1292 13.3408C95.1517 12.4507 94.9019 11.5749 94.4131 10.8305C93.817 9.96757 92.8154 9.47631 91.7681 9.53327C90.6719 9.49042 89.6208 9.97216 88.9377 10.8305C88.2527 11.6929 87.8974 12.7709 87.9352 13.8715C87.8808 14.9632 88.2662 16.0312 89.0051 16.8367C89.7929 17.602 90.8653 18.0022 91.9618 17.9402C92.8906 17.9633 93.8141 17.7941 94.6743 17.4432L94.3963 16.1965C93.6991 16.4581 92.9591 16.5867 92.2145 16.5756C91.5792 16.6031 90.9549 16.4029 90.454 16.0112C89.9342 15.5485 89.6471 14.8787 89.6705 14.1832H95.0618ZM93.099 11.4964C93.3488 11.9124 93.469 12.3934 93.4444 12.8779H89.7042C89.7448 12.3709 89.9288 11.8859 90.2349 11.4796C90.5573 11.0085 91.0963 10.7326 91.667 10.7467C92.2463 10.7121 92.7974 11.0006 93.099 11.4964Z" fill="black"/>
<path d="M120.277 2.42548C120.423 1.9768 121.057 1.9768 121.203 2.42548L122.817 7.39366C122.883 7.59431 123.07 7.73016 123.281 7.73016H128.504C128.976 7.73016 129.172 8.33385 128.791 8.61115L124.564 11.6817C124.394 11.8057 124.322 12.0255 124.388 12.2261L126.002 17.1943C126.148 17.643 125.634 18.0161 125.252 17.7388L121.026 14.6683C120.855 14.5443 120.624 14.5443 120.454 14.6683L116.228 17.7388C115.846 18.0161 115.332 17.643 115.478 17.1943L117.092 12.2261C117.158 12.0255 117.086 11.8057 116.915 11.6817L112.689 8.61115C112.308 8.33385 112.504 7.73016 112.976 7.73016H118.199C118.41 7.73016 118.597 7.59431 118.663 7.39366L120.277 2.42548Z" fill="#2945FF"/>
<path d="M141.446 2.42523C141.591 1.97655 142.226 1.97655 142.372 2.42523L143.986 7.39341C144.051 7.59407 144.238 7.72992 144.449 7.72992H149.673C150.145 7.72992 150.341 8.33361 149.96 8.61091L145.733 11.6814C145.563 11.8054 145.491 12.0252 145.556 12.2259L147.171 17.1941C147.316 17.6428 146.803 18.0159 146.421 17.7386L142.195 14.6681C142.024 14.544 141.793 14.544 141.623 14.6681L137.396 17.7386C137.015 18.0159 136.501 17.6428 136.647 17.1941L138.261 12.2259C138.326 12.0252 138.255 11.8054 138.084 11.6814L133.858 8.61091C133.477 8.33361 133.673 7.72992 134.144 7.72992H139.368C139.579 7.72992 139.766 7.59407 139.831 7.39341L141.446 2.42523Z" fill="#2945FF"/>
<path d="M162.615 2.42523C162.76 1.97655 163.395 1.97655 163.541 2.42523L165.155 7.39341C165.22 7.59407 165.407 7.72992 165.618 7.72992H170.842C171.314 7.72992 171.51 8.33361 171.128 8.61091L166.902 11.6814C166.732 11.8054 166.66 12.0252 166.725 12.2259L168.34 17.1941C168.485 17.6428 167.972 18.0159 167.59 17.7386L163.364 14.6681C163.193 14.544 162.962 14.544 162.792 14.6681L158.565 17.7386C158.184 18.0159 157.67 17.6428 157.816 17.1941L159.43 12.2259C159.495 12.0252 159.424 11.8054 159.253 11.6814L155.027 8.61091C154.645 8.33361 154.842 7.72992 155.313 7.72992H160.537C160.748 7.72992 160.935 7.59407 161 7.39341L162.615 2.42523Z" fill="#2945FF"/>
<path d="M183.783 2.42523C183.928 1.97655 184.563 1.97655 184.709 2.42523L186.323 7.39341C186.388 7.59407 186.575 7.72992 186.786 7.72992H192.01C192.482 7.72992 192.678 8.33361 192.296 8.61091L188.07 11.6814C187.9 11.8054 187.828 12.0252 187.893 12.2259L189.508 17.1941C189.653 17.6428 189.14 18.0159 188.758 17.7386L184.532 14.6681C184.361 14.544 184.13 14.544 183.96 14.6681L179.733 17.7386C179.352 18.0159 178.838 17.6428 178.984 17.1941L180.598 12.2259C180.663 12.0252 180.592 11.8054 180.421 11.6814L176.195 8.61091C175.813 8.33361 176.01 7.72992 176.481 7.72992H181.705C181.916 7.72992 182.103 7.59407 182.168 7.39341L183.783 2.42523Z" fill="#2945FF"/>
<path d="M204.684 3.07667C204.817 2.66878 205.394 2.66878 205.526 3.07667L207.173 8.14387C207.232 8.32628 207.402 8.44978 207.594 8.44978L212.922 8.44978C213.351 8.44978 213.529 8.99859 213.182 9.25068L208.872 12.3824C208.716 12.4951 208.651 12.695 208.711 12.8774L210.357 17.9446C210.49 18.3525 210.023 18.6916 209.676 18.4396L205.366 15.3079C205.21 15.1951 205 15.1951 204.845 15.3079L200.535 18.4396C200.188 18.6916 199.721 18.3525 199.853 17.9446L201.5 12.8774C201.559 12.695 201.494 12.4951 201.339 12.3824L197.029 9.25068C196.682 8.99859 196.86 8.44978 197.289 8.44978L202.617 8.44978C202.809 8.44978 202.979 8.32628 203.038 8.14387L204.684 3.07667Z" fill="#2945FF"/>
</svg>
