<svg width="110" height="73" viewBox="0 0 110 73" fill="none" xmlns="http://www.w3.org/2000/svg">
<path d="M4.76811 33.2711H4.76895H104.746C107.054 33.2714 108.935 31.4179 108.969 29.1096V29.1038L108.969 4.76895L108.969 4.76314C108.935 2.45485 107.054 0.601345 104.746 0.601591H4.76895C2.46738 0.601591 0.601591 2.46738 0.601591 4.76895L0.60159 29.1038L0.601592 29.1046C0.606437 31.4037 2.46902 33.2663 4.76811 33.2711Z" fill="black" stroke="#999999" stroke-width="0.796818"/>
<path d="M107.774 29.1038C107.774 30.7893 106.407 32.1556 104.722 32.1556H4.76895C3.95818 32.1578 3.17989 31.8372 2.60584 31.2646C2.03179 30.6921 1.70916 29.9146 1.70917 29.1038V4.76104C1.71356 3.07428 3.08219 1.70922 4.76895 1.70923H104.746C106.422 1.72236 107.774 3.08486 107.774 4.76104V29.1038Z" fill="black"/>
<path d="M25.0081 16.761C25.0299 15.1788 25.8597 13.7177 27.2073 12.8885C26.3515 11.6663 24.9695 10.9192 23.4782 10.8726C21.8846 10.7052 20.3946 11.8128 19.5898 11.8128C18.785 11.8128 17.5419 10.8885 16.2192 10.9204C14.4762 10.9779 12.8912 11.9458 12.0439 13.4702C10.2351 16.5937 11.5817 21.1914 13.3188 23.7173C14.1873 24.9523 15.1993 26.3388 16.5061 26.291C17.8129 26.2432 18.283 25.4942 19.8447 25.4942C21.4065 25.4942 21.8448 26.291 23.1994 26.291C24.5539 26.291 25.4623 25.048 26.299 23.797C26.9209 22.9163 27.3996 21.9427 27.7173 20.9125C26.0579 20.2037 24.9888 18.5653 25.0081 16.761Z" fill="white"/>
<path d="M22.4583 9.21516C23.2171 8.30606 23.5916 7.13695 23.5021 5.95618C22.3447 6.07658 21.275 6.62849 20.5061 7.502C19.7474 8.36516 19.3632 9.49471 19.4384 10.6415C20.6104 10.6539 21.7234 10.1282 22.4583 9.21516Z" fill="white"/>
<path fill-rule="evenodd" clip-rule="evenodd" d="M41.9325 26.0999H43.7493L40.315 15.5022H38.2034L34.7931 26.0999H36.554L37.5022 22.9843H40.9445L41.9325 26.0999ZM39.7572 18.9445L40.6497 21.7174H37.7971L38.7453 18.9365C38.9737 18.0547 39.141 17.388 39.2473 16.9365C39.4863 17.9723 39.6563 18.6417 39.7572 18.9445Z" fill="white"/>
<path fill-rule="evenodd" clip-rule="evenodd" d="M51.4705 25.2711C52.208 24.4186 52.5852 23.3128 52.5223 22.1874C52.5641 21.1652 52.2328 20.1626 51.59 19.3666C50.9734 18.6377 50.0484 18.2433 49.0956 18.3029C48.1427 18.3626 47.2741 18.8693 46.7533 19.6694L46.6577 18.4583H45.1597C45.2022 19.3188 45.2234 20.1582 45.2234 20.9762V29.2153H46.9605V25.1914C47.4255 25.9272 48.2601 26.3445 49.1278 26.2751C50.0169 26.2939 50.8709 25.9279 51.4705 25.2711ZM50.2912 20.4104C50.6425 20.9583 50.8177 21.6006 50.7932 22.251C50.8257 22.9393 50.6388 23.6202 50.2593 24.1953C49.9194 24.6821 49.3544 24.9615 48.7613 24.9363C48.2543 24.9536 47.7661 24.7431 47.4306 24.3626C47.0877 23.9743 46.9054 23.4701 46.9206 22.9522V21.6773C46.9267 21.5021 46.9534 21.3283 47.0003 21.1594C47.0932 20.7301 47.3292 20.3452 47.6696 20.0678C47.9888 19.7997 48.3923 19.653 48.8091 19.6534C49.3997 19.6373 49.958 19.9224 50.2912 20.4104Z" fill="white"/>
<path fill-rule="evenodd" clip-rule="evenodd" d="M60.2673 25.2711C61.0048 24.4186 61.382 23.3128 61.3191 22.1874C61.3603 21.1653 61.029 20.163 60.3868 19.3666C59.7703 18.6377 58.8453 18.2433 57.8924 18.3029C56.9396 18.3626 56.071 18.8693 55.5502 19.6694L55.4545 18.4583H53.9565C53.999 19.3188 54.0203 20.1582 54.0203 20.9762V29.2153H55.7573V25.1914C56.2224 25.9272 57.057 26.3445 57.9247 26.2751C58.814 26.2949 59.6684 25.9288 60.2673 25.2711ZM59.088 20.4105C59.4394 20.9584 59.6146 21.6007 59.59 22.2511C59.6206 22.9269 59.4395 23.5954 59.0721 24.1635C58.7322 24.6502 58.1672 24.9297 57.5741 24.9045C57.0559 24.9445 56.5479 24.7448 56.1956 24.3627C55.8534 23.9739 55.6712 23.47 55.6856 22.9523V21.6774C55.6921 21.5023 55.7188 21.3285 55.7653 21.1595C55.8576 20.73 56.0937 20.3448 56.4346 20.0678C56.7538 19.7998 57.1573 19.653 57.5741 19.6535C58.1758 19.6262 58.7488 19.9127 59.088 20.4105Z" fill="white"/>
<path d="M71.12 23.1277C71.1472 23.9637 70.8029 24.7689 70.1797 25.3269C69.369 25.988 68.3396 26.3207 67.2953 26.2592C66.3347 26.3044 65.3811 26.075 64.5462 25.5978L64.9367 24.1795C65.6759 24.629 66.5258 24.8635 67.3909 24.8568C67.9249 24.8905 68.4542 24.7385 68.8889 24.4265C69.2394 24.1473 69.4373 23.7189 69.4228 23.2711C69.4323 22.8649 69.2737 22.4728 68.9845 22.1874C68.5557 21.824 68.0566 21.5528 67.5184 21.3906C65.6697 20.6788 64.7454 19.6562 64.7454 18.3229C64.717 17.4792 65.0857 16.671 65.7415 16.1396C66.4817 15.567 67.4051 15.2837 68.3391 15.3428C69.1646 15.3159 69.9845 15.488 70.7295 15.8448L70.3232 17.2312C69.698 16.8996 68.9988 16.7324 68.2913 16.7452C67.7858 16.7135 67.2864 16.8696 66.8889 17.1834C66.6162 17.4259 66.4621 17.7747 66.4666 18.1396C66.4596 18.5415 66.639 18.924 66.9526 19.1755C67.4224 19.5213 67.9442 19.7902 68.4985 19.9723C69.2611 20.2411 69.9511 20.6829 70.5144 21.2631C70.9433 21.7865 71.1595 22.4521 71.12 23.1277Z" fill="white"/>
<path d="M76.7694 19.7333H74.8969V23.4464C74.8969 24.392 75.2263 24.8648 75.885 24.8648C76.1396 24.8702 76.394 24.8435 76.6419 24.7851L76.6977 26.068C76.2713 26.2084 75.8237 26.2731 75.375 26.2592C74.7796 26.2976 74.1973 26.0734 73.7814 25.6456C73.3465 25.0502 73.1452 24.3159 73.2156 23.5819V19.7333H72.1001V18.4584H73.2156V17.056L74.881 16.554V18.4584H76.7535L76.7694 19.7333Z" fill="white"/>
<path fill-rule="evenodd" clip-rule="evenodd" d="M84.2117 25.1118C84.8992 24.3087 85.2578 23.2756 85.2157 22.2193C85.263 21.1968 84.9149 20.1953 84.2436 19.4225C83.5479 18.6712 82.5574 18.2634 81.5344 18.307C80.4887 18.2583 79.4746 18.6721 78.7615 19.4384C78.058 20.2399 77.6899 21.2813 77.7336 22.3468C77.6969 23.3768 78.0529 24.3822 78.7296 25.1596C79.4122 25.9104 80.3931 26.3191 81.4069 26.2751C82.4678 26.3208 83.4946 25.8949 84.2117 25.1118ZM83.0005 20.4583C83.3169 21.0103 83.4741 21.6392 83.4547 22.2751C83.4622 22.9209 83.2883 23.5559 82.9527 24.1077C82.6512 24.675 82.0613 25.0296 81.4189 25.0296C80.7764 25.0296 80.1865 24.675 79.885 24.1077C79.5711 23.5606 79.4139 22.9375 79.4308 22.3069C79.4088 21.6606 79.566 21.0208 79.885 20.4583C80.192 19.8682 80.8141 19.5104 81.4786 19.542C82.1191 19.5326 82.7092 19.8879 83.0005 20.4583Z" fill="white"/>
<path d="M90.7377 19.9484C90.5615 19.9163 90.3828 19.9003 90.2038 19.9006C89.6559 19.8726 89.1321 20.1285 88.8173 20.5779C88.5201 21.0252 88.3723 21.5552 88.395 22.0918V26.0759H86.6978V20.8408C86.6978 19.959 86.6765 19.1622 86.634 18.4504H88.1161L88.1799 19.9165H88.2277C88.3891 19.439 88.6852 19.0184 89.0803 18.7053C89.435 18.4415 89.8653 18.299 90.3074 18.299C90.4479 18.288 90.5891 18.288 90.7297 18.299L90.7377 19.9484Z" fill="white"/>
<path fill-rule="evenodd" clip-rule="evenodd" d="M98.2756 22.7133C98.3235 22.4505 98.3448 22.1836 98.3393 21.9165C98.3606 21.0745 98.1243 20.2461 97.662 19.542C97.0981 18.7257 96.1506 18.261 95.16 18.3149C94.1231 18.2744 93.1289 18.73 92.4827 19.542C91.8348 20.3577 91.4986 21.3774 91.5345 22.4185C91.483 23.4512 91.8475 24.4614 92.5464 25.2233C93.2916 25.9472 94.306 26.3258 95.3433 26.2671C96.2218 26.289 97.0953 26.1289 97.909 25.797L97.6461 24.6177C96.9866 24.8652 96.2866 24.9868 95.5823 24.9763C94.9813 25.0023 94.3908 24.813 93.917 24.4424C93.4253 24.0048 93.1538 23.3712 93.1759 22.7133H98.2756ZM96.419 20.1715C96.6552 20.565 96.769 21.0199 96.7457 21.4783H93.2078C93.2461 20.9987 93.4203 20.5399 93.7098 20.1556C94.0147 19.7099 94.5246 19.449 95.0644 19.4624C95.6124 19.4296 96.1336 19.7025 96.419 20.1715Z" fill="white"/>
<path fill-rule="evenodd" clip-rule="evenodd" d="M39.2473 11.0957C39.8233 10.5451 40.1167 9.76175 40.0441 8.96819C40.0986 8.257 39.8327 7.55862 39.319 7.06379C38.7243 6.62491 37.9924 6.41297 37.2552 6.46618C36.7723 6.46466 36.29 6.50196 35.813 6.57773V11.6853C36.2177 11.7307 36.6248 11.752 37.0321 11.7491C37.8246 11.8003 38.6095 11.5688 39.2473 11.0957ZM38.6815 7.56576C39.0265 7.94826 39.2019 8.4542 39.1676 8.96816H39.1995C39.2511 9.54775 39.0641 10.1233 38.6815 10.5618C38.2646 10.9229 37.7157 11.0934 37.1676 11.0319C36.9792 11.044 36.7902 11.044 36.6018 11.0319V7.13548C36.8227 7.0957 37.0468 7.07703 37.2712 7.0797C37.7878 7.04319 38.2971 7.21869 38.6815 7.56576Z" fill="white"/>
<path fill-rule="evenodd" clip-rule="evenodd" d="M44.2592 11.1834C44.5962 10.7894 44.7726 10.2831 44.7533 9.76502C44.7726 9.26041 44.5988 8.76743 44.2672 8.38653C43.9253 8.01762 43.4391 7.81675 42.9365 7.83672C42.4225 7.81366 41.9243 8.01761 41.574 8.3945C41.2301 8.78807 41.0504 9.29861 41.072 9.8208C41.0544 10.329 41.2311 10.8247 41.566 11.2073C41.9011 11.5764 42.3827 11.7778 42.8808 11.7571C43.4024 11.7786 43.9069 11.5687 44.2592 11.1834ZM43.6616 8.96819C43.8006 9.21132 43.8773 9.48506 43.8847 9.76501V9.82078C43.9035 10.1492 43.826 10.476 43.6616 10.761C43.525 11.0484 43.2306 11.2269 42.9126 11.2152C42.5826 11.2353 42.2712 11.0609 42.1158 10.769C41.9607 10.4977 41.8835 10.1889 41.8927 9.87656C41.8818 9.55898 41.959 9.24458 42.1158 8.96819C42.2697 8.67482 42.5821 8.49985 42.9126 8.52197C43.2287 8.50881 43.5227 8.68394 43.6616 8.96819Z" fill="white"/>
<path d="M51.0083 7.94824L49.837 11.7013H49.0402L48.5541 10.1076C48.4326 9.70933 48.3315 9.30508 48.2513 8.89646C48.1789 9.30678 48.0777 9.7115 47.9485 10.1076L47.4306 11.7013H46.6338L45.566 7.94824H46.4186L46.8489 9.76499C46.9498 10.1846 47.0348 10.5857 47.1039 10.9682C47.1676 10.6548 47.2712 10.2564 47.4147 9.77296L47.9485 7.98011H48.6258L49.1358 9.73311C49.258 10.1634 49.3589 10.5751 49.4386 10.9682C49.5015 10.5522 49.5866 10.14 49.6936 9.73311L50.1477 7.98011H50.9446L51.0083 7.94824Z" fill="white"/>
<path d="M55.343 11.7013H54.5462V9.54994C54.5462 8.88593 54.2938 8.55392 53.7892 8.55392C53.5575 8.5519 53.3365 8.6508 53.1836 8.82484C53.0308 9.00478 52.9486 9.2342 52.9525 9.47026V11.7013H52.1557V9.02404C52.1557 8.69469 52.1557 8.33612 52.1557 7.94834H52.7932V8.53798C52.894 8.35129 53.0425 8.1946 53.2235 8.0838C53.4503 7.94171 53.7128 7.86709 53.9804 7.86865C54.3072 7.8582 54.6239 7.98202 54.8569 8.21129C55.1665 8.54804 55.3224 8.99824 55.2872 9.45432L55.343 11.7013Z" fill="white"/>
<path d="M57.6458 11.7013H56.7773V6.22717H57.5741L57.6458 11.7013Z" fill="white"/>
<path fill-rule="evenodd" clip-rule="evenodd" d="M62.0681 11.1833C62.4051 10.7893 62.5815 10.283 62.5622 9.76496C62.5778 9.27333 62.4103 8.79342 62.092 8.41834C61.7501 8.04943 61.2639 7.84856 60.7614 7.86853C60.2523 7.83727 59.7548 8.02927 59.3988 8.39443C59.052 8.78679 58.8695 9.29747 58.8888 9.82074C58.8691 10.3278 59.0428 10.8234 59.3749 11.2072C59.7093 11.5773 60.1913 11.7788 60.6896 11.757C61.2113 11.7786 61.7158 11.5686 62.0681 11.1833ZM61.4705 8.96824C61.6095 9.21138 61.6861 9.48512 61.6936 9.76506V9.82084C61.7173 10.1322 61.6539 10.4439 61.5104 10.7212C61.3738 11.0086 61.0793 11.1872 60.7614 11.1754C60.4313 11.1955 60.1199 11.0211 59.9645 10.7292C59.8164 10.4696 59.7394 10.1755 59.7414 9.87662C59.7305 9.55904 59.8077 9.24463 59.9645 8.96824C60.1046 8.68124 60.4026 8.50562 60.7215 8.52203C61.0376 8.50887 61.3316 8.68399 61.4705 8.96824Z" fill="white"/>
<path fill-rule="evenodd" clip-rule="evenodd" d="M65.853 11.7013H66.602C66.5622 11.3975 66.5462 11.0912 66.5542 10.7849V9.39847C66.5542 8.36261 66.0629 7.84467 65.0801 7.84467C64.6276 7.82912 64.1799 7.94241 63.7893 8.17137L63.9486 8.74508C64.2335 8.5612 64.5658 8.46429 64.9048 8.46619C65.436 8.46619 65.7016 8.71321 65.7016 9.20723V9.23911C65.1474 9.20829 64.5956 9.33245 64.108 9.59767C63.737 9.81528 63.5164 10.2198 63.5343 10.6495C63.5181 10.9444 63.6248 11.2329 63.8291 11.4463C64.0539 11.6781 64.3671 11.8027 64.6897 11.7889C65.1199 11.8119 65.533 11.6173 65.7893 11.271L65.853 11.7013ZM65.7335 9.82883V10.4025C65.7363 10.6371 65.6229 10.8578 65.4307 10.9922C65.2844 11.1048 65.1053 11.1663 64.9207 11.1675C64.7719 11.1735 64.6265 11.1221 64.5144 11.0241C64.4007 10.9077 64.3426 10.748 64.355 10.5858C64.355 10.0812 64.8145 9.82883 65.7335 9.82883Z" fill="white"/>
<path fill-rule="evenodd" clip-rule="evenodd" d="M70.61 11.7013H71.3511C71.3298 11.3932 71.3245 11.0585 71.3351 10.6973V6.22717H70.5383V8.37061C70.3093 8.01454 69.8997 7.8174 69.4785 7.86065C69.0317 7.85366 68.6051 8.04651 68.3152 8.38655C67.9774 8.80143 67.8044 9.32624 67.8291 9.86066C67.8059 10.3615 67.9643 10.8539 68.2753 11.2471C68.5486 11.5918 68.9671 11.7892 69.4068 11.781C69.9093 11.8156 70.3835 11.5455 70.61 11.0957V11.7013ZM70.4825 9.47821V10.1077V10.1157C70.4936 10.3598 70.4174 10.5999 70.2674 10.793C70.1102 10.9975 69.8638 11.1133 69.606 11.1037C69.3139 11.1114 69.0379 10.9704 68.873 10.7292C68.6913 10.4623 68.6018 10.1433 68.618 9.82084C68.6058 9.48407 68.7006 9.1521 68.8889 8.87262C69.0538 8.63143 69.3299 8.49041 69.622 8.49812C69.8277 8.49257 70.0275 8.5668 70.1797 8.70529C70.3326 8.83853 70.4387 9.01726 70.4825 9.21526C70.492 9.30265 70.492 9.39081 70.4825 9.47821Z" fill="white"/>
<path fill-rule="evenodd" clip-rule="evenodd" d="M77.9965 11.1833C78.3335 10.7893 78.5099 10.283 78.4906 9.76495C78.5084 9.27436 78.3437 8.79457 78.0284 8.41833C77.6871 8.04852 77.2005 7.84746 76.6977 7.86852C76.1859 7.83489 75.6851 8.02707 75.3272 8.39442C74.9804 8.78678 74.7979 9.29746 74.8172 9.82073C74.7975 10.3278 74.9712 10.8234 75.3033 11.2072C75.6384 11.5763 76.1199 11.7777 76.618 11.757C77.1399 11.7797 77.6449 11.5695 77.9965 11.1833ZM77.3989 8.96817C77.5379 9.2113 77.6145 9.48504 77.622 9.76499V9.82077C77.6366 10.1377 77.5621 10.4524 77.4069 10.7291C77.2589 11.0077 76.9693 11.1818 76.6539 11.1818C76.3385 11.1818 76.0488 11.0077 75.9009 10.7291C75.7528 10.4695 75.6758 10.1754 75.6778 9.87654C75.6669 9.55896 75.7441 9.24456 75.9009 8.96817C76.0472 8.69082 76.3363 8.51858 76.6499 8.52195C76.966 8.5088 77.26 8.68392 77.3989 8.96817Z" fill="white"/>
<path d="M82.9766 11.7013H82.1798V9.54986C82.1798 8.88585 81.9142 8.55384 81.383 8.55384C81.15 8.54495 80.9261 8.64511 80.7774 8.82476C80.6239 9.00433 80.5417 9.234 80.5463 9.47018V11.7013H79.7495V9.02396C79.7495 8.69461 79.7495 8.33604 79.7495 7.94826H80.4826V8.5379C80.5841 8.35166 80.7324 8.19511 80.9129 8.08372C81.1511 7.93415 81.4286 7.85923 81.7097 7.86858C82.0364 7.85812 82.3532 7.98194 82.5862 8.21121C82.8958 8.54796 83.0516 8.99816 83.0165 9.45425L82.9766 11.7013Z" fill="white"/>
<path d="M88.6022 8.56979H87.6858V10.3945C87.6858 10.8567 87.8532 11.0877 88.1719 11.0877C88.2962 11.1037 88.4221 11.1037 88.5464 11.0877V11.7252C88.3385 11.7946 88.1201 11.8269 87.901 11.8208C87.6034 11.8444 87.311 11.7332 87.1042 11.518C86.8902 11.2263 86.7909 10.8662 86.8253 10.5061V8.56979H86.2755V7.94827H86.8253V7.263L87.6221 7.01599V7.94827H88.5384V8.56979H88.6022Z" fill="white"/>
<path d="M93.0165 11.7013H92.2197V9.56584C92.2197 8.8912 91.9674 8.55388 91.4628 8.55388C91.0946 8.54027 90.7651 8.78079 90.6659 9.13556C90.6513 9.23596 90.6513 9.33795 90.6659 9.43835V11.7013H89.8691V6.22717H90.6659V8.49014C90.9021 8.09371 91.3363 7.85828 91.7974 7.87659C92.1043 7.8605 92.4051 7.96649 92.6341 8.17141C92.9384 8.51722 93.0906 8.97101 93.0564 9.43038L93.0165 11.7013Z" fill="white"/>
<path fill-rule="evenodd" clip-rule="evenodd" d="M97.5823 10.028C97.5944 9.90079 97.5944 9.77272 97.5823 9.64552C97.5814 9.22824 97.4505 8.82162 97.2078 8.48216C96.9328 8.07968 96.4675 7.85007 95.9807 7.87658C95.4708 7.85628 94.982 8.08143 94.666 8.48216C94.3495 8.88258 94.1857 9.38247 94.2038 9.89253C94.1773 10.3996 94.3552 10.8962 94.6978 11.271C95.0631 11.6255 95.5603 11.8105 96.0684 11.781C96.4993 11.7899 96.9276 11.7113 97.3273 11.5499L97.1998 10.9682C96.8764 11.0894 96.5332 11.1488 96.1879 11.1435C95.8998 11.1509 95.6182 11.0579 95.3911 10.8806C95.1482 10.6651 95.0138 10.3526 95.0245 10.028H97.5823ZM96.6261 8.78499C96.7432 8.97912 96.7987 9.20412 96.7855 9.43041L95.0564 9.42244C95.0773 9.18857 95.1629 8.96511 95.3034 8.77702C95.4536 8.56046 95.7012 8.43219 95.9648 8.43439C96.2328 8.42141 96.4865 8.55589 96.6261 8.78499Z" fill="white"/>
<path d="M37.2541 43.8772C37.3568 43.561 37.8042 43.561 37.9069 43.8772L39.0445 47.3784C39.0904 47.5198 39.2222 47.6156 39.3709 47.6156H43.0523C43.3847 47.6156 43.523 48.041 43.254 48.2364L40.2757 50.4003C40.1554 50.4877 40.1051 50.6426 40.151 50.784L41.2886 54.2852C41.3914 54.6014 41.0295 54.8643 40.7605 54.6689L37.7822 52.505C37.6619 52.4176 37.4991 52.4176 37.3788 52.505L34.4005 54.6689C34.1315 54.8643 33.7696 54.6014 33.8723 54.2852L35.01 50.784C35.0559 50.6426 35.0056 50.4877 34.8853 50.4003L31.907 48.2364C31.638 48.041 31.7763 47.6156 32.1087 47.6156H35.7901C35.9388 47.6156 36.0705 47.5198 36.1165 47.3784L37.2541 43.8772Z" fill="#2945FF"/>
<path d="M52.1723 43.8772C52.2751 43.561 52.7224 43.561 52.8251 43.8772L53.9627 47.3784C54.0087 47.5198 54.1405 47.6156 54.2891 47.6156H57.9705C58.303 47.6156 58.4412 48.041 58.1722 48.2364L55.1939 50.4003C55.0737 50.4877 55.0233 50.6426 55.0693 50.784L56.2069 54.2852C56.3096 54.6014 55.9477 54.8643 55.6787 54.6689L52.7005 52.505C52.5802 52.4176 52.4173 52.4176 52.297 52.505L49.3187 54.6689C49.0497 54.8643 48.6878 54.6014 48.7906 54.2852L49.9282 50.784C49.9741 50.6426 49.9238 50.4877 49.8035 50.4003L46.8252 48.2364C46.5563 48.041 46.6945 47.6156 47.027 47.6156H50.7083C50.857 47.6156 50.9888 47.5198 51.0347 47.3784L52.1723 43.8772Z" fill="#2945FF"/>
<path d="M67.0906 43.8772C67.1933 43.561 67.6406 43.561 67.7434 43.8772L68.881 47.3784C68.9269 47.5198 69.0587 47.6156 69.2074 47.6156H72.8887C73.2212 47.6156 73.3594 48.041 73.0905 48.2364L70.1122 50.4003C69.9919 50.4877 69.9416 50.6426 69.9875 50.784L71.1251 54.2852C71.2278 54.6014 70.8659 54.8643 70.597 54.6689L67.6187 52.505C67.4984 52.4176 67.3355 52.4176 67.2152 52.505L64.2369 54.6689C63.968 54.8643 63.6061 54.6014 63.7088 54.2852L64.8464 50.784C64.8924 50.6426 64.842 50.4877 64.7217 50.4003L61.7435 48.2364C61.4745 48.041 61.6127 47.6156 61.9452 47.6156H65.6266C65.7752 47.6156 65.907 47.5198 65.953 47.3784L67.0906 43.8772Z" fill="#2945FF"/>
<path d="M82.0088 43.8772C82.1115 43.561 82.5589 43.561 82.6616 43.8772L83.7992 47.3784C83.8451 47.5198 83.9769 47.6156 84.1256 47.6156H87.807C88.1394 47.6156 88.2777 48.041 88.0087 48.2364L85.0304 50.4003C84.9101 50.4877 84.8598 50.6426 84.9057 50.784L86.0433 54.2852C86.1461 54.6014 85.7842 54.8643 85.5152 54.6689L82.5369 52.505C82.4166 52.4176 82.2538 52.4176 82.1335 52.505L79.1552 54.6689C78.8862 54.8643 78.5243 54.6014 78.627 54.2852L79.7647 50.784C79.8106 50.6426 79.7603 50.4877 79.64 50.4003L76.6617 48.2364C76.3927 48.041 76.531 47.6156 76.8634 47.6156H80.5448C80.6935 47.6156 80.8252 47.5198 80.8712 47.3784L82.0088 43.8772Z" fill="#2945FF"/>
<path fill-rule="evenodd" clip-rule="evenodd" d="M101.364 48.1227V49.6769L99.6886 50.8941C99.5792 50.9736 99.5335 51.1144 99.5752 51.243L100.736 54.8139C100.829 55.1014 100.5 55.3404 100.255 55.1628L97.2178 52.9558C97.1084 52.8763 96.9603 52.8763 96.851 52.9558L93.8133 55.1628C93.5688 55.3404 93.2398 55.1014 93.3332 54.8139L94.4935 51.243C94.5353 51.1144 94.4895 50.9736 94.3802 50.8941L91.3425 48.6872C91.098 48.5095 91.2237 48.1227 91.5259 48.1227H95.2806C95.4158 48.1227 95.5356 48.0357 95.5774 47.9072L96.7376 44.3362C96.831 44.0487 97.2377 44.0487 97.3311 44.3362L98.4914 47.9072C98.5331 48.0357 98.6529 48.1227 98.7881 48.1227H101.364Z" fill="#2945FF"/>
<path d="M6.42875 55.1187H8.50223V53.3701H9.92581V51.5752H8.50223V44.4882H6.81559L1.94138 52.0394V53.3701H6.42875V55.1187ZM4.23149 51.668L6.56802 47.8924V51.668H4.23149ZM12.3777 55.2579C13.0585 55.2579 13.631 54.7009 13.631 54.0045C13.631 53.3237 13.0585 52.7666 12.3777 52.7666C11.6659 52.7666 11.0933 53.3237 11.0933 54.0045C11.0933 54.7009 11.6659 55.2579 12.3777 55.2579ZM18.8543 55.2424C21.0051 55.2424 22.7072 54.0819 22.7072 52.1941C22.7072 50.7396 21.9026 49.7648 20.8658 49.3779V49.347C21.5157 49.0684 22.1656 48.1864 22.1656 47.1342C22.1656 45.3857 20.7575 44.3644 18.8543 44.3644C16.9974 44.3644 15.5584 45.3393 15.5584 47.1342C15.5584 48.1864 16.1928 49.0375 16.8581 49.347V49.3779C15.8369 49.7802 15.0168 50.7551 15.0168 52.1941C15.0168 54.02 16.657 55.2424 18.8543 55.2424ZM18.8543 48.5269C18.0651 48.5269 17.508 48.0317 17.508 47.3354C17.508 46.67 18.0496 46.113 18.8543 46.113C19.6279 46.113 20.2159 46.6391 20.2159 47.3354C20.2159 48.0317 19.6434 48.5269 18.8543 48.5269ZM18.8543 53.4475C17.8949 53.4475 17.1367 52.7666 17.1367 51.9156C17.1367 51.0026 17.833 50.3528 18.8543 50.3528C19.86 50.3528 20.5718 51.0026 20.5718 51.9156C20.5718 52.7202 19.8755 53.4475 18.8543 53.4475Z" fill="black"/>
<path d="M4.19518 70.2725C3.01144 70.2725 2.16158 69.6958 1.81759 68.8965L2.55616 68.5627C2.79898 69.1191 3.32508 69.4833 4.13448 69.4833C4.94387 69.4833 5.57115 68.9876 5.57115 68.2288C5.57115 67.561 5.0754 66.9742 4.04342 66.9742H3.46673V66.2458H4.1446C5.03493 66.2458 5.39916 65.6893 5.39916 65.1328C5.39916 64.4449 4.83258 63.9896 4.10413 63.9896C3.41614 63.9896 3.01144 64.283 2.73827 64.6877L2.05029 64.3032C2.41452 63.6658 3.12274 63.2004 4.12436 63.2004C5.3081 63.2004 6.25914 63.8682 6.25914 65.0216C6.25914 65.6691 5.89491 66.2963 5.23728 66.5796V66.61C5.97585 66.8933 6.44125 67.5206 6.44125 68.3502C6.44125 69.5036 5.48009 70.2725 4.19518 70.2725ZM9.75384 63.2004C11.1197 63.2004 12.1921 64.283 12.182 65.9321C12.182 68.4615 10.3609 70.1207 8.55998 70.4546L8.30704 69.7363C9.57172 69.4125 10.7959 68.5829 11.2107 67.0248C10.7656 67.4194 10.1383 67.6622 9.45031 67.6622C8.23622 67.6622 7.31554 66.8225 7.31554 65.4768C7.31554 64.1717 8.35763 63.2004 9.75384 63.2004ZM9.64254 66.873C10.3406 66.873 10.9882 66.4886 11.3524 65.922V65.8613C11.3524 64.7281 10.6745 63.9896 9.76395 63.9896C8.79268 63.9896 8.17552 64.6674 8.17552 65.4768C8.17552 66.3166 8.75221 66.873 9.64254 66.873ZM13.4783 70.2118V62.7654H14.2978V67.9758L14.3079 67.986L16.726 65.2846H17.7175L15.8761 67.3182L17.7377 70.2118H16.7968L15.3096 67.8949L14.2978 68.9876V70.2118H13.4783ZM21.4616 70.2118V65.2846H22.2811V66.1851H22.3013C22.6554 65.5881 23.222 65.2239 23.8999 65.2239C23.9707 65.2239 24.0314 65.2239 24.1022 65.234V66.1446C23.9808 66.1345 23.8594 66.1244 23.7785 66.1244C22.8376 66.1244 22.2811 66.8427 22.2811 67.8342V70.2118H21.4616ZM29.2511 67.6622C29.2511 67.7937 29.2309 67.9354 29.2309 67.9961H25.3863C25.4976 68.9168 26.1451 69.5238 27.0759 69.5238C27.7335 69.5238 28.1989 69.2405 28.5024 68.8662L29.0791 69.3518C28.6542 69.8982 28.037 70.2725 27.0455 70.2725C25.5886 70.2725 24.5567 69.2608 24.5567 67.7533C24.5567 66.266 25.5785 65.2239 26.9848 65.2239C28.3305 65.2239 29.2511 66.2559 29.2511 67.6622ZM26.9747 65.9726C26.1856 65.9726 25.5583 66.4886 25.4065 67.3283H28.4316C28.3102 66.5189 27.7841 65.9726 26.9747 65.9726ZM31.7023 70.2118L29.6991 65.2846H30.5894L32.0969 69.1697H32.107L33.6145 65.2846H34.4947L32.4915 70.2118H31.7023ZM35.9671 64.3842C35.6333 64.3842 35.3702 64.1211 35.3702 63.7973C35.3702 63.4736 35.6333 63.2105 35.9671 63.2105C36.301 63.2105 36.5641 63.4736 36.5641 63.7973C36.5641 64.1211 36.301 64.3842 35.9671 64.3842ZM35.5523 70.2118V65.2846H36.3718V70.2118H35.5523ZM42.3524 67.6622C42.3524 67.7937 42.3322 67.9354 42.3322 67.9961H38.4876C38.5988 68.9168 39.2464 69.5238 40.1772 69.5238C40.8348 69.5238 41.3002 69.2405 41.6037 68.8662L42.1804 69.3518C41.7555 69.8982 41.1383 70.2725 40.1468 70.2725C38.6899 70.2725 37.6579 69.2608 37.6579 67.7533C37.6579 66.266 38.6798 65.2239 40.0861 65.2239C41.4317 65.2239 42.3524 66.2559 42.3524 67.6622ZM40.076 65.9726C39.2868 65.9726 38.6595 66.4886 38.5078 67.3283H41.5329C41.4115 66.5189 40.8854 65.9726 40.076 65.9726ZM44.5208 70.2118L42.821 65.2846H43.6608L44.9052 68.9876H44.9255L46.0586 65.2846H46.7668L47.9202 68.9876H47.9405L49.1748 65.2846H50.0145L48.3148 70.2118H47.5459L46.4127 66.5999H46.4026L45.2695 70.2118H44.5208ZM52.4712 70.2725C51.6517 70.2725 51.0244 69.9892 50.5489 69.5744L50.9637 68.9471C51.3481 69.3215 51.7832 69.544 52.4712 69.544C53.0681 69.544 53.4121 69.2506 53.4121 68.8763C53.4121 68.4412 52.9568 68.3198 52.2385 68.0568C51.4392 67.7735 50.7613 67.4497 50.7613 66.5493C50.7613 65.7905 51.4493 65.2239 52.3801 65.2239C52.977 65.2239 53.5335 65.3858 54.0798 65.8309L53.6549 66.4785C53.23 66.0839 52.7747 65.9524 52.3498 65.9524C51.9653 65.9524 51.591 66.1749 51.591 66.5493C51.591 66.9337 51.9855 67.126 52.5218 67.3182C53.5639 67.7229 54.2518 67.905 54.2417 68.8662C54.2417 69.6351 53.6549 70.2725 52.4712 70.2725Z" fill="#262626"/>
</svg>
