<svg width="136" height="84" viewBox="0 0 136 84" fill="none" xmlns="http://www.w3.org/2000/svg">
<path d="M47.8555 47.0382C47.9903 46.6232 48.5774 46.6232 48.7123 47.0382L50.2054 51.6335C50.2657 51.8191 50.4386 51.9447 50.6338 51.9447L55.4656 51.9447C55.9019 51.9447 56.0834 52.5031 55.7303 52.7596L51.8213 55.5997C51.6635 55.7144 51.5974 55.9177 51.6577 56.1033L53.1508 60.6986C53.2857 61.1136 52.8107 61.4587 52.4576 61.2022L48.5486 58.3621C48.3908 58.2474 48.177 58.2474 48.0191 58.3621L44.1101 61.2022C43.7571 61.4587 43.2821 61.1136 43.4169 60.6986L44.91 56.1033C44.9703 55.9177 44.9043 55.7144 44.7464 55.5997L40.8374 52.7596C40.4844 52.5031 40.6658 51.9447 41.1022 51.9447L45.934 51.9447C46.1291 51.9447 46.3021 51.8191 46.3624 51.6335L47.8555 47.0382Z" fill="white"/>
<path d="M67.4357 47.0381C67.5705 46.6231 68.1576 46.6231 68.2925 47.0381L69.7856 51.6334C69.8459 51.819 70.0188 51.9447 70.214 51.9447L75.0458 51.9447C75.4821 51.9447 75.6636 52.5031 75.3105 52.7595L71.4015 55.5996C71.2437 55.7143 71.1776 55.9176 71.2379 56.1032L72.731 60.6985C72.8659 61.1135 72.3909 61.4586 72.0378 61.2021L68.1288 58.3621C67.971 58.2474 67.7572 58.2474 67.5993 58.3621L63.6903 61.2021C63.3373 61.4586 62.8623 61.1135 62.9971 60.6985L64.4902 56.1032C64.5505 55.9176 64.4845 55.7143 64.3266 55.5996L60.4176 52.7595C60.0646 52.5031 60.246 51.9447 60.6824 51.9447L65.5142 51.9447C65.7093 51.9447 65.8823 51.819 65.9426 51.6334L67.4357 47.0381Z" fill="white"/>
<path d="M87.0159 47.0381C87.1507 46.6231 87.7378 46.6231 87.8727 47.0381L89.3658 51.6334C89.4261 51.819 89.599 51.9447 89.7942 51.9447L94.626 51.9447C95.0623 51.9447 95.2438 52.5031 94.8907 52.7595L90.9817 55.5996C90.8239 55.7143 90.7578 55.9176 90.8181 56.1032L92.3112 60.6985C92.4461 61.1135 91.9711 61.4586 91.618 61.2021L87.709 58.3621C87.5512 58.2474 87.3374 58.2474 87.1795 58.3621L83.2705 61.2021C82.9175 61.4586 82.4425 61.1135 82.5773 60.6985L84.0704 56.1032C84.1307 55.9176 84.0647 55.7143 83.9068 55.5996L79.9978 52.7595C79.6448 52.5031 79.8262 51.9447 80.2626 51.9447L85.0944 51.9447C85.2895 51.9447 85.4625 51.819 85.5228 51.6334L87.0159 47.0381Z" fill="white"/>
<path d="M106.596 47.0381C106.731 46.6231 107.318 46.6231 107.453 47.0381L108.946 51.6334C109.006 51.819 109.179 51.9447 109.374 51.9447L114.206 51.9447C114.642 51.9447 114.824 52.5031 114.471 52.7595L110.562 55.5996C110.404 55.7143 110.338 55.9176 110.398 56.1032L111.891 60.6985C112.026 61.1135 111.551 61.4586 111.198 61.2021L107.289 58.3621C107.131 58.2474 106.917 58.2474 106.76 58.3621L102.851 61.2021C102.498 61.4586 102.023 61.1135 102.157 60.6985L103.651 56.1032C103.711 55.9176 103.645 55.7143 103.487 55.5996L99.5779 52.7595C99.2249 52.5031 99.4063 51.9447 99.8426 51.9447L104.674 51.9447C104.87 51.9447 105.043 51.819 105.103 51.6334L106.596 47.0381Z" fill="white"/>
<path fill-rule="evenodd" clip-rule="evenodd" d="M132 52.6104V54.6501L129.801 56.2478C129.657 56.3521 129.597 56.5369 129.652 56.7056L131.175 61.3925C131.297 61.7698 130.866 62.0835 130.545 61.8504L126.558 58.9537C126.414 58.8494 126.22 58.8494 126.076 58.9537L122.089 61.8504C121.768 62.0835 121.337 61.7698 121.459 61.3925L122.982 56.7056C123.037 56.5369 122.977 56.3521 122.833 56.2478L118.846 53.3511C118.526 53.118 118.69 52.6104 119.087 52.6104H124.015C124.193 52.6104 124.35 52.4961 124.405 52.3274L125.928 47.6405C126.05 47.2632 126.584 47.2632 126.706 47.6405L128.229 52.3274C128.284 52.4961 128.441 52.6104 128.619 52.6104H132Z" fill="white"/>
<path d="M7.39741 62.0426H10.1188V59.7476H11.9873V57.3917H10.1188V48.0901H7.90514L1.50773 58.001V59.7476H7.39741V62.0426ZM4.5135 57.5136L7.58019 52.5581V57.5136H4.5135ZM15.2054 62.2253C16.099 62.2253 16.8504 61.4942 16.8504 60.5803C16.8504 59.6867 16.099 58.9556 15.2054 58.9556C14.2711 58.9556 13.5197 59.6867 13.5197 60.5803C13.5197 61.4942 14.2711 62.2253 15.2054 62.2253ZM23.7059 62.205C26.5289 62.205 28.7629 60.6818 28.7629 58.2041C28.7629 56.295 27.7068 55.0156 26.3461 54.5078V54.4672C27.1991 54.1016 28.0521 52.944 28.0521 51.563C28.0521 49.268 26.2039 47.9276 23.7059 47.9276C21.2688 47.9276 19.38 49.2071 19.38 51.563C19.38 52.944 20.2127 54.061 21.086 54.4672V54.5078C19.7456 55.0359 18.6692 56.3154 18.6692 58.2041C18.6692 60.6006 20.822 62.205 23.7059 62.205ZM23.7059 53.3908C22.6701 53.3908 21.939 52.7409 21.939 51.827C21.939 50.9537 22.6498 50.2226 23.7059 50.2226C24.7213 50.2226 25.4931 50.9131 25.4931 51.827C25.4931 52.7409 24.7417 53.3908 23.7059 53.3908ZM23.7059 59.8492C22.4467 59.8492 21.4516 58.9556 21.4516 57.8385C21.4516 56.6403 22.3655 55.7873 23.7059 55.7873C25.026 55.7873 25.9602 56.6403 25.9602 57.8385C25.9602 58.8946 25.0463 59.8492 23.7059 59.8492Z" fill="white"/>
<path d="M4.46585 80.8173C2.91219 80.8173 1.79675 80.0604 1.34526 79.0113L2.31463 78.5731C2.63333 79.3035 3.32385 79.7815 4.38617 79.7815C5.4485 79.7815 6.27181 79.1309 6.27181 78.1349C6.27181 77.2585 5.62113 76.4883 4.26666 76.4883H3.50975V75.5322H4.39945C5.56802 75.5322 6.04606 74.8019 6.04606 74.0715C6.04606 73.1685 5.30243 72.571 4.34634 72.571C3.44336 72.571 2.91219 72.9561 2.55366 73.4872L1.65068 72.9826C2.12872 72.146 3.05826 71.5352 4.3729 71.5352C5.92655 71.5352 7.17479 72.4116 7.17479 73.9254C7.17479 74.7753 6.69674 75.5986 5.8336 75.9704V76.0103C6.80297 76.3821 7.41381 77.2054 7.41381 78.2943C7.41381 79.8081 6.1523 80.8173 4.46585 80.8173ZM11.7616 71.5352C13.5543 71.5352 14.9618 72.9561 14.9486 75.1206C14.9486 78.4403 12.5583 80.6181 10.1946 81.0563L9.86267 80.1135C11.5226 79.6886 13.1293 78.5997 13.6738 76.5547C13.0895 77.0726 12.2662 77.3913 11.3632 77.3913C9.76971 77.3913 8.56132 76.2891 8.56132 74.523C8.56132 72.81 9.92906 71.5352 11.7616 71.5352ZM11.6155 76.3555C12.5318 76.3555 13.3816 75.8509 13.8597 75.1073V75.0276C13.8597 73.5403 12.97 72.571 11.7749 72.571C10.5001 72.571 9.69004 73.4607 9.69004 74.523C9.69004 75.6252 10.4469 76.3555 11.6155 76.3555ZM16.65 80.7376V70.9642H17.7256V77.8029L17.7388 77.8162L20.9126 74.2707H22.2139L19.7971 76.9398L22.2405 80.7376H21.0055L19.0535 77.6967L17.7256 79.1309V80.7376H16.65ZM27.128 80.7376V74.2707H28.2036V75.4525H28.2302C28.6949 74.6691 29.4386 74.191 30.3283 74.191C30.4212 74.191 30.5009 74.191 30.5939 74.2043V75.3994C30.4345 75.3861 30.2752 75.3729 30.1689 75.3729C28.934 75.3729 28.2036 76.3157 28.2036 77.617V80.7376H27.128ZM37.3518 77.3913C37.3518 77.5639 37.3252 77.7498 37.3252 77.8295H32.2792C32.4252 79.0379 33.2751 79.8346 34.4968 79.8346C35.3599 79.8346 35.9708 79.4628 36.3691 78.9715L37.126 79.6089C36.5683 80.326 35.7583 80.8173 34.4569 80.8173C32.5447 80.8173 31.1903 79.4894 31.1903 77.5108C31.1903 75.5588 32.5315 74.191 34.3773 74.191C36.1434 74.191 37.3518 75.5455 37.3518 77.3913ZM34.364 75.1737C33.3282 75.1737 32.5049 75.8509 32.3057 76.9531H36.2762C36.1168 75.8907 35.4263 75.1737 34.364 75.1737ZM40.569 80.7376L37.9397 74.2707H39.1083L41.0868 79.3699H41.1001L43.0787 74.2707H44.234L41.6047 80.7376H40.569ZM46.1665 73.0889C45.7283 73.0889 45.3831 72.7436 45.3831 72.3187C45.3831 71.8937 45.7283 71.5485 46.1665 71.5485C46.6047 71.5485 46.95 71.8937 46.95 72.3187C46.95 72.7436 46.6047 73.0889 46.1665 73.0889ZM45.6221 80.7376V74.2707H46.6977V80.7376H45.6221ZM54.5472 77.3913C54.5472 77.5639 54.5206 77.7498 54.5206 77.8295H49.4746C49.6207 79.0379 50.4705 79.8346 51.6922 79.8346C52.5553 79.8346 53.1662 79.4628 53.5646 78.9715L54.3215 79.6089C53.7637 80.326 52.9537 80.8173 51.6524 80.8173C49.7402 80.8173 48.3857 79.4894 48.3857 77.5108C48.3857 75.5588 49.7269 74.191 51.5727 74.191C53.3388 74.191 54.5472 75.5455 54.5472 77.3913ZM51.5594 75.1737C50.5236 75.1737 49.7003 75.8509 49.5011 76.9531H53.4716C53.3122 75.8907 52.6217 75.1737 51.5594 75.1737ZM57.3932 80.7376L55.1623 74.2707H56.2645L57.8978 79.1309H57.9244L59.4116 74.2707H60.3412L61.855 79.1309H61.8815L63.5016 74.2707H64.6037L62.3729 80.7376H61.3636L59.8764 75.997H59.8631L58.3758 80.7376H57.3932ZM67.8281 80.8173C66.7525 80.8173 65.9292 80.4455 65.3051 79.901L65.8495 79.0777C66.3541 79.5691 66.9251 79.8612 67.8281 79.8612C68.6116 79.8612 69.063 79.4761 69.063 78.9848C69.063 78.4138 68.4655 78.2544 67.5227 77.9092C66.4736 77.5374 65.5839 77.1124 65.5839 75.9306C65.5839 74.9347 66.4869 74.191 67.7086 74.191C68.492 74.191 69.2224 74.4035 69.9395 74.9878L69.3817 75.8376C68.824 75.3197 68.2265 75.1471 67.6687 75.1471C67.1641 75.1471 66.6728 75.4393 66.6728 75.9306C66.6728 76.4352 67.1907 76.6875 67.8945 76.9398C69.2622 77.471 70.1652 77.71 70.1519 78.9715C70.1519 79.9807 69.3817 80.8173 67.8281 80.8173Z" fill="white"/>
<path d="M20.5226 16.2592C20.5533 14.0247 21.7251 11.9613 23.6284 10.7902C22.4198 9.06412 20.4681 8.00901 18.362 7.94313C16.1113 7.70681 14.007 9.271 12.8704 9.271C11.7339 9.271 9.97839 7.96564 8.11037 8.01065C5.64875 8.09186 3.41028 9.45885 2.21374 11.6116C-0.340715 16.0229 1.56106 22.5159 4.01424 26.0831C5.24083 27.8274 6.66998 29.7854 8.51549 29.7179C10.361 29.6504 11.0249 28.5926 13.2305 28.5926C15.4362 28.5926 16.0551 29.7179 17.9681 29.7179C19.8811 29.7179 21.164 27.9624 22.3456 26.1957C23.2239 24.9519 23.8999 23.5771 24.3486 22.1221C22.0052 21.1211 20.4952 18.8073 20.5226 16.2592Z" fill="white" stroke="black"/>
<path d="M16.9216 5.60246C17.9932 4.31857 18.522 2.66749 18.3957 0.999933C16.7611 1.16998 15.2504 1.94941 14.1646 3.18304C13.093 4.40204 12.5505 5.99725 12.6566 7.61676C14.3118 7.63429 15.8837 6.89191 16.9216 5.60246Z" fill="white" stroke="black"/>
<path fill-rule="evenodd" clip-rule="evenodd" d="M47.0828 22.9524H49.6485L44.7984 7.98579H41.8163L37 22.9524H39.4869L40.8261 18.5525H45.6874L47.0828 22.9524ZM44.0106 12.8471L45.271 16.7632H41.2423L42.5815 12.8359C42.9041 11.5905 43.1404 10.649 43.2904 10.0113C43.628 11.4742 43.8681 12.4195 44.0106 12.8471Z" fill="white"/>
<path fill-rule="evenodd" clip-rule="evenodd" d="M60.5531 21.7822C61.5947 20.5784 62.1273 19.0167 62.0385 17.4273C62.0976 15.9836 61.6297 14.5678 60.7219 13.4437C59.8511 12.4142 58.5448 11.8572 57.1991 11.9414C55.8534 12.0257 54.6268 12.7413 53.8912 13.8713L53.7562 12.1608H51.6406C51.7006 13.3762 51.7306 14.5615 51.7306 15.7168V27.3525H54.1838V21.6697C54.8405 22.7089 56.0193 23.2983 57.2447 23.2001C58.5003 23.2267 59.7063 22.7098 60.5531 21.7822ZM58.8875 14.9178C59.3837 15.6916 59.6311 16.5987 59.5965 17.5173C59.6425 18.4893 59.3785 19.4508 58.8425 20.2631C58.3625 20.9505 57.5646 21.3452 56.7269 21.3096C56.0109 21.334 55.3215 21.0367 54.8477 20.4994C54.3634 19.951 54.1059 19.2389 54.1275 18.5076V16.7071C54.136 16.4597 54.1738 16.2141 54.24 15.9756C54.3711 15.3694 54.7045 14.8258 55.1853 14.4339C55.636 14.0554 56.2059 13.8482 56.7945 13.8488C57.6286 13.826 58.4171 14.2287 58.8875 14.9178Z" fill="white"/>
<path fill-rule="evenodd" clip-rule="evenodd" d="M72.9759 21.7822C74.0175 20.5784 74.5502 19.0167 74.4614 17.4273C74.5194 15.9838 74.0516 14.5683 73.1447 13.4437C72.274 12.4142 70.9677 11.8572 69.622 11.9414C68.2763 12.0257 67.0497 12.7413 66.3141 13.8713L66.1791 12.1608H64.0635C64.1235 13.3762 64.1535 14.5615 64.1535 15.7168V27.3525H66.6067V21.6697C67.2634 22.7089 68.4422 23.2983 69.6675 23.2001C70.9235 23.2282 72.1301 22.7111 72.9759 21.7822ZM71.3105 14.9178C71.8067 15.6916 72.0541 16.5987 72.0194 17.5173C72.0625 18.4717 71.8068 19.4158 71.288 20.218C70.8079 20.9055 70.0101 21.3002 69.1724 21.2646C68.4405 21.3211 67.7231 21.0391 67.2256 20.4994C66.7423 19.9504 66.485 19.2387 66.5054 18.5076V16.7071C66.5145 16.4597 66.5523 16.2143 66.6179 15.9756C66.7482 15.369 67.0817 14.8251 67.5632 14.4339C68.0139 14.0554 68.5838 13.8482 69.1724 13.8488C70.0222 13.8103 70.8313 14.2148 71.3105 14.9178Z" fill="white"/>
<path d="M88.3029 18.7551C88.3412 19.9358 87.8551 21.0729 86.975 21.8609C85.83 22.7946 84.3762 23.2645 82.9014 23.1776C81.5448 23.2415 80.1981 22.9175 79.019 22.2435L79.5704 20.2405C80.6144 20.8753 81.8146 21.2066 83.0364 21.197C83.7906 21.2446 84.538 21.0299 85.152 20.5893C85.6469 20.1951 85.9265 19.5901 85.9059 18.9576C85.9194 18.384 85.6954 17.8303 85.287 17.4272C84.6814 16.914 83.9766 16.5309 83.2165 16.3019C80.6057 15.2966 79.3004 13.8525 79.3004 11.9695C79.2602 10.778 79.7808 9.63666 80.707 8.8861C81.7524 8.07746 83.0565 7.67741 84.3755 7.76079C85.5414 7.72282 86.6993 7.96598 87.7515 8.46974L87.1776 10.4278C86.2947 9.95949 85.3072 9.72328 84.308 9.74134C83.5941 9.69663 82.8889 9.91702 82.3275 10.3603C81.9424 10.7027 81.7248 11.1953 81.731 11.7106C81.7212 12.2782 81.9746 12.8184 82.4175 13.1735C83.081 13.6619 83.8179 14.0418 84.6006 14.2988C85.6777 14.6785 86.6521 15.3025 87.4476 16.1219C88.0534 16.861 88.3587 17.8011 88.3029 18.7551Z" fill="white"/>
<path d="M96.2813 13.9611H93.6369V19.2051C93.6369 20.5405 94.102 21.2081 95.0322 21.2081C95.3919 21.2159 95.7511 21.1781 96.1013 21.0956L96.1801 22.9074C95.5779 23.1056 94.9457 23.197 94.312 23.1774C93.4712 23.2316 92.6488 22.915 92.0614 22.3109C91.4473 21.47 91.163 20.433 91.2624 19.3964V13.9611H89.687V12.1606H91.2624V10.1801L93.6143 9.47115V12.1606H96.2588L96.2813 13.9611Z" fill="white"/>
<path fill-rule="evenodd" clip-rule="evenodd" d="M106.792 21.557C107.763 20.4229 108.269 18.9638 108.21 17.4721C108.277 16.028 107.785 14.6136 106.837 13.5222C105.854 12.4613 104.456 11.8853 103.011 11.9468C101.534 11.8781 100.102 12.4625 99.0947 13.5447C98.1013 14.6766 97.5815 16.1474 97.6431 17.6521C97.5913 19.1067 98.0941 20.5266 99.0497 21.6245C100.014 22.6848 101.399 23.262 102.831 23.1999C104.329 23.2644 105.779 22.6629 106.792 21.557ZM105.081 14.9852C105.528 15.7647 105.75 16.6528 105.723 17.5509C105.734 18.463 105.488 19.3597 105.014 20.1391C104.588 20.9402 103.755 21.4409 102.848 21.4409C101.94 21.4409 101.107 20.9402 100.682 20.1391C100.238 19.3664 100.016 18.4864 100.04 17.5959C100.009 16.6831 100.231 15.7796 100.682 14.9852C101.115 14.1517 101.994 13.6465 102.932 13.6911C103.837 13.6778 104.67 14.1796 105.081 14.9852Z" fill="white"/>
<path d="M116.008 14.265C115.759 14.2196 115.507 14.197 115.254 14.1975C114.48 14.158 113.741 14.5194 113.296 15.154C112.877 15.7858 112.668 16.5343 112.7 17.2921V22.9186H110.303V15.5253C110.303 14.28 110.273 13.1547 110.213 12.1494H112.306L112.396 14.22H112.464C112.692 13.5456 113.11 12.9516 113.668 12.5095C114.169 12.1368 114.776 11.9356 115.401 11.9356C115.599 11.9202 115.798 11.9202 115.997 11.9356L116.008 14.265Z" fill="white"/>
<path fill-rule="evenodd" clip-rule="evenodd" d="M126.654 18.1698C126.722 17.7986 126.752 17.4216 126.744 17.0445C126.774 15.8553 126.44 14.6854 125.787 13.691C124.991 12.5382 123.653 11.882 122.254 11.9581C120.79 11.9008 119.385 12.5444 118.473 13.691C117.558 14.843 117.083 16.2832 117.134 17.7534C117.061 19.2118 117.576 20.6385 118.563 21.7145C119.615 22.7368 121.048 23.2715 122.513 23.1887C123.753 23.2195 124.987 22.9935 126.136 22.5247L125.765 20.8593C124.834 21.2088 123.845 21.3806 122.85 21.3657C122.002 21.4024 121.168 21.1351 120.498 20.6117C119.804 19.9936 119.421 19.0988 119.452 18.1698H126.654ZM124.032 14.5801C124.366 15.1358 124.526 15.7783 124.493 16.4256H119.497C119.551 15.7482 119.797 15.1003 120.206 14.5576C120.636 13.9282 121.357 13.5597 122.119 13.5786C122.893 13.5323 123.629 13.9177 124.032 14.5801Z" fill="white"/>
</svg>
