<svg width="69" height="64" viewBox="0 0 69 64" fill="none" xmlns="http://www.w3.org/2000/svg">
<path d="M56.4428 17.6456H12.3188V46.8096H56.4428V17.6456Z" fill="white"/>
<path d="M60.1198 50.455V14H8.64181V50.455L0.855225 59.6045V63.25H67.8343V59.6045L60.1198 50.455ZM12.3188 17.6455H56.4428V46.8095H12.3188V17.6455Z" fill="#86C5F9"/>
<path d="M60.1198 14.0001H8.64185V50.4551H60.1198V14.0001Z" stroke="black" stroke-width="1.5" stroke-miterlimit="10" stroke-linecap="round" stroke-linejoin="round"/>
<path d="M56.4428 17.6456H12.3188V46.8096H56.4428V17.6456Z" stroke="black" stroke-width="1.5" stroke-miterlimit="10" stroke-linecap="round" stroke-linejoin="round"/>
<path d="M67.9063 59.6046L60.1197 50.4551H8.64174L0.927246 59.6046" stroke="black" stroke-width="1.5" stroke-miterlimit="10" stroke-linecap="round" stroke-linejoin="round"/>
<path d="M0.927246 59.6045V63.25H67.9063V59.6045" stroke="black" stroke-width="1.5" stroke-miterlimit="10" stroke-linecap="round" stroke-linejoin="round"/>
<path d="M1 59.6045H67.9062" stroke="black" stroke-width="1.5" stroke-miterlimit="10" stroke-linecap="round" stroke-linejoin="round"/>
<path d="M12.5 55H56.5" stroke="black" stroke-width="1.5" stroke-miterlimit="10" stroke-linecap="round" stroke-linejoin="round"/>
<path d="M48.3711 14.4293C48.3711 18.6309 46.5146 22.3439 43.4856 24.8843V28.3042H26.1909V24.982C23.1619 22.4416 21.3054 18.7286 21.3054 14.5271C21.3054 7.00339 27.3634 0.945379 34.8871 0.945379C42.3131 0.84767 48.3711 6.90568 48.3711 14.4293Z" fill="white"/>
<path d="M43.4855 28.2065V35.9256H39.1863C39.1863 37.0981 38.6977 38.1729 37.9161 38.9546C37.1344 39.7362 36.0596 40.2248 34.887 40.2248C32.542 40.2248 30.5878 38.2706 30.5878 35.8278H26.2886V28.1088H43.4855V28.2065Z" fill="#FFAD9F"/>
<path d="M43.4856 24.7866C46.5146 22.2462 48.3711 18.5332 48.3711 14.3317C48.3711 6.80802 42.3131 0.75 34.7894 0.75C27.2658 0.75 21.2078 6.90573 21.2078 14.4294C21.2078 18.6309 23.162 22.3439 26.0933 24.8844" stroke="black" stroke-width="1.5" stroke-miterlimit="10" stroke-linecap="round" stroke-linejoin="round"/>
<path d="M43.4855 24.7866V35.8278H39.1863C39.1863 38.2706 37.2321 40.1271 34.887 40.1271C32.4443 40.1271 30.5878 38.1729 30.5878 35.8278H26.2886V25.0798" stroke="black" stroke-width="1.5" stroke-miterlimit="10" stroke-linecap="round" stroke-linejoin="round"/>
<path d="M26.3865 28.2065H43.4857" stroke="black" stroke-width="1.5" stroke-miterlimit="10" stroke-linecap="round" stroke-linejoin="round"/>
<path d="M34.7893 28.2065V14.5271" stroke="black" stroke-width="1.5" stroke-miterlimit="10" stroke-linecap="round" stroke-linejoin="round"/>
<path d="M30.4902 14.5271H39.1864" stroke="black" stroke-width="1.5" stroke-miterlimit="10" stroke-linecap="round" stroke-linejoin="round"/>
</svg>
