<svg width="53" height="52" viewBox="0 0 53 52" fill="none" xmlns="http://www.w3.org/2000/svg">
<g clip-path="url(#clip0_63_72599)">
<path d="M24.7985 3.30048H21.4813V4.38496C21.4813 5.15048 20.9071 5.72462 20.1416 5.72462H9.23297C8.46745 5.72462 7.89331 5.08669 7.89331 4.38496V3.30048H4.57606C3.81054 3.30048 3.17261 3.93841 3.17261 4.70393V47.7644C3.17261 48.5299 3.81054 49.1679 4.57606 49.1679H24.7985C25.564 49.1679 26.202 48.5299 26.202 47.7644V4.70393C26.202 3.87462 25.564 3.30048 24.7985 3.30048Z" fill="white" stroke="black" stroke-miterlimit="10" stroke-linecap="round" stroke-linejoin="round"/>
<path d="M10.6367 46.6797H18.8023" stroke="black" stroke-miterlimit="10" stroke-linecap="round" stroke-linejoin="round"/>
<path d="M12.614 3.30035H16.8244" stroke="black" stroke-miterlimit="10" stroke-linecap="round" stroke-linejoin="round"/>
<path d="M26.7764 0.8125H2.66251C1.7694 0.8125 0.8125 1.7694 0.8125 3.17285V49.2316C0.8125 50.6351 1.7694 51.592 2.66251 51.592H26.7764C27.6695 51.592 28.6264 50.6351 28.6264 49.2316V3.17285C28.6264 1.7694 27.6695 0.8125 26.7764 0.8125ZM26.2022 47.7644C26.2022 48.5299 25.5643 49.1678 24.7988 49.1678H4.5763C3.81079 49.1678 3.17285 48.5299 3.17285 47.7644V4.70389C3.17285 3.93837 3.81079 3.30044 4.5763 3.30044H7.89356V4.38492C7.89356 5.15044 8.53149 5.72458 9.23321 5.72458H20.1419C20.9074 5.72458 21.4815 5.08665 21.4815 4.38492V3.30044H24.7988C25.5643 3.30044 26.2022 3.93837 26.2022 4.70389V47.7644Z" fill="#8C8C8C" stroke="black" stroke-miterlimit="10" stroke-linecap="round" stroke-linejoin="round"/>
<path d="M10.6367 46.6797H18.8023" stroke="black" stroke-miterlimit="10" stroke-linecap="round" stroke-linejoin="round"/>
<path d="M12.6141 3.30038H16.8245" stroke="black" stroke-miterlimit="10" stroke-linecap="round" stroke-linejoin="round"/>
<path d="M45.6592 18.547V33.8573C45.6592 34.5591 45.0851 35.1332 44.3834 35.1332H11.9126C11.2109 35.1332 10.6367 34.5591 10.6367 33.8573V18.547C10.6367 17.8452 11.2109 17.2711 11.9126 17.2711H44.3834C45.0851 17.2711 45.6592 17.8452 45.6592 18.547Z" fill="#86C5F9" stroke="black" stroke-miterlimit="10" stroke-linecap="round" stroke-linejoin="round"/>
<path d="M18.8021 24.3521C18.8021 23.3314 17.9727 22.5021 16.9521 22.5021C15.9314 22.5021 15.1021 23.3314 15.1021 24.3521C15.1021 25.3728 15.9314 26.2021 16.9521 26.2021" stroke="black" stroke-miterlimit="10" stroke-linecap="round" stroke-linejoin="round"/>
<path d="M15.0382 28.0522C15.0382 29.0728 15.8675 29.9022 16.8882 29.9022C17.9089 29.9022 18.7382 29.0728 18.7382 28.0522C18.7382 27.0315 17.9089 26.2021 16.8882 26.2021" stroke="black" stroke-miterlimit="10" stroke-linecap="round" stroke-linejoin="round"/>
<path d="M16.952 29.9659V32.0073" stroke="black" stroke-miterlimit="10" stroke-linecap="round" stroke-linejoin="round"/>
<path d="M16.952 20.397V22.4384" stroke="black" stroke-miterlimit="10" stroke-linecap="round" stroke-linejoin="round"/>
<path d="M22.8212 30.0298H41.2574" stroke="black" stroke-miterlimit="10" stroke-linecap="round" stroke-linejoin="round"/>
<path d="M41.2573 22.3746H32.0073V26.2022H41.2573V22.3746Z" stroke="black" stroke-miterlimit="10" stroke-linecap="round" stroke-linejoin="round"/>
<path d="M45.659 20.5885C49.2527 20.5885 52.1659 17.6752 52.1659 14.0816C52.1659 10.4879 49.2527 7.57465 45.659 7.57465C42.0653 7.57465 39.1521 10.4879 39.1521 14.0816C39.1521 17.6752 42.0653 20.5885 45.659 20.5885Z" fill="#9BDDB6" stroke="black" stroke-miterlimit="10" stroke-linecap="round" stroke-linejoin="round"/>
<path d="M42.3417 14.6557L44.5106 16.6333" stroke="black" stroke-miterlimit="10" stroke-linecap="round" stroke-linejoin="round"/>
<path d="M48.9763 11.5298L44.5107 16.6332" stroke="black" stroke-miterlimit="10" stroke-linecap="round" stroke-linejoin="round"/>
</g>
<defs>
<clipPath id="clip0_63_72599">
<rect width="52.8125" height="52" fill="white"/>
</clipPath>
</defs>
</svg>
