<svg width="72" height="72" viewBox="0 0 72 72" fill="none" xmlns="http://www.w3.org/2000/svg">
<path d="M60.336 53.928H11.592C9.93599 53.928 8.56799 52.56 8.56799 50.904V21.096C8.56799 19.44 9.93599 18.072 11.592 18.072H60.336C61.992 18.072 63.36 19.44 63.36 21.096V50.904C63.36 52.56 61.992 53.928 60.336 53.928Z" fill="#86C5F9"/>
<path d="M60.336 53.928H11.592C9.93599 53.928 8.56799 52.56 8.56799 50.904V21.096C8.56799 19.44 9.93599 18.072 11.592 18.072H60.336C61.992 18.072 63.36 19.44 63.36 21.096V50.904C63.36 52.56 61.992 53.928 60.336 53.928Z" stroke="black" stroke-width="1.5" stroke-miterlimit="10" stroke-linecap="round" stroke-linejoin="round"/>
<path d="M27.648 36.72H16.848C15.84 36.72 15.048 35.928 15.048 34.92V27.936C15.048 26.928 15.84 26.136 16.848 26.136H27.648C28.656 26.136 29.448 26.928 29.448 27.936V34.92C29.376 35.928 28.584 36.72 27.648 36.72Z" fill="white"/>
<path d="M19.872 31.464H15.048" stroke="black" stroke-width="1.5" stroke-miterlimit="10" stroke-linecap="round" stroke-linejoin="round"/>
<path d="M29.3759 31.464H24.5519" stroke="black" stroke-width="1.5" stroke-miterlimit="10" stroke-linecap="round" stroke-linejoin="round"/>
<path d="M24.5519 26.208V36.72" stroke="black" stroke-width="1.5" stroke-miterlimit="10" stroke-linecap="round" stroke-linejoin="round"/>
<path d="M19.8719 26.208V36.72" stroke="black" stroke-width="1.5" stroke-miterlimit="10" stroke-linecap="round" stroke-linejoin="round"/>
<path d="M27.648 36.72H16.848C15.84 36.72 15.048 35.928 15.048 34.92V27.936C15.048 26.928 15.84 26.136 16.848 26.136H27.648C28.656 26.136 29.448 26.928 29.448 27.936V34.92C29.376 35.928 28.584 36.72 27.648 36.72Z" stroke="black" stroke-width="1.5" stroke-miterlimit="10" stroke-linecap="round" stroke-linejoin="round"/>
<path d="M36 45.72H56.736" stroke="black" stroke-width="1.5" stroke-miterlimit="10" stroke-linecap="round" stroke-linejoin="round"/>
<path d="M15.048 45.72H29.376" stroke="black" stroke-width="1.5" stroke-miterlimit="10" stroke-linecap="round" stroke-linejoin="round"/>
</svg>
