<svg width="39" height="39" viewBox="0 0 32 32" fill="none" xmlns="http://www.w3.org/2000/svg">
<path d="M16.0189 2.66601C14.2679 2.66601 12.5341 3.01089 10.9164 3.68095C9.29875 4.35101 7.8289 5.33314 6.59078 6.57125C4.0903 9.07174 2.68554 12.4631 2.68554 15.9993C2.67389 19.0782 3.73993 22.0641 5.69888 24.4393L3.03221 27.106C2.8472 27.2935 2.72187 27.5316 2.67204 27.7903C2.62221 28.0489 2.6501 28.3165 2.75221 28.5593C2.86295 28.7992 3.04248 29.0008 3.268 29.1385C3.49353 29.2762 3.75488 29.3438 4.01888 29.3327H16.0189C19.5551 29.3327 22.9465 27.9279 25.447 25.4274C27.9475 22.927 29.3522 19.5356 29.3522 15.9993C29.3522 12.4631 27.9475 9.07174 25.447 6.57125C22.9465 4.07077 19.5551 2.66601 16.0189 2.66601ZM16.0189 26.666H7.23221L8.47221 25.426C8.59819 25.3025 8.69842 25.1553 8.76708 24.9928C8.83574 24.8303 8.87148 24.6558 8.87221 24.4793C8.8672 24.1277 8.72343 23.7922 8.47221 23.546C6.72632 21.8021 5.63911 19.5067 5.3958 17.0511C5.15249 14.5954 5.76813 12.1314 7.13785 10.0787C8.50756 8.02606 10.5466 6.51182 12.9076 5.79397C15.2685 5.07613 17.8054 5.19908 20.0858 6.1419C22.3663 7.08471 24.2493 8.78904 25.4141 10.9645C26.5789 13.14 26.9534 15.6521 26.4737 18.0727C25.9941 20.4933 24.69 22.6727 22.7836 24.2397C20.8772 25.8066 18.4866 26.6641 16.0189 26.666Z" fill="#2945FF"/>
<path d="M13.8595 13.9538C13.5198 14.0462 13.1573 14.0005 12.8512 13.8267C12.6984 13.7396 12.5643 13.6231 12.4568 13.484C12.3492 13.3448 12.2702 13.1858 12.2243 13.016C12.1785 12.8462 12.1667 12.669 12.1896 12.4947C12.2125 12.3203 12.2697 12.1522 12.3578 12C12.7089 11.392 13.2137 10.8871 13.8217 10.5361C14.4296 10.185 15.1193 10.0001 15.8213 10C16.5233 9.99989 17.213 10.1845 17.8211 10.5354C18.4292 10.8863 18.9342 11.391 19.2854 11.9989C19.6366 12.6068 19.8217 13.2964 19.8219 13.9984C19.8222 14.7004 19.6377 15.3902 19.287 15.9983C18.9363 16.6065 18.4317 17.1116 17.8239 17.463C17.2161 17.8143 16.5265 17.9995 15.8245 18C15.4709 18 15.1317 17.8595 14.8817 17.6095C14.6316 17.3594 14.4912 17.0203 14.4912 16.6667C14.4912 16.313 14.6316 15.9739 14.8817 15.7239C15.1317 15.4738 15.4709 15.3333 15.8245 15.3333C16.1781 15.3333 16.5173 15.1929 16.7673 14.9428C17.0174 14.6928 17.1578 14.3536 17.1578 14C17.1599 13.7048 17.0639 13.4172 16.885 13.1824C16.706 12.9476 16.4542 12.7789 16.1689 12.7026C15.8837 12.6263 15.5813 12.6469 15.309 12.761C15.0367 12.8752 14.8101 13.0765 14.6645 13.3333C14.4886 13.6383 14.1992 13.8613 13.8595 13.9538Z" fill="#2945FF"/>
<path d="M15.5578 19.3333C15.8192 19.2868 16.0884 19.3193 16.3312 19.4267V19.44C16.6516 19.5833 16.9079 19.8396 17.0512 20.16C17.1258 20.3182 17.1623 20.4918 17.1578 20.6667C17.1578 21.0203 17.0174 21.3594 16.7673 21.6095C16.5173 21.8595 16.1781 22 15.8245 22C15.649 22.001 15.4751 21.9674 15.3126 21.901C15.1502 21.8347 15.0024 21.7369 14.8778 21.6133C14.7531 21.4916 14.6535 21.3467 14.5845 21.1867C14.519 21.0213 14.4873 20.8445 14.4912 20.6667C14.4824 20.4828 14.519 20.2996 14.5978 20.1333C14.6628 19.9744 14.7579 19.8295 14.8778 19.7067L15.0778 19.5333L15.3178 19.4133L15.5578 19.3333Z" fill="#2945FF"/>
</svg>
