<svg width="250" height="250" viewBox="0 0 250 250" fill="none" xmlns="http://www.w3.org/2000/svg">
<g clip-path="url(#clip0)">
<path d="M248.85 127.05C249.172 119.757 247.55 112.51 244.15 106.05C243.97 105.51 243.78 104.97 243.59 104.44C240.01 95.0423 238.055 85.1037 237.81 75.05C237.81 74.1234 237.77 73.1933 237.69 72.26C236.48 53.83 230.44 35.13 216.69 22.02C202.38 8.36002 184.75 1.65002 165.18 1.02002C157.4 0.780022 149.63 2.19002 141.9 3.56002C138.025 3.68496 134.146 3.54463 130.29 3.14002C123.06 2.07002 115.82 1.00002 108.55 0.310015C99.61 -0.539985 91.1 0.400014 82.22 1.59001C55.89 5.13001 31.54 15.09 16.54 38.46C4.78 56.78 5.16 79.37 3.47 100.31C2.35 114.15 0.969997 127.99 0.109997 141.85C-1.66 170.34 14.8 197.4 40.16 210.07C54.719 217.521 70.4054 222.525 86.59 224.88C103.59 227.29 120.59 228.72 137.67 230.01C154.54 231.27 169.97 232.32 186.84 228.89C200.84 226.03 213.57 218.47 224.06 208.96C234.76 199.26 240.99 186.86 245.65 173.47C250.72 158.98 250.73 142.21 248.85 127.05Z" fill="#FFF5F3"/>
<path d="M223.45 119.05L201.33 131.23L189.33 137.84C189.26 137.845 189.191 137.865 189.13 137.9L159.53 154.19L142.13 163.77L141.97 163.86C141.901 163.869 141.833 163.889 141.77 163.92L112.17 180.21L100.44 186.66L103.02 186.95L112.72 181.61C112.773 181.619 112.827 181.619 112.88 181.61L142.12 165.51L142.48 165.32L189.68 139.32C189.733 139.329 189.787 139.329 189.84 139.32L201.32 133L219.44 123L226.56 119.08L229.48 117.47C229.48 116.88 229.55 116.3 229.56 115.71L223.45 119.05Z" fill="#FCBAB1"/>
<path d="M206.93 147.67L201.37 150.73L159.77 173.64C159.7 173.645 159.631 173.665 159.57 173.7L142.17 183.28L133.03 188.28C134.16 188.28 135.29 188.19 136.42 188.12L142.17 184.96L160.17 175.07C160.223 175.079 160.277 175.079 160.33 175.07L189.93 158.78L201.41 152.46L223.2 140.46C223.68 139.66 224.13 138.84 224.55 138.01L206.93 147.67Z" fill="#FCBAB1"/>
<path d="M212.81 150.93L201.33 157.25L165.65 176.89C165.58 176.903 165.513 176.926 165.45 176.96L146.77 187.24C148.15 187.067 149.53 186.877 150.91 186.67L166 178.36C166.056 178.37 166.114 178.37 166.17 178.36L195.77 162.05L201.33 158.99L216.17 150.82C216.7 149.98 217.17 149.13 217.69 148.27L212.81 150.95V150.93Z" fill="#FCBAB1"/>
<path d="M200.93 144.42L153.77 170.42C153.7 170.425 153.631 170.445 153.57 170.48L142.09 176.8L123.97 186.8L121.13 188.37C122.13 188.37 123.13 188.43 124.13 188.44L142.13 178.54L154.13 171.91C154.183 171.919 154.237 171.919 154.29 171.91L183.93 155.51L201.33 145.93L201.53 145.82C201.583 145.829 201.637 145.829 201.69 145.82L227.03 131.82C227.034 131.8 227.034 131.78 227.03 131.76C227.24 131.11 227.42 130.45 227.59 129.76V129.7L201.29 144.18L200.93 144.42Z" fill="#FCBAB1"/>
<path d="M201.17 163.86C201.101 163.869 201.033 163.889 200.97 163.92L171.37 180.21L164.76 183.85C166.89 183.31 169 182.73 171.1 182.08L171.93 181.62C171.983 181.629 172.037 181.629 172.09 181.62L201.33 165.52L201.69 165.33L206.74 162.55C207.9 161.41 209.01 160.22 210.09 158.99L201.32 163.82L201.17 163.86Z" fill="#FCBAB1"/>
<path d="M195.25 141.1C195.18 141.105 195.111 141.125 195.05 141.16L147.89 167.16C147.82 167.165 147.751 167.185 147.69 167.22L142.13 170.28L118.13 183.51L110.5 187.71L113.23 187.92L142.13 171.95L148.24 168.59C148.298 168.579 148.355 168.563 148.41 168.54L195.61 142.54C195.663 142.549 195.717 142.549 195.77 142.54L201.33 139.48L225.33 126.25L228.69 124.4C228.79 123.78 228.88 123.16 228.96 122.54L201.33 137.75L195.25 141.1Z" fill="#FCBAB1"/>
<path d="M89.04 168.59C89.0983 168.579 89.1553 168.563 89.21 168.54L136.41 142.54C136.463 142.549 136.517 142.549 136.57 142.54L142.13 139.48L166.13 126.25L179.13 119.07L201.25 106.89L213.25 100.27C213.308 100.259 213.365 100.243 213.42 100.22L225.42 93.63C225.21 93.18 225 92.73 224.77 92.28L212.94 98.79C212.867 98.8027 212.796 98.8263 212.73 98.86L201.25 105.18L183.13 115.18L176.09 119.05L142.09 137.75L136.01 141.1C135.94 141.105 135.871 141.125 135.81 141.16L88.65 167.16C88.5797 167.165 88.5113 167.185 88.45 167.22L82.93 170.24L64.12 180.6C64.81 180.79 65.51 180.99 66.2 181.16L82.93 171.95L89.04 168.59Z" fill="#FCBAB1"/>
<path d="M94.93 171.84C94.9829 171.849 95.0371 171.849 95.09 171.84L124.69 155.55L142.09 145.97L142.29 145.86C142.343 145.869 142.397 145.869 142.45 145.86L172.05 129.57L191.05 119.14L201.33 113.48L219.33 103.59C219.383 103.599 219.437 103.599 219.49 103.59L227.53 99.05C227.38 98.56 227.24 98.05 227.07 97.58L218.93 102.05C218.86 102.063 218.793 102.086 218.73 102.12L201.33 111.7L189.13 118.41L187.93 119.05L171.57 128.05C171.501 128.059 171.433 128.08 171.37 128.11L142.13 144.21L141.77 144.41L94.61 170.41C94.5397 170.415 94.4713 170.435 94.41 170.47L82.93 176.76L72.57 182.46L74.93 182.87L82.93 178.47L94.93 171.84Z" fill="#FCBAB1"/>
<path d="M101.05 175.05L130.65 158.76L142.13 152.44L177.84 132.78C177.898 132.769 177.955 132.753 178.01 132.73L201.33 119.9L202.93 119.05L225.25 106.76C225.303 106.769 225.357 106.769 225.41 106.76L228.91 104.84C228.82 104.32 228.73 103.84 228.62 103.28L224.89 105.33C224.82 105.343 224.753 105.366 224.69 105.4L201.33 118.19L199.77 119.05L177.49 131.32C177.42 131.325 177.351 131.345 177.29 131.38L147.69 147.67L142.13 150.73L100.53 173.64C100.46 173.645 100.391 173.665 100.33 173.7L82.93 183.28L81.63 183.99L82.93 184.2L84.04 184.38L100.93 175.1C100.972 175.089 101.013 175.072 101.05 175.05Z" fill="#FCBAB1"/>
<path d="M106.93 178.32L136.57 162.05L142.13 158.99L183.76 136.05C183.817 136.056 183.873 136.056 183.93 136.05L201.33 126.47L213.53 119.76L214.73 119.1L229.52 110.95C229.52 110.4 229.45 109.85 229.41 109.31L211.61 119.11L201.33 124.77L183.41 134.63C183.34 134.643 183.273 134.666 183.21 134.7L153.61 150.99L142.13 157.25L106.45 176.89C106.38 176.903 106.313 176.926 106.25 176.96L90.93 185.42L93.41 185.76L106.85 178.36C106.878 178.349 106.905 178.336 106.93 178.32Z" fill="#FCBAB1"/>
<path d="M83.29 165.29L130.49 139.29C130.543 139.299 130.597 139.299 130.65 139.29L142.13 132.97L160.25 122.97L167.37 119.05L201.37 100.35L207.49 96.99C207.545 96.9779 207.598 96.9611 207.65 96.94L222.79 88.61C222.73 88.52 222.68 88.43 222.63 88.34L221.95 87.34L207.13 95.5C207.06 95.5048 206.991 95.5253 206.93 95.56L201.37 98.62L177.37 111.85L164.37 119.02L142.13 131.23L130.13 137.84C130.06 137.845 129.991 137.865 129.93 137.9L100.33 154.19L82.93 163.77L82.77 163.86C82.7006 163.869 82.6331 163.89 82.57 163.92L56.85 178.05H56.9C57.48 178.29 58.07 178.53 58.66 178.75L82.93 165.48L83.29 165.29Z" fill="#FCBAB1"/>
<path d="M29.85 96.99C29.9046 96.9778 29.9582 96.9611 30.01 96.94L77.21 70.94C77.2629 70.9491 77.3171 70.9491 77.37 70.94L82.93 67.8799L106.93 54.65L119.93 47.47L140.36 36.22L137.74 35.95L123.93 43.55L116.93 47.45L82.93 66.15L76.85 69.49C76.7801 69.5027 76.7126 69.5263 76.65 69.56L29.49 95.56C29.4197 95.5647 29.3513 95.5852 29.29 95.62L23.73 98.68L17.87 101.91C17.87 102.07 17.78 102.24 17.74 102.41C17.63 102.89 17.53 103.41 17.43 103.86L23.73 100.39L29.85 96.99Z" fill="#FCBAB1"/>
<path d="M35.76 100.25C35.8183 100.239 35.8753 100.223 35.93 100.2L65.53 83.9099L82.93 74.33L83.13 74.22C83.183 74.2291 83.237 74.2291 83.29 74.22L112.93 57.89L131.93 47.46L142.21 41.8L149.74 37.65L147.43 37.21L142.13 40.05L129.93 46.7899L128.73 47.45L112.37 56.45C112.301 56.4592 112.233 56.4795 112.17 56.5099L82.93 72.62L82.57 72.81L35.42 98.81C35.3469 98.8226 35.2761 98.8462 35.21 98.8799L23.73 105.2L16.51 109.2C16.43 109.813 16.36 110.423 16.3 111.03L23.73 106.94L35.76 100.25Z" fill="#FCBAB1"/>
<path d="M41.69 103.5C41.7429 103.509 41.7971 103.509 41.85 103.5L71.45 87.21L82.93 80.85L118.65 61.19C118.705 61.1779 118.758 61.1611 118.81 61.14L142.13 48.31L143.69 47.45L157.93 39.59C157.23 39.39 156.54 39.21 155.83 39.03L142.09 46.59L140.53 47.45L118.25 59.72C118.18 59.7248 118.111 59.7453 118.05 59.78L88.49 76.05L82.93 79.13L41.33 102.05C41.2601 102.063 41.1926 102.086 41.13 102.12L23.73 111.7L15.93 115.95C15.93 116.52 15.93 117.1 15.93 117.68L23.72 113.39L41.69 103.5Z" fill="#FCBAB1"/>
<path d="M65.37 64.44C65.4229 64.4491 65.4771 64.4491 65.53 64.44L82.93 54.86L95.13 48.15L96.33 47.49L112.73 38.49C112.783 38.4991 112.837 38.4991 112.89 38.49L117.29 36.0699H117.19C115.97 36.1699 114.74 36.29 113.51 36.43H113.4L112.17 37.0999L93.17 47.53L82.93 53.11L65.01 62.97C64.9401 62.9827 64.8726 63.0063 64.81 63.0399L35.21 79.33L24.52 85.22C24.25 85.69 23.99 86.16 23.73 86.64L23.19 87.64L23.73 87.3499L65.37 64.44Z" fill="#FCBAB1"/>
<path d="M24.09 93.69L71.28 67.69C71.3362 67.7003 71.3938 67.7003 71.45 67.69L82.93 61.34L101.05 51.34L108.17 47.42L129.85 35.48C128.85 35.48 127.79 35.48 126.76 35.48L118.09 40.25L105.09 47.42L82.93 59.63L70.93 66.23C70.8569 66.2427 70.7861 66.2663 70.72 66.3L41.12 82.59L23.72 92.17L23.56 92.26C23.4906 92.2692 23.4231 92.2895 23.36 92.32L20.36 93.99V94.05C20.09 94.74 19.84 95.43 19.59 96.13V96.19L23.79 93.88L24.09 93.69Z" fill="#FCBAB1"/>
<path d="M53.69 57.8799L64.47 51.95C60.8899 53.3991 57.4032 55.0689 54.03 56.95L52.76 57.67C50.29 59.11 47.89 60.6699 45.58 62.3199C45.4827 62.3809 45.3892 62.4477 45.3 62.52L53.7 57.9L53.69 57.8799Z" fill="#FCBAB1"/>
<path d="M59.61 61.14L82.93 48.31L84.49 47.45L101.44 38.12C99.62 38.48 97.8 38.91 96 39.4L82.93 46.59L81.37 47.45L59.09 59.72C59.0197 59.7248 58.9513 59.7453 58.89 59.78L32.16 74.5C31.55 75.2 30.96 75.9 30.39 76.63C30.12 76.95 29.86 77.28 29.6 77.63L59.45 61.2C59.5049 61.1846 59.5585 61.1645 59.61 61.14Z" fill="#FCBAB1"/>
<path d="M65.53 155.51L82.93 145.93L83.13 145.82C83.183 145.829 83.237 145.829 83.29 145.82L112.93 129.49L131.93 119.06L142.21 113.4L160.21 103.51C160.263 103.519 160.317 103.519 160.37 103.51L189.97 87.22L201.45 80.9L212.38 74.9C212.04 74.51 211.71 74.13 211.38 73.75L206.93 76.05L201.37 79.11L159.73 102.05C159.66 102.063 159.593 102.086 159.53 102.12L142.13 111.7L129.93 118.39L128.73 119.05L112.37 128.05C112.302 128.064 112.235 128.084 112.17 128.11L82.93 144.22L82.57 144.42L39.68 168.05C40.1 168.39 40.52 168.73 40.95 169.05L65.53 155.52V155.51Z" fill="#FCBAB1"/>
<path d="M71.45 158.77L82.93 152.45L118.64 132.79C118.698 132.779 118.755 132.763 118.81 132.74L142.13 119.91L143.69 119.05L166.01 106.76C166.063 106.769 166.117 106.769 166.17 106.76L195.77 90.47L201.33 87.41L215.98 79.34C215.67 78.94 215.35 78.55 215.03 78.15L212.81 79.37L201.33 85.65L165.65 105.29C165.58 105.303 165.513 105.326 165.45 105.36L142.13 118.19L140.58 119.05L118.29 131.32C118.22 131.325 118.151 131.345 118.09 131.38L88.49 147.67L82.93 150.73L44.76 171.73C45.23 172.04 45.76 172.34 46.21 172.64L71.45 158.75V158.77Z" fill="#FCBAB1"/>
<path d="M77.37 162.05L82.93 158.99L124.56 136.05C124.618 136.039 124.675 136.023 124.73 136L142.13 126.42L154.33 119.71L155.53 119.05L171.93 110.05C171.983 110.059 172.037 110.059 172.09 110.05L201.33 93.95L201.69 93.76L219.48 83.97L218.58 82.77L201.33 92.27L201.17 92.36C201.101 92.3693 201.033 92.3895 200.97 92.42L171.37 108.71L152.37 119.14L142.09 124.8L124.17 134.66C124.1 134.673 124.033 134.696 123.97 134.73L94.37 151.02L82.93 157.25L50.48 175.11C51.02 175.4 51.55 175.67 52.09 175.94L77.37 162.05Z" fill="#FCBAB1"/>
<path d="M53.69 129.48L72.69 119.05L82.93 113.39L100.93 103.5C100.983 103.509 101.037 103.509 101.09 103.5L130.69 87.21L142.17 80.89L177.89 61.23C177.945 61.2178 177.998 61.2011 178.05 61.18L189.86 54.68C189.4 54.36 188.94 54.04 188.47 53.73L177.53 59.73C177.46 59.7347 177.391 59.7552 177.33 59.79L147.69 76.05L142.13 79.11L100.53 102.05C100.46 102.063 100.393 102.086 100.33 102.12L82.93 111.68L70.73 118.39L69.53 119.05L53.17 128.05C53.1017 128.064 53.0348 128.084 52.97 128.11L23.73 144.21L23.37 144.41L21.96 145.18C22.17 145.63 22.39 146.09 22.61 146.54L23.73 145.92L23.93 145.81C23.9829 145.819 24.0371 145.819 24.09 145.81L53.69 129.52V129.48Z" fill="#FCBAB1"/>
<path d="M59.61 132.74L82.93 119.91L84.49 119.05L106.81 106.76C106.863 106.769 106.917 106.769 106.97 106.76L136.57 90.47L142.13 87.41L183.77 64.48C183.823 64.4891 183.877 64.4891 183.93 64.48L194.93 58.48C194.5 58.14 194.06 57.81 193.62 57.48L183.44 63.09C183.37 63.0947 183.301 63.1153 183.24 63.15L153.64 79.44L142.13 85.65L106.45 105.29C106.38 105.303 106.313 105.326 106.25 105.36L82.93 118.19L81.37 119.05L59.09 131.32C59.0197 131.325 58.9513 131.345 58.89 131.38L29.29 147.67L24.6 150.26C24.85 150.69 25.11 151.12 25.37 151.55L59.44 132.79C59.4983 132.779 59.5552 132.763 59.61 132.74Z" fill="#FCBAB1"/>
<path d="M65.53 136.05L82.93 126.47L95.13 119.76L96.33 119.1L112.73 110.1C112.783 110.109 112.837 110.109 112.89 110.1L142.13 94L142.49 93.81L189.68 67.81C189.736 67.8203 189.794 67.8203 189.85 67.81L199.66 62.41L198.43 61.41L189.34 66.41C189.267 66.4226 189.196 66.4462 189.13 66.48L159.53 82.77L142.13 92.35L141.97 92.44C141.901 92.4493 141.833 92.4695 141.77 92.5L112.17 108.79L93.17 119.22L82.93 124.71L65.01 134.57C64.9401 134.583 64.8726 134.606 64.81 134.64L35.21 150.93L27.68 155.05L28.56 156.28L65.36 136.05C65.4165 136.056 65.4735 136.056 65.53 136.05Z" fill="#FCBAB1"/>
<path d="M71.45 139.26L82.93 132.94L101.05 122.94L108.17 119.02L142.17 100.32L148.29 96.96C148.345 96.9478 148.398 96.9311 148.45 96.91L195.65 70.91C195.703 70.9191 195.757 70.9191 195.81 70.91L201.37 67.85L204.17 66.31L203.02 65.23L201.37 66.14L195.29 69.48C195.22 69.4927 195.153 69.5163 195.09 69.55L147.93 95.55C147.86 95.5547 147.791 95.5752 147.73 95.61L142.17 98.67L118.17 111.9L105.17 119.07L82.93 131.23L70.93 137.84C70.8597 137.845 70.7913 137.865 70.73 137.9L41.13 154.19L31.2 159.66C31.53 160.05 31.86 160.44 32.2 160.82L71.29 139.3C71.3453 139.296 71.3994 139.283 71.45 139.26Z" fill="#FCBAB1"/>
<path d="M77.37 142.52L82.93 139.46L106.93 126.23L119.93 119.05L142.05 106.87L154.05 100.25C154.108 100.239 154.165 100.223 154.22 100.2L183.93 83.91L201.33 74.33L201.53 74.22C201.583 74.2292 201.637 74.2292 201.69 74.22L208.33 70.56L207.33 69.47L201.43 72.72L201.07 72.91L153.92 98.91C153.847 98.9212 153.775 98.9448 153.71 98.98L142.23 105.3L124.11 115.3L116.93 119.05L82.93 137.75L76.85 141.1C76.7797 141.105 76.7113 141.125 76.65 141.16L35.17 163.99C35.54 164.36 35.92 164.72 36.3 165.08L77.21 142.56C77.2653 142.556 77.3194 142.543 77.37 142.52Z" fill="#FCBAB1"/>
<path d="M25.29 119.05L47.61 106.76C47.6629 106.769 47.7171 106.769 47.77 106.76L77.37 90.47L82.93 87.41L124.57 64.48C124.623 64.4892 124.677 64.4892 124.73 64.48L142.13 54.9L154.33 48.19L155.53 47.53L165.46 42.06L163.56 41.39L152.41 47.53L142.13 53.19L124.21 63.05C124.14 63.0628 124.073 63.0864 124.01 63.12L94.41 79.41L82.93 85.65L47.25 105.29C47.1801 105.303 47.1126 105.326 47.05 105.36L23.73 118.19L22.17 119.05L16.1 122.4C16.1 122.94 16.18 123.49 16.23 124.03L23.73 119.91L25.29 119.05Z" fill="#FCBAB1"/>
<path d="M35.93 119.71L37.13 119.05L53.53 110.05C53.5829 110.059 53.6371 110.059 53.69 110.05L82.93 93.88L83.29 93.69L130.48 67.69C130.536 67.7003 130.594 67.7003 130.65 67.69L142.13 61.37L160.25 51.37L167.37 47.45L172.29 44.74C171.72 44.48 171.13 44.23 170.55 43.98L164.25 47.45L142.13 59.63L130.13 66.23C130.057 66.2427 129.986 66.2663 129.92 66.3L100.32 82.59L82.93 92.17L82.77 92.26C82.7006 92.2692 82.6331 92.2895 82.57 92.32L52.93 108.61L33.93 119.04L23.65 124.7L16.73 128.51C16.82 129.03 16.91 129.51 17.01 130.07L23.65 126.41L35.93 119.71Z" fill="#FCBAB1"/>
<path d="M41.85 122.97L48.93 119.05L82.93 100.35L89.05 96.99C89.1046 96.9778 89.1582 96.9611 89.21 96.94L136.41 70.94C136.463 70.9491 136.517 70.9491 136.57 70.94L142.13 67.88L166.13 54.65L178.53 47.82L177.86 47.47C177.55 47.31 177.25 47.14 176.94 46.99L176.06 47.47L142.06 66.17L135.98 69.51C135.91 69.5227 135.843 69.5463 135.78 69.58L88.62 95.58C88.5497 95.5847 88.4813 95.6052 88.42 95.64L82.93 98.64L58.93 111.87L45.93 119.04L23.73 131.23L18.06 134.35C18.19 134.85 18.32 135.35 18.46 135.84L23.73 132.94L41.85 122.97Z" fill="#FCBAB1"/>
<path d="M47.77 126.23L60.77 119.05L82.93 106.87L94.93 100.25C94.9883 100.239 95.0453 100.223 95.1 100.2L124.7 83.91L142.1 74.33L142.3 74.22C142.353 74.2292 142.407 74.2292 142.46 74.22L172.06 57.93L184.37 51.16L182.87 50.27L171.54 56.51C171.471 56.5193 171.403 56.5395 171.34 56.57L142.1 72.67L141.74 72.86L94.59 98.86C94.5169 98.8727 94.4461 98.8963 94.38 98.93L82.93 105.16L64.81 115.16L57.69 119.05L23.69 137.75L19.75 139.92C19.92 140.39 20.09 140.87 20.28 141.34L23.69 139.46L47.77 126.23Z" fill="#FCBAB1"/>
<g clip-path="url(#clip1)">
<path d="M119.008 60.6121H100.426V188.298H119.008V60.6121Z" fill="#5CA099"/>
<path d="M160.121 188.298V60.6121H118.998V188.298H160.121ZM150.607 180.368H128.512V163.415H150.607V180.368ZM150.607 156.397H128.512V139.423H150.607V156.397ZM150.607 132.365H128.512V115.411H150.607V132.365ZM150.607 108.353H128.512V91.3892H150.607V108.353ZM150.607 84.3304H128.512V67.3772H150.607V84.3304Z" fill="#A5D6CD"/>
<path d="M139.666 67.3771H128.512V84.3304H139.666H150.617V67.3771H139.666Z" fill="#B3FFF0"/>
<path d="M139.666 91.379H128.512V108.353H139.666H150.617V91.379H139.666Z" fill="#B3FFF0"/>
<path d="M139.666 115.411H128.512V132.365H139.666H150.617V115.411H139.666Z" fill="#B3FFF0"/>
<path d="M139.666 139.413H128.512V156.387H139.666H150.617V139.413H139.666Z" fill="#B3FFF0"/>
<path d="M139.666 163.415H128.512V180.368H139.666H150.617V163.415H139.666Z" fill="#B3FFF0"/>
<path d="M139.565 85.09C139.363 85.09 139.17 85.0099 139.028 84.8675C138.886 84.7251 138.806 84.5319 138.806 84.3304V67.3772C138.806 67.1757 138.886 66.9825 139.028 66.8401C139.17 66.6976 139.363 66.6176 139.565 66.6176C139.766 66.6176 139.959 66.6976 140.101 66.8401C140.244 66.9825 140.324 67.1757 140.324 67.3772V84.3304C140.321 84.531 140.24 84.7227 140.098 84.8646C139.957 85.0065 139.765 85.0873 139.565 85.09Z" fill="#578793"/>
<path d="M139.565 109.102C139.465 109.103 139.367 109.085 139.275 109.048C139.183 109.011 139.099 108.956 139.028 108.886C138.958 108.816 138.902 108.733 138.863 108.642C138.825 108.55 138.806 108.452 138.806 108.353V91.3892C138.806 91.1877 138.886 90.9945 139.028 90.8521C139.17 90.7097 139.363 90.6296 139.565 90.6296C139.766 90.6296 139.959 90.7097 140.101 90.8521C140.244 90.9945 140.324 91.1877 140.324 91.3892V108.353C140.321 108.552 140.24 108.743 140.098 108.883C139.956 109.023 139.764 109.102 139.565 109.102Z" fill="#578793"/>
<path d="M139.565 133.124C139.465 133.125 139.365 133.107 139.273 133.069C139.18 133.031 139.096 132.976 139.025 132.905C138.954 132.834 138.898 132.75 138.861 132.657C138.823 132.564 138.804 132.465 138.806 132.365V115.411C138.806 115.21 138.886 115.017 139.028 114.874C139.17 114.732 139.363 114.652 139.565 114.652C139.766 114.652 139.959 114.732 140.101 114.874C140.244 115.017 140.324 115.21 140.324 115.411V132.365C140.324 132.566 140.244 132.759 140.101 132.902C139.959 133.044 139.766 133.124 139.565 133.124Z" fill="#578793"/>
<path d="M139.565 157.146C139.363 157.146 139.17 157.066 139.028 156.924C138.886 156.781 138.806 156.588 138.806 156.387V139.423C138.806 139.222 138.886 139.029 139.028 138.886C139.17 138.744 139.363 138.664 139.565 138.664C139.766 138.664 139.959 138.744 140.101 138.886C140.244 139.029 140.324 139.222 140.324 139.423V156.387C140.321 156.587 140.24 156.779 140.098 156.921C139.957 157.063 139.765 157.144 139.565 157.146Z" fill="#578793"/>
<path d="M139.565 181.128C139.465 181.129 139.365 181.111 139.273 181.073C139.18 181.035 139.096 180.979 139.025 180.909C138.954 180.838 138.898 180.753 138.861 180.661C138.823 180.568 138.804 180.469 138.806 180.368V163.415C138.806 163.214 138.886 163.021 139.028 162.878C139.17 162.736 139.363 162.656 139.565 162.656C139.766 162.656 139.959 162.736 140.101 162.878C140.244 163.021 140.324 163.214 140.324 163.415V180.368C140.324 180.57 140.244 180.763 140.101 180.905C139.959 181.048 139.766 181.128 139.565 181.128Z" fill="#578793"/>
<path d="M139.666 85.09H128.532C128.332 85.0873 128.14 85.0065 127.999 84.8646C127.857 84.7227 127.776 84.531 127.773 84.3304V67.367C127.776 67.1664 127.857 66.9747 127.999 66.8329C128.14 66.691 128.332 66.6101 128.532 66.6075H139.666V68.1266H129.261V83.5709H139.666V85.09Z" fill="black"/>
<path d="M150.607 85.09H139.666V83.5709H149.848V68.1266H139.666V66.6075H150.607C150.807 66.6101 150.999 66.691 151.141 66.8329C151.283 66.9747 151.363 67.1664 151.366 67.367V84.3304C151.363 84.531 151.283 84.7227 151.141 84.8646C150.999 85.0065 150.807 85.0873 150.607 85.09Z" fill="black"/>
<path d="M139.666 109.112H128.532C128.332 109.11 128.14 109.029 127.999 108.887C127.857 108.745 127.776 108.553 127.773 108.353V91.3892C127.776 91.1886 127.857 90.9969 127.999 90.855C128.14 90.7131 128.332 90.6323 128.532 90.6296H139.666V92.1487H129.261V107.593H139.666V109.112Z" fill="black"/>
<path d="M150.607 109.112H139.666V107.593H149.848V92.1487H139.666V90.6296H150.607C150.807 90.6323 150.999 90.7131 151.141 90.855C151.283 90.9969 151.363 91.1886 151.366 91.3892V108.353C151.363 108.553 151.283 108.745 151.141 108.887C150.999 109.029 150.807 109.11 150.607 109.112Z" fill="black"/>
<path d="M139.666 133.124H128.532C128.331 133.124 128.138 133.044 127.996 132.902C127.853 132.759 127.773 132.566 127.773 132.365V115.411C127.773 115.21 127.853 115.017 127.996 114.874C128.138 114.732 128.331 114.652 128.532 114.652H139.666V116.171H129.261V131.605H139.666V133.124Z" fill="black"/>
<path d="M150.607 133.124H139.666V131.605H149.848V116.171H139.666V114.652H150.607C150.808 114.652 151.001 114.732 151.144 114.874C151.286 115.017 151.366 115.21 151.366 115.411V132.365C151.366 132.566 151.286 132.759 151.144 132.902C151.001 133.044 150.808 133.124 150.607 133.124Z" fill="black"/>
<path d="M139.666 157.146H128.532C128.332 157.144 128.14 157.063 127.999 156.921C127.857 156.779 127.776 156.587 127.773 156.387V139.423C127.776 139.223 127.857 139.031 127.999 138.889C128.14 138.747 128.332 138.666 128.532 138.664H139.666V140.183H129.261V155.627H139.666V157.146Z" fill="black"/>
<path d="M150.607 157.146H139.666V155.627H149.848V140.183H139.666V138.664H150.607C150.807 138.666 150.999 138.747 151.141 138.889C151.283 139.031 151.363 139.223 151.366 139.423V156.387C151.363 156.587 151.283 156.779 151.141 156.921C150.999 157.063 150.807 157.144 150.607 157.146Z" fill="black"/>
<path d="M139.666 181.128H128.532C128.331 181.128 128.138 181.048 127.996 180.906C127.853 180.763 127.773 180.57 127.773 180.368V163.415C127.773 163.214 127.853 163.021 127.996 162.878C128.138 162.736 128.331 162.656 128.532 162.656H139.666V164.175H129.261V179.609H139.666V181.128Z" fill="black"/>
<path d="M150.607 181.128H139.666V179.609H149.848V164.175H139.666V162.656H150.607C150.808 162.656 151.001 162.736 151.144 162.878C151.286 163.021 151.366 163.214 151.366 163.415V180.368C151.366 180.57 151.286 180.763 151.144 180.906C151.001 181.048 150.808 181.128 150.607 181.128Z" fill="black"/>
<path d="M118.998 189.058H100.426C100.225 189.058 100.031 188.978 99.8891 188.835C99.7468 188.693 99.6668 188.5 99.6668 188.298V60.612C99.6668 60.4106 99.7468 60.2174 99.8891 60.0749C100.031 59.9325 100.225 59.8525 100.426 59.8525H118.998C119.2 59.8525 119.393 59.9325 119.535 60.0749C119.677 60.2174 119.757 60.4106 119.757 60.612V188.298C119.757 188.5 119.677 188.693 119.535 188.835C119.393 188.978 119.2 189.058 118.998 189.058ZM101.185 187.539H118.239V61.3817H101.185V187.539Z" fill="black"/>
<path d="M150.607 180.368H128.512V163.415H150.607V180.368ZM150.607 156.397H128.512V139.423H150.607V156.397ZM150.607 132.365H128.512V115.411H150.607V132.365ZM150.607 108.353H128.512V91.3892H150.607V108.353ZM150.607 84.3304H128.512V67.3771H150.607V84.3304Z" stroke="#578793" stroke-width="1.5" stroke-linecap="round" stroke-linejoin="round"/>
<path d="M67.8356 36.0025H56.5707V52.9254H67.8356V36.0025Z" fill="#5CA099"/>
<path d="M67.8457 52.9254H52.9169V86.7711H67.8457V52.9254Z" fill="#5CA099"/>
<path d="M67.8356 86.7711H49.2733V188.298H67.8356V86.7711Z" fill="#5CA099"/>
<path d="M101.661 36.0025H67.8356V52.9254H101.661V36.0025Z" fill="#A5D6CD"/>
<path d="M67.8356 86.7711V188.298H108.958V86.7711H67.8356ZM84.1813 180.368H76.2564V94.6806H84.1813V180.368ZM100.527 180.368H92.6022V94.6806H100.547L100.527 180.368Z" fill="#A5D6CD"/>
<path d="M67.8356 52.9254V86.7711H105.284V52.9254H67.8356ZM82.7239 79.0844H75.5176V60.612H82.7239V79.0844ZM97.6223 79.0844H90.4261V60.612H97.6426L97.6223 79.0844Z" fill="#A5D6CD"/>
<path d="M84.1814 94.6806H76.2564V180.368H84.1814V94.6806Z" fill="#B3FFF0"/>
<path d="M100.537 94.6806H92.6123V180.368H100.537V94.6806Z" fill="#B3FFF0"/>
<path d="M82.7239 60.6121H75.5176V79.0844H82.7239V60.6121Z" fill="#B3FFF0"/>
<path d="M97.6223 60.6121H90.4059V79.0844H97.6223V60.6121Z" fill="#B3FFF0"/>
<path d="M101.661 53.6951H67.8356C67.6351 53.6924 67.4435 53.6116 67.3017 53.4697C67.1599 53.3278 67.0791 53.1361 67.0765 52.9355V36.0633C67.0765 35.8618 67.1565 35.6686 67.2988 35.5262C67.4412 35.3837 67.6343 35.3037 67.8356 35.3037H101.661C101.862 35.3037 102.055 35.3837 102.197 35.5262C102.34 35.6686 102.42 35.8618 102.42 36.0633V52.9861C102.405 53.1778 102.318 53.3569 102.178 53.4881C102.037 53.6193 101.853 53.6931 101.661 53.6951ZM68.5947 52.1759H100.902V36.7722H68.5947V52.1759Z" fill="black"/>
<path d="M67.8356 53.6951H56.5606C56.3601 53.6924 56.1685 53.6116 56.0267 53.4697C55.8849 53.3278 55.8041 53.1361 55.8015 52.9355V36.0633C55.8015 35.8618 55.8815 35.6686 56.0238 35.5262C56.1662 35.3837 56.3593 35.3037 56.5606 35.3037H67.8356C67.9357 35.3024 68.035 35.3211 68.1277 35.3588C68.2204 35.3965 68.3046 35.4523 68.3754 35.5232C68.4461 35.594 68.502 35.6782 68.5397 35.771C68.5773 35.8638 68.596 35.9632 68.5947 36.0633V52.9861C68.5818 53.1787 68.4962 53.3591 68.3552 53.4908C68.2143 53.6224 68.0285 53.6955 67.8356 53.6951ZM57.3197 52.176H67.0765V36.7722H57.3197V52.176Z" fill="black"/>
<path d="M67.8356 87.5307H52.9169C52.7164 87.5281 52.5249 87.4472 52.3831 87.3053C52.2413 87.1634 52.1605 86.9718 52.1578 86.7711V52.9355C52.1578 52.7341 52.2378 52.5409 52.3802 52.3984C52.5225 52.256 52.7156 52.176 52.9169 52.176H67.8356C67.9356 52.1746 68.035 52.1933 68.1277 52.231C68.2204 52.2687 68.3046 52.3246 68.3754 52.3954C68.4461 52.4662 68.502 52.5505 68.5397 52.6432C68.5773 52.736 68.596 52.8354 68.5947 52.9355V86.7711C68.5947 86.9726 68.5147 87.1658 68.3723 87.3082C68.23 87.4507 68.0369 87.5307 67.8356 87.5307ZM53.6659 86.0116H67.0664V53.6951H53.676L53.6659 86.0116Z" fill="black"/>
<path d="M105.304 87.5307H67.8558C67.6553 87.5281 67.4638 87.4472 67.322 87.3053C67.1802 87.1634 67.0994 86.9718 67.0968 86.7711V52.9355C67.0968 52.7341 67.1767 52.5409 67.3191 52.3984C67.4614 52.256 67.6545 52.176 67.8558 52.176H105.304C105.506 52.176 105.699 52.256 105.841 52.3984C105.983 52.5409 106.063 52.7341 106.063 52.9355V86.7711C106.061 86.9718 105.98 87.1634 105.838 87.3053C105.696 87.4472 105.505 87.5281 105.304 87.5307ZM68.5947 86.0116H104.596V53.6951H68.5947V86.0116Z" fill="black"/>
<path d="M108.948 189.048H67.8356C67.6343 189.048 67.4412 188.968 67.2988 188.825C67.1565 188.683 67.0765 188.489 67.0765 188.288V86.7711C67.0791 86.5705 67.1599 86.3788 67.3017 86.2369C67.4435 86.095 67.6351 86.0142 67.8356 86.0115H108.948C109.149 86.0115 109.342 86.0916 109.485 86.234C109.627 86.3764 109.707 86.5696 109.707 86.7711V188.288C109.708 188.388 109.69 188.488 109.652 188.58C109.614 188.673 109.558 188.757 109.488 188.828C109.417 188.899 109.333 188.955 109.24 188.993C109.147 189.03 109.048 189.049 108.948 189.048ZM68.5947 187.528H108.189V87.5306H68.5947V187.528Z" fill="black"/>
<path d="M84.1813 181.128H76.2565C76.0551 181.128 75.862 181.048 75.7197 180.905C75.5773 180.763 75.4974 180.57 75.4974 180.368V94.6907C75.4974 94.4893 75.5773 94.2961 75.7197 94.1536C75.862 94.0112 76.0551 93.9312 76.2565 93.9312H84.1712C84.3726 93.9312 84.5656 94.0112 84.708 94.1536C84.8504 94.2961 84.9303 94.4893 84.9303 94.6907V180.368C84.9304 180.568 84.8518 180.76 84.7116 180.902C84.5714 181.044 84.3809 181.125 84.1813 181.128ZM77.0257 179.609H83.4223V95.4503H77.0257V179.609Z" fill="#578793"/>
<path d="M100.547 181.128H92.6326C92.5325 181.129 92.4332 181.111 92.3405 181.073C92.2478 181.035 92.1635 180.979 92.0928 180.909C92.022 180.838 91.9662 180.753 91.9285 180.661C91.8908 180.568 91.8721 180.469 91.8735 180.368V94.6907C91.8721 94.5906 91.8908 94.4912 91.9285 94.3984C91.9662 94.3057 92.022 94.2214 92.0928 94.1506C92.1635 94.0798 92.2478 94.0239 92.3405 93.9862C92.4332 93.9485 92.5325 93.9298 92.6326 93.9312H100.547C100.749 93.9312 100.942 94.0112 101.084 94.1536C101.226 94.2961 101.306 94.4893 101.306 94.6907V180.368C101.306 180.57 101.226 180.763 101.084 180.905C100.942 181.048 100.749 181.128 100.547 181.128ZM93.3917 179.609H99.7883V95.4503H93.3917V179.609Z" fill="#578793"/>
<path d="M82.734 79.844H75.5176C75.3171 79.8413 75.1255 79.7605 74.9837 79.6186C74.8419 79.4767 74.7611 79.285 74.7585 79.0844V60.6222C74.7585 60.4207 74.8385 60.2275 74.9809 60.0851C75.1232 59.9426 75.3163 59.8626 75.5176 59.8626H82.734C82.9353 59.8626 83.1284 59.9426 83.2708 60.0851C83.4131 60.2275 83.4931 60.4207 83.4931 60.6222V79.0844C83.4905 79.285 83.4097 79.4767 83.2679 79.6186C83.1261 79.7605 82.9345 79.8413 82.734 79.844ZM76.2767 78.3249H81.9749V61.3817H76.2564L76.2767 78.3249Z" fill="#578793"/>
<path d="M97.6223 79.844H90.4262C90.2248 79.844 90.0318 79.7639 89.8894 79.6215C89.747 79.479 89.6671 79.2859 89.6671 79.0844V60.6222C89.6657 60.522 89.6844 60.4227 89.7221 60.3299C89.7597 60.2371 89.8156 60.1529 89.8864 60.0821C89.9571 60.0112 90.0413 59.9554 90.1341 59.9177C90.2268 59.88 90.3261 59.8613 90.4262 59.8626H97.6325C97.8338 59.8626 98.0269 59.9426 98.1692 60.0851C98.3116 60.2275 98.3915 60.4207 98.3915 60.6222V79.0844C98.3889 79.2868 98.3067 79.48 98.1627 79.6221C98.0187 79.7643 97.8246 79.844 97.6223 79.844ZM91.1751 78.3249H96.8632V61.3817H91.1751V78.3249Z" fill="#578793"/>
<path d="M94.7277 45.2285H88.2096C88.0083 45.2285 87.8152 45.1485 87.6728 45.0061C87.5305 44.8636 87.4505 44.6704 87.4505 44.469C87.4505 44.2675 87.5305 44.0744 87.6728 43.9319C87.8152 43.7895 88.0083 43.7094 88.2096 43.7094H94.7277C94.929 43.7094 95.1221 43.7895 95.2644 43.9319C95.4068 44.0744 95.4867 44.2675 95.4867 44.469C95.4867 44.6704 95.4068 44.8636 95.2644 45.0061C95.1221 45.1485 94.929 45.2285 94.7277 45.2285Z" fill="#578793"/>
<path d="M81.3171 45.2285H74.8091C74.6078 45.2285 74.4147 45.1485 74.2724 45.0061C74.13 44.8636 74.05 44.6704 74.05 44.469C74.05 44.2675 74.13 44.0744 74.2724 43.9319C74.4147 43.7895 74.6078 43.7094 74.8091 43.7094H81.3171C81.5184 43.7094 81.7115 43.7895 81.8538 43.9319C81.9962 44.0744 82.0761 44.2675 82.0761 44.469C82.0761 44.6704 81.9962 44.8636 81.8538 45.0061C81.7115 45.1485 81.5184 45.2285 81.3171 45.2285Z" fill="#578793"/>
<path d="M49.2733 189.058C49.072 189.058 48.8789 188.978 48.7365 188.835C48.5942 188.693 48.5142 188.5 48.5142 188.298V86.7711C48.5168 86.5705 48.5976 86.3788 48.7394 86.2369C48.8812 86.095 49.0728 86.0142 49.2733 86.0115H68.5947C68.796 86.0115 68.9891 86.0916 69.1314 86.234C69.2738 86.3764 69.3538 86.5696 69.3538 86.7711C69.3538 86.9725 69.2738 87.1657 69.1314 87.3082C68.9891 87.4506 68.796 87.5306 68.5947 87.5306H50.0324V187.539H72.0865C72.2878 187.539 72.4809 187.619 72.6233 187.761C72.7656 187.904 72.8456 188.097 72.8456 188.298C72.8456 188.5 72.7656 188.693 72.6233 188.835C72.4809 188.978 72.2878 189.058 72.0865 189.058H49.2733Z" fill="black"/>
<path d="M160.121 189.058C159.919 189.058 159.726 188.978 159.584 188.835C159.442 188.693 159.362 188.5 159.362 188.298V61.3817H118.998C118.797 61.3817 118.604 61.3017 118.462 61.1593C118.319 61.0168 118.239 60.8236 118.239 60.6222C118.239 60.4207 118.319 60.2275 118.462 60.0851C118.604 59.9426 118.797 59.8626 118.998 59.8626H160.121C160.321 59.8652 160.513 59.9461 160.655 60.088C160.796 60.2299 160.877 60.4215 160.88 60.6222V188.298C160.877 188.499 160.796 188.69 160.655 188.832C160.513 188.974 160.321 189.055 160.121 189.058Z" fill="black"/>
<path d="M146.093 189.058H118.998C118.797 189.058 118.604 188.978 118.462 188.835C118.319 188.693 118.239 188.5 118.239 188.298C118.239 188.097 118.319 187.904 118.462 187.761C118.604 187.619 118.797 187.539 118.998 187.539H146.093C146.294 187.539 146.487 187.619 146.63 187.761C146.772 187.904 146.852 188.097 146.852 188.298C146.852 188.5 146.772 188.693 146.63 188.835C146.487 188.978 146.294 189.058 146.093 189.058Z" fill="black"/>
<path d="M215.362 160.195V190.496C215.362 191.183 215.089 191.843 214.603 192.329C214.118 192.815 213.459 193.088 212.771 193.088H157.682V160.195C157.682 161.631 157.964 163.052 158.514 164.379C159.063 165.705 159.869 166.91 160.884 167.925C161.899 168.94 163.104 169.745 164.43 170.293C165.756 170.842 167.178 171.123 168.612 171.122H181.426V173.148C181.426 173.605 181.607 174.044 181.929 174.369C182.252 174.693 182.689 174.877 183.147 174.879H189.887C190.346 174.879 190.787 174.697 191.111 174.372C191.436 174.047 191.618 173.607 191.618 173.148V171.122H204.431C207.329 171.122 210.108 169.971 212.157 167.922C214.207 165.873 215.36 163.094 215.362 160.195Z" fill="#FF7A64"/>
<path d="M215.362 151.759V160.195C215.36 163.094 214.207 165.873 212.157 167.922C210.108 169.971 207.329 171.122 204.431 171.122H191.638V169.097C191.64 168.869 191.596 168.643 191.509 168.432C191.423 168.222 191.295 168.03 191.134 167.869C190.973 167.708 190.782 167.581 190.571 167.494C190.361 167.407 190.135 167.364 189.908 167.365H183.167C182.71 167.368 182.272 167.551 181.95 167.876C181.627 168.2 181.446 168.639 181.446 169.097V171.122H168.612C167.178 171.123 165.756 170.842 164.43 170.293C163.104 169.745 161.899 168.94 160.884 167.925C159.869 166.91 159.063 165.705 158.514 164.379C157.964 163.052 157.682 161.631 157.682 160.195V149.176H212.771C213.457 149.176 214.114 149.448 214.6 149.932C215.086 150.416 215.36 151.073 215.362 151.759Z" fill="#FF7A64"/>
<path d="M157.682 149.166V193.088L151.022 186.009V149.166H157.682Z" fill="#FF9C8F"/>
<path d="M151.022 149.176V186.02L144.949 192.177C144.54 191.713 144.317 191.114 144.322 190.496V151.759C144.324 151.073 144.598 150.416 145.084 149.932C145.57 149.448 146.227 149.176 146.913 149.176H151.022Z" fill="#FFAD9F"/>
<path d="M157.682 193.088H146.953C146.579 193.088 146.21 193.007 145.871 192.85C145.532 192.692 145.231 192.463 144.99 192.177L151.062 186.02L157.682 193.088Z" fill="#FF7A64"/>
<path d="M203.136 139.413V149.176H198.258V142.563C198.255 142.107 198.073 141.671 197.751 141.348C197.429 141.026 196.992 140.844 196.537 140.841H166.76C166.303 140.841 165.864 141.022 165.54 141.345C165.216 141.667 165.032 142.105 165.03 142.563V149.176H160.161V139.413C160.161 138.497 160.525 137.619 161.172 136.971C161.819 136.324 162.697 135.96 163.613 135.96H199.735C200.642 135.973 201.507 136.343 202.143 136.989C202.779 137.635 203.136 138.506 203.136 139.413Z" fill="#FFF46C"/>
<path d="M199.27 142.563V149.176H195.778V140.841H197.549C198.005 140.844 198.441 141.026 198.763 141.348C199.085 141.671 199.267 142.107 199.27 142.563Z" fill="#FFDA3E"/>
<path d="M164.625 135.96C164.171 135.96 163.723 136.049 163.304 136.223C162.885 136.396 162.505 136.651 162.184 136.971C161.864 137.292 161.61 137.673 161.436 138.092C161.263 138.511 161.173 138.96 161.173 139.413V149.176H157.682V139.413C157.682 138.497 158.045 137.619 158.692 136.971C159.34 136.324 160.218 135.96 161.133 135.96H164.625Z" fill="#FFDA3E"/>
<path d="M189.897 167.365H183.147C182.196 167.365 181.426 168.136 181.426 169.087V173.168C181.426 174.119 182.196 174.89 183.147 174.89H189.897C190.848 174.89 191.618 174.119 191.618 173.168V169.087C191.618 168.136 190.848 167.365 189.897 167.365Z" fill="#FFF46C"/>
<path d="M157.682 193.848C157.578 193.849 157.476 193.828 157.382 193.786C157.288 193.744 157.203 193.682 157.135 193.605L151.012 187.113L145.82 192.43C145.677 192.572 145.484 192.652 145.283 192.652C145.082 192.652 144.889 192.572 144.747 192.43C144.605 192.288 144.525 192.095 144.525 191.893C144.525 191.692 144.605 191.499 144.747 191.357L150.506 185.473C150.573 185.395 150.657 185.334 150.752 185.295C150.847 185.257 150.95 185.241 151.052 185.25C151.154 185.249 151.256 185.27 151.35 185.31C151.444 185.35 151.528 185.409 151.599 185.483L158.258 192.572C158.358 192.682 158.423 192.817 158.447 192.963C158.471 193.109 158.453 193.259 158.394 193.394C158.335 193.53 158.239 193.646 158.116 193.728C157.993 193.81 157.85 193.856 157.702 193.858L157.682 193.848Z" fill="#D15D6E"/>
<path d="M151.022 186.779C150.821 186.776 150.63 186.696 150.488 186.554C150.346 186.412 150.265 186.22 150.263 186.02V149.166C150.263 148.964 150.343 148.771 150.485 148.629C150.627 148.486 150.821 148.406 151.022 148.406C151.223 148.406 151.416 148.486 151.559 148.629C151.701 148.771 151.781 148.964 151.781 149.166V186.02C151.781 186.221 151.701 186.414 151.559 186.557C151.416 186.699 151.223 186.779 151.022 186.779Z" fill="#D15D6E"/>
<path d="M204.431 171.882H191.638C191.437 171.882 191.244 171.802 191.102 171.659C190.959 171.517 190.879 171.324 190.879 171.122C190.879 170.921 190.959 170.727 191.102 170.585C191.244 170.443 191.437 170.363 191.638 170.363H204.452C207.141 170.363 209.72 169.297 211.626 167.399C213.533 165.502 214.61 162.926 214.624 160.235V151.799C214.624 151.598 214.704 151.404 214.846 151.262C214.988 151.12 215.181 151.039 215.383 151.039C215.584 151.039 215.777 151.12 215.919 151.262C216.062 151.404 216.142 151.598 216.142 151.799V160.235C216.128 163.332 214.888 166.297 212.693 168.481C210.498 170.664 207.527 171.887 204.431 171.882Z" fill="black"/>
<path d="M181.426 171.882H168.612C165.514 171.882 162.542 170.651 160.35 168.459C158.158 166.268 156.925 163.295 156.923 160.195V151.759C156.923 151.557 157.002 151.364 157.145 151.221C157.287 151.079 157.48 150.999 157.682 150.999C157.883 150.999 158.076 151.079 158.218 151.221C158.361 151.364 158.441 151.557 158.441 151.759V160.195C158.454 162.885 159.532 165.461 161.438 167.359C163.344 169.257 165.924 170.322 168.612 170.322H181.426C181.627 170.322 181.82 170.402 181.963 170.545C182.105 170.687 182.185 170.88 182.185 171.082C182.185 171.283 182.105 171.476 181.963 171.619C181.82 171.761 181.627 171.841 181.426 171.841V171.882Z" fill="black"/>
<path d="M203.126 149.925C202.925 149.925 202.731 149.845 202.589 149.703C202.447 149.561 202.367 149.367 202.367 149.166V139.413C202.364 138.7 202.08 138.016 201.575 137.511C201.071 137.007 200.388 136.722 199.675 136.719H163.613C163.411 136.719 163.218 136.639 163.076 136.497C162.933 136.354 162.854 136.161 162.854 135.96C162.854 135.758 162.933 135.565 163.076 135.423C163.218 135.28 163.411 135.2 163.613 135.2H199.675C200.791 135.2 201.862 135.644 202.652 136.434C203.441 137.224 203.885 138.296 203.885 139.413V149.166C203.886 149.266 203.868 149.365 203.83 149.458C203.792 149.551 203.736 149.635 203.666 149.706C203.595 149.777 203.511 149.833 203.418 149.87C203.325 149.908 203.226 149.927 203.126 149.925Z" fill="black"/>
<path d="M166.113 193.848H147.894C146.745 193.848 145.644 193.391 144.831 192.578C144.019 191.766 143.562 190.663 143.562 189.513V152.741C143.565 151.593 144.023 150.493 144.835 149.682C145.647 148.872 146.747 148.417 147.894 148.417H163.613C163.814 148.417 164.007 148.497 164.149 148.639C164.292 148.781 164.372 148.975 164.372 149.176C164.372 149.378 164.292 149.571 164.149 149.713C164.007 149.856 163.814 149.936 163.613 149.936H147.935C147.19 149.936 146.476 150.231 145.949 150.757C145.421 151.282 145.124 151.996 145.121 152.741V189.513C145.124 190.259 145.421 190.974 145.948 191.501C146.475 192.029 147.189 192.326 147.935 192.329H166.153C166.354 192.329 166.547 192.409 166.69 192.551C166.832 192.694 166.912 192.887 166.912 193.088C166.912 193.29 166.832 193.483 166.69 193.625C166.547 193.768 166.354 193.848 166.153 193.848H166.113Z" fill="black"/>
<path d="M192.65 171.882H182.438C182.237 171.882 182.044 171.802 181.901 171.659C181.759 171.517 181.679 171.324 181.679 171.122C181.679 170.921 181.759 170.727 181.901 170.585C182.044 170.443 182.237 170.363 182.438 170.363H192.65C192.852 170.363 193.045 170.443 193.187 170.585C193.33 170.727 193.409 170.921 193.409 171.122C193.409 171.324 193.33 171.517 193.187 171.659C193.045 171.802 192.852 171.882 192.65 171.882Z" fill="#E5B14A"/>
<path d="M189.887 175.649H183.147C182.489 175.649 181.858 175.388 181.393 174.922C180.928 174.457 180.667 173.826 180.667 173.168V169.117C180.667 168.458 180.928 167.826 181.393 167.359C181.857 166.892 182.488 166.628 183.147 166.626H189.887C190.548 166.626 191.181 166.888 191.648 167.355C192.115 167.822 192.377 168.456 192.377 169.117V173.168C192.374 173.827 192.111 174.458 191.644 174.923C191.178 175.388 190.546 175.649 189.887 175.649ZM183.147 168.124C182.887 168.137 182.642 168.25 182.463 168.438C182.284 168.627 182.185 168.877 182.185 169.137V173.188C182.197 173.439 182.303 173.677 182.48 173.855C182.658 174.033 182.895 174.138 183.147 174.15H189.887C190.147 174.151 190.397 174.051 190.586 173.872C190.774 173.693 190.886 173.448 190.899 173.188V169.137C190.899 168.869 190.793 168.611 190.603 168.421C190.413 168.231 190.156 168.124 189.887 168.124H183.147Z" fill="black"/>
<path d="M199.27 143.333C199.068 143.333 198.875 143.252 198.733 143.11C198.591 142.968 198.511 142.774 198.511 142.573C198.511 142.304 198.404 142.047 198.214 141.857C198.024 141.667 197.767 141.56 197.498 141.56H194.958C194.757 141.56 194.564 141.48 194.421 141.338C194.279 141.195 194.199 141.002 194.199 140.801C194.199 140.599 194.279 140.406 194.421 140.264C194.564 140.121 194.757 140.041 194.958 140.041H197.498C198.159 140.041 198.792 140.304 199.259 140.771C199.726 141.238 199.988 141.872 199.988 142.532C199.997 142.733 199.926 142.929 199.792 143.079C199.658 143.228 199.47 143.319 199.27 143.333Z" fill="#E5B14A"/>
<path d="M199.27 149.925C199.17 149.927 199.07 149.908 198.978 149.87C198.885 149.833 198.801 149.777 198.73 149.706C198.659 149.635 198.603 149.551 198.566 149.458C198.528 149.365 198.509 149.266 198.511 149.166V142.573C198.511 142.372 198.591 142.178 198.733 142.036C198.875 141.893 199.068 141.813 199.27 141.813C199.471 141.813 199.664 141.893 199.806 142.036C199.949 142.178 200.029 142.372 200.029 142.573V149.166C200.029 149.367 199.949 149.561 199.806 149.703C199.664 149.845 199.471 149.925 199.27 149.925Z" fill="#E5B14A"/>
<path d="M165.04 149.925C164.94 149.927 164.84 149.908 164.748 149.87C164.655 149.833 164.571 149.777 164.5 149.706C164.429 149.635 164.373 149.551 164.336 149.458C164.298 149.365 164.279 149.266 164.281 149.166V142.573C164.281 141.914 164.542 141.282 165.006 140.815C165.471 140.348 166.102 140.084 166.76 140.082H195.778C195.979 140.082 196.172 140.162 196.315 140.304C196.457 140.447 196.537 140.64 196.537 140.841C196.537 141.043 196.457 141.236 196.315 141.378C196.172 141.521 195.979 141.601 195.778 141.601H166.76C166.501 141.614 166.256 141.726 166.077 141.915C165.898 142.103 165.798 142.353 165.799 142.614V149.206C165.788 149.401 165.704 149.584 165.563 149.718C165.421 149.851 165.234 149.926 165.04 149.925Z" fill="black"/>
<path d="M195.778 149.925C195.577 149.925 195.383 149.845 195.241 149.703C195.099 149.561 195.019 149.367 195.019 149.166V140.841C195.019 140.64 195.099 140.447 195.241 140.304C195.383 140.162 195.577 140.082 195.778 140.082C195.979 140.082 196.172 140.162 196.315 140.304C196.457 140.447 196.537 140.64 196.537 140.841V149.166C196.537 149.367 196.457 149.561 196.315 149.703C196.172 149.845 195.979 149.925 195.778 149.925Z" fill="black"/>
<path d="M161.173 149.925C160.972 149.925 160.779 149.845 160.637 149.703C160.494 149.561 160.414 149.367 160.414 149.166V139.413C160.414 139.212 160.494 139.019 160.637 138.876C160.779 138.734 160.972 138.654 161.173 138.654C161.375 138.654 161.568 138.734 161.71 138.876C161.853 139.019 161.932 139.212 161.932 139.413V149.166C161.934 149.266 161.915 149.365 161.877 149.458C161.84 149.551 161.784 149.635 161.713 149.706C161.642 149.777 161.558 149.833 161.466 149.87C161.373 149.908 161.273 149.927 161.173 149.925Z" fill="#E5B14A"/>
<path d="M161.173 140.173C160.972 140.173 160.779 140.093 160.637 139.95C160.494 139.808 160.414 139.615 160.414 139.413C160.417 138.297 160.861 137.227 161.65 136.437C162.439 135.648 163.509 135.203 164.625 135.2C164.826 135.2 165.019 135.28 165.161 135.423C165.304 135.565 165.384 135.758 165.384 135.96C165.384 136.161 165.304 136.354 165.161 136.497C165.019 136.639 164.826 136.719 164.625 136.719C163.912 136.722 163.228 137.007 162.724 137.511C162.22 138.016 161.935 138.7 161.932 139.413C161.934 139.513 161.915 139.613 161.877 139.706C161.84 139.798 161.784 139.883 161.713 139.953C161.642 140.024 161.558 140.08 161.466 140.118C161.373 140.155 161.273 140.174 161.173 140.173Z" fill="#E5B14A"/>
<path d="M157.682 149.925C157.48 149.925 157.287 149.845 157.145 149.703C157.002 149.561 156.923 149.367 156.923 149.166V139.413C156.925 138.297 157.37 137.227 158.159 136.437C158.948 135.648 160.017 135.203 161.133 135.2H167.944C168.146 135.2 168.339 135.28 168.481 135.423C168.624 135.565 168.704 135.758 168.704 135.96C168.704 136.161 168.624 136.354 168.481 136.497C168.339 136.639 168.146 136.719 167.944 136.719H161.133C160.42 136.722 159.736 137.007 159.232 137.511C158.728 138.016 158.443 138.7 158.441 139.413V149.166C158.442 149.266 158.423 149.365 158.386 149.458C158.348 149.551 158.292 149.635 158.221 149.706C158.151 149.777 158.066 149.833 157.974 149.87C157.881 149.908 157.782 149.927 157.682 149.925Z" fill="black"/>
<path d="M212.771 193.848H157.682C157.481 193.845 157.29 193.764 157.148 193.623C157.006 193.481 156.925 193.289 156.923 193.088V149.166C156.925 148.965 157.006 148.774 157.148 148.632C157.29 148.49 157.481 148.409 157.682 148.406H212.771C213.659 148.409 214.51 148.763 215.137 149.391C215.765 150.019 216.119 150.87 216.121 151.759V190.496C216.119 191.384 215.765 192.235 215.137 192.863C214.51 193.491 213.659 193.845 212.771 193.848ZM158.441 192.329H212.771C213.256 192.326 213.721 192.132 214.064 191.789C214.407 191.446 214.601 190.981 214.603 190.496V151.759C214.601 151.273 214.407 150.809 214.064 150.465C213.721 150.122 213.256 149.928 212.771 149.925H158.441V192.329Z" fill="black"/>
<path d="M120.689 192.947H83.8575V161.359H144.362V192.947" fill="white"/>
<path d="M83.8575 161.359V192.947H125.952H144.362V161.359H83.8575Z" fill="#61E1FF"/>
<path d="M144.362 193.706H125.952C125.75 193.706 125.557 193.626 125.415 193.484C125.272 193.341 125.193 193.148 125.193 192.947C125.193 192.745 125.272 192.552 125.415 192.41C125.557 192.267 125.75 192.187 125.952 192.187H144.362C144.563 192.187 144.757 192.267 144.899 192.41C145.041 192.552 145.121 192.745 145.121 192.947C145.121 193.148 145.041 193.341 144.899 193.484C144.757 193.626 144.563 193.706 144.362 193.706Z" fill="black"/>
<path d="M125.952 193.706H83.8575C83.6562 193.706 83.4631 193.626 83.3207 193.484C83.1784 193.341 83.0984 193.148 83.0984 192.947C83.0984 192.745 83.1784 192.552 83.3207 192.41C83.4631 192.267 83.6562 192.187 83.8575 192.187H125.952C126.153 192.187 126.346 192.267 126.488 192.41C126.631 192.552 126.711 192.745 126.711 192.947C126.711 193.148 126.631 193.341 126.488 193.484C126.346 193.626 126.153 193.706 125.952 193.706Z" fill="black"/>
<path d="M144.362 193.706C144.161 193.706 143.968 193.626 143.825 193.484C143.683 193.341 143.603 193.148 143.603 192.947V161.359C143.603 161.158 143.683 160.965 143.825 160.822C143.968 160.68 144.161 160.6 144.362 160.6C144.563 160.6 144.756 160.68 144.899 160.822C145.041 160.965 145.121 161.158 145.121 161.359V192.947C145.123 193.047 145.104 193.146 145.066 193.239C145.029 193.332 144.973 193.416 144.902 193.487C144.831 193.558 144.747 193.613 144.654 193.651C144.561 193.689 144.462 193.708 144.362 193.706Z" fill="black"/>
<path d="M114.11 188.44H93.0577C92.8564 188.44 92.6633 188.36 92.5209 188.217C92.3786 188.075 92.2986 187.882 92.2986 187.68C92.2986 186.836 91.9641 186.026 91.3684 185.428C90.7727 184.83 89.9643 184.493 89.1205 184.49C89.0204 184.492 88.9212 184.473 88.8284 184.435C88.7357 184.398 88.6515 184.342 88.5807 184.271C88.51 184.2 88.4541 184.116 88.4164 184.023C88.3788 183.93 88.3601 183.831 88.3614 183.731V170.565C88.3601 170.465 88.3788 170.366 88.4164 170.273C88.4541 170.18 88.51 170.096 88.5807 170.025C88.6515 169.954 88.7357 169.898 88.8284 169.861C88.9212 169.823 89.0204 169.804 89.1205 169.806C89.9643 169.803 90.7727 169.466 91.3684 168.868C91.9641 168.27 92.2986 167.46 92.2986 166.615C92.2986 166.414 92.3786 166.221 92.5209 166.078C92.6633 165.936 92.8564 165.856 93.0577 165.856H114.11C114.311 165.856 114.504 165.936 114.647 166.078C114.789 166.221 114.869 166.414 114.869 166.615C114.869 166.817 114.789 167.01 114.647 167.153C114.504 167.295 114.311 167.375 114.11 167.375H93.756C93.5963 168.347 93.1366 169.244 92.4415 169.942C91.7463 170.639 90.8505 171.102 89.8796 171.264V183.022C90.8505 183.184 91.7463 183.646 92.4415 184.344C93.1366 185.041 93.5963 185.939 93.756 186.911H114.11C114.311 186.911 114.504 186.991 114.647 187.133C114.789 187.276 114.869 187.469 114.869 187.67C114.869 187.872 114.789 188.065 114.647 188.207C114.504 188.35 114.311 188.43 114.11 188.43V188.44Z" fill="#0092FF"/>
<path d="M135.152 188.44H114.11C113.908 188.44 113.715 188.36 113.573 188.218C113.431 188.075 113.351 187.882 113.351 187.68C113.351 187.479 113.431 187.286 113.573 187.143C113.715 187.001 113.908 186.921 114.11 186.921H134.453C134.618 185.949 135.081 185.053 135.777 184.356C136.473 183.659 137.369 183.197 138.34 183.032V171.274C137.368 171.112 136.471 170.65 135.774 169.953C135.077 169.256 134.615 168.358 134.453 167.385H114.11C113.908 167.385 113.715 167.305 113.573 167.163C113.431 167.02 113.351 166.827 113.351 166.626C113.351 166.424 113.431 166.231 113.573 166.089C113.715 165.946 113.908 165.866 114.11 165.866H135.152C135.252 165.865 135.351 165.883 135.444 165.921C135.537 165.959 135.621 166.015 135.692 166.085C135.762 166.156 135.818 166.241 135.856 166.333C135.894 166.426 135.912 166.525 135.911 166.626C135.914 167.471 136.25 168.281 136.848 168.878C137.445 169.476 138.254 169.813 139.099 169.816C139.199 169.814 139.298 169.833 139.391 169.871C139.484 169.908 139.568 169.964 139.639 170.035C139.71 170.106 139.765 170.19 139.803 170.283C139.841 170.376 139.86 170.475 139.858 170.575V183.741C139.86 183.841 139.841 183.94 139.803 184.033C139.765 184.126 139.71 184.21 139.639 184.281C139.568 184.352 139.484 184.408 139.391 184.445C139.298 184.483 139.199 184.502 139.099 184.5C138.254 184.503 137.445 184.84 136.848 185.438C136.25 186.035 135.914 186.845 135.911 187.691C135.911 187.79 135.891 187.888 135.853 187.98C135.815 188.071 135.759 188.154 135.688 188.224C135.617 188.294 135.534 188.349 135.442 188.386C135.349 188.423 135.251 188.441 135.152 188.44Z" fill="#0092FF"/>
<path d="M102.268 177.918H97.0049C96.8036 177.918 96.6105 177.838 96.4682 177.695C96.3258 177.553 96.2458 177.359 96.2458 177.158C96.2458 176.957 96.3258 176.763 96.4682 176.621C96.6105 176.479 96.8036 176.398 97.0049 176.398H102.268C102.469 176.398 102.662 176.479 102.805 176.621C102.947 176.763 103.027 176.957 103.027 177.158C103.027 177.359 102.947 177.553 102.805 177.695C102.662 177.838 102.469 177.918 102.268 177.918Z" fill="#2945FF"/>
<path d="M131.215 177.918H125.952C125.75 177.918 125.557 177.838 125.415 177.695C125.272 177.553 125.193 177.359 125.193 177.158C125.193 176.957 125.272 176.763 125.415 176.621C125.557 176.479 125.75 176.398 125.952 176.398H131.215C131.416 176.398 131.609 176.479 131.751 176.621C131.894 176.763 131.974 176.957 131.974 177.158C131.974 177.359 131.894 177.553 131.751 177.695C131.609 177.838 131.416 177.918 131.215 177.918Z" fill="#2945FF"/>
<path d="M114.11 183.184C112.921 183.174 111.762 182.812 110.778 182.144C109.794 181.476 109.03 180.531 108.582 179.429C108.134 178.327 108.022 177.117 108.26 175.952C108.498 174.786 109.076 173.717 109.92 172.88C110.764 172.042 111.837 171.473 113.004 171.245C114.171 171.016 115.379 171.138 116.477 171.596C117.574 172.053 118.512 172.826 119.171 173.816C119.831 174.805 120.182 175.968 120.183 177.158C120.169 178.761 119.523 180.293 118.386 181.422C117.249 182.551 115.712 183.184 114.11 183.184ZM114.11 172.651C113.219 172.651 112.348 172.916 111.608 173.411C110.867 173.906 110.29 174.61 109.949 175.433C109.608 176.257 109.519 177.163 109.692 178.037C109.866 178.911 110.295 179.714 110.925 180.345C111.555 180.975 112.357 181.404 113.231 181.578C114.105 181.752 115.01 181.663 115.833 181.322C116.656 180.981 117.36 180.403 117.855 179.662C118.35 178.921 118.614 178.049 118.614 177.158C118.614 175.963 118.139 174.816 117.295 173.971C116.45 173.126 115.304 172.651 114.11 172.651Z" fill="#2945FF"/>
<path d="M144.362 162.119H83.8575C83.6562 162.119 83.4631 162.039 83.3207 161.896C83.1784 161.754 83.0984 161.561 83.0984 161.359C83.0984 161.158 83.1784 160.965 83.3207 160.822C83.4631 160.68 83.6562 160.6 83.8575 160.6H144.362C144.563 160.6 144.757 160.68 144.899 160.822C145.041 160.965 145.121 161.158 145.121 161.359C145.121 161.561 145.041 161.754 144.899 161.896C144.757 162.039 144.563 162.119 144.362 162.119Z" fill="black"/>
<path d="M144.362 193.706C144.161 193.706 143.968 193.626 143.825 193.484C143.683 193.341 143.603 193.148 143.603 192.947V161.359C143.603 161.158 143.683 160.965 143.825 160.822C143.968 160.68 144.161 160.6 144.362 160.6C144.563 160.6 144.756 160.68 144.899 160.822C145.041 160.965 145.121 161.158 145.121 161.359V192.947C145.123 193.047 145.104 193.146 145.066 193.239C145.029 193.332 144.973 193.416 144.902 193.487C144.831 193.558 144.747 193.613 144.654 193.651C144.561 193.689 144.462 193.708 144.362 193.706Z" fill="black"/>
<path d="M83.8474 161.359H67.8153V193.088H83.8474V161.359Z" fill="#61E1FF"/>
<path d="M83.8575 193.706C83.7574 193.708 83.6581 193.689 83.5654 193.651C83.4727 193.613 83.3885 193.558 83.3177 193.487C83.2469 193.416 83.1911 193.332 83.1534 193.239C83.1158 193.146 83.097 193.047 83.0984 192.947V161.359C83.0984 161.158 83.1784 160.965 83.3207 160.822C83.4631 160.68 83.6562 160.6 83.8575 160.6C84.0588 160.6 84.2519 160.68 84.3943 160.822C84.5366 160.965 84.6166 161.158 84.6166 161.359V192.947C84.6166 193.148 84.5366 193.341 84.3943 193.484C84.2519 193.626 84.0588 193.706 83.8575 193.706Z" fill="#2945FF"/>
<path d="M73.1594 193.706C72.958 193.706 72.7649 193.626 72.6226 193.484C72.4802 193.341 72.4003 193.148 72.4003 192.947V161.359C72.4003 161.158 72.4802 160.965 72.6226 160.822C72.7649 160.68 72.958 160.6 73.1594 160.6C73.3607 160.6 73.5538 160.68 73.6961 160.822C73.8385 160.965 73.9184 161.158 73.9184 161.359V192.947C73.9198 193.047 73.9011 193.146 73.8634 193.239C73.8258 193.332 73.7699 193.416 73.6991 193.487C73.6284 193.558 73.5442 193.613 73.4515 193.651C73.3587 193.689 73.2594 193.708 73.1594 193.706Z" fill="#0092FF"/>
<path d="M78.5135 193.706C78.4134 193.708 78.3141 193.689 78.2214 193.651C78.1287 193.613 78.0445 193.558 77.9737 193.487C77.9029 193.416 77.8471 193.332 77.8094 193.239C77.7718 193.146 77.753 193.047 77.7544 192.947V161.359C77.7544 161.158 77.8344 160.965 77.9767 160.822C78.1191 160.68 78.3122 160.6 78.5135 160.6C78.7148 160.6 78.9079 160.68 79.0502 160.822C79.1926 160.965 79.2726 161.158 79.2726 161.359V192.947C79.2726 193.148 79.1926 193.341 79.0502 193.484C78.9079 193.626 78.7148 193.706 78.5135 193.706Z" fill="#0092FF"/>
<path d="M67.8154 193.706C67.614 193.706 67.421 193.626 67.2786 193.484C67.1362 193.341 67.0563 193.148 67.0563 192.947V161.359C67.0563 161.158 67.1362 160.965 67.2786 160.822C67.421 160.68 67.614 160.6 67.8154 160.6C68.0167 160.6 68.2098 160.68 68.3521 160.822C68.4945 160.965 68.5744 161.158 68.5744 161.359V192.947C68.5758 193.047 68.5571 193.146 68.5194 193.239C68.4818 193.332 68.4259 193.416 68.3551 193.487C68.2844 193.558 68.2002 193.613 68.1075 193.651C68.0147 193.689 67.9154 193.708 67.8154 193.706Z" fill="#2945FF"/>
<path d="M90.3553 193.706H67.8154C67.614 193.706 67.421 193.626 67.2786 193.484C67.1362 193.341 67.0563 193.148 67.0563 192.947V161.359C67.0589 161.159 67.1397 160.967 67.2815 160.825C67.4233 160.683 67.6148 160.602 67.8154 160.6H92.6123C92.8136 160.6 93.0067 160.68 93.1491 160.822C93.2914 160.965 93.3714 161.158 93.3714 161.359C93.3714 161.561 93.2914 161.754 93.1491 161.896C93.0067 162.039 92.8136 162.119 92.6123 162.119H68.5744V192.187H90.3553C90.5566 192.187 90.7497 192.267 90.892 192.41C91.0344 192.552 91.1144 192.745 91.1144 192.947C91.1144 193.148 91.0344 193.341 90.892 193.484C90.7497 193.626 90.5566 193.706 90.3553 193.706Z" fill="black"/>
</g>
</g>
<defs>
<clipPath id="clip0">
<rect width="250" height="231.23" fill="white"/>
</clipPath>
<clipPath id="clip1">
<rect width="167" height="159" fill="white" transform="translate(49 35)"/>
</clipPath>
</defs>
</svg>
