<svg width="28" height="28" viewBox="0 0 28 28" fill="none" xmlns="http://www.w3.org/2000/svg">
<path d="M8.16659 16.3334H11.6666C11.976 16.3334 12.2728 16.2104 12.4915 15.9916C12.7103 15.7729 12.8333 15.4761 12.8333 15.1667C12.8333 14.8573 12.7103 14.5605 12.4915 14.3417C12.2728 14.1229 11.976 14 11.6666 14H8.16659C7.85717 14 7.56042 14.1229 7.34163 14.3417C7.12284 14.5605 6.99992 14.8573 6.99992 15.1667C6.99992 15.4761 7.12284 15.7729 7.34163 15.9916C7.56042 16.2104 7.85717 16.3334 8.16659 16.3334ZM22.1666 4.66669H5.83325C4.90499 4.66669 4.01476 5.03544 3.35838 5.69181C2.702 6.34819 2.33325 7.23843 2.33325 8.16669V18.6667C2.33325 19.5949 2.702 20.4852 3.35838 21.1416C4.01476 21.7979 4.90499 22.1667 5.83325 22.1667H22.1666C23.0948 22.1667 23.9851 21.7979 24.6415 21.1416C25.2978 20.4852 25.6666 19.5949 25.6666 18.6667V8.16669C25.6666 7.23843 25.2978 6.34819 24.6415 5.69181C23.9851 5.03544 23.0948 4.66669 22.1666 4.66669ZM23.3333 18.6667C23.3333 18.9761 23.2103 19.2729 22.9915 19.4916C22.7728 19.7104 22.476 19.8334 22.1666 19.8334H5.83325C5.52383 19.8334 5.22709 19.7104 5.00829 19.4916C4.7895 19.2729 4.66659 18.9761 4.66659 18.6667V11.6667H23.3333V18.6667ZM23.3333 9.33335H4.66659V8.16669C4.66659 7.85727 4.7895 7.56052 5.00829 7.34173C5.22709 7.12294 5.52383 7.00002 5.83325 7.00002H22.1666C22.476 7.00002 22.7728 7.12294 22.9915 7.34173C23.2103 7.56052 23.3333 7.85727 23.3333 8.16669V9.33335Z" fill="#2945FF"/>
</svg>
