<svg width="246" height="250" viewBox="0 0 246 250" fill="none" xmlns="http://www.w3.org/2000/svg">
<g clip-path="url(#clip0)">
<path d="M245.8 108.4C245.3 95.3 240.7 82.5 231.8 72.8C229.6 61.7 225.8 50.9 220.5 40.9C204.5 10.4 169.3 -3.00002 136.4 0.399977C109.2 3.19998 83.5 9.99998 59.8 24.2C33.8 40 13.7 62 4.80001 91.5C-2.69999 116.3 -0.299994 142.3 4.30001 167.3C5.80001 175.2 8.60001 182.9 12.6 189.8C18.9 200.6 28 207.9 38.1 214.8C49.2 222.4 61.8 227.4 74.2 232.4C92 239.4 110.4 244.6 129.3 247.7C143.5 250.2 155.1 251 169.3 247.8C173.5 246.8 177.2 245.1 181.2 243.4C185.2 241.7 189.1 240.3 192.7 237.9C207.4 228.4 220.4 215.1 227.7 199C240.7 170.7 246.9 139.6 245.8 108.4Z" fill="#FFF5F3"/>
<path d="M195.4 154.5L176.4 164.9L166.1 170.6L148.2 180.5C148.1 180.5 148.1 180.5 148 180.6L118.4 196.9L107 203.2L86.1 214.7L88 215.4L101.4 208L107 204.9L148.7 182C148.8 182 148.8 182 148.9 182L166.3 172.4L178.5 165.7L179.7 165L196.1 156C196.2 156 196.2 156 196.3 156L207.3 150C207.3 149.4 207.3 148.9 207.4 148.3L195.4 154.5Z" fill="#FCBAB1"/>
<path d="M201.4 157.8L188.4 165L166.2 177.2L154.2 183.8C154.1 183.8 154.1 183.8 154 183.9L124.4 200.2L107 209.8L106.8 209.9C106.7 209.9 106.7 209.9 106.6 210L93.8 217H93.9C94.6 217.2 95.4 217.3 96.1 217.5H96.2L107.1 211.5L107.5 211.3L154.7 185.3C154.8 185.3 154.8 185.3 154.9 185.3L166.4 179L184.5 169L191.6 165.1L206.7 156.8C206.8 156.2 206.9 155.6 206.9 155L201.4 157.8Z" fill="#FCBAB1"/>
<path d="M195.4 174L166.2 190.1L165.8 190.3L118.6 216.3C118.5 216.3 118.5 216.3 118.4 216.4L112.8 219.5C113.7 219.6 114.7 219.6 115.6 219.7L118.9 217.9C119 217.9 119 217.9 119.1 217.9L148.7 201.6L166.1 192L166.3 191.9C166.4 191.9 166.4 191.9 166.5 191.9L196.1 175.6L202.4 172C202.7 171.3 203 170.5 203.2 169.8L195.6 174C195.6 174 195.5 174 195.4 174Z" fill="#FCBAB1"/>
<path d="M171.8 193.6L166.2 196.7L124.6 219.6C124.5 219.6 124.5 219.6 124.4 219.7L124.3 219.8H124.4H125.2C126 219.8 126.9 219.8 127.7 219.7L154.7 204.8L166.2 198.5L198 181C198.5 180.2 198.9 179.4 199.4 178.5L171.8 193.6Z" fill="#FCBAB1"/>
<path d="M177.7 196.8L166.2 203.1L138.6 218.3C140.2 218 141.8 217.7 143.4 217.3L160.6 207.9L166.2 204.8L189.9 191.7C190.9 190.7 191.8 189.6 192.7 188.5L177.7 196.8Z" fill="#FCBAB1"/>
<path d="M166.2 183.7L160.1 187.1C160 187.1 160 187.1 159.9 187.2L112.7 213.2C112.6 213.2 112.6 213.2 112.5 213.3L106.9 216.4L102.8 218.7L105.3 219L106.9 218.1L113 214.7C113.1 214.7 113.1 214.7 113.2 214.7L160.4 188.7C160.5 188.7 160.5 188.7 160.6 188.7L166.2 185.6L190.2 172.4L203.2 165.2L205 164.2C205 164.1 205.1 164 205.1 163.9C205.3 163.4 205.4 162.8 205.5 162.2L200.2 165.1L166.2 183.7Z" fill="#FCBAB1"/>
<path d="M53.9 71.3C54 71.3 54 71.3 54.1 71.3L100.4 45.8C99.3 45.8 98.1 45.9 97 46L53.6 69.8C53.5 69.8 53.5 69.8 53.4 69.9L47.8 73L38 78.4C37.7 78.9 37.3 79.5 37 80C36.8 80.3 36.7 80.6 36.5 80.9L47.8 74.7L53.9 71.3Z" fill="#FCBAB1"/>
<path d="M59.9 74.6C60 74.6 60 74.6 60.1 74.6L89.7 58.3L107.1 48.7L107.3 48.6C107.4 48.6 107.4 48.6 107.5 48.6L111.9 46.2H111.8C110.9 46.1 110 46.1 109.1 46H109L107.1 47L106.7 47.2L59.5 73.2C59.4 73.2 59.4 73.2 59.3 73.3L47.8 79.6L33.4 87.5C33.1 88.2 32.8 89 32.5 89.7L47.9 81.2L59.9 74.6Z" fill="#FCBAB1"/>
<path d="M48.2 68L85.5 47.5C83.7 47.8 82 48.2 80.2 48.7L65.2 56.9L47.8 66.5L47.6 66.6C47.5 66.6 47.5 66.6 47.4 66.7L47.2 66.8L47.1 66.9C46 68 44.9 69.2 43.9 70.3L43.8 70.4L47.7 68.2L48.2 68Z" fill="#FCBAB1"/>
<path d="M53.9 142.9C54 142.9 54 142.9 54.1 142.9L101.3 116.9C101.4 116.9 101.4 116.9 101.5 116.9L107.1 113.8L131.1 100.6L144.1 93.4L166.2 81.2L175.1 76.3L173.9 75.2L166.2 79.5L148.1 89.5L141 93.4L107 112.1L100.9 115.4C100.8 115.4 100.8 115.4 100.7 115.5L53.5 141.5C53.4 141.5 53.4 141.5 53.3 141.6L47.7 144.7L33.7 152.4C33.8 152.9 33.8 153.5 33.9 154L47.7 146.4L53.9 142.9Z" fill="#FCBAB1"/>
<path d="M59.9 146.2C60 146.2 60 146.2 60.1 146.2L89.7 129.9L107.1 120.3L107.3 120.2C107.4 120.2 107.4 120.2 107.5 120.2L137.1 103.9L156.1 93.5L166.4 87.8L179.5 80.6C179.1 80.2 178.8 79.8 178.4 79.5L166.4 86.1L154.2 92.8L153 93.5L136.6 102.5C136.5 102.5 136.5 102.5 136.4 102.6L107.2 118.7L106.8 118.9L59.7 144.9C59.6 144.9 59.6 144.9 59.5 145L48 151.3L34.9 158.5C35 159 35.1 159.5 35.2 160.1L48 153.1L59.9 146.2Z" fill="#FCBAB1"/>
<path d="M65.8 149.4C65.9 149.4 65.9 149.4 66 149.4L95.6 133.1L107.1 126.8L142.8 107.1C142.9 107.1 142.9 107.1 143 107.1L166.3 94.3L167.9 93.4L183.4 84.9L182.4 83.8L166.3 92.6L164.7 93.5L142.4 105.7C142.3 105.7 142.3 105.7 142.2 105.8L112.6 122L107 125L65.4 148C65.3 148 65.3 148 65.2 148.1L47.8 157.7L36 164.1V164.2C36.1 164.4 36.1 164.7 36.2 164.9L36.4 165.5L37.5 164.9L47.8 159.2L65.8 149.4Z" fill="#FCBAB1"/>
<path d="M48.2 139.6L95.4 113.6C95.5 113.6 95.5 113.6 95.6 113.6L107.1 107.3L125.2 97.3L132.3 93.4L166.3 74.7L170.7 72.3L169.5 71.3L166.3 73L142.3 86.2L129.3 93.4L107 105.5L95 112.1C94.9 112.1 94.9 112.1 94.8 112.2L65.2 128.5L47.8 138.1L47.6 138.2C47.5 138.2 47.5 138.2 47.4 138.3L33 146.3C33.1 146.6 33.2 146.9 33.3 147.2L33.4 147.8L47.8 139.8L48.2 139.6Z" fill="#FCBAB1"/>
<path d="M49.4 93.4L71.7 81.1C71.8 81.1 71.8 81.1 71.9 81.1L101.4 64.8L107 61.7L129.6 49.3C128.9 49.1 128.2 48.9 127.5 48.7L118.5 53.6L107 60L71.3 79.6C71.2 79.6 71.2 79.6 71.1 79.7L47.8 92.5L46.2 93.4L28.6 103.1C28.5 103.7 28.4 104.3 28.3 105L47.8 94.3L49.4 93.4Z" fill="#FCBAB1"/>
<path d="M89.6 201.4L107 191.8L107.2 191.7C107.3 191.7 107.3 191.7 107.4 191.7L137 175.4L156 165L166.3 159.3L184.3 149.4C184.4 149.4 184.4 149.4 184.5 149.4L206.8 137.1C206.7 136.6 206.7 136 206.6 135.5L183.8 148C183.7 148 183.7 148 183.6 148.1L166.2 157.7L154 164.4L152.8 165.1L136.4 174.1C136.3 174.1 136.3 174.1 136.2 174.2L107 190.1L106.6 190.3L72.8 209C73.3 209.3 73.9 209.5 74.4 209.8L89.6 201.4Z" fill="#FCBAB1"/>
<path d="M95.5 204.7L107 198.4L142.7 178.7C142.8 178.7 142.8 178.7 142.9 178.7L166.2 165.9L167.8 165L190.1 152.7C190.2 152.7 190.2 152.7 190.3 152.7L207.2 143.4L207.1 141.7L189.8 151.2C189.7 151.2 189.7 151.2 189.6 151.3L166.3 164.1L164.7 165L142.5 177.3C142.4 177.3 142.4 177.3 142.3 177.4L112.7 193.7L107.1 196.8L79.2 212C79.8 212.3 80.4 212.5 81 212.8L95.5 204.7Z" fill="#FCBAB1"/>
<path d="M71.9 172.1L84.9 164.9L107 152.7L119 146.1C119.1 146.1 119.1 146.1 119.2 146.1L148.8 129.8L166.2 120.2L166.4 120.1C166.5 120.1 166.5 120.1 166.6 120.1L196.1 103.9C195.9 103.5 195.7 103 195.4 102.6L166.3 118.5L165.9 118.7L118.7 144.7C118.6 144.7 118.6 144.7 118.5 144.8L107 151.1L88.9 161.1L81.8 164.9L47.8 183.6L46 184.6L46.9 185.8L47.8 185.3L71.9 172.1Z" fill="#FCBAB1"/>
<path d="M77.8 175.4L96.8 165L107.1 159.3L125.1 149.4C125.2 149.4 125.2 149.4 125.3 149.4L154.9 133.1L166.4 126.8L198.7 109L198.1 107.6L171.8 122L166.2 125.1L124.6 148C124.5 148 124.5 148 124.4 148.1L107 157.7L94.8 164.4L93.6 165.1L77.2 174.1C77.1 174.1 77.1 174.1 77 174.2L49.4 189.4L50.3 190.6L77.8 175.4Z" fill="#FCBAB1"/>
<path d="M83.7 178.7L107 165.9L108.6 165L130.9 152.7C131 152.7 131 152.7 131.1 152.7L160.7 136.4L166.3 133.3L200.8 114.3C200.6 113.8 200.4 113.4 200.3 112.9L177.8 125.3L166.3 131.5L130.6 151.1C130.5 151.1 130.5 151.1 130.4 151.2L107 164.1L105.4 165L83.1 177.3C83 177.3 83 177.3 82.9 177.4L53.4 193.7L53.1 193.8C53.4 194.2 53.8 194.6 54.1 194.9L83.5 178.7C83.6 178.7 83.7 178.7 83.7 178.7Z" fill="#FCBAB1"/>
<path d="M89.6 182L107 172.4L119.2 165.7L120.4 165L136.8 156C136.9 156 136.9 156 137 156L166.2 139.9L166.6 139.7L202.8 119.8C202.6 119.3 202.5 118.8 202.3 118.3L183.7 128.5L166.3 138.1L166.1 138.2C166 138.2 166 138.2 165.9 138.3L136.3 154.6L117.3 165L107 170.7L89.1 180.6C89 180.6 89 180.6 88.9 180.7L59.3 197L57.2 198.2C57.6 198.6 58 198.9 58.4 199.3L89.4 182C89.5 182 89.6 182 89.6 182Z" fill="#FCBAB1"/>
<path d="M95.5 185.2L107 178.9L125.1 168.9L132.2 165L166.2 146.3L172.3 142.9C172.4 142.9 172.4 142.9 172.5 142.9L204.4 125.4L204 123.9L172 141.5C171.9 141.5 171.9 141.5 171.8 141.6L166.2 144.7L142.2 157.9L129.2 165.1L107 177.1L95 183.7C94.9 183.7 94.9 183.7 94.8 183.8L65.2 200.1L61.8 202C62.2 202.3 62.7 202.7 63.1 203L95.4 185.2C95.5 185.2 95.5 185.2 95.5 185.2Z" fill="#FCBAB1"/>
<path d="M101.4 188.4L107 185.3L131 172.1L144 164.9L166.1 152.7L178.1 146.1C178.2 146.1 178.2 146.1 178.3 146.1L205.6 131.1C205.5 130.6 205.4 130.1 205.3 129.6L177.8 144.7C177.7 144.7 177.7 144.7 177.6 144.8L166.1 151.1L148 161.1L141 165L107 183.7L100.9 187.1C100.8 187.1 100.8 187.1 100.7 187.2L67 205.7C67.5 206 68 206.3 68.5 206.6L101.3 188.5C101.3 188.5 101.4 188.5 101.4 188.4Z" fill="#FCBAB1"/>
<path d="M49.4 165L71.7 152.7C71.8 152.7 71.8 152.7 71.9 152.7L101.4 136.4L107 133.3L148.6 110.4C148.7 110.4 148.7 110.4 148.8 110.4L166.2 100.8L178.4 94.1L179.6 93.4L186.9 89.4C186.6 89 186.3 88.6 186 88.2L176.5 93.4L166.2 99.1L148.3 109C148.2 109 148.2 109 148.1 109.1L118.5 125.4L107.1 131.6L71.4 151.2C71.3 151.2 71.3 151.2 71.2 151.3L47.9 164.1L46.3 165L37.8 169.7C38 170.2 38.2 170.6 38.4 171.1L47.9 165.9L49.4 165Z" fill="#FCBAB1"/>
<path d="M60 165.6L61.2 164.9L77.6 155.9C77.7 155.9 77.7 155.9 77.8 155.9L107 139.8L107.4 139.6L154.6 113.6C154.7 113.6 154.7 113.6 154.8 113.6L166.3 107.3L184.4 97.3L190.4 94C190.3 93.8 190.1 93.6 190 93.4L189.6 92.8L188.5 93.4L166.3 105.5L154.3 112.1C154.2 112.1 154.2 112.1 154.1 112.2L124.5 128.5L107.1 138.1L106.9 138.2C106.8 138.2 106.8 138.2 106.7 138.3L77.1 154.6L58.1 165L47.8 170.7L40.1 174.9C40.3 175.4 40.6 175.8 40.8 176.2L47.8 172.3L60 165.6Z" fill="#FCBAB1"/>
<path d="M65.9 168.9L73 165L107 146.3L113.1 142.9C113.2 142.9 113.2 142.9 113.3 142.9L160.5 116.9C160.6 116.9 160.6 116.9 160.7 116.9L166.3 113.8L190.3 100.6L193.4 98.9C193.2 98.5 192.9 98 192.6 97.6L166.3 112.1L160.2 115.4C160.1 115.4 160.1 115.4 160 115.5L112.8 141.5C112.7 141.5 112.7 141.5 112.6 141.6L107 144.7L83 157.9L70 165L47.8 177.1L42.9 179.8C43.2 180.2 43.4 180.7 43.7 181.1L47.8 178.8L65.9 168.9Z" fill="#FCBAB1"/>
<path d="M47.8 87.7L65.8 77.8C65.9 77.8 65.9 77.8 66 77.8L95.6 61.5L107.1 55.2L121.3 47.4C120.5 47.3 119.7 47.1 118.9 47L112.6 50.5L107 53.5L65.4 76.3C65.3 76.3 65.3 76.3 65.2 76.4L47.8 86L35.6 92.7L34.4 93.4L30.4 95.6C30.2 96.3 30 97 29.8 97.6L37.5 93.4L47.8 87.7Z" fill="#FCBAB1"/>
<path d="M30.4 129.8L47.8 120.2L48 120.1C48.1 120.1 48.1 120.1 48.2 120.1L77.8 103.8L96.8 93.4L107.1 87.7L125.1 77.8C125.2 77.8 125.2 77.8 125.3 77.8L154.9 61.5L155.9 60.9L154.5 60L124.7 76.2C124.6 76.2 124.6 76.2 124.5 76.3L107 86L94.8 92.7L93.6 93.4L77.2 102.4C77.1 102.4 77.1 102.4 77 102.5L47.8 118.6L47.4 118.8L28.8 129C28.9 129.5 29 130 29.1 130.6L30.4 129.8Z" fill="#FCBAB1"/>
<path d="M36.3 133.1L47.8 126.8L83.5 107.1C83.6 107.1 83.6 107.1 83.7 107.1L107 94.2L108.6 93.3L130.9 81C131 81 131 81 131.1 81L160.7 64.7L161 64.5L160 63.7L159.8 63.6H159.7L130.6 79.6C130.5 79.6 130.5 79.6 130.4 79.7L107 92.5L105.4 93.4L83.1 105.7C83 105.7 83 105.7 82.9 105.8L53.4 122L47.8 125.1L30 134.9C30.1 135.4 30.2 135.9 30.3 136.4L36.3 133.1Z" fill="#FCBAB1"/>
<path d="M42.3 136.3L47.9 133.2L89.5 110.3C89.6 110.3 89.6 110.3 89.7 110.3L107.1 100.7L119.3 94L120.5 93.3L136.9 84.3C137 84.3 137 84.3 137.1 84.3L166 68.4C165.6 68.1 165.2 67.7 164.8 67.4L136.3 83L117.3 93.4L107 99.1L89.1 109C89 109 89 109 88.9 109.1L59.3 125.4L47.9 131.7L31.4 140.8C31.5 141.3 31.7 141.8 31.8 142.3L42.3 136.3Z" fill="#FCBAB1"/>
<path d="M30.4 110.3L47.8 100.7L60 94L61.2 93.3L77.6 84.3C77.7 84.3 77.7 84.3 77.8 84.3L107 68.3L107.4 68L137.1 51.6C136.5 51.4 135.8 51.2 135.2 50.9L124.4 56.9L107 66.5L106.8 66.6C106.7 66.6 106.7 66.6 106.6 66.7L77.1 83L58.1 93.4L47.8 99.1L29.9 109C29.8 109 29.8 109 29.7 109.1L27.7 110.2C27.7 110.8 27.6 111.4 27.6 112L30.3 110.5C30.3 110.4 30.4 110.3 30.4 110.3Z" fill="#FCBAB1"/>
<path d="M36.3 113.6L47.8 107.3L65.9 97.3L73 93.4L107 74.7L113.1 71.3C113.2 71.3 113.2 71.3 113.3 71.3L143.9 54.5L142.2 53.7L112.8 69.9C112.7 69.9 112.7 69.9 112.6 70L107 73L83 86.2L70 93.4L47.8 105.6L35.8 112.2C35.7 112.2 35.7 112.2 35.6 112.3L27.5 116.8C27.5 117.3 27.5 117.9 27.6 118.5L36.1 113.8C36.2 113.6 36.3 113.6 36.3 113.6Z" fill="#FCBAB1"/>
<path d="M42.3 116.8L47.9 113.7L71.9 100.5L84.9 93.3L107 81.1L119 74.5C119.1 74.5 119.1 74.5 119.2 74.5L148.8 58.2L150 57.5C149.5 57.2 149 56.9 148.4 56.7L118.6 73.1C118.5 73.1 118.5 73.1 118.4 73.2L106.9 79.5L88.8 89.5L81.7 93.4L47.7 112.1L41.6 115.4C41.5 115.4 41.5 115.4 41.4 115.5L28 123C28 123.5 28.1 124.1 28.2 124.6L42.1 116.9C42.2 116.9 42.2 116.9 42.3 116.8Z" fill="#FCBAB1"/>
<g clip-path="url(#clip1)">
<path d="M186.8 141.4L219 122.9V106.5L198.3 94.7V104.2L167.9 121.7L134.7 101.5L127.7 105.6L176.2 134L171.1 137.2L176.8 140.5L171.1 143.8L176.8 147.2L186.8 141.4Z" fill="white"/>
<path d="M176.8 140.5L171.1 143.8L112.3 177.6L25.1001 127.5L19.4001 124.2L33.6001 116V125.7L112.3 171L171.1 137.2L176.8 140.5Z" fill="url(#paint0_linear)"/>
<path d="M176.8 147.2L112.3 184.3L19.4001 130.8L25.1001 127.5L112.3 177.6L171.1 143.8L176.8 147.2Z" fill="url(#paint1_linear)"/>
<path d="M83.7001 80.8L33.6001 109.6V125.9L112 171L170.5 137.4L176.2 134.1L83.7001 80.8Z" fill="white"/>
<path d="M140.3 174.8L233.2 121.3L227.5 118L219 113.2V122.9L165.1 153.9L143 166.6L134.5 171.5L140.3 174.8Z" fill="url(#paint2_linear)"/>
<path d="M112.3 132.6C112 132.6 111.8 132.5 111.6 132.2C111.4 131.8 111.5 131.4 111.9 131.2L131.5 119.9C131.9 119.7 132.3 119.8 132.5 120.2C132.7 120.6 132.6 121 132.2 121.2L112.6 132.5C112.5 132.6 112.4 132.6 112.3 132.6Z" fill="black"/>
<path d="M118.2 135.5C117.9 135.5 117.7 135.4 117.5 135.1C117.3 134.7 117.4 134.3 117.8 134.1L137.4 122.8C137.8 122.6 138.2 122.7 138.4 123.1C138.6 123.5 138.5 123.9 138.1 124.1L118.5 135.4C118.5 135.4 118.3 135.5 118.2 135.5Z" fill="black"/>
<path d="M124.2 138.3C123.9 138.3 123.7 138.2 123.5 137.9C123.3 137.5 123.4 137.1 123.8 136.9L143.5 125.5C143.9 125.3 144.3 125.4 144.5 125.8C144.7 126.2 144.6 126.6 144.2 126.8L124.5 138.2C124.4 138.3 124.3 138.3 124.2 138.3Z" fill="black"/>
<path d="M130.1 141.2C129.8 141.2 129.6 141.1 129.4 140.8C129.2 140.4 129.3 140 129.7 139.8L149.4 128.5C149.8 128.3 150.2 128.4 150.4 128.8C150.6 129.2 150.5 129.6 150.1 129.8L130.4 141.1C130.4 141.1 130.2 141.2 130.1 141.2Z" fill="black"/>
<path d="M136.1 144C135.8 144 135.6 143.9 135.4 143.6C135.2 143.2 135.3 142.8 135.7 142.6L155.4 131.3C155.8 131.1 156.2 131.2 156.4 131.6C156.6 132 156.5 132.4 156.1 132.6L136.4 143.9C136.3 144 136.2 144 136.1 144Z" fill="black"/>
<path d="M86.2001 147.6C85.9001 147.6 85.7001 147.5 85.5001 147.2C85.3001 146.8 85.4001 146.4 85.8001 146.2L105.2 135C105.6 134.8 106 134.9 106.2 135.3C106.4 135.7 106.3 136.1 105.9 136.3L86.5001 147.5C86.5001 147.5 86.3001 147.6 86.2001 147.6Z" fill="black"/>
<path d="M92.1001 150.5C91.8001 150.5 91.6001 150.4 91.4001 150.1C91.2001 149.7 91.3001 149.3 91.7001 149.1L111.1 137.9C111.5 137.7 111.9 137.8 112.1 138.2C112.3 138.6 112.2 139 111.8 139.2L92.4001 150.4C92.4001 150.4 92.3001 150.5 92.1001 150.5Z" fill="black"/>
<path d="M98.1001 153.3C97.8001 153.3 97.6001 153.2 97.4001 152.9C97.2001 152.5 97.3001 152.1 97.7001 151.9L117.1 140.7C117.5 140.5 117.9 140.6 118.1 141C118.3 141.4 118.2 141.8 117.8 142L98.4001 153.2C98.3001 153.3 98.2001 153.3 98.1001 153.3Z" fill="black"/>
<path d="M104 156.2C103.7 156.2 103.5 156.1 103.3 155.8C103.1 155.4 103.2 155 103.6 154.8L123 143.6C123.4 143.4 123.8 143.5 124 143.9C124.2 144.3 124.1 144.7 123.7 144.9L104.3 156.1C104.3 156.2 104.1 156.2 104 156.2Z" fill="black"/>
<path d="M110 159.1C109.7 159.1 109.5 159 109.3 158.7C109.1 158.3 109.2 157.9 109.6 157.7L129 146.5C129.4 146.3 129.8 146.4 130 146.8C130.2 147.2 130.1 147.6 129.7 147.8L110.3 159C110.2 159 110.1 159.1 110 159.1Z" fill="black"/>
<path d="M33.6001 126.4C33.3001 126.4 33.1001 126.3 32.9001 126C32.7001 125.6 32.8001 125.2 33.2001 125L47.4001 116.8C47.8001 116.6 48.2001 116.7 48.4001 117.1C48.6001 117.5 48.5001 117.9 48.1001 118.1L34.0001 126.3C33.8001 126.4 33.7001 126.4 33.6001 126.4Z" fill="#578793"/>
<path d="M47.8001 118.3C47.7001 118.3 47.5001 118.3 47.4001 118.2L33.2001 110C32.8001 109.8 32.7001 109.3 32.9001 109C33.1001 108.6 33.6001 108.5 33.9001 108.7L48.1001 116.9C48.5001 117.1 48.6001 117.6 48.4001 117.9C48.3001 118.1 48.0001 118.3 47.8001 118.3Z" fill="#578793"/>
<path d="M204.8 115.4C204.5 115.4 204.3 115.3 204.1 115C203.9 114.6 204 114.2 204.4 114L218.6 105.8C219 105.6 219.4 105.7 219.6 106.1C219.8 106.5 219.7 106.9 219.3 107.1L205.1 115.3C205 115.4 204.9 115.4 204.8 115.4Z" fill="#578793"/>
<path d="M219 123.6C218.9 123.6 218.7 123.6 218.6 123.5L204.4 115.3C204 115.1 203.9 114.6 204.1 114.3C204.3 113.9 204.8 113.8 205.1 114L219.3 122.2C219.7 122.4 219.8 122.9 219.6 123.2C219.5 123.5 219.3 123.6 219 123.6Z" fill="#578793"/>
<path d="M112.3 178.4C112.2 178.4 112 178.4 111.9 178.3L24.7001 128.1C24.3001 127.9 24.2001 127.4 24.4001 127.1C24.6001 126.7 25.1001 126.6 25.4001 126.8L112.2 176.8L170.6 143.2C171 143 171.4 143.1 171.6 143.5C171.8 143.9 171.7 144.3 171.3 144.5L112.6 178.3C112.6 178.4 112.4 178.4 112.3 178.4Z" fill="#578793"/>
<path d="M134.5 172.3C134.2 172.3 134 172.2 133.8 171.9C133.6 171.5 133.7 171.1 134.1 170.9L176.4 146.6C176.8 146.4 177.2 146.5 177.4 146.9C177.6 147.3 177.5 147.7 177.1 147.9L134.8 172.2C134.8 172.2 134.6 172.3 134.5 172.3Z" fill="#578793"/>
<path d="M176.8 147.9C176.5 147.9 176.3 147.8 176.1 147.5C175.9 147.1 176 146.7 176.4 146.5L218.2 122.4V106.9L172.5 80.6L128 106.2C127.6 106.4 127.2 106.3 127 105.9C126.8 105.5 126.9 105.1 127.3 104.9L172.2 79.1C172.4 79 172.7 79 172.9 79.1L219.4 105.8C219.6 105.9 219.8 106.2 219.8 106.4V122.8C219.8 123.1 219.7 123.3 219.4 123.4L177.2 147.7C177.1 147.9 176.9 147.9 176.8 147.9Z" fill="black"/>
<path d="M112.3 185C112.2 185 112 185 111.9 184.9L18.9001 131.4C18.7001 131.3 18.5001 131 18.5001 130.7C18.5001 130.4 18.6001 130.2 18.9001 130L23.5001 127.3L18.9001 124.6C18.7001 124.5 18.5001 124.2 18.5001 124C18.5001 123.8 18.6001 123.5 18.9001 123.4L33.1001 115.2C33.5001 115 33.9001 115.1 34.1001 115.5C34.3001 115.9 34.2001 116.3 33.8001 116.5L20.7001 124L25.3001 126.7C25.5001 126.8 25.7001 127.1 25.7001 127.4C25.7001 127.7 25.6001 127.9 25.3001 128.1L20.7001 130.8L112.1 183.4L133.9 170.8C134.1 170.7 134.4 170.7 134.6 170.8L140 173.9L231.4 121.3L218.3 113.8C217.9 113.6 217.8 113.1 218 112.8C218.2 112.4 218.7 112.3 219 112.5L233.2 120.7C233.4 120.8 233.6 121.1 233.6 121.4C233.6 121.7 233.5 121.9 233.2 122L140.2 175.5C140 175.6 139.7 175.6 139.5 175.5L134.1 172.4L112.3 185C112.6 185 112.4 185 112.3 185Z" fill="black"/>
<path d="M176.8 147.9C176.7 147.9 176.5 147.9 176.4 147.8L170.6 144.5C170.4 144.4 170.2 144.1 170.2 143.9C170.2 143.6 170.3 143.4 170.6 143.3L175.2 140.6L170.6 137.9C170.2 137.7 170.1 137.2 170.3 136.9C170.5 136.5 171 136.4 171.3 136.6L177.1 139.9C177.3 140 177.5 140.3 177.5 140.5C177.5 140.7 177.4 141 177.1 141.1L172.5 143.8L177.1 146.5C177.5 146.7 177.6 147.2 177.4 147.5C177.3 147.8 177.1 147.9 176.8 147.9Z" fill="black"/>
<path d="M176.8 134.6C176.7 134.6 176.5 134.6 176.4 134.5L83.9001 81.2L34.0001 110C33.6001 110.2 33.2001 110.1 33.0001 109.7C32.8001 109.3 32.9001 108.9 33.3001 108.7L83.6001 79.7C83.8001 79.6 84.1001 79.6 84.3001 79.7L177.2 133.2C177.6 133.4 177.7 133.9 177.5 134.2C177.3 134.5 177.1 134.6 176.8 134.6Z" fill="black"/>
<path d="M112.3 171.8C112.2 171.8 112 171.8 111.9 171.7L33.2001 126.4C32.8001 126.2 32.7001 125.7 32.9001 125.4C33.1001 125 33.6001 124.9 33.9001 125.1L112.3 170.2L176.4 133.3C176.8 133.1 177.2 133.2 177.4 133.6C177.6 134 177.5 134.4 177.1 134.6L112.6 171.7C112.6 171.7 112.4 171.8 112.3 171.8Z" fill="black"/>
<path d="M33.6001 126.4C33.2001 126.4 32.8001 126.1 32.8001 125.6V109.2C32.8001 108.8 33.1001 108.4 33.6001 108.4C34.1001 108.4 34.4001 108.7 34.4001 109.2V125.6C34.3001 126.1 34.0001 126.4 33.6001 126.4Z" fill="black"/>
<path d="M88.1001 132L72.6001 140.9L69.8001 139.3C64.9001 136.5 61.6001 131.5 61.1001 125.9H81.2001C81.8001 127.6 83.0001 129.1 84.6001 130L88.1001 132Z" fill="#FF7A64"/>
<path d="M80.9001 123.5C80.9001 124.3 81.0001 125.1 81.3001 125.8H61.1001C61.0001 125.2 61.0001 124.7 61.0001 124.1C61.0001 117.9 64.3001 112.1 69.8001 109L84.6001 117.1C82.3001 118.4 80.9001 120.8 80.9001 123.5Z" fill="#FF9C8F"/>
<path d="M100.4 102.4V114.8C99.3001 114.5 98.2001 114.4 97.0001 114.3H93.7001C90.5001 114.5 87.3001 115.5 84.5001 117.1L69.8001 109C79.1001 103.6 89.8001 101.3 100.4 102.4Z" fill="#FFDA3E"/>
<path d="M124.4 111L110 119.3L106.1 117.1C104.3 116.1 102.4 115.3 100.4 114.8V102.4C107.5 103.1 114.4 105.4 120.6 109L124.4 111Z" fill="#FFF46C"/>
<path d="M110 120.1C109.7 120.1 109.5 120 109.3 119.7C109.1 119.3 109.2 118.9 109.6 118.7L124 110.4C124.4 110.2 124.8 110.3 125 110.7C125.2 111.1 125.1 111.5 124.7 111.7L110.3 120C110.3 120 110.1 120.1 110 120.1Z" fill="black"/>
<path d="M72.6001 141.6C72.3001 141.6 72.1001 141.5 71.9001 141.2C71.7001 140.8 71.8001 140.4 72.2001 140.2L87.7001 131.3C88.1001 131.1 88.5001 131.2 88.7001 131.6C88.9001 132 88.8001 132.4 88.4001 132.6L73.0001 141.5C72.9001 141.5 72.7001 141.6 72.6001 141.6Z" fill="black"/>
<path d="M84.6001 117.8C84.5001 117.8 84.4001 117.8 84.2001 117.7L69.4001 109.6C69.0001 109.4 68.9001 108.9 69.1001 108.6C69.3001 108.2 69.8001 108.1 70.1001 108.3L84.9001 116.4C85.3001 116.6 85.4001 117.1 85.2001 117.4C85.1001 117.7 84.9001 117.8 84.6001 117.8Z" fill="#FF7A64"/>
<path d="M100.4 115.6C100 115.6 99.6001 115.3 99.6001 114.8V102.4C99.6001 102 99.9001 101.6 100.4 101.6C100.9 101.6 101.2 101.9 101.2 102.4V114.8C101.2 115.2 100.8 115.6 100.4 115.6Z" fill="#E5B14A"/>
<path d="M81.2001 126.5H61.1001C60.7001 126.5 60.3001 126.2 60.3001 125.7C60.3001 125.2 60.6001 124.9 61.1001 124.9H81.2001C81.6001 124.9 82.0001 125.2 82.0001 125.7C82.0001 126.2 81.7001 126.5 81.2001 126.5Z" fill="#D15D6E"/>
<path d="M89.3001 127.9C89.2001 127.9 89.0001 127.9 88.9001 127.8C88.1001 127.4 87.5001 126.7 87.1001 126C85.7001 123.6 86.6001 120.6 88.9001 119.2C92.9001 116.9 97.9001 116.9 101.9 119.2C102.3 119.4 102.4 119.9 102.2 120.2C102 120.6 101.5 120.7 101.2 120.5C97.6001 118.5 93.2001 118.5 89.7001 120.5C88.0001 121.5 87.5001 123.6 88.4001 125.2C88.7001 125.7 89.1001 126.2 89.7001 126.5C90.1001 126.7 90.2001 127.2 90.0001 127.5C89.8001 127.8 89.5001 127.9 89.3001 127.9Z" fill="black"/>
<path d="M95.4001 129.6C93.1001 129.6 90.9001 129 88.9001 127.9C88.5001 127.7 88.4001 127.2 88.6001 126.9C88.8001 126.6 89.3001 126.4 89.6001 126.6C93.2001 128.6 97.6001 128.6 101.1 126.6C101.9 126.1 102.5 125.4 102.7 124.5C102.9 123.6 102.8 122.7 102.4 121.9C102.1 121.4 101.7 120.9 101.1 120.6C100.7 120.4 100.6 119.9 100.8 119.6C101 119.2 101.5 119.1 101.8 119.3C102.6 119.7 103.2 120.4 103.6 121.1C105 123.5 104.2 126.5 101.8 127.9C99.9001 129 97.7001 129.6 95.4001 129.6Z" fill="black"/>
<path d="M72.6001 141.6C72.5001 141.6 72.3001 141.6 72.2001 141.5L69.4001 139.9C66.6001 138.3 64.3001 136 62.7001 133.2C60.3001 129 59.6001 124.1 60.9001 119.4C62.2001 114.7 65.2001 110.8 69.4001 108.3C85.3001 99.1 105.1 99.1 121.1 108.3L124.8 110.4C125.2 110.6 125.3 111.1 125.1 111.4C124.9 111.8 124.4 111.9 124.1 111.7L120.4 109.6C104.9 100.7 85.7001 100.7 70.2001 109.6C66.3001 111.8 63.6001 115.4 62.4001 119.7C61.2001 124 61.8001 128.5 64.1001 132.4C65.6001 135 67.7001 137.1 70.2001 138.5L73.0001 140.1C73.4001 140.3 73.5001 140.8 73.3001 141.1C73.1001 141.5 72.9001 141.6 72.6001 141.6Z" fill="black"/>
<path d="M88.1001 132.7C88.0001 132.7 87.8001 132.7 87.7001 132.6L84.2001 130.6C83.0001 129.9 81.9001 128.8 81.2001 127.6C79.0001 123.7 80.3001 118.7 84.2001 116.5C85.0001 116 85.9001 115.6 86.8001 115.2C89.0001 114.3 91.4001 113.7 93.8001 113.5C94.9001 113.4 96.1001 113.4 97.2001 113.5C100.5 113.8 103.7 114.8 106.6 116.4L110.5 118.6C110.9 118.8 111 119.3 110.8 119.6C110.6 120 110.1 120.1 109.8 119.9L105.9 117.7C103.2 116.2 100.2 115.2 97.1001 115C96.1001 114.9 95.0001 114.9 94.0001 115C91.7001 115.2 89.6001 115.7 87.5001 116.5C86.7001 116.8 85.9001 117.2 85.1001 117.7C81.9001 119.5 80.8001 123.6 82.7001 126.8C83.3001 127.8 84.1001 128.7 85.1001 129.2L88.6001 131.2C89.0001 131.4 89.1001 131.9 88.9001 132.2C88.6001 132.5 88.3001 132.7 88.1001 132.7Z" fill="black"/>
<path d="M167.9 112.2V121.7L198.3 104.2V94.7L167.9 112.2Z" fill="#88B9B3"/>
<path d="M159.6 107.4L167.9 112.2L198.3 94.7L190 89.9L181.7 94.7L159.6 107.4Z" fill="#B3FFF0"/>
<path d="M159.6 97.8V107.4L181.7 94.7L190 89.9V80.3L159.6 97.8Z" fill="#88B9B3"/>
<path d="M143 78.8L151.3 83.5L181.7 66L173.4 61.3L143 78.8Z" fill="#B3FFF0"/>
<path d="M151.3 93.1L159.6 97.8L190 80.3L181.7 75.6L151.3 93.1Z" fill="#B3FFF0"/>
<path d="M151.3 83.5V93.1L181.7 75.6V66L151.3 83.5Z" fill="#88B9B3"/>
<path d="M134.7 64.4L143 69.2L173.4 51.7L165.1 46.9L134.7 64.4Z" fill="#B3FFF0"/>
<path d="M143 69.2V78.8L173.4 61.3V51.7L143 69.2Z" fill="#88B9B3"/>
<path d="M159.6 107.4V97.8L151.3 93.1V83.5L143 78.8V69.2L134.7 64.4V74V83.6V93.1V101.5L143 106.6L151.3 111.6L159.6 116.7L167.9 121.7V112.2L159.6 107.4Z" fill="#0092FF"/>
<path d="M143 70C142.9 70 142.7 70 142.6 69.9L134.3 65.1C134.1 65 133.9 64.7 133.9 64.4C133.9 64.1 134 63.9 134.3 63.8L164.7 46.3C165.1 46.1 165.5 46.2 165.7 46.6C165.9 47 165.8 47.4 165.4 47.6L136.1 64.5L143.3 68.6C143.7 68.8 143.8 69.3 143.6 69.6C143.5 69.8 143.3 70 143 70Z" fill="black"/>
<path d="M143 70C142.7 70 142.5 69.9 142.3 69.6C142.1 69.2 142.2 68.8 142.6 68.6L173 51.1C173.4 50.9 173.8 51 174 51.4C174.2 51.8 174.1 52.2 173.7 52.4L143.3 69.9C143.3 69.9 143.1 70 143 70Z" fill="#578793"/>
<path d="M151.3 84.3C151 84.3 150.8 84.2 150.6 83.9C150.4 83.5 150.5 83.1 150.9 82.9L181.3 65.4C181.7 65.2 182.1 65.3 182.3 65.7C182.5 66.1 182.4 66.5 182 66.7L151.6 84.2C151.5 84.2 151.4 84.3 151.3 84.3Z" fill="#578793"/>
<path d="M159.6 108.2C159.3 108.2 159.1 108.1 158.9 107.8C158.7 107.4 158.8 107 159.2 106.8L189.6 89.3C190 89.1 190.4 89.2 190.6 89.6C190.8 90 190.7 90.4 190.3 90.6L159.9 108.1C159.8 108.1 159.7 108.2 159.6 108.2Z" fill="#578793"/>
<path d="M159.6 98.6C159.3 98.6 159.1 98.5 158.9 98.2C158.7 97.8 158.8 97.4 159.2 97.2L189.6 79.7C190 79.5 190.4 79.6 190.6 80C190.8 80.4 190.7 80.8 190.3 81L159.9 98.5C159.8 98.6 159.7 98.6 159.6 98.6Z" fill="#578793"/>
<path d="M167.9 112.9C167.6 112.9 167.4 112.8 167.2 112.5C167 112.1 167.1 111.7 167.5 111.5L197.9 94C198.3 93.8 198.7 93.9 198.9 94.3C199.1 94.7 199 95.1 198.6 95.3L168.2 112.8C168.1 112.9 168 112.9 167.9 112.9Z" fill="#578793"/>
<path d="M151.3 93.8C151 93.8 150.8 93.7 150.6 93.4C150.4 93 150.5 92.6 150.9 92.4L181.3 74.9C181.7 74.7 182.1 74.8 182.3 75.2C182.5 75.6 182.4 76 182 76.2L151.6 93.7C151.5 93.8 151.4 93.8 151.3 93.8Z" fill="#578793"/>
<path d="M143 79.5C142.7 79.5 142.5 79.4 142.3 79.1C142.1 78.7 142.2 78.3 142.6 78.1L173 60.6C173.4 60.4 173.8 60.5 174 60.9C174.2 61.3 174.1 61.7 173.7 61.9L143.3 79.4C143.3 79.5 143.1 79.5 143 79.5Z" fill="#578793"/>
<path d="M167.8 122.5C167.7 122.5 167.5 122.5 167.4 122.4C167.2 122.3 167 122 167 121.8V112.2C167 111.8 167.3 111.4 167.8 111.4C168.3 111.4 168.6 111.7 168.6 112.2V120.5L197.5 103.9V94.8C197.5 94.4 197.8 94 198.3 94C198.8 94 199.1 94.3 199.1 94.8V104.4C199.1 104.7 199 104.9 198.7 105L168.3 122.5C168.1 122.4 168 122.5 167.8 122.5Z" fill="black"/>
<path d="M198.3 95.4C198.2 95.4 198 95.4 197.9 95.3L189.6 90.5C189.4 90.4 189.2 90.1 189.2 89.9V80.3C189.2 79.9 189.5 79.5 190 79.5C190.5 79.5 190.8 79.8 190.8 80.3V89.4L198.7 94C199.1 94.2 199.2 94.7 199 95C198.8 95.3 198.5 95.4 198.3 95.4Z" fill="black"/>
<path d="M159.6 108.2C159.2 108.2 158.8 107.9 158.8 107.4V97.8C158.8 97.4 159.1 97 159.6 97C160.1 97 160.4 97.3 160.4 97.8V107.4C160.3 107.8 160 108.2 159.6 108.2Z" fill="black"/>
<path d="M151.3 84.3C151.2 84.3 151 84.3 150.9 84.2L142.6 79.4C142.2 79.2 142.1 78.7 142.3 78.4C142.5 78 143 77.9 143.3 78.1L151.6 82.9C152 83.1 152.1 83.6 151.9 83.9C151.8 84.1 151.5 84.3 151.3 84.3Z" fill="black"/>
<path d="M151.3 93.8C150.9 93.8 150.5 93.5 150.5 93V84L142.6 79.5C142.2 79.3 142.1 78.8 142.3 78.5C142.5 78.1 143 78 143.3 78.2L151.6 83C151.8 83.1 152 83.4 152 83.7V93.3C152 93.5 151.7 93.8 151.3 93.8Z" fill="black"/>
<path d="M159.6 108.2C159.2 108.2 158.8 107.9 158.8 107.4V98.3L150.9 93.7C150.5 93.5 150.4 93 150.6 92.7C150.8 92.3 151.3 92.2 151.6 92.4L159.9 97.2C160.1 97.3 160.3 97.6 160.3 97.8V107.4C160.3 107.8 160 108.2 159.6 108.2Z" fill="black"/>
<path d="M167.8 122.5C167.7 122.5 167.5 122.5 167.4 122.4L134.3 102.2C133.9 102 133.8 101.5 134.1 101.2C134.3 100.8 134.8 100.7 135.1 101L167.1 120.5V112.7L159.2 108.2C158.8 108 158.7 107.5 158.9 107.2C159.1 106.8 159.6 106.7 159.9 106.9L168.2 111.7C168.4 111.8 168.6 112.1 168.6 112.4V122C168.6 122.3 168.5 122.5 168.2 122.7C168.1 122.4 168 122.5 167.8 122.5Z" fill="black"/>
<path d="M190 81.1C189.9 81.1 189.7 81.1 189.6 81L181.3 76.2C181.1 76.1 180.9 75.8 180.9 75.5V66C180.9 65.6 181.2 65.2 181.7 65.2C182.2 65.2 182.5 65.5 182.5 66V75.1L190.4 79.6C190.8 79.8 190.9 80.3 190.7 80.6C190.5 81 190.2 81.1 190 81.1Z" fill="black"/>
<path d="M151.3 93.8C150.9 93.8 150.5 93.5 150.5 93V83.4C150.5 83 150.8 82.6 151.3 82.6C151.8 82.6 152.1 82.9 152.1 83.4V93C152 93.5 151.7 93.8 151.3 93.8Z" fill="black"/>
<path d="M181.7 66.8C181.6 66.8 181.4 66.8 181.3 66.7L173 61.9C172.6 61.7 172.5 61.2 172.7 60.9C172.9 60.5 173.4 60.4 173.7 60.6L182 65.4C182.4 65.6 182.5 66.1 182.3 66.4C182.2 66.6 182 66.8 181.7 66.8Z" fill="black"/>
<path d="M134.7 102.3C134.3 102.3 133.9 102 133.9 101.5V64.4C133.9 64.1 134 63.9 134.3 63.8C134.5 63.7 134.8 63.7 135 63.8L143.3 68.6C143.5 68.7 143.7 69 143.7 69.2V78.8C143.7 79.2 143.4 79.6 142.9 79.6C142.4 79.6 142.1 79.3 142.1 78.8V69.7L135.3 65.8V101.6C135.5 101.9 135.1 102.3 134.7 102.3Z" fill="black"/>
<path d="M173.4 62C173 62 172.6 61.7 172.6 61.2V51.6C172.6 51.2 172.9 50.8 173.4 50.8C173.9 50.8 174.2 51.1 174.2 51.6V61.2C174.2 61.7 173.8 62 173.4 62Z" fill="black"/>
<path d="M143 79.5C142.6 79.5 142.2 79.2 142.2 78.7V69.1C142.2 68.7 142.5 68.3 143 68.3C143.5 68.3 143.8 68.6 143.8 69.1V78.7C143.8 79.2 143.4 79.5 143 79.5Z" fill="black"/>
<path d="M173.4 52.5C173.3 52.5 173.1 52.5 173 52.4L164.7 47.6C164.3 47.4 164.2 46.9 164.4 46.6C164.6 46.3 165.1 46.1 165.4 46.3L173.7 51.1C174.1 51.3 174.2 51.8 174 52.1C173.9 52.3 173.7 52.5 173.4 52.5Z" fill="black"/>
</g>
</g>
<defs>
<linearGradient id="paint0_linear" x1="176.4" y1="146.805" x2="21.8201" y2="146.805" gradientUnits="userSpaceOnUse">
<stop stop-color="#B3FFF0"/>
<stop offset="0.5" stop-color="white"/>
<stop offset="1" stop-color="#B3FFF0"/>
</linearGradient>
<linearGradient id="paint1_linear" x1="176.4" y1="155.875" x2="22.4901" y2="155.875" gradientUnits="userSpaceOnUse">
<stop stop-color="#B3FFF0"/>
<stop offset="0.5" stop-color="white"/>
<stop offset="1" stop-color="#B3FFF0"/>
</linearGradient>
<linearGradient id="paint2_linear" x1="134.51" y1="143.99" x2="233.23" y2="143.99" gradientUnits="userSpaceOnUse">
<stop stop-color="white"/>
<stop offset="1" stop-color="#B3FFF0"/>
</linearGradient>
<clipPath id="clip0">
<rect width="246" height="249.9" fill="white"/>
</clipPath>
<clipPath id="clip1">
<rect width="216" height="141" fill="white" transform="translate(18.0001 45)"/>
</clipPath>
</defs>
</svg>
