<svg width="251" height="250" viewBox="0 0 251 250" fill="none" xmlns="http://www.w3.org/2000/svg">
<g clip-path="url(#clip0)">
<path d="M250 90.2C249.8 76.6 248.1 61.3 240.8 49.4C235 37.3 225.6 27.2 213.3 19.6C199.2 10.9 183 8.00003 166.8 7.00003C160.3 6.60003 153.8 6.90003 147.3 6.80003C141.3 5.20003 135.5 3.10003 129.5 2.10003C113.3 -0.599972 96.5 -1.39997 80.8 4.40003C79.3 4.60003 77.9 4.80003 76.4 5.00003C64.6 6.90003 52.2 11.4 42.4 18.3C33.7 24.4 27.2 29.9 20.9 38C14.3 46.6 10.8 53.7 6.59999 64C2.19999 75.2 1.09999 87.7 0.299988 99.6C-0.200012 108.1 -0.200012 116.5 0.299988 125C1.09999 140.2 3.39999 154.2 9.29999 168.1C14.7 181 22.3 192.9 33 202.2C42 210.2 51.8 217 62.4 222.7C69.4 226.3 76.6 229.6 84 232.4C96.8 237.4 109.9 236.9 123.1 234.6C127.1 233.8 131 232.7 134.8 231.2C136.9 230.8 139 230.3 141.1 229.6C152.3 225.6 163 220.5 173.2 214.4C181.1 210.4 188.5 205.3 194.9 199.2C197.9 196.3 200.6 193.2 203.1 190C209.2 183.4 214.7 176.3 219.6 168.7L220.1 168.2C225.2 163.3 229.4 157.6 233.5 151.9C239.7 143 244 133 246.4 122.5C249 111.8 250.2 101 250 90.2Z" fill="#FFF5F3"/>
<path d="M212.4 122.8L206.8 125.9L182.8 139.1L169.8 146.3L147.6 158.5L135.6 165.1C135.5 165.1 135.5 165.1 135.4 165.2L105.8 181.5L88.4 191L88.2 191.1C88.1 191.1 88.1 191.1 88 191.2L68.4 202C68.8 202.4 69.2 202.7 69.5 203L88.3 192.6L88.7 192.4L135.9 166.4C136 166.4 136 166.4 136.1 166.4L147.6 160.1L165.7 150.1L172.8 146.2L206.8 127.5L212.9 124.1C213 124.1 213 124.1 213.1 124.1L233.1 113.1C233.2 112.5 233.3 111.9 233.4 111.2L212.6 122.6C212.5 122.7 212.5 122.8 212.4 122.8Z" fill="#FCBAB1"/>
<path d="M218.3 126.1L206.8 132.4L188.7 142.4L181.6 146.3L147.6 165L141.5 168.3C141.4 168.3 141.4 168.3 141.3 168.4L94.1 194.4C94 194.4 94 194.4 93.9 194.5L88.3 197.6L73 205.9C73.5 206.2 73.9 206.5 74.4 206.9L88.4 199.2L94.5 195.8C94.6 195.8 94.6 195.8 94.7 195.8L141.9 169.8C142 169.8 142 169.8 142.1 169.8L147.7 166.7L171.7 153.5L184.7 146.3L206.8 134.1L218.8 127.5C218.9 127.5 218.9 127.5 219 127.5L231.5 120.6C231.7 120 231.8 119.3 232 118.6L218.3 126.1C218.4 126.1 218.3 126.1 218.3 126.1Z" fill="#FCBAB1"/>
<path d="M224.2 129.3L206.8 138.8L194.6 145.5L193.4 146.2L177 155.2C176.9 155.2 176.9 155.2 176.8 155.3L147.6 171.4L147.2 171.6L100 197.6C99.9 197.6 99.9 197.6 99.8 197.7L88.4 204L78.4 209.5C78.9 209.8 79.4 210.1 79.9 210.4L88.3 205.8L100.3 199.2C100.4 199.2 100.4 199.2 100.5 199.2L130.1 182.9L147.5 173.3L147.7 173.2C147.8 173.2 147.8 173.2 147.9 173.2L177.5 156.9L196.5 146.5L206.8 140.8L224.8 130.9C224.9 130.9 224.9 130.9 225 130.9L229.1 128.7C229.4 128 229.6 127.3 229.9 126.6L224.5 129.6C224.4 129.3 224.3 129.3 224.2 129.3Z" fill="#FCBAB1"/>
<path d="M224.2 109.8L206.8 119.4L206.6 119.5C206.5 119.5 206.5 119.5 206.4 119.6L176.8 135.9L157.8 146.3L147.5 152L129.6 161.9C129.5 161.9 129.5 161.9 129.4 162L99.8 178.3L88.4 184.6L64.3 197.9C64.6 198.3 65 198.7 65.3 199L82.8 189.4L88.4 186.3L130 163.4C130.1 163.4 130.1 163.4 130.2 163.4L147.6 153.8L159.8 147.1L161 146.4L177.4 137.4C177.5 137.4 177.5 137.4 177.6 137.4L206.8 121.3L207.2 121.1L233.9 106.4C233.9 105.8 234 105.2 234 104.6L224.2 109.8Z" fill="#FCBAB1"/>
<path d="M206.8 151.9L188.9 161.8C188.8 161.8 188.8 161.8 188.7 161.9L159.1 178.2L147.6 184.5L112 204.1C111.9 204.1 111.9 204.1 111.8 204.2L91.5 215.4C92.2 215.6 92.8 215.8 93.5 216L112.4 205.6C112.5 205.6 112.5 205.6 112.6 205.6L142.1 189.3L147.7 186.2L189.3 163.3C189.4 163.3 189.4 163.3 189.5 163.3L206.9 153.7L216.6 148.3C217.1 147.8 217.6 147.2 218.1 146.7C218.2 146.6 218.3 146.4 218.4 146.3C218.8 145.9 219.2 145.4 219.5 145L217.1 146.3L206.8 151.9Z" fill="#FCBAB1"/>
<path d="M153.2 51.2L147.6 54.3L123.6 67.5L110.6 74.7L88.4 86.9L76.4 93.5C76.3 93.5 76.3 93.5 76.2 93.6L68.3 97.9C68.5 98.4 68.7 98.8 68.8 99.3L76.7 94.9C76.8 94.9 76.8 94.9 76.9 94.9L88.4 88.6L106.5 78.6L113.6 74.7L147.6 56L153.7 52.6C153.8 52.6 153.8 52.6 153.9 52.5L178.7 39C178.2 38.7 177.8 38.4 177.3 38.1L153.4 51.3C153.4 51.2 153.3 51.2 153.2 51.2Z" fill="#FCBAB1"/>
<path d="M159.1 54.5L147.6 60.7999L129.5 70.8L122.4 74.6999L88.4 93.4L82.3 96.6999C82.2 96.6999 82.2 96.7 82.1 96.8L70.6 103.1C70.6 103.6 70.7 104.2 70.7 104.7L82.6 98.0999C82.7 98.0999 82.7 98.0999 82.8 98.0999L88.4 95L112.4 81.8L125.4 74.5999L147.5 62.4L159.5 55.7999C159.6 55.7999 159.6 55.7999 159.7 55.7999L183.5 42.7C183.1 42.3 182.7 42 182.2 41.7L159.1 54.5Z" fill="#FCBAB1"/>
<path d="M165 57.7L147.6 67.3L135.4 74L134.2 74.6999L117.8 83.6999C117.7 83.6999 117.7 83.7 117.6 83.8L88.4 99.9L88 100.1L71.2 109.3C71.3 109.8 71.3 110.4 71.4 110.9L88.4 101.5L88.6 101.4C88.7 101.4 88.7 101.4 88.8 101.4L118.4 85.0999L137.4 74.6999L147.7 69L165.7 59.0999C165.8 59.0999 165.8 59.0999 165.9 59.0999L188.8 46.5L187.4 46L187.1 45.7L165.3 57.7C165.2 57.8 165.1 57.7 165 57.7Z" fill="#FCBAB1"/>
<path d="M171 61L147.7 73.8L146.1 74.7L123.8 87C123.7 87 123.7 87 123.6 87.1L94 103.3L88.4 106.3L68.5 117.2L66.9 119.8L76.8 114.3L88.3 108L124 88.3C124.1 88.3 124.1 88.3 124.2 88.3L147.5 75.5L149.1 74.6L171.4 62.3C171.5 62.3 171.5 62.3 171.6 62.3L195.3 49.2L193.6 48.4L171 60.7C171.1 60.9 171 61 171 61Z" fill="#FCBAB1"/>
<path d="M159.1 35L147.6 41.3L112 60.9C111.9 60.9 111.9 60.9 111.8 61L88.4 73.8L86.8 74.7L64.6 87C64.5 87 64.5 87 64.4 87.1H64.3C64.3 87.1 64.3 87.1 64.3 87.2C64.4 87.6 64.5 88.1 64.6 88.5V88.6L64.9 88.5C65 88.5 65 88.5 65.1 88.5L88.4 75.7L90 74.8L112.3 62.5C112.4 62.5 112.4 62.5 112.5 62.5L142 46.1L147.6 43L167 32.4C166.4 32.2 165.9 31.9 165.3 31.6L159.1 35Z" fill="#FCBAB1"/>
<path d="M165 38.2L147.6 47.8L147.4 47.9C147.3 47.9 147.3 47.9 147.2 48L117.6 64.3L98.6 74.7L88.3 80.4L70.4 90.3C70.3 90.3 70.3 90.3 70.2 90.4L66 92.6C66.2 93.1 66.4 93.5 66.6 94L70.8 91.7C70.9 91.7 70.9 91.7 71 91.7L88.4 82.1L100.6 75.4L101.8 74.7L118.2 65.7C118.3 65.7 118.3 65.7 118.4 65.7L147.6 49.6L148 49.4L173.2 35.5L171.6 34.6L165 38.2Z" fill="#FCBAB1"/>
<path d="M205.3 146.3L183 158.6C182.9 158.6 182.9 158.6 182.8 158.7L153.2 175L147.6 178.1L106 200.9C105.9 200.9 105.9 200.9 105.8 201L88.4 210.6L84.5 212.7L86.2 213.5L88.4 212.3L106.4 202.4C106.5 202.4 106.5 202.4 106.6 202.4L136.2 186.1L147.7 179.8L183.4 160.1C183.5 160.1 183.5 160.1 183.6 160.1L206.9 147.3L208.5 146.4L224.9 137.4C225.4 136.6 225.8 135.8 226.2 134.9L206.8 145.4L205.3 146.3Z" fill="#FCBAB1"/>
<path d="M153.2 194.4L147.6 197.5L123.6 210.7L110.6 217.9L109 218.8C110 218.9 110.9 218.9 111.9 218.9L113.7 217.9L147.7 199.2L153.8 195.8C153.9 195.8 153.9 195.8 154 195.8L187 177.6C187.5 176.7 188 175.9 188.6 175L153.5 194.3C153.4 194.3 153.3 194.4 153.2 194.4Z" fill="#FCBAB1"/>
<path d="M159.1 197.7L147.6 204L129.5 214L122.4 217.9L121.4 218.4C122.8 218.3 124.1 218.1 125.4 217.9H125.5L147.6 205.7L159.6 199.1C159.7 199.1 159.7 199.1 159.8 199.1L179.8 188.1C180.5 187.1 181.3 186.2 181.9 185.2L159.3 197.7C159.2 197.6 159.2 197.7 159.1 197.7Z" fill="#FCBAB1"/>
<path d="M165 200.9L147.6 210.5L139.5 215C142.3 214.2 145 213.3 147.6 212.2H147.7L165.2 202.6L165.4 202.4L166 201.9C167.7 200.6 169.3 199.2 170.9 197.7L165.2 200.9C165.2 200.9 165.1 200.9 165 200.9Z" fill="#FCBAB1"/>
<path d="M165 181.4L147.6 191L147.4 191.1C147.3 191.1 147.3 191.1 147.2 191.2L117.6 207.5L99.4 217.5H99.6C100.2 217.6 100.9 217.7 101.5 217.9H101.7H101.8L118.2 208.9C118.3 208.9 118.3 208.9 118.4 208.9L147.6 192.8L148 192.6L192.6 168.1L194 165.6L165 181.4Z" fill="#FCBAB1"/>
<path d="M94.6 52.6C94.7 52.6 94.7 52.6 94.8 52.5L142 26.5C142.1 26.5 142.1 26.5 142.2 26.5L143.1 26L142.6 25.9L141.1 25.7L140.6 25.6H140.4L94.2 51.2C94.1 51.2 94.1 51.2 94 51.3L88.4 54.4L64.5 67.5C64.4 68.1 64.2 68.8 64.1 69.4L88.4 56L94.6 52.6Z" fill="#FCBAB1"/>
<path d="M106 57.7C105.9 57.7 105.9 57.7 105.8 57.8L88.4 67.4L76.2 74L75 74.7L63.4 81.1C63.4 81.7 63.5 82.2 63.5 82.7L78 74.7L88.4 69L106.4 59.1C106.5 59.1 106.5 59.1 106.6 59.1L136.2 42.8L147.7 36.5L160.1 29.6C159.4 29.4 158.8 29.2 158.1 29L153.3 31.6L147.7 34.6L106 57.7Z" fill="#FCBAB1"/>
<path d="M88.8 49.3L131.9 25.6C130.7 25.6 129.6 25.7 128.4 25.8L105.8 38.2L88.4 47.8L88.2 47.9C88.1 47.9 88.1 47.9 88 48L67.6 59.2V59.3C67.2 60 66.8 60.8 66.5 61.6V61.7L88.5 49.6L88.8 49.3Z" fill="#FCBAB1"/>
<path d="M94.5 124.2C94.6 124.2 94.6 124.2 94.7 124.2L141.9 98.1999C142 98.1999 142 98.1999 142.1 98.1999L147.7 95.0999L171.7 81.9L184.7 74.6999L206.8 62.5L211.8 59.7C211.4 59.4 211 59 210.5 58.7L206.8 60.7999L188.7 70.8L181.6 74.6999L147.6 93.4L141.5 96.6999C141.4 96.6999 141.4 96.7 141.3 96.8L94.1 122.8C94 122.8 94 122.8 93.9 122.9L88.5 125.8L64.5 139L55.3 144.1C55.1 144.8 54.9 145.5 54.7 146.2L88.6 127.5L94.5 124.2Z" fill="#FCBAB1"/>
<path d="M88.4001 62.5L100.4 55.9C100.5 55.9 100.5 55.9 100.6 55.9L130.2 39.5999L147.6 30L147.8 29.9C147.9 29.9 147.9 29.9 148 29.9L152.1 27.6C151.4 27.4 150.6 27.3 149.9 27.2H149.8L147.7 28.4L147.3 28.6L100.1 54.5999C100 54.5999 100 54.6 99.9001 54.7L88.4001 61L70.3001 71L63.4001 74.8V74.9C63.4001 75.4 63.3 76 63.3 76.5L66.2 74.9L88.4001 62.5Z" fill="#FCBAB1"/>
<path d="M82.9 46.1L88.5 43L116.6 27.5C114.8 27.9 113 28.3 111.2 28.7L99.9 35L88.4 41.3L75.9 48.2C74.9 49.3 73.9 50.4 72.9 51.5L82.9 46.1Z" fill="#FCBAB1"/>
<path d="M82.9 117.7L88.5 114.6L130 91.7C130.1 91.7 130.1 91.7 130.2 91.7L147.6 82.1L159.8 75.4L161 74.7L177.4 65.7C177.5 65.7 177.5 65.7 177.6 65.7L201.4 52.6C200.9 52.3 200.4 52 199.9 51.8L176.9 64.4L157.9 74.8L147.6 80.5L129.7 90.4C129.6 90.4 129.6 90.4 129.5 90.5L99.9 106.8L88.5 113L62.8 127C62.3 127.8 61.9 128.6 61.5 129.5L82.9 117.7Z" fill="#FCBAB1"/>
<path d="M59.2001 137.2L88.4001 121.1L88.8001 120.9L136 94.9C136.1 94.9 136.1 94.9 136.2 94.9L147.7 88.6L165.8 78.6L172.9 74.7L206.9 56C206.4 55.7 206 55.4 205.5 55.1L182.8 67.6L169.8 74.8L147.6 87L135.6 93.6C135.5 93.6 135.5 93.6 135.4 93.7L105.8 110L88.4001 119.6L88.2 119.7C88.1 119.7 88.1 119.7 88 119.8L58.4001 136.1L58.2001 136.2C58.2001 136.3 58.2 136.3 58.1 136.3C58.1 136.4 58 136.5 58 136.6C57.8 137.2 57.5 137.8 57.3 138.4L59 137.5C59.1 137.3 59.1001 137.2 59.2001 137.2Z" fill="#FCBAB1"/>
<path d="M71 182.7L88.4001 173.1L88.6 173C88.7 173 88.7001 173 88.8001 173L118.4 156.7L137.4 146.3L147.7 140.6L165.7 130.7C165.8 130.7 165.8 130.7 165.9 130.7L195.5 114.4L207 108.1L233 93.7C232.9 93.2 232.8 92.7 232.7 92.2L212.4 103.4L206.8 106.4L165.2 129.3C165.1 129.3 165.1 129.3 165 129.4L147.6 139L135.4 145.7L134.2 146.4L117.8 155.4C117.7 155.4 117.7 155.4 117.6 155.5L88.4001 171.6L88 171.8L57.8 188.5C58 188.9 58.3 189.4 58.5 189.8L71 182.7Z" fill="#FCBAB1"/>
<path d="M77 186L88.5 179.7L124.2 160C124.3 160 124.3 160 124.4 160L147.7 147.2L149.3 146.3L171.6 134C171.7 134 171.7 134 171.8 134L201.4 117.7L207 114.6L234 99.7C234 99.1 233.9 98.6 233.8 98.1L218.4 106.5L206.9 112.8L171.2 132.4C171.1 132.4 171.1 132.4 171 132.5L147.7 145.3L146.1 146.2L123.8 158.5C123.7 158.5 123.7 158.5 123.6 158.6L94 174.9L88.4001 178L60.8 193.2C61.1 193.6 61.4001 194 61.7001 194.4L77 186Z" fill="#FCBAB1"/>
<path d="M53.3 153.5L66.3001 146.3L88.4001 134.1L100.4 127.5C100.5 127.5 100.5 127.5 100.6 127.5L130.2 111.2L147.6 101.6L147.8 101.5C147.9 101.5 147.9 101.5 148 101.5L177.6 85.2L196.6 74.8L206.9 69.1L216.4 63.9C216 63.5 215.6 63.2 215.3 62.8L206.9 67.4L194.7 74.1L193.5 74.8L177.1 83.8C177 83.8 177 83.8 176.9 83.9L147.7 100L147.3 100.2L100.1 126.2C100 126.2 100 126.2 99.9001 126.3L88.4001 132.6L70.3001 142.6L63.2001 146.5L53.1 152C53 152.6 52.9 153.1 52.8 153.7V153.9L53.3 153.6V153.5Z" fill="#FCBAB1"/>
<path d="M59.2 156.7L78.2 146.3L88.5 140.6L106.5 130.7C106.6 130.7 106.6 130.7 106.7 130.7L136.3 114.4L147.8 108.1L183.5 88.4C183.6 88.4 183.6 88.4 183.7 88.4L207 75.6L208.6 74.7L220.6 68.1C220.3 67.7 219.9 67.3 219.6 66.9L207 73.9L205.4 74.8L183 87C182.9 87 182.9 87 182.8 87.1L153.2 103.4L147.6 106.4L106 129.4C105.9 129.4 105.9 129.4 105.8 129.5L88.4 139L76.2 145.7L75 146.4L58.6 155.4C58.5 155.4 58.5 155.4 58.4 155.5L52 159.1C52 159.7 51.9 160.2 51.9 160.8L59.2 156.7Z" fill="#FCBAB1"/>
<path d="M65.1 160L88.4 147.2L90 146.3L112.3 134C112.4 134 112.4 134 112.5 134L142.1 117.7L147.7 114.6L189.3 91.7C189.4 91.7 189.4 91.7 189.5 91.7L206.9 82.1L219.1 75.4L220.3 74.7L224 72.7L223.1 71.5L217.2 74.8L206.9 80.5L189 90.4C188.9 90.4 188.9 90.4 188.8 90.5L159.2 106.8L147.8 113L112 132.5C111.9 132.5 111.9 132.5 111.8 132.6L88.5 145.4L86.9 146.3L64.6 158.6C64.5 158.6 64.5 158.6 64.4 158.7L51.9 165.6C51.9 166.1 51.9 166.7 52 167.3L65 160.2C65 160 65.1 160 65.1 160Z" fill="#FCBAB1"/>
<path d="M71 163.2L88.4 153.6L100.6 146.9L101.8 146.2L118.2 137.2C118.3 137.2 118.3 137.2 118.4 137.2L147.6 121.1L148 120.8L195.2 94.8C195.3 94.8 195.3 94.8 195.4 94.8L206.9 88.5L225 78.5L227 77.4C226.8 77 226.5 76.5 226.2 76.1L206.8 86.8L194.8 93.4C194.7 93.4 194.7 93.4 194.6 93.5L165 109.8L147.6 119.4L147.4 119.5C147.3 119.5 147.3 119.5 147.2 119.6L117.6 135.9L98.6 146.3L88.4 152L70.5 161.9C70.4 161.9 70.4 161.9 70.3 162L52.5 171.8C52.6 172.3 52.7 172.8 52.8 173.4L70.9 163.4C70.9 163.3 71 163.3 71 163.2Z" fill="#FCBAB1"/>
<path d="M77 166.5L88.5 160.2L106.6 150.2L113.7 146.3L147.7 127.6L153.8 124.2C153.9 124.2 153.9 124.2 154 124.2L201.2 98.2C201.3 98.2 201.3 98.2 201.4 98.2L207 95.1L229.7 82.6C229.5 82.1 229.3 81.7 229.1 81.2L207 93.3L200.9 96.6C200.8 96.6 200.8 96.6 200.7 96.7L153.6 122.7C153.5 122.7 153.5 122.7 153.4 122.8L147.8 125.8L123.8 139L110.8 146.2L88.6 158.4L76.6 165C76.5 165 76.5 165 76.4 165.1L53.9 177.5C54 177.8 54.1 178.1 54.1 178.5C54.1 178.7 54.2 178.8 54.3 179L77 166.5C76.9 166.5 76.8 166.6 77 166.5Z" fill="#FCBAB1"/>
<path d="M82.9 169.8L88.5 166.7L112.5 153.5L125.5 146.3L147.6 134.1L159.6 127.5C159.7 127.5 159.7 127.5 159.8 127.5L189.4 111.2L206.8 101.6L207 101.5C207.1 101.5 207.1 101.5 207.2 101.5L231.6 88.1C231.5 87.6 231.3 87.2 231.1 86.7L206.9 99.9L206.5 100.1L159.3 126.1C159.2 126.1 159.2 126.1 159.1 126.2L147.6 132.5L129.5 142.5L122.4 146.4L88.4 165.1L82.3 168.4C82.2 168.4 82.2 168.4 82.1 168.5L55.4 183.2C55.6 183.7 55.8 184.1 56 184.6L82.7 169.9C82.8 169.9 82.8 169.8 82.9 169.8Z" fill="#FCBAB1"/>
<path d="M107.237 153.182C107.037 149.279 104.735 145.877 101.234 144.176L80.4229 134.469V109.251C80.3229 105.348 82.4239 101.745 85.9257 99.8441C89.9278 97.7426 93.4296 94.7404 96.2311 91.1378H59.6122C62.4136 94.7404 65.9154 97.7426 69.9175 99.9441C73.3193 101.845 75.5204 105.448 75.4203 109.351V134.569L54.6096 144.276C51.1078 145.977 48.8066 149.379 48.6065 153.282C48.6065 143.575 50.6076 135.97 54.1094 129.865C57.6112 123.761 62.5137 118.958 68.3167 114.855C71.3182 112.753 72.0186 108.65 69.9175 105.648C69.4172 104.848 68.7169 104.247 67.9165 103.747C56.1104 96.5417 48.4064 86.5345 48.4064 67.4209C48.4064 70.9234 61.5132 73.7254 77.8216 73.7254C94.13 73.7254 107.237 70.9234 107.237 67.4209C107.237 86.5345 99.6328 96.5417 87.8267 103.847C84.7251 105.748 83.7246 109.751 85.6256 112.853C86.1258 113.654 86.7262 114.354 87.5266 114.855C99.1325 122.961 107.237 133.768 107.237 153.182Z" fill="#B3FFF0"/>
<path d="M107.237 153.182C107.237 156.685 94.13 159.487 77.8216 159.487C61.5132 159.487 48.4064 156.685 48.4064 153.182C48.6065 149.279 50.9077 145.877 54.4095 144.176L75.2202 134.469V109.351C75.3203 105.448 73.2192 101.745 69.7174 99.9442C65.7153 97.8427 62.2135 94.8405 59.4121 91.238H95.9309C93.1295 94.8405 89.7277 97.8427 85.7256 100.044C82.3239 101.946 80.1228 105.548 80.2228 109.451V134.669L101.034 144.376C104.735 145.877 107.037 149.38 107.237 153.182Z" fill="#FFF46C"/>
<path d="M118.843 162.289C118.343 167.092 100.233 170.895 77.8217 170.895C55.4102 170.895 37.4009 167.092 36.8006 162.289C37.0007 163.289 38.2013 164.09 39.7021 164.09C41.2029 164.09 42.6036 163.189 42.6036 162.089V157.585C44.5046 156.885 46.4055 156.384 48.4066 155.984V159.687C48.4066 163.189 61.5133 165.991 77.8217 165.991C94.1301 165.991 107.237 163.189 107.237 159.687V155.984C109.238 156.384 111.139 156.985 113.04 157.585V162.089C113.04 163.189 114.341 164.09 115.941 164.09C117.542 164.09 118.643 163.289 118.843 162.289Z" fill="#1DCFFF"/>
<path d="M107.237 153.182V159.487C107.237 162.989 94.13 165.791 77.8216 165.791C61.5132 165.791 48.4064 163.089 48.4064 159.587V153.282C48.4064 156.785 61.5132 159.587 77.8216 159.587C94.13 159.587 107.237 156.685 107.237 153.182Z" fill="#5CA099"/>
<path d="M118.843 162.089V168.393C118.843 173.297 100.533 177.199 77.8217 177.199C55.11 177.199 36.8006 173.197 36.8006 168.393V162.089C36.8006 162.189 36.8006 162.289 36.8006 162.289C37.4009 167.092 55.5102 170.895 77.8217 170.895C100.133 170.895 118.343 166.992 118.843 162.289C118.843 162.189 118.843 162.089 118.843 162.089Z" fill="#0092FF"/>
<path d="M42.7036 63.118V162.089C42.7036 163.19 41.4029 164.09 39.8021 164.09C38.2013 164.09 37.1007 163.29 36.9006 162.289C36.9006 162.189 36.9006 162.089 36.9006 162.089V58.6148C36.8006 60.316 39.0017 61.8171 42.7036 63.118Z" fill="url(#paint0_linear)"/>
<path d="M118.843 58.6148V162.089C118.843 162.189 118.843 162.189 118.843 162.289C118.743 163.29 117.442 164.09 115.941 164.09C114.441 164.09 113.04 163.19 113.04 162.089V63.118C116.742 61.8171 118.843 60.316 118.843 58.6148Z" fill="url(#paint1_linear)"/>
<path d="M118.843 52.31C118.843 57.2135 100.533 61.1163 77.8217 61.1163C55.11 61.1163 36.8006 57.1135 36.8006 52.31C36.8006 47.5066 55.2101 43.4037 77.8217 43.4037C100.433 43.4037 118.843 47.4065 118.843 52.31Z" fill="#1DCFFF"/>
<path d="M77.8217 61.917C57.6112 61.917 36.0001 58.5146 36.0001 52.3102C36.0001 46.1057 57.5112 42.7033 77.8217 42.7033C98.1321 42.7033 119.643 46.1057 119.643 52.3102C119.543 58.5146 98.0321 61.917 77.8217 61.917ZM77.8217 44.2044C54.1094 44.2044 37.6009 48.5075 37.6009 52.3102C37.6009 56.1129 54.1094 60.416 77.8217 60.416C101.534 60.416 118.042 56.1129 118.042 52.3102C118.042 48.4074 101.534 44.2044 77.8217 44.2044Z" fill="#2945FF"/>
<path d="M118.843 52.3102V58.6147C118.843 60.316 116.742 61.817 113.04 63.118C111.139 63.8185 109.238 64.3188 107.237 64.7191C99.833 66.3202 89.4277 67.421 77.8217 67.421C66.2157 67.421 55.9104 66.4203 48.4066 64.7191C46.4055 64.3188 44.5046 63.7184 42.6036 63.118C38.9017 61.817 36.8006 60.2159 36.8006 58.6147V52.3102C36.8006 57.2137 55.2101 61.1165 77.8217 61.1165C100.433 61.1165 118.843 57.1137 118.843 52.3102Z" fill="#0092FF"/>
<path d="M107.237 64.8191V67.5211C107.237 71.0236 94.13 73.8256 77.8216 73.8256C61.5132 73.8256 48.4064 70.9235 48.4064 67.421V64.7191C55.8102 66.3202 66.3157 67.421 77.8216 67.421C89.3275 67.421 99.7329 66.4203 107.237 64.8191Z" fill="#5CA099"/>
<path d="M115.941 164.79C113.84 164.79 112.239 163.59 112.239 161.988V157.986C110.839 157.485 109.338 157.085 107.937 156.785V159.487C107.937 159.887 107.637 160.287 107.137 160.287C106.637 160.287 106.336 159.987 106.336 159.487V155.784C106.336 155.584 106.436 155.384 106.637 155.184C106.837 154.983 107.037 154.983 107.237 154.983C109.238 155.384 111.239 155.984 113.14 156.685C113.44 156.785 113.64 157.085 113.64 157.385V161.888C113.64 162.489 114.541 163.089 115.841 163.089C117.142 163.089 117.942 162.489 117.942 161.888C118.042 161.488 118.343 161.188 118.743 161.288C119.143 161.388 119.443 161.688 119.343 162.089C119.343 163.79 117.842 164.79 115.941 164.79Z" fill="black"/>
<path d="M39.8022 164.791C37.9012 164.791 36.4004 163.79 36.2003 162.389C36.1002 161.989 36.4004 161.588 36.8006 161.488C37.2008 161.388 37.601 161.688 37.7011 162.089C37.8011 162.589 38.6015 163.189 39.8022 163.189C41.0028 163.189 41.9032 162.489 41.9032 161.989V157.485C41.9032 157.185 42.1033 156.885 42.4035 156.785C44.3045 156.084 46.3055 155.584 48.3065 155.084C48.5066 155.084 48.8068 155.084 48.9068 155.284C49.1069 155.384 49.207 155.684 49.207 155.884V159.587C49.207 159.987 48.9068 160.387 48.4066 160.387C47.9063 160.387 47.6062 160.087 47.6062 159.587V156.885C46.1054 157.185 44.7047 157.685 43.304 158.086V162.089C43.404 163.59 41.7031 164.791 39.8022 164.791Z" fill="black"/>
<path d="M107.137 160.287C106.737 160.287 106.336 159.987 106.336 159.487V155.484C102.134 158.586 89.8278 160.187 77.7216 160.187C65.5153 160.187 53.309 158.586 49.1069 155.484V159.487C49.1069 159.887 48.8067 160.287 48.3065 160.287C47.8062 160.287 47.506 159.987 47.506 159.487V153.182C47.506 152.782 47.8062 152.382 48.3065 152.382C48.8067 152.382 49.1069 152.682 49.1069 153.182C49.1069 155.484 60.0125 158.786 77.7216 158.786C95.4307 158.786 106.336 155.484 106.336 153.182C106.336 152.782 106.636 152.382 107.137 152.382C107.637 152.382 107.937 152.682 107.937 153.182V159.487C107.937 159.987 107.637 160.287 107.137 160.287Z" fill="black"/>
<path d="M77.8217 178C57.6112 178 36.0001 174.598 36.0001 168.393V162.289C36.0001 162.189 36.0001 162.089 36.0001 161.989C36.0001 161.588 36.4003 161.288 36.8005 161.288C37.2007 161.288 37.5009 161.588 37.5009 161.989V162.189V168.293C37.5009 172.096 54.0094 176.399 77.7216 176.399C101.434 176.399 117.942 172.096 117.942 168.293V162.189V162.089C117.942 161.688 118.242 161.388 118.643 161.388C119.043 161.388 119.343 161.688 119.443 162.089C119.443 162.189 119.443 162.289 119.443 162.389V168.493C119.543 174.598 98.0321 178 77.8217 178Z" fill="black"/>
<path d="M42.6035 158.286C42.3034 158.286 42.0032 158.086 41.9032 157.786C41.8031 157.385 42.0032 156.985 42.4034 156.785C44.1043 156.184 45.9052 155.684 47.7062 155.284V153.182C47.7062 143.876 49.5071 136.07 53.3091 129.365C56.5107 123.661 61.2131 118.758 67.8165 114.154C68.5169 113.654 69.1172 113.054 69.5174 112.353C71.2183 109.651 70.3178 106.049 67.6164 104.347C53.9094 95.9414 47.8062 84.5333 47.8062 67.321V65.2195C46.0053 64.8192 44.2044 64.3188 42.5035 63.7184C42.1033 63.6183 41.9032 63.118 42.0032 62.7177C42.1033 62.3174 42.6035 62.1173 43.0037 62.2173C44.9047 62.9178 46.8057 63.4182 48.7067 63.8185C49.0068 63.9186 49.307 64.2188 49.307 64.519V67.2209C49.307 84.0329 55.0099 94.7406 68.4168 102.946C71.8186 105.048 72.9191 109.551 70.8181 112.954C70.3178 113.854 69.5174 114.555 68.717 115.155C62.4137 119.558 57.8114 124.362 54.7098 129.866C51.0079 136.37 49.307 143.876 49.307 152.882V155.584C49.307 155.984 49.1069 156.285 48.7067 156.285C46.8057 156.685 44.8047 157.285 43.0037 157.886C42.8036 158.286 42.7036 158.286 42.6035 158.286Z" fill="black"/>
<path d="M107.237 156.685C106.837 156.685 106.436 156.384 106.436 155.884V153.182C106.436 136.47 100.433 124.762 87.0265 115.455C85.4257 114.354 84.3251 112.653 84.025 110.752C83.6247 108.85 84.125 106.849 85.2256 105.248C85.8259 104.347 86.5262 103.647 87.4267 103.146C100.834 94.9406 106.537 84.2329 106.537 67.4209V64.719C106.537 64.3187 106.837 63.9184 107.337 63.9184C107.837 63.9184 108.137 64.2186 108.137 64.719V67.4209C108.137 84.6332 102.034 96.0413 88.3272 104.447C87.6268 104.848 87.0265 105.448 86.5262 106.149C85.6258 107.449 85.3256 108.951 85.6258 110.452C85.9259 111.953 86.7263 113.254 88.027 114.154C101.934 123.861 108.137 135.87 108.137 153.182V155.884C107.937 156.284 107.637 156.685 107.237 156.685Z" fill="black"/>
<path d="M113.04 158.286C112.64 158.286 112.239 157.986 112.239 157.485V63.118C112.239 62.7177 112.539 62.3174 113.04 62.3174C113.54 62.3174 113.84 62.6177 113.84 63.118V157.485C113.74 157.886 113.44 158.286 113.04 158.286Z" fill="#2945FF"/>
<path d="M118.843 162.789C118.443 162.789 118.042 162.489 118.042 161.988V150.28C118.042 149.88 118.343 149.479 118.843 149.479C119.343 149.479 119.643 149.78 119.643 150.28V162.089C119.543 162.489 119.243 162.789 118.843 162.789Z" fill="black"/>
<path d="M42.7035 115.656C42.3033 115.656 41.9031 115.355 41.9031 114.855V63.118C41.9031 62.7177 42.2032 62.3174 42.7035 62.3174C43.2037 62.3174 43.5039 62.6177 43.5039 63.118V114.855C43.4038 115.355 43.1037 115.656 42.7035 115.656Z" fill="black"/>
<path d="M77.8217 178C57.6112 178 36.0001 174.598 36.0001 168.393V162.289C36.0001 162.189 36.0001 162.089 36.0001 161.989C36.0001 161.588 36.4003 161.288 36.8005 161.288C37.2007 161.288 37.5009 161.588 37.5009 161.989V162.189V168.293C37.5009 172.096 54.0094 176.399 77.7216 176.399C101.434 176.399 117.942 172.096 117.942 168.293V162.189V162.089C117.942 161.688 118.242 161.388 118.643 161.388C119.043 161.388 119.343 161.688 119.443 162.089C119.443 162.189 119.443 162.289 119.443 162.389V168.493C119.543 174.598 98.0321 178 77.8217 178Z" fill="black"/>
<path d="M77.8217 61.917C77.4214 61.917 77.0212 61.6168 77.0212 61.1164C77.0212 60.6161 77.3214 60.3158 77.8217 60.3158C101.534 60.3158 118.042 56.0128 118.042 52.2101C118.042 51.8098 118.343 51.4095 118.843 51.4095C119.343 51.4095 119.643 51.7097 119.643 52.2101C119.643 58.5146 98.1321 61.917 77.8217 61.917Z" fill="#2945FF"/>
<path d="M77.8218 61.9171C56.7109 61.9171 39.3019 58.5146 36.5005 53.8113C36.2003 53.411 36.1003 52.8106 36.1003 52.3102C36.1003 51.9099 36.4004 51.5096 36.8006 51.5096C37.2008 51.5096 37.6011 51.8099 37.6011 52.2101C37.6011 52.5104 37.7011 52.7105 37.8012 53.0107C40.0023 56.6133 55.5103 60.3159 77.8218 60.3159C78.222 60.3159 78.6222 60.6161 78.6222 61.1165C78.6222 61.6169 78.222 61.9171 77.8218 61.9171Z" fill="#2945FF"/>
<path d="M77.8217 171.695C77.4214 171.695 77.0212 171.395 77.0212 170.895C77.0212 170.395 77.3214 170.094 77.8217 170.094C96.6313 170.094 113.24 167.292 117.242 163.39C117.542 163.089 118.042 163.089 118.343 163.39C118.643 163.69 118.643 164.19 118.343 164.49C113.94 168.793 97.3317 171.695 77.8217 171.695Z" fill="#2945FF"/>
<path d="M77.9218 171.696C58.4117 171.696 41.8032 168.793 37.4009 164.59C37.1007 164.29 37.1007 163.79 37.4009 163.49C37.7011 163.189 38.2013 163.189 38.5015 163.49C42.6036 167.392 59.2121 170.194 78.0218 170.194C78.422 170.194 78.8222 170.495 78.8222 170.995C78.8222 171.495 78.322 171.696 77.9218 171.696Z" fill="#2945FF"/>
<path d="M77.8217 178C57.6112 178 36.0001 174.598 36.0001 168.393V162.289C36.0001 162.189 36.0001 162.089 36.0001 161.989C36.0001 161.588 36.4003 161.288 36.8005 161.288C37.2007 161.288 37.5009 161.588 37.5009 161.989V162.189V168.293C37.5009 172.096 54.0094 176.399 77.7216 176.399C101.434 176.399 117.942 172.096 117.942 168.293V162.189V162.089C117.942 161.688 118.242 161.388 118.643 161.388C119.043 161.388 119.343 161.688 119.443 162.089C119.443 162.189 119.443 162.289 119.443 162.389V168.493C119.543 174.598 98.0321 178 77.8217 178Z" fill="black"/>
<path d="M115.941 164.791C114.14 164.791 112.239 163.69 112.239 161.989V63.118C112.239 62.8178 112.439 62.5176 112.74 62.4175C116.141 61.2166 118.042 59.8156 118.042 58.6148C118.042 58.2145 118.342 57.8142 118.843 57.8142C119.343 57.8142 119.643 58.1144 119.643 58.6148V157.485C119.643 157.886 119.343 158.286 118.843 158.286C118.342 158.286 118.042 157.986 118.042 157.485V61.3167C117.042 62.1173 115.641 62.9179 113.74 63.6184V162.089C113.74 162.689 114.741 163.29 115.941 163.29C117.142 163.29 118.042 162.689 118.042 162.089C118.042 161.688 118.342 161.288 118.743 161.288C119.143 161.288 119.543 161.588 119.543 161.989C119.543 162.089 119.543 162.189 119.543 162.289C119.343 163.79 117.842 164.791 115.941 164.791Z" fill="black"/>
<path d="M39.8021 164.891C37.9011 164.891 36.4003 163.89 36.2002 162.489C36.2002 162.289 36.2002 162.189 36.2002 162.089V58.6148C36.2002 58.2145 36.5003 57.8142 37.0006 57.8142C37.5009 57.8142 37.801 58.1144 37.801 58.6148C37.801 59.8156 39.702 61.2166 43.1038 62.4175C43.504 62.5176 43.7041 63.0179 43.604 63.4182C43.504 63.8185 43.0037 64.0186 42.6035 63.9186C40.5024 63.118 38.8015 62.3174 37.801 61.4168V162.089C37.801 162.189 37.801 162.189 37.801 162.289C37.9011 162.789 38.7015 163.39 39.9021 163.39C41.2028 163.39 42.0032 162.689 42.0032 162.189V115.055C42.0032 114.655 42.3033 114.255 42.8036 114.255C43.3039 114.255 43.604 114.555 43.604 115.055V162.089C43.4039 163.69 41.8031 164.891 39.8021 164.891Z" fill="black"/>
<path d="M118.843 53.0108C118.443 53.0108 118.042 52.7106 118.042 52.2103C118.042 48.4075 101.534 44.1045 77.8217 44.1045C54.1094 44.1045 37.6009 48.4075 37.6009 52.2103C37.6009 52.6105 37.3008 53.0108 36.8005 53.0108C36.3003 53.0108 36.0001 52.7106 36.0001 52.2103C36.0001 46.0058 57.5112 42.6034 77.7216 42.6034C97.932 42.6034 119.543 46.0058 119.543 52.2103C119.643 52.7106 119.343 53.0108 118.843 53.0108Z" fill="black"/>
<path d="M118.843 59.4153C118.443 59.4153 118.042 59.1151 118.042 58.6147V52.3102C118.042 51.9099 118.343 51.5096 118.843 51.5096C119.343 51.5096 119.643 51.8099 119.643 52.3102V58.6147C119.543 59.015 119.243 59.4153 118.843 59.4153Z" fill="black"/>
<path d="M36.9007 59.4153C36.5005 59.4153 36.1003 59.1151 36.1003 58.6147V52.3102C36.1003 51.9099 36.4004 51.5096 36.9007 51.5096C37.4009 51.5096 37.7011 51.8099 37.7011 52.3102V58.6147C37.6011 59.015 37.3009 59.4153 36.9007 59.4153Z" fill="black"/>
<path d="M77.8216 166.592C62.8139 166.592 47.7061 164.19 47.7061 159.487C47.7061 159.087 48.0063 158.686 48.5065 158.686C49.0068 158.686 49.3069 158.986 49.3069 159.487C49.3069 161.788 60.2126 165.091 77.9217 165.091C78.3219 165.091 78.7221 165.391 78.7221 165.891C78.7221 166.392 78.2218 166.592 77.8216 166.592Z" fill="black"/>
<path d="M77.8217 166.592C77.4214 166.592 77.0212 166.292 77.0212 165.791C77.0212 165.291 77.3214 164.991 77.8217 164.991C95.5308 164.991 106.436 161.788 106.436 159.387C106.436 158.986 106.737 158.586 107.237 158.586C107.737 158.586 108.037 158.886 108.037 159.387C107.937 164.19 92.8294 166.592 77.8217 166.592Z" fill="black"/>
<path d="M107.237 153.983C106.837 153.983 106.436 153.683 106.436 153.182C106.436 136.47 100.433 124.762 87.0265 115.455C86.126 114.855 85.4257 114.154 84.9254 113.254C82.8243 109.851 83.9249 105.348 87.3267 103.247C100.734 95.0407 106.436 84.333 106.436 67.521C106.436 67.1207 106.737 66.7205 107.237 66.7205C107.737 66.7205 108.037 67.0207 108.037 67.521C108.037 84.7333 101.934 96.1415 88.2271 104.547C85.5257 106.249 84.6253 109.751 86.3261 112.553C86.7264 113.254 87.3267 113.854 88.027 114.354C101.934 124.061 108.137 136.07 108.137 153.382C107.937 153.683 107.637 153.983 107.237 153.983Z" fill="#578793"/>
<path d="M107.137 160.287C106.737 160.287 106.336 159.987 106.336 159.487V155.484C102.134 158.586 89.8278 160.187 77.7216 160.187C65.5153 160.187 53.309 158.586 49.1069 155.484V159.487C49.1069 159.887 48.8067 160.287 48.3065 160.287C47.8062 160.287 47.506 159.987 47.506 159.487V153.182C47.506 152.782 47.8062 152.382 48.3065 152.382C48.8067 152.382 49.1069 152.682 49.1069 153.182C49.1069 155.484 60.0125 158.786 77.7216 158.786C95.4307 158.786 106.336 155.484 106.336 153.182C106.336 152.782 106.636 152.382 107.137 152.382C107.637 152.382 107.937 152.682 107.937 153.182V159.487C107.937 159.987 107.637 160.287 107.137 160.287Z" fill="black"/>
<path d="M48.4066 153.983C48.0064 153.983 47.6062 153.683 47.6062 153.182C47.6062 143.776 49.4071 135.97 53.2091 129.365C56.4107 123.761 61.0131 118.958 67.7166 114.154C69.0172 113.254 69.8176 111.953 70.1178 110.352C70.4179 108.75 70.0177 107.249 69.1173 105.948C68.617 105.248 68.0167 104.748 67.3163 104.347C53.8094 96.0414 47.7063 84.6333 47.7063 67.521C47.7063 67.1207 48.0064 66.7205 48.5067 66.7205C49.0069 66.7205 49.3071 67.0207 49.3071 67.521C49.3071 84.333 55.01 94.9406 68.3169 103.247C69.2173 103.747 69.9177 104.447 70.518 105.348C71.6186 106.949 72.1188 108.951 71.7186 110.852C71.3184 112.753 70.3179 114.455 68.7171 115.555C62.2137 120.159 57.8115 124.862 54.7099 130.266C51.108 136.67 49.3071 144.176 49.3071 153.282C49.207 153.583 48.8068 153.983 48.4066 153.983Z" fill="#578793"/>
<path d="M77.8218 68.2216C66.5159 68.2216 56.0105 67.2209 48.3066 65.5197C46.3055 65.1194 44.3045 64.5189 42.4035 63.8184C38.2014 62.3174 36.1003 60.5161 36.1003 58.6147V52.3102C36.1003 51.9099 36.4004 51.5096 36.9007 51.5096C37.4009 51.5096 37.7011 51.8099 37.7011 52.3102V58.6147C37.7011 59.8156 39.6021 61.2166 43.0038 62.4174C44.9048 63.0179 46.8058 63.6183 48.7068 64.0186C56.3107 65.7198 66.716 66.7205 77.9218 66.7205C89.0275 66.7205 99.4329 65.8199 107.137 64.0186C109.038 63.6183 111.039 63.0179 112.84 62.4174C116.242 61.2166 118.143 59.8156 118.143 58.6147V52.3102C118.143 51.9099 118.443 51.5096 118.943 51.5096C119.443 51.5096 119.743 51.8099 119.743 52.3102V58.6147C119.743 60.6161 117.642 62.3174 113.44 63.8184C111.539 64.5189 109.538 65.0193 107.537 65.5197C99.5329 67.2209 89.0275 68.2216 77.8218 68.2216Z" fill="black"/>
<path d="M54.5096 144.976C54.2094 144.976 53.9093 144.776 53.8092 144.576C53.6091 144.176 53.8092 143.776 54.2094 143.575L74.6199 134.069V109.351C74.72 105.648 72.7189 102.346 69.5173 100.545C65.4152 98.3431 61.8133 95.341 59.0119 91.5383C58.8118 91.3381 58.8118 91.0379 58.9118 90.7377C59.0119 90.4375 59.312 90.3374 59.6122 90.3374H96.131C96.4312 90.3374 96.6313 90.5375 96.8314 90.7377C96.9314 91.0379 96.9314 91.3381 96.7313 91.5383C93.8298 95.2409 90.328 98.243 86.2259 100.445C83.0243 102.146 81.0232 105.548 81.1233 109.151V134.069L101.534 143.575C101.934 143.776 102.034 144.176 101.934 144.576C101.734 144.976 101.334 145.076 100.933 144.976L80.1228 135.269C79.8226 135.169 79.7226 134.869 79.7226 134.569V109.351C79.6225 105.148 81.9237 101.245 85.6256 99.2438C89.1274 97.3424 92.1289 94.9407 94.7303 91.9385H61.113C63.6143 94.9407 66.7159 97.4425 70.2177 99.2438C73.9196 101.245 76.2207 105.148 76.1207 109.351V134.469C76.1207 134.769 75.9206 135.069 75.7205 135.169L54.9098 144.876C54.7097 144.976 54.6096 144.976 54.5096 144.976Z" fill="black"/>
<path d="M48.5065 153.983C48.1063 153.983 47.7061 153.583 47.8061 153.182C48.0062 148.979 50.5075 145.277 54.2094 143.575C54.6096 143.375 55.0098 143.575 55.2099 143.976C55.41 144.376 55.2099 144.776 54.8097 144.976C51.508 146.478 49.407 149.68 49.2069 153.382C49.2069 153.683 48.9067 153.983 48.5065 153.983Z" fill="black"/>
<path d="M107.237 153.983C106.837 153.983 106.536 153.683 106.536 153.282C106.336 149.68 104.235 146.478 100.933 144.876C100.533 144.676 100.433 144.276 100.533 143.876C100.733 143.475 101.134 143.375 101.534 143.475C105.336 145.277 107.737 148.979 107.937 153.082C107.937 153.583 107.637 153.883 107.237 153.983Z" fill="black"/>
<path d="M48.5065 68.2215C48.1063 68.2215 47.7061 67.9213 47.7061 67.4209V64.719C47.7061 64.3187 48.0063 63.9184 48.5065 63.9184C49.0068 63.9184 49.3069 64.2186 49.3069 64.719V67.4209C49.2069 67.9213 48.9067 68.2215 48.5065 68.2215Z" fill="black"/>
<path d="M77.8216 74.5262C62.8139 74.5262 47.7061 72.1245 47.7061 67.4211C47.7061 67.0208 48.0063 66.6205 48.5065 66.6205C49.0068 66.6205 49.3069 66.9208 49.3069 67.4211C49.3069 69.7228 60.2126 73.0251 77.9217 73.0251C78.3219 73.0251 78.7221 73.3253 78.7221 73.8257C78.7221 74.3261 78.2218 74.5262 77.8216 74.5262Z" fill="black"/>
<path d="M77.8217 74.5262C77.4214 74.5262 77.0212 74.226 77.0212 73.7256C77.0212 73.2253 77.4214 73.0251 77.8217 73.0251C95.5308 73.0251 106.436 69.8228 106.436 67.4211C106.436 67.0208 106.737 66.6205 107.237 66.6205C107.737 66.6205 108.037 66.9208 108.037 67.4211C107.937 72.1245 92.8294 74.5262 77.8217 74.5262Z" fill="black"/>
<path d="M193.982 81.3309H118.843V177.299H193.982V81.3309Z" fill="white"/>
<path d="M193.981 178H118.843C118.443 178 118.042 177.7 118.042 177.199V81.331C118.042 80.9307 118.343 80.5304 118.843 80.5304H193.981C194.382 80.5304 194.782 80.8306 194.782 81.331V177.299C194.782 177.7 194.382 178 193.981 178ZM119.543 176.499H193.181V82.0315H119.543V176.499Z" fill="black"/>
<path d="M189.579 85.6341H123.245V163.99H189.579V85.6341Z" fill="url(#paint2_linear)"/>
<path d="M170.869 114.455C170.869 117.457 169.869 120.459 168.068 122.861L163.966 128.265C160.764 128.265 158.163 125.663 158.163 122.46V117.757C158.163 116.556 157.162 115.556 156.062 115.556H154.861V110.252H142.555C141.154 110.252 139.953 109.151 139.953 107.65C139.953 106.249 141.054 105.048 142.455 105.048C142.155 103.547 143.055 102.046 144.556 101.746C145.156 101.646 145.756 101.646 146.357 101.946C146.457 100.445 147.657 99.2439 149.158 99.3439C149.859 99.3439 150.559 99.6442 151.059 100.145C151.96 97.7428 156.962 97.2424 158.163 100.145C159.564 98.1431 163.366 99.444 163.366 101.646C165.867 100.945 168.068 102.646 167.668 104.948C169.169 105.048 170.269 106.449 170.169 107.95C170.169 108.35 169.969 108.751 169.769 109.151C171.37 109.851 172.07 111.853 171.37 113.454C171.27 113.954 171.07 114.255 170.869 114.455Z" fill="#211B1A"/>
<path d="M163.966 128.265V137.371C163.966 139.372 162.365 140.974 160.364 140.974H152.66C151.66 140.974 150.759 140.573 150.059 139.873C149.358 139.172 148.958 138.272 148.958 137.271V131.467H146.657C144.756 131.467 143.255 129.966 143.255 128.164V123.361H138.453L142.555 110.252H154.861V115.555H156.062C157.262 115.555 158.163 116.556 158.163 117.657V122.36C158.163 125.763 160.764 128.265 163.966 128.265Z" fill="#824E44"/>
<path d="M126.247 163.99C126.247 150.781 135.851 139.473 148.858 137.371C148.858 138.372 149.258 139.272 149.959 139.973C150.659 140.673 151.56 141.074 152.56 141.074H160.264C162.265 141.074 163.966 139.473 163.966 137.471C176.973 139.573 186.578 150.881 186.578 164.09" fill="#FF7A64"/>
<path d="M152.56 141.874C150.159 141.874 148.158 139.873 148.158 137.471V132.367H146.557C144.256 132.367 142.455 130.566 142.455 128.265V124.262H138.353C138.153 124.262 137.853 124.162 137.753 123.961C137.652 123.761 137.552 123.561 137.652 123.261L141.855 110.152C141.955 109.751 142.355 109.551 142.755 109.651C143.155 109.751 143.355 110.152 143.255 110.552L139.453 122.661H143.255C143.656 122.661 144.056 122.961 144.056 123.461V128.265C144.056 129.666 145.256 130.866 146.657 130.866H148.958C149.358 130.866 149.759 131.167 149.759 131.667V137.471C149.759 139.072 151.059 140.373 152.66 140.373H160.364C161.165 140.373 161.865 140.073 162.465 139.473C162.966 138.972 163.266 138.172 163.266 137.371V128.265C163.266 127.864 163.566 127.464 164.066 127.464C164.566 127.464 164.866 127.764 164.866 128.265V137.371C164.866 138.572 164.366 139.673 163.566 140.473C162.765 141.274 161.665 141.774 160.464 141.774H152.56C152.56 141.874 152.56 141.874 152.56 141.874Z" fill="black"/>
<path d="M159.864 144.976H153.06C149.058 144.976 145.657 142.275 144.656 138.372C144.556 137.971 144.756 137.571 145.156 137.471C145.556 137.371 145.957 137.571 146.057 137.971C146.857 141.174 149.759 143.375 153.06 143.375H159.864C163.166 143.375 166.067 141.174 166.867 137.971C166.967 137.571 167.368 137.371 167.768 137.471C168.168 137.571 168.368 137.971 168.268 138.372C167.368 142.275 163.866 144.976 159.864 144.976Z" fill="#D15D6E"/>
<path d="M186.578 164.691H126.247C126.046 164.691 125.846 164.591 125.746 164.491C125.646 164.39 125.546 164.19 125.546 163.99C125.546 150.38 135.351 138.872 148.858 136.671C149.258 136.571 149.659 136.871 149.759 137.271C149.859 137.671 149.559 138.072 149.158 138.172C136.652 140.173 127.547 150.681 127.147 163.19H185.977C185.677 150.581 176.472 140.073 163.966 138.072C163.566 137.972 163.266 137.571 163.366 137.171C163.466 136.771 163.866 136.471 164.266 136.571C177.773 138.772 187.578 150.28 187.578 163.89C187.378 164.39 186.978 164.691 186.578 164.691Z" fill="black"/>
<path d="M146.057 119.859C145.656 119.859 145.256 119.558 145.256 119.058V117.056C145.256 116.656 145.556 116.256 146.057 116.256C146.557 116.256 146.857 116.556 146.857 117.056V119.058C146.857 119.558 146.457 119.859 146.057 119.859Z" fill="black"/>
<path d="M163.966 129.065C160.364 129.065 157.463 126.163 157.463 122.561V117.857C157.463 117.057 156.862 116.456 156.062 116.456H154.861C154.461 116.456 154.061 116.156 154.061 115.656V111.052H142.555C140.754 111.052 139.253 109.551 139.253 107.75C139.253 106.849 139.553 106.049 140.254 105.448C140.654 105.048 141.254 104.748 141.755 104.548C141.755 103.847 141.955 103.247 142.355 102.646C142.855 101.846 143.656 101.245 144.556 101.045C145.056 100.945 145.456 100.945 145.957 101.045C146.157 100.445 146.457 99.9444 146.957 99.5441C147.658 98.9437 148.558 98.6434 149.458 98.6434C150.059 98.6434 150.559 98.8436 151.059 99.1438C151.86 98.1431 153.16 97.5427 154.761 97.5427C156.362 97.4426 157.763 98.043 158.563 99.1438C159.464 98.5434 160.664 98.4433 161.865 98.8436C163.065 99.2439 163.966 100.044 164.266 100.945C165.567 100.845 166.667 101.145 167.568 101.946C168.268 102.646 168.668 103.547 168.768 104.548C169.369 104.748 169.969 105.148 170.369 105.648C170.97 106.349 171.27 107.25 171.17 108.25C171.17 108.551 171.07 108.851 170.97 109.051C172.47 110.152 173.071 112.153 172.27 113.954C172.17 114.255 171.97 114.555 171.77 114.755C171.67 117.857 170.669 120.859 168.768 123.261L164.666 128.665C164.366 128.965 164.166 129.065 163.966 129.065ZM155.562 114.955H156.062C157.663 114.955 158.963 116.256 158.963 117.857V122.561C158.963 125.162 160.964 127.364 163.566 127.564L167.468 122.46C169.169 120.159 170.169 117.357 170.169 114.555C170.169 114.355 170.269 114.155 170.369 114.054C170.569 113.854 170.669 113.654 170.769 113.354C171.37 112.153 170.769 110.652 169.569 110.052C169.369 109.952 169.269 109.751 169.169 109.551C169.069 109.351 169.169 109.151 169.269 108.951C169.469 108.651 169.569 108.35 169.569 108.05C169.569 107.55 169.469 106.949 169.069 106.549C168.668 106.149 168.268 105.849 167.668 105.849C167.468 105.849 167.268 105.749 167.168 105.548C167.068 105.348 166.967 105.148 167.068 104.948C167.168 104.147 166.967 103.447 166.467 103.047C165.767 102.446 164.766 102.246 163.766 102.546C163.566 102.646 163.266 102.546 163.065 102.446C162.865 102.346 162.765 102.046 162.765 101.846C162.765 101.045 161.965 100.445 161.265 100.245C160.564 100.044 159.464 100.044 158.863 100.745C158.663 100.945 158.463 101.045 158.163 101.045C157.863 101.045 157.663 100.845 157.563 100.545C157.062 99.3439 155.662 98.9437 154.661 98.9437C153.36 98.9437 152.16 99.6442 151.86 100.445C151.76 100.645 151.56 100.845 151.259 100.945C151.059 101.045 150.759 100.945 150.559 100.745C150.159 100.345 149.759 100.145 149.258 100.145C148.758 100.145 148.258 100.345 147.858 100.645C147.457 101.045 147.257 101.445 147.257 102.046C147.257 102.246 147.157 102.546 146.857 102.646C146.557 102.746 146.357 102.746 146.157 102.646C145.757 102.446 145.256 102.446 144.856 102.546C144.356 102.646 143.856 102.947 143.555 103.447C143.255 103.947 143.155 104.448 143.255 105.048C143.255 105.248 143.255 105.548 143.155 105.648C143.055 105.849 142.755 105.949 142.555 105.949C142.055 105.949 141.554 106.149 141.254 106.449C140.954 106.749 140.754 107.25 140.754 107.75C140.754 108.751 141.554 109.551 142.555 109.551H154.861C155.261 109.551 155.662 109.851 155.662 110.352V114.955H155.562Z" fill="black"/>
<path d="M189.579 164.791H123.245C122.845 164.791 122.445 164.49 122.445 163.99V85.6341C122.445 85.2338 122.745 84.8335 123.245 84.8335H189.579C189.979 84.8335 190.379 85.1337 190.379 85.6341V163.99C190.379 164.39 189.979 164.791 189.579 164.791ZM124.045 163.29H188.879V86.3346H124.045V163.29Z" fill="black"/>
<path d="M193.731 108.951C213.37 108.951 229.291 93.2246 229.291 73.8255C229.291 54.4265 213.37 38.7004 193.731 38.7004C174.092 38.7004 158.172 54.4265 158.172 73.8255C158.172 93.2246 174.092 108.951 193.731 108.951Z" fill="#B3FFF0"/>
<path d="M193.731 109.751C173.774 109.751 157.463 93.6397 157.463 73.8256C157.463 54.0114 173.774 38 193.731 38C213.791 38 230 54.1115 230 73.8256C230 93.5397 213.791 109.751 193.731 109.751ZM193.731 39.5011C174.584 39.5011 158.982 54.9121 158.982 73.8256C158.982 92.7391 174.584 108.15 193.731 108.15C212.879 108.15 228.48 92.7391 228.48 73.8256C228.48 54.9121 212.98 39.5011 193.731 39.5011Z" fill="black"/>
<path d="M193.732 104.547C210.909 104.547 224.833 90.7928 224.833 73.8255C224.833 56.8583 210.909 43.1036 193.732 43.1036C176.554 43.1036 162.63 56.8583 162.63 73.8255C162.63 90.7928 176.554 104.547 193.732 104.547Z" fill="white"/>
<path d="M193.731 105.348C176.205 105.348 161.92 91.238 161.92 73.9256C161.92 56.6132 176.205 42.4031 193.731 42.4031C211.258 42.4031 225.543 56.5132 225.543 73.8255C225.543 91.1379 211.359 105.348 193.731 105.348ZM193.731 43.9041C177.015 43.9041 163.44 57.3137 163.44 73.8255C163.44 90.3373 177.015 103.747 193.731 103.747C210.447 103.747 224.023 90.3373 224.023 73.8255C224.023 57.3137 210.549 43.9041 193.731 43.9041Z" fill="#578793"/>
<path d="M212.575 74.6262H173.571C173.166 74.6262 172.76 74.326 172.76 73.8256C172.76 73.3252 173.064 73.025 173.571 73.025H212.575C212.98 73.025 213.385 73.3252 213.385 73.8256C213.385 74.326 212.98 74.6262 212.575 74.6262Z" fill="#0092FF"/>
<path d="M188.565 60.1157C188.261 60.4159 187.754 60.2158 187.45 59.9156C187.146 59.5153 186.741 59.3152 186.133 59.3152C184.816 59.3152 183.904 60.9163 184.006 62.7176C184.31 62.1172 185.12 61.6168 186.133 61.6168C187.855 61.6168 189.173 62.8177 189.173 64.719C189.071 66.5203 187.855 67.8212 185.829 67.8212C184.107 67.8212 182.79 66.5203 182.587 64.5189C182.385 61.5167 182.79 57.8141 186.235 57.9142C187.146 57.9142 188.058 58.2144 188.666 59.115C188.97 59.4152 188.869 59.8155 188.565 60.1157ZM186.032 63.0178C185.12 63.0178 184.208 63.6182 184.208 64.5189C184.208 65.5196 185.019 66.2201 185.931 66.3202C187.045 66.3202 187.653 65.6197 187.653 64.719C187.653 63.7183 186.944 63.0178 186.032 63.0178Z" fill="#0092FF"/>
<path d="M193.123 66.3203C194.643 66.3203 195.352 65.5197 195.352 64.4189C195.352 63.2181 194.44 62.6176 193.427 62.6176C192.617 62.6176 192.009 62.7177 191.097 63.4182C190.895 63.5183 190.591 63.5183 190.388 63.3181C190.186 63.118 190.084 62.9179 190.186 62.6176L190.895 58.4146C190.996 58.0144 191.3 57.8142 191.604 57.8142H195.656C196.061 57.8142 196.365 58.1144 196.365 58.5147C196.365 58.915 196.061 59.3153 195.656 59.3153H192.212L191.705 62.0172C192.11 61.6169 192.921 61.4168 193.529 61.4168C195.352 61.4168 196.872 62.5176 196.872 64.6191C196.872 66.6205 195.352 67.9214 193.123 67.9214C192.009 67.9214 190.895 67.321 190.186 66.4204C189.882 66.1201 189.983 65.6198 190.388 65.3196C190.692 65.1194 191.199 65.2195 191.401 65.5197C191.908 66.0201 192.414 66.3203 193.123 66.3203Z" fill="#0092FF"/>
<path d="M201.431 57.9141C204.268 57.9141 204.977 60.1157 204.977 62.9177C204.977 65.6196 204.268 67.9213 201.431 67.9213C198.594 67.9213 197.885 65.7197 197.885 62.9177C197.784 60.1157 198.594 57.9141 201.431 57.9141ZM201.431 66.3201C203.052 66.3201 203.457 64.719 203.457 62.8176C203.457 60.9163 203.052 59.3151 201.431 59.3151C199.81 59.3151 199.405 60.9163 199.405 62.8176C199.303 64.8191 199.81 66.3201 201.431 66.3201Z" fill="#0092FF"/>
<path d="M178.839 86.7347C178.434 86.7347 178.13 86.4345 178.13 86.0342C178.13 85.634 178.434 85.3337 178.839 85.3337H182.284C182.79 85.3337 182.993 85.634 182.993 86.1343C182.689 89.2365 180.663 90.6375 178.13 90.6375C175.192 90.6375 172.862 88.3359 172.862 85.4338C172.862 82.5317 175.192 80.2301 178.13 80.2301C179.346 80.2301 180.359 80.6304 181.27 81.2308C181.574 81.431 181.676 81.9313 181.372 82.4317C181.068 82.7319 180.561 82.6318 180.257 82.4317C179.65 82.0314 178.94 81.7312 178.231 81.7312C176.205 81.7312 174.584 83.4324 174.584 85.4338C174.584 87.5353 176.205 89.1365 178.231 89.1365C179.953 89.1365 181.068 88.3359 181.473 86.6347H178.839V86.7347Z" fill="#0092FF"/>
<path d="M188.464 80.2301C191.402 80.2301 193.732 82.5317 193.732 85.4338C193.732 88.3359 191.402 90.6375 188.464 90.6375C185.526 90.6375 183.196 88.3359 183.196 85.4338C183.297 82.5317 185.526 80.2301 188.464 80.2301ZM188.464 89.1365C190.49 89.1365 192.111 87.5353 192.111 85.4338C192.111 83.4324 190.49 81.7312 188.464 81.7312C186.437 81.7312 184.817 83.4324 184.817 85.4338C184.817 87.5353 186.437 89.1365 188.464 89.1365Z" fill="#0092FF"/>
<path d="M199.608 80.2301C202.546 80.2301 204.876 82.5317 204.876 85.4338C204.876 88.3359 202.546 90.6375 199.608 90.6375C196.67 90.6375 194.339 88.3359 194.339 85.4338C194.339 82.5317 196.67 80.2301 199.608 80.2301ZM199.608 89.1365C201.634 89.1365 203.255 87.5353 203.255 85.4338C203.255 83.4324 201.634 81.7312 199.608 81.7312C197.581 81.7312 195.96 83.4324 195.96 85.4338C195.96 87.5353 197.581 89.1365 199.608 89.1365Z" fill="#0092FF"/>
<path d="M207.003 90.5375C206.497 90.5375 206.193 90.2372 206.193 89.6368V81.1307C206.193 80.6304 206.598 80.2301 207.003 80.2301H210.144C213.082 80.2301 214.804 82.4317 214.804 85.3337C214.804 88.2358 213.082 90.4374 210.144 90.4374H207.003V90.5375ZM207.712 89.1365H210.144C212.17 89.1365 213.183 87.5353 213.183 85.5339C213.183 83.5325 212.17 81.8312 210.144 81.8312H207.712V89.1365Z" fill="#0092FF"/>
</g>
<defs>
<linearGradient id="paint0_linear" x1="39.7602" y1="61.9072" x2="39.7602" y2="164.58" gradientUnits="userSpaceOnUse">
<stop stop-color="#2945FF"/>
<stop offset="0.03" stop-color="#2855FF"/>
<stop offset="0.09" stop-color="#247AFF"/>
<stop offset="0.16" stop-color="#2299FF"/>
<stop offset="0.23" stop-color="#20B1FF"/>
<stop offset="0.31" stop-color="#1EC2FF"/>
<stop offset="0.4" stop-color="#1DCCFF"/>
<stop offset="0.5" stop-color="#1DCFFF"/>
<stop offset="0.6" stop-color="#1DCCFF"/>
<stop offset="0.69" stop-color="#1EC2FF"/>
<stop offset="0.77" stop-color="#20B1FF"/>
<stop offset="0.84" stop-color="#2299FF"/>
<stop offset="0.91" stop-color="#247AFF"/>
<stop offset="0.97" stop-color="#2855FF"/>
<stop offset="1" stop-color="#2945FF"/>
</linearGradient>
<linearGradient id="paint1_linear" x1="115.943" y1="62.2274" x2="115.943" y2="163.8" gradientUnits="userSpaceOnUse">
<stop stop-color="#2945FF"/>
<stop offset="0.03" stop-color="#2855FF"/>
<stop offset="0.09" stop-color="#247AFF"/>
<stop offset="0.16" stop-color="#2299FF"/>
<stop offset="0.23" stop-color="#20B1FF"/>
<stop offset="0.31" stop-color="#1EC2FF"/>
<stop offset="0.4" stop-color="#1DCCFF"/>
<stop offset="0.5" stop-color="#1DCFFF"/>
<stop offset="0.6" stop-color="#1DCCFF"/>
<stop offset="0.69" stop-color="#1EC2FF"/>
<stop offset="0.77" stop-color="#20B1FF"/>
<stop offset="0.84" stop-color="#2299FF"/>
<stop offset="0.91" stop-color="#247AFF"/>
<stop offset="0.97" stop-color="#2855FF"/>
<stop offset="1" stop-color="#2945FF"/>
</linearGradient>
<linearGradient id="paint2_linear" x1="156.422" y1="164.01" x2="156.422" y2="86.4747" gradientUnits="userSpaceOnUse">
<stop stop-color="#5CA099"/>
<stop offset="0.12" stop-color="#6FAEA7"/>
<stop offset="0.31" stop-color="#87C0B8"/>
<stop offset="0.51" stop-color="#98CCC4"/>
<stop offset="0.73" stop-color="#A2D4CB"/>
<stop offset="1" stop-color="#A5D6CD"/>
</linearGradient>
<clipPath id="clip0">
<rect width="250.1" height="236.3" fill="white"/>
</clipPath>
</defs>
</svg>
