<svg width="82" height="64" viewBox="0 0 82 64" fill="none" xmlns="http://www.w3.org/2000/svg">
<path d="M75.3463 20.8829C72.6355 16.203 69.0152 12.1392 64.7177 8.92372M80.7441 40.8367C80.7257 35.8013 79.7604 30.833 77.9174 26.1875M72.6786 40.8664C72.6638 36.8182 71.8816 32.8243 70.3884 29.0938M68.374 24.9539C66.2045 21.2084 63.3044 17.9578 59.8612 15.3892M55.4903 12.6513C50.972 10.3091 45.9529 9.08722 40.8542 9.09794C35.2851 9.10965 29.817 10.5915 24.9984 13.3948C20.1799 16.1981 16.1802 20.2243 13.4007 25.0695C10.6212 29.9147 9.15966 35.4085 9.16257 40.9999C9.16549 46.5913 10.6328 52.0836 13.4173 56.9259C14.531 58.8625 13.8701 61.3388 11.9412 62.4569C10.0124 63.575 7.546 62.9114 6.43238 60.9749C2.94065 54.9028 1.10068 48.0156 1.09702 41.0042C1.09336 33.9928 2.92615 27.1036 6.41154 21.0279C9.89693 14.9522 14.9123 9.90343 20.9547 6.38819C26.997 2.87294 33.8538 1.01477 40.8373 1.00009C47.3005 0.986496 53.6619 2.55243 59.3755 5.55242M72.2758 46.0469C71.6713 49.8201 70.3937 53.4679 68.4903 56.8101C67.3848 58.7513 68.056 61.2248 69.9894 62.3348C71.9229 63.4448 74.3866 62.7709 75.4921 60.8296C77.9322 56.545 79.5521 51.8599 80.2885 47.0156" stroke="#2945FF" stroke-width="5" stroke-linecap="round"/>
<path d="M40.9205 58.5484C43.6698 58.5484 45.8985 56.3099 45.8985 53.5484C45.8985 51.4981 44.6698 49.7715 42.9117 48.9999V25C42.9117 23.7301 42.0202 23 40.9205 23C39.8208 23 38.9294 23.7301 38.9294 25V48.9645C37.1712 49.736 35.9426 51.4981 35.9426 53.5484C35.9426 56.3099 38.1713 58.5484 40.9205 58.5484Z" stroke="#2945FF" stroke-width="4" stroke-linecap="round" stroke-linejoin="round"/>
</svg>
