<svg width="83" height="52" viewBox="0 0 83 52" fill="none" xmlns="http://www.w3.org/2000/svg">
<g clip-path="url(#clip0_63_72603)">
<path d="M60.2115 0.805817H0.805786V31.7559H60.2115V0.805817Z" fill="#9BDDB6"/>
<path d="M37.022 31.8483H0.805786V0.805817H60.2115V31.7559" stroke="black" stroke-miterlimit="10" stroke-linecap="round" stroke-linejoin="round"/>
<path d="M42.1958 31.8483H0.805786V0.805817H60.2115V31.7559H42.1958V31.8483Z" stroke="black" stroke-miterlimit="10" stroke-linecap="round" stroke-linejoin="round"/>
<path d="M30.5549 26.6745H9.85993C9.85993 24.5495 8.10455 22.7942 5.97961 22.7942V9.85978C8.10455 9.85978 9.85993 8.1044 9.85993 5.97946H30.5549H51.2499C51.2499 8.1044 53.0053 9.85978 55.1302 9.85978V22.7942C53.0053 22.7942 51.2499 24.5495 51.2499 26.6745H30.5549Z" stroke="black" stroke-miterlimit="10" stroke-linecap="round" stroke-linejoin="round"/>
<path d="M18.9141 16.327H13.7404" stroke="black" stroke-miterlimit="10" stroke-linecap="round" stroke-linejoin="round"/>
<path d="M47.3698 16.3269H42.196" stroke="black" stroke-miterlimit="10" stroke-linecap="round" stroke-linejoin="round"/>
<path d="M30.5547 21.5008C33.4188 21.5008 35.7285 19.191 35.7285 16.327C35.7285 13.463 33.4188 11.1533 30.5547 11.1533C27.6907 11.1533 25.381 13.463 25.381 16.327C25.381 19.191 27.6907 21.5008 30.5547 21.5008Z" stroke="black" stroke-miterlimit="10" stroke-linecap="round" stroke-linejoin="round"/>
<path d="M77.3033 26.4897H35.2666V50.8802H77.3033V26.4897Z" fill="white"/>
<path d="M66.032 34.0657H56.3312V50.8804H66.032V34.0657Z" fill="#1DCFFF"/>
<path d="M56.4238 34.0657H46.723V50.8804H56.4238V34.0657Z" fill="#1DCFFF"/>
<path d="M61.505 25.0116C61.505 27.7833 59.1953 30.093 56.4237 30.093C53.652 30.093 51.3423 27.7833 51.3423 25.0116L52.8205 5.88721H60.304L61.505 25.0116Z" fill="#0092FF"/>
<path d="M52.7283 5.97958L51.2501 25.104C51.2501 27.8756 48.9404 30.1853 46.1688 30.1853C43.3971 30.1853 41.0874 27.8756 41.0874 25.104L45.2449 5.97958H52.7283Z" fill="#0092FF"/>
<path d="M45.2445 5.97958L41.1794 25.104C41.1794 27.8756 38.8697 30.1853 36.0981 30.1853C33.3264 30.1853 31.0167 27.8756 31.0167 25.104L36.9296 5.97958H45.2445Z" fill="#0092FF"/>
<path d="M71.6678 25.0116C71.6678 27.7833 69.3581 30.093 66.5865 30.093C63.8148 30.093 61.5051 27.7833 61.5051 25.0116L60.3041 5.88721H67.1408L71.6678 25.0116Z" fill="#0092FF"/>
<path d="M81.8304 25.0116C81.8304 27.7833 79.5207 30.093 76.749 30.093C73.9774 30.093 71.6676 27.7833 71.6676 25.0116L67.0482 5.88721H75.2708L81.8304 25.0116Z" fill="#0092FF"/>
<path d="M41.0873 25.0117C41.0873 27.7833 38.7776 30.093 36.0059 30.093C33.2343 30.093 30.9246 27.7833 30.9246 25.0117" stroke="black" stroke-miterlimit="10" stroke-linecap="round" stroke-linejoin="round"/>
<path d="M51.2501 25.0117C51.2501 27.7833 48.9404 30.093 46.1688 30.093C43.3971 30.093 41.0874 27.7833 41.0874 25.0117" stroke="black" stroke-miterlimit="10" stroke-linecap="round" stroke-linejoin="round"/>
<path d="M61.4125 25.0117C61.4125 27.7833 59.1028 30.093 56.3311 30.093C53.5595 30.093 51.2498 27.7833 51.2498 25.0117" stroke="black" stroke-miterlimit="10" stroke-linecap="round" stroke-linejoin="round"/>
<path d="M71.5751 25.0117C71.5751 27.7833 69.2654 30.093 66.4937 30.093C63.7221 30.093 61.4124 27.7833 61.4124 25.0117" stroke="black" stroke-miterlimit="10" stroke-linecap="round" stroke-linejoin="round"/>
<path d="M81.7378 25.0117C81.7378 27.7833 79.4281 30.093 76.6564 30.093C73.8848 30.093 71.5751 27.7833 71.5751 25.0117" stroke="black" stroke-miterlimit="10" stroke-linecap="round" stroke-linejoin="round"/>
<path d="M45.1525 5.97958L41.0874 25.104L45.1525 5.97958Z" fill="#0092FF"/>
<path d="M45.1525 5.97958L41.0874 25.104" stroke="black" stroke-miterlimit="10" stroke-linecap="round" stroke-linejoin="round"/>
<path d="M52.7281 5.97958L51.3423 25.104" stroke="black" stroke-miterlimit="10" stroke-linecap="round" stroke-linejoin="round"/>
<path d="M60.2117 5.97958L61.4127 25.104" stroke="black" stroke-miterlimit="10" stroke-linecap="round" stroke-linejoin="round"/>
<path d="M67.0482 5.97958L71.6676 25.104" stroke="black" stroke-miterlimit="10" stroke-linecap="round" stroke-linejoin="round"/>
<path d="M35.2666 30.0928V50.8802H77.3033V30.0928" stroke="black" stroke-miterlimit="10" stroke-linecap="round" stroke-linejoin="round"/>
<path d="M35.2666 50.9727H77.3033" stroke="black" stroke-miterlimit="10" stroke-linecap="round" stroke-linejoin="round"/>
<path d="M65.9397 34.0657H46.6305V50.8804H65.9397V34.0657Z" stroke="black" stroke-miterlimit="10" stroke-linecap="round" stroke-linejoin="round"/>
<path d="M56.3312 34.0657V50.8804" stroke="black" stroke-miterlimit="10" stroke-linecap="round" stroke-linejoin="round"/>
<path d="M81.738 25.0116L75.2708 5.88721H36.9296L31.0167 25.0116" stroke="black" stroke-miterlimit="10" stroke-linecap="round" stroke-linejoin="round"/>
<path d="M29.1689 45.5219H23.4408" stroke="black" stroke-miterlimit="10" stroke-linecap="round" stroke-linejoin="round"/>
<path d="M29.1689 37.7611H17.7128" stroke="black" stroke-miterlimit="10" stroke-linecap="round" stroke-linejoin="round"/>
<path d="M13.7402 37.7611H10.4142" stroke="black" stroke-miterlimit="10" stroke-linecap="round" stroke-linejoin="round"/>
</g>
<defs>
<clipPath id="clip0_63_72603">
<rect width="83" height="51.5728" fill="white"/>
</clipPath>
</defs>
</svg>
