<svg width="28" height="28" viewBox="0 0 28 28" fill="none" xmlns="http://www.w3.org/2000/svg">
<path d="M15.248 14H9.41465C9.10523 14 8.80848 14.1229 8.58969 14.3417C8.3709 14.5605 8.24798 14.8572 8.24798 15.1666C8.24798 15.4761 8.3709 15.7728 8.58969 15.9916C8.80848 16.2104 9.10523 16.3333 9.41465 16.3333H15.248C15.5574 16.3333 15.8541 16.2104 16.0729 15.9916C16.2917 15.7728 16.4146 15.4761 16.4146 15.1666C16.4146 14.8572 16.2917 14.5605 16.0729 14.3417C15.8541 14.1229 15.5574 14 15.248 14ZM16.4146 23.3333H7.08132C6.7719 23.3333 6.47515 23.2104 6.25636 22.9916C6.03756 22.7728 5.91465 22.4761 5.91465 22.1666V5.83331C5.91465 5.52389 6.03756 5.22715 6.25636 5.00836C6.47515 4.78956 6.7719 4.66665 7.08132 4.66665H12.9146V8.16665C12.9146 9.0949 13.2834 9.98514 13.9398 10.6415C14.5962 11.2979 15.4864 11.6666 16.4146 11.6666H19.9146V12.8333C19.9146 13.1427 20.0376 13.4395 20.2564 13.6583C20.4752 13.8771 20.7719 14 21.0813 14C21.3907 14 21.6875 13.8771 21.9063 13.6583C22.1251 13.4395 22.248 13.1427 22.248 12.8333V10.5C22.253 10.4769 22.253 10.453 22.248 10.43C22.2381 10.3212 22.2105 10.2148 22.1663 10.115V10.01C22.1102 9.89002 22.0354 9.77976 21.9446 9.68331L14.9446 2.68331C14.8456 2.59029 14.7311 2.51527 14.6063 2.46165C14.6063 2.46165 14.548 2.46165 14.513 2.46165C14.398 2.39512 14.2712 2.35154 14.1396 2.33331H7.13965C6.21139 2.33331 5.32115 2.70206 4.66477 3.35844C4.0084 4.01482 3.63965 4.90506 3.63965 5.83331V22.1666C3.63965 23.0949 4.0084 23.9851 4.66477 24.6415C5.32115 25.2979 6.21139 25.6666 7.13965 25.6666H16.473C16.7824 25.6666 17.0791 25.5437 17.2979 25.3249C17.5167 25.1061 17.6396 24.8094 17.6396 24.5C17.6396 24.1906 17.5167 23.8938 17.2979 23.675C17.0791 23.4562 16.7824 23.3333 16.473 23.3333H16.4146ZM15.248 6.31165L18.258 9.33331H16.4146C16.1052 9.33331 15.8085 9.2104 15.5897 8.9916C15.3709 8.77281 15.248 8.47607 15.248 8.16665V6.31165ZM15.248 18.6666H9.41465C9.10523 18.6666 8.80848 18.7896 8.58969 19.0084C8.3709 19.2271 8.24798 19.5239 8.24798 19.8333C8.24798 20.1427 8.3709 20.4395 8.58969 20.6583C8.80848 20.8771 9.10523 21 9.41465 21H15.248C15.5574 21 15.8541 20.8771 16.0729 20.6583C16.2917 20.4395 16.4146 20.1427 16.4146 19.8333C16.4146 19.5239 16.2917 19.2271 16.0729 19.0084C15.8541 18.7896 15.5574 18.6666 15.248 18.6666ZM9.41465 11.6666H10.5813C10.8907 11.6666 11.1875 11.5437 11.4063 11.3249C11.6251 11.1061 11.748 10.8094 11.748 10.5C11.748 10.1906 11.6251 9.89382 11.4063 9.67502C11.1875 9.45623 10.8907 9.33331 10.5813 9.33331H9.41465C9.10523 9.33331 8.80848 9.45623 8.58969 9.67502C8.3709 9.89382 8.24798 10.1906 8.24798 10.5C8.24798 10.8094 8.3709 11.1061 8.58969 11.3249C8.80848 11.5437 9.10523 11.6666 9.41465 11.6666Z" fill="#2945FF"/>
<path d="M21.5718 23.5317C21.633 23.5748 21.6914 23.6215 21.7468 23.6717C21.8533 23.7848 21.9401 23.9149 22.0035 24.0567C22.0765 24.2344 22.1045 24.4273 22.085 24.6184C22.0655 24.8094 21.9992 24.9928 21.8918 25.152C21.7845 25.3113 21.6395 25.4416 21.4697 25.5314C21.2999 25.6212 21.1106 25.6677 20.9185 25.6667C20.6124 25.6654 20.3191 25.5439 20.1018 25.3284C19.9925 25.2199 19.9057 25.0909 19.8465 24.9487C19.7872 24.8065 19.7567 24.654 19.7567 24.5C19.7567 24.346 19.7872 24.1935 19.8465 24.0513C19.9057 23.9092 19.9925 23.7801 20.1018 23.6717C20.2377 23.5372 20.4045 23.4381 20.5875 23.3832C20.7706 23.3283 20.9644 23.3192 21.1518 23.3567C21.3013 23.3891 21.4436 23.4484 21.5718 23.5317Z" fill="#2945FF"/>
<path d="M19.1672 15.635C19.6997 15.3278 20.3038 15.1663 20.9185 15.1667C21.8468 15.1667 22.737 15.5354 23.3934 16.1918C24.0498 16.8482 24.4185 17.7384 24.4185 18.6667C24.4185 19.5949 24.0498 20.4852 23.3934 21.1416C22.737 21.7979 21.8468 22.1667 20.9185 22.1667C20.6091 22.1667 20.3123 22.0438 20.0936 21.825C19.8748 21.6062 19.7518 21.3094 19.7518 21C19.7518 20.6906 19.8748 20.3939 20.0936 20.1751C20.3123 19.9563 20.6091 19.8334 20.9185 19.8334C21.1236 19.8346 21.3254 19.7817 21.5035 19.6801C21.6817 19.5785 21.8299 19.4317 21.9332 19.2546C22.0366 19.0775 22.0914 18.8762 22.0922 18.6711C22.093 18.466 22.0397 18.2643 21.9376 18.0864C21.8356 17.9085 21.6885 17.7606 21.5112 17.6577C21.3338 17.5547 21.1324 17.5004 20.9273 17.5C20.7222 17.4997 20.5207 17.5535 20.343 17.6559C20.1653 17.7583 20.0177 17.9057 19.9152 18.0834C19.8386 18.2166 19.7365 18.3335 19.6147 18.4274C19.4929 18.5212 19.3538 18.5901 19.2054 18.6302C19.057 18.6703 18.9021 18.6808 18.7497 18.661C18.5972 18.6412 18.4501 18.5916 18.3168 18.515C18.1836 18.4384 18.0667 18.3363 17.9728 18.2145C17.879 18.0927 17.8101 17.9537 17.77 17.8053C17.7299 17.6568 17.7194 17.502 17.7392 17.3495C17.759 17.1971 17.8086 17.05 17.8852 16.9167C18.1926 16.3843 18.6347 15.9422 19.1672 15.635Z" fill="#2945FF"/>
</svg>
