<svg width="28" height="28" viewBox="0 0 28 28" fill="none" xmlns="http://www.w3.org/2000/svg">
<path d="M25.5734 13.5333C23.2167 8.06167 18.7834 4.66667 14 4.66667C9.21668 4.66667 4.78335 8.06167 2.42668 13.5333C2.36244 13.6805 2.32928 13.8394 2.32928 14C2.32928 14.1606 2.36244 14.3195 2.42668 14.4667C4.78335 19.9383 9.21668 23.3333 14 23.3333C18.7834 23.3333 23.2167 19.9383 25.5734 14.4667C25.6376 14.3195 25.6708 14.1606 25.6708 14C25.6708 13.8394 25.6376 13.6805 25.5734 13.5333ZM14 21C10.3017 21 6.80168 18.3283 4.78335 14C6.80168 9.67167 10.3017 7 14 7C17.6984 7 21.1984 9.67167 23.2167 14C21.1984 18.3283 17.6984 21 14 21ZM14 9.33334C13.077 9.33334 12.1748 9.60703 11.4074 10.1198C10.6399 10.6326 10.0418 11.3614 9.68858 12.2141C9.33537 13.0669 9.24295 14.0052 9.42302 14.9104C9.60308 15.8157 10.0475 16.6472 10.7002 17.2998C11.3528 17.9525 12.1844 18.3969 13.0896 18.577C13.9948 18.7571 14.9332 18.6646 15.7859 18.3114C16.6386 17.9582 17.3674 17.3601 17.8802 16.5927C18.393 15.8252 18.6667 14.923 18.6667 14C18.6667 12.7623 18.175 11.5753 17.2998 10.7002C16.4247 9.825 15.2377 9.33334 14 9.33334ZM14 16.3333C13.5385 16.3333 13.0874 16.1965 12.7037 15.9401C12.32 15.6837 12.0209 15.3193 11.8443 14.8929C11.6677 14.4666 11.6215 13.9974 11.7115 13.5448C11.8016 13.0922 12.0238 12.6764 12.3501 12.3501C12.6764 12.0238 13.0922 11.8015 13.5448 11.7115C13.9974 11.6215 14.4666 11.6677 14.8929 11.8443C15.3193 12.0209 15.6837 12.32 15.9401 12.7037C16.1965 13.0874 16.3334 13.5385 16.3334 14C16.3334 14.6188 16.0875 15.2123 15.6499 15.6499C15.2123 16.0875 14.6189 16.3333 14 16.3333Z" fill="#2945FF"/>
</svg>
