<svg width="416" height="416" viewBox="0 0 416 416" fill="none" xmlns="http://www.w3.org/2000/svg">
<g clip-path="url(#clip0_6848_71965)">
<path d="M416.244 160.132C416.078 70.603 342.681 -0.987494 252.142 -3.84906e-05C191.727 0.658265 139.301 33.9026 112.006 82.7817C105.682 94.1374 96.0286 103.354 84.2119 109.114C57.4163 122.28 34.1158 143.51 18.6376 171.653C-20.474 242.42 4.8237 332.114 75.2245 372.929C107.013 391.362 142.63 396.957 176.415 391.526C188.066 389.716 199.882 391.855 209.702 398.274C238.827 417.2 276.774 421.973 311.392 407.655C352.833 390.374 377.965 350.711 377.965 308.744C377.965 284.387 383.457 260.195 395.607 238.8C408.755 215.594 416.244 188.769 416.244 160.132Z" fill="#E8F4FE"/>
<path d="M408.756 269.322L349.986 301.588C349.822 301.588 349.822 301.588 349.657 301.752L311.3 322.824L308.666 324.305L271.955 344.554C271.791 344.554 271.791 344.554 271.626 344.719L236.068 364.309C236.891 364.803 237.714 365.296 238.537 365.79L272.614 347.023C272.779 347.023 272.779 347.023 272.943 347.023L311.3 325.952L313.934 324.47L350.645 304.222C350.809 304.222 350.809 304.222 350.974 304.222L399.702 277.388L408.921 272.285L411.555 270.803C411.555 270.145 411.555 269.486 411.72 268.828C411.72 268.499 411.72 268.169 411.72 267.84L408.756 269.322Z" fill="#83DCFF"/>
<path d="M369.247 312.453L347.846 324.306L311.465 344.389L291.71 355.254C291.546 355.254 291.546 355.254 291.381 355.419L257.14 374.351C258.127 374.68 259.28 375.009 260.267 375.503L292.369 357.888C292.533 357.888 292.533 357.888 292.698 357.888L311.63 347.517L341.426 331.055L353.114 324.635L408.427 294.18C408.592 293.357 408.921 292.369 409.086 291.546C409.086 291.381 409.25 291.052 409.25 290.887H409.086L369.247 312.453Z" fill="#83DCFF"/>
<path d="M378.96 317.885L367.272 324.305L311.3 355.09L301.258 360.522C301.094 360.522 301.094 360.522 300.929 360.687L269.486 377.972C270.639 378.301 271.956 378.466 273.108 378.795L301.752 362.992C301.917 362.992 301.917 362.992 302.081 362.992L311.3 357.888L350.81 336.158L372.21 324.305L403.818 306.855C404.312 305.703 404.641 304.551 405.135 303.398L378.96 317.885Z" fill="#83DCFF"/>
<path d="M388.673 323.153L386.697 324.305L359.699 339.121C359.535 339.121 359.535 339.121 359.37 339.286L311.3 365.79L310.642 366.119L284.302 380.606C285.784 380.771 287.265 380.935 288.747 380.935L311.136 368.589L311.465 368.424C311.63 368.424 311.63 368.424 311.794 368.424L360.522 341.591L391.801 324.47L397.233 321.507C397.892 320.19 398.55 318.873 399.373 317.556L388.673 323.153Z" fill="#83DCFF"/>
<path d="M408.427 280.187C408.263 280.187 408.263 280.187 408.098 280.351L359.37 307.185L328.092 324.305L311.136 333.689L281.668 349.986C281.504 349.986 281.504 349.986 281.339 350.151L245.781 369.741C246.768 370.235 247.592 370.564 248.579 371.058L282.327 352.456C282.491 352.456 282.491 352.456 282.656 352.456L311.3 336.652L331.384 325.622L333.36 324.47L360.358 309.654C360.522 309.654 360.522 309.654 360.687 309.654L408.757 283.15L409.415 282.821L410.567 282.162C410.732 281.174 410.897 280.187 410.897 279.199L408.757 280.351L408.427 280.187Z" fill="#83DCFF"/>
<path d="M369.247 344.554L320.519 371.387L311.3 376.491L303.234 380.935C305.209 380.771 307.349 380.606 309.325 380.442L311.3 379.289L370.07 346.859C370.235 346.859 370.235 346.859 370.4 346.859L385.71 338.463C387.027 336.817 388.179 335.171 389.496 333.524L369.577 344.554C369.412 344.554 369.247 344.554 369.247 344.554Z" fill="#83DCFF"/>
<path d="M367.93 356.078L333.524 375.009C346.036 370.564 357.724 364.144 367.93 356.078Z" fill="#83DCFF"/>
<path d="M243.641 330.726L255.329 324.305L311.301 293.521L321.343 287.924C321.507 287.924 321.507 287.924 321.672 287.924L399.373 245.122C399.538 245.122 399.538 245.122 399.703 245.122L408.757 240.184C408.592 239.36 408.428 238.537 408.098 237.714L398.715 242.818C398.55 242.818 398.55 242.818 398.386 242.982L320.684 285.784C320.519 285.784 320.519 285.784 320.355 285.949L311.136 291.052L271.627 312.782L250.226 324.635L213.844 344.719L206.93 348.505C207.918 348.999 208.741 349.328 209.729 349.822L213.844 347.517L243.641 330.726Z" fill="#83DCFF"/>
<path d="M253.353 336.158L274.754 324.305L311.136 304.222L330.891 293.357C331.055 293.357 331.055 293.357 331.22 293.357L379.948 266.523L408.592 250.719L408.921 250.555C409.086 250.555 409.086 250.555 409.251 250.555L410.403 249.896C410.238 249.073 410.238 248.25 410.074 247.427L408.757 248.085L408.098 248.415L330.397 291.216C330.232 291.216 330.232 291.216 330.067 291.381L311.136 301.752L281.339 318.214L269.651 324.635L217.301 353.114C218.124 353.608 219.112 354.102 219.935 354.431L253.353 336.158Z" fill="#83DCFF"/>
<path d="M263.231 341.426L294.509 324.305L311.465 314.922L341.097 298.624C341.261 298.624 341.261 298.624 341.426 298.624L390.154 271.791L409.086 261.42L411.72 259.938C411.72 258.951 411.555 258.127 411.555 257.304L409.086 258.621L340.274 296.32C340.109 296.32 340.109 296.32 339.944 296.484L311.3 312.288L291.216 323.318L289.241 324.47L262.243 339.286C262.078 339.286 262.078 339.286 261.914 339.451L226.849 358.712C227.672 359.205 228.495 359.699 229.154 360.193L263.231 341.426Z" fill="#83DCFF"/>
<path d="M216.478 324.305L253.189 304.057C253.353 304.057 253.353 304.057 253.518 304.057L302.246 277.224L311.465 272.12L379.948 234.422C380.112 234.422 380.112 234.422 380.277 234.422L402.995 221.91C402.665 221.087 402.336 220.429 402.007 219.606L379.454 232.117C379.289 232.117 379.289 232.117 379.124 232.282L330.396 259.115L311.465 269.486L252.695 301.752C252.53 301.752 252.53 301.752 252.365 301.917L214.008 322.988L211.374 324.47L183.224 339.945C184.376 340.274 185.529 340.603 186.681 340.932L213.844 325.952L216.478 324.305Z" fill="#83DCFF"/>
<path d="M233.928 325.293L235.903 324.141L262.901 309.325C263.066 309.325 263.066 309.325 263.23 309.325L311.3 282.821L311.959 282.491L389.66 239.69C389.825 239.69 389.825 239.69 389.989 239.69L406.287 230.8C405.958 229.977 405.793 229.154 405.464 228.495L389.166 237.55C389.002 237.55 389.002 237.55 388.837 237.714L340.109 264.548L311.465 280.351L311.136 280.516C310.971 280.516 310.971 280.516 310.806 280.681L262.078 307.514L230.8 324.635L213.844 334.018L195.571 344.06C196.559 344.389 197.546 344.883 198.699 345.212L213.844 336.817L233.928 325.293Z" fill="#83DCFF"/>
<path d="M213.844 293.521L223.886 287.924C224.051 287.924 224.051 287.924 224.215 287.924L301.917 245.122C302.082 245.122 302.082 245.122 302.246 245.122L311.465 240.019L350.975 218.289L372.375 206.436L389.002 197.217C388.508 196.559 388.014 195.9 387.521 195.242L378.96 199.851L367.272 206.271L311.301 237.056L301.259 242.488C301.094 242.488 301.094 242.488 300.929 242.653L223.228 285.455C223.063 285.455 223.063 285.455 222.898 285.619L213.68 290.723L174.17 312.453L152.769 324.305L135.978 333.524C137.46 333.689 138.941 333.854 140.423 333.854L146.185 330.726L157.873 324.305L213.844 293.521Z" fill="#83DCFF"/>
<path d="M213.844 304.222L233.599 293.356C233.763 293.356 233.763 293.356 233.928 293.356L282.656 266.523L311.3 250.719L311.629 250.555C311.794 250.555 311.794 250.555 311.959 250.555L360.687 223.721L391.965 206.601L394.434 205.284C393.94 204.625 393.611 203.802 393.117 203.144L388.837 205.448L386.862 206.601L359.864 221.417C359.699 221.417 359.699 221.417 359.534 221.581L311.465 248.085L310.806 248.415L233.105 291.216C232.94 291.216 232.94 291.216 232.775 291.381L213.844 301.752L184.047 318.214L172.359 324.635L153.757 334.841C153.921 334.841 154.086 334.841 154.415 334.841C155.732 335.006 157.049 335.006 158.202 335.171L177.627 324.47L213.844 304.222Z" fill="#83DCFF"/>
<path d="M213.844 314.922L243.476 298.624C243.641 298.624 243.641 298.624 243.805 298.624L292.533 271.791L311.465 261.42L370.235 228.989C370.4 228.989 370.4 228.989 370.564 228.989L399.044 213.35C398.715 212.692 398.221 211.869 397.891 211.21L369.741 226.685C369.576 226.685 369.576 226.685 369.412 226.849L320.519 253.518L311.3 258.621L242.817 296.32C242.653 296.32 242.653 296.32 242.488 296.484L213.844 312.288L193.76 323.318L191.785 324.47L169.396 336.817C170.713 336.981 171.865 337.311 173.182 337.64L196.888 324.635L213.844 314.922Z" fill="#83DCFF"/>
<path d="M126.43 287.924C126.594 287.924 126.594 287.924 126.759 287.924L204.461 245.122C204.625 245.122 204.625 245.122 204.79 245.122L214.009 240.019L253.518 218.289L274.919 206.436L311.3 186.352L331.055 175.487C331.22 175.487 331.22 175.487 331.384 175.487L351.139 164.622C350.316 164.128 349.328 163.634 348.505 163.305L330.397 173.182C330.232 173.182 330.232 173.182 330.067 173.347L311.136 183.718L281.339 200.18L269.651 206.601L213.68 237.385L203.638 242.818C203.473 242.818 203.473 242.818 203.308 242.982L125.607 285.784C125.442 285.784 125.442 285.784 125.277 285.948L116.059 291.052L76.5493 312.782L74.2446 314.099C75.0677 314.593 75.8908 315.087 76.714 315.58L116.059 293.85L126.43 287.924Z" fill="#83DCFF"/>
<path d="M136.142 293.357C136.307 293.357 136.307 293.357 136.472 293.357L185.2 266.523L213.844 250.719L214.173 250.555C214.338 250.555 214.338 250.555 214.503 250.555L263.231 223.721L294.509 206.601L311.465 197.217L341.097 180.92C341.262 180.92 341.262 180.92 341.426 180.92L360.852 170.219C360.028 169.725 359.37 169.231 358.547 168.738L340.768 178.615C340.603 178.615 340.603 178.615 340.438 178.78L311.794 194.583L291.71 205.613L289.735 206.765L262.737 221.581C262.572 221.581 262.572 221.581 262.408 221.746L214.338 248.25L213.679 248.579L135.978 291.381C135.813 291.381 135.813 291.381 135.649 291.546L116.717 301.917L86.9204 318.379L84.7803 319.531C85.768 320.025 86.5911 320.355 87.5789 320.848L116.882 304.715L136.142 293.357Z" fill="#83DCFF"/>
<path d="M146.02 298.624C146.185 298.624 146.185 298.624 146.349 298.624L195.077 271.791L214.009 261.42L272.779 228.989C272.944 228.989 272.944 228.989 273.108 228.989L311.465 207.918L314.099 206.436L350.81 186.188C350.975 186.188 350.975 186.188 351.139 186.188L369.083 176.31C368.424 175.816 367.766 175.158 366.943 174.664L350.316 183.883C350.151 183.883 350.151 183.883 349.987 184.047L311.63 205.119L308.996 206.601L272.285 226.849C272.121 226.849 272.121 226.849 271.956 227.014L223.063 253.518L213.844 258.621L145.362 296.32C145.197 296.32 145.197 296.32 145.032 296.484L116.388 312.288L96.3041 323.318L95.3164 323.976C95.8103 324.141 96.1395 324.305 96.6334 324.47C97.1272 324.635 97.6211 324.799 98.115 324.964C98.2796 324.964 98.2796 324.964 98.4442 325.129L99.5966 324.47L116.553 315.087L146.02 298.624Z" fill="#83DCFF"/>
<path d="M155.897 304.057L204.625 277.224L213.844 272.12L282.327 234.422C282.491 234.422 282.491 234.422 282.656 234.422L311.3 218.618L331.384 207.588L333.36 206.436L360.358 191.62C360.522 191.62 360.522 191.62 360.687 191.62L376.326 183.06C375.668 182.401 375.174 181.907 374.515 181.249L359.535 189.48L328.256 206.601L311.3 215.984L281.833 232.282C281.668 232.282 281.668 232.282 281.504 232.446L232.776 259.28L213.844 269.651L155.074 301.917C154.909 301.917 154.909 301.917 154.745 302.081L116.388 323.153L113.754 324.635L107.169 328.256C108.321 328.586 109.474 328.915 110.461 329.244L116.223 326.116L118.857 324.635L155.568 304.386C155.732 304.057 155.897 304.057 155.897 304.057Z" fill="#83DCFF"/>
<path d="M117.046 282.491L194.748 239.69C194.912 239.69 194.912 239.69 195.077 239.69L214.009 229.319L243.805 212.856L255.493 206.436L311.465 175.652L321.507 170.055C321.671 170.055 321.671 170.055 321.836 170.055L341.097 159.519C340.109 159.025 339.286 158.696 338.298 158.202L321.013 167.75C320.848 167.75 320.848 167.75 320.684 167.914L311.465 173.018L271.956 194.748L250.555 206.601L214.173 226.685L194.419 237.55C194.254 237.55 194.254 237.55 194.089 237.714L145.361 264.548L116.717 280.351L116.388 280.516C116.223 280.516 116.223 280.516 116.058 280.681L67.3303 307.514L65.6841 308.502C66.0133 308.831 66.5072 308.996 66.8364 309.325C67.1657 309.489 67.4949 309.819 67.9888 309.983C67.9888 309.983 67.9888 309.983 68.1534 309.983L68.4827 309.819C68.6473 309.819 68.6473 309.819 68.8119 309.819L116.882 283.315L117.046 282.491Z" fill="#83DCFF"/>
<path d="M136.472 325.293L138.447 324.141L165.445 309.325C165.61 309.325 165.61 309.325 165.774 309.325L213.844 282.821L214.503 282.491L292.204 239.69C292.369 239.69 292.369 239.69 292.533 239.69L311.465 229.319L341.262 212.856L352.95 206.436L383.076 189.809C382.582 189.151 381.923 188.492 381.429 187.998L369.412 194.583L348.011 206.436L311.63 226.52L291.875 237.385C291.71 237.385 291.71 237.385 291.546 237.55L242.818 264.383L214.173 280.187L213.844 280.351C213.679 280.351 213.679 280.351 213.515 280.516L164.787 307.349L133.344 324.305L120.668 331.22C121.985 331.549 123.137 331.713 124.454 331.878L136.472 325.293Z" fill="#83DCFF"/>
<path d="M58.4407 68.3181L107.169 41.4847L111.449 39.18C109.474 39.6739 107.333 40.3323 105.358 40.9908C103.383 41.6493 101.407 42.3078 99.4316 42.9663L58.1115 65.6842C57.9469 65.6842 57.9469 65.8488 57.7822 65.8488C57.453 66.178 57.1238 66.3426 56.7945 66.6719C53.9959 68.812 51.362 71.1167 48.728 73.586L58.2761 68.3181H58.4407Z" fill="#83DCFF"/>
<path d="M28.9735 170.055C29.1381 170.055 29.1381 170.055 29.3027 170.055L107.004 127.253C107.169 127.253 107.169 127.253 107.334 127.253L116.552 122.15L156.062 100.419L177.463 88.5666L213.844 68.4827L232.282 58.2762C231.459 57.7823 230.636 57.2884 229.977 56.7946L213.844 65.6842L184.048 82.1464L172.359 88.5666L116.388 119.351L106.346 124.783C106.181 124.783 106.181 124.783 106.017 124.948L28.315 167.75C28.1504 167.75 28.1504 167.75 27.9858 167.914L18.7669 173.018L0 183.224C0 184.212 0 185.035 0 186.023L18.9315 175.652L28.9735 170.055Z" fill="#83DCFF"/>
<path d="M38.6861 175.487C38.8507 175.487 38.8507 175.487 39.0154 175.487L87.7435 148.654L116.388 132.85L116.717 132.685C116.882 132.685 116.882 132.685 117.046 132.685L165.774 105.852L197.053 88.7313L214.009 79.3478L241.007 64.5318C240.348 64.038 239.525 63.3795 238.867 62.8856L214.009 76.5493L193.925 87.5789L191.949 88.7313L164.951 103.547C164.787 103.547 164.787 103.547 164.622 103.712L116.388 130.051L115.729 130.381L38.0276 173.182C37.863 173.182 37.863 173.182 37.6984 173.347L18.7668 183.718L0.164551 193.925C0.164551 194.748 0.329173 195.736 0.329173 196.559L18.7668 186.352L38.6861 175.487Z" fill="#83DCFF"/>
<path d="M48.5634 180.755C48.7281 180.755 48.7281 180.755 48.8927 180.755L97.6208 153.922L116.552 143.55L175.322 111.12C175.487 111.12 175.487 111.12 175.652 111.12L214.009 90.0482L216.643 88.5666L248.744 70.7875C248.085 70.129 247.427 69.6351 246.768 69.1412L213.844 87.2497L211.21 88.7313L174.499 108.98C174.335 108.98 174.335 108.98 174.17 109.144L125.607 135.649L116.388 140.752L47.9049 178.45C47.7403 178.45 47.7403 178.45 47.5757 178.615L18.9315 194.254L1.31689 203.967C1.48152 204.79 1.48152 205.613 1.64614 206.436V206.601L1.97538 206.436L18.9315 197.053L48.5634 180.755Z" fill="#83DCFF"/>
<path d="M19.2608 132.685C19.4254 132.685 19.4254 132.685 19.59 132.685L68.3182 105.852L99.5964 88.7312L116.552 79.3478L146.184 63.0502C146.349 63.0502 146.349 63.0502 146.514 63.0502L189.645 39.3446C188.492 39.0154 187.34 38.6861 186.188 38.5215L145.361 60.5808C145.197 60.5808 145.197 60.5808 145.032 60.7455L116.388 76.5492L96.3039 87.5789L94.3285 88.7312L67.3305 103.547C67.1658 103.547 67.1658 103.547 67.0012 103.712L18.9315 130.051L18.2731 130.381L7.90187 136.142C7.57262 137.295 7.07876 138.447 6.74951 139.599L18.9315 132.85L19.2608 132.685Z" fill="#83DCFF"/>
<path d="M77.7015 111.12C77.8661 111.12 77.8661 111.12 78.0308 111.12L116.388 90.0483L119.022 88.5667L155.732 68.3182C155.897 68.3182 155.897 68.3182 156.062 68.3182L201.827 43.131C200.839 42.8017 199.851 42.3079 198.699 41.9786L155.074 65.8488C154.909 65.8488 154.909 65.8488 154.745 66.0135L116.388 87.0851L113.754 88.5667L77.2077 108.815C77.043 108.815 77.043 108.815 76.8784 108.98L28.1503 135.649L18.9314 140.752L4.28007 148.818C4.28007 149.148 4.11545 149.312 4.11545 149.641C3.95083 150.465 3.7862 151.288 3.62158 152.111L19.0961 143.55L77.7015 111.12Z" fill="#83DCFF"/>
<path d="M19.59 164.622L97.2916 121.82C97.4562 121.82 97.4562 121.82 97.6208 121.82L116.552 111.449L146.349 94.9869L158.037 88.5667L214.009 57.7823L223.227 52.679C222.404 52.1852 221.581 51.6913 220.594 51.1974L214.009 54.8191L174.499 76.5492L153.098 88.402L116.388 108.651L96.6331 119.516C96.4685 119.516 96.4685 119.516 96.3039 119.68L47.5757 146.349L18.9315 162.153L18.6022 162.317C18.4376 162.317 18.4376 162.317 18.273 162.482L0.329173 172.359C0.329173 172.359 0.329173 172.359 0.329173 172.524C0.329173 173.512 0.164551 174.499 0.164551 175.323L18.7668 165.116L19.59 164.622Z" fill="#83DCFF"/>
<path d="M39.0154 89.5544L40.9909 88.402L67.9889 73.586C68.1535 73.586 68.1536 73.586 68.3182 73.586L116.388 47.0819L117.046 46.7526L139.764 34.2413C137.624 34.406 135.649 34.5706 133.673 34.8998L116.552 44.2833L116.059 44.4479C115.894 44.4479 115.894 44.4479 115.729 44.6125L67.0012 71.4459L35.723 88.5666L33.089 90.0482C31.7721 91.6944 30.4551 93.3407 29.3027 94.9869L39.0154 89.5544Z" fill="#83DCFF"/>
<path d="M48.7283 94.9869L60.4165 88.5666L116.388 57.7823L126.43 52.1852C126.595 52.1852 126.595 52.1852 126.759 52.1852L159.519 34.2413C157.873 34.0767 156.391 34.0767 154.745 34.0767L125.936 49.8804C125.771 49.8804 125.771 49.8804 125.607 50.0451L116.388 55.1483L76.8787 76.8785L55.4778 88.7313L21.0718 107.498C20.4133 108.651 19.5902 109.967 18.9317 111.12C18.7671 111.284 18.7671 111.449 18.7671 111.614L18.9317 111.449L48.7283 94.9869Z" fill="#83DCFF"/>
<path d="M58.4407 100.419L79.8416 88.5667L116.223 68.4828L135.978 57.6177C136.142 57.6177 136.142 57.6177 136.307 57.6177L175.322 36.0522C174.005 35.8876 172.688 35.5584 171.371 35.3937L135.484 55.1484C135.319 55.1484 135.319 55.1484 135.155 55.313L116.223 65.6842L86.4265 82.1464L74.7383 88.5667L18.7668 119.351L13.1697 122.479C12.6758 123.631 12.0173 124.948 11.5234 126.265L18.7668 122.314L58.4407 100.419Z" fill="#83DCFF"/>
<path d="M87.7437 266.359L116.388 250.555L116.717 250.39C116.882 250.39 116.882 250.39 117.046 250.39L165.775 223.557L197.053 206.436L214.009 197.053L243.641 180.755C243.805 180.755 243.805 180.755 243.97 180.755L292.698 153.922L311.63 143.55L313.276 142.563C312.782 142.069 312.124 141.74 311.63 141.246C311.465 141.081 311.3 141.081 311.136 140.917L243.147 178.286C242.982 178.286 242.982 178.286 242.818 178.45L214.173 194.254L194.09 205.284L192.114 206.436L165.116 221.252C164.951 221.252 164.951 221.252 164.787 221.417L116.717 247.921L116.059 248.25L42.6372 288.583C43.2957 289.241 43.7896 289.735 44.4481 290.393L87.7437 266.359Z" fill="#83DCFF"/>
<path d="M97.4564 271.791L116.388 261.42L175.158 228.989C175.323 228.989 175.323 228.989 175.487 228.989L213.844 207.918L216.478 206.436L253.189 186.187C253.353 186.187 253.353 186.187 253.518 186.187L302.246 159.354L311.465 154.251L321.672 148.654C320.849 148.16 320.19 147.666 319.367 147.172L311.465 151.452L252.695 183.718C252.53 183.718 252.53 183.718 252.366 183.883L214.009 204.954L211.375 206.436L174.664 226.685C174.499 226.685 174.5 226.685 174.335 226.849L125.607 253.518L116.388 258.621L49.3867 295.497C50.0452 296.155 50.7037 296.649 51.3622 297.307L97.4564 271.791Z" fill="#83DCFF"/>
<path d="M107.169 277.223L116.388 272.12L184.871 234.422C185.035 234.422 185.035 234.422 185.2 234.422L213.844 218.618L233.928 207.588L235.904 206.436L262.902 191.62C263.066 191.62 263.066 191.62 263.231 191.62L311.301 165.116L311.959 164.787L330.726 154.415C329.903 153.922 329.08 153.428 328.257 152.934L311.301 162.153L310.971 162.317C310.807 162.317 310.807 162.317 310.642 162.482L261.914 189.315L230.636 206.436L213.68 215.819L184.212 232.117C184.048 232.117 184.048 232.117 183.883 232.282L135.155 259.115L116.223 269.486L57.6179 301.588C57.4533 301.588 57.4533 301.588 57.2886 301.752L57.124 301.917C57.124 301.917 57.124 301.917 57.2886 301.917C57.9471 302.411 58.441 302.905 59.0995 303.398C59.2641 303.398 59.2641 303.563 59.4287 303.563L107.169 277.223Z" fill="#83DCFF"/>
<path d="M68.318 223.557L99.5961 206.436L116.552 197.053L146.184 180.755C146.349 180.755 146.349 180.755 146.513 180.755L195.242 153.922L214.173 143.55L272.943 111.12C273.108 111.12 273.108 111.12 273.272 111.12L279.857 107.498C279.363 106.84 278.87 106.181 278.54 105.358L272.449 108.651C272.285 108.651 272.285 108.651 272.12 108.815L223.392 135.649L214.173 140.752L145.69 178.45C145.526 178.45 145.526 178.45 145.361 178.615L116.388 194.254L96.3037 205.284L94.3282 206.436L67.3302 221.252C67.1656 221.252 67.1656 221.252 67.001 221.417L18.9313 247.921L18.2728 248.25L15.145 249.896C15.4743 250.555 15.8035 251.378 16.2974 252.036L18.9313 250.555L19.2606 250.39C19.4252 250.39 19.4252 250.39 19.5898 250.39L68.318 223.557Z" fill="#83DCFF"/>
<path d="M78.0306 228.989L116.388 207.918L119.022 206.436L155.732 186.188C155.897 186.188 155.897 186.188 156.062 186.188L204.79 159.354L214.008 154.251L282.491 116.552C282.656 116.552 282.656 116.552 282.821 116.552L285.29 115.071C284.796 114.412 284.302 113.754 283.808 113.095L281.997 114.083C281.833 114.083 281.833 114.083 281.668 114.248L232.94 141.081L213.844 151.452L155.074 183.718C154.909 183.718 154.909 183.718 154.745 183.883L116.388 204.954L113.754 206.436L77.0429 226.685C76.8783 226.685 76.8783 226.685 76.7136 226.849L28.1501 253.518L19.7544 258.127C20.0836 258.786 20.5775 259.609 21.0714 260.267L77.866 228.989C77.866 228.989 77.866 228.989 78.0306 228.989Z" fill="#83DCFF"/>
<path d="M87.7437 234.257L116.388 218.453L136.472 207.424L138.447 206.271L165.445 191.455C165.61 191.455 165.61 191.455 165.775 191.455L213.844 164.951L214.503 164.622L291.381 122.314C290.887 121.656 290.229 120.997 289.735 120.339L242.653 146.349L214.009 162.153L213.68 162.317C213.515 162.317 213.515 162.317 213.35 162.482L164.458 189.315L133.179 206.436L116.388 215.655L86.9206 231.952C86.756 231.952 86.756 231.952 86.5913 232.117L37.8632 258.951L24.5288 266.194C25.0227 266.852 25.5165 267.511 25.8458 268.334L87.4144 234.422C87.5791 234.422 87.7437 234.422 87.7437 234.257Z" fill="#83DCFF"/>
<path d="M97.4564 239.69L116.388 229.319L146.185 212.856L157.873 206.436L213.844 175.652L223.886 170.055C224.051 170.055 224.051 170.055 224.215 170.055L297.966 129.393C297.308 128.734 296.814 128.241 296.155 127.582L223.392 167.585C223.228 167.585 223.228 167.585 223.063 167.75L213.844 172.853L174.335 194.583L152.934 206.436L116.553 226.52L96.7979 237.385C96.6333 237.385 96.6333 237.385 96.4687 237.55L47.7405 264.383L30.126 274.096C30.6198 274.754 31.1137 275.413 31.6076 276.071L97.4564 239.854C97.2918 239.69 97.4564 239.69 97.4564 239.69Z" fill="#83DCFF"/>
<path d="M107.169 245.122L116.388 240.019L155.897 218.289L177.298 206.436L213.68 186.352L233.434 175.487C233.599 175.487 233.599 175.487 233.763 175.487L282.492 148.654L304.88 136.307C304.222 135.813 303.563 135.155 302.905 134.496L232.776 173.018C232.611 173.018 232.611 173.018 232.446 173.182L213.515 183.554L183.718 200.016L172.03 206.436L116.059 237.22L106.017 242.653C105.852 242.653 105.852 242.653 105.687 242.818L35.8877 281.504C36.3816 282.162 37.0401 282.821 37.5339 283.479L107.004 245.122H107.169Z" fill="#83DCFF"/>
<path d="M21.5652 206.436L58.2759 186.188C58.4405 186.188 58.4405 186.188 58.6051 186.188L107.333 159.354L116.552 154.251L185.035 116.552C185.2 116.552 185.2 116.552 185.364 116.552L214.008 100.749L234.092 89.719L236.068 88.5667L256.152 77.537C255.493 76.8785 254.999 76.3846 254.341 75.7261L230.964 88.5667L214.008 97.9501L184.376 114.083C184.212 114.083 184.212 114.083 184.047 114.248L135.319 141.081L116.387 151.452L57.6174 183.718C57.4528 183.718 57.4528 183.718 57.2882 183.883L18.9312 204.954L16.2973 206.436L2.96289 213.844C3.12751 214.667 3.29213 215.49 3.45676 216.313L18.9312 207.753L21.5652 206.436Z" fill="#83DCFF"/>
<path d="M39.0156 207.424L40.9911 206.271L67.9891 191.455C68.1537 191.455 68.1537 191.455 68.3183 191.455L116.388 164.951L117.046 164.622L194.748 121.82C194.913 121.82 194.913 121.82 195.077 121.82L214.009 111.449L243.805 94.9869L255.494 88.5666L262.737 84.6157C262.243 83.9572 261.585 83.2987 261.091 82.8049L250.39 88.7313L213.844 108.651L194.09 119.516C193.925 119.516 193.925 119.516 193.76 119.68L145.032 146.349L116.388 162.153L116.059 162.317C115.894 162.317 115.894 162.317 115.729 162.482L67.0013 189.315L35.7231 206.436L18.9317 215.655L5.26807 223.228C5.43269 224.051 5.76193 224.874 5.92655 225.697L18.9317 218.453L39.0156 207.424Z" fill="#83DCFF"/>
<path d="M48.728 212.856L60.4162 206.436L116.388 175.652L126.43 170.055C126.594 170.055 126.594 170.055 126.759 170.055L204.46 127.253C204.625 127.253 204.625 127.253 204.79 127.253L214.009 122.15L253.518 100.419L268.828 92.0237C268.334 91.3652 267.84 90.7067 267.346 90.0482L214.009 119.351L203.967 124.783C203.802 124.783 203.802 124.783 203.637 124.948L125.936 167.75C125.771 167.75 125.771 167.75 125.606 167.914L116.388 173.018L76.8784 194.748L55.4775 206.601L19.096 226.685L8.23096 232.611C8.5602 233.434 8.72482 234.257 9.05407 234.916L19.096 229.319L48.728 212.856Z" fill="#83DCFF"/>
<path d="M58.4409 218.289L79.8418 206.436L116.223 186.352L135.978 175.487C136.143 175.487 136.143 175.487 136.307 175.487L185.035 148.654L213.68 132.85L214.009 132.685C214.173 132.685 214.173 132.685 214.338 132.685L263.066 105.852L274.26 99.7609C273.767 99.1024 273.273 98.4439 272.943 97.7855L262.408 103.547C262.243 103.547 262.243 103.547 262.078 103.712L213.844 130.051L213.186 130.381L135.484 173.182C135.319 173.182 135.319 173.182 135.155 173.347L116.223 183.718L86.4266 200.18L74.7385 206.601L18.767 237.385L11.1943 241.501C11.5236 242.324 11.8528 242.982 12.1821 243.805L18.767 240.184L58.4409 218.289Z" fill="#83DCFF"/>
<path d="M9.71262 159.354L18.9315 154.251L87.4142 116.552C87.5789 116.552 87.5789 116.552 87.7435 116.552L116.388 100.749L136.472 89.719L138.447 88.5666L165.445 73.7507C165.61 73.7507 165.61 73.7507 165.774 73.7507L213.021 47.7404C212.033 47.2465 211.21 46.9173 210.222 46.588L164.457 71.446L133.344 88.5666L116.388 97.9501L86.9204 114.248C86.7558 114.248 86.7558 114.248 86.5911 114.412L37.863 141.081L18.9315 151.452L1.81076 160.836C1.64614 161.823 1.48152 162.976 1.31689 163.964L9.71262 159.354Z" fill="#83DCFF"/>
<g clip-path="url(#clip1_6848_71965)">
<path d="M188.539 49.5974C252.037 17.6766 325.489 45.1353 344.367 98.6799C325.489 49.0825 265.251 29.5182 206.215 59.3796C170.69 77.2278 139.113 108.805 117.317 144.502L99.8125 134.72C121.608 98.1651 152.327 67.7888 188.539 49.5974Z" fill="#1DCFFF"/>
<path d="M99.8125 134.72L117.317 143.987C93.9775 182.086 81.4494 226.02 81.4494 271.842V295.525L63.9445 285.743V262.059C63.7729 217.096 77.159 172.475 99.8125 134.72Z" fill="#2945FF"/>
<path d="M81.4492 271.842V295.525L171.548 244.04L351.231 145.531V138.495C351.231 128.541 350.373 121.505 347.971 110.007C347.113 106.059 345.911 102.455 344.538 98.8515V98.6799C325.489 49.0825 265.251 29.5182 206.215 59.3796C132.591 96.4489 81.4492 183.459 81.4492 271.842ZM96.2083 272.013C96.2083 230.139 108.908 188.092 130.875 152.053C151.984 117.215 181.674 88.0396 216.684 69.6766C218.915 68.4753 221.146 67.4456 223.377 66.5875C256.327 52.3433 288.42 57.3201 310.043 76.198C326.175 90.2706 336.644 111.036 336.644 139.696L275.033 172.819C275.033 159.947 270.228 149.993 262.505 143.987C257.185 139.868 250.664 137.637 243.456 137.637C237.106 137.637 230.413 139.353 223.548 142.957C207.588 151.538 194.373 165.267 185.106 181.228C182.188 186.205 179.786 191.353 177.898 196.673C174.637 205.254 173.264 212.29 172.406 219.498C172.063 222.931 171.891 226.363 171.891 229.795L96.2083 272.013Z" fill="#0092FF"/>
<path d="M96.2085 272.013L171.72 229.452C171.72 226.02 171.892 222.588 172.235 219.155C173.265 212.119 174.466 205.083 177.727 196.33C179.786 191.01 182.189 185.861 184.935 180.885L130.875 152.053C108.908 188.092 96.2085 230.139 96.2085 272.013Z" fill="#FF7A64"/>
<path d="M262.333 143.815C269.885 149.822 274.862 159.776 274.862 172.647L336.472 139.525C336.472 110.865 326.003 90.099 309.871 76.0264L262.333 143.815Z" fill="#FFF46C"/>
<path d="M223.205 66.4158L223.377 142.785C230.241 139.182 236.934 137.465 243.284 137.465C250.492 137.465 257.185 139.696 262.334 143.815L309.872 76.0264C288.248 57.3201 256.156 52.1716 223.205 66.4158Z" fill="#FFDA3E"/>
<path d="M130.875 152.053L184.934 181.056C194.202 165.096 207.588 151.366 223.377 142.786L223.205 66.4159C220.974 67.4456 218.743 68.4753 216.512 69.505C181.674 88.0397 151.984 117.215 130.875 152.053Z" fill="#FF9C8F"/>
<path d="M81.4494 296.726C81.2778 296.726 81.1062 296.726 80.7629 296.555L63.0864 286.772C62.3999 286.429 62.2283 285.571 62.5715 285.056C62.9148 284.37 63.7728 284.198 64.2877 284.541L81.9643 294.323C82.6507 294.667 82.8223 295.525 82.4791 296.04C82.3075 296.383 81.9643 296.726 81.4494 296.726Z" fill="black"/>
<path d="M344.538 100.053C344.024 100.053 343.509 99.7096 343.337 99.1947C335.099 77.7426 318.624 61.2673 297 52.8581C270.057 42.3894 237.278 45.1353 206.73 60.5809C206.043 60.9241 205.357 60.5809 205.014 60.066C204.67 59.3795 205.014 58.6931 205.529 58.3498C236.591 42.7327 270.228 39.8152 297.859 50.6271C320.169 59.3795 337.159 76.3696 345.74 98.5083C345.911 99.1947 345.74 99.8812 345.053 100.224C344.71 100.053 344.538 100.053 344.538 100.053Z" fill="#2945FF"/>
<path d="M117.317 145.703C117.146 145.703 116.802 145.703 116.631 145.531C115.944 145.188 115.773 144.33 116.116 143.815L117.317 141.927C139.971 104.858 170.519 76.0265 205.529 58.3499C206.215 58.0067 206.901 58.3499 207.245 58.8647C207.588 59.5512 207.245 60.2377 206.73 60.5809C172.063 77.9143 142.03 106.574 119.548 143.129L118.347 145.017C118.175 145.531 117.832 145.703 117.317 145.703Z" fill="#2945FF"/>
<path d="M96.2089 273.386C95.694 273.386 95.3508 273.215 95.0076 272.7C94.6643 272.013 94.8359 271.327 95.5224 270.984L171.034 228.422C171.72 228.079 172.407 228.251 172.75 228.937C173.093 229.624 172.922 230.31 172.235 230.653L96.7237 273.215C96.5521 273.386 96.3805 273.386 96.2089 273.386Z" fill="black"/>
<path d="M274.862 173.848C274.347 173.848 274.004 173.677 273.661 173.162C273.318 172.475 273.489 171.789 274.176 171.446L335.786 138.323C336.473 137.98 337.159 138.152 337.502 138.838C337.846 139.525 337.674 140.211 336.988 140.554L275.549 173.677C275.377 173.848 275.034 173.848 274.862 173.848Z" fill="black"/>
<path d="M223.377 144.158C222.691 144.158 222.176 143.644 222.004 142.957L221.833 66.5875C221.833 65.901 222.347 65.2145 223.034 65.2145C223.72 65.2145 224.235 65.7294 224.407 66.4159L224.75 142.785C224.75 143.472 224.064 144.158 223.377 144.158Z" fill="#FF7A64"/>
<path d="M184.935 182.257C184.763 182.257 184.591 182.257 184.248 182.086L130.36 153.083C129.674 152.739 129.502 151.881 129.845 151.366C130.189 150.68 130.875 150.508 131.562 150.852L185.621 179.855C186.307 180.198 186.479 181.056 186.136 181.571C185.964 182.086 185.449 182.257 184.935 182.257Z" fill="#D15D6E"/>
<path d="M262.334 145.188C262.163 145.188 261.819 145.188 261.648 145.017C261.133 144.673 260.961 143.815 261.305 143.3L308.843 75.5116C309.186 74.9968 310.044 74.8251 310.559 75.1684C311.074 75.5116 311.245 76.3697 310.902 76.8846L263.364 144.673C263.192 145.017 262.849 145.188 262.334 145.188Z" fill="#E5B14A"/>
<path d="M171.549 230.653C170.862 230.653 170.176 230.139 170.176 229.281C170.176 225.848 170.347 222.416 170.862 218.984C171.72 212.29 173.093 204.911 176.526 195.987C185.278 172.647 202.097 152.739 222.691 141.584C235.734 134.548 249.291 134.205 259.932 140.554C270.229 146.733 276.064 158.403 276.064 172.475C276.064 173.162 275.549 173.848 274.691 173.848C273.833 173.848 273.318 173.333 273.318 172.475C273.318 159.261 267.826 148.449 258.387 142.785C248.605 136.951 235.905 137.294 223.72 143.815C203.813 154.799 187.509 174.02 178.928 197.017C175.839 205.254 174.466 211.947 173.437 219.498C173.093 222.931 172.922 226.191 172.922 229.624C172.922 230.139 172.407 230.653 171.549 230.653Z" fill="black"/>
<path d="M96.2089 273.386C95.5224 273.386 94.8359 272.871 94.8359 272.013C94.8359 189.465 144.605 105.888 215.998 68.4753C216.684 68.1321 217.371 68.4753 217.714 68.9902C218.057 69.6766 217.885 70.3631 217.199 70.7063C146.664 107.776 97.4102 190.495 97.4102 272.013C97.4102 272.7 96.8953 273.386 96.2089 273.386Z" fill="black"/>
<path d="M309.872 77.3994C309.529 77.3994 309.185 77.2278 309.014 77.0561C285.159 56.2905 249.977 53.8878 217.199 70.7063C216.512 71.0495 215.826 70.7063 215.482 70.1915C215.139 69.505 215.482 68.8185 215.997 68.4753C249.806 51.1419 286.017 53.7162 310.73 75.1684C311.245 75.6832 311.245 76.3697 310.902 77.0561C310.558 77.2278 310.215 77.3994 309.872 77.3994Z" fill="black"/>
<path d="M336.473 140.898C335.786 140.898 335.1 140.383 335.1 139.525C335.1 113.267 326.347 92.3301 308.842 77.0562C308.328 76.5413 308.328 75.8549 308.671 75.1684C309.186 74.6535 309.872 74.6535 310.559 74.9968C328.578 90.7856 337.674 112.409 337.674 139.353C337.846 140.211 337.159 140.898 336.473 140.898Z" fill="black"/>
<path d="M351.232 146.904C350.545 146.904 349.859 146.389 349.859 145.531V138.495C349.859 129.056 349.001 122.191 346.598 110.178C346.427 109.492 346.941 108.805 347.628 108.634C348.314 108.462 349.001 108.977 349.172 109.663C351.747 121.848 352.433 128.884 352.433 138.495V145.531C352.433 146.389 351.918 146.904 351.232 146.904Z" fill="black"/>
<path d="M347.971 111.38C347.456 111.38 346.941 111.036 346.77 110.35C345.912 106.574 344.71 102.799 343.337 99.1948C343.166 98.5083 343.337 97.8218 344.024 97.4786C344.71 97.307 345.397 97.4786 345.74 98.1651C347.113 101.941 348.314 105.716 349.344 109.663C349.516 110.35 349.001 111.036 348.314 111.208C348.143 111.38 347.971 111.38 347.971 111.38Z" fill="black"/>
<path d="M81.4496 296.726C80.7631 296.726 80.0767 296.211 80.0767 295.353V271.67C80.0767 227.908 92.9479 182.601 116.116 143.644C116.459 142.957 117.318 142.785 117.832 143.129C118.519 143.472 118.691 144.33 118.347 144.845C95.3506 183.459 82.8225 228.594 82.6509 271.842V295.525C82.8225 296.04 82.1361 296.726 81.4496 296.726Z" fill="black"/>
<path d="M171.549 245.241C171.034 245.241 170.691 245.069 170.347 244.555C170.004 243.868 170.176 243.182 170.862 242.838L350.545 144.502C351.232 144.158 351.918 144.33 352.262 145.017C352.605 145.703 352.433 146.389 351.747 146.733L172.235 245.241C172.064 245.241 171.892 245.241 171.549 245.241Z" fill="black"/>
<path d="M81.4496 296.726C80.9347 296.726 80.5915 296.554 80.2483 296.04C79.905 295.353 80.0767 294.667 80.7631 294.323L170.862 243.01C171.549 242.667 172.235 242.838 172.578 243.525C172.922 244.211 172.75 244.898 172.063 245.241L81.9644 296.555C81.9644 296.726 81.6212 296.726 81.4496 296.726Z" fill="black"/>
<path d="M188.538 50.7986C188.195 50.7986 187.852 50.627 187.68 50.4554C187.509 50.2838 187.337 49.9406 187.337 49.5973C187.337 49.4257 187.337 49.2541 187.509 49.0825C187.509 48.9109 187.68 48.7392 187.852 48.7392C187.852 48.5676 187.852 48.396 188.023 48.396C188.538 48.2244 189.053 48.396 189.396 48.7392C189.568 48.9109 189.568 48.9109 189.74 49.0825C189.74 49.2541 189.911 49.4257 189.911 49.5973C189.911 49.9406 189.74 50.2838 189.568 50.4554C189.225 50.7986 188.881 50.7986 188.538 50.7986Z" fill="black"/>
<path d="M344.538 100.224C344.023 100.224 343.509 99.8812 343.337 99.3663C334.928 75.6832 315.192 56.1188 289.106 45.6502C257.357 32.9505 220.974 34.6667 189.053 50.7987C188.367 51.1419 187.68 50.7987 187.337 50.2838C186.994 49.5973 187.337 48.9109 187.852 48.5676C220.459 32.0924 257.528 30.2046 289.964 43.2475C316.736 54.0594 337.159 74.1386 345.74 98.5082C345.911 99.1947 345.568 99.8812 344.881 100.224C344.881 100.224 344.71 100.224 344.538 100.224Z" fill="black"/>
<path d="M63.9442 286.944C63.2578 286.944 62.5713 286.429 62.5713 285.571V261.888C62.5713 173.505 114.228 85.6369 188.023 48.396C188.71 48.0527 189.396 48.396 189.74 48.9108C190.083 49.5973 189.74 50.2838 189.225 50.627C116.116 87.5247 65.1455 174.363 65.1455 262.059V285.743C65.1455 286.429 64.6307 286.944 63.9442 286.944Z" fill="black"/>
<path d="M117.317 145.703C117.146 145.703 116.974 145.703 116.631 145.531L99.1259 135.749C98.4395 135.406 98.2678 134.548 98.6111 134.033C98.9543 133.347 99.8124 133.175 100.327 133.518L117.832 143.3C118.519 143.644 118.69 144.502 118.347 145.017C118.175 145.531 117.832 145.703 117.317 145.703Z" fill="black"/>
<path d="M351.232 178.482L323.258 193.927L238.994 147.248L267.139 131.63L351.232 178.482Z" fill="#B3FFF0"/>
<path d="M351.232 178.482V281.452L267.139 328.132V293.809L295.113 278.191V243.868L323.258 228.251V193.927L351.232 178.482Z" fill="#5CA099"/>
<path d="M295.113 243.868V278.191L211.021 231.512V197.188L295.113 243.868Z" fill="#88B9B3"/>
<path d="M295.113 278.191L267.139 293.809L183.047 247.129L211.02 231.512L295.113 278.191Z" fill="#B3FFF0"/>
<path d="M267.139 293.809V328.132L183.047 281.452V247.129L267.139 293.809Z" fill="#88B9B3"/>
<path d="M323.258 228.251L295.113 243.868L211.021 197.188L238.994 181.571L323.258 228.251Z" fill="#B3FFF0"/>
<path d="M323.258 193.927V228.251L238.994 181.571V147.248L323.258 193.927Z" fill="#88B9B3"/>
<path d="M267.139 329.162C266.968 329.162 266.796 329.162 266.453 328.99L182.36 282.31C181.674 281.967 181.502 281.109 181.845 280.594C182.189 279.908 183.047 279.736 183.562 280.079L267.654 326.759C268.34 327.102 268.512 327.96 268.169 328.475C267.997 328.99 267.482 329.162 267.139 329.162Z" fill="black"/>
<path d="M267.139 294.838C266.968 294.838 266.796 294.838 266.453 294.667L182.36 247.987C181.674 247.644 181.502 246.785 181.845 246.271C182.189 245.584 183.047 245.412 183.562 245.756L267.654 292.436C268.34 292.779 268.512 293.637 268.169 294.152C267.997 294.667 267.482 294.838 267.139 294.838Z" fill="#578793"/>
<path d="M295.113 279.221C294.941 279.221 294.77 279.221 294.426 279.05L210.334 232.37C209.647 232.026 209.476 231.168 209.819 230.654C210.162 229.967 211.02 229.795 211.535 230.139L295.628 276.819C296.314 277.162 296.486 278.02 296.142 278.535C295.971 279.05 295.628 279.221 295.113 279.221Z" fill="#578793"/>
<path d="M295.113 244.898C294.941 244.898 294.77 244.898 294.426 244.726L210.334 198.046C209.647 197.703 209.476 196.845 209.819 196.33C210.162 195.644 211.02 195.472 211.535 195.815L295.628 242.495C296.314 242.838 296.486 243.696 296.142 244.211C295.971 244.726 295.628 244.898 295.113 244.898Z" fill="#578793"/>
<path d="M323.258 229.452C323.086 229.452 322.915 229.452 322.571 229.281L238.479 182.601C237.792 182.257 237.621 181.399 237.964 180.885C238.307 180.37 239.165 180.026 239.68 180.37L323.773 227.05C324.459 227.393 324.631 228.251 324.288 228.766C324.116 229.109 323.601 229.452 323.258 229.452Z" fill="#578793"/>
<path d="M323.258 194.957C323.086 194.957 322.915 194.957 322.571 194.786L238.479 148.106C237.792 147.762 237.621 146.904 237.964 146.389C238.307 145.875 239.165 145.531 239.68 145.875L323.773 192.554C324.459 192.898 324.631 193.756 324.288 194.271C324.116 194.786 323.601 194.957 323.258 194.957Z" fill="#578793"/>
<path d="M351.231 179.512C351.06 179.512 350.888 179.512 350.545 179.34L266.453 132.66C265.766 132.317 265.594 131.459 265.938 130.944C266.281 130.257 267.139 130.086 267.654 130.429L351.746 177.109C352.433 177.452 352.604 178.31 352.261 178.825C352.09 179.168 351.746 179.512 351.231 179.512Z" fill="black"/>
<path d="M295.113 279.221C294.426 279.221 293.74 278.706 293.74 277.848V243.525C293.74 242.838 294.255 242.152 295.113 242.152C295.971 242.152 296.486 242.667 296.486 243.525V277.848C296.486 278.706 295.799 279.221 295.113 279.221Z" fill="black"/>
<path d="M267.139 294.838C266.624 294.838 266.281 294.667 265.938 294.152C265.594 293.465 265.766 292.779 266.453 292.436L294.426 276.819C295.113 276.475 295.799 276.647 296.142 277.333C296.486 278.02 296.314 278.706 295.627 279.05L267.654 294.667C267.482 294.838 267.311 294.838 267.139 294.838Z" fill="black"/>
<path d="M267.139 329.162C266.453 329.162 265.766 328.647 265.766 327.789V293.465C265.766 292.779 266.281 292.092 267.139 292.092C267.997 292.092 268.512 292.607 268.512 293.465V327.789C268.34 328.647 267.826 329.162 267.139 329.162Z" fill="black"/>
<path d="M267.139 329.162C266.624 329.162 266.281 328.99 265.938 328.475C265.594 327.789 265.766 327.102 266.453 326.759L349.858 280.422V180.37L323.773 194.957C323.086 195.3 322.4 195.129 322.057 194.442C321.713 193.756 321.885 193.069 322.571 192.726L350.545 177.109C350.888 176.937 351.403 176.937 351.746 177.109C352.09 177.281 352.433 177.795 352.433 178.139V281.109C352.433 281.624 352.261 281.967 351.746 282.31L267.654 328.99C267.482 329.162 267.311 329.162 267.139 329.162Z" fill="black"/>
<path d="M295.113 244.898C294.598 244.898 294.255 244.726 293.911 244.211C293.568 243.525 293.74 242.838 294.426 242.495L322.4 226.878C323.086 226.535 323.773 226.706 324.116 227.393C324.459 228.079 324.288 228.766 323.601 229.109L295.628 244.726C295.628 244.898 295.284 244.898 295.113 244.898Z" fill="black"/>
<path d="M323.258 229.452C322.571 229.452 321.885 228.937 321.885 228.079V193.756C321.885 193.069 322.4 192.383 323.258 192.383C324.116 192.383 324.631 192.898 324.631 193.756V228.079C324.459 228.766 323.944 229.452 323.258 229.452Z" fill="black"/>
<path d="M211.02 232.541C210.334 232.541 209.647 232.026 209.647 231.168V196.845C209.647 196.158 210.162 195.472 211.02 195.472C211.878 195.472 212.393 195.987 212.393 196.845V231.168C212.393 232.026 211.707 232.541 211.02 232.541Z" fill="black"/>
<path d="M183.047 248.158C182.532 248.158 182.189 247.987 181.845 247.472C181.502 246.786 181.674 246.099 182.36 245.756L210.334 230.139C211.02 229.795 211.707 229.967 212.05 230.654C212.393 231.34 212.222 232.026 211.535 232.37L183.562 247.987C183.39 248.158 183.218 248.158 183.047 248.158Z" fill="black"/>
<path d="M183.047 282.482C182.36 282.482 181.674 281.967 181.674 281.109V246.786C181.674 246.099 182.189 245.413 183.047 245.413C183.905 245.413 184.42 245.927 184.42 246.786V281.109C184.248 281.967 183.733 282.482 183.047 282.482Z" fill="black"/>
<path d="M238.994 148.277C238.479 148.277 238.136 148.106 237.793 147.591C237.449 146.904 237.621 146.218 238.308 145.875L266.281 130.257C266.968 129.914 267.654 130.086 267.997 130.772C268.341 131.459 268.169 132.145 267.482 132.488L239.509 148.106C239.509 148.277 239.337 148.277 238.994 148.277Z" fill="black"/>
<path d="M211.02 198.218C210.506 198.218 210.162 198.046 209.819 197.531C209.476 196.845 209.647 196.158 210.334 195.815L238.308 180.198C238.994 179.855 239.68 180.026 240.024 180.713C240.367 181.399 240.195 182.086 239.509 182.429L211.535 198.046C211.535 198.218 211.192 198.218 211.02 198.218Z" fill="black"/>
<path d="M238.994 182.601C238.308 182.601 237.621 182.086 237.621 181.228V146.904C237.621 146.218 238.136 145.531 238.994 145.531C239.852 145.531 240.367 146.046 240.367 146.904V181.228C240.367 182.086 239.852 182.601 238.994 182.601Z" fill="black"/>
<path d="M132.248 380.132H252.037C256.156 380.132 259.931 378.416 262.677 375.67C265.423 372.924 267.139 369.148 267.139 365.03V349.927H147.35V365.03C147.35 369.148 145.634 372.924 142.888 375.67C140.142 378.416 136.367 380.132 132.248 380.132Z" fill="url(#paint0_linear_6848_71965)"/>
<path d="M117.146 231.34V364.515C117.146 372.924 124.01 380.132 132.419 380.132C136.538 380.132 140.314 378.416 142.888 375.67C145.634 372.924 147.35 369.148 147.35 365.029V349.927H237.278V231.34H117.146Z" fill="white"/>
<path d="M252.037 381.333H132.248C131.561 381.333 130.875 380.818 130.875 379.96C130.875 379.102 131.39 378.587 132.248 378.587C135.852 378.587 139.456 377.214 142.03 374.64C144.604 372.066 146.149 368.633 146.149 364.858V349.756C146.149 349.069 146.664 348.383 147.522 348.383H267.311C267.997 348.383 268.684 348.898 268.684 349.756V364.858C268.684 369.148 266.967 373.267 263.878 376.356C260.446 379.617 256.327 381.333 252.037 381.333ZM141 378.759H252.037C255.641 378.759 259.245 377.386 261.819 374.812C264.393 372.237 265.938 368.805 265.938 365.03V351.3H148.552V365.03C148.552 369.32 146.835 373.439 143.746 376.528C142.888 377.386 142.03 378.244 141 378.759Z" fill="black"/>
<path d="M132.248 381.333C123.152 381.333 115.944 373.954 115.944 365.03V231.34C115.944 230.653 116.459 229.967 117.317 229.967H237.449C238.136 229.967 238.822 230.482 238.822 231.34V349.927C238.822 350.614 238.307 351.3 237.449 351.3H148.552V365.03C148.552 369.32 146.835 373.439 143.746 376.528C140.657 379.617 136.538 381.333 132.248 381.333ZM118.347 232.541V365.03C118.347 372.581 124.525 378.759 132.076 378.759C135.68 378.759 139.284 377.386 141.859 374.812C144.433 372.237 145.977 368.805 145.977 365.03V349.927C145.977 349.241 146.492 348.554 147.35 348.554H235.905V232.541H118.347Z" fill="black"/>
<path d="M216.341 293.294H134.994C134.308 293.294 133.621 292.779 133.621 291.921C133.621 291.063 134.136 290.548 134.994 290.548H216.341C217.027 290.548 217.714 291.063 217.714 291.921C217.714 292.779 217.027 293.294 216.341 293.294Z" fill="#0092FF"/>
<path d="M160.737 279.049C164.684 279.049 167.43 276.475 167.43 272.7C167.43 268.924 164.855 266.35 161.251 266.35C159.02 266.35 157.476 267.551 157.133 268.581L156.789 269.267V268.409C156.618 266.006 157.304 263.604 158.677 262.231C159.535 261.373 160.393 260.858 161.595 260.858C162.796 260.858 163.654 261.373 164.512 262.231C165.027 262.746 165.885 263.089 166.4 262.574C167.086 262.059 167.086 261.373 166.743 260.686C165.542 259.142 163.997 258.284 161.766 258.284C161.595 258.284 161.595 258.284 161.423 258.284C159.535 258.284 157.991 258.97 156.789 260C154.215 262.746 154.044 268.066 154.215 272.013C154.558 276.304 157.133 279.049 160.737 279.049ZM157.991 269.954C158.677 269.267 159.879 268.752 160.908 268.752C162.968 268.752 164.512 270.297 164.512 272.528C164.512 274.759 162.968 276.132 160.737 276.132C158.677 276.132 156.961 274.416 156.961 272.185C157.133 271.498 157.476 270.64 157.991 269.954Z" fill="#0092FF"/>
<path d="M172.235 274.416C171.892 274.072 171.548 273.901 171.034 273.901C170.862 273.901 170.519 273.901 170.347 274.072C170.004 274.244 169.832 274.587 169.661 275.102C169.661 275.445 169.661 275.789 170.004 276.132C171.548 278.02 173.779 279.221 176.01 279.221C180.644 279.221 183.733 276.475 183.733 272.356C183.733 267.894 180.301 265.835 177.04 265.835C175.839 265.835 174.123 266.35 173.265 267.036L172.75 267.379L173.779 261.373H181.159C181.845 261.373 182.532 260.686 182.532 260C182.532 259.313 181.845 258.627 181.159 258.627H172.578C172.063 258.627 171.377 258.97 171.377 259.657L169.832 268.581C169.661 269.096 169.832 269.439 170.347 269.782C170.69 270.125 171.205 270.125 171.548 269.954C173.608 268.581 174.809 268.238 176.525 268.238C179.1 268.238 180.816 269.782 180.816 272.185C180.816 274.759 178.928 276.304 175.839 276.304C174.123 276.304 172.921 275.445 172.235 274.416Z" fill="#0092FF"/>
<path d="M185.793 268.752C185.793 275.789 188.024 279.049 193.001 279.049C197.978 279.049 200.209 275.789 200.209 268.752C200.209 261.716 197.978 258.455 193.001 258.455C188.196 258.455 185.793 261.716 185.793 268.752ZM197.635 268.752C197.635 273.901 196.09 276.304 193.173 276.304C190.083 276.304 188.71 273.901 188.71 268.752C188.71 263.604 190.255 261.201 193.173 261.201C196.09 261.201 197.635 263.775 197.635 268.752Z" fill="#0092FF"/>
<path d="M153.185 316.462H146.149C145.463 316.462 144.948 316.977 144.948 317.663C144.948 318.35 145.463 318.865 146.149 318.865H151.469V319.036C150.783 322.468 148.38 324.356 144.605 324.356C140.143 324.356 136.71 320.752 136.71 316.29C136.71 311.828 140.143 308.224 144.605 308.224C146.492 308.224 148.037 309.082 149.067 309.597C149.753 310.112 150.611 310.112 151.126 309.597C151.469 309.082 151.641 308.739 151.469 308.396C151.469 308.053 151.298 307.709 150.954 307.538C149.067 306.165 146.836 305.478 144.605 305.478C138.598 305.478 133.964 310.284 133.964 316.29C133.964 322.297 138.598 327.102 144.605 327.102C150.268 327.102 154.044 323.67 154.558 317.835C154.558 317.32 154.558 316.805 154.387 316.634C153.872 316.634 153.529 316.462 153.185 316.462Z" fill="#0092FF"/>
<path d="M166.228 305.65C160.222 305.65 155.588 310.455 155.588 316.462C155.588 322.469 160.222 327.274 166.228 327.274C172.235 327.274 177.04 322.469 177.04 316.462C176.868 310.455 172.235 305.65 166.228 305.65ZM166.228 324.528C161.938 324.528 158.505 321.096 158.505 316.462C158.505 312 161.938 308.396 166.228 308.396C170.69 308.396 174.123 312 174.123 316.462C173.951 320.924 170.519 324.528 166.228 324.528Z" fill="#0092FF"/>
<path d="M189.397 305.65C183.39 305.65 178.756 310.455 178.756 316.462C178.756 322.469 183.39 327.274 189.397 327.274C195.403 327.274 200.208 322.469 200.208 316.462C200.037 310.455 195.403 305.65 189.397 305.65ZM189.397 324.528C185.106 324.528 181.674 321.096 181.674 316.462C181.674 312 185.106 308.396 189.397 308.396C193.859 308.396 197.291 312 197.291 316.462C197.119 320.924 193.687 324.528 189.397 324.528Z" fill="#0092FF"/>
<path d="M211.364 305.822H204.671C203.812 305.822 203.126 306.508 203.126 307.366V325.386C203.126 326.416 203.812 326.931 204.671 326.931H211.364C217.027 326.931 220.803 322.64 220.803 316.462C220.803 310.112 217.027 305.822 211.364 305.822ZM211.364 324.356H206.043V308.568H211.364C215.311 308.568 217.885 311.657 217.885 316.462C217.885 321.267 215.311 324.356 211.364 324.356Z" fill="#0092FF"/>
</g>
</g>
<defs>
<linearGradient id="paint0_linear_6848_71965" x1="199.66" y1="380.464" x2="199.66" y2="352.451" gradientUnits="userSpaceOnUse">
<stop stop-color="#B3FFF0"/>
<stop offset="1" stop-color="white"/>
</linearGradient>
<clipPath id="clip0_6848_71965">
<rect width="416" height="416" fill="white"/>
</clipPath>
<clipPath id="clip1_6848_71965">
<rect width="291.2" height="346.667" fill="white" transform="translate(62.3999 34.6667)"/>
</clipPath>
</defs>
</svg>
