<svg width="72" height="72" viewBox="0 0 72 72" fill="none" xmlns="http://www.w3.org/2000/svg">
<path d="M65.196 17.0279V52.0919C65.196 53.7479 63.828 55.1159 62.172 55.1159H44.1L35.964 69.2279L27.9 55.1159H9.82796C8.17196 55.1159 6.80396 53.7479 6.80396 52.0919V17.0279C6.80396 15.3719 8.17196 14.0039 9.82796 14.0039H62.172C63.828 13.9319 65.196 15.2999 65.196 17.0279Z" fill="white"/>
<path d="M48.5639 23.4359V37.1879C48.5639 42.2999 45.4679 45.9719 42.2279 48.4199C40.6439 49.6439 39.0599 50.5079 37.8359 51.0839C37.2599 51.3719 36.7559 51.5879 36.3959 51.7319C36.2519 51.8039 36.1079 51.8039 36.0359 51.8759C35.9639 51.8039 35.8199 51.8039 35.6759 51.7319C35.3159 51.5879 34.8119 51.3719 34.2359 51.0119C33.0119 50.3639 31.4279 49.4279 29.8439 48.2039C26.6039 45.6839 23.5079 42.0119 23.5079 37.1879V23.4359C29.7719 23.4359 32.3639 22.9319 36.0359 18.9719C39.6359 22.9319 42.2999 23.4359 48.5639 23.4359Z" fill="#86C5F9"/>
<path d="M38.772 32.652C38.772 31.14 37.548 29.916 36.036 29.916C34.524 29.916 33.3 31.14 33.3 32.652C33.3 34.164 34.524 35.388 36.036 35.388" stroke="black" stroke-width="1.5" stroke-miterlimit="10" stroke-linecap="round" stroke-linejoin="round"/>
<path d="M33.3 38.1239C33.3 39.6359 34.524 40.8599 36.036 40.8599C37.548 40.8599 38.772 39.6359 38.772 38.1239C38.772 36.6119 37.548 35.3879 36.036 35.3879" stroke="black" stroke-width="1.5" stroke-miterlimit="10" stroke-linecap="round" stroke-linejoin="round"/>
<path d="M36.036 40.86V43.884" stroke="black" stroke-width="1.5" stroke-miterlimit="10" stroke-linecap="round" stroke-linejoin="round"/>
<path d="M36.036 26.892V29.916" stroke="black" stroke-width="1.5" stroke-miterlimit="10" stroke-linecap="round" stroke-linejoin="round"/>
<path d="M48.5639 23.4359V37.1879C48.5639 42.2999 45.4679 45.9719 42.2279 48.4199C40.6439 49.6439 39.0599 50.5079 37.8359 51.0839C37.2599 51.3719 36.7559 51.5879 36.3959 51.7319C36.2519 51.8039 36.1079 51.8039 36.0359 51.8759C35.9639 51.8039 35.8199 51.8039 35.6759 51.7319C35.3159 51.5879 34.8119 51.3719 34.2359 51.0119C33.0119 50.3639 31.4279 49.4279 29.8439 48.2039C26.6039 45.6839 23.5079 42.0119 23.5079 37.1879V23.4359" stroke="black" stroke-width="1.5" stroke-miterlimit="10" stroke-linecap="round" stroke-linejoin="round"/>
<path d="M36.0359 18.9719C32.3639 22.9319 29.7719 23.4359 23.5079 23.4359" stroke="black" stroke-width="1.5" stroke-miterlimit="10" stroke-linecap="round" stroke-linejoin="round"/>
<path d="M36.0359 18.9719C39.7079 22.9319 42.2999 23.4359 48.5639 23.4359" stroke="black" stroke-width="1.5" stroke-miterlimit="10" stroke-linecap="round" stroke-linejoin="round"/>
<path d="M27.9 55.117H9.82796C8.17196 55.117 6.80396 53.749 6.80396 52.093V17.029C6.80396 15.373 8.17196 14.005 9.82796 14.005H62.172C63.828 14.005 65.196 15.373 65.196 17.029V52.093C65.196 53.749 63.828 55.117 62.172 55.117H44.1" stroke="black" stroke-width="1.5" stroke-miterlimit="10" stroke-linecap="round" stroke-linejoin="round"/>
<path d="M44.0999 55.116L36.0359 69.228" stroke="black" stroke-width="1.5" stroke-miterlimit="10" stroke-linecap="round" stroke-linejoin="round"/>
<path d="M36.036 69.228L27.9 55.116" stroke="black" stroke-width="1.5" stroke-miterlimit="10" stroke-linecap="round" stroke-linejoin="round"/>
</svg>
