<svg width="380" height="379" viewBox="0 0 380 379" fill="none" xmlns="http://www.w3.org/2000/svg">
<path d="M188.169 367.082C292.091 367.082 376.337 363.899 376.337 359.971C376.337 356.044 292.091 352.86 188.169 352.86C84.246 352.86 0 356.044 0 359.971C0 363.899 84.246 367.082 188.169 367.082Z" fill="#E8F4FE"/>
<path d="M226.74 0C259.67 0 286.364 27.87 286.364 62.2494V196.816C286.364 231.196 259.67 259.066 226.74 259.066H153.592C120.662 259.066 93.9672 231.196 93.9672 196.816V62.2494C93.9672 27.87 120.662 0 153.592 0H226.74ZM226.754 23.6629H153.578C133.316 23.6629 116.851 40.6295 116.524 61.689L116.519 62.3284V196.86C116.519 218.001 132.781 235.179 152.965 235.52L153.578 235.525H226.754C247.016 235.525 263.48 218.559 263.807 197.499L263.812 196.86V62.3284C263.812 41.1876 247.551 24.0095 227.367 23.6681L226.754 23.6629Z" fill="#FD8878"/>
<path fill-rule="evenodd" clip-rule="evenodd" d="M63.5276 130.82H312.692L326.535 359.97H49.6851L63.5276 130.82Z" fill="#F6CBC5"/>
<path d="M188.108 252.569C208.964 252.569 225.871 235.003 225.871 213.335C225.871 191.667 208.964 174.101 188.108 174.101C167.253 174.101 150.346 191.667 150.346 213.335C150.346 235.003 167.253 252.569 188.108 252.569Z" fill="#FD8878"/>
<path fill-rule="evenodd" clip-rule="evenodd" d="M175.647 224.737H200.569L210.954 316.569H165.262L175.647 224.737Z" fill="#FD8878"/>
<path fill-rule="evenodd" clip-rule="evenodd" d="M63.2744 329.938L62.1301 338.971L69.2105 340.464L72.3574 331.356L63.2744 329.938Z" fill="#7D4439"/>
<path fill-rule="evenodd" clip-rule="evenodd" d="M105.399 306.122L110.325 306.089L101.251 320.232L97.103 315.305L105.399 306.122Z" fill="#7D4439"/>
<path fill-rule="evenodd" clip-rule="evenodd" d="M91.7621 319.561C91.2946 319.561 89.9074 317.923 87.8883 315.135L85.1116 331.801C67.2626 334.617 59.7922 329.202 59.7922 329.202L65.0391 279.699C57.005 266.622 49.7403 253.428 46.6392 248.69C37.2173 234.295 39.2311 169.074 39.2311 169.074C52.3172 169.447 92.0875 169.074 92.0875 169.074C92.0875 169.074 95.1672 236.915 95.1672 242.913C95.1672 248.912 91.9747 274.462 91.9747 274.462C91.9747 274.462 107.937 302.454 106.873 305.121C105.809 307.786 94.5283 319.561 91.7621 319.561Z" fill="#204EB2"/>
<path d="M68.8418 193.669L68.8625 193.67C69.0567 193.684 69.2029 193.86 69.1893 194.063L69.1655 194.446C69.1574 194.583 69.1487 194.736 69.1395 194.903L69.1159 195.349C69.0865 195.924 69.0573 196.562 69.0297 197.257C68.7325 204.75 68.8028 212.899 69.4975 220.556C70.3003 229.404 71.8621 236.458 74.3178 241.041L77.2156 246.457L80.5241 252.654C82.6102 256.565 84.7911 260.659 86.9847 264.782L92.0848 274.376C92.1791 274.554 92.1176 274.778 91.9474 274.876C91.7835 274.971 91.5786 274.915 91.4794 274.752L86.6263 265.624C84.4156 261.468 82.2147 257.336 80.1073 253.385L76.9326 247.437C75.7804 245.281 74.7006 243.262 73.7028 241.4C71.1881 236.707 69.6072 229.566 68.7959 220.625C68.0977 212.93 68.0272 204.75 68.3256 197.227L68.3424 196.815C68.3707 196.139 68.4003 195.523 68.43 194.971L68.4621 194.4L68.4863 194.011C68.4994 193.816 68.6566 193.667 68.8418 193.669Z" fill="black"/>
<path d="M72.9001 290.48C73.059 290.376 73.2665 290.421 73.3737 290.578L73.3857 290.597L88.0019 315.008C88.105 315.18 88.0548 315.407 87.8898 315.515C87.7309 315.618 87.5234 315.573 87.4162 315.416L87.4042 315.398L72.788 290.987C72.6849 290.815 72.7351 290.588 72.9001 290.48Z" fill="black"/>
<path fill-rule="evenodd" clip-rule="evenodd" d="M69.8251 338.758C69.8251 338.758 70.7584 338.564 70.7584 339.416C70.7584 340.267 69.8251 345.572 70.7269 349.785C71.6287 353.999 76.8679 359.468 64.0706 359.647C51.2733 359.826 54.2365 354.627 55.7395 352.609C57.2425 350.592 60.4476 345.801 61.1776 342.843C61.9077 339.884 61.494 337.414 62.3099 337.01C62.3099 337.01 66.0031 338.669 69.8251 338.758Z" fill="#237978"/>
<path fill-rule="evenodd" clip-rule="evenodd" d="M54.769 357.663C57.0173 359.611 60.828 360.367 66.9631 359.611C73.0982 358.856 73.2126 356.39 72.2599 354.043C72.2599 354.043 61.5129 355.392 55.7403 352.609C55.7403 352.609 52.5208 355.713 54.769 357.663Z" fill="#F9C818"/>
<path fill-rule="evenodd" clip-rule="evenodd" d="M99.9903 318.788C99.9903 318.788 99.2543 319.149 100.034 320.234C100.813 321.318 101.676 323.894 103.118 329.327C104.559 334.76 104.96 337.101 105.36 344.122C105.76 351.144 105.12 360.923 110.485 357.998C115.85 355.072 117.852 345.543 116.891 339.776C115.93 334.008 113.848 328.073 115.61 320.801C117.372 313.529 118.653 308.932 114.649 307.511C110.645 306.09 106.921 304.849 106.901 306.347C106.901 306.347 107.09 315.399 99.9903 318.788Z" fill="#237978"/>
<path fill-rule="evenodd" clip-rule="evenodd" d="M116.978 346.639C116.978 346.639 115.462 359.036 108.26 358.706C108.26 358.706 105.607 359.563 105.48 349.079C105.48 349.079 105.86 354.024 116.978 346.639Z" fill="#F9C818"/>
<mask id="mask0" mask-type="alpha" maskUnits="userSpaceOnUse" x="111" y="306" width="7" height="14">
<path fill-rule="evenodd" clip-rule="evenodd" d="M111.171 306.355H117.402V319.532H111.171V306.355Z" fill="white"/>
</mask>
<g mask="url(#mask0)">
<path fill-rule="evenodd" clip-rule="evenodd" d="M111.36 306.355C111.36 306.355 109.742 315.065 115.964 319.532C115.964 319.532 118.121 312.287 117.15 309.884C116.179 307.482 114.741 307.369 111.36 306.355Z" fill="#F9C818"/>
</g>
<path fill-rule="evenodd" clip-rule="evenodd" d="M59.6626 88.8908C59.6626 88.8908 59.229 98.8407 53.6686 102.353C48.6236 105.54 59.3119 124.031 70.8098 122.928C77.1037 122.324 78.5788 104.358 78.5788 104.358C78.5788 104.358 73.4968 103.333 75.374 95.2442L59.6626 88.8908Z" fill="#7D4439"/>
<path fill-rule="evenodd" clip-rule="evenodd" d="M68.8692 99.0073C61.4152 98.0663 56.0358 92.9506 55.2825 84.4641C53.1156 84.8242 52.6045 78.9305 53.208 77.0373C53.8121 75.1413 55.7839 76.2499 55.7839 76.2499C55.893 75.9503 55.9858 75.6366 56.0623 75.3089C59.3185 61.3672 68.4385 61.9202 68.4385 61.9202C85.1968 62.8315 81.2702 80.6906 80.3127 85.4284C79.3552 90.1668 76.0749 99.916 68.8692 99.0073Z" fill="#7D4439"/>
<path fill-rule="evenodd" clip-rule="evenodd" d="M41.6389 142.742L37.4083 184.075C37.4083 184.075 67.5296 189.727 93.5894 180.896L95.1124 144.509C95.1124 144.509 77.2879 143.92 41.6389 142.742Z" fill="black"/>
<mask id="mask1" mask-type="alpha" maskUnits="userSpaceOnUse" x="24" y="101" width="84" height="77">
<path fill-rule="evenodd" clip-rule="evenodd" d="M24.6655 101.886H107.403V177.471H24.6655V101.886Z" fill="white"/>
</mask>
<g mask="url(#mask1)">
<path fill-rule="evenodd" clip-rule="evenodd" d="M37.6122 171.92C37.6122 171.92 23.1413 162.501 24.7975 147.226C26.4537 131.951 32.6228 111.096 43.2222 106.811C53.8215 102.525 54.1545 101.886 54.1545 101.886C54.1545 101.886 58.4024 107.675 65.8023 108.042C73.2022 108.41 78.018 104.119 78.018 104.119C78.018 104.119 92.551 107.732 96.7368 114.569C100.922 121.406 111.611 151.935 105.621 161.621C99.6304 171.307 88.0454 174.129 88.0454 174.129C88.0454 174.129 52.6469 182.954 37.6122 171.92Z" fill="black"/>
</g>
<path fill-rule="evenodd" clip-rule="evenodd" d="M58.4019 143.817L58.2951 134.008C58.2951 134.008 57.9748 131.924 61.0715 131.801C64.168 131.679 72.4969 131.556 72.4969 131.556C72.4969 131.556 74.5258 131.066 74.6325 134.131C74.7393 137.196 74.8461 147.74 74.8461 147.74L62.0324 151.541L57.2273 151.295L58.4019 143.817Z" fill="#204EB2"/>
<path fill-rule="evenodd" clip-rule="evenodd" d="M57.2961 151.238L62.0259 151.479L74.7871 147.694C74.7791 146.924 74.676 137.058 74.5741 134.133C74.5368 133.064 74.262 132.318 73.7574 131.915C73.1875 131.459 72.5172 131.614 72.5104 131.616L72.4979 131.617C72.4146 131.619 64.1343 131.741 61.0739 131.863C59.949 131.907 59.1545 132.214 58.7125 132.775C58.2612 133.348 58.3523 133.992 58.3532 133.999L58.4609 143.821L58.4601 143.827L57.2961 151.238ZM62.0394 151.603L62.0298 151.602L57.1589 151.353L58.3433 143.812L58.2366 134.009C58.2329 133.989 58.136 133.315 58.6202 132.699C59.0841 132.109 59.9081 131.786 61.0694 131.74C64.0965 131.62 72.2255 131.499 72.4903 131.495C72.5677 131.478 73.2392 131.346 73.8288 131.817C74.3627 132.244 74.6529 133.022 74.6915 134.129C74.797 137.159 74.9039 147.634 74.905 147.739L74.9055 147.786L74.8624 147.799L62.0394 151.603Z" fill="black"/>
<path fill-rule="evenodd" clip-rule="evenodd" d="M58.2918 134.376L58.2847 132.687C58.2847 132.687 58.2847 131.338 60.0466 131.216C61.8085 131.093 72.2623 130.848 72.2623 130.848C72.2623 130.848 73.6718 130.725 74.2591 131.583C74.8464 132.442 74.66 134.528 74.66 134.528C74.66 134.528 74.5946 131.604 72.254 131.655C69.9131 131.706 60.8072 131.902 60.8072 131.902C60.8072 131.902 58.4163 131.651 58.2918 134.376Z" fill="#56ACF6"/>
<path fill-rule="evenodd" clip-rule="evenodd" d="M72.3128 131.593C73.9087 131.593 74.4468 132.976 74.6274 133.843C74.6314 133.163 74.5704 132.145 74.2104 131.619C73.649 130.799 72.2799 130.907 72.2663 130.909C72.1582 130.911 61.79 131.156 60.0496 131.277C59.3483 131.325 58.8309 131.586 58.5532 132.031C58.345 132.364 58.3425 132.684 58.3425 132.687L58.3463 133.583C58.4728 133.099 58.6995 132.709 59.0241 132.417C59.775 131.741 60.77 131.837 60.8121 131.841C60.805 131.841 69.911 131.645 72.2517 131.594C72.2721 131.593 72.2927 131.593 72.3128 131.593ZM74.7175 134.534L74.6003 134.529C74.6 134.522 74.5802 133.799 74.2787 133.094C73.8791 132.159 73.199 131.694 72.2542 131.716C69.9135 131.767 60.8074 131.964 60.8074 131.964C60.7907 131.962 59.8118 131.869 59.0999 132.51C58.6397 132.925 58.3871 133.554 58.3495 134.379L58.2321 134.376L58.225 132.687C58.225 132.673 58.2458 131.279 60.0418 131.154C61.7849 131.033 72.1555 130.789 72.26 130.786C72.3155 130.782 73.7061 130.671 74.3059 131.548C74.8992 132.415 74.7251 134.448 74.7175 134.534Z" fill="black"/>
<path fill-rule="evenodd" clip-rule="evenodd" d="M58.4269 139.89C58.4269 139.89 56.7328 141.027 56.1883 141.721C55.6438 142.416 56.1278 142.542 54.9178 143.869C53.7077 145.195 51.5295 148.542 55.3412 153.658C59.1531 158.773 60.4236 158.331 61.9967 157.447C63.5698 156.563 63.7513 155.931 66.716 155.615C69.6807 155.3 72.5243 152.268 72.4638 151.51L72.4033 150.752C72.4033 150.752 75.1259 149.679 74.9446 148.479C74.763 147.279 73.9765 147.405 73.9765 147.405C73.9765 147.405 74.521 146.837 74.0974 145.826C73.6739 144.816 71.6773 145.005 69.3781 145.321C67.0791 145.637 61.1496 146.9 60.7866 146.647C60.4236 146.395 60.5446 146.016 61.9361 145.826C63.3278 145.637 68.9546 145.574 68.9546 143.932C68.9546 142.29 67.2605 141.974 63.9933 142.037C60.7261 142.1 60.1211 141.911 59.3346 142.227L58.5479 142.542L58.4269 139.89Z" fill="#7D4439"/>
<path fill-rule="evenodd" clip-rule="evenodd" d="M74.0243 147.397C74.0243 147.397 74.1982 147.267 72.9034 147.783C72.4319 147.97 71.7671 148.166 70.8305 148.352C67.3212 149.047 61.8154 150.31 60.1213 150.562C58.4271 150.815 59.8188 151.194 63.691 150.373C67.5633 149.552 72.1729 148.45 72.3799 148.378C72.7323 148.256 73.7894 147.888 74.0243 147.397Z" fill="#995B5D"/>
<path fill-rule="evenodd" clip-rule="evenodd" d="M71.1322 151.131C71.1322 151.131 68.2681 152.179 66.8586 152.547C65.362 152.938 64.2348 153.468 63.9323 152.962C63.6298 152.457 63.2667 152.331 63.2667 152.331L62.7828 152.899C62.7828 152.899 62.865 153.528 62.6012 153.594C62.1305 153.712 61.2095 153.91 61.2095 153.91C61.2095 153.91 61.2206 154.264 64.0396 153.651C64.739 153.499 66.0364 153.283 66.8586 153.038C67.6149 152.812 70.3457 152.078 70.7088 151.763C71.0717 151.447 71.1322 151.131 71.1322 151.131Z" fill="#995B5D"/>
<path fill-rule="evenodd" clip-rule="evenodd" d="M62.2389 150.816C62.2389 150.816 62.1943 153.359 62.8821 153.319C63.5701 153.279 63.8121 153.279 63.933 153.089C64.0541 152.9 63.7516 152.268 63.7516 151.574C63.7516 150.879 63.7516 150.563 63.207 150.626C62.6625 150.69 62.2994 150.69 62.2389 150.816Z" fill="#F9C818"/>
<path fill-rule="evenodd" clip-rule="evenodd" d="M66.4706 90.355C66.4706 90.355 66.1822 92.2874 68.7383 93.0161C71.2944 93.7447 72.5041 93.5685 72.6161 92.3175C72.6161 92.3175 72.3836 90.8982 71.7822 90.751C71.1808 90.6039 70.4973 90.8572 70.4973 90.8572C70.4973 90.8572 70.001 89.9297 69.3525 89.923C68.7038 89.9164 67.3251 90.5097 66.4706 90.355Z" fill="#CE4129"/>
<path fill-rule="evenodd" clip-rule="evenodd" d="M70.9067 92.0748C69.0446 91.5323 66.8221 90.8485 66.16 90.3723C65.6768 90.0247 65.4763 90.0649 65.4743 90.0655C65.4744 90.0655 65.7252 89.4643 66.4265 89.9683C67.109 90.4593 70.0624 91.3197 71.033 91.6025C72.7308 92.097 72.8994 92.0268 73.1129 91.9381L73.2869 92.3935C73.0801 92.4798 72.8899 92.5231 72.4807 92.463C72.1458 92.4139 71.6643 92.2955 70.9067 92.0748Z" fill="black"/>
<path fill-rule="evenodd" clip-rule="evenodd" d="M69.4728 99.457C67.8456 99.457 66.1633 98.9616 64.9568 98.5041C63.4112 97.9179 62.2898 97.2649 62.2786 97.2584L62.4511 96.9375C62.4946 96.9632 66.8518 99.4831 70.334 99.0364L70.3772 99.4014C70.0801 99.4396 69.7773 99.457 69.4728 99.457Z" fill="black"/>
<path d="M73.8738 78.5323L74.3212 78.6821L74.2775 78.8284C74.2423 78.9477 74.2031 79.0843 74.1609 79.2357C74.0401 79.6686 73.9193 80.1336 73.8066 80.6121C73.6813 81.144 73.5739 81.6599 73.4899 82.1469L73.4656 82.2912C73.2615 83.5299 73.2327 84.4758 73.415 84.9845L73.4258 85.0134C74.4686 87.7062 73.0525 89.0717 70.0803 88.1155L69.9898 88.0858L70.133 87.6187C72.8103 88.513 73.8841 87.5054 72.9902 85.1972C72.7441 84.5619 72.782 83.4835 73.0275 82.06C73.1134 81.5621 73.2228 81.0363 73.3503 80.495C73.452 80.0633 73.5601 79.6427 73.6689 79.2461L73.7098 79.0986C73.7343 79.0107 73.7578 78.9277 73.7802 78.85L73.8375 78.6533L73.8738 78.5323Z" fill="black"/>
<path d="M62.2742 97.2937L62.504 96.8659L62.5879 96.9137L62.6649 96.9563C62.7814 97.0204 62.914 97.091 63.0614 97.1666L63.1255 97.1994C63.6213 97.4515 64.1696 97.7037 64.7544 97.939C66.099 98.4802 67.4277 98.8496 68.6638 98.9694C69.224 99.0237 69.7549 99.0251 70.2521 98.9694L70.3511 98.9575L70.4085 99.4442C69.8477 99.5163 69.25 99.5188 68.6204 99.4578C67.3356 99.3332 65.9671 98.9527 64.5853 98.3966C63.9874 98.156 63.427 97.8982 62.9197 97.6403L62.7279 97.5413C62.6463 97.4987 62.5698 97.4578 62.4984 97.419L62.3655 97.3457L62.2742 97.2937Z" fill="#C86A5D"/>
<path fill-rule="evenodd" clip-rule="evenodd" d="M71.7458 88.4196C71.2709 88.4196 70.6784 88.3226 69.939 88.0757L70.0821 87.6085C71.4592 88.0684 72.4764 88.0309 72.9463 87.5026C73.346 87.053 73.3436 86.2307 72.9394 85.1871C72.6651 84.479 72.7329 83.1361 73.1408 81.1955C73.4393 79.7754 73.8192 78.5345 73.823 78.5221L74.2703 78.6719C73.8584 80.0124 72.8946 83.7631 73.3749 85.0033C73.9855 86.5797 73.6661 87.414 73.2906 87.8362C73.0228 88.1376 72.5554 88.4196 71.7458 88.4196Z" fill="black"/>
<path fill-rule="evenodd" clip-rule="evenodd" d="M68.553 81.7952C68.4678 81.7952 68.3825 81.7632 68.3149 81.6983C68.3104 81.6941 67.7294 81.1556 66.8906 81.1883C66.0227 81.2217 65.4466 81.6649 65.4408 81.6694C65.2855 81.7907 65.0648 81.7589 64.9479 81.5975C64.8308 81.436 64.8601 81.2069 65.0142 81.0839C65.0443 81.0599 65.7633 80.4957 66.8645 80.4531C67.9979 80.4106 68.7595 81.1259 68.7913 81.1564C68.9347 81.2937 68.9444 81.5264 68.8127 81.676C68.7433 81.7551 68.6482 81.7952 68.553 81.7952Z" fill="black"/>
<path fill-rule="evenodd" clip-rule="evenodd" d="M62.5675 79.9621C62.5675 79.9621 63.91 78.2853 65.1223 77.5779C65.8708 77.1412 70.4911 76.2066 70.6601 77.1949C70.8247 78.1578 70.3494 78.1911 68.5073 78.5042C66.6652 78.8172 65.8022 78.8947 64.8342 79.3695C63.866 79.8443 62.7725 80.4912 62.5675 79.9621Z" fill="black"/>
<path fill-rule="evenodd" clip-rule="evenodd" d="M80.3881 81.1372C80.3881 81.1372 80.5585 80.121 80.3244 79.4575C80.0901 78.7942 77.1887 76.034 76.3371 76.2746C74.9841 76.6569 75.4715 77.3328 77.1837 78.5333C78.5607 79.4988 79.1096 79.8705 79.629 80.5509C80.3386 81.4805 80.2854 81.2871 80.3881 81.1372Z" fill="black"/>
<path fill-rule="evenodd" clip-rule="evenodd" d="M78.4337 82.9161C78.3486 82.9161 78.2633 82.8841 78.1956 82.8192C78.1912 82.815 77.6101 82.2758 76.7712 82.3092C75.9057 82.3425 75.3285 82.7847 75.3229 82.7892C75.1682 82.9126 74.9471 82.8817 74.8289 82.7204C74.7107 82.559 74.7402 82.3282 74.8948 82.2048C74.9249 82.1808 75.6441 81.6164 76.7452 81.574C77.8781 81.5317 78.6402 82.2467 78.672 82.2773C78.8154 82.4146 78.8251 82.6473 78.6934 82.7969C78.624 82.876 78.529 82.9161 78.4337 82.9161Z" fill="black"/>
<path fill-rule="evenodd" clip-rule="evenodd" d="M55.7078 76.4679C55.7078 76.4679 56.7649 72.1767 65.1632 68.0694C72.0801 64.6867 79.963 69.9085 80.7852 71.2571C81.3918 72.2521 81.9598 59.6096 69.1568 56.667C58.3004 54.1719 49.4825 66.4142 53.1237 77.3261C53.1237 77.3261 53.5935 76.1 55.7078 76.4679Z" fill="#49352E"/>
<mask id="mask2" mask-type="alpha" maskUnits="userSpaceOnUse" x="48" y="46" width="21" height="20">
<path fill-rule="evenodd" clip-rule="evenodd" d="M48.7455 46.2234H68.2841V65.1174H48.7455V46.2234Z" fill="white"/>
</mask>
<g mask="url(#mask2)">
<path fill-rule="evenodd" clip-rule="evenodd" d="M67.0234 49.272C69.6726 53.1107 68.0108 59.087 63.3117 62.6206C58.6127 66.1544 52.6556 65.9073 50.0063 62.0686C47.357 58.2301 49.0188 52.2537 53.7179 48.7201C58.4171 45.1865 64.374 45.4335 67.0234 49.272Z" fill="#49352E"/>
</g>
<mask id="mask3" mask-type="alpha" maskUnits="userSpaceOnUse" x="55" y="67" width="11" height="36">
<path fill-rule="evenodd" clip-rule="evenodd" d="M55.1584 67.2103H65.3988V102.012H55.1584V67.2103Z" fill="white"/>
</mask>
<g mask="url(#mask3)">
<path fill-rule="evenodd" clip-rule="evenodd" d="M57.2942 69.5398C57.2942 69.5398 54.0392 77.5074 56.6261 82.5995C59.2129 87.6917 53.2166 97.3604 55.837 102.012C55.837 102.012 55.6709 98.1776 58.0357 93.2909C60.4005 88.4039 61.4696 86.3776 59.9916 82.6052C58.5135 78.833 62.8916 68.8107 65.3988 67.2103L57.2942 69.5398Z" fill="#49352E"/>
</g>
<path fill-rule="evenodd" clip-rule="evenodd" d="M306.208 236.506C306.208 236.506 305.775 246.456 300.214 249.968C295.169 253.154 305.857 271.646 317.355 270.543C323.649 269.939 325.124 251.973 325.124 251.973C325.124 251.973 320.042 250.948 321.92 242.859L306.208 236.506Z" fill="#ECAFA3"/>
<path fill-rule="evenodd" clip-rule="evenodd" d="M315.415 246.623C307.961 245.682 302.581 240.567 301.828 232.08C299.661 232.44 299.15 226.547 299.753 224.653C300.358 222.757 302.329 223.866 302.329 223.866C302.439 223.566 302.531 223.253 302.608 222.925C305.864 208.983 314.984 209.536 314.984 209.536C331.742 210.448 327.816 228.307 326.858 233.045C325.901 237.783 322.62 247.532 315.415 246.623Z" fill="#ECAFA3"/>
<path fill-rule="evenodd" clip-rule="evenodd" d="M265.247 280.156C251.975 302.103 247.788 315.418 252.686 320.103C257.584 324.788 266.928 319.089 280.717 303.007C280.006 299.416 278.172 295.498 275.213 291.253C272.254 287.008 268.932 283.309 265.247 280.156Z" fill="#ECAFA3"/>
<path fill-rule="evenodd" clip-rule="evenodd" d="M348.888 295.748L339.201 294.571C339.201 294.571 341.68 329.376 340.748 329.376C340.248 329.376 328.612 335.962 312.306 335.962C299.779 335.962 284.413 331.637 283.763 331.6C283.683 331.596 283.606 331.539 283.532 331.435C283.741 329.034 283.906 324.79 284.074 320.103C284.192 316.814 284.312 313.309 284.449 310.071C284.577 307.058 284.72 304.278 284.893 302.117C285.645 292.695 285.124 284.097 285.124 284.097L281.415 294.604L257.9 285.661C257.9 285.661 265.752 273.716 275.113 263.326C284.401 253.018 299.297 250.402 299.53 250.363C299.531 250.362 299.532 250.362 299.532 250.362C299.532 250.362 298.696 264.584 312.787 265.677C324.504 266.585 325.111 251.926 325.111 251.926C325.111 251.926 338.806 255.659 342.735 259.156C346.664 262.654 363.998 286.537 363.998 287.14C363.998 287.743 348.888 295.748 348.888 295.748Z" fill="#818181"/>
<path fill-rule="evenodd" clip-rule="evenodd" d="M284.449 310.072C284.312 313.31 284.192 316.815 284.074 320.103C284.047 317.875 284.132 314.672 284.449 310.072Z" fill="#F9C818"/>
<path fill-rule="evenodd" clip-rule="evenodd" d="M333.143 299.842L320.824 300.887C320.081 300.95 319.43 300.373 319.37 299.598L317.401 274.312C317.341 273.537 317.894 272.858 318.637 272.795L330.955 271.75C331.698 271.686 332.349 272.264 332.409 273.039L334.378 298.325C334.438 299.1 333.885 299.779 333.143 299.842Z" fill="#204EB2"/>
<path fill-rule="evenodd" clip-rule="evenodd" d="M334.399 299.142L322.035 300.191C321.305 300.253 320.665 299.685 320.606 298.923L318.705 274.512C318.646 273.75 319.19 273.082 319.92 273.02L332.283 271.971C333.013 271.909 333.653 272.477 333.713 273.239L335.613 297.65C335.673 298.412 335.129 299.08 334.399 299.142Z" fill="#1F9BEB"/>
<path fill-rule="evenodd" clip-rule="evenodd" d="M332.319 274.754C332.376 275.486 331.854 276.128 331.153 276.187C330.451 276.247 329.836 275.701 329.779 274.969C329.722 274.237 330.245 273.595 330.946 273.536C331.648 273.476 332.262 274.021 332.319 274.754Z" fill="#204EB2"/>
<path fill-rule="evenodd" clip-rule="evenodd" d="M329.88 298.249C329.88 298.249 323.702 299.655 323.663 297.423C323.663 297.423 327.861 295.604 328.811 295.686C329.762 295.769 334.157 296.307 334.157 296.307L328.732 293.496L323.346 295.232C323.346 295.232 322.118 295.315 321.564 294.405C321.009 293.496 321.643 292.958 321.643 292.958L328.692 290.519C328.692 290.519 328.93 289.734 327.148 289.651C325.366 289.568 321.445 289.279 321.445 289.279C321.445 289.279 320.574 288.494 320.97 287.088C321.366 285.683 323.583 286.179 323.583 286.179C323.583 286.179 322.356 284.939 324.217 283.575C324.217 283.575 329.92 283.74 332.019 285.104C334.118 286.468 348.485 295.676 348.485 295.676L359.668 289.545C373.821 307.63 377.576 318.344 370.933 321.688C364.29 325.031 350.605 317.219 329.88 298.249Z" fill="#ECAFA3"/>
<path fill-rule="evenodd" clip-rule="evenodd" d="M336.083 290.12L330.468 286.798L323.476 286.016L323.527 285.529L330.567 286.316C330.599 286.32 330.629 286.33 330.657 286.347L336.315 289.693L336.083 290.12Z" fill="#C86A5D"/>
<path fill-rule="evenodd" clip-rule="evenodd" d="M358.621 302.379L345.201 293.576L345.451 293.161L358.871 301.964L358.621 302.379Z" fill="#C86A5D"/>
<path fill-rule="evenodd" clip-rule="evenodd" d="M274.474 292.313L261.012 301.045L260.764 300.629L274.226 291.897L274.474 292.313Z" fill="#C86A5D"/>
<path fill-rule="evenodd" clip-rule="evenodd" d="M335.629 292.812C335.593 292.787 332.075 290.301 331.158 289.902C330.458 289.597 329.058 290.153 328.578 290.393L328.376 289.95C328.454 289.911 330.303 288.999 331.338 289.449C332.299 289.867 335.746 292.303 335.892 292.406L335.629 292.812Z" fill="#C86A5D"/>
<path fill-rule="evenodd" clip-rule="evenodd" d="M334.42 283.113L337.887 288.647L334.59 286.483L334.42 283.113Z" fill="#ECAFA3"/>
<path fill-rule="evenodd" clip-rule="evenodd" d="M337.762 288.855L334.465 286.691L334.715 286.275L338.012 288.439L337.762 288.855Z" fill="#C86A5D"/>
<path fill-rule="evenodd" clip-rule="evenodd" d="M291.73 302.349L287.602 302.265C283.256 302.176 279.801 298.425 279.886 293.888L280.144 280.156L298.917 280.54L298.638 295.416C298.564 299.322 295.472 302.426 291.73 302.349Z" fill="white"/>
<path fill-rule="evenodd" clip-rule="evenodd" d="M279.734 284.901C279.734 284.901 278.04 286.037 277.496 286.732C276.951 287.427 277.435 287.553 276.225 288.879C275.015 290.206 272.837 293.553 276.649 298.669C280.461 303.784 281.731 303.342 283.304 302.458C284.877 301.574 285.059 300.942 288.024 300.626C290.988 300.311 293.832 297.279 293.771 296.521L293.711 295.763C293.711 295.763 296.433 294.69 296.252 293.49C296.07 292.29 295.284 292.416 295.284 292.416C295.284 292.416 295.829 291.848 295.405 290.837C294.981 289.827 292.985 290.016 290.686 290.332C288.387 290.648 282.457 291.911 282.094 291.658C281.731 291.406 281.852 291.027 283.244 290.837C284.635 290.648 290.262 290.585 290.262 288.943C290.262 287.301 288.568 286.985 285.301 287.048C282.034 287.111 281.429 286.922 280.642 287.238L279.855 287.553L279.734 284.901Z" fill="#ECAFA3"/>
<path fill-rule="evenodd" clip-rule="evenodd" d="M295.331 292.408C295.331 292.408 295.505 292.278 294.211 292.794C293.739 292.981 293.074 293.177 292.138 293.363C288.628 294.057 283.123 295.321 281.428 295.573C279.734 295.826 281.126 296.205 284.998 295.384C288.87 294.563 293.48 293.461 293.687 293.389C294.039 293.267 295.097 292.899 295.331 292.408Z" fill="#995B5D"/>
<path fill-rule="evenodd" clip-rule="evenodd" d="M292.441 296.142C292.441 296.142 289.577 297.19 288.167 297.558C286.67 297.949 285.543 298.479 285.241 297.973C284.938 297.468 284.575 297.342 284.575 297.342L284.091 297.91C284.091 297.91 284.173 298.539 283.91 298.605C283.439 298.723 282.518 298.921 282.518 298.921C282.518 298.921 282.529 299.275 285.348 298.662C286.047 298.51 287.345 298.294 288.167 298.049C288.923 297.823 291.654 297.089 292.017 296.774C292.38 296.458 292.441 296.142 292.441 296.142Z" fill="#995B5D"/>
<path fill-rule="evenodd" clip-rule="evenodd" d="M283.546 295.826C283.546 295.826 283.501 298.369 284.189 298.329C284.877 298.289 285.119 298.289 285.24 298.099C285.361 297.91 285.059 297.278 285.059 296.583C285.059 295.889 285.059 295.573 284.514 295.636C283.97 295.699 283.607 295.699 283.546 295.826Z" fill="#F9C818"/>
<path fill-rule="evenodd" clip-rule="evenodd" d="M311.044 352.56C311.044 352.56 316.066 354.833 316.671 353.949C317.276 353.065 312.072 358.559 312.072 358.559L308.321 356.349L311.044 352.56Z" fill="#ECAFA3"/>
<path fill-rule="evenodd" clip-rule="evenodd" d="M311.044 352.56C311.044 352.56 316.066 354.833 316.671 353.949C317.276 353.065 312.072 358.559 312.072 358.559L308.321 356.349L311.044 352.56Z" stroke="black" stroke-width="0.597388"/>
<path fill-rule="evenodd" clip-rule="evenodd" d="M351.278 355.339C351.278 355.339 358.66 359.823 352.791 366.833C346.922 373.843 326.169 369.043 326.169 369.043L325.625 366.265C325.625 366.265 346.498 355.718 351.278 355.339Z" fill="#F0ECEC"/>
<path fill-rule="evenodd" clip-rule="evenodd" d="M351.278 355.339C351.278 355.339 354.182 355.97 355.09 359.444C355.997 362.917 353.997 366.963 351.064 368.319C351.064 368.319 354.807 359.649 348.232 356.073L351.278 355.339Z" fill="#E0D3CC"/>
<path fill-rule="evenodd" clip-rule="evenodd" d="M348.907 369.303C348.907 369.303 346.256 363.674 345.046 363.8C343.836 363.927 330.737 364.636 329.421 364.376L325.08 366.2L325.848 369.092C325.848 369.092 341.998 373.037 348.907 369.303Z" fill="#E7DADA"/>
<path fill-rule="evenodd" clip-rule="evenodd" d="M345.348 358.686C345.348 358.686 346.317 366.012 344.925 366.012C343.533 366.012 343.17 357.801 342.928 360.643C342.686 363.485 342.505 367.085 341.597 366.012C340.69 364.938 342.565 356.98 341.779 359.191C340.992 361.401 340.508 365.569 339.238 365.506C337.967 365.443 339.722 361.212 339.056 361.085C338.391 360.959 337.06 366.58 335.91 365.885C334.76 365.191 336.878 360.58 335.668 362.285C334.458 363.991 334.095 366.012 333.006 365.759C331.917 365.506 333.127 363.296 333.792 362.222C334.458 361.149 344.683 357.043 344.986 357.549C345.288 358.054 345.348 358.686 345.348 358.686Z" fill="#F9F9F9"/>
<mask id="mask4" mask-type="alpha" maskUnits="userSpaceOnUse" x="245" y="315" width="135" height="52">
<path fill-rule="evenodd" clip-rule="evenodd" d="M379.625 315.097H245.544V366.907H379.625V315.097Z" fill="white"/>
</mask>
<g mask="url(#mask4)">
<path fill-rule="evenodd" clip-rule="evenodd" d="M329.739 365.886C329.739 365.886 354.182 358.497 365.557 349.087C376.932 339.677 383.527 330.519 377.113 320.225C370.7 309.931 355.635 317.762 348.374 321.109C341.114 324.457 317.305 329.19 305.946 329.16C294.586 329.13 279.339 328.246 271.413 325.783C263.487 323.32 250.842 319.594 246.97 329.635C243.098 339.677 247.635 349.529 254.291 352.876C260.946 356.223 281.457 363.423 291.985 362.729L302.512 362.034C302.512 362.034 307.05 356.792 305.84 349.15L312.193 353.95C312.193 353.95 315.823 353.887 317.154 353.382C318.485 352.876 325.867 371.381 329.739 365.886Z" fill="#56ACF6"/>
</g>
<path fill-rule="evenodd" clip-rule="evenodd" d="M323.265 366.77C323.265 366.77 312.616 370.875 310.075 372.581C307.534 374.286 302.27 375.738 299.729 373.907C297.187 372.075 298.7 362.981 298.7 362.981C298.7 362.981 307.231 360.96 308.199 359.571C309.167 358.181 316.912 353.571 316.912 353.571L323.265 366.77Z" fill="#ECAFA3"/>
<path fill-rule="evenodd" clip-rule="evenodd" d="M299.613 363.701C299.613 363.701 299.063 362.223 297.369 362.539C295.675 362.855 279.884 361.024 275.346 359.697C270.808 358.371 261.188 367.781 265.363 374.412C269.538 381.044 275.225 377.886 280.368 377.444C285.511 377.002 295.494 378.518 297.732 377.76C299.971 377.002 302.21 375.612 302.27 373.97C302.331 372.328 299.613 363.701 299.613 363.701Z" fill="#F0ECEC"/>
<path fill-rule="evenodd" clip-rule="evenodd" d="M276.524 360.561C276.524 360.561 269.84 363.991 268.63 368.727C267.42 373.464 267.982 377.256 267.982 377.256C267.982 377.256 261.639 374.136 265.256 366.727C268.872 359.317 274.556 358.709 276.524 359.802C278.492 360.896 276.524 360.561 276.524 360.561Z" fill="#E0D3CC"/>
<path fill-rule="evenodd" clip-rule="evenodd" d="M277.263 360.401C277.263 360.401 280.004 364.938 280.367 368.222C280.367 368.222 280.125 368.854 283.15 368.791C286.175 368.727 300.279 365.497 300.279 365.497C300.279 365.497 303.313 373.083 302.216 375.042C301.12 377.001 280.367 373.275 280.367 373.275C280.367 373.275 279.52 372.769 278.975 373.211C278.431 373.653 275.619 377.703 271.761 378.52C271.761 378.52 277.765 375.169 278.249 370.748C278.733 366.327 277.263 360.401 277.263 360.401Z" fill="#EEDFD9"/>
<path fill-rule="evenodd" clip-rule="evenodd" d="M297.188 365.002C297.188 365.002 297.006 369.296 297.793 371.696C298.579 374.096 299.232 376.189 297.877 375.932C296.522 375.675 295.07 366.138 295.856 365.317C296.643 364.496 297.127 364.244 297.188 365.002Z" fill="white"/>
<path fill-rule="evenodd" clip-rule="evenodd" d="M294.948 365.507C294.948 365.507 294.767 369.801 295.553 372.201C296.34 374.601 296.993 376.694 295.638 376.437C294.283 376.18 292.831 366.643 293.617 365.822C294.404 365.001 294.888 364.749 294.948 365.507Z" fill="white"/>
<path fill-rule="evenodd" clip-rule="evenodd" d="M287.024 365.657C287.024 365.657 286.842 369.585 287.629 371.78C288.415 373.975 289.068 375.89 287.713 375.655C286.358 375.419 284.906 366.697 285.693 365.946C286.479 365.195 286.963 364.964 287.024 365.657Z" fill="white"/>
<path fill-rule="evenodd" clip-rule="evenodd" d="M283.998 366.136C283.998 366.136 283.817 369.802 284.603 371.851C285.39 373.9 286.043 375.687 284.688 375.468C283.333 375.248 281.88 367.106 282.667 366.405C283.454 365.704 283.938 365.489 283.998 366.136Z" fill="white"/>
<path fill-rule="evenodd" clip-rule="evenodd" d="M281.825 365.87C281.825 365.87 281.146 369.473 281.646 371.617C282.146 373.762 282.549 375.628 281.238 375.21C279.926 374.792 279.596 366.517 280.47 365.94C281.344 365.363 281.853 365.221 281.825 365.87Z" fill="white"/>
<path fill-rule="evenodd" clip-rule="evenodd" d="M292.136 365.783C292.136 365.783 292.376 370.074 293.393 372.378C294.411 374.681 295.266 376.693 293.893 376.582C292.519 376.471 290.14 367.14 290.842 366.239C291.544 365.338 292.001 365.036 292.136 365.783Z" fill="white"/>
<path fill-rule="evenodd" clip-rule="evenodd" d="M290.949 365.703C290.949 365.703 290.131 369.916 290.552 372.414C290.972 374.912 291.306 377.086 290.006 376.612C288.705 376.139 288.688 366.483 289.587 365.799C290.486 365.115 291.002 364.944 290.949 365.703Z" fill="white"/>
<path fill-rule="evenodd" clip-rule="evenodd" d="M300.022 365.209C300.022 365.209 296.22 366.075 297.006 370.875C297.793 375.675 302.571 374.322 302.571 374.322C302.571 374.322 303.703 366.427 300.022 365.209Z" fill="white"/>
<path d="M353.541 323.232L320.144 350.73L312.914 353.909L305.258 348.931L278.969 331.571L278.718 331.985L305.009 349.347L312.872 354.459L320.385 351.156L353.832 323.617L353.541 323.232Z" fill="black"/>
<path fill-rule="evenodd" clip-rule="evenodd" d="M304.448 346.307C304.448 346.307 309.894 347.886 311.406 350.601C312.919 353.317 312.435 357.991 307.958 359.948C303.48 361.906 301.665 363.548 302.815 360.454C303.964 357.359 306.082 351.675 304.448 346.307Z" fill="#AFDEFF"/>
<path fill-rule="evenodd" clip-rule="evenodd" d="M320.301 349.908C320.301 349.908 320.845 356.223 324.173 361.149C327.5 366.075 330.465 366.58 329.376 367.78C328.287 368.98 326.593 369.549 325.504 371.065C324.415 372.58 324.475 372.517 321.934 369.359C319.393 366.201 313.827 359.191 313.706 352.939C313.706 352.939 319.817 347.823 320.301 349.908Z" fill="#AFDEFF"/>
<path d="M321.093 228.63C321.224 228.491 321.434 228.483 321.574 228.609L321.637 228.671C321.679 228.711 321.729 228.755 321.784 228.804C321.945 228.944 322.126 229.084 322.322 229.214C322.857 229.57 323.396 229.784 323.897 229.793C324.404 229.801 324.872 229.629 325.292 229.333C325.437 229.231 325.565 229.121 325.674 229.012L325.71 228.977C325.737 228.948 325.759 228.925 325.774 228.907L325.797 228.88C325.921 228.724 326.143 228.702 326.293 228.832C326.443 228.962 326.463 229.194 326.339 229.35L326.315 229.379C326.28 229.421 326.228 229.477 326.161 229.544C326.024 229.681 325.866 229.816 325.687 229.943C325.155 230.317 324.551 230.539 323.885 230.528C323.233 230.517 322.578 230.257 321.943 229.834C321.721 229.686 321.516 229.528 321.334 229.369L321.281 229.323C321.197 229.248 321.135 229.189 321.097 229.15C320.958 229.008 320.956 228.775 321.093 228.63Z" fill="black"/>
<path d="M313.345 237.963C313.443 237.796 313.648 237.74 313.811 237.832L313.892 237.881L313.953 237.916C313.995 237.94 314.042 237.966 314.093 237.993C314.315 238.11 314.571 238.229 314.854 238.339C315.909 238.749 317.045 238.941 318.193 238.796C318.386 238.771 318.561 238.915 318.585 239.116C318.608 239.318 318.471 239.501 318.278 239.526C317.006 239.687 315.761 239.477 314.608 239.028C314.299 238.908 314.019 238.779 313.774 238.649L313.684 238.6C313.582 238.544 313.506 238.499 313.459 238.469C313.294 238.362 313.243 238.135 313.345 237.963Z" fill="black"/>
<path d="M320.417 226.149L320.864 226.299L320.821 226.445C320.785 226.564 320.746 226.701 320.704 226.852C320.583 227.285 320.462 227.75 320.35 228.229C320.224 228.76 320.117 229.276 320.033 229.763L320.009 229.908C319.805 231.146 319.776 232.092 319.958 232.601L319.969 232.63C321.012 235.323 319.596 236.688 316.624 235.732L316.533 235.702L316.676 235.235C319.354 236.129 320.427 235.122 319.533 232.814C319.287 232.178 319.325 231.1 319.571 229.677C319.657 229.179 319.766 228.653 319.893 228.111C319.995 227.68 320.103 227.259 320.212 226.863L320.253 226.715C320.277 226.627 320.301 226.544 320.323 226.466L320.381 226.27L320.417 226.149Z" fill="black"/>
<path d="M311.686 223.574C312.044 223.524 312.377 223.507 312.682 223.531C313.11 223.564 313.678 223.684 314.363 223.873C314.573 223.93 314.791 223.994 315.015 224.062C315.391 224.177 315.767 224.299 316.125 224.422L316.361 224.503L316.595 224.586C316.932 224.709 317.11 225.094 316.992 225.445C316.877 225.788 316.524 225.973 316.195 225.868L316.161 225.856L316.051 225.817C315.954 225.783 315.844 225.745 315.723 225.703C315.377 225.585 315.015 225.467 314.653 225.357C314.439 225.292 314.232 225.231 314.034 225.177L313.904 225.141C313.348 224.993 312.893 224.899 312.586 224.876C312.38 224.86 312.135 224.872 311.86 224.911C311.529 224.958 311.169 225.04 310.8 225.148C310.616 225.202 310.44 225.259 310.277 225.317L310.196 225.346C310.144 225.364 310.097 225.382 310.055 225.398L309.969 225.432C309.637 225.567 309.262 225.397 309.132 225.05C309.002 224.703 309.166 224.312 309.498 224.176L309.565 224.149C309.618 224.128 309.688 224.102 309.773 224.071C309.982 223.996 310.21 223.92 310.451 223.85C310.874 223.726 311.29 223.63 311.686 223.574Z" fill="black"/>
<path d="M323.102 225.543L323.258 225.539C323.897 225.524 324.422 225.545 324.811 225.613C325.026 225.65 325.25 225.713 325.483 225.798C325.829 225.925 326.188 226.099 326.554 226.308C326.788 226.441 327.013 226.582 327.224 226.724L327.313 226.785C327.456 226.884 327.563 226.962 327.625 227.009C327.905 227.224 327.966 227.636 327.759 227.929C327.559 228.214 327.18 228.282 326.901 228.087L326.814 228.022L326.742 227.971C326.704 227.943 326.663 227.915 326.619 227.885C326.41 227.741 326.183 227.597 325.949 227.463C325.638 227.286 325.339 227.141 325.065 227.04C324.897 226.979 324.742 226.935 324.603 226.911C324.284 226.855 323.774 226.839 323.14 226.859C322.754 226.871 322.339 226.896 321.916 226.93L321.733 226.945C321.613 226.955 321.498 226.966 321.388 226.976L321.073 227.008C320.727 227.048 320.416 226.786 320.378 226.425C320.342 226.073 320.579 225.755 320.912 225.703L321.005 225.692L321.147 225.677L321.187 225.673C321.382 225.654 321.595 225.635 321.82 225.617C322.261 225.582 322.695 225.556 323.102 225.543Z" fill="black"/>
<path d="M310.884 227.426C311.015 227.287 311.226 227.279 311.365 227.405L311.429 227.466L311.482 227.517C311.511 227.543 311.542 227.571 311.576 227.6C311.737 227.739 311.917 227.879 312.113 228.01C312.648 228.366 313.187 228.58 313.688 228.588C314.195 228.597 314.664 228.425 315.083 228.129C315.228 228.027 315.356 227.917 315.466 227.808L315.517 227.756C315.542 227.73 315.561 227.708 315.575 227.692L315.588 227.676C315.712 227.52 315.934 227.498 316.084 227.628C316.234 227.758 316.255 227.989 316.13 228.146L316.107 228.175C316.071 228.217 316.02 228.273 315.952 228.34C315.816 228.476 315.657 228.612 315.478 228.738C314.947 229.113 314.342 229.335 313.677 229.324C313.025 229.313 312.369 229.053 311.734 228.63C311.512 228.482 311.307 228.324 311.125 228.165L311.072 228.119C310.988 228.044 310.926 227.985 310.888 227.946C310.75 227.804 310.748 227.571 310.884 227.426Z" fill="black"/>
<path d="M308.819 244.91L309.048 244.482L309.132 244.53L309.209 244.573C309.326 244.637 309.458 244.707 309.606 244.783L309.67 244.816C310.166 245.068 310.714 245.32 311.299 245.556C312.643 246.097 313.972 246.466 315.208 246.586C315.768 246.64 316.299 246.642 316.797 246.586L316.896 246.574L316.953 247.061C316.392 247.133 315.794 247.135 315.165 247.074C313.88 246.95 312.512 246.569 311.13 246.013C310.532 245.772 309.971 245.515 309.464 245.257L309.272 245.158C309.191 245.115 309.114 245.074 309.043 245.035L308.91 244.962L308.819 244.91Z" fill="#C86A5D"/>
<mask id="mask5" mask-type="alpha" maskUnits="userSpaceOnUse" x="299" y="204" width="30" height="26">
<path fill-rule="evenodd" clip-rule="evenodd" d="M299.283 204.262H328.909V229.58H299.283V204.262Z" fill="white"/>
</mask>
<g mask="url(#mask5)">
<path fill-rule="evenodd" clip-rule="evenodd" d="M302.467 225.2C302.467 225.2 301.746 228.857 302.952 227.739C304.157 226.62 304.137 222.058 306.656 218.865C310.483 214.014 325.7 216.251 326.976 220.101C328.024 223.262 327.679 226.494 327.47 229.579C327.47 229.579 328.822 229.416 328.812 220.765C328.803 213.744 330.093 209.977 323.502 207.59C316.91 205.203 313.646 202.465 307.727 205.835C301.808 209.205 297.954 213.07 299.71 217.172C301.623 221.643 298.82 223.947 299.676 225.109C300.374 226.056 302.467 225.2 302.467 225.2Z" fill="#221108"/>
</g>
<path fill-rule="evenodd" clip-rule="evenodd" d="M317.997 241.993L316 241.748C316 241.748 312.711 244.691 311.302 242.239C309.596 239.27 312.829 238.315 314.826 237.947C316.822 237.579 317.879 237.089 317.879 237.089C318.584 237.825 318.227 237.606 319.441 238.657C320.733 239.776 321.519 243.177 320.139 243.74C318.759 244.303 317.997 241.993 317.997 241.993ZM326.219 235.373C324.222 242.729 322.813 238.315 320.464 236.599C319.169 235.653 312.946 234.147 311.184 236.966C309.422 239.786 309.07 239.664 306.486 237.212C303.902 234.76 303.27 232.452 303.197 229.488C303.06 223.88 302.356 224.122 302.263 223.88C302.23 224.386 301.325 233.996 301.553 237.089C301.788 240.277 306.369 250.208 315.06 249.717C323.752 249.227 325.867 241.012 326.336 235.373" fill="black"/>
</svg>
