<svg width="231" height="231" viewBox="0 0 231 231" fill="none" xmlns="http://www.w3.org/2000/svg">
<g clip-path="url(#clip0_2173_63054)">
<path d="M221.097 75.7655C208.619 51.7423 186.805 35.7576 162.495 29.9366C153.344 27.8114 144.841 23.5612 137.446 17.8326C123.119 6.74491 105.002 -7.4655e-05 85.3144 -7.4655e-05C38.9136 -0.0924717 0.646842 37.6055 -0.000180847 83.8965C-0.185045 96.3701 2.31062 108.197 6.93221 118.915C11.5538 129.725 13.31 141.645 10.9992 153.194C6.10032 178.419 16.4527 205.306 39.2834 220.275C64.24 236.629 96.2214 233.765 117.758 215.193C124.506 209.372 133.102 205.861 141.975 205.861C156.302 205.861 170.906 202.35 184.401 195.05C226.92 171.951 243.28 118.638 221.097 75.7655Z" fill="#E8F4FE"/>
<path d="M213.044 99.8423L208.809 102.187L190.66 112.169L180.829 117.613L164.116 126.839L155.042 131.83C154.966 131.83 154.966 131.83 154.89 131.906L132.506 144.157L119.348 151.416L119.197 151.492C119.121 151.492 119.121 151.492 119.046 151.568L96.6617 163.894L82.2936 171.759L74.5045 176.069L71.1016 177.96C71.6309 178.111 72.1603 178.262 72.614 178.413L74.4289 177.43L83.6548 172.364L84.5622 171.834L96.9642 165.028C97.0398 165.028 97.0398 165.028 97.1154 165.028L119.197 152.853L119.499 152.702L155.193 133.04C155.269 133.04 155.269 133.04 155.344 133.04L164.041 128.276L177.728 120.714L183.097 117.765L208.809 103.623L213.422 101.052C213.497 101.052 213.497 101.052 213.573 101.052L218.488 98.3299C218.564 97.8762 218.64 97.4224 218.715 96.8931L213.195 99.9179C213.195 99.7667 213.119 99.7667 213.044 99.8423Z" fill="#83DCFF"/>
<path d="M217.581 102.262L208.885 107.026L195.197 114.589L189.828 117.538L164.117 131.679L159.504 134.175C159.428 134.175 159.428 134.175 159.353 134.25L123.659 153.912C123.584 153.912 123.584 153.912 123.508 153.988L119.273 156.332L101.124 166.314L91.2931 171.759L76.5469 179.85C76.925 180.077 77.3787 180.228 77.7568 180.455L88.2682 174.708L93.6374 171.759L119.349 157.617L123.962 155.046C124.037 155.046 124.037 155.046 124.113 155.046L159.806 135.385C159.882 135.385 159.882 135.385 159.958 135.385L164.193 133.04L182.342 123.058L192.173 117.613L208.885 108.388L217.43 103.699C217.43 103.548 217.506 103.472 217.506 103.321C217.581 102.943 217.657 102.64 217.733 102.262H217.657C217.657 102.262 217.581 102.262 217.581 102.262Z" fill="#83DCFF"/>
<path d="M217.581 87.5159L208.885 92.28L181.888 107.102C181.812 107.102 181.812 107.102 181.737 107.178L164.117 116.857L162.907 117.538L146.119 126.839C146.043 126.839 146.043 126.839 145.968 126.915L123.584 139.241L119.349 141.585L87.8901 158.827C87.8145 158.827 87.8145 158.827 87.7389 158.903L74.5807 166.162L65.3548 171.229L64.4474 171.758L58.0195 175.313C58.5489 175.464 59.0782 175.615 59.6076 175.766L66.7917 171.834L74.5807 167.524L88.1926 160.037C88.2682 160.037 88.2682 160.037 88.3439 160.037L110.728 147.711L119.424 142.947L146.421 128.049C146.497 128.049 146.497 128.049 146.573 128.049L164.192 118.37L165.402 117.689L182.266 108.387C182.342 108.387 182.342 108.387 182.417 108.387L204.801 96.0611L209.036 93.7168L219.623 87.894C219.623 87.4402 219.623 87.0621 219.623 86.6084L217.581 87.5159Z" fill="#83DCFF"/>
<path d="M199.659 117.084L198.752 117.613L186.35 124.419C186.274 124.419 186.274 124.419 186.199 124.495L164.117 136.67L163.814 136.821L128.121 156.483C128.045 156.483 128.045 156.483 127.97 156.559L119.273 161.323L105.586 168.885L100.217 171.834L80.8574 182.497C81.1599 182.724 81.538 183.026 81.8405 183.253L92.73 177.279L102.561 171.834L119.273 162.608L128.348 157.617C128.424 157.617 128.424 157.617 128.499 157.617L150.883 145.291L164.041 138.031L164.193 137.956C164.268 137.956 164.268 137.956 164.344 137.956L186.728 125.629L201.096 117.765L208.885 113.454L215.842 109.598C215.994 109.068 216.145 108.539 216.296 108.01L208.885 112.017L199.659 117.084Z" fill="#83DCFF"/>
<path d="M207.674 117.538L190.81 126.839C190.735 126.839 190.735 126.839 190.659 126.915L168.351 139.241L164.116 141.585L132.657 158.903C132.582 158.903 132.582 158.903 132.506 158.978L119.348 166.238L110.122 171.305L109.215 171.834L96.8126 178.64C96.7369 178.64 96.7369 178.64 96.6613 178.716L84.335 185.522C84.6374 185.824 84.8643 186.051 85.0912 186.354L97.115 179.699L111.483 171.834L119.272 167.524L132.884 160.037C132.96 160.037 132.96 160.037 133.035 160.037L155.419 147.711L164.116 142.947L191.113 128.049C191.189 128.049 191.189 128.049 191.264 128.049L208.884 118.37L210.094 117.689L213.573 115.798C213.799 115.269 214.026 114.664 214.253 114.135L208.96 117.084L207.674 117.538Z" fill="#83DCFF"/>
<path d="M208.733 97.3468C208.658 97.3468 208.658 97.3468 208.582 97.4224L186.198 109.673L171.83 117.538L164.041 121.848L150.505 129.335C150.429 129.335 150.429 129.335 150.353 129.41L127.969 141.737L119.273 146.501L92.2759 161.323C92.2003 161.323 92.2003 161.323 92.1247 161.398L74.5048 171.078L73.2949 171.759L64.2959 176.75C64.9009 176.825 65.5058 176.977 66.1108 177.052L74.4292 172.439L75.6392 171.759L92.5028 162.457C92.5784 162.457 92.5784 162.457 92.6541 162.457L115.038 150.131L119.273 147.787L150.732 130.469C150.807 130.469 150.807 130.469 150.883 130.469L164.041 123.209L173.342 118.067L174.25 117.538L186.652 110.732C186.728 110.732 186.728 110.732 186.803 110.732L208.885 98.5567L209.187 98.4055L219.245 92.8851C219.321 92.4314 219.32 91.9777 219.32 91.5239L208.885 97.2712L208.733 97.3468Z" fill="#83DCFF"/>
<path d="M168.275 153.988L164.04 156.332L145.891 166.314L136.06 171.759L119.348 180.985L110.273 185.976C110.198 185.976 110.198 185.976 110.122 186.051L92.124 195.958C92.3509 196.26 92.5778 196.563 92.8046 196.865L110.5 187.11C110.576 187.11 110.576 187.11 110.651 187.11L119.348 182.346L133.035 174.784L138.405 171.834L164.116 157.693L168.729 155.122C168.804 155.122 168.805 155.122 168.88 155.122L201.397 137.2C201.624 136.595 201.851 136.065 202.154 135.536L168.502 154.063C168.426 153.912 168.351 153.912 168.275 153.988Z" fill="#83DCFF"/>
<path d="M190.659 166.314L180.829 171.759L164.116 180.984L155.042 185.975C154.966 185.975 154.966 185.975 154.89 186.051L132.506 198.302L119.348 205.561L119.197 205.637C119.121 205.637 119.121 205.637 119.046 205.713L109.215 211.158C109.593 211.384 109.971 211.611 110.349 211.762L119.273 206.847L119.575 206.696L155.269 187.034C155.344 187.034 155.344 187.034 155.42 187.034L164.116 182.27L177.804 174.708L183.173 171.759L200.263 162.381C200.263 161.928 200.339 161.474 200.339 161.02L190.659 166.314C190.735 166.314 190.659 166.314 190.659 166.314Z" fill="#83DCFF"/>
<path d="M195.197 168.734L189.828 171.683L164.116 185.824L159.504 188.32C159.428 188.32 159.428 188.32 159.352 188.396L123.659 208.057C123.583 208.057 123.583 208.057 123.508 208.133L119.273 210.477L113.677 213.578C114.13 213.804 114.509 213.956 114.962 214.183L119.273 211.838L123.886 209.267C123.961 209.267 123.961 209.267 124.037 209.267L159.73 189.605C159.806 189.605 159.806 189.605 159.882 189.605L164.116 187.261L182.266 177.279L192.097 171.834L199.734 167.675C199.81 167.221 199.886 166.768 199.886 166.314L195.197 168.734Z" fill="#83DCFF"/>
<path d="M199.659 131.83L177.275 144.157L164.117 151.416L163.966 151.492C163.89 151.492 163.89 151.492 163.814 151.568L141.43 163.894L127.062 171.759L119.273 176.069L105.737 183.556C105.661 183.556 105.661 183.556 105.586 183.631L89.5537 192.479C89.7806 192.781 90.0074 193.084 90.2343 193.386L106.115 184.69C106.191 184.69 106.191 184.69 106.266 184.69L119.424 177.43L128.65 172.364L129.558 171.834L141.96 165.028C142.035 165.028 142.035 165.028 142.111 165.028L164.192 152.853L164.495 152.702L200.188 133.04C200.264 133.04 200.264 133.04 200.34 133.04L205.633 130.091C206.162 129.41 206.616 128.73 207.07 127.974L199.961 131.906C199.735 131.755 199.735 131.83 199.659 131.83Z" fill="#83DCFF"/>
<path d="M195.349 129.335C195.273 129.335 195.273 129.335 195.197 129.41L172.813 141.737L164.117 146.501L137.12 161.323C137.044 161.323 137.044 161.323 136.969 161.398L119.349 171.078L118.139 171.759L101.275 181.06C101.199 181.06 101.199 181.06 101.124 181.136L87.1338 188.849C87.3607 189.152 87.5875 189.454 87.8144 189.757L101.578 182.194C101.653 182.194 101.653 182.194 101.729 182.194L119.349 172.515L120.559 171.834L137.422 162.533C137.498 162.533 137.498 162.533 137.574 162.533L159.958 150.206L164.192 147.862L195.651 130.545C195.727 130.545 195.727 130.545 195.802 130.545L208.96 123.285L210.322 122.529C210.624 121.924 211.002 121.319 211.305 120.714L208.885 121.848L195.349 129.335Z" fill="#83DCFF"/>
<path d="M168.276 208.133L164.041 210.477L148.841 218.796C150.051 218.644 151.185 218.417 152.319 218.191L163.965 211.763L168.578 209.192C168.654 209.192 168.654 209.192 168.729 209.192L183.173 201.251C184.005 200.419 184.837 199.512 185.593 198.604L168.502 208.057C168.427 208.057 168.351 208.057 168.276 208.133Z" fill="#83DCFF"/>
<path d="M190.66 181.06L168.276 193.387L164.041 195.731L132.582 213.048C132.507 213.048 132.507 213.048 132.431 213.124L124.415 217.51C124.944 217.661 125.474 217.812 126.079 217.888L132.885 214.107C132.96 214.107 132.96 214.107 133.036 214.107L155.42 201.781L164.116 197.016L191.113 182.119C191.189 182.119 191.189 182.119 191.265 182.119L197.012 178.943C197.163 178.413 197.39 177.884 197.541 177.355L190.887 181.06C190.811 180.985 190.735 180.985 190.66 181.06Z" fill="#83DCFF"/>
<path d="M172.813 195.806L164.116 200.57L137.12 215.392C137.044 215.392 137.044 215.392 136.968 215.468L130.994 218.795C131.599 218.871 132.28 218.947 132.885 219.022L137.422 216.527C137.498 216.527 137.498 216.527 137.573 216.527L159.957 204.2L164.192 201.856L194.441 185.219C194.592 184.841 194.819 184.463 194.97 184.085C195.046 183.858 195.121 183.707 195.273 183.556C195.273 183.556 195.273 183.556 195.273 183.48L172.813 195.806Z" fill="#83DCFF"/>
<path d="M177.275 198.302L164.117 205.562L163.966 205.637C163.89 205.637 163.89 205.637 163.814 205.713L141.43 218.039L138.708 219.552C139.464 219.552 140.296 219.552 141.052 219.552L141.809 219.098C141.884 219.098 141.884 219.098 141.96 219.098L164.041 206.923L164.344 206.772L190.282 192.479C190.736 191.799 191.114 191.194 191.568 190.513L177.275 198.302Z" fill="#83DCFF"/>
<path d="M186.349 178.565C186.273 178.565 186.273 178.565 186.198 178.64L164.116 190.815L163.814 190.967L128.12 210.628C128.045 210.628 128.045 210.628 127.969 210.704L119.273 215.468L118.743 215.771C118.894 215.846 119.121 215.922 119.273 215.922C119.575 215.997 119.877 216.149 120.18 216.224L128.347 211.687C128.423 211.687 128.423 211.687 128.498 211.687L150.882 199.361L164.041 192.101L164.192 192.025C164.267 192.025 164.267 192.025 164.343 192.025L186.727 179.699L198.675 173.12C198.751 172.666 198.902 172.212 198.978 171.834C198.978 171.759 198.978 171.759 198.978 171.683L198.675 171.834L186.349 178.565Z" fill="#83DCFF"/>
<path d="M106.19 22.1032L112.92 18.3977C110.727 19.4564 108.534 20.5907 106.417 21.8007C106.266 21.8763 106.039 22.0275 105.888 22.1032C105.434 22.4057 104.98 22.6325 104.526 22.935L106.114 22.0275C106.114 22.1032 106.114 22.1032 106.19 22.1032Z" fill="#83DCFF"/>
<path d="M110.652 24.5986L119.348 19.8345L132.884 12.3479C131.674 12.4991 130.54 12.726 129.406 12.9529L119.348 18.4733L110.274 23.4643C110.198 23.4643 110.198 23.4643 110.122 23.5399L90.6875 34.2782C89.9313 35.0344 89.2507 35.7906 88.5701 36.6225C88.4944 36.6981 88.4188 36.8494 88.2676 36.925L110.576 24.6742C110.576 24.5986 110.652 24.5986 110.652 24.5986Z" fill="#83DCFF"/>
<path d="M79.1932 155.046C79.2688 155.046 79.2688 155.046 79.3444 155.046L115.038 135.384C115.114 135.384 115.114 135.384 115.189 135.384L119.424 133.04L137.573 123.058L147.404 117.613L164.116 108.387L173.191 103.396C173.267 103.396 173.267 103.396 173.342 103.396L195.726 91.0701L208.885 83.8104L209.036 83.7348C209.111 83.7348 209.111 83.7348 209.187 83.7348L219.018 78.29C218.942 77.9119 218.942 77.5338 218.867 77.0801L208.885 82.4492L208.582 82.6005L172.889 102.262C172.813 102.262 172.813 102.262 172.737 102.338L164.041 107.102L150.353 114.664L144.984 117.613L119.273 131.755L114.66 134.25C114.584 134.25 114.584 134.25 114.509 134.326L78.8151 153.987C78.7395 153.987 78.7395 153.987 78.6639 154.063L74.429 156.407L56.2798 166.389L47.3564 171.305C47.7346 171.456 48.037 171.607 48.4151 171.834C48.4908 171.834 48.5664 171.91 48.642 171.91L48.7933 171.834L74.5047 157.693L79.1932 155.046Z" fill="#83DCFF"/>
<path d="M83.6548 157.466C83.7304 157.466 83.7304 157.466 83.806 157.466L106.19 145.14L119.348 137.88L119.499 137.804C119.575 137.804 119.575 137.804 119.651 137.804L142.035 125.478L156.403 117.613L164.192 113.303L177.804 105.816C177.879 105.816 177.879 105.816 177.955 105.816L200.339 93.4901L209.036 88.7259L219.547 82.9787C219.547 82.525 219.471 82.1468 219.471 81.6931L213.27 85.0961L209.036 87.4404L177.577 104.758C177.501 104.758 177.501 104.758 177.426 104.833L164.268 112.093L155.042 117.16L154.134 117.689L141.732 124.495C141.657 124.495 141.657 124.495 141.581 124.571L119.499 136.746L119.197 136.897L83.5035 156.559C83.4279 156.559 83.4279 156.559 83.3523 156.634L74.6558 161.398L60.9682 168.961L55.5991 171.91L52.5742 173.574C53.0279 173.725 53.4817 173.952 54.011 174.103L58.019 171.91L74.7314 162.684L83.6548 157.466Z" fill="#83DCFF"/>
<path d="M106.19 199.285L119.348 192.025L119.5 191.95C119.575 191.95 119.575 191.95 119.651 191.95L142.035 179.623L156.403 171.759L164.192 167.448L177.804 159.962C177.88 159.962 177.88 159.962 177.955 159.962L199.659 148.013C199.659 147.862 199.659 147.711 199.659 147.56C199.659 147.333 199.659 147.03 199.659 146.803C199.659 146.803 199.659 146.803 199.659 146.728L177.577 158.903C177.501 158.903 177.501 158.903 177.426 158.979L164.268 166.238L155.042 171.305L154.134 171.834L141.732 178.64C141.657 178.64 141.657 178.64 141.581 178.716L119.5 190.891L119.197 191.042L98.0986 202.612C98.4011 202.915 98.7036 203.142 98.9305 203.444L106.19 199.285Z" fill="#83DCFF"/>
<path d="M110.653 201.78L119.349 197.016L146.346 182.119C146.422 182.119 146.422 182.119 146.497 182.119L164.117 172.439L165.327 171.759L182.191 162.457C182.266 162.457 182.266 162.457 182.342 162.457L200.038 152.702C199.962 152.324 199.962 151.87 199.886 151.492L181.964 161.398C181.888 161.398 181.888 161.398 181.813 161.474L164.193 171.154L162.983 171.834L146.119 180.984C146.044 180.984 146.044 180.984 145.968 181.06L123.584 193.386L119.349 195.731L101.427 205.637C101.729 205.864 102.032 206.166 102.41 206.393L110.653 201.78Z" fill="#83DCFF"/>
<path d="M115.113 204.2L119.348 201.856L150.807 184.539C150.882 184.539 150.882 184.539 150.958 184.539L164.116 177.279L173.342 172.212L174.25 171.683L186.652 164.877C186.727 164.877 186.727 164.877 186.803 164.877L200.339 157.391C200.339 157.013 200.339 156.559 200.263 156.181L186.198 163.818L171.83 171.683L164.041 175.994L150.504 183.48C150.429 183.48 150.429 183.48 150.353 183.556L127.969 195.882L119.273 200.646L105.056 208.435C105.434 208.662 105.736 208.889 106.114 209.116L115.113 204.2Z" fill="#83DCFF"/>
<path d="M115.113 189.454L119.348 187.11L137.497 177.128L147.328 171.683L164.04 162.457L173.115 157.466C173.191 157.466 173.191 157.466 173.266 157.466L195.65 145.14L199.734 142.871C199.81 142.417 199.885 141.888 199.961 141.434L172.813 156.407C172.737 156.407 172.737 156.407 172.661 156.483L163.965 161.247L150.277 168.809L144.908 171.759L119.197 185.9L114.584 188.395C114.508 188.395 114.508 188.395 114.433 188.471L94.6953 199.285C94.9222 199.587 95.2247 199.89 95.4515 200.117L114.811 189.454C115.038 189.454 115.113 189.454 115.113 189.454Z" fill="#83DCFF"/>
<path d="M34.4251 100.901C34.5007 100.901 34.5007 100.901 34.5764 100.901L70.2698 81.2394C70.3455 81.2394 70.3455 81.2394 70.4211 81.2394L74.6559 78.8951L92.8051 68.913L102.636 63.4682L119.348 54.2424L128.423 49.2513C128.499 49.2513 128.499 49.2513 128.574 49.2513L150.958 36.925L164.116 29.6653L164.268 29.5897C164.343 29.5897 164.343 29.5897 164.419 29.5897L180.451 20.7419C180.073 20.5151 179.695 20.2882 179.316 20.137L164.268 28.4554L163.965 28.6066L128.272 48.2683C128.196 48.2683 128.196 48.2683 128.12 48.3439L119.424 53.1081L105.736 60.6702L100.367 63.6195L74.6559 77.7607L70.043 80.2563C69.9673 80.2563 69.9673 80.2563 69.8917 80.3319L34.1982 99.9936C34.1226 99.9936 34.1226 99.9936 34.047 100.069L29.8122 102.413L11.663 112.396L11.5117 112.169C11.5117 112.622 11.5117 113 11.5117 113.454L29.8122 103.397L34.4251 100.901Z" fill="#83DCFF"/>
<path d="M30.0387 98.4055C30.1144 98.4055 30.1144 98.4055 30.0387 98.4055L65.7322 78.7438C65.8078 78.7438 65.8078 78.7438 65.8835 78.7438L74.58 73.9796L88.2675 66.4175L93.6367 63.4682L119.348 49.3269L123.961 46.7558C124.037 46.7558 124.037 46.7558 124.112 46.7558L159.806 27.0941C159.881 27.0941 159.881 27.0941 159.957 27.0941L164.192 24.7499L175.838 18.322C175.384 18.0951 175.006 17.9439 174.552 17.717L164.192 23.3887L159.579 25.8842C159.503 25.8842 159.503 25.8842 159.428 25.9598L123.81 45.6215C123.734 45.6215 123.734 45.6215 123.658 45.6971L119.424 48.0414L101.274 58.0234L91.4436 63.4682L74.58 72.6184L65.5054 77.6095C65.4297 77.6095 65.4297 77.6095 65.3541 77.6851L42.9701 90.0115L29.8119 97.2711L29.6606 97.3468C29.585 97.3468 29.585 97.3468 29.5094 97.4224L11.8895 107.102C11.8895 107.102 11.8895 107.102 11.8895 107.178C11.8139 107.631 11.8139 108.085 11.7383 108.539C11.7383 108.539 11.7383 108.539 11.7383 108.614L29.8119 98.6323L30.0387 98.4055Z" fill="#83DCFF"/>
<path d="M39.0382 63.922L39.9457 63.3926L52.3477 56.5867C52.4233 56.5867 52.4233 56.5867 52.4989 56.5867L62.1785 51.2175H62.1029C60.7417 51.52 59.3805 51.8225 58.0193 52.2006C57.9437 52.2006 57.9437 52.2006 57.8681 52.2762L51.9696 55.528L37.6014 63.3926L32.8372 66.0394C31.7785 66.9469 30.7955 67.9299 29.8124 68.913C29.7368 68.9886 29.7368 68.9886 29.6611 69.0643L29.8124 68.9886L39.0382 63.922Z" fill="#83DCFF"/>
<path d="M43.4998 66.4175L48.869 63.4683L74.5804 49.327L79.1933 46.7559C79.2689 46.7559 79.2689 46.7559 79.3445 46.7559L115.038 27.0942C115.114 27.0942 115.114 27.0942 115.189 27.0942L119.424 24.7499L137.573 14.7678L143.472 11.5161C142.64 11.5161 141.808 11.5917 140.976 11.5917L119.348 23.4644L114.736 25.9599C114.66 25.9599 114.66 25.9599 114.584 26.0355L79.4958 45.319C79.3445 45.3947 79.1933 45.5459 79.0421 45.6215C78.8908 45.6972 78.7396 45.8484 78.5883 45.924C77.3028 46.7559 75.9416 47.4365 74.5804 48.0414C74.4291 48.1171 74.2779 48.1927 74.1266 48.2683L56.4312 58.0235L46.6003 63.4683L29.8123 72.6185L23.9138 75.8702C23.3845 76.5508 22.9307 77.2314 22.4014 77.9876L29.8123 73.9041L43.4998 66.4175Z" fill="#83DCFF"/>
<path d="M29.9633 137.805C30.0389 137.805 30.0389 137.805 30.1145 137.805L52.4985 125.478L66.8667 117.614L74.6557 113.303L88.2676 105.817C88.3433 105.817 88.3433 105.817 88.4189 105.817L110.803 93.4902L119.499 88.7261L146.496 73.8286C146.572 73.8286 146.572 73.8286 146.648 73.8286L164.268 64.149L165.477 63.4684L182.341 54.1669C182.417 54.1669 182.417 54.1669 182.492 54.1669L204.876 41.8406C204.65 41.5381 204.423 41.2356 204.196 40.9331L182.114 53.0326C182.039 53.0326 182.039 53.0326 181.963 53.1082L164.343 62.7878L163.133 63.4684L146.118 72.6943C146.043 72.6943 146.043 72.6943 145.967 72.7699L123.583 85.0962L119.348 87.4405L87.8895 104.682C87.8139 104.682 87.8139 104.682 87.7383 104.758L74.5801 112.018L65.3542 117.084L64.4468 117.614L52.0448 124.42C51.9692 124.42 51.9692 124.42 51.8936 124.495L29.812 136.67L29.5095 136.822L18.4688 142.947C18.62 143.249 18.8469 143.627 18.9981 143.93L29.812 137.956L29.9633 137.805Z" fill="#83DCFF"/>
<path d="M56.8088 127.974C56.8844 127.974 56.8844 127.974 56.96 127.974L74.5799 118.294L75.7898 117.613L92.6535 108.312C92.7291 108.312 92.7291 108.312 92.8047 108.312L115.189 95.9855L119.424 93.6413L150.882 76.3239C150.958 76.3239 150.958 76.3239 151.033 76.3239L164.192 69.0642L173.418 63.9975L174.325 63.4682L186.727 56.6622C186.803 56.6622 186.803 56.6622 186.878 56.6622L207.22 45.4702C206.994 45.1677 206.842 44.8652 206.615 44.5627L186.198 55.5279L171.829 63.3926L164.04 67.703L150.504 75.1896C150.429 75.1896 150.429 75.1896 150.353 75.2652L127.969 87.5915L119.272 92.3557L92.2754 107.178C92.1998 107.178 92.1997 107.178 92.1241 107.253L74.5043 116.933L73.2943 117.613L56.4307 126.915C56.355 126.915 56.355 126.915 56.2794 126.99L34.0466 139.241L29.8118 141.585L20.5859 146.652C20.8128 146.955 20.964 147.333 21.1909 147.635L29.8874 142.871L56.8088 127.974Z" fill="#83DCFF"/>
<path d="M34.5764 154.971L70.2699 135.309C70.3455 135.309 70.3455 135.309 70.4211 135.309L74.6559 132.965L92.8052 122.983L102.636 117.538L119.348 108.312L128.423 103.321C128.499 103.321 128.499 103.321 128.574 103.321L150.958 90.9946L164.116 83.7349L164.268 83.6593C164.343 83.6593 164.343 83.6593 164.419 83.6593L186.803 71.3329L201.171 63.4682L208.96 59.1578L213.346 56.7379C213.195 56.3598 213.044 56.0573 212.893 55.6792L208.96 57.8722L199.734 62.9389L198.827 63.4682L186.425 70.2742C186.349 70.2742 186.349 70.2742 186.274 70.3498L164.192 82.5249L163.89 82.6762L128.196 102.338C128.121 102.338 128.121 102.338 128.045 102.413L119.348 107.178L105.661 114.74L100.292 117.689L74.5803 131.83L69.9674 134.326C69.8918 134.326 69.8918 134.326 69.8162 134.401L34.1227 154.063C34.0471 154.063 34.0471 154.063 33.9714 154.139L29.7366 156.483L28.2998 157.315C28.6023 157.617 28.8292 157.92 29.1316 158.147L29.8122 157.769L34.4252 155.197C34.5008 155.046 34.5008 155.046 34.5764 154.971Z" fill="#83DCFF"/>
<path d="M39.0387 157.466L61.4228 145.14L74.581 137.88L74.7322 137.805C74.8078 137.805 74.8078 137.805 74.8835 137.805L97.2675 125.478L111.636 117.614L119.425 113.303L133.037 105.817C133.112 105.817 133.112 105.817 133.188 105.817L155.572 93.4902L164.268 88.726L191.265 73.8285C191.341 73.8285 191.341 73.8285 191.417 73.8285L208.885 64.0733L210.095 63.3927L214.935 60.746C214.784 60.3679 214.632 60.0654 214.557 59.6873L208.961 62.7878L207.751 63.4683L190.887 72.6942C190.812 72.6942 190.812 72.6942 190.736 72.7698L168.352 85.0962L164.117 87.4404L132.658 104.758C132.583 104.758 132.583 104.758 132.507 104.833L119.349 112.093L110.123 117.16L109.216 117.689L96.8138 124.495C96.7381 124.495 96.7381 124.495 96.6625 124.571L74.581 136.746L74.2785 136.897L38.585 156.559C38.5094 156.559 38.5094 156.559 38.4338 156.634L31.4766 160.491C31.779 160.794 32.0815 161.02 32.384 161.323L38.8875 157.769C38.9631 157.466 38.9631 157.466 39.0387 157.466Z" fill="#83DCFF"/>
<path d="M43.4994 159.962L65.8834 147.635L74.5799 142.871L101.577 127.974C101.652 127.974 101.652 127.974 101.728 127.974L119.348 118.294L120.558 117.614L137.422 108.312C137.497 108.312 137.497 108.312 137.573 108.312L159.957 95.9857L164.192 93.6414L195.65 76.324C195.726 76.324 195.726 76.324 195.802 76.324L208.96 69.0643L216.371 64.9808C216.295 64.6027 216.144 64.2245 216.068 63.8464L208.96 67.7788L195.423 75.2653C195.348 75.2653 195.348 75.2653 195.272 75.3409L172.888 87.6673L164.192 92.4315L137.195 107.253C137.119 107.253 137.119 107.253 137.043 107.329L119.424 117.009L118.214 117.689L101.35 126.991C101.274 126.991 101.274 126.991 101.199 127.066L78.8147 139.241L74.5799 141.586L43.1213 158.903C43.0456 158.903 43.0456 158.903 42.97 158.979L34.9541 163.289C35.2566 163.516 35.5591 163.818 35.9372 164.045L43.4237 159.962H43.4994Z" fill="#83DCFF"/>
<path d="M47.9612 162.381L70.3452 150.055L74.5801 147.711L106.039 130.393C106.114 130.393 106.114 130.393 106.19 130.393L119.348 123.134L128.574 118.067L129.481 117.538L141.883 110.732C141.959 110.732 141.959 110.732 142.035 110.732L164.116 98.5567L164.419 98.4054L200.112 78.7438C200.188 78.7438 200.188 78.7438 200.263 78.7438L208.96 73.9796L217.505 69.2911C217.43 68.913 217.354 68.5348 217.203 68.1567L208.884 72.694L199.81 77.6851C199.734 77.6851 199.734 77.6851 199.658 77.7607L177.274 90.087L164.116 97.3467L163.965 97.4224C163.889 97.4224 163.889 97.4224 163.814 97.498L141.43 109.824L127.062 117.689L119.273 121.999L105.736 129.486C105.661 129.486 105.661 129.486 105.585 129.562L83.2009 141.888L74.5044 146.652L47.5075 161.474C47.4319 161.474 47.4319 161.474 47.3562 161.55L38.7354 166.163C39.1135 166.389 39.4159 166.616 39.7941 166.843L47.8856 162.381H47.9612Z" fill="#83DCFF"/>
<path d="M52.4985 164.877L74.58 152.702L74.8825 152.551L110.576 132.889C110.652 132.889 110.652 132.889 110.727 132.889L119.424 128.125L133.111 120.563L138.48 117.613L164.192 103.472L168.805 100.901C168.88 100.901 168.88 100.901 168.956 100.901L204.649 81.2394C204.725 81.2394 204.725 81.2394 204.801 81.2394L209.036 78.8951L218.488 73.6772C218.413 73.2991 218.337 72.921 218.261 72.4673L208.884 77.5339L204.271 80.0295C204.196 80.0295 204.196 80.0295 204.12 80.1051L168.427 99.7667C168.351 99.7667 168.351 99.7667 168.275 99.8424L164.041 102.187L145.891 112.169L136.061 117.613L119.348 126.839L110.274 131.83C110.198 131.83 110.198 131.83 110.122 131.906L87.7382 144.232L74.58 151.492L74.4288 151.568C74.3532 151.568 74.3532 151.568 74.2776 151.643L51.8935 163.97L42.8945 168.961C43.2726 169.188 43.6507 169.414 44.0289 169.641L52.3473 165.104C52.3473 164.877 52.4229 164.877 52.4985 164.877Z" fill="#83DCFF"/>
<path d="M30.0393 152.551C30.0393 152.551 30.1149 152.551 30.0393 152.551L65.7327 132.889C65.8084 132.889 65.8084 132.889 65.884 132.889L74.5805 128.125L88.268 120.563L93.6372 117.613L119.349 103.472L123.962 100.901C124.037 100.901 124.037 100.901 124.113 100.901L159.806 81.2394C159.882 81.2394 159.882 81.2394 159.957 81.2394L164.192 78.8951L182.342 68.913L192.172 63.4683L208.885 54.2424L211.456 52.8056C211.305 52.5031 211.078 52.125 210.927 51.8225L208.885 52.9568L195.197 60.519L189.828 63.4683L164.117 77.6095L159.504 80.1051C159.428 80.1051 159.428 80.1051 159.352 80.1807L123.659 99.8423C123.583 99.8423 123.583 99.8423 123.508 99.918L119.273 102.262L101.124 112.244L91.2929 117.689L74.5805 126.915L65.5059 131.906C65.4303 131.906 65.4302 131.906 65.3546 131.982L42.9706 144.308L29.8124 151.568L29.6612 151.643C29.5855 151.643 29.5855 151.643 29.5099 151.719L25.502 153.912C25.7288 154.214 25.9557 154.517 26.1825 154.744L29.7368 152.778L30.0393 152.551Z" fill="#83DCFF"/>
<path d="M30.9465 117.538L47.8102 108.236C47.8858 108.236 47.8858 108.236 47.9614 108.236L70.3455 95.9101L74.5803 93.5658L106.039 76.2485C106.115 76.2485 106.115 76.2485 106.19 76.2485L119.348 68.9888L128.574 63.9221L129.482 63.3928L141.884 56.5868C141.959 56.5868 141.959 56.5868 142.035 56.5868L164.116 44.4117L164.419 44.2605L192.399 28.8336C192.097 28.6067 191.794 28.3043 191.492 28.0774L177.35 35.8664L164.192 43.1261L164.041 43.2017C163.965 43.2017 163.965 43.2017 163.89 43.2774L141.506 55.6037L127.137 63.4684L119.348 67.7788L105.812 75.2654C105.736 75.2654 105.736 75.2654 105.661 75.341L83.2768 87.6674L74.5803 92.4315L47.5833 107.253C47.5077 107.253 47.5077 107.253 47.4321 107.329L29.8122 117.009L28.6023 117.689L12.7217 126.461C12.7973 126.839 12.8729 127.218 12.9485 127.596L29.8122 118.294L30.9465 117.538Z" fill="#83DCFF"/>
<path d="M29.8122 108.388L38.8868 103.397C38.9624 103.397 38.9624 103.397 39.038 103.397L61.4221 90.9946L74.5803 83.7349L74.7315 83.6593C74.8071 83.6593 74.8071 83.6593 74.8828 83.6593L97.2668 71.3329L111.635 63.4683L119.424 59.1578L133.036 51.6713C133.112 51.6713 133.112 51.6713 133.187 51.6713L155.571 39.3449L164.268 34.5807L184.837 23.2375C184.459 23.0106 184.081 22.7838 183.702 22.5569L168.427 30.9509L164.192 33.2952L132.733 50.6126C132.658 50.6126 132.658 50.6126 132.582 50.6882L119.424 57.9479L110.198 63.0145L109.291 63.5439L96.8887 70.3498C96.8131 70.3498 96.8131 70.3498 96.7374 70.4255L74.5803 82.4493L74.2778 82.6006L38.5843 102.262C38.5087 102.262 38.5087 102.262 38.4331 102.338L29.7366 107.102L16.049 114.664L11.5117 117.16C11.5117 117.311 11.5117 117.462 11.5117 117.613C11.5117 117.84 11.5117 118.143 11.5873 118.37L13.0242 117.613L29.8122 108.388Z" fill="#83DCFF"/>
<path d="M29.8116 113.303L43.4235 105.816C43.4991 105.816 43.4991 105.816 43.5747 105.816L65.9588 93.4901L74.6553 88.7259L101.652 73.8284C101.728 73.8284 101.728 73.8284 101.804 73.8284L119.423 64.1488L120.633 63.4682L137.497 54.1667C137.573 54.1667 137.573 54.1667 137.648 54.1667L160.032 41.8404L164.267 39.4961L188.844 25.9598C188.542 25.733 188.164 25.5061 187.861 25.2036L172.812 33.3708L164.116 38.1349L137.119 53.0324C137.043 53.0324 137.043 53.0324 136.968 53.108L119.348 62.7876L118.138 63.4682L101.35 72.6941C101.274 72.6941 101.274 72.6941 101.199 72.7697L78.8145 85.096L74.5797 87.4403L43.121 104.758C43.0454 104.758 43.0454 104.758 42.9698 104.833L29.8116 112.017L20.5857 117.084L19.6783 117.613L11.9648 121.848C12.0405 122.226 12.0405 122.68 12.1161 123.058L22.0225 117.613L29.8116 113.303Z" fill="#83DCFF"/>
<path d="M16.6543 90.9947L29.8125 83.735L29.9637 83.6594C30.0393 83.6594 30.0393 83.6594 30.115 83.6594L52.499 71.3331L66.8671 63.4684L74.6562 59.158L88.2681 51.6714C88.3437 51.6714 88.3437 51.6714 88.4193 51.6714L110.803 39.3451L119.5 34.5809L146.497 19.6834C146.572 19.6834 146.572 19.6834 146.648 19.6834L159.05 12.8774C158.445 12.7262 157.84 12.6506 157.311 12.575L146.27 18.6247C146.194 18.6247 146.194 18.6247 146.119 18.7003L123.735 31.0267L119.5 33.3709L87.89 50.5371C87.8144 50.5371 87.8144 50.5371 87.7388 50.6127L74.5806 57.8724L65.3547 62.939L64.4473 63.3928L52.0453 70.1987C51.9697 70.1987 51.9697 70.1987 51.894 70.2744L29.8125 82.4495L29.51 82.6007L16.0493 90.0117C15.9737 90.2385 15.8981 90.4654 15.8224 90.6166C15.6712 90.9191 15.5956 91.2972 15.4443 91.5997L16.6543 90.9947Z" fill="#83DCFF"/>
<path d="M21.1159 93.4901L29.8124 88.7259L56.8094 73.8284C56.885 73.8284 56.885 73.8284 56.9606 73.8284L74.5805 64.1488L75.7904 63.4682L92.6541 54.1668C92.7297 54.1668 92.7297 54.1668 92.8053 54.1668L115.114 41.7648L119.349 39.4205L150.807 22.1031C150.883 22.1031 150.883 22.1031 150.958 22.1031L164.117 14.8434L165.1 14.3141C164.797 14.2385 164.495 14.1628 164.117 14.0116C163.89 13.936 163.739 13.936 163.512 13.8604L150.58 20.9688C150.505 20.9688 150.505 20.9688 150.429 21.0444L128.045 33.3708L119.349 38.1349L92.3516 53.0324C92.276 53.0324 92.276 53.0324 92.2003 53.1081L74.5805 62.7876L73.3705 63.4682L56.5825 72.6941C56.5069 72.6941 56.5069 72.6941 56.4313 72.7697L34.0472 85.0961L29.8124 87.4403L14.0074 96.0612C13.8562 96.5906 13.705 97.0443 13.5537 97.5737L21.1159 93.4901Z" fill="#83DCFF"/>
<path d="M25.5776 95.91L29.8124 93.5657L61.271 76.2483C61.3467 76.2483 61.3467 76.2483 61.4223 76.2483L74.5805 68.9886L83.8063 63.922L84.7138 63.3926L97.1157 56.5867C97.1914 56.5867 97.1914 56.5867 97.267 56.5867L119.349 44.4116L119.651 44.2603L155.344 24.5987C155.42 24.5987 155.42 24.5987 155.496 24.5987L164.192 19.8345L170.771 16.2046C170.318 16.0534 169.864 15.8265 169.335 15.6753L164.192 18.4733L155.118 23.4643C155.042 23.4643 155.042 23.4643 154.966 23.54L132.507 35.8663L119.349 43.126L119.197 43.2016C119.122 43.2016 119.122 43.2016 119.046 43.2772L96.662 55.6036L82.2939 63.4683L74.5048 67.7787L60.9685 75.2653C60.8929 75.2653 60.8929 75.2653 60.8173 75.3409L38.4333 87.6672L29.7368 92.4314L12.6462 101.733C12.5706 102.187 12.495 102.716 12.3438 103.17L25.5776 95.91Z" fill="#83DCFF"/>
<path d="M25.5774 81.1639L29.8122 78.8196L47.9614 68.8375L57.7923 63.3928L74.5047 54.1669L83.5793 49.1759C83.6549 49.1759 83.6549 49.1759 83.7305 49.1759L106.115 36.8495L119.273 29.5898L119.424 29.5142C119.5 29.5142 119.5 29.5142 119.575 29.5142L141.959 17.1879L151.714 11.8187C151.034 11.7431 150.353 11.6675 149.673 11.6675L141.581 16.1292C141.506 16.1292 141.506 16.1292 141.43 16.2048L119.348 28.3799L119.046 28.5311L83.3524 48.1928C83.2768 48.1928 83.2768 48.1928 83.2012 48.2684L74.5047 53.0326L60.8171 60.5948L55.448 63.544L29.7366 77.6853L25.1236 80.1808C25.048 80.1808 25.048 80.1808 24.9724 80.2564L19.0739 83.5082C18.7714 84.1131 18.3933 84.7181 18.0908 85.3231L25.3505 81.3151C25.5018 81.1639 25.5774 81.1639 25.5774 81.1639Z" fill="#83DCFF"/>
<path d="M25.5774 150.055L29.8122 147.711L61.2709 130.394C61.3465 130.394 61.3465 130.394 61.4221 130.394L74.5803 123.134L83.8062 118.067L84.7137 117.538L97.1156 110.732C97.1912 110.732 97.1913 110.732 97.2669 110.732L119.348 98.5568L119.651 98.4055L155.344 78.7439C155.42 78.7439 155.42 78.7439 155.496 78.7439L164.192 73.9797L177.88 66.4175L183.249 63.4683L208.885 49.2514L209.414 48.9489C209.263 48.6464 209.036 48.3439 208.885 48.0414L208.809 47.9658L190.66 57.9479L180.829 63.3927L164.117 72.6185L155.042 77.6096C154.966 77.6096 154.966 77.6096 154.891 77.6852L132.507 90.0115L119.348 97.2712L119.197 97.3468C119.122 97.3468 119.122 97.3468 119.046 97.4225L96.6619 109.749L82.2938 117.613L74.5803 121.848L61.044 129.335C60.9684 129.335 60.9684 129.335 60.8928 129.41L38.5088 141.737L29.8122 146.501L22.9307 150.282C23.1575 150.585 23.3844 150.887 23.6113 151.19L25.5774 150.055Z" fill="#83DCFF"/>
<path d="M16.6539 130.394L29.8121 123.134L39.0379 118.067L39.9454 117.538L52.3474 110.732C52.423 110.732 52.423 110.732 52.4986 110.732L74.5802 98.5568L74.8827 98.4056L110.576 78.7439C110.652 78.7439 110.652 78.7439 110.727 78.7439L119.424 73.9798L133.111 66.4176L138.481 63.4683L164.192 49.3271L168.805 46.7559C168.881 46.7559 168.881 46.7559 168.956 46.7559L195.802 31.8585C195.499 31.556 195.197 31.3291 194.894 31.0266L168.427 45.6216C168.351 45.6216 168.351 45.6216 168.276 45.6972L164.041 48.0415L145.892 58.0236L136.061 63.4683L119.348 72.6942L110.274 77.6852C110.198 77.6852 110.198 77.6852 110.122 77.7609L87.7384 90.0872L74.5802 97.3469L74.4289 97.4225C74.3533 97.4225 74.3533 97.4225 74.2777 97.4981L51.8936 109.824L37.5255 117.689L29.8121 121.848L16.2758 129.335C16.2002 129.335 16.2002 129.335 16.1245 129.411L13.7803 130.696C13.8559 131.074 14.0071 131.452 14.0828 131.83L16.5783 130.469C16.5783 130.394 16.5783 130.394 16.6539 130.394Z" fill="#83DCFF"/>
<path d="M21.1156 132.889L29.8121 128.125L43.4996 120.563L48.8688 117.614L74.5802 103.472L79.1931 100.901C79.2687 100.901 79.2687 100.901 79.3444 100.901L115.038 81.2394C115.113 81.2394 115.113 81.2394 115.189 81.2394L119.424 78.8952L137.573 68.9131L147.404 63.4683L164.116 54.2425L173.191 49.2514C173.267 49.2514 173.267 49.2514 173.342 49.2514L195.726 36.9251L198.978 35.1102C198.676 34.8077 198.449 34.5052 198.146 34.2783L172.888 48.1927C172.813 48.1927 172.813 48.1927 172.737 48.2683L164.041 53.0325L150.353 60.5947L144.984 63.5439L119.273 77.6852L114.66 80.1807C114.584 80.1807 114.584 80.1807 114.508 80.2564L78.815 99.918C78.7394 99.918 78.7394 99.918 78.6638 99.9936L74.4289 102.338L56.2797 112.32L46.4489 117.765L29.7365 126.991L20.6619 131.982C20.5862 131.982 20.5862 131.982 20.5106 132.057L14.9902 135.082C15.1415 135.46 15.2171 135.838 15.3683 136.141L20.9644 133.04C21.04 132.889 21.1156 132.889 21.1156 132.889Z" fill="#83DCFF"/>
<path d="M25.5771 135.309L29.8119 132.965L47.9612 122.983L57.792 117.538L74.5044 108.312L83.579 103.321C83.6546 103.321 83.6546 103.321 83.7303 103.321L106.114 90.9946L119.272 83.7349L119.424 83.6593C119.499 83.6593 119.499 83.6593 119.575 83.6593L141.959 71.3329L156.327 63.4682L164.116 59.1578L177.728 51.6712C177.804 51.6712 177.804 51.6712 177.879 51.6712L200.263 39.3449L202.003 38.3618C201.776 38.0593 201.473 37.7568 201.246 37.4543L177.501 50.5369C177.426 50.5369 177.426 50.5369 177.35 50.6125L164.192 57.8722L154.966 62.9389L154.059 63.4682L141.657 70.2742C141.581 70.2742 141.581 70.2742 141.505 70.3498L119.424 82.5249L119.121 82.6762L83.4278 102.338C83.3521 102.338 83.3521 102.338 83.2765 102.413L74.58 107.178L60.8925 114.74L55.5233 117.689L29.8119 131.83L25.199 134.326C25.1234 134.326 25.1234 134.326 25.0478 134.401L16.5781 139.014C16.7294 139.392 16.8806 139.695 17.0319 140.073L25.4259 135.46C25.5015 135.309 25.5771 135.309 25.5771 135.309Z" fill="#83DCFF"/>
<g clip-path="url(#clip1_2173_63054)">
<path d="M119.275 44.1236V75.8034C119.275 77.66 117.772 79.1924 115.886 79.1924H95.5812L77.2511 95.0765V79.1924H56.9466C55.09 79.1924 53.5576 77.66 53.5576 75.8034V44.1236C53.5576 42.267 55.0606 40.7346 56.9466 40.7346H115.886C117.742 40.7346 119.275 42.2376 119.275 44.1236Z" fill="white"/>
<path d="M77.2512 95.7248C77.1628 95.7248 77.0744 95.6954 76.986 95.6659C76.7502 95.548 76.6029 95.3123 76.6029 95.047V79.8408H56.9467C54.707 79.8408 52.8799 78.0136 52.8799 75.774V44.1237C52.8799 41.884 54.707 40.0569 56.9467 40.0569H115.886C118.125 40.0569 119.953 41.884 119.953 44.1237V75.8034C119.953 78.0431 118.125 79.8702 115.886 79.8702H95.817L77.6932 95.607C77.5459 95.6954 77.3985 95.7248 77.2512 95.7248ZM56.9467 41.383C55.4437 41.383 54.2355 42.5913 54.2355 44.0942V75.8034C54.2355 77.3064 55.4437 78.5146 56.9467 78.5146H77.2512C77.6343 78.5146 77.929 78.8093 77.929 79.1924V93.603L95.1392 78.662C95.2571 78.5441 95.4044 78.4852 95.5813 78.4852H115.886C117.389 78.4852 118.597 77.2769 118.597 75.774V44.1237C118.597 42.6207 117.389 41.4125 115.886 41.4125H56.9467V41.383Z" fill="black"/>
<path d="M134.687 156.727L129.206 166.334L126.907 164.242C126.907 162.65 126.731 161.029 126.377 159.35L134.216 156.992C134.393 156.933 134.569 156.845 134.687 156.727Z" fill="#0092FF"/>
<path d="M58.8031 140.725L50.6695 143.082C50.2569 143.23 49.9917 143.495 49.8738 143.878L47.5457 147.798L41.0035 141.904C39.9426 140.961 39.471 139.752 39.7952 138.986L47.3983 124.31C46.9268 125.46 48.1646 126.786 49.1665 127.67L58.1842 135.803C58.2431 137.424 58.4494 139.045 58.8031 140.725Z" fill="#1DCFFF"/>
<path d="M119.629 190.617L117.536 194.182L117.507 194.271L111.554 204.703C111.348 205.116 110.906 205.381 110.316 205.381L101.033 205.44C100.562 205.44 100.061 205.292 99.5599 205.027C98.9116 204.703 98.3222 204.202 97.8801 203.613L90.6306 194.035C88.7446 193.505 86.829 192.856 84.8546 192.061L79.4911 196.982C79.1964 197.247 78.7839 197.365 78.2829 197.336C77.723 197.306 77.1041 197.07 76.4852 196.658L66.3477 189.88C65.7878 189.497 65.3163 189.025 64.9626 188.495C64.6385 187.964 64.4617 187.434 64.4911 186.962L64.9921 178.77C63.3713 177.179 61.8683 175.558 60.4833 173.878L49.9626 171.638C49.4617 171.52 48.9312 171.285 48.4597 170.931C47.8408 170.518 47.2809 169.929 46.9567 169.281L41.9469 159.674C41.5638 158.907 41.5638 158.23 41.8585 157.788L47.5461 147.797L49.8742 143.878C49.7269 144.32 49.8153 144.85 50.11 145.44L55.1198 155.047C55.7092 156.137 56.9469 157.11 58.1257 157.404L68.6463 159.644C70.0314 161.324 71.5344 162.945 73.1552 164.536L72.6542 172.729C72.5953 173.701 73.3615 174.909 74.5108 175.646L84.6483 182.424C85.2377 182.837 85.886 183.072 86.4459 183.102C86.9469 183.131 87.3595 183.014 87.6542 182.748L93.0177 177.827C94.9921 178.623 96.9076 179.3 98.7937 179.801L106.043 189.379C106.485 189.968 107.075 190.469 107.723 190.793C108.224 191.029 108.754 191.206 109.196 191.206L118.479 191.147C119.01 191.147 119.393 190.941 119.629 190.617Z" fill="#0092FF"/>
<path d="M133.626 182.513L125.669 196.422C125.316 197.188 124.225 197.336 123.017 196.776L117.506 194.212L119.599 190.646C119.628 190.617 119.658 190.558 119.687 190.528C119.834 190.204 119.864 189.792 119.746 189.35L117.094 179.772C118.449 179.241 119.687 178.534 120.807 177.739L131.21 182.601C132.241 183.014 133.155 182.984 133.626 182.513Z" fill="#0092FF"/>
<path d="M68.0861 120.391C66.7011 120.921 65.4634 121.599 64.3435 122.424L59.7168 120.273L65.6107 109.959C65.7286 109.723 65.9054 109.546 66.1412 109.428C65.6107 109.723 65.375 110.342 65.6107 111.079L68.0861 120.391Z" fill="#1DCFFF"/>
<path d="M135.777 172.405L129.176 166.363C129.176 166.363 129.176 166.334 129.206 166.334L126.907 164.242C126.907 162.65 126.73 161.029 126.377 159.35L134.216 156.992C134.392 156.933 134.569 156.845 134.687 156.727L134.717 156.697L134.805 156.52C135.129 156.049 135.129 155.371 134.746 154.634L129.884 145.027C129.324 143.937 128.086 142.964 126.907 142.67L116.711 140.401C115.326 138.721 113.852 137.1 112.231 135.538L112.85 127.346C112.909 126.373 112.172 125.165 111.023 124.428L100.886 117.65C100.768 117.562 100.62 117.503 100.502 117.414C100.355 117.326 100.237 117.267 100.09 117.208C100.031 117.179 99.972 117.179 99.9425 117.149C99.8541 117.12 99.7657 117.09 99.6478 117.061C99.6183 117.061 99.6183 117.061 99.5889 117.031C99.4415 117.002 99.3236 116.972 99.1763 116.972C99.0879 116.972 98.9995 116.972 98.9111 116.972C98.8816 116.972 98.8227 116.972 98.7932 116.972C98.7637 116.972 98.7343 116.972 98.7048 116.972C98.6753 116.972 98.6458 116.972 98.6164 116.972C98.6164 116.972 98.6164 116.972 98.5869 116.972C98.5574 116.972 98.5574 116.972 98.5574 116.972C98.528 116.972 98.469 116.972 98.4396 117.002C98.4101 117.002 98.4101 117.002 98.4101 117.002H98.3806H98.3511C98.2922 117.031 98.2627 117.031 98.2038 117.061C98.1743 117.09 98.1449 117.09 98.1154 117.12C98.027 117.149 97.968 117.208 97.9091 117.267L92.4278 122.218C92.3983 122.218 92.3983 122.218 92.3983 122.188L92.3688 122.218C90.3944 121.393 88.4494 120.744 86.5339 120.243L79.4612 110.99C79.2843 110.754 79.0781 110.519 78.8423 110.312C78.7244 110.224 78.6066 110.106 78.4887 110.018C78.3708 109.929 78.2234 109.841 78.1056 109.752C77.9582 109.664 77.8403 109.605 77.693 109.546C77.5456 109.487 77.4278 109.428 77.2804 109.369C77.2215 109.34 77.1625 109.34 77.1036 109.31C77.0152 109.281 76.9563 109.281 76.8973 109.251C76.75 109.222 76.6321 109.192 76.4847 109.192C76.4258 109.192 76.3669 109.192 76.3079 109.192L66.9071 109.251H66.8482C66.8187 109.251 66.7893 109.251 66.7893 109.251C66.7598 109.251 66.7009 109.251 66.6714 109.251C66.6419 109.251 66.6419 109.251 66.6124 109.251C66.6124 109.251 66.6124 109.251 66.583 109.251C66.4946 109.281 66.4356 109.281 66.3472 109.31C66.2588 109.34 66.1999 109.369 66.1409 109.399C66.082 109.428 66.0525 109.458 65.9936 109.487C65.9641 109.517 65.9052 109.546 65.8757 109.605C65.8462 109.634 65.7873 109.693 65.7578 109.723C65.6989 109.782 65.6694 109.841 65.6399 109.9C65.6399 109.929 65.6105 109.929 65.6105 109.929C65.581 110.018 65.5515 110.106 65.5221 110.194C65.4926 110.283 65.4926 110.401 65.4926 110.489C65.4926 110.666 65.5221 110.843 65.581 111.049L68.0564 120.332C66.6714 120.862 65.4337 121.54 64.3138 122.365L59.6871 120.214V120.243L58.862 119.86L58.302 119.595C58.1547 119.507 57.9779 119.448 57.801 119.359L57.2706 119.124C56.6223 118.829 55.9445 118.534 55.3551 118.24L54.8836 118.033C54.2058 117.709 53.7343 117.503 53.7343 117.503C53.3806 117.355 53.0564 117.238 52.7323 117.179C52.6733 117.149 52.6144 117.149 52.5555 117.149C51.8482 117.09 51.2883 117.326 51.0525 117.827L47.4867 124.075L47.3983 124.251C46.9268 125.401 48.1645 126.727 49.1665 127.611L58.1842 135.744C58.2136 137.336 58.3904 138.957 58.7735 140.636L50.6399 142.994C50.2274 143.141 49.9621 143.407 49.8443 143.79C49.6969 144.232 49.7853 144.762 50.08 145.352L55.0898 154.959C55.6792 156.049 56.917 157.021 58.0957 157.316L68.6164 159.556C70.0014 161.236 71.5044 162.856 73.1252 164.448L72.6242 172.64C72.5653 173.613 73.3315 174.821 74.4808 175.558L84.6183 182.336C85.2077 182.748 85.8561 182.984 86.416 183.014C86.917 183.043 87.3295 182.925 87.6242 182.66L92.9877 177.739C94.9621 178.534 96.8777 179.212 98.7637 179.713L106.013 189.291C106.455 189.88 107.045 190.381 107.693 190.705C108.194 190.941 108.724 191.118 109.166 191.118L118.449 191.059C118.98 191.059 119.392 190.852 119.599 190.528C119.628 190.499 119.658 190.44 119.687 190.41C119.834 190.086 119.864 189.674 119.746 189.232L117.094 179.654C118.449 179.124 119.687 178.416 120.807 177.621L131.21 182.483C132.241 182.955 133.155 182.925 133.626 182.454L133.656 182.424L133.715 182.336L133.744 182.277C133.774 182.247 133.803 182.188 133.832 182.159L136.956 175.293C137.31 174.556 136.838 173.348 135.777 172.405ZM72.0938 145.499C72.0643 145.352 72.0054 145.204 71.9759 145.027C71.917 144.851 71.8875 144.674 71.858 144.467C71.858 144.438 71.858 144.408 71.8286 144.379C71.7696 144.025 71.7107 143.701 71.6517 143.377C71.6223 143.2 71.5928 143.023 71.5928 142.847C71.5633 142.699 71.5633 142.552 71.5633 142.434C71.357 139.693 71.917 137.306 73.1842 135.42C73.4494 135.008 73.7735 134.625 74.0977 134.271C76.0132 132.267 78.9307 131.088 82.7323 131.059C93.0466 131 105.777 139.517 111.17 150.067C111.996 151.658 112.585 153.249 112.998 154.723C113.086 155.106 113.174 155.46 113.263 155.843C113.557 157.198 113.646 158.465 113.587 159.674C113.587 159.821 113.557 159.968 113.557 160.086C113.557 160.263 113.528 160.44 113.498 160.617C113.469 160.764 113.469 160.911 113.44 161.059C113.41 161.265 113.381 161.471 113.322 161.648C113.263 161.943 113.174 162.238 113.086 162.532C112.821 163.328 112.497 164.035 112.054 164.713C111.996 164.801 111.937 164.89 111.878 165.008C111.524 165.509 111.111 165.98 110.64 166.422C110.552 166.511 110.434 166.629 110.316 166.717C110.198 166.835 110.051 166.923 109.933 167.041C109.815 167.13 109.726 167.218 109.579 167.277C108.99 167.689 108.371 168.014 107.664 168.308C107.487 168.367 107.31 168.456 107.163 168.515C107.045 168.544 106.956 168.603 106.838 168.632C106.691 168.691 106.544 168.721 106.367 168.78C106.22 168.809 106.072 168.868 105.925 168.898C105.895 168.898 105.836 168.927 105.807 168.927C105.66 168.957 105.512 168.986 105.394 169.016C105.218 169.045 105.041 169.075 104.864 169.104C104.51 169.163 104.127 169.222 103.715 169.251C103.685 169.251 103.685 169.251 103.656 169.251C103.626 169.251 103.597 169.251 103.567 169.251C103.449 169.281 103.302 169.281 103.184 169.281C102.919 169.31 102.654 169.31 102.388 169.31C102.035 169.31 101.681 169.31 101.328 169.281H101.269C100.974 169.251 100.679 169.251 100.355 169.192C100.09 169.163 99.8246 169.133 99.5299 169.104C99.3826 169.104 99.2352 169.075 99.0879 169.045C99.0289 169.045 98.9995 169.016 98.9405 169.016C98.9111 169.016 98.8521 169.016 98.8227 168.986H98.7932C98.7637 168.986 98.7637 168.986 98.7637 168.986C98.7637 168.986 98.7637 168.986 98.7343 168.986C98.7048 168.986 98.6753 168.986 98.6458 168.957C98.5574 168.957 98.469 168.927 98.3806 168.927C98.3511 168.927 98.2922 168.898 98.2627 168.898H98.2333C98.1743 168.898 98.0859 168.868 98.027 168.868C98.027 168.868 98.027 168.868 97.9975 168.868H97.968C97.9091 168.868 97.8502 168.839 97.7912 168.839C97.7618 168.839 97.7028 168.809 97.6734 168.809C97.4965 168.78 97.3197 168.75 97.1724 168.691C97.1429 168.691 97.1134 168.662 97.084 168.662C97.0545 168.662 97.0545 168.662 97.025 168.632C96.9955 168.632 96.9955 168.632 96.9661 168.603C96.9366 168.603 96.9071 168.603 96.8777 168.574C96.7009 168.544 96.5535 168.485 96.3767 168.426C96.3472 168.426 96.3472 168.426 96.3177 168.397H96.2883H96.2588C96.2293 168.397 96.1999 168.367 96.1704 168.367C96.1409 168.367 96.1409 168.367 96.1409 168.367C95.9346 168.308 95.6989 168.249 95.4631 168.161C95.4337 168.161 95.4337 168.161 95.4042 168.131C95.2568 168.102 95.1095 168.043 94.9621 167.984C94.9327 167.984 94.8737 167.955 94.8443 167.955C94.6085 167.896 94.3728 167.807 94.137 167.719C94.1075 167.719 94.1075 167.719 94.0781 167.689C93.9307 167.63 93.7539 167.572 93.5771 167.513C93.5771 167.513 93.5771 167.513 93.5476 167.513C93.5181 167.513 93.5181 167.513 93.5181 167.483H93.4887C93.4592 167.483 93.4003 167.454 93.3708 167.454H93.3413C93.1056 167.365 92.8698 167.277 92.6046 167.159C92.3688 167.071 92.1331 166.953 91.8678 166.835C91.8384 166.805 91.7794 166.805 91.7205 166.776C91.6616 166.746 91.6321 166.717 91.5732 166.687C91.5437 166.687 91.5437 166.687 91.5437 166.658C91.5142 166.658 91.4553 166.629 91.4258 166.599C91.3374 166.57 91.249 166.511 91.1606 166.481C90.9838 166.393 90.8069 166.304 90.6301 166.216C90.6301 166.216 90.6301 166.216 90.6007 166.216C90.6007 166.216 90.5712 166.216 90.5712 166.186C90.5712 166.186 90.5417 166.186 90.5417 166.157C90.5122 166.157 90.4828 166.128 90.4533 166.128C90.2176 166.01 89.9818 165.892 89.746 165.744C89.5103 165.627 89.2745 165.479 89.0388 165.361C88.862 165.273 88.6557 165.155 88.4788 165.037C88.1842 164.89 87.9189 164.713 87.6242 164.536C87.1527 164.242 86.6812 163.947 86.2392 163.623C85.7677 163.328 85.3256 163.004 84.8836 162.65C84.6773 162.503 84.4415 162.326 84.2352 162.149C84.0584 162.031 83.8816 161.884 83.7048 161.737C83.5574 161.619 83.4101 161.501 83.2922 161.383C83.2627 161.353 83.2333 161.353 83.2038 161.324C83.1154 161.265 83.027 161.177 82.9091 161.088C82.8796 161.059 82.8207 161.029 82.7912 161C82.7618 160.97 82.7028 160.911 82.6733 160.882C82.6733 160.882 82.6733 160.882 82.6439 160.882C82.6144 160.853 82.5555 160.823 82.526 160.794C82.2018 160.499 81.8777 160.204 81.5535 159.909C81.3767 159.762 81.1999 159.585 81.0231 159.408C80.7284 159.143 80.4631 158.878 80.1979 158.583C79.9327 158.318 79.6675 158.053 79.4022 157.758C78.5771 156.904 77.8109 155.99 77.1036 155.047C76.8973 154.752 76.6616 154.458 76.4553 154.192C76.0132 153.574 75.6007 152.955 75.1881 152.306C75.0702 152.1 74.9229 151.894 74.805 151.687C74.5103 151.216 74.2745 150.744 74.0093 150.273" fill="#61E1FF"/>
<path d="M113.587 159.703C113.587 159.851 113.557 159.998 113.557 160.116C113.557 160.293 113.528 160.469 113.498 160.646C113.469 160.794 113.469 160.941 113.44 161.088C113.41 161.295 113.381 161.501 113.322 161.678C113.263 161.972 113.174 162.267 113.086 162.562C112.821 163.357 112.496 164.065 112.054 164.743C111.995 164.831 111.937 164.919 111.878 165.037C111.524 165.538 111.111 166.01 110.64 166.452C110.551 166.54 110.434 166.658 110.316 166.746C110.198 166.864 110.051 166.953 109.933 167.071C109.815 167.159 109.726 167.247 109.579 167.306C108.99 167.719 108.371 168.043 107.663 168.338C107.487 168.397 107.31 168.485 107.162 168.544C107.045 168.574 106.956 168.632 106.838 168.662C106.691 168.721 106.544 168.75 106.367 168.809C106.219 168.839 106.072 168.898 105.925 168.927C105.895 168.927 105.836 168.957 105.807 168.957C105.66 168.986 105.512 169.016 105.394 169.045C105.218 169.075 105.041 169.104 104.864 169.133C104.51 169.192 104.127 169.251 103.715 169.281H103.656C104.068 169.251 104.451 169.192 104.834 169.133C104.422 167.601 103.803 166.01 102.978 164.359C97.5849 153.809 84.854 145.293 74.5397 145.352C73.8914 145.352 73.2725 145.381 72.6831 145.469C72.4768 145.499 72.3 145.499 72.0937 145.558C72.0643 145.41 72.0053 145.263 71.9759 145.086C71.9169 144.909 71.8874 144.733 71.858 144.526C71.858 144.497 71.858 144.467 71.8285 144.438C71.7696 144.084 71.7106 143.76 71.6517 143.436C71.6222 143.259 71.5928 143.082 71.5928 142.906C71.5633 142.758 71.5633 142.611 71.5633 142.493C71.357 139.752 71.9169 137.365 73.1841 135.479C73.4493 135.067 73.7735 134.684 74.0977 134.33C76.0132 132.326 78.9307 131.147 82.7322 131.118C93.0466 131.059 105.777 139.576 111.17 150.126C111.995 151.717 112.585 153.308 112.997 154.782C113.086 155.165 113.174 155.519 113.263 155.902C113.557 157.228 113.646 158.524 113.587 159.703Z" fill="#0092FF"/>
<path d="M60.4243 174.467C60.3064 174.467 60.1885 174.438 60.1001 174.379C59.7759 174.202 59.6581 173.79 59.8643 173.465L68.0569 159.232C68.2337 158.908 68.6463 158.79 68.9704 158.996C69.2946 159.173 69.4125 159.585 69.2062 159.909L61.0137 174.143C60.8958 174.35 60.66 174.467 60.4243 174.467Z" fill="#2945FF"/>
<path d="M48.4301 171.491C48.3122 171.491 48.1944 171.462 48.106 171.403C47.7818 171.226 47.6639 170.813 47.8702 170.489L56.0333 156.285C56.2101 155.961 56.6227 155.843 56.9468 156.049C57.271 156.226 57.3889 156.639 57.1826 156.963L49.0195 171.167C48.8722 171.373 48.6659 171.491 48.4301 171.491Z" fill="#2945FF"/>
<path d="M99.5004 205.587C99.3826 205.587 99.2647 205.558 99.1763 205.499C98.8521 205.322 98.7342 204.909 98.9405 204.585L107.133 190.352C107.31 190.027 107.722 189.91 108.047 190.116C108.371 190.293 108.489 190.705 108.282 191.029L100.09 205.263C99.9425 205.469 99.7067 205.587 99.5004 205.587Z" fill="#2945FF"/>
<path d="M117.183 195.332C117.065 195.332 116.947 195.303 116.858 195.244C116.534 195.067 116.446 194.654 116.623 194.33L119.128 190.086C119.304 189.762 119.717 189.644 120.041 189.851C120.365 190.027 120.454 190.44 120.277 190.764L117.772 195.008C117.625 195.214 117.389 195.332 117.183 195.332Z" fill="#2945FF"/>
<path d="M64.9331 179.36C64.8152 179.36 64.6973 179.33 64.6089 179.271C64.2847 179.094 64.1668 178.682 64.3731 178.358L72.5657 164.124C72.7425 163.8 73.1551 163.682 73.4792 163.888C73.8034 164.065 73.9213 164.477 73.715 164.802L65.5224 179.006C65.4046 179.212 65.1688 179.36 64.9331 179.36Z" fill="#2945FF"/>
<path d="M84.7954 192.621C84.6775 192.621 84.5596 192.591 84.4712 192.532C84.147 192.356 84.0292 191.943 84.2354 191.619L92.428 177.385C92.6048 177.061 93.0174 176.943 93.3415 177.149C93.6657 177.326 93.7836 177.739 93.5773 178.063L85.3847 192.297C85.2669 192.503 85.0311 192.621 84.7954 192.621Z" fill="#2945FF"/>
<path d="M90.5717 194.625C90.4538 194.625 90.336 194.595 90.2476 194.536C89.9234 194.36 89.8055 193.947 90.0118 193.623L98.2043 179.389C98.3812 179.065 98.7937 178.947 99.1179 179.153C99.4421 179.33 99.5599 179.743 99.3537 180.067L91.1611 194.271C91.0432 194.507 90.8075 194.625 90.5717 194.625Z" fill="#2945FF"/>
<path d="M47.5168 148.387C47.3989 148.387 47.2811 148.357 47.1632 148.299C46.839 148.122 46.7506 147.709 46.9274 147.385L49.285 143.407C49.4618 143.082 49.8744 142.994 50.1985 143.171C50.5227 143.348 50.6111 143.76 50.4343 144.084L48.0767 148.063C47.9589 148.269 47.7526 148.387 47.5168 148.387Z" fill="#2945FF"/>
<path d="M64.9038 189.085C64.7859 189.085 64.668 189.055 64.5796 188.996C64.2554 188.819 64.1375 188.407 64.3438 188.083L72.5069 173.908C72.6837 173.584 73.0963 173.466 73.4205 173.672C73.7446 173.849 73.8625 174.261 73.6562 174.586L65.4931 188.76C65.3753 188.967 65.1395 189.085 64.9038 189.085Z" fill="#2945FF"/>
<path d="M78.2241 197.925C78.1062 197.925 77.9883 197.896 77.8999 197.837C77.5757 197.66 77.4579 197.247 77.6641 196.923L85.8567 182.689C86.0335 182.365 86.4461 182.247 86.7702 182.454C87.0944 182.631 87.2123 183.043 87.006 183.367L78.8135 197.601C78.6956 197.778 78.4598 197.925 78.2241 197.925Z" fill="#2945FF"/>
<path d="M109.137 191.766C107.87 191.766 106.338 190.912 105.454 189.674L98.3515 180.302C96.5244 179.802 94.6384 179.124 92.7229 178.358C92.3692 178.21 92.2219 177.827 92.3692 177.473C92.5166 177.12 92.8997 176.972 93.2533 177.12C95.1983 177.915 97.1138 178.593 98.9409 179.094C99.0883 179.124 99.2062 179.212 99.2946 179.33L106.515 188.908C107.163 189.792 108.283 190.44 109.137 190.469L118.42 190.411C118.627 190.411 118.892 190.381 119.01 190.175C119.128 190.027 119.157 189.733 119.039 189.409L116.387 179.802C116.299 179.477 116.475 179.124 116.799 179.006C118.096 178.505 119.275 177.827 120.365 177.061C120.66 176.855 121.073 176.913 121.308 177.208C121.515 177.503 121.456 177.915 121.161 178.151C120.159 178.888 119.039 179.536 117.86 180.037L120.365 189.055C120.572 189.792 120.483 190.469 120.1 190.97C119.746 191.471 119.128 191.737 118.42 191.737L109.137 191.766C109.167 191.766 109.137 191.766 109.137 191.766Z" fill="#2945FF"/>
<path d="M132.565 183.456C132.035 183.456 131.475 183.308 130.915 183.043L120.512 178.181C120.188 178.033 120.041 177.621 120.188 177.297C120.335 176.973 120.748 176.825 121.072 176.973L131.475 181.835C132.035 182.1 132.595 182.189 132.948 182.071C133.125 182.012 133.184 181.894 133.243 181.835C133.39 181.511 133.803 181.363 134.127 181.511C134.451 181.658 134.599 182.071 134.451 182.395C134.245 182.837 133.891 183.161 133.42 183.338C133.155 183.397 132.86 183.456 132.565 183.456Z" fill="#2945FF"/>
<path d="M68.6161 160.234C68.5572 160.234 68.5277 160.234 68.4688 160.204L57.9482 157.935C56.5336 157.611 55.1485 156.52 54.5002 155.253L49.4904 145.646C49.0778 144.851 48.9894 144.055 49.2546 143.407C49.4609 142.906 49.8735 142.522 50.4334 142.316L58.0071 140.135C57.7419 138.75 57.5945 137.365 57.5356 136.01L48.7242 128.053C48.0169 127.434 45.8656 125.489 46.8971 123.691C47.0739 123.367 47.4865 123.249 47.8106 123.456C48.1348 123.632 48.2527 124.045 48.0464 124.369C47.6338 125.076 48.6652 126.226 49.6083 127.08L58.6554 135.214C58.8028 135.332 58.8617 135.509 58.8912 135.715C58.9207 137.277 59.0975 138.868 59.4511 140.489C59.5395 140.843 59.3332 141.167 58.9796 141.285L50.846 143.642C50.6986 143.701 50.5808 143.79 50.5218 143.937C50.404 144.202 50.4924 144.615 50.6986 145.057L55.7085 154.664C56.18 155.577 57.2704 156.432 58.2723 156.668L68.7635 158.908C69.1171 158.996 69.3529 159.35 69.2645 159.703C69.2055 159.998 68.9108 160.234 68.6161 160.234Z" fill="#2945FF"/>
<path d="M74.4806 176.236C74.3627 176.236 74.2154 176.206 74.0975 176.118C72.7419 175.204 71.8873 173.79 71.9462 172.582L72.4472 164.684C70.8853 163.151 69.4413 161.56 68.1152 159.969C67.8794 159.674 67.9089 159.261 68.2036 159.026C68.4983 158.79 68.9109 158.819 69.1466 159.114C70.5022 160.764 72.0052 162.385 73.5965 163.947C73.7439 164.094 73.8028 164.271 73.8028 164.477L73.3018 172.67C73.2723 173.377 73.9207 174.379 74.8637 174.998C75.1584 175.204 75.2468 175.617 75.0405 175.941C74.8932 176.118 74.6869 176.236 74.4806 176.236Z" fill="#2945FF"/>
<path d="M86.5635 183.691C85.8267 183.691 85.0016 183.426 84.2354 182.896L74.0978 176.118C73.8031 175.911 73.7147 175.499 73.921 175.175C74.1273 174.88 74.5399 174.792 74.864 174.998L85.0016 181.776C85.9446 182.395 86.8582 182.454 87.1823 182.159L92.5458 177.208C92.811 176.943 93.253 176.972 93.4888 177.238C93.7246 177.503 93.7246 177.945 93.4593 178.181L88.0959 183.132C87.6833 183.515 87.1528 183.691 86.5635 183.691Z" fill="#2945FF"/>
<path d="M104.805 169.693C104.481 169.693 104.186 169.458 104.157 169.134C104.098 168.78 104.363 168.426 104.717 168.367C108.076 167.837 110.552 166.187 111.848 163.623C113.587 160.204 113.115 155.371 110.552 150.332C110.375 150.008 110.522 149.595 110.846 149.418C111.17 149.242 111.583 149.389 111.76 149.713C114.559 155.224 115.031 160.381 113.056 164.242C111.524 167.218 108.724 169.104 104.923 169.723C104.893 169.693 104.864 169.693 104.805 169.693Z" fill="#2945FF"/>
<path d="M72.0649 146.088C71.7702 146.088 71.505 145.882 71.4166 145.587C70.2673 141.226 70.7977 137.306 72.9196 134.507C75.0119 131.796 78.3714 130.322 82.7034 130.322C83.0865 130.322 83.3812 130.617 83.3812 131C83.3812 131.383 83.0865 131.678 82.7034 131.678C78.8135 131.707 75.8076 132.974 73.9805 135.361C72.0944 137.807 71.6524 141.344 72.7133 145.263C72.8017 145.617 72.5954 146 72.2418 146.088C72.1828 146.088 72.1239 146.088 72.0649 146.088Z" fill="#2945FF"/>
<path d="M111.141 150.686C110.905 150.686 110.67 150.538 110.552 150.332C105.277 140.018 92.8405 131.678 82.8209 131.678C82.7914 131.678 82.762 131.678 82.7325 131.678C82.3494 131.678 82.0547 131.383 82.0547 131C82.0547 130.617 82.3494 130.322 82.7325 130.322C93.2531 130.234 106.279 138.957 111.76 149.713C111.937 150.037 111.789 150.45 111.465 150.627C111.347 150.656 111.259 150.686 111.141 150.686Z" fill="#2945FF"/>
<path d="M129.177 166.923C129.029 166.923 128.852 166.864 128.735 166.746L126.436 164.654C126.171 164.418 126.141 163.976 126.406 163.711C126.642 163.446 127.084 163.416 127.349 163.682L129.648 165.774C129.913 166.01 129.943 166.452 129.678 166.717C129.53 166.835 129.353 166.923 129.177 166.923Z" fill="#2945FF"/>
<path d="M126.878 164.831C126.495 164.831 126.2 164.536 126.2 164.153C126.2 162.621 126.024 161.029 125.67 159.379C125.582 159.026 125.817 158.672 126.2 158.584C126.554 158.495 126.908 158.731 126.996 159.114C127.35 160.853 127.527 162.532 127.556 164.153C127.556 164.536 127.261 164.831 126.878 164.831Z" fill="#2945FF"/>
<path d="M126.348 159.909C126.053 159.909 125.788 159.733 125.699 159.438C125.581 159.084 125.788 158.701 126.141 158.613L133.98 156.255C134.334 156.137 134.717 156.344 134.805 156.697C134.923 157.051 134.717 157.434 134.363 157.522L126.524 159.88C126.466 159.909 126.407 159.909 126.348 159.909Z" fill="#2945FF"/>
<path d="M65.5808 111.668C65.2862 111.668 65.0209 111.491 64.9325 111.196C64.7262 110.46 64.8146 109.782 65.1977 109.281C65.5809 108.78 66.1702 108.515 66.907 108.515C67.2901 108.515 67.5848 108.809 67.5848 109.192C67.5848 109.576 67.2901 109.87 66.907 109.87C66.7302 109.87 66.4355 109.9 66.2587 110.106C66.1408 110.253 66.1113 110.519 66.2292 110.843C66.3471 111.196 66.1408 111.579 65.7871 111.668C65.6987 111.668 65.6398 111.668 65.5808 111.668Z" fill="black"/>
<path d="M68.0563 120.951C67.7616 120.951 67.4964 120.744 67.408 120.45L64.9325 111.167C64.8441 110.813 65.0504 110.43 65.404 110.342C65.7577 110.253 66.1408 110.46 66.2292 110.813L68.7046 120.096C68.793 120.45 68.5868 120.833 68.2331 120.921C68.1742 120.951 68.1152 120.951 68.0563 120.951Z" fill="black"/>
<path d="M64.3137 122.984C64.1074 122.984 63.9011 122.896 63.7833 122.719C63.577 122.424 63.6359 122.012 63.9306 121.776C65.1094 120.921 66.3766 120.214 67.8206 119.654C68.1742 119.536 68.5573 119.684 68.6752 120.037C68.8226 120.391 68.6457 120.774 68.2921 120.892C66.966 121.422 65.7872 122.041 64.6968 122.837C64.5789 122.955 64.4316 122.984 64.3137 122.984Z" fill="black"/>
<path d="M64.3137 122.984C64.2253 122.984 64.1369 122.955 64.019 122.925L59.3629 120.774C59.0387 120.627 58.8913 120.214 59.0387 119.89C59.186 119.566 59.5986 119.418 59.9228 119.566L64.579 121.717C64.9031 121.864 65.0505 122.277 64.9031 122.601C64.8147 122.837 64.5495 122.984 64.3137 122.984Z" fill="black"/>
<path d="M129.176 166.923C129.059 166.923 128.941 166.894 128.852 166.835C128.528 166.658 128.41 166.245 128.587 165.921L134.186 156.108C134.393 155.784 134.363 155.342 134.098 154.841C133.921 154.517 134.068 154.104 134.393 153.927C134.717 153.75 135.129 153.898 135.306 154.222C135.778 155.165 135.807 156.108 135.306 156.786L129.736 166.57C129.618 166.805 129.412 166.923 129.176 166.923Z" fill="black"/>
<path d="M100.945 206C99.6774 206 98.145 205.145 97.2609 203.908L90.1588 194.536C88.4495 194.065 86.7108 193.446 84.9132 192.739L79.8739 197.395C79.0193 198.19 77.4574 198.102 76.0429 197.13L65.9053 190.352C64.5497 189.438 63.6951 188.023 63.7541 186.815L64.255 178.917C62.7521 177.444 61.3376 175.912 60.0704 174.379L49.7855 172.169C48.371 171.845 46.9859 170.754 46.3376 169.487L41.3277 159.88C40.8268 158.937 40.8268 157.994 41.2983 157.287L46.6617 147.857L40.5321 142.316C39.2354 141.167 38.7049 139.664 39.1765 138.603L46.8975 123.721C47.0743 123.397 47.4869 123.279 47.811 123.426C48.1352 123.603 48.2825 124.016 48.1057 124.34L40.3847 139.222C40.2079 139.605 40.5321 140.548 41.4456 141.344L47.9879 147.238C48.2236 147.444 48.2825 147.798 48.1352 148.063L42.3886 158.023C42.1824 158.348 42.2118 158.79 42.477 159.291L47.4869 168.898C47.9584 169.811 49.0488 170.666 50.0507 170.902L60.5419 173.141C60.6892 173.171 60.8071 173.259 60.925 173.377C62.2806 175.027 63.7835 176.648 65.3749 178.21C65.5222 178.357 65.5812 178.534 65.5812 178.741L65.1097 186.904C65.0802 187.611 65.7285 188.613 66.6715 189.232L76.8091 196.01C77.7521 196.629 78.6657 196.688 78.9898 196.393L84.3533 191.442C84.5596 191.265 84.8248 191.206 85.0605 191.324C87.0055 192.12 88.9211 192.798 90.7776 193.299C90.925 193.328 91.0429 193.416 91.1313 193.534L98.3513 203.112C98.9996 203.996 100.09 204.644 100.974 204.674L110.257 204.615C110.581 204.615 110.817 204.497 110.905 204.32L116.917 193.77C117.094 193.475 117.477 193.357 117.772 193.505L123.283 196.069C123.872 196.334 124.402 196.422 124.756 196.304C124.933 196.246 124.992 196.128 125.051 196.069L133.214 181.776C133.391 181.452 133.803 181.334 134.127 181.54C134.452 181.717 134.569 182.13 134.363 182.454L126.23 196.658C126.053 197.041 125.699 197.365 125.228 197.542C124.52 197.807 123.636 197.719 122.723 197.277L117.772 194.978L112.084 204.91C111.789 205.558 111.112 205.941 110.257 205.941L100.945 206C100.974 206 100.974 206 100.945 206Z" fill="black"/>
<path d="M59.8055 120.862C59.4814 120.862 58.7446 120.538 56.4165 119.448L53.4401 118.063C52.8507 117.798 52.2908 117.709 51.9077 117.827C51.7309 117.886 51.6719 118.004 51.6425 118.063C51.4951 118.387 51.0825 118.564 50.7584 118.387C50.4342 118.24 50.2574 117.827 50.4342 117.503C50.6405 117.061 50.9941 116.737 51.4656 116.56C52.1729 116.295 53.0865 116.383 54.0295 116.825C54.0295 116.825 57.9195 118.623 59.3929 119.301L64.9922 109.487C65.2868 108.839 65.9941 108.456 66.8487 108.456C67.2318 108.456 67.5265 108.751 67.5265 109.134C67.5265 109.517 67.2318 109.811 66.8487 109.811C66.613 109.811 66.2888 109.87 66.1709 110.136L60.2476 120.509C60.2181 120.568 60.1886 120.597 60.1297 120.656C60.0413 120.774 59.9529 120.862 59.8055 120.862Z" fill="black"/>
<path d="M133.832 182.748C133.744 182.748 133.656 182.719 133.567 182.69C133.243 182.542 133.096 182.13 133.243 181.805L136.367 174.939C136.573 174.497 136.249 173.583 135.365 172.788L128.734 166.747C128.469 166.511 128.44 166.069 128.705 165.803C128.941 165.538 129.383 165.509 129.648 165.774L136.278 171.815C137.546 172.994 138.076 174.468 137.605 175.528L134.481 182.395C134.333 182.601 134.098 182.748 133.832 182.748ZM102.3 169.9C91.8678 169.9 78.9012 161.236 73.3609 150.538C72.5063 148.888 71.858 147.208 71.416 145.617C71.3276 145.263 71.5338 144.88 71.8875 144.792C72.2411 144.703 72.6242 144.91 72.7126 145.263C73.1252 146.766 73.7441 148.358 74.5397 149.919C79.8737 160.234 92.3099 168.574 102.3 168.574C102.33 168.574 102.359 168.574 102.388 168.574C103.184 168.574 103.98 168.515 104.717 168.397C105.07 168.338 105.424 168.603 105.483 168.957C105.542 169.31 105.276 169.664 104.923 169.723C104.127 169.841 103.273 169.929 102.388 169.929C102.359 169.9 102.33 169.9 102.3 169.9ZM134.186 157.581C133.891 157.581 133.656 157.405 133.538 157.11C133.42 156.756 133.597 156.373 133.95 156.255C134.127 156.196 134.245 156.079 134.304 155.931C134.422 155.666 134.363 155.253 134.127 154.811L129.235 145.204C128.764 144.291 127.703 143.436 126.701 143.2L116.504 140.931C116.357 140.902 116.239 140.813 116.121 140.695C114.766 139.045 113.292 137.424 111.701 135.862C111.553 135.715 111.495 135.538 111.495 135.332L112.113 127.139C112.172 126.432 111.495 125.43 110.581 124.841L100.443 118.063C99.471 117.414 98.5574 117.385 98.2332 117.68L92.8403 122.66C92.6635 122.837 92.3688 122.896 92.133 122.778C90.247 121.982 88.302 121.334 86.3865 120.803C86.2391 120.774 86.1213 120.686 86.0329 120.568L78.9896 111.314C78.3413 110.43 77.192 109.782 76.3374 109.782L66.9366 109.841C66.5535 109.841 66.2588 109.546 66.2588 109.163C66.2588 108.78 66.5535 108.485 66.9366 108.485L76.3374 108.426C76.3374 108.426 76.3374 108.426 76.3668 108.426C77.6635 108.426 79.1664 109.281 80.08 110.519L87.0053 119.595C88.7735 120.096 90.5417 120.686 92.3099 121.393L97.467 116.737C98.3511 115.941 99.913 116.029 101.328 117.002L111.465 123.78C112.821 124.693 113.675 126.108 113.587 127.316L112.997 135.214C114.471 136.658 115.856 138.191 117.153 139.752L127.113 141.963C128.498 142.287 129.913 143.407 130.532 144.674L135.424 154.281C135.836 155.077 135.895 155.872 135.63 156.491C135.424 156.992 135.011 157.375 134.451 157.581C134.333 157.552 134.245 157.581 134.186 157.581Z" fill="black"/>
<path d="M102.3 169.9C91.8681 169.9 78.9015 161.236 73.3612 150.538C72.5066 148.888 71.8582 147.208 71.4162 145.617C71.3572 145.44 71.3867 145.234 71.5046 145.086C71.6225 144.939 71.7698 144.821 71.9761 144.792C72.8307 144.644 73.6853 144.585 74.54 144.585C74.5694 144.585 74.5989 144.585 74.6284 144.585C85.1195 144.585 98.0861 153.25 103.567 163.976C104.422 165.627 105.07 167.277 105.483 168.898C105.542 169.075 105.512 169.281 105.395 169.428C105.277 169.576 105.129 169.694 104.953 169.723C104.127 169.87 103.273 169.929 102.389 169.929C102.33 169.9 102.3 169.9 102.3 169.9ZM72.9191 146C73.3022 147.267 73.8622 148.593 74.54 149.919C79.8739 160.204 92.3101 168.574 102.3 168.574C102.33 168.574 102.33 168.574 102.359 168.574C102.89 168.574 103.45 168.544 103.98 168.485C103.597 167.218 103.066 165.892 102.389 164.566C97.1136 154.251 84.6775 145.912 74.6578 145.912C74.6284 145.912 74.5989 145.912 74.5694 145.912C73.98 145.912 73.4496 145.941 72.9191 146Z" fill="black"/>
<path d="M92.3688 122.837C92.2804 122.837 92.192 122.807 92.1036 122.778C91.8973 122.689 91.7205 122.483 91.6615 122.277C91.6321 122.041 91.691 121.805 91.8678 121.658L97.3197 116.737C97.6733 116.412 98.1743 116.236 98.7342 116.206C99.1173 116.177 99.412 116.471 99.4415 116.854C99.471 117.208 99.1763 117.532 98.8226 117.562C98.6753 117.562 98.4395 117.621 98.2922 117.739L92.8403 122.66C92.693 122.778 92.5456 122.837 92.3688 122.837Z" fill="black"/>
<path d="M66.6125 109.87C66.2884 109.87 65.9937 109.634 65.9348 109.31C65.8758 108.957 66.0821 108.603 66.4652 108.544C66.4947 108.544 66.5536 108.544 66.5831 108.515C66.6715 108.515 66.7599 108.485 66.8483 108.485H66.9072C67.2609 108.485 67.585 108.78 67.585 109.163C67.585 109.546 67.2903 109.841 66.9072 109.841C66.8483 109.841 66.8188 109.841 66.7599 109.841C66.7599 109.841 66.7599 109.841 66.7304 109.841H66.701H66.6715C66.642 109.87 66.642 109.87 66.6125 109.87Z" fill="black"/>
<path d="M59.6576 120.862C59.5692 120.862 59.4808 120.833 59.3629 120.803L53.4395 118.063C53.0859 117.886 52.7028 117.798 52.4081 117.768C52.0545 117.739 51.7598 117.444 51.7598 117.061C51.7598 116.707 52.0839 116.383 52.4376 116.413C52.9385 116.413 53.4985 116.56 54.0584 116.825L59.9523 119.536C60.1291 119.625 60.247 119.743 60.3059 119.919C60.3649 120.096 60.3649 120.273 60.2765 120.45C60.247 120.538 60.1881 120.597 60.1291 120.627C60.0112 120.803 59.8344 120.862 59.6576 120.862Z" fill="black"/>
<path d="M66.465 109.87C66.1408 109.87 65.9051 109.635 65.8166 109.34C65.7577 108.986 65.9935 108.633 66.3471 108.544H66.3766C66.406 108.544 66.4355 108.544 66.4355 108.544C66.7891 108.515 67.1133 108.78 67.1722 109.134C67.2017 109.458 67.0249 109.753 66.7302 109.87C66.7007 109.87 66.6713 109.9 66.6123 109.9C66.6123 109.9 66.6123 109.9 66.5828 109.9H66.5534C66.5239 109.9 66.5239 109.9 66.4944 109.9C66.5239 109.87 66.4944 109.87 66.465 109.87Z" fill="black"/>
<path d="M92.3098 122.837C92.2214 122.837 92.133 122.807 92.0741 122.778C90.188 121.982 88.243 121.334 86.3275 120.803C86.1801 120.774 86.0623 120.686 85.9739 120.568L78.9306 111.314C78.2823 110.43 77.133 109.782 76.2784 109.782C75.8953 109.782 75.6006 109.487 75.6006 109.104C75.6006 108.721 75.8953 108.426 76.2784 108.426C76.2784 108.426 76.2784 108.426 76.3079 108.426C76.3079 108.426 76.3079 108.426 76.3373 108.426C77.6635 108.426 79.1959 109.281 80.1094 110.519L87.0348 119.595C88.9208 120.126 90.8363 120.774 92.6929 121.54C92.8992 121.629 93.0465 121.805 93.1055 122.041C93.135 122.277 93.076 122.513 92.8992 122.66C92.6634 122.778 92.4866 122.837 92.3098 122.837Z" fill="black"/>
<path d="M133.597 183.102C133.449 183.102 133.332 183.073 133.214 182.984C132.948 182.807 132.86 182.454 133.007 182.159C133.007 182.13 133.037 182.1 133.066 182.071C133.066 182.071 133.096 182.012 133.125 182.012L133.155 181.953C133.155 181.923 133.184 181.894 133.214 181.864L133.273 181.776L136.367 174.969C136.573 174.526 136.249 173.613 135.365 172.817L128.764 166.805C128.528 166.599 128.469 166.275 128.616 165.98C128.705 165.774 128.882 165.656 129.088 165.597C129.294 165.568 129.501 165.627 129.677 165.774L136.308 171.815C137.575 172.994 138.106 174.468 137.634 175.528L134.51 182.395C134.422 182.601 134.304 182.778 134.098 182.955C133.921 183.014 133.744 183.102 133.597 183.102Z" fill="black"/>
<path d="M134.658 157.287C134.511 157.287 134.334 157.228 134.216 157.14C133.951 156.904 133.892 156.55 134.098 156.255C134.127 156.226 134.127 156.197 134.157 156.167C134.186 156.138 134.186 156.108 134.216 156.049C134.393 155.784 134.363 155.342 134.098 154.841L129.206 145.234C128.735 144.32 127.674 143.466 126.672 143.23L116.475 140.961C116.328 140.931 116.21 140.843 116.092 140.725C114.736 139.075 113.234 137.424 111.672 135.892C111.524 135.745 111.465 135.568 111.465 135.362L112.084 127.169C112.143 126.462 111.465 125.46 110.552 124.87L100.414 118.092C99.8544 117.709 99.2355 117.532 98.764 117.532C98.3809 117.562 98.0862 117.267 98.0567 116.884C98.0273 116.53 98.322 116.206 98.6756 116.177C99.4713 116.118 100.355 116.413 101.18 116.973L111.318 123.751C112.674 124.664 113.528 126.079 113.44 127.287L112.85 135.185C114.324 136.629 115.709 138.161 117.006 139.723L126.966 141.933C128.351 142.257 129.766 143.377 130.385 144.644L135.277 154.252C135.837 155.371 135.748 156.462 135.041 157.11C134.982 157.228 134.835 157.287 134.658 157.287Z" fill="black"/>
<path d="M47.4868 124.723C47.3689 124.723 47.251 124.693 47.1626 124.634C46.8384 124.458 46.7206 124.045 46.9268 123.721L50.4927 117.473C50.6695 117.149 51.082 117.031 51.4062 117.238C51.7304 117.414 51.8483 117.827 51.642 118.151L48.0762 124.399C47.9288 124.605 47.6931 124.723 47.4868 124.723Z" fill="black"/>
<path d="M176.298 68.6424C169.314 61.6286 160.12 56.8251 149.864 55.2927C147.566 54.939 145.238 54.7622 142.851 54.7622C140.464 54.7622 138.106 54.939 135.807 55.2927C112.998 58.6817 95.5225 78.3378 95.5225 102.09C95.5225 128.23 116.711 149.418 142.851 149.418C168.99 149.418 190.179 128.23 190.179 102.09C190.149 89.0353 184.874 77.1885 176.298 68.6424ZM142.851 142.375C120.601 142.375 102.566 124.34 102.566 102.09C102.566 79.8408 120.601 61.8054 142.851 61.8054C165.1 61.8054 183.135 79.8408 183.135 102.09C183.135 124.34 165.1 142.375 142.851 142.375Z" fill="#A5D6CD"/>
<path d="M142.85 61.8054C120.601 61.8054 102.565 79.8408 102.565 102.09C102.565 124.34 120.601 142.375 142.85 142.375C165.1 142.375 183.135 124.34 183.135 102.09C183.135 79.8408 165.1 61.8054 142.85 61.8054ZM142.85 109.104C138.96 109.104 135.807 105.951 135.807 102.061C135.807 98.2003 138.96 95.0471 142.85 95.0471C146.74 95.0471 149.864 98.2003 149.864 102.061C149.864 105.98 146.711 109.104 142.85 109.104Z" fill="white"/>
<path d="M183.135 102.09H142.851V61.8054C169.078 61.8054 183.99 84.3202 183.135 102.09Z" fill="#B3FFF0"/>
<path d="M149.865 102.09C149.865 105.98 146.711 109.134 142.851 109.134C138.99 109.134 135.808 105.98 135.808 102.09C135.808 98.2299 138.961 95.0767 142.851 95.0767C146.741 95.0767 149.865 98.2299 149.865 102.09Z" fill="#A5D6CD"/>
<path d="M149.865 47.7484V55.2926C147.566 54.9389 145.238 54.7621 142.851 54.7621C140.464 54.7621 138.106 54.9389 135.808 55.2926V47.7484C135.808 46.4812 136.161 45.2729 136.751 44.2415C137.959 42.1492 140.228 40.7346 142.851 40.7346C145.474 40.7346 147.713 42.1492 148.922 44.2415C149.511 45.2729 149.865 46.4812 149.865 47.7484Z" fill="#5CA099"/>
<path d="M156.878 40.7347C156.878 45.9508 154.049 50.4597 149.835 52.9056V47.7485C149.835 46.4813 149.482 45.273 148.892 44.2416C149.482 43.2102 149.835 42.0019 149.835 40.7347C149.835 36.8447 146.682 33.6915 142.821 33.6915C138.961 33.6915 135.808 36.8447 135.808 40.7347C135.808 42.0019 136.161 43.2102 136.751 44.2416C136.161 45.273 135.808 46.4813 135.808 47.7485V52.8762C131.594 50.4597 128.794 45.9214 128.794 40.7347C128.794 32.9842 135.1 26.6777 142.851 26.6777C150.601 26.6777 156.878 32.9547 156.878 40.7347Z" fill="#A5D6CD"/>
<path d="M183.754 66.1374L178.774 71.1178L176.299 68.6423L173.823 66.1374L178.774 61.1865L183.754 66.1374Z" fill="#5CA099"/>
<path d="M191.21 63.662L186.23 68.6423L183.755 66.1374L182.016 64.3987L176.299 58.7111L181.279 53.7307L191.21 63.662Z" fill="#A5D6CD"/>
<path d="M142.85 143.053C120.277 143.053 101.888 124.664 101.888 102.09C101.888 79.5167 120.277 61.1277 142.85 61.1277C153.784 61.1277 164.068 65.4008 171.819 73.1218C179.569 80.8723 183.813 91.1572 183.813 102.09C183.813 124.693 165.424 143.053 142.85 143.053ZM142.85 62.4833C121.013 62.4833 103.214 80.2534 103.214 102.12C103.214 123.986 120.984 141.756 142.85 141.756C164.687 141.756 182.487 123.986 182.487 102.12C182.487 91.5402 178.361 81.5795 170.876 74.0943C163.361 66.5796 153.43 62.4833 142.85 62.4833Z" fill="#578793"/>
<path d="M142.851 109.782C138.607 109.782 135.159 106.334 135.159 102.09C135.159 97.8466 138.607 94.3987 142.851 94.3987C147.094 94.3987 150.542 97.8466 150.542 102.09C150.542 106.334 147.094 109.782 142.851 109.782ZM142.851 95.7248C139.344 95.7248 136.485 98.5834 136.485 102.09C136.485 105.597 139.344 108.456 142.851 108.456C146.358 108.456 149.216 105.597 149.216 102.09C149.187 98.5834 146.358 95.7248 142.851 95.7248Z" fill="#578793"/>
<path d="M142.851 76.5107C142.468 76.5107 142.173 76.216 142.173 75.8329V68.8192C142.173 68.4361 142.468 68.1414 142.851 68.1414C143.234 68.1414 143.528 68.4361 143.528 68.8192V75.8329C143.499 76.216 143.204 76.5107 142.851 76.5107Z" fill="#578793"/>
<path d="M152.87 78.5147C152.782 78.5147 152.693 78.4852 152.605 78.4557C152.251 78.3084 152.104 77.9253 152.251 77.5716L154.933 71.0883C155.08 70.7347 155.463 70.5874 155.817 70.7347C156.171 70.882 156.318 71.2652 156.171 71.6188L153.489 78.1021C153.4 78.3673 153.135 78.5147 152.87 78.5147Z" fill="#578793"/>
<path d="M161.386 84.2024C161.209 84.2024 161.033 84.1434 160.915 83.9961C160.65 83.7309 160.65 83.3183 160.915 83.0531L165.895 78.0727C166.16 77.8075 166.573 77.8075 166.838 78.0727C167.103 78.3379 167.103 78.7505 166.838 79.0157L161.858 83.9961C161.74 84.1434 161.563 84.2024 161.386 84.2024Z" fill="#578793"/>
<path d="M167.075 92.7189C166.809 92.7189 166.574 92.5715 166.456 92.3063C166.309 91.9527 166.485 91.5696 166.809 91.4222L173.293 88.7405C173.646 88.5932 174.03 88.77 174.177 89.0942C174.324 89.4478 174.147 89.8309 173.823 89.9782L167.34 92.66C167.252 92.7189 167.163 92.7189 167.075 92.7189Z" fill="#578793"/>
<path d="M176.121 102.768H169.107C168.724 102.768 168.43 102.474 168.43 102.09C168.43 101.707 168.724 101.413 169.107 101.413H176.121C176.504 101.413 176.799 101.707 176.799 102.09C176.799 102.474 176.475 102.768 176.121 102.768Z" fill="#578793"/>
<path d="M173.587 115.499C173.498 115.499 173.41 115.47 173.321 115.44L166.838 112.758C166.484 112.611 166.337 112.228 166.484 111.874C166.632 111.521 167.015 111.373 167.369 111.521L173.852 114.202C174.205 114.35 174.353 114.733 174.205 115.086C174.088 115.352 173.852 115.499 173.587 115.499Z" fill="#578793"/>
<path d="M166.367 126.285C166.19 126.285 166.013 126.226 165.895 126.079L160.915 121.098C160.65 120.833 160.65 120.42 160.915 120.155C161.18 119.89 161.593 119.89 161.858 120.155L166.838 125.136C167.103 125.401 167.103 125.813 166.838 126.079C166.72 126.226 166.543 126.285 166.367 126.285Z" fill="#578793"/>
<path d="M155.582 133.505C155.316 133.505 155.081 133.358 154.963 133.092L152.281 126.609C152.134 126.255 152.311 125.872 152.635 125.725C152.988 125.578 153.371 125.754 153.519 126.079L156.2 132.562C156.348 132.915 156.171 133.299 155.847 133.446C155.758 133.475 155.67 133.505 155.582 133.505Z" fill="#578793"/>
<path d="M142.851 136.039C142.468 136.039 142.173 135.745 142.173 135.362V128.348C142.173 127.965 142.468 127.67 142.851 127.67C143.234 127.67 143.528 127.965 143.528 128.348V135.362C143.499 135.745 143.204 136.039 142.851 136.039Z" fill="#578793"/>
<path d="M130.12 133.505C130.032 133.505 129.943 133.475 129.855 133.446C129.501 133.299 129.354 132.916 129.501 132.562L132.183 126.079C132.33 125.725 132.713 125.578 133.067 125.725C133.42 125.872 133.568 126.255 133.42 126.609L130.739 133.092C130.621 133.358 130.385 133.505 130.12 133.505Z" fill="#578793"/>
<path d="M119.304 126.285C119.127 126.285 118.951 126.226 118.833 126.079C118.567 125.813 118.567 125.401 118.833 125.136L123.813 120.155C124.078 119.89 124.491 119.89 124.756 120.155C125.021 120.42 125.021 120.833 124.756 121.098L119.776 126.079C119.658 126.226 119.481 126.285 119.304 126.285Z" fill="#578793"/>
<path d="M112.114 115.499C111.849 115.499 111.613 115.352 111.495 115.086C111.348 114.733 111.524 114.35 111.849 114.202L118.332 111.521C118.686 111.373 119.069 111.55 119.216 111.874C119.363 112.228 119.186 112.611 118.862 112.758L112.379 115.44C112.291 115.469 112.202 115.499 112.114 115.499Z" fill="#578793"/>
<path d="M116.593 102.768H109.579C109.196 102.768 108.901 102.474 108.901 102.09C108.901 101.707 109.196 101.413 109.579 101.413H116.593C116.976 101.413 117.271 101.707 117.271 102.09C117.271 102.474 116.976 102.768 116.593 102.768Z" fill="#578793"/>
<path d="M118.596 92.719C118.508 92.719 118.42 92.6895 118.331 92.66L111.848 89.9783C111.494 89.8309 111.347 89.4478 111.494 89.0942C111.642 88.7406 112.025 88.5932 112.378 88.7406L118.862 91.4223C119.215 91.5696 119.363 91.9527 119.215 92.3064C119.097 92.5716 118.862 92.719 118.596 92.719Z" fill="#578793"/>
<path d="M124.285 84.2022C124.108 84.2022 123.931 84.1432 123.813 83.9959L118.833 79.045C118.567 78.7798 118.567 78.3672 118.833 78.102C119.098 77.8368 119.511 77.8368 119.776 78.102L124.756 83.0823C125.021 83.3476 125.021 83.7601 124.756 84.0254C124.638 84.1432 124.461 84.2022 124.285 84.2022Z" fill="#578793"/>
<path d="M132.801 78.5146C132.536 78.5146 132.3 78.3673 132.182 78.102L129.501 71.6187C129.353 71.2651 129.53 70.882 129.854 70.7347C130.208 70.5873 130.591 70.7641 130.738 71.0883L133.42 77.5716C133.568 77.9252 133.391 78.3083 133.067 78.4557C132.978 78.5146 132.89 78.5146 132.801 78.5146Z" fill="#578793"/>
<path d="M161.386 84.2024C161.209 84.2024 161.033 84.1434 160.915 83.9961C160.65 83.7309 160.65 83.3183 160.915 83.0531L165.895 78.0727C166.16 77.8075 166.573 77.8075 166.838 78.0727C167.103 78.3379 167.103 78.7505 166.838 79.0157L161.858 83.9961C161.74 84.1434 161.563 84.2024 161.386 84.2024Z" fill="#578793"/>
<path d="M142.85 150.096C116.387 150.096 94.874 128.554 94.874 102.12C94.874 75.6561 116.416 54.1433 142.85 54.1433C169.285 54.1433 190.827 75.6855 190.827 102.12C190.827 128.554 169.314 150.096 142.85 150.096ZM142.85 55.44C117.124 55.44 96.2002 76.3634 96.2002 102.09C96.2002 127.817 117.124 148.741 142.85 148.741C168.577 148.741 189.501 127.817 189.501 102.09C189.501 76.3634 168.577 55.44 142.85 55.44Z" fill="black"/>
<path d="M148.921 44.9194C148.804 44.9194 148.686 44.89 148.597 44.831C148.273 44.6542 148.155 44.2416 148.362 43.9175C148.921 42.945 149.216 41.8546 149.216 40.7348C149.216 37.2279 146.358 34.3693 142.851 34.3693C139.344 34.3693 136.485 37.2279 136.485 40.7348C136.485 41.8546 136.78 42.945 137.34 43.9175C137.517 44.2416 137.428 44.6542 137.104 44.831C136.78 45.0078 136.367 44.9194 136.191 44.5953C135.513 43.4165 135.159 42.0904 135.159 40.7348C135.159 36.4911 138.607 33.0432 142.851 33.0432C147.094 33.0432 150.542 36.4911 150.542 40.7348C150.542 42.0904 150.189 43.4165 149.511 44.5953C149.393 44.8016 149.157 44.9194 148.921 44.9194Z" fill="black"/>
<path d="M149.864 55.9704C149.481 55.9704 149.186 55.6757 149.186 55.2926V47.7484C149.186 44.2416 146.328 41.383 142.821 41.383C139.314 41.383 136.455 44.2416 136.455 47.7484V55.2926C136.455 55.6757 136.161 55.9704 135.777 55.9704C135.394 55.9704 135.1 55.6757 135.1 55.2926V47.7484C135.1 43.5048 138.548 40.0569 142.791 40.0569C147.035 40.0569 150.483 43.5048 150.483 47.7484V55.2926C150.542 55.6757 150.247 55.9704 149.864 55.9704Z" fill="black"/>
<path d="M149.864 53.554C149.628 53.554 149.422 53.4361 149.275 53.2298C149.098 52.9056 149.186 52.4931 149.51 52.3162C153.636 49.9292 156.2 45.4793 156.2 40.7347C156.2 33.3673 150.188 27.3555 142.821 27.3555C135.453 27.3555 129.442 33.3673 129.442 40.7347C129.442 45.5088 132.005 49.9292 136.131 52.3162C136.455 52.4931 136.573 52.9056 136.367 53.2298C136.161 53.554 135.777 53.6718 135.453 53.4656C130.915 50.8428 128.086 45.9508 128.086 40.7052C128.086 32.6011 134.687 25.9705 142.821 25.9705C150.954 25.9705 157.555 32.5716 157.555 40.7052C157.555 45.9508 154.726 50.8428 150.188 53.4656C150.1 53.5245 149.982 53.554 149.864 53.554Z" fill="black"/>
<path d="M178.773 71.7955C178.597 71.7955 178.42 71.7366 178.302 71.5892L173.322 66.6089C173.204 66.491 173.115 66.3142 173.115 66.1374C173.115 65.9605 173.174 65.7837 173.322 65.6658L178.302 60.6855C178.567 60.4203 178.98 60.4203 179.245 60.6855L184.225 65.6658C184.343 65.7837 184.432 65.9605 184.432 66.1374C184.432 66.3142 184.373 66.491 184.225 66.6089L179.245 71.5892C179.127 71.7366 178.95 71.7955 178.773 71.7955ZM174.766 66.1374L178.773 70.1452L182.781 66.1374L178.773 62.1295L174.766 66.1374Z" fill="black"/>
<path d="M186.229 69.3201C186.052 69.3201 185.876 69.2612 185.758 69.1138L175.826 59.1826C175.709 59.0647 175.62 58.8879 175.62 58.7111C175.62 58.5343 175.679 58.3575 175.826 58.2396L180.807 53.2592C181.072 52.994 181.485 52.994 181.75 53.2592L191.681 63.1905C191.799 63.3083 191.887 63.4852 191.887 63.662C191.887 63.8388 191.828 64.0156 191.681 64.1335L186.701 69.1138C186.583 69.2317 186.406 69.3201 186.229 69.3201ZM177.241 58.7111L186.229 67.6993L190.237 63.6914L181.249 54.7032L177.241 58.7111Z" fill="black"/>
<path d="M169.078 102.768H149.864C149.481 102.768 149.187 102.474 149.187 102.09C149.187 101.707 149.481 101.413 149.864 101.413H169.078C169.462 101.413 169.756 101.707 169.756 102.09C169.756 102.474 169.462 102.768 169.078 102.768Z" fill="black"/>
</g>
</g>
<defs>
<clipPath id="clip0_2173_63054">
<rect width="231" height="231" fill="white"/>
</clipPath>
<clipPath id="clip1_2173_63054">
<rect width="152.859" height="180" fill="white" transform="translate(39 26)"/>
</clipPath>
</defs>
</svg>
