<svg width="59" height="64" viewBox="0 0 59 64" fill="none" xmlns="http://www.w3.org/2000/svg">
<path d="M58.1133 17.5652L50.9985 21.6843L42.1611 26.7771L29.5042 34.1166L8.00986 21.6843L0.89502 17.5652L29.5042 0.938965L58.1133 17.5652Z" fill="white"/>
<path d="M58.1133 17.5653V25.1295L29.5042 41.7558L0.89502 25.1295V17.5653L8.00986 21.6844L29.5042 34.1167L42.1611 26.7772L50.9985 21.6844L58.1133 17.5653Z" fill="white"/>
<path d="M54.8929 27.0767V48.571L29.5042 63.25L4.19031 48.571V27.0767L29.5042 41.7557L54.8929 27.0767Z" fill="#FFAD9F"/>
<path d="M29.5043 63.2501V34.1167" stroke="black" stroke-width="1.5" stroke-miterlimit="10" stroke-linecap="round" stroke-linejoin="round"/>
<path d="M29.5042 63.25L4.19031 48.571V27.0767" stroke="black" stroke-width="1.5" stroke-miterlimit="10" stroke-linecap="round" stroke-linejoin="round"/>
<path d="M11.1554 11.5737L0.89502 17.5652" stroke="black" stroke-width="1.5" stroke-miterlimit="10" stroke-linecap="round" stroke-linejoin="round"/>
<path d="M40.5136 7.30487L29.5043 0.938965" stroke="black" stroke-width="1.5" stroke-miterlimit="10" stroke-linecap="round" stroke-linejoin="round"/>
<path d="M58.1135 17.5652L47.7782 11.5737" stroke="black" stroke-width="1.5" stroke-miterlimit="10" stroke-linecap="round" stroke-linejoin="round"/>
<path d="M29.5043 63.25L54.8181 48.571V27.0767" stroke="black" stroke-width="1.5" stroke-miterlimit="10" stroke-linecap="round" stroke-linejoin="round"/>
<path d="M29.5042 41.7558L0.89502 25.1295V17.5653" stroke="black" stroke-width="1.5" stroke-miterlimit="10" stroke-linecap="round" stroke-linejoin="round"/>
<path d="M50.9986 21.6843L29.5043 34.1166" stroke="black" stroke-width="1.5" stroke-miterlimit="10" stroke-linecap="round" stroke-linejoin="round"/>
<path d="M29.5043 41.7558L58.1134 25.1295V17.5653" stroke="black" stroke-width="1.5" stroke-miterlimit="10" stroke-linecap="round" stroke-linejoin="round"/>
<path d="M8.00983 21.6843L29.5041 34.1166" stroke="black" stroke-width="1.5" stroke-miterlimit="10" stroke-linecap="round" stroke-linejoin="round"/>
<path d="M29.5043 17.5653L43.8089 25.8035V33.4426" stroke="black" stroke-width="1.5" stroke-miterlimit="10" stroke-linecap="round" stroke-linejoin="round"/>
<path d="M29.504 17.5653L15.1994 25.8035V33.4426" stroke="black" stroke-width="1.5" stroke-miterlimit="10" stroke-linecap="round" stroke-linejoin="round"/>
<path d="M16.8475 34.4161V55.9104" stroke="black" stroke-width="1.5" stroke-miterlimit="10" stroke-linecap="round" stroke-linejoin="round"/>
<path d="M42.161 34.4161V55.9104" stroke="black" stroke-width="1.5" stroke-miterlimit="10" stroke-linecap="round" stroke-linejoin="round"/>
<path d="M58.1133 17.5653L50.9985 21.6844" stroke="black" stroke-width="1.5" stroke-miterlimit="10" stroke-linecap="round" stroke-linejoin="round"/>
<path d="M0.89502 17.5653L8.00986 21.6844" stroke="black" stroke-width="1.5" stroke-miterlimit="10" stroke-linecap="round" stroke-linejoin="round"/>
<path d="M48.5269 50.4432V63.175H35.7951V50.4432L42.161 43.3284L48.5269 50.4432Z" fill="#86C5F9"/>
<path d="M35.7951 50.4435V63.1753H48.5269V50.4435" stroke="black" stroke-width="1.5" stroke-miterlimit="10" stroke-linecap="round" stroke-linejoin="round"/>
<path d="M35.7951 50.4432L42.161 43.3284L48.5269 50.4432" stroke="black" stroke-width="1.5" stroke-miterlimit="10" stroke-linecap="round" stroke-linejoin="round"/>
<path d="M42.1611 34.4161V43.3284" stroke="black" stroke-width="1.5" stroke-miterlimit="10" stroke-linecap="round" stroke-linejoin="round"/>
<path d="M42.1611 54.4875C43.2779 54.4875 44.1832 53.5821 44.1832 52.4654C44.1832 51.3486 43.2779 50.4432 42.1611 50.4432C41.0443 50.4432 40.139 51.3486 40.139 52.4654C40.139 53.5821 41.0443 54.4875 42.1611 54.4875Z" fill="#FFAD9F" stroke="black" stroke-width="1.5" stroke-miterlimit="10" stroke-linecap="round" stroke-linejoin="round"/>
<path d="M29.504 17.5653L20.1424 8.50322C17.4462 5.88196 12.9526 6.85557 11.5297 10.3006C10.1067 13.8206 12.7279 17.6402 16.4726 17.6402L29.504 17.5653Z" stroke="black" stroke-width="1.5" stroke-miterlimit="10" stroke-linecap="round" stroke-linejoin="round"/>
<path d="M29.5043 17.5653L38.8659 8.50322C41.5621 5.88196 46.0556 6.85557 47.4786 10.3006C48.9016 13.8206 46.2803 17.6402 42.5357 17.6402L29.5043 17.5653Z" stroke="black" stroke-width="1.5" stroke-miterlimit="10" stroke-linecap="round" stroke-linejoin="round"/>
<path d="M18.4949 7.37977L29.5042 0.938965" stroke="black" stroke-width="1.5" stroke-miterlimit="10" stroke-linecap="round" stroke-linejoin="round"/>
</svg>
