<svg width="48" height="52" viewBox="0 0 48 52" fill="none" xmlns="http://www.w3.org/2000/svg">
<g clip-path="url(#clip0_63_72595)">
<path d="M47.3024 14.3213L41.5216 17.6681L34.3412 21.806L24.0574 27.7693L6.59331 17.6681L0.8125 14.3213L24.0574 0.8125L47.3024 14.3213Z" fill="white"/>
<path d="M47.3024 14.3214V20.4673L24.0574 33.9761L0.8125 20.4673V14.3214L6.59331 17.6681L24.0574 27.7693L34.3412 21.806L41.5216 17.6681L47.3024 14.3214Z" fill="white"/>
<path d="M44.6859 22.0494V39.5135L24.0575 51.4402L3.48999 39.5135V22.0494L24.0575 33.9761L44.6859 22.0494Z" fill="#86C5F9"/>
<path d="M24.0576 51.4403V27.7694" stroke="black" stroke-miterlimit="10" stroke-linecap="round" stroke-linejoin="round"/>
<path d="M24.0575 51.4402L3.48999 39.5135V22.0494" stroke="black" stroke-miterlimit="10" stroke-linecap="round" stroke-linejoin="round"/>
<path d="M9.14904 9.45331L0.8125 14.3214" stroke="black" stroke-miterlimit="10" stroke-linecap="round" stroke-linejoin="round"/>
<path d="M33.0027 5.9848L24.0576 0.8125" stroke="black" stroke-miterlimit="10" stroke-linecap="round" stroke-linejoin="round"/>
<path d="M47.3024 14.3214L38.905 9.45331" stroke="black" stroke-miterlimit="10" stroke-linecap="round" stroke-linejoin="round"/>
<path d="M24.0576 51.4402L44.6251 39.5135V22.0494" stroke="black" stroke-miterlimit="10" stroke-linecap="round" stroke-linejoin="round"/>
<path d="M24.0574 33.9761L0.8125 20.4673V14.3214" stroke="black" stroke-miterlimit="10" stroke-linecap="round" stroke-linejoin="round"/>
<path d="M41.5217 17.6681L24.0576 27.7693" stroke="black" stroke-miterlimit="10" stroke-linecap="round" stroke-linejoin="round"/>
<path d="M24.0576 33.9762L47.3026 20.4673V14.3214" stroke="black" stroke-miterlimit="10" stroke-linecap="round" stroke-linejoin="round"/>
<path d="M6.59326 17.6682L24.0574 27.7694" stroke="black" stroke-miterlimit="10" stroke-linecap="round" stroke-linejoin="round"/>
<path d="M24.0576 14.3214L35.6801 21.015V27.2217" stroke="black" stroke-miterlimit="10" stroke-linecap="round" stroke-linejoin="round"/>
<path d="M24.0573 14.3214L12.4348 21.0149V27.2217" stroke="black" stroke-miterlimit="10" stroke-linecap="round" stroke-linejoin="round"/>
<path d="M13.774 28.0127V45.4768" stroke="black" stroke-miterlimit="10" stroke-linecap="round" stroke-linejoin="round"/>
<path d="M34.3412 28.0127V45.4768" stroke="black" stroke-miterlimit="10" stroke-linecap="round" stroke-linejoin="round"/>
<path d="M47.3024 14.3214L41.5216 17.6681" stroke="black" stroke-miterlimit="10" stroke-linecap="round" stroke-linejoin="round"/>
<path d="M0.8125 14.3214L6.59331 17.6681" stroke="black" stroke-miterlimit="10" stroke-linecap="round" stroke-linejoin="round"/>
<path d="M39.5134 41.0348V51.3794H29.1688V41.0348L34.3411 35.254L39.5134 41.0348Z" fill="#88B9B3"/>
<path d="M29.1688 41.0349V51.3795H39.5134V41.0349" stroke="black" stroke-miterlimit="10" stroke-linecap="round" stroke-linejoin="round"/>
<path d="M29.1688 41.0348L34.3411 35.254L39.5134 41.0348" stroke="black" stroke-miterlimit="10" stroke-linecap="round" stroke-linejoin="round"/>
<path d="M34.3413 28.0127V35.2539" stroke="black" stroke-miterlimit="10" stroke-linecap="round" stroke-linejoin="round"/>
<path d="M34.3411 44.3207C35.2485 44.3207 35.9841 43.5851 35.9841 42.6777C35.9841 41.7703 35.2485 41.0347 34.3411 41.0347C33.4337 41.0347 32.6981 41.7703 32.6981 42.6777C32.6981 43.5851 33.4337 44.3207 34.3411 44.3207Z" fill="#86C5F9" stroke="black" stroke-miterlimit="10" stroke-linecap="round" stroke-linejoin="round"/>
<path d="M24.0572 14.3214L16.4509 6.95847C14.2603 4.8287 10.6093 5.61975 9.4531 8.41888C8.29694 11.2789 10.4267 14.3822 13.4692 14.3822L24.0572 14.3214Z" stroke="black" stroke-miterlimit="10" stroke-linecap="round" stroke-linejoin="round"/>
<path d="M24.0576 14.3214L31.6639 6.95847C33.8546 4.8287 37.5056 5.61975 38.6618 8.41888C39.8179 11.2789 37.6882 14.3822 34.6456 14.3822L24.0576 14.3214Z" stroke="black" stroke-miterlimit="10" stroke-linecap="round" stroke-linejoin="round"/>
<path d="M15.1124 6.04565L24.0575 0.8125" stroke="black" stroke-miterlimit="10" stroke-linecap="round" stroke-linejoin="round"/>
</g>
<defs>
<clipPath id="clip0_63_72595">
<rect width="47.9375" height="52" fill="white"/>
</clipPath>
</defs>
</svg>
