<svg width="28" height="28" viewBox="0 0 28 28" fill="none" xmlns="http://www.w3.org/2000/svg">
<path d="M24.9783 10.08C24.9783 10.08 24.9783 10.08 24.9783 10.0217C24.1563 7.77726 22.6647 5.8395 20.7054 4.47051C18.7461 3.10152 16.4135 2.36737 14.0233 2.36737C11.6331 2.36737 9.30059 3.10152 7.34127 4.47051C5.38194 5.8395 3.89037 7.77726 3.06834 10.0217C3.06834 10.0217 3.06834 10.0217 3.06834 10.08C2.15032 12.6127 2.15032 15.3873 3.06834 17.92C3.06834 17.92 3.06834 17.92 3.06834 17.9783C3.89037 20.2227 5.38194 22.1605 7.34127 23.5295C9.30059 24.8985 11.6331 25.6326 14.0233 25.6326C16.4135 25.6326 18.7461 24.8985 20.7054 23.5295C22.6647 22.1605 24.1563 20.2227 24.9783 17.9783C24.9783 17.9783 24.9783 17.9783 24.9783 17.92C25.8964 15.3873 25.8964 12.6127 24.9783 10.08ZM4.97 16.3333C4.56544 14.8041 4.56544 13.1959 4.97 11.6667H7.14C6.95337 13.2166 6.95337 14.7834 7.14 16.3333H4.97ZM5.92667 18.6667H7.56C7.83384 19.7072 8.22525 20.7131 8.72667 21.665C7.58252 20.8856 6.62608 19.8614 5.92667 18.6667ZM7.56 9.33334H5.92667C6.61602 8.14227 7.56023 7.11838 8.69167 6.335C8.20232 7.28846 7.82267 8.29433 7.56 9.33334ZM12.8333 22.9833C11.4004 21.9318 10.394 20.3994 9.99834 18.6667H12.8333V22.9833ZM12.8333 16.3333H9.49667C9.27896 14.7854 9.27896 13.2146 9.49667 11.6667H12.8333V16.3333ZM12.8333 9.33334H9.99834C10.394 7.60057 11.4004 6.06821 12.8333 5.01667V9.33334ZM22.0733 9.33334H20.44C20.1662 8.29286 19.7748 7.28693 19.2733 6.335C20.4175 7.11442 21.3739 8.1386 22.0733 9.33334ZM15.1667 5.01667C16.5996 6.06821 17.606 7.60057 18.0017 9.33334H15.1667V5.01667ZM15.1667 22.9833V18.6667H18.0017C17.606 20.3994 16.5996 21.9318 15.1667 22.9833ZM18.5033 16.3333H15.1667V11.6667H18.5033C18.721 13.2146 18.721 14.7854 18.5033 16.3333ZM19.3083 21.665C19.8098 20.7131 20.2012 19.7072 20.475 18.6667H22.1083C21.4089 19.8614 20.4525 20.8856 19.3083 21.665ZM23.03 16.3333H20.86C20.9549 15.5592 21.0016 14.7799 21 14C21.0013 13.2201 20.9545 12.4408 20.86 11.6667H23.03C23.4346 13.1959 23.4346 14.8041 23.03 16.3333Z" fill="#2945FF"/>
</svg>
