<svg width="32" height="32" viewBox="0 0 32 32" fill="none" xmlns="http://www.w3.org/2000/svg">
<path fill-rule="evenodd" clip-rule="evenodd" d="M12.5251 8.75392C12.7562 9.4531 12.3767 10.2072 11.6775 10.4383C10.7539 10.7436 10.0477 11.0604 9.6669 11.2836C9.43241 11.4211 9.16943 11.48 8.91192 11.4644C9.03132 11.7171 9.07218 12.0086 9.01238 12.3008C8.44305 15.0827 6.70439 16.6473 5.29691 17.3599C5.41372 18.6276 5.78709 19.2195 6.21497 19.5537C6.82549 20.0304 7.92718 20.3057 9.97431 20.3057C10.7107 20.3057 11.3076 20.9026 11.3076 21.639V24.0001H12.1591L13.2131 21.8015C13.3989 21.414 13.7601 21.1397 14.1833 21.0649C14.6066 20.9901 15.0399 21.1239 15.3473 21.4243C15.5427 21.6152 15.9023 21.748 16.5777 21.6794C17.2397 21.6122 17.9568 21.3725 18.5616 21.1361C18.972 20.9757 19.435 21.0283 19.7989 21.2767C20.1628 21.5252 20.3804 21.9373 20.3804 22.3779V24.0001H21.2886L23.0282 20.8836C23.1608 20.6461 23.3628 20.4549 23.6071 20.3355C24.0874 20.1008 25.8104 18.7531 25.2884 15.1819C24.9605 12.9385 23.3108 11.4637 21.2048 10.5584C20.5282 10.2676 20.2156 9.48342 20.5064 8.8069C20.7972 8.13037 21.5814 7.81769 22.2579 8.1085C24.8019 9.20208 27.4108 11.265 27.927 14.7962C28.5573 19.1081 26.6767 21.5518 25.1759 22.5073L23.2355 25.9833C23 26.4053 22.5546 26.6668 22.0713 26.6668H19.0471C18.3107 26.6668 17.7137 26.0698 17.7137 25.3334V24.1909C17.4328 24.2528 17.1416 24.3026 16.847 24.3325C16.2935 24.3886 15.6514 24.3812 15.0179 24.2056L14.2009 25.9098C13.9791 26.3724 13.5116 26.6668 12.9986 26.6668H9.97431C9.23793 26.6668 8.64097 26.0698 8.64097 25.3334V22.9325C7.06763 22.8289 5.65293 22.4981 4.57376 21.6555C3.10448 20.5082 2.59247 18.704 2.59247 16.4668C2.59247 15.8523 3.01242 15.3174 3.60935 15.1715C4.1157 15.0478 5.41627 14.3882 6.09778 12.7564C5.88222 12.6295 5.66539 12.484 5.45885 12.3199C4.8612 11.8448 4.10459 11.0097 4.10459 9.81679C4.10459 9.2023 4.52455 8.6674 5.12147 8.52155C5.76813 8.36356 6.63731 8.28765 7.4363 8.32959C7.84056 8.35081 8.27093 8.40426 8.67237 8.51303C8.77848 8.54179 8.89365 8.5773 9.01302 8.62199C9.53215 8.37855 10.158 8.13198 10.8407 7.90633C11.5399 7.67526 12.294 8.05473 12.5251 8.75392Z" fill="#2945FF"/>
<path fill-rule="evenodd" clip-rule="evenodd" d="M29.2591 10.7002C29.9955 10.7002 30.5925 11.2971 30.5925 12.0335C30.5925 13.6228 30.0485 14.7953 29.2011 15.5579C28.3964 16.2821 27.4315 16.5335 26.7258 16.5335C25.9894 16.5335 25.3925 15.9366 25.3925 15.2002C25.3925 14.4638 25.9894 13.8669 26.7258 13.8669C26.8645 13.8669 27.1663 13.8016 27.4172 13.5758C27.6253 13.3885 27.9258 12.9776 27.9258 12.0335C27.9258 11.2971 28.5227 10.7002 29.2591 10.7002Z" fill="#2945FF"/>
<path fill-rule="evenodd" clip-rule="evenodd" d="M13.2592 12.0001C13.2592 11.2637 13.8561 10.6667 14.5925 10.6667H18.5925C19.3289 10.6667 19.9258 11.2637 19.9258 12.0001C19.9258 12.7365 19.3289 13.3334 18.5925 13.3334H14.5925C13.8561 13.3334 13.2592 12.7365 13.2592 12.0001Z" fill="#2945FF"/>
<path d="M11.9258 14.6668C11.9258 15.4032 11.3289 16.0002 10.5925 16.0002C9.85611 16.0002 9.25916 15.4032 9.25916 14.6668C9.25916 13.9304 9.85611 13.3335 10.5925 13.3335C11.3289 13.3335 11.9258 13.9304 11.9258 14.6668Z" fill="#2945FF"/>
<path fill-rule="evenodd" clip-rule="evenodd" d="M16.5925 6.66675C16.9607 6.66675 17.2592 6.36827 17.2592 6.00008C17.2592 5.63189 16.9607 5.33341 16.5925 5.33341C16.2243 5.33341 15.9258 5.63189 15.9258 6.00008C15.9258 6.36827 16.2243 6.66675 16.5925 6.66675ZM16.5925 9.33341C18.4334 9.33341 19.9258 7.84103 19.9258 6.00008C19.9258 4.15913 18.4334 2.66675 16.5925 2.66675C14.7515 2.66675 13.2592 4.15913 13.2592 6.00008C13.2592 7.84103 14.7515 9.33341 16.5925 9.33341Z" fill="#2945FF"/>
</svg>
