<svg width="72" height="72" viewBox="0 0 72 72" fill="none" xmlns="http://www.w3.org/2000/svg">
<path d="M55.548 11.7L47.772 61.02C47.628 62.028 46.692 62.82 45.684 62.82H24.444C23.148 62.82 22.14 61.668 22.356 60.372L30.132 11.052C30.276 10.044 31.212 9.25195 32.22 9.25195H35.964L35.748 10.692C35.604 11.556 36.252 12.348 37.116 12.348H47.484C48.492 12.348 49.428 11.556 49.572 10.548L49.788 9.32395H53.46C54.756 9.25195 55.764 10.404 55.548 11.7Z" fill="white"/>
<path d="M58.14 6.37207H54.324H31.644C29.556 6.37207 27.756 7.88407 27.468 9.97207L19.476 60.7321C19.044 63.3241 21.06 65.6281 23.652 65.6281H46.26H50.076C52.164 65.6281 53.964 64.1161 54.252 62.0281L62.244 11.2681C62.748 8.67607 60.732 6.37207 58.14 6.37207ZM45.684 62.7481H24.444C23.148 62.7481 22.14 61.5961 22.356 60.3001L30.132 10.9801C30.276 9.97207 31.212 9.18007 32.22 9.18007H35.964L35.748 10.6201C35.604 11.4841 36.252 12.2761 37.116 12.2761H47.484C48.492 12.2761 49.428 11.4841 49.572 10.4761L49.788 9.25207H53.46C54.756 9.25207 55.764 10.4041 55.548 11.7001L47.772 61.0201C47.628 62.0281 46.692 62.7481 45.684 62.7481Z" fill="#86C5F9"/>
<path d="M40.788 9.25195H44.532" stroke="black" stroke-width="1.5" stroke-miterlimit="10" stroke-linecap="round" stroke-linejoin="round"/>
<path d="M29.988 59.868H39.564" stroke="black" stroke-width="1.5" stroke-miterlimit="10" stroke-linecap="round" stroke-linejoin="round"/>
<path d="M50.508 62.0281L58.5 11.2681C58.932 8.67607 56.916 6.37207 54.324 6.37207H31.644C29.556 6.37207 27.756 7.88407 27.468 9.97207L19.476 60.7321C19.044 63.3241 21.06 65.6281 23.652 65.6281H46.332C48.42 65.6281 50.148 64.1161 50.508 62.0281Z" stroke="black" stroke-width="1.5" stroke-miterlimit="10" stroke-linecap="round" stroke-linejoin="round"/>
<path d="M35.964 9.25195H32.22C31.212 9.25195 30.276 10.044 30.132 11.052L22.356 60.372C22.14 61.668 23.148 62.82 24.444 62.82H45.684C46.692 62.82 47.628 62.028 47.772 61.02L55.62 11.7C55.836 10.404 54.828 9.25195 53.532 9.25195H49.86" stroke="black" stroke-width="1.5" stroke-miterlimit="10" stroke-linecap="round" stroke-linejoin="round"/>
<path d="M41.076 6.37207H58.212C60.804 6.37207 62.82 8.67607 62.388 11.2681L54.396 62.0281C54.036 64.1161 52.308 65.6281 50.22 65.6281H32.724" stroke="black" stroke-width="1.5" stroke-miterlimit="10" stroke-linecap="round" stroke-linejoin="round"/>
<path d="M35.964 9.25195L35.748 10.692C35.604 11.556 36.252 12.348 37.116 12.348H42.804H47.484C48.492 12.348 49.428 11.556 49.572 10.548L49.788 9.32395" stroke="black" stroke-width="1.5" stroke-miterlimit="10" stroke-linecap="round" stroke-linejoin="round"/>
<path d="M8.46002 40.8601L9.97202 31.2841" stroke="black" stroke-width="1.5" stroke-miterlimit="10" stroke-linecap="round" stroke-linejoin="round"/>
<path d="M22.644 14.6521H17.748" stroke="black" stroke-width="1.5" stroke-miterlimit="10" stroke-linecap="round" stroke-linejoin="round"/>
<path d="M21.708 20.5559H13.068" stroke="black" stroke-width="1.5" stroke-miterlimit="10" stroke-linecap="round" stroke-linejoin="round"/>
<path d="M36.108 46.908H3.564C2.268 46.908 1.188 45.756 1.404 44.388L4.212 26.82C4.356 25.74 5.292 25.02 6.372 25.02H39.06C40.428 25.02 41.436 26.244 41.22 27.54L38.34 45.108C38.124 46.188 37.188 46.908 36.108 46.908Z" fill="#FFAD9F"/>
<path d="M36.108 46.908H3.564C2.268 46.908 1.188 45.756 1.404 44.388L4.212 26.82C4.356 25.74 5.292 25.02 6.372 25.02H39.06C40.428 25.02 41.436 26.244 41.22 27.54L38.34 45.108C38.124 46.188 37.188 46.908 36.108 46.908Z" stroke="black" stroke-width="1.5" stroke-miterlimit="10" stroke-linecap="round" stroke-linejoin="round"/>
<path d="M16.668 36.4681H9.32404C8.89204 36.4681 8.53204 36.1081 8.60404 35.6041L9.39604 30.6361C9.46804 30.2761 9.75604 30.0601 10.116 30.0601H17.388C17.82 30.0601 18.18 30.4201 18.108 30.9241L17.316 35.8921C17.316 36.1801 16.956 36.4681 16.668 36.4681Z" fill="white"/>
<path d="M15.3001 30.0601L14.2921 36.4681" stroke="black" stroke-width="1.5" stroke-miterlimit="10" stroke-linecap="round" stroke-linejoin="round"/>
<path d="M12.492 30.0601L11.484 36.4681" stroke="black" stroke-width="1.5" stroke-miterlimit="10" stroke-linecap="round" stroke-linejoin="round"/>
<path d="M16.668 36.4681H9.32404C8.89204 36.4681 8.53204 36.1081 8.60404 35.6041L9.39604 30.6361C9.46804 30.2761 9.75604 30.0601 10.116 30.0601H17.388C17.82 30.0601 18.18 30.4201 18.108 30.9241L17.316 35.8921C17.316 36.1801 16.956 36.4681 16.668 36.4681Z" stroke="black" stroke-width="1.5" stroke-miterlimit="10" stroke-linecap="round" stroke-linejoin="round"/>
<path d="M20.5561 41.9401H33.2281" stroke="black" stroke-width="1.5" stroke-miterlimit="10" stroke-linecap="round" stroke-linejoin="round"/>
<path d="M7.66803 41.9401H16.38" stroke="black" stroke-width="1.5" stroke-miterlimit="10" stroke-linecap="round" stroke-linejoin="round"/>
</svg>
