<svg width="110" height="73" viewBox="0 0 110 73" fill="none" xmlns="http://www.w3.org/2000/svg">
<rect x="1.14023" y="0.601591" width="108.367" height="32.6695" rx="4.3825" fill="black" stroke="#999999" stroke-width="0.796818"/>
<path fill-rule="evenodd" clip-rule="evenodd" d="M5.52273 1H105.125C107.325 1 109.109 2.78374 109.109 4.98409V28.8886C109.109 31.089 107.325 32.8727 105.125 32.8727H5.52273C3.32237 32.8727 1.53864 31.089 1.53864 28.8886V4.98409C1.53864 2.78374 3.32237 1 5.52273 1ZM108.472 4.98415C108.472 3.13586 106.973 1.63752 105.125 1.63752H5.52273C3.67443 1.63752 2.17609 3.13586 2.17609 4.98415V28.8887C2.17609 30.737 3.67443 32.2353 5.52273 32.2353H105.125C106.973 32.2353 108.472 30.737 108.472 28.8887V4.98415Z" fill="black"/>
<path d="M39.3237 9.15939C39.3511 9.75002 39.1351 10.326 38.7261 10.753C38.2691 11.2278 37.6317 11.4856 36.9731 11.4622C36.3104 11.4687 35.6731 11.2077 35.2052 10.7384C34.7373 10.269 34.4784 9.63084 34.4871 8.96816C34.4784 8.30548 34.7373 7.66731 35.2052 7.19794C35.6731 6.72857 36.3104 6.46763 36.9731 6.47412C37.31 6.47299 37.6435 6.54079 37.9532 6.67332C38.2415 6.78962 38.4982 6.97257 38.7022 7.20719L38.2799 7.6295C37.9575 7.24598 37.4734 7.03642 36.9731 7.06376C36.4716 7.06137 35.9907 7.26282 35.6406 7.62191C35.2906 7.981 35.1014 8.4669 35.1165 8.96816C35.1059 9.72768 35.5532 10.419 36.2504 10.7206C36.9475 11.0221 37.7577 10.8746 38.3038 10.3467C38.549 10.0809 38.6904 9.73589 38.7022 9.37454H36.9731V8.80083H39.2919C39.3131 8.91916 39.3238 9.03916 39.3237 9.15939Z" fill="white"/>
<path d="M42.9732 7.1674H40.8218V8.68136H42.7819V9.25507H40.8218V10.769H42.9732V11.3587H40.1843V6.57776H42.9732V7.1674Z" fill="white"/>
<path d="M45.5867 11.3587H44.9732V7.1674H43.6345V6.57776H46.9573V7.1674H45.5867V11.3587Z" fill="white"/>
<path d="M49.2999 11.3587V6.57776H49.9135V11.3587H49.2999Z" fill="white"/>
<path d="M52.6386 11.3587H52.025V7.1674H50.6864V6.57776H53.9693V7.1674H52.6386V11.3587Z" fill="white"/>
<path fill-rule="evenodd" clip-rule="evenodd" d="M55.9852 8.96816C55.9706 9.62827 56.2235 10.2662 56.6864 10.7371C57.6562 11.7014 59.2227 11.7014 60.1924 10.7371C60.6553 10.2662 60.9082 9.62827 60.8936 8.96816C60.9082 8.30804 60.6553 7.67007 60.1924 7.19922C59.7287 6.73208 59.0977 6.46936 58.4394 6.46936C57.7812 6.46936 57.1502 6.73208 56.6864 7.19922C56.2235 7.67007 55.9706 8.30804 55.9852 8.96816ZM59.7382 10.3387C59.02 11.0539 57.8588 11.0539 57.1406 10.3387C56.7832 9.97382 56.5903 9.47873 56.6067 8.96819C56.5818 8.46226 56.7629 7.96781 57.1087 7.59767C57.8269 6.88247 58.9882 6.88247 59.7064 7.59767C60.0755 7.95721 60.2801 8.45297 60.2721 8.96819C60.2885 9.47873 60.0957 9.97382 59.7382 10.3387Z" fill="white"/>
<path d="M61.7622 11.3587V6.57776H62.5112L64.8379 10.2989V9.37459V6.57776H65.4514V11.3587H64.814L62.3757 7.46223V8.38654V11.3587H61.7622Z" fill="white"/>
<path fill-rule="evenodd" clip-rule="evenodd" d="M39.5787 19.3746V20.8089H43.021C42.967 21.4844 42.6862 22.1219 42.2242 22.6176C41.5278 23.327 40.564 23.709 39.5708 23.6694C37.4584 23.6694 35.746 21.957 35.746 19.8447C35.746 17.7324 37.4584 16.02 39.5708 16.02C40.5411 16.0042 41.4782 16.3738 42.1764 17.0479L43.1883 16.0359C42.2361 15.0717 40.9339 14.5341 39.5787 14.5459C37.6496 14.4708 35.834 15.4572 34.8471 17.1165C33.8602 18.7757 33.8602 20.842 34.8471 22.5013C35.834 24.1605 37.6496 25.1469 39.5787 25.0718C40.9586 25.1342 42.2981 24.5967 43.2521 23.5977C44.0869 22.6805 44.5326 21.4748 44.4951 20.2352C44.4977 19.9331 44.471 19.6316 44.4154 19.3347L39.5787 19.3746ZM48.4154 18.3307C46.5462 18.3351 45.034 19.8532 45.0369 21.7225C45.0399 23.5918 46.5568 25.1051 48.4261 25.1037C50.2953 25.1022 51.8099 23.5865 51.8099 21.7172C51.823 20.8123 51.4682 19.9409 50.8268 19.3025C50.1854 18.664 49.3123 18.3134 48.4075 18.3307H48.4154ZM52.4633 21.7278C52.4574 19.8596 53.9656 18.3395 55.8338 18.3307C56.7386 18.3134 57.6117 18.664 58.2532 19.3025C58.8946 19.9409 59.2494 20.8123 59.2362 21.7172C59.2362 23.5854 57.7233 25.1007 55.855 25.1036C53.9868 25.1066 52.4691 23.596 52.4633 21.7278ZM53.8354 22.6083C54.1993 23.37 54.9918 23.8318 55.8338 23.7729C56.3623 23.7607 56.8635 23.5354 57.2236 23.1484C57.5837 22.7613 57.7721 22.2452 57.7462 21.7171C57.7441 20.873 57.2263 20.116 56.4403 19.808C55.6544 19.5001 54.7601 19.7039 54.1852 20.3219C53.6102 20.94 53.4715 21.8467 53.8354 22.6083ZM46.4117 22.6144C46.7782 23.3756 47.5729 23.8352 48.4154 23.7729H48.4075C48.936 23.7607 49.4372 23.5355 49.7972 23.1484C50.1573 22.7613 50.3458 22.2452 50.3198 21.7172C50.3175 20.8724 49.7987 20.115 49.0117 19.8077C48.2248 19.5005 47.33 19.7059 46.7559 20.3257C46.1818 20.9454 46.0453 21.8533 46.4117 22.6144ZM72.7821 18.3307C74.1032 18.3794 75.2571 19.2384 75.6826 20.4901L75.8499 20.8486L71.316 22.7212C71.6002 23.3683 72.2511 23.776 72.9574 23.7491C73.6394 23.7508 74.272 23.3936 74.6228 22.8088L75.7782 23.6056C75.1492 24.547 74.0896 25.1098 72.9574 25.1037C72.0575 25.1169 71.1908 24.7635 70.5567 24.1248C69.9225 23.4861 69.5753 22.617 69.5949 21.7172C69.5398 20.8379 69.8511 19.9751 70.4549 19.3335C71.0587 18.692 71.9011 18.329 72.7821 18.3307ZM71.061 21.6216C71.0284 21.1237 71.1975 20.6337 71.5303 20.2619C71.8631 19.8902 72.3315 19.668 72.8299 19.6455C73.3553 19.6109 73.8507 19.8931 74.0889 20.3626L71.061 21.6216ZM68.8698 24.9044H67.3797V14.9442H68.8698V24.9044ZM64.9415 19.0877H64.8857C64.4315 18.5799 63.7821 18.29 63.1008 18.2909C61.2921 18.3786 59.8708 19.8706 59.8708 21.6814C59.8708 23.4922 61.2921 24.9841 63.1008 25.0718C63.7843 25.0833 64.4379 24.7916 64.8857 24.275H64.9335V24.7611C64.9335 26.0599 64.2402 26.7531 63.1247 26.7531C62.3648 26.7353 61.691 26.2599 61.4195 25.5499L60.1207 26.0918C60.6208 27.3084 61.8093 28.0996 63.1247 28.0918C64.8697 28.0918 66.312 27.0639 66.312 24.5619V18.53H64.9415V19.0877ZM63.2338 23.7728L63.2363 23.773H63.2283L63.2338 23.7728ZM64.5765 23.1338C64.2345 23.5207 63.7496 23.7515 63.2338 23.7728C62.1696 23.6777 61.3537 22.7859 61.3537 21.7172C61.3537 20.6476 62.1708 19.7553 63.2363 19.6614C63.7511 19.6878 64.2335 19.921 64.574 20.308C64.9145 20.6951 65.0844 21.2032 65.045 21.7172C65.089 22.2336 64.9197 22.7454 64.5765 23.1338ZM82.6627 14.9442H79.0929V24.9045H80.583V21.1275H82.6627C83.8202 21.2107 84.9272 20.6403 85.5313 19.6494C86.1354 18.6586 86.1354 17.4132 85.5313 16.4224C84.9272 15.4315 83.8202 14.8611 82.6627 14.9442ZM80.583 19.7251H82.6627L82.6946 19.749C83.6385 19.749 84.4037 18.9838 84.4037 18.0399C84.4037 17.0959 83.6385 16.3307 82.6946 16.3307H80.583V19.7251ZM91.85 18.2909C90.7414 18.2246 89.6991 18.8224 89.1966 19.8128L90.5193 20.3626C90.7858 19.8715 91.317 19.584 91.8739 19.6295C92.256 19.5849 92.64 19.6956 92.9397 19.9368C93.2393 20.1781 93.4295 20.5296 93.4675 20.9124V21.016C92.989 20.7626 92.4553 20.6312 91.9137 20.6335C90.4874 20.6335 89.0452 21.4303 89.0452 22.8726C89.0736 23.4938 89.3522 24.0772 89.8174 24.4899C90.2827 24.9027 90.8951 25.1096 91.5153 25.0638C92.2797 25.1187 93.013 24.752 93.4277 24.1076H93.4755V24.9044H94.9098V21.0717C94.9098 19.3267 93.5871 18.3148 91.8898 18.3148L91.85 18.2909ZM90.5034 22.9045C90.5034 23.5021 91.1807 23.7491 91.6667 23.7491L91.7066 23.773C92.6042 23.7511 93.3486 23.0714 93.4516 22.1794C93.0382 21.9486 92.5704 21.833 92.097 21.8447C91.348 21.8447 90.5034 22.1077 90.5034 22.9045ZM100.137 18.5299L98.4317 22.8487H98.3839L96.615 18.5299H95.0213L97.6747 24.5698L96.1608 27.9244H97.7146L101.794 18.5299H100.137ZM88.2324 24.9044H86.7424V14.9442H88.2324V24.9044Z" fill="white"/>
<path d="M9.85741 7.00793C9.60342 7.32192 9.47811 7.72063 9.50681 8.12347V25.7491C9.48255 26.154 9.61364 26.553 9.87335 26.8646L9.92913 26.9204L19.7858 17.0558V16.8247L9.91319 6.95215L9.85741 7.00793Z" fill="#00D8FF"/>
<path d="M23.0527 20.3468L19.7858 17.0559V16.8248L23.0527 13.526L23.1244 13.5658L27.0368 15.789C28.1524 16.4185 28.1524 17.4543 27.0368 18.0918L23.1404 20.3069L23.0527 20.3468Z" fill="url(#paint0_linear_143_3047)"/>
<path d="M23.1483 20.3069L19.7858 16.9364L9.85742 26.8648C10.3265 27.2771 11.0227 27.2972 11.5148 26.9126L23.1563 20.299" fill="#F1324B"/>
<path d="M23.1483 13.5738L11.5068 6.96021C11.0147 6.57557 10.3185 6.59565 9.84944 7.00802L19.7858 16.9364L23.1483 13.5738Z" fill="#00F076"/>
<path opacity="0.2" d="M23.0527 20.2272L11.5068 26.8009C11.0343 27.1542 10.3857 27.1542 9.9132 26.8009L9.85742 26.8567L9.9132 26.9125C10.3848 27.2684 11.0352 27.2684 11.5068 26.9125L23.1483 20.2989L23.0527 20.2272Z" fill="black"/>
<path d="M9.85742 26.7532C9.59771 26.4416 9.46662 26.0426 9.49088 25.6377V25.7572C9.46662 26.1622 9.59771 26.5611 9.85742 26.8728L9.9132 26.817L9.85742 26.7532Z" fill="black"/>
<path d="M27.0368 17.9723L23.0527 20.2273L23.1244 20.299L27.0368 18.0838C27.4887 17.8716 27.7926 17.4339 27.8336 16.9364C27.7428 17.3865 27.4485 17.769 27.0368 17.9723Z" fill="black"/>
<path d="M11.5068 7.0717L27.0368 15.9004C27.4485 16.1037 27.7428 16.4862 27.8336 16.9363C27.7926 16.4388 27.4887 16.0012 27.0368 15.7889L11.5068 6.96015C10.3993 6.32269 9.50682 6.84859 9.50682 8.1235V8.24302C9.50682 6.96811 10.3993 6.44221 11.5068 7.0717Z" fill="black"/>
<path d="M37.2541 43.8772C37.3568 43.561 37.8042 43.561 37.9069 43.8772L39.0445 47.3784C39.0905 47.5198 39.2222 47.6156 39.3709 47.6156H43.0523C43.3847 47.6156 43.523 48.041 43.254 48.2364L40.2757 50.4003C40.1554 50.4877 40.1051 50.6426 40.151 50.784L41.2887 54.2852C41.3914 54.6014 41.0295 54.8643 40.7605 54.6689L37.7822 52.505C37.662 52.4176 37.4991 52.4176 37.3788 52.505L34.4005 54.6689C34.1315 54.8643 33.7696 54.6014 33.8724 54.2852L35.01 50.784C35.0559 50.6426 35.0056 50.4877 34.8853 50.4003L31.907 48.2364C31.638 48.041 31.7763 47.6156 32.1087 47.6156H35.7901C35.9388 47.6156 36.0706 47.5198 36.1165 47.3784L37.2541 43.8772Z" fill="#2945FF"/>
<path d="M52.1723 43.8772C52.2751 43.561 52.7224 43.561 52.8251 43.8772L53.9627 47.3784C54.0087 47.5198 54.1404 47.6156 54.2891 47.6156H57.9705C58.303 47.6156 58.4412 48.041 58.1722 48.2364L55.1939 50.4003C55.0736 50.4877 55.0233 50.6426 55.0693 50.784L56.2069 54.2852C56.3096 54.6014 55.9477 54.8643 55.6787 54.6689L52.7005 52.505C52.5802 52.4176 52.4173 52.4176 52.297 52.505L49.3187 54.6689C49.0497 54.8643 48.6878 54.6014 48.7906 54.2852L49.9282 50.784C49.9741 50.6426 49.9238 50.4877 49.8035 50.4003L46.8252 48.2364C46.5563 48.041 46.6945 47.6156 47.027 47.6156H50.7083C50.857 47.6156 50.9888 47.5198 51.0347 47.3784L52.1723 43.8772Z" fill="#2945FF"/>
<path d="M67.0906 43.8772C67.1933 43.561 67.6406 43.561 67.7434 43.8772L68.881 47.3784C68.9269 47.5198 69.0587 47.6156 69.2074 47.6156H72.8887C73.2212 47.6156 73.3594 48.041 73.0905 48.2364L70.1122 50.4003C69.9919 50.4877 69.9415 50.6426 69.9875 50.784L71.1251 54.2852C71.2278 54.6014 70.8659 54.8643 70.597 54.6689L67.6187 52.505C67.4984 52.4176 67.3355 52.4176 67.2152 52.505L64.2369 54.6689C63.968 54.8643 63.6061 54.6014 63.7088 54.2852L64.8464 50.784C64.8924 50.6426 64.842 50.4877 64.7217 50.4003L61.7435 48.2364C61.4745 48.041 61.6127 47.6156 61.9452 47.6156H65.6265C65.7752 47.6156 65.907 47.5198 65.9529 47.3784L67.0906 43.8772Z" fill="#2945FF"/>
<path d="M82.0088 43.8772C82.1115 43.561 82.5588 43.561 82.6616 43.8772L83.7992 47.3784C83.8451 47.5198 83.9769 47.6156 84.1256 47.6156H87.807C88.1394 47.6156 88.2776 48.041 88.0087 48.2364L85.0304 50.4003C84.9101 50.4877 84.8598 50.6426 84.9057 50.784L86.0433 54.2852C86.1461 54.6014 85.7842 54.8643 85.5152 54.6689L82.5369 52.505C82.4166 52.4176 82.2537 52.4176 82.1335 52.505L79.1552 54.6689C78.8862 54.8643 78.5243 54.6014 78.627 54.2852L79.7646 50.784C79.8106 50.6426 79.7603 50.4877 79.64 50.4003L76.6617 48.2364C76.3927 48.041 76.5309 47.6156 76.8634 47.6156H80.5448C80.6935 47.6156 80.8252 47.5198 80.8712 47.3784L82.0088 43.8772Z" fill="#2945FF"/>
<path fill-rule="evenodd" clip-rule="evenodd" d="M97 44.1226C96.8871 44.1346 96.7801 44.2058 96.7377 44.3363L95.5774 47.9073C95.5357 48.0358 95.4159 48.1229 95.2807 48.1229H91.526C91.2237 48.1229 91.0981 48.5096 91.3426 48.6873L94.3802 50.8943C94.4896 50.9737 94.5353 51.1145 94.4936 51.2431L93.3333 54.8141C93.2399 55.1015 93.5689 55.3405 93.8134 55.1629L96.8511 52.9559C96.896 52.9233 96.9474 52.904 97 52.8982V44.1226Z" fill="#2945FF"/>
<path d="M6.42877 55.1187V53.3701H1.9414V52.0394L6.81561 44.4882H8.50225V51.5752H9.92583V53.3701H8.50225V55.1187H6.42877ZM4.2315 51.668H6.56803V47.8924L4.2315 51.668ZM12.3777 55.2579C11.6659 55.2579 11.0934 54.7009 11.0934 54.0045C11.0934 53.3237 11.6659 52.7666 12.3777 52.7666C13.0585 52.7666 13.6311 53.3237 13.6311 54.0045C13.6311 54.7009 13.0585 55.2579 12.3777 55.2579ZM18.9935 48.2638C20.804 48.2638 22.3049 49.5636 22.3049 51.6835C22.3049 53.7879 20.7575 55.2579 18.5139 55.2579C17.0593 55.2579 15.7286 54.6854 14.8311 53.5713L16.3475 52.3643C16.7653 52.9369 17.4616 53.3392 18.3127 53.3392C19.4423 53.3392 20.1695 52.6119 20.1695 51.6525C20.1695 50.5384 19.2102 49.9814 18.3591 49.9814C17.7711 49.9814 17.2605 50.1206 16.7499 50.523L15.6203 50.1206L15.9452 44.4882H21.7633V46.407H17.8021L17.6783 48.4804C18.158 48.3412 18.6376 48.2638 18.9935 48.2638Z" fill="black"/>
<path d="M1.80747 63.2611H6.11749V63.8581L3.36555 70.3332L2.51569 70.1612L5.16645 64.0402H1.80747V63.2611ZM9.30899 70.2725C7.87231 70.2725 6.87069 69.4328 6.87069 68.2996C6.87069 67.3688 7.43726 66.701 8.19607 66.4582V66.438C7.71043 66.2559 7.21468 65.7095 7.21468 64.971C7.21468 63.8581 8.12525 63.2004 9.30899 63.2004C10.5635 63.2004 11.4134 63.9086 11.4134 64.971C11.4134 65.7197 10.9075 66.2761 10.4219 66.438V66.4582C11.1908 66.6909 11.7574 67.3587 11.7574 68.2996C11.7574 69.5036 10.6748 70.2725 9.30899 70.2725ZM9.30899 66.0839C10.0678 66.0839 10.5939 65.6792 10.5939 65.0418C10.5939 64.4044 10.0476 63.9592 9.30899 63.9592C8.52994 63.9592 8.03419 64.4449 8.03419 65.0418C8.03419 65.6792 8.5603 66.0839 9.30899 66.0839ZM9.30899 69.5036C10.26 69.5036 10.8873 68.9066 10.8873 68.2085C10.8873 67.4093 10.2499 66.873 9.30899 66.873C8.35795 66.873 7.74079 67.4093 7.74079 68.2085C7.74079 68.9572 8.42877 69.5036 9.30899 69.5036ZM12.9843 70.2118V62.7654H13.8038V67.9758L13.8139 67.986L16.232 65.2846H17.2235L15.3821 67.3182L17.2437 70.2118H16.3028L14.8156 67.8949L13.8038 68.9876V70.2118H12.9843ZM20.9676 70.2118V65.2846H21.7871V66.1851H21.8073C22.1614 65.5881 22.728 65.2239 23.4059 65.2239C23.4767 65.2239 23.5374 65.2239 23.6082 65.234V66.1446C23.4868 66.1345 23.3654 66.1244 23.2845 66.1244C22.3435 66.1244 21.7871 66.8427 21.7871 67.8342V70.2118H20.9676ZM28.7571 67.6622C28.7571 67.7937 28.7369 67.9354 28.7369 67.9961H24.8923C25.0036 68.9168 25.6511 69.5238 26.5819 69.5238C27.2395 69.5238 27.7049 69.2405 28.0084 68.8662L28.5851 69.3518C28.1602 69.8982 27.543 70.2725 26.5515 70.2725C25.0946 70.2725 24.0626 69.2608 24.0626 67.7533C24.0626 66.266 25.0845 65.2239 26.4908 65.2239C27.8364 65.2239 28.7571 66.2559 28.7571 67.6622ZM26.4807 65.9726C25.6915 65.9726 25.0643 66.4886 24.9125 67.3283H27.9376C27.8162 66.5189 27.2901 65.9726 26.4807 65.9726ZM31.2083 70.2118L29.2051 65.2846H30.0954L31.6029 69.1697H31.613L33.1205 65.2846H34.0007L31.9975 70.2118H31.2083ZM35.4731 64.3842C35.1392 64.3842 34.8762 64.1211 34.8762 63.7973C34.8762 63.4736 35.1392 63.2105 35.4731 63.2105C35.807 63.2105 36.07 63.4736 36.07 63.7973C36.07 64.1211 35.807 64.3842 35.4731 64.3842ZM35.0583 70.2118V65.2846H35.8778V70.2118H35.0583ZM41.8584 67.6622C41.8584 67.7937 41.8382 67.9354 41.8382 67.9961H37.9935C38.1048 68.9168 38.7523 69.5238 39.6831 69.5238C40.3408 69.5238 40.8062 69.2405 41.1097 68.8662L41.6864 69.3518C41.2615 69.8982 40.6443 70.2725 39.6528 70.2725C38.1959 70.2725 37.1639 69.2608 37.1639 67.7533C37.1639 66.266 38.1858 65.2239 39.5921 65.2239C40.9377 65.2239 41.8584 66.2559 41.8584 67.6622ZM39.582 65.9726C38.7928 65.9726 38.1655 66.4886 38.0138 67.3283H41.0389C40.9175 66.5189 40.3914 65.9726 39.582 65.9726ZM44.0268 70.2118L42.327 65.2846H43.1668L44.4112 68.9876H44.4315L45.5646 65.2846H46.2728L47.4262 68.9876H47.4465L48.6808 65.2846H49.5205L47.8208 70.2118H47.0519L45.9187 66.5999H45.9086L44.7755 70.2118H44.0268ZM51.9772 70.2725C51.1576 70.2725 50.5304 69.9892 50.0548 69.5744L50.4697 68.9471C50.8541 69.3215 51.2892 69.544 51.9772 69.544C52.5741 69.544 52.9181 69.2506 52.9181 68.8763C52.9181 68.4412 52.4628 68.3198 51.7445 68.0568C50.9452 67.7735 50.2673 67.4497 50.2673 66.5493C50.2673 65.7905 50.9553 65.2239 51.8861 65.2239C52.483 65.2239 53.0395 65.3858 53.5858 65.8309L53.1609 66.4785C52.736 66.0839 52.2807 65.9524 51.8558 65.9524C51.4713 65.9524 51.0969 66.1749 51.0969 66.5493C51.0969 66.9337 51.4915 67.126 52.0277 67.3182C53.0698 67.7229 53.7578 67.905 53.7477 68.8662C53.7477 69.6351 53.1609 70.2725 51.9772 70.2725Z" fill="#262626"/>
<defs>
<linearGradient id="paint0_linear_143_3047" x1="28.495" y1="8.80859" x2="9.21996" y2="8.80859" gradientUnits="userSpaceOnUse">
<stop stop-color="#FFE000"/>
<stop offset="0.41" stop-color="#FFBD00"/>
<stop offset="0.78" stop-color="#FFA500"/>
<stop offset="1" stop-color="#FF9C00"/>
</linearGradient>
</defs>
</svg>
