<svg width="134" height="93" viewBox="0 0 134 93" fill="none" xmlns="http://www.w3.org/2000/svg">
<path d="M46.9133 51.5602C47.0463 51.1509 47.6254 51.1509 47.7584 51.5602L49.2312 56.093C49.2907 56.2761 49.4613 56.4 49.6538 56.4H54.4199C54.8503 56.4 55.0292 56.9508 54.681 57.2038L50.8252 60.0052C50.6695 60.1184 50.6043 60.3189 50.6638 60.502L52.1366 65.0348C52.2696 65.4441 51.8011 65.7845 51.4528 65.5315L47.597 62.7301C47.4413 62.617 47.2304 62.617 47.0747 62.7301L43.2189 65.5315C42.8707 65.7845 42.4021 65.4441 42.5351 65.0348L44.0079 60.502C44.0674 60.3189 44.0023 60.1184 43.8465 60.0052L39.9907 57.2038C39.6425 56.9508 39.8214 56.4 40.2519 56.4H45.0179C45.2104 56.4 45.381 56.2761 45.4405 56.093L46.9133 51.5602Z" fill="white"/>
<path d="M66.227 51.5601C66.36 51.1508 66.9391 51.1508 67.0722 51.5601L68.5449 56.0929C68.6044 56.276 68.775 56.3999 68.9675 56.3999H73.7336C74.164 56.3999 74.343 56.9507 73.9947 57.2037L70.1389 60.0051C69.9832 60.1183 69.918 60.3188 69.9775 60.5019L71.4503 65.0347C71.5833 65.444 71.1148 65.7844 70.7666 65.5314L66.9107 62.73C66.755 62.6169 66.5441 62.6169 66.3884 62.73L62.5326 65.5314C62.1844 65.7844 61.7159 65.444 61.8489 65.0347L63.3217 60.5019C63.3811 60.3188 63.316 60.1183 63.1602 60.0051L59.3044 57.2037C58.9562 56.9507 59.1352 56.3999 59.5656 56.3999H64.3316C64.5241 56.3999 64.6947 56.276 64.7542 56.0929L66.227 51.5601Z" fill="white"/>
<path d="M85.5407 51.5601C85.6737 51.1508 86.2529 51.1508 86.3859 51.5601L87.8587 56.0929C87.9182 56.276 88.0887 56.3999 88.2812 56.3999H93.0473C93.4777 56.3999 93.6567 56.9507 93.3085 57.2037L89.4526 60.0051C89.2969 60.1183 89.2317 60.3188 89.2912 60.5019L90.764 65.0347C90.897 65.444 90.4285 65.7844 90.0803 65.5314L86.2245 62.73C86.0687 62.6169 85.8579 62.6169 85.7021 62.73L81.8463 65.5314C81.4981 65.7844 81.0296 65.444 81.1626 65.0347L82.6354 60.5019C82.6949 60.3188 82.6297 60.1183 82.474 60.0051L78.6181 57.2037C78.2699 56.9507 78.4489 56.3999 78.8793 56.3999H83.6454C83.8379 56.3999 84.0085 56.276 84.0679 56.0929L85.5407 51.5601Z" fill="white"/>
<path d="M104.854 51.5601C104.987 51.1508 105.567 51.1508 105.7 51.5601L107.172 56.0929C107.232 56.276 107.402 56.3999 107.595 56.3999H112.361C112.791 56.3999 112.97 56.9507 112.622 57.2037L108.766 60.0051C108.611 60.1183 108.545 60.3188 108.605 60.5019L110.078 65.0347C110.211 65.444 109.742 65.7844 109.394 65.5314L105.538 62.73C105.382 62.6169 105.172 62.6169 105.016 62.73L101.16 65.5314C100.812 65.7844 100.343 65.444 100.476 65.0347L101.949 60.5019C102.009 60.3188 101.943 60.1183 101.788 60.0051L97.9319 57.2037C97.5836 56.9507 97.7626 56.3999 98.193 56.3999H102.959C103.152 56.3999 103.322 56.276 103.382 56.0929L104.854 51.5601Z" fill="white"/>
<path fill-rule="evenodd" clip-rule="evenodd" d="M124 52.0147C123.967 52.0533 123.941 52.0999 123.923 52.1546L122.421 56.7777C122.367 56.9441 122.212 57.0568 122.037 57.0568H117.176C116.784 57.0568 116.622 57.5575 116.938 57.7875L120.871 60.6448C121.013 60.7476 121.072 60.9299 121.018 61.0964L119.516 65.7195C119.395 66.0916 119.821 66.4011 120.137 66.1711L124 63.3645V52.0147Z" fill="white"/>
<path d="M7.00544 66.5782V64.3145H1.19589V62.5916L7.50626 52.8156H9.68985V61.9906H11.5329V64.3145H9.68985V66.5782H7.00544ZM4.16076 62.1108H7.18573V57.2228L4.16076 62.1108ZM14.7072 66.7585C13.7856 66.7585 13.0444 66.0373 13.0444 65.1358C13.0444 64.2544 13.7856 63.5332 14.7072 63.5332C15.5886 63.5332 16.3298 64.2544 16.3298 65.1358C16.3298 66.0373 15.5886 66.7585 14.7072 66.7585ZM23.2723 57.7036C25.6162 57.7036 27.5594 59.3864 27.5594 62.1309C27.5594 64.8553 25.5561 66.7585 22.6513 66.7585C20.7682 66.7585 19.0454 66.0173 17.8835 64.5749L19.8467 63.0123C20.3876 63.7535 21.2891 64.2744 22.3909 64.2744C23.8533 64.2744 24.7948 63.3328 24.7948 62.0908C24.7948 60.6484 23.5528 59.9272 22.451 59.9272C21.6897 59.9272 21.0286 60.1075 20.3676 60.6284L18.9052 60.1075L19.3258 52.8156H26.8582V55.2996H21.7298L21.5695 57.9841C22.1905 57.8038 22.8116 57.7036 23.2723 57.7036Z" fill="white"/>
<path d="M1.02253 80.7765H6.60247V81.5493L3.03969 89.9323L1.93942 89.7096L5.37121 81.7851H1.02253V80.7765ZM10.7343 89.8537C8.87433 89.8537 7.57759 88.7666 7.57759 87.2995C7.57759 86.0945 8.3111 85.23 9.29348 84.9156V84.8894C8.66476 84.6536 8.02293 83.9463 8.02293 82.9901C8.02293 81.5493 9.20179 80.6979 10.7343 80.6979C12.3585 80.6979 13.4588 81.6148 13.4588 82.9901C13.4588 83.9594 12.8039 84.6798 12.1751 84.8894V84.9156C13.1706 85.2169 13.9041 86.0814 13.9041 87.2995C13.9041 88.8582 12.5026 89.8537 10.7343 89.8537ZM10.7343 84.431C11.7167 84.431 12.3978 83.907 12.3978 83.0818C12.3978 82.2566 11.6905 81.6803 10.7343 81.6803C9.72573 81.6803 9.08391 82.309 9.08391 83.0818C9.08391 83.907 9.76503 84.431 10.7343 84.431ZM10.7343 88.8582C11.9656 88.8582 12.7777 88.0854 12.7777 87.1816C12.7777 86.1469 11.9525 85.4527 10.7343 85.4527C9.50306 85.4527 8.70405 86.1469 8.70405 87.1816C8.70405 88.1509 9.59475 88.8582 10.7343 88.8582ZM15.4925 89.7751V80.1347H16.5535V86.8804L16.5666 86.8935L19.6971 83.3962H20.9808L18.5969 86.029L21.007 89.7751H19.7888L17.8633 86.7756L16.5535 88.1902V89.7751H15.4925ZM25.828 89.7751V83.3962H26.889V84.562H26.9152C27.3736 83.7891 28.1072 83.3176 28.9847 83.3176C29.0764 83.3176 29.155 83.3176 29.2467 83.3307V84.5096C29.0895 84.4965 28.9324 84.4834 28.8276 84.4834C27.6094 84.4834 26.889 85.4134 26.889 86.697V89.7751H25.828ZM35.9127 86.4743C35.9127 86.6446 35.8865 86.828 35.8865 86.9066H30.9091C31.0532 88.0985 31.8915 88.8844 33.0965 88.8844C33.9479 88.8844 34.5505 88.5177 34.9434 88.033L35.69 88.6618C35.1399 89.3691 34.3409 89.8537 33.0572 89.8537C31.1711 89.8537 29.835 88.5439 29.835 86.5922C29.835 84.6667 31.158 83.3176 32.9787 83.3176C34.7207 83.3176 35.9127 84.6536 35.9127 86.4743ZM32.9656 84.2869C31.9439 84.2869 31.1318 84.9549 30.9353 86.0421H34.8517C34.6945 84.9942 34.0134 84.2869 32.9656 84.2869ZM39.0861 89.7751L36.4926 83.3962H37.6453L39.5969 88.426H39.61L41.5617 83.3962H42.7013L40.1078 89.7751H39.0861ZM44.6075 82.2304C44.1753 82.2304 43.8347 81.8899 43.8347 81.4707C43.8347 81.0516 44.1753 80.711 44.6075 80.711C45.0398 80.711 45.3803 81.0516 45.3803 81.4707C45.3803 81.8899 45.0398 82.2304 44.6075 82.2304ZM44.0705 89.7751V83.3962H45.1314V89.7751H44.0705ZM52.8742 86.4743C52.8742 86.6446 52.848 86.828 52.848 86.9066H47.8706C48.0146 88.0985 48.8529 88.8844 50.058 88.8844C50.9094 88.8844 51.5119 88.5177 51.9049 88.033L52.6515 88.6618C52.1014 89.3691 51.3024 89.8537 50.0187 89.8537C48.1325 89.8537 46.7965 88.5439 46.7965 86.5922C46.7965 84.6667 48.1194 83.3176 49.9401 83.3176C51.6822 83.3176 52.8742 84.6536 52.8742 86.4743ZM49.927 84.2869C48.9053 84.2869 48.0932 84.9549 47.8968 86.0421H51.8132C51.656 84.9942 50.9749 84.2869 49.927 84.2869ZM55.6814 89.7751L53.4809 83.3962H54.5681L56.1792 88.1902H56.2054L57.6724 83.3962H58.5893L60.0825 88.1902H60.1087L61.7067 83.3962H62.7939L60.5934 89.7751H59.5979L58.1308 85.099H58.1177L56.6507 89.7751H55.6814ZM65.9744 89.8537C64.9134 89.8537 64.1013 89.487 63.4857 88.9499L64.0227 88.1378C64.5204 88.6225 65.0837 88.9106 65.9744 88.9106C66.7472 88.9106 67.1925 88.5308 67.1925 88.0461C67.1925 87.4829 66.6031 87.3257 65.6731 86.9852C64.6383 86.6184 63.7607 86.1993 63.7607 85.0335C63.7607 84.0511 64.6514 83.3176 65.8565 83.3176C66.6293 83.3176 67.3497 83.5272 68.057 84.1035L67.5069 84.9418C66.9567 84.431 66.3673 84.2607 65.8172 84.2607C65.3194 84.2607 64.8348 84.5489 64.8348 85.0335C64.8348 85.5312 65.3456 85.7801 66.0398 86.029C67.389 86.5529 68.2797 86.7887 68.2666 88.033C68.2666 89.0285 67.5069 89.8537 65.9744 89.8537Z" fill="white"/>
<rect x="0.985082" y="1.16419" width="128.985" height="33.7612" rx="3.02985" fill="black" stroke="#999999" stroke-width="0.865672"/>
<path d="M46.9028 9.85824C46.934 10.5317 46.6877 11.1885 46.2214 11.6753C45.7003 12.2167 44.9735 12.5107 44.2226 12.4839C43.467 12.4913 42.7403 12.1938 42.2068 11.6586C41.6733 11.1234 41.3781 10.3958 41.3879 9.64019C41.3781 8.8846 41.6733 8.15695 42.2068 7.62176C42.7403 7.08657 43.467 6.78904 44.2226 6.79645C44.6067 6.79517 44.987 6.87246 45.3401 7.02358C45.6689 7.15619 45.9615 7.36479 46.1941 7.63231L45.7126 8.11384C45.345 7.67653 44.7931 7.4376 44.2226 7.46877C43.6508 7.46604 43.1024 7.69574 42.7033 8.10518C42.3041 8.51461 42.0884 9.06865 42.1057 9.64019C42.0935 10.5062 42.6035 11.2945 43.3985 11.6383C44.1934 11.9821 45.1171 11.8139 45.7399 11.212C46.0194 10.909 46.1807 10.5156 46.1941 10.1036H44.2226V9.4494H46.8665C46.8907 9.58433 46.9029 9.72115 46.9028 9.85824Z" fill="white"/>
<path d="M51.0639 7.58697H48.6109V9.3132H50.8459V9.96736H48.6109V11.6936H51.0639V12.3659H47.884V6.91464H51.0639V7.58697Z" fill="white"/>
<path d="M54.0438 12.3659H53.3442V7.58697H51.8179V6.91464H55.6065V7.58697H54.0438V12.3659Z" fill="white"/>
<path d="M58.2776 12.3659V6.91464H58.9772V12.3659H58.2776Z" fill="white"/>
<path d="M62.0846 12.3659H61.385V7.58697H59.8586V6.91464H63.6019V7.58697H62.0846V12.3659Z" fill="white"/>
<path fill-rule="evenodd" clip-rule="evenodd" d="M65.9003 9.64031C65.8837 10.393 66.1721 11.1204 66.6999 11.6573C67.8056 12.7568 69.5918 12.7568 70.6975 11.6573C71.2253 11.1204 71.5136 10.393 71.497 9.64031C71.5136 8.88763 71.2253 8.16021 70.6975 7.62334C70.1687 7.0907 69.4492 6.79114 68.6987 6.79114C67.9481 6.79114 67.2286 7.0907 66.6999 7.62334C66.1721 8.16021 65.8837 8.88763 65.9003 9.64031ZM70.1796 11.2029C69.3607 12.0183 68.0366 12.0183 67.2177 11.2029C66.8102 10.7868 66.5903 10.2223 66.609 9.64017C66.5806 9.06329 66.7871 8.49951 67.1814 8.07747C68.0003 7.26199 69.3244 7.26199 70.1433 8.07747C70.5641 8.48743 70.7975 9.0527 70.7883 9.64017C70.807 10.2223 70.5872 10.7868 70.1796 11.2029Z" fill="white"/>
<path d="M72.4873 12.3659V6.91464H73.3413L75.9943 11.1576V10.1036V6.91464H76.6939V12.3659H75.967L73.1869 7.92313V8.97704V12.3659H72.4873Z" fill="white"/>
<path fill-rule="evenodd" clip-rule="evenodd" d="M47.1934 21.5058V23.1412H51.1183C51.0568 23.9115 50.7366 24.6383 50.2097 25.2036C49.4157 26.0124 48.3168 26.448 47.1843 26.4029C44.7758 26.4029 42.8233 24.4504 42.8233 22.0419C42.8233 19.6333 44.7758 17.6808 47.1843 17.6808C48.2907 17.6628 49.3591 18.0843 50.1552 18.8529L51.3091 17.699C50.2233 16.5995 48.7386 15.9866 47.1934 16C44.9938 15.9144 42.9236 17.0391 41.7983 18.931C40.673 20.823 40.673 23.179 41.7983 25.0709C42.9236 26.9628 44.9938 28.0875 47.1934 28.0019C48.7668 28.073 50.294 27.4601 51.3818 26.3211C52.3336 25.2753 52.8418 23.9005 52.7991 22.487C52.802 22.1427 52.7716 21.7989 52.7082 21.4604L47.1934 21.5058ZM57.2692 20.3157C55.1378 20.3207 53.4136 22.0517 53.4169 24.183C53.4203 26.3144 55.1499 28.04 57.2813 28.0383C59.4126 28.0366 61.1396 26.3083 61.1396 24.177C61.1545 23.1452 60.75 22.1516 60.0186 21.4236C59.2873 20.6957 58.2918 20.2958 57.2601 20.3157H57.2692ZM61.8846 24.189C61.8779 22.0589 63.5975 20.3257 65.7277 20.3157C66.7594 20.2958 67.7549 20.6957 68.4863 21.4236C69.2176 22.1516 69.6221 23.1452 69.6072 24.177C69.6072 26.3072 67.8821 28.0349 65.7519 28.0382C63.6217 28.0416 61.8912 26.3192 61.8846 24.189ZM63.4491 25.1931C63.864 26.0616 64.7676 26.5881 65.7277 26.521C66.3303 26.507 66.9018 26.2502 67.3123 25.8089C67.7229 25.3675 67.9378 24.779 67.9082 24.1769C67.9059 23.2145 67.3154 22.3513 66.4193 22.0001C65.5231 21.649 64.5034 21.8814 63.8479 22.5861C63.1924 23.2908 63.0342 24.3246 63.4491 25.1931ZM54.9845 25.2C55.4023 26.0679 56.3085 26.5918 57.2692 26.5209H57.2601C57.8627 26.5069 58.4341 26.2501 58.8447 25.8088C59.2553 25.3674 59.4701 24.7789 59.4406 24.1769C59.438 23.2136 58.8463 22.35 57.9491 21.9997C57.0518 21.6494 56.0315 21.8836 55.3769 22.5903C54.7223 23.2969 54.5667 24.3321 54.9845 25.2ZM85.0525 20.3155C86.5588 20.371 87.8745 21.3505 88.3596 22.7777L88.5504 23.1865L83.3807 25.3216C83.7048 26.0595 84.447 26.5243 85.2523 26.4936C86.0299 26.4956 86.7512 26.0884 87.1512 25.4215L88.4686 26.3301C87.7514 27.4035 86.5433 28.0451 85.2523 28.0382C84.2262 28.0532 83.238 27.6503 82.5149 26.9221C81.7918 26.1938 81.396 25.2029 81.4183 24.1768C81.3555 23.1743 81.7105 22.1905 82.3989 21.459C83.0874 20.7275 84.0479 20.3136 85.0525 20.3155ZM83.09 24.0679C83.0528 23.5002 83.2457 22.9414 83.6251 22.5175C84.0046 22.0937 84.5387 21.8403 85.107 21.8147C85.7061 21.7752 86.2709 22.097 86.5425 22.6324L83.09 24.0679ZM80.5915 27.811H78.8925V16.4542H80.5915V27.811ZM76.1124 21.1787H76.0488C75.5309 20.5996 74.7905 20.2691 74.0136 20.2701C71.9514 20.3701 70.3307 22.0713 70.3307 24.136C70.3307 26.2007 71.9514 27.9018 74.0136 28.0018C74.793 28.0149 75.5382 27.6823 76.0488 27.0933H76.1033V27.6475C76.1033 29.1284 75.3129 29.9189 74.0409 29.9189C73.1744 29.8986 72.4062 29.3565 72.0966 28.547L70.6157 29.1648C71.186 30.552 72.5411 31.4542 74.0409 31.4452C76.0306 31.4452 77.6751 30.2732 77.6751 27.4204V20.5427H76.1124V21.1787ZM74.1653 26.5207L74.1681 26.521H74.159L74.1653 26.5207ZM75.6962 25.7921C75.3063 26.2334 74.7534 26.4964 74.1653 26.5207C72.9518 26.4124 72.0215 25.3955 72.0215 24.1769C72.0215 22.9574 72.9533 21.94 74.1681 21.8329C74.7551 21.863 75.3051 22.1289 75.6934 22.5702C76.0817 23.0115 76.2753 23.5909 76.2305 24.1769C76.2806 24.7657 76.0875 25.3494 75.6962 25.7921ZM96.3184 16.4543H92.2481V27.8111H93.9471V23.5046H96.3184C97.6383 23.5994 98.9005 22.9491 99.5893 21.8192C100.278 20.6894 100.278 19.2695 99.5893 18.1397C98.9005 17.0099 97.6383 16.3595 96.3184 16.4543ZM93.9471 21.9056H96.3184L96.3548 21.9328C97.4311 21.9328 98.3036 21.0603 98.3036 19.984C98.3036 18.9077 97.4311 18.0352 96.3548 18.0352H93.9471V21.9056ZM106.794 20.2702C105.53 20.1946 104.342 20.8763 103.769 22.0055L105.277 22.6324C105.581 22.0724 106.186 21.7446 106.821 21.7965C107.257 21.7457 107.695 21.8719 108.036 22.147C108.378 22.422 108.595 22.8228 108.638 23.2593V23.3774C108.093 23.0885 107.484 22.9387 106.867 22.9413C105.24 22.9413 103.596 23.8499 103.596 25.4943C103.628 26.2027 103.946 26.8679 104.476 27.3385C105.007 27.8091 105.705 28.0451 106.412 27.9928C107.284 28.0554 108.12 27.6373 108.593 26.9026H108.647V27.8111H110.283V23.441C110.283 21.4513 108.775 20.2974 106.839 20.2974L106.794 20.2702ZM105.259 25.5307C105.259 26.2121 106.031 26.4937 106.585 26.4937L106.63 26.521C107.654 26.496 108.503 25.7209 108.62 24.7039C108.149 24.4408 107.615 24.309 107.076 24.3223C106.222 24.3223 105.259 24.6221 105.259 25.5307ZM116.243 20.5428L114.299 25.4671H114.244L112.227 20.5428H110.41L113.435 27.4295L111.709 31.2545H113.481L118.133 20.5428H116.243ZM102.669 27.811H100.97V16.4542H102.669V27.811Z" fill="white"/>
<path d="M13.3048 7.40518C13.0151 7.7632 12.8723 8.21782 12.905 8.67715V28.7742C12.8773 29.2359 13.0268 29.6908 13.3229 30.0461L13.3865 30.1097L24.6252 18.8619V18.5985L13.3683 7.34158L13.3048 7.40518Z" fill="#00D8FF"/>
<path d="M28.3503 22.6143L24.6252 18.862V18.5985L28.3503 14.8371L28.4321 14.8826L32.893 17.4174C34.165 18.1352 34.165 19.3163 32.893 20.0431L28.4502 22.5689L28.3503 22.6143Z" fill="url(#paint0_linear_510_114513)"/>
<path d="M28.4592 22.5688L24.6252 18.7257L13.3047 30.0462C13.8396 30.5164 14.6334 30.5393 15.1945 30.1007L28.4683 22.5597" fill="#F1324B"/>
<path d="M28.4593 14.8915L15.1854 7.35062C14.6243 6.91204 13.8305 6.93494 13.2957 7.40513L24.6252 18.7256L28.4593 14.8915Z" fill="#00F076"/>
<path opacity="0.2" d="M28.3502 22.478L15.1854 29.9735C14.6466 30.3763 13.907 30.3763 13.3683 29.9735L13.3047 30.0371L13.3683 30.1007C13.906 30.5065 14.6477 30.5065 15.1854 30.1007L28.4592 22.5598L28.3502 22.478Z" fill="black"/>
<path d="M13.3047 29.9191C13.0086 29.5637 12.8591 29.1088 12.8868 28.6471V28.7834C12.8591 29.2451 13.0086 29.7 13.3047 30.0554L13.3683 29.9918L13.3047 29.9191Z" fill="black"/>
<path d="M32.8928 19.9068L28.3501 22.478L28.4319 22.5597L32.8928 20.034C33.408 19.792 33.7546 19.293 33.8014 18.7257C33.6978 19.2389 33.3623 19.6751 32.8928 19.9068Z" fill="black"/>
<path d="M15.1855 7.47792L32.893 17.5446C33.3625 17.7763 33.698 18.2125 33.8016 18.7257C33.7548 18.1584 33.4082 17.6594 32.893 17.4174L15.1855 7.35072C13.9226 6.62389 12.905 7.22353 12.905 8.6772V8.81348C12.905 7.35981 13.9226 6.76017 15.1855 7.47792Z" fill="black"/>
<defs>
<linearGradient id="paint0_linear_510_114513" x1="34.5556" y1="9.45826" x2="12.5779" y2="9.45826" gradientUnits="userSpaceOnUse">
<stop stop-color="#FFE000"/>
<stop offset="0.41" stop-color="#FFBD00"/>
<stop offset="0.78" stop-color="#FFA500"/>
<stop offset="1" stop-color="#FF9C00"/>
</linearGradient>
</defs>
</svg>
