<svg width="110" height="73" viewBox="0 0 110 73" fill="none" xmlns="http://www.w3.org/2000/svg">
<rect x="1.14023" y="0.601591" width="108.367" height="32.6695" rx="4.3825" fill="black" stroke="#999999" stroke-width="0.796818"/>
<path fill-rule="evenodd" clip-rule="evenodd" d="M5.52273 1H105.125C107.325 1 109.109 2.78374 109.109 4.98409V28.8886C109.109 31.089 107.325 32.8727 105.125 32.8727H5.52273C3.32237 32.8727 1.53864 31.089 1.53864 28.8886V4.98409C1.53864 2.78374 3.32237 1 5.52273 1ZM108.472 4.98415C108.472 3.13586 106.973 1.63752 105.125 1.63752H5.52273C3.67443 1.63752 2.17609 3.13586 2.17609 4.98415V28.8887C2.17609 30.737 3.67443 32.2353 5.52273 32.2353H105.125C106.973 32.2353 108.472 30.737 108.472 28.8887V4.98415Z" fill="black"/>
<path d="M39.3237 9.15946C39.3511 9.75008 39.1351 10.3261 38.7261 10.7531C38.2691 11.2278 37.6317 11.4857 36.9731 11.4623C36.3104 11.4688 35.6731 11.2078 35.2052 10.7384C34.7373 10.2691 34.4784 9.6309 34.4871 8.96822C34.4784 8.30554 34.7373 7.66737 35.2052 7.198C35.6731 6.72863 36.3104 6.46769 36.9731 6.47418C37.31 6.47306 37.6435 6.54085 37.9532 6.67338C38.2415 6.78968 38.4982 6.97263 38.7022 7.20725L38.2799 7.62956C37.9575 7.24604 37.4734 7.03648 36.9731 7.06382C36.4716 7.06143 35.9907 7.26289 35.6406 7.62197C35.2906 7.98106 35.1014 8.46696 35.1165 8.96822C35.1059 9.72774 35.5532 10.4191 36.2504 10.7206C36.9475 11.0222 37.7577 10.8746 38.3038 10.3467C38.549 10.081 38.6904 9.73595 38.7022 9.3746H36.9731V8.80089H39.2919C39.3131 8.91923 39.3238 9.03922 39.3237 9.15946Z" fill="white"/>
<path d="M42.9732 7.16734H40.8218V8.6813H42.7819V9.25501H40.8218V10.769H42.9732V11.3586H40.1843V6.5777H42.9732V7.16734Z" fill="white"/>
<path d="M45.5867 11.3586H44.9732V7.16734H43.6345V6.5777H46.9573V7.16734H45.5867V11.3586Z" fill="white"/>
<path d="M49.2999 11.3586V6.5777H49.9135V11.3586H49.2999Z" fill="white"/>
<path d="M52.6386 11.3586H52.025V7.16734H50.6864V6.5777H53.9693V7.16734H52.6386V11.3586Z" fill="white"/>
<path fill-rule="evenodd" clip-rule="evenodd" d="M55.9852 8.96816C55.9706 9.62827 56.2235 10.2662 56.6864 10.7371C57.6562 11.7014 59.2227 11.7014 60.1924 10.7371C60.6553 10.2662 60.9082 9.62827 60.8936 8.96816C60.9082 8.30804 60.6553 7.67007 60.1924 7.19922C59.7287 6.73208 59.0977 6.46936 58.4394 6.46936C57.7812 6.46936 57.1502 6.73208 56.6864 7.19922C56.2235 7.67007 55.9706 8.30804 55.9852 8.96816ZM59.7382 10.3387C59.02 11.0539 57.8588 11.0539 57.1406 10.3387C56.7832 9.97382 56.5903 9.47873 56.6067 8.96819C56.5818 8.46226 56.7629 7.96781 57.1087 7.59767C57.8269 6.88247 58.9882 6.88247 59.7064 7.59767C60.0755 7.95721 60.2801 8.45297 60.2721 8.96819C60.2885 9.47873 60.0957 9.97382 59.7382 10.3387Z" fill="white"/>
<path d="M61.7622 11.3586V6.5777H62.5112L64.8379 10.2988V9.37453V6.5777H65.4514V11.3586H64.814L62.3757 7.46217V8.38647V11.3586H61.7622Z" fill="white"/>
<path fill-rule="evenodd" clip-rule="evenodd" d="M39.5787 19.3746V20.8089H43.021C42.967 21.4845 42.6862 22.1219 42.2242 22.6177C41.5278 23.327 40.564 23.7091 39.5708 23.6695C37.4584 23.6695 35.746 21.9571 35.746 19.8448C35.746 17.7324 37.4584 16.02 39.5708 16.02C40.5411 16.0042 41.4782 16.3739 42.1764 17.0479L43.1883 16.036C42.2361 15.0717 40.9339 14.5342 39.5787 14.5459C37.6496 14.4709 35.834 15.4572 34.8471 17.1165C33.8602 18.7758 33.8602 20.842 34.8471 22.5013C35.834 24.1606 37.6496 25.147 39.5787 25.0719C40.9586 25.1343 42.2981 24.5967 43.2521 23.5978C44.0869 22.6806 44.5326 21.4749 44.4951 20.2352C44.4977 19.9332 44.471 19.6317 44.4154 19.3348L39.5787 19.3746ZM48.4154 18.3308C46.5462 18.3352 45.034 19.8533 45.0369 21.7226C45.0399 23.5918 46.5568 25.1052 48.4261 25.1037C50.2953 25.1023 51.8099 23.5865 51.8099 21.7173C51.823 20.8124 51.4682 19.9409 50.8268 19.3025C50.1854 18.6641 49.3123 18.3134 48.4075 18.3308H48.4154ZM52.4633 21.7278C52.4574 19.8596 53.9656 18.3396 55.8338 18.3308C56.7386 18.3134 57.6117 18.6641 58.2532 19.3025C58.8946 19.9409 59.2494 20.8124 59.2362 21.7173C59.2362 23.5855 57.7233 25.1008 55.855 25.1037C53.9868 25.1066 52.4691 23.5961 52.4633 21.7278ZM53.8354 22.6084C54.1993 23.3701 54.9918 23.8319 55.8338 23.773C56.3623 23.7607 56.8635 23.5355 57.2236 23.1484C57.5837 22.7613 57.7721 22.2452 57.7462 21.7172C57.7441 20.8731 57.2263 20.116 56.4403 19.8081C55.6544 19.5002 54.7601 19.704 54.1852 20.322C53.6102 20.9401 53.4715 21.8467 53.8354 22.6084ZM46.4117 22.6145C46.7782 23.3757 47.5729 23.8352 48.4154 23.773H48.4075C48.936 23.7607 49.4372 23.5355 49.7972 23.1484C50.1573 22.7614 50.3458 22.2452 50.3198 21.7172C50.3175 20.8724 49.7987 20.115 49.0117 19.8078C48.2248 19.5005 47.33 19.706 46.7559 20.3257C46.1818 20.9455 46.0453 21.8533 46.4117 22.6145ZM72.7821 18.3308C74.1032 18.3794 75.2571 19.2385 75.6826 20.4901L75.8499 20.8487L71.316 22.7212C71.6002 23.3684 72.2511 23.776 72.9574 23.7491C73.6394 23.7509 74.272 23.3937 74.6228 22.8089L75.7782 23.6057C75.1492 24.5471 74.0896 25.1098 72.9574 25.1037C72.0575 25.1169 71.1908 24.7636 70.5567 24.1249C69.9225 23.4862 69.5753 22.6171 69.5949 21.7172C69.5398 20.838 69.8511 19.9751 70.4549 19.3336C71.0587 18.692 71.9011 18.329 72.7821 18.3308ZM71.061 21.6217C71.0284 21.1238 71.1975 20.6337 71.5303 20.262C71.8631 19.8902 72.3315 19.6681 72.8299 19.6456C73.3553 19.6109 73.8507 19.8931 74.0889 20.3627L71.061 21.6217ZM68.8698 24.9045H67.3797V14.9443H68.8698V24.9045ZM64.9415 19.0878H64.8857C64.4315 18.58 63.7821 18.2901 63.1008 18.291C61.2921 18.3787 59.8708 19.8707 59.8708 21.6814C59.8708 23.4922 61.2921 24.9842 63.1008 25.0719C63.7843 25.0834 64.4379 24.7916 64.8857 24.2751H64.9335V24.7611C64.9335 26.06 64.2402 26.7532 63.1247 26.7532C62.3648 26.7354 61.691 26.26 61.4195 25.55L60.1207 26.0918C60.6208 27.3084 61.8093 28.0997 63.1247 28.0918C64.8697 28.0918 66.312 27.0639 66.312 24.5619V18.53H64.9415V19.0878ZM63.2338 23.7728L63.2363 23.7731H63.2283L63.2338 23.7728ZM64.5765 23.1338C64.2345 23.5208 63.7496 23.7515 63.2338 23.7728C62.1696 23.6778 61.3537 22.786 61.3537 21.7173C61.3537 20.6477 62.1708 19.7554 63.2363 19.6615C63.7511 19.6879 64.2335 19.9211 64.574 20.3081C64.9145 20.6951 65.0844 21.2033 65.045 21.7173C65.089 22.2336 64.9197 22.7455 64.5765 23.1338ZM82.6627 14.9443H79.0929V24.9045H80.583V21.1276H82.6627C83.8202 21.2108 84.9272 20.6404 85.5313 19.6495C86.1354 18.6586 86.1354 17.4133 85.5313 16.4224C84.9272 15.4315 83.8202 14.8611 82.6627 14.9443ZM80.583 19.7252H82.6627L82.6946 19.7491C83.6385 19.7491 84.4037 18.9839 84.4037 18.0399C84.4037 17.096 83.6385 16.3307 82.6946 16.3307H80.583V19.7252ZM91.85 18.2909C90.7414 18.2246 89.6991 18.8225 89.1966 19.8128L90.5193 20.3626C90.7858 19.8715 91.317 19.584 91.8739 19.6296C92.256 19.5849 92.64 19.6957 92.9397 19.9369C93.2393 20.1781 93.4295 20.5296 93.4675 20.9124V21.016C92.989 20.7626 92.4553 20.6313 91.9137 20.6336C90.4874 20.6336 89.0452 21.4304 89.0452 22.8726C89.0736 23.4939 89.3522 24.0773 89.8174 24.49C90.2827 24.9027 90.8951 25.1097 91.5153 25.0639C92.2797 25.1188 93.013 24.7521 93.4277 24.1077H93.4755V24.9045H94.9098V21.0718C94.9098 19.3268 93.5871 18.3148 91.8898 18.3148L91.85 18.2909ZM90.5034 22.9045C90.5034 23.5022 91.1807 23.7492 91.6667 23.7492L91.7066 23.7731C92.6042 23.7512 93.3486 23.0714 93.4516 22.1794C93.0382 21.9487 92.5704 21.8331 92.097 21.8448C91.348 21.8448 90.5034 22.1077 90.5034 22.9045ZM100.137 18.53L98.4317 22.8487H98.3839L96.615 18.53H95.0213L97.6747 24.5698L96.1608 27.9244H97.7146L101.794 18.53H100.137ZM88.2324 24.9045H86.7424V14.9443H88.2324V24.9045Z" fill="white"/>
<path d="M9.85741 7.00799C9.60342 7.32198 9.47811 7.72069 9.50681 8.12353V25.7491C9.48255 26.1541 9.61364 26.5531 9.87335 26.8647L9.92913 26.9205L19.7858 17.0559V16.8248L9.91319 6.95221L9.85741 7.00799Z" fill="#00D8FF"/>
<path d="M23.0527 20.3467L19.7858 17.0558V16.8248L23.0527 13.5259L23.1244 13.5658L27.0368 15.7889C28.1524 16.4184 28.1524 17.4543 27.0368 18.0917L23.1404 20.3069L23.0527 20.3467Z" fill="url(#paint0_linear_601_16009)"/>
<path d="M23.1483 20.3069L19.7858 16.9363L9.85742 26.8647C10.3265 27.2771 11.0227 27.2971 11.5148 26.9125L23.1563 20.2989" fill="#F1324B"/>
<path d="M23.1483 13.5738L11.5068 6.96021C11.0147 6.57557 10.3185 6.59565 9.84944 7.00802L19.7858 16.9364L23.1483 13.5738Z" fill="#00F076"/>
<path opacity="0.2" d="M23.0527 20.2272L11.5068 26.801C11.0343 27.1542 10.3857 27.1542 9.9132 26.801L9.85742 26.8568L9.9132 26.9125C10.3848 27.2685 11.0352 27.2685 11.5068 26.9125L23.1483 20.2989L23.0527 20.2272Z" fill="black"/>
<path d="M9.85742 26.7532C9.59771 26.4415 9.46662 26.0426 9.49088 25.6376V25.7572C9.46662 26.1621 9.59771 26.5611 9.85742 26.8727L9.9132 26.8169L9.85742 26.7532Z" fill="black"/>
<path d="M27.0368 17.9722L23.0527 20.2272L23.1244 20.2989L27.0368 18.0838C27.4887 17.8715 27.7926 17.4339 27.8336 16.9363C27.7428 17.3864 27.4485 17.769 27.0368 17.9722Z" fill="black"/>
<path d="M11.5068 7.07176L27.0368 15.9005C27.4485 16.1037 27.7428 16.4863 27.8336 16.9364C27.7926 16.4388 27.4887 16.0012 27.0368 15.789L11.5068 6.96021C10.3993 6.32275 9.50682 6.84865 9.50682 8.12356V8.24308C9.50682 6.96817 10.3993 6.44227 11.5068 7.07176Z" fill="black"/>
<path d="M37.2541 43.8772C37.3568 43.561 37.8042 43.561 37.9069 43.8772L39.0445 47.3784C39.0905 47.5198 39.2222 47.6156 39.3709 47.6156H43.0523C43.3847 47.6156 43.523 48.041 43.254 48.2364L40.2757 50.4003C40.1554 50.4877 40.1051 50.6426 40.151 50.784L41.2887 54.2852C41.3914 54.6014 41.0295 54.8643 40.7605 54.6689L37.7822 52.505C37.662 52.4176 37.4991 52.4176 37.3788 52.505L34.4005 54.6689C34.1315 54.8643 33.7696 54.6014 33.8724 54.2852L35.01 50.784C35.0559 50.6426 35.0056 50.4877 34.8853 50.4003L31.907 48.2364C31.638 48.041 31.7763 47.6156 32.1087 47.6156H35.7901C35.9388 47.6156 36.0706 47.5198 36.1165 47.3784L37.2541 43.8772Z" fill="#2945FF"/>
<path d="M52.1723 43.8772C52.2751 43.561 52.7224 43.561 52.8251 43.8772L53.9627 47.3784C54.0087 47.5198 54.1404 47.6156 54.2891 47.6156H57.9705C58.303 47.6156 58.4412 48.041 58.1722 48.2364L55.1939 50.4003C55.0736 50.4877 55.0233 50.6426 55.0693 50.784L56.2069 54.2852C56.3096 54.6014 55.9477 54.8643 55.6787 54.6689L52.7005 52.505C52.5802 52.4176 52.4173 52.4176 52.297 52.505L49.3187 54.6689C49.0497 54.8643 48.6878 54.6014 48.7906 54.2852L49.9282 50.784C49.9741 50.6426 49.9238 50.4877 49.8035 50.4003L46.8252 48.2364C46.5563 48.041 46.6945 47.6156 47.027 47.6156H50.7083C50.857 47.6156 50.9888 47.5198 51.0347 47.3784L52.1723 43.8772Z" fill="#2945FF"/>
<path d="M67.0906 43.8772C67.1933 43.561 67.6406 43.561 67.7434 43.8772L68.881 47.3784C68.9269 47.5198 69.0587 47.6156 69.2074 47.6156H72.8887C73.2212 47.6156 73.3594 48.041 73.0905 48.2364L70.1122 50.4003C69.9919 50.4877 69.9415 50.6426 69.9875 50.784L71.1251 54.2852C71.2278 54.6014 70.8659 54.8643 70.597 54.6689L67.6187 52.505C67.4984 52.4176 67.3355 52.4176 67.2152 52.505L64.2369 54.6689C63.968 54.8643 63.6061 54.6014 63.7088 54.2852L64.8464 50.784C64.8924 50.6426 64.842 50.4877 64.7217 50.4003L61.7435 48.2364C61.4745 48.041 61.6127 47.6156 61.9452 47.6156H65.6265C65.7752 47.6156 65.907 47.5198 65.9529 47.3784L67.0906 43.8772Z" fill="#2945FF"/>
<path d="M82.0088 43.8772C82.1115 43.561 82.5588 43.561 82.6616 43.8772L83.7992 47.3784C83.8451 47.5198 83.9769 47.6156 84.1256 47.6156H87.807C88.1394 47.6156 88.2776 48.041 88.0087 48.2364L85.0304 50.4003C84.9101 50.4877 84.8598 50.6426 84.9057 50.784L86.0433 54.2852C86.1461 54.6014 85.7842 54.8643 85.5152 54.6689L82.5369 52.505C82.4166 52.4176 82.2537 52.4176 82.1335 52.505L79.1552 54.6689C78.8862 54.8643 78.5243 54.6014 78.627 54.2852L79.7646 50.784C79.8106 50.6426 79.7603 50.4877 79.64 50.4003L76.6617 48.2364C76.3927 48.041 76.5309 47.6156 76.8634 47.6156H80.5448C80.6935 47.6156 80.8252 47.5198 80.8712 47.3784L82.0088 43.8772Z" fill="#2945FF"/>
<path fill-rule="evenodd" clip-rule="evenodd" d="M96.9758 44.126C96.872 44.1451 96.777 44.2152 96.7377 44.3363L95.5774 47.9073C95.5356 48.0358 95.4158 48.1229 95.2807 48.1229H91.5259C91.2237 48.1229 91.098 48.5096 91.3426 48.6873L94.3802 50.8942C94.4896 50.9737 94.5353 51.1145 94.4935 51.2431L93.3333 54.814C93.2399 55.1015 93.5689 55.3405 93.8134 55.1629L96.851 52.9559C96.889 52.9283 96.9317 52.9103 96.9758 52.9018V44.126Z" fill="#2945FF"/>
<path d="M6.42877 55.1187H8.50225V53.3701H9.92583V51.5752H8.50225V44.4882H6.81561L1.9414 52.0394V53.3701H6.42877V55.1187ZM4.2315 51.668L6.56803 47.8924V51.668H4.2315ZM12.3777 55.2579C13.0585 55.2579 13.6311 54.7009 13.6311 54.0045C13.6311 53.3237 13.0585 52.7666 12.3777 52.7666C11.6659 52.7666 11.0934 53.3237 11.0934 54.0045C11.0934 54.7009 11.6659 55.2579 12.3777 55.2579ZM18.9935 48.2638C18.6376 48.2638 18.158 48.3412 17.6783 48.4804L17.8021 46.407H21.7633V44.4882H15.9452L15.6203 50.1206L16.7499 50.523C17.2605 50.1206 17.7711 49.9814 18.3591 49.9814C19.2102 49.9814 20.1695 50.5384 20.1695 51.6525C20.1695 52.6119 19.4423 53.3392 18.3127 53.3392C17.4616 53.3392 16.7653 52.9369 16.3475 52.3643L14.8311 53.5713C15.7286 54.6854 17.0593 55.2579 18.5139 55.2579C20.7575 55.2579 22.3049 53.7879 22.3049 51.6835C22.3049 49.5636 20.804 48.2638 18.9935 48.2638Z" fill="black"/>
<path d="M4.77188 65.8309C4.10413 65.8309 3.49708 66.0636 3.06203 66.4481C3.45661 64.9305 4.61 64.0908 5.87467 63.767L5.62174 63.0487C3.79049 63.3825 2.09076 65.0823 2.09076 67.5509C2.09076 69.2 3.15309 70.2725 4.52906 70.2725C5.91514 70.2725 6.937 69.3113 6.937 68.0365C6.937 66.6505 6.02644 65.8309 4.77188 65.8309ZM4.57964 69.4833C3.65896 69.4833 2.92039 68.7346 2.92039 67.642V67.5813C3.23403 67.0754 3.81072 66.61 4.57964 66.61C5.49021 66.61 6.08714 67.1867 6.08714 68.0264C6.08714 68.8156 5.49021 69.4833 4.57964 69.4833ZM10.6408 65.8309C9.97302 65.8309 9.36598 66.0636 8.93093 66.4481C9.32551 64.9305 10.4789 64.0908 11.7436 63.767L11.4906 63.0487C9.65938 63.3825 7.95965 65.0823 7.95965 67.5509C7.95965 69.2 9.02198 70.2725 10.398 70.2725C11.784 70.2725 12.8059 69.3113 12.8059 68.0365C12.8059 66.6505 11.8953 65.8309 10.6408 65.8309ZM10.4485 69.4833C9.52785 69.4833 8.78928 68.7346 8.78928 67.642V67.5813C9.10292 67.0754 9.67962 66.61 10.4485 66.61C11.3591 66.61 11.956 67.1867 11.956 68.0264C11.956 68.8156 11.3591 69.4833 10.4485 69.4833ZM14.0612 70.2118H14.8808V68.9876L15.8925 67.8949L17.3798 70.2118H18.3207L16.4591 67.3182L18.3004 65.2846H17.3089L14.8909 67.986L14.8808 67.9758V62.7654H14.0612V70.2118ZM22.0445 70.2118H22.864V67.8342C22.864 66.8427 23.4205 66.1244 24.3614 66.1244C24.4424 66.1244 24.5638 66.1345 24.6852 66.1446V65.234C24.6144 65.2239 24.5536 65.2239 24.4828 65.2239C23.805 65.2239 23.2384 65.5881 22.8843 66.1851H22.864V65.2846H22.0445V70.2118ZM29.8341 67.6622C29.8341 66.2559 28.9134 65.2239 27.5678 65.2239C26.1614 65.2239 25.1396 66.266 25.1396 67.7533C25.1396 69.2608 26.1716 70.2725 27.6285 70.2725C28.62 70.2725 29.2371 69.8982 29.6621 69.3518L29.0854 68.8662C28.7819 69.2405 28.3165 69.5238 27.6588 69.5238C26.728 69.5238 26.0805 68.9168 25.9692 67.9961H29.8138C29.8138 67.9354 29.8341 67.7937 29.8341 67.6622ZM27.5577 65.9726C28.367 65.9726 28.8932 66.5189 29.0146 67.3283H25.9895C26.1412 66.4886 26.7685 65.9726 27.5577 65.9726ZM32.2853 70.2118H33.0744L35.0777 65.2846H34.1974L32.69 69.1697H32.6798L31.1723 65.2846H30.282L32.2853 70.2118ZM36.5501 64.3842C36.8839 64.3842 37.147 64.1211 37.147 63.7973C37.147 63.4736 36.8839 63.2105 36.5501 63.2105C36.2162 63.2105 35.9531 63.4736 35.9531 63.7973C35.9531 64.1211 36.2162 64.3842 36.5501 64.3842ZM36.1353 70.2118H36.9548V65.2846H36.1353V70.2118ZM42.9353 67.6622C42.9353 66.2559 42.0147 65.2239 40.669 65.2239C39.2627 65.2239 38.2409 66.266 38.2409 67.7533C38.2409 69.2608 39.2728 70.2725 40.7297 70.2725C41.7213 70.2725 42.3384 69.8982 42.7633 69.3518L42.1867 68.8662C41.8831 69.2405 41.4177 69.5238 40.7601 69.5238C39.8293 69.5238 39.1818 68.9168 39.0705 67.9961H42.9151C42.9151 67.9354 42.9353 67.7937 42.9353 67.6622ZM40.6589 65.9726C41.4683 65.9726 41.9944 66.5189 42.1158 67.3283H39.0907C39.2425 66.4886 39.8698 65.9726 40.6589 65.9726ZM45.1037 70.2118H45.8524L46.9856 66.5999H46.9957L48.1288 70.2118H48.8977L50.5975 65.2846H49.7577L48.5234 68.9876H48.5032L47.3498 65.2846H46.6416L45.5084 68.9876H45.4882L44.2437 65.2846H43.404L45.1037 70.2118ZM53.0541 70.2725C54.2378 70.2725 54.8247 69.6351 54.8247 68.8662C54.8348 67.905 54.1468 67.7229 53.1047 67.3182C52.5685 67.126 52.1739 66.9337 52.1739 66.5493C52.1739 66.1749 52.5482 65.9524 52.9327 65.9524C53.3576 65.9524 53.8129 66.0839 54.2378 66.4785L54.6628 65.8309C54.1164 65.3858 53.56 65.2239 52.9631 65.2239C52.0322 65.2239 51.3443 65.7905 51.3443 66.5493C51.3443 67.4497 52.0221 67.7735 52.8214 68.0568C53.5397 68.3198 53.995 68.4412 53.995 68.8763C53.995 69.2506 53.651 69.544 53.0541 69.544C52.3661 69.544 51.9311 69.3215 51.5466 68.9471L51.1318 69.5744C51.6073 69.9892 52.2346 70.2725 53.0541 70.2725Z" fill="#262626"/>
<defs>
<linearGradient id="paint0_linear_601_16009" x1="28.495" y1="8.80853" x2="9.21996" y2="8.80853" gradientUnits="userSpaceOnUse">
<stop stop-color="#FFE000"/>
<stop offset="0.41" stop-color="#FFBD00"/>
<stop offset="0.78" stop-color="#FFA500"/>
<stop offset="1" stop-color="#FF9C00"/>
</linearGradient>
</defs>
</svg>
