<svg width="136" height="82" viewBox="0 0 136 82" fill="none" xmlns="http://www.w3.org/2000/svg">
<path d="M47.7256 44.3184C47.8604 43.9034 48.4475 43.9034 48.5824 44.3184L50.0755 48.9137C50.1358 49.0993 50.3088 49.225 50.5039 49.225L55.3357 49.225C55.772 49.225 55.9535 49.7834 55.6005 50.0399L51.6915 52.8799C51.5336 52.9946 51.4675 53.1979 51.5278 53.3835L53.0209 57.9788C53.1558 58.3938 52.6808 58.7389 52.3278 58.4825L48.4188 55.6424C48.2609 55.5277 48.0471 55.5277 47.8892 55.6424L43.9802 58.4825C43.6272 58.7389 43.1522 58.3939 43.2871 57.9788L44.7802 53.3835C44.8405 53.1979 44.7744 52.9946 44.6165 52.8799L40.7075 50.0399C40.3545 49.7834 40.5359 49.225 40.9723 49.225L45.8041 49.225C45.9992 49.225 46.1722 49.0993 46.2325 48.9137L47.7256 44.3184Z" fill="white"/>
<path d="M67.3058 44.3184C67.4406 43.9034 68.0277 43.9034 68.1626 44.3184L69.6557 48.9137C69.716 49.0993 69.889 49.225 70.0841 49.225L74.9159 49.225C75.3522 49.225 75.5337 49.7833 75.1807 50.0398L71.2717 52.8799C71.1138 52.9946 71.0477 53.1979 71.108 53.3835L72.6011 57.9788C72.736 58.3938 72.261 58.7389 71.908 58.4824L67.999 55.6424C67.8411 55.5277 67.6273 55.5277 67.4694 55.6424L63.5604 58.4824C63.2074 58.7389 62.7324 58.3938 62.8673 57.9788L64.3604 53.3835C64.4207 53.1979 64.3546 52.9946 64.1967 52.8799L60.2877 50.0398C59.9347 49.7833 60.1161 49.225 60.5525 49.225L65.3843 49.225C65.5794 49.225 65.7524 49.0993 65.8127 48.9137L67.3058 44.3184Z" fill="white"/>
<path d="M86.8859 44.3184C87.0207 43.9034 87.6078 43.9034 87.7427 44.3184L89.2358 48.9137C89.2961 49.0993 89.469 49.225 89.6642 49.225L94.496 49.225C94.9323 49.225 95.1138 49.7833 94.7607 50.0398L90.8517 52.8799C90.6939 52.9946 90.6278 53.1979 90.6881 53.3835L92.1812 57.9788C92.316 58.3938 91.8411 58.7389 91.488 58.4824L87.579 55.6424C87.4212 55.5277 87.2074 55.5277 87.0495 55.6424L83.1405 58.4824C82.7875 58.7389 82.3125 58.3938 82.4473 57.9788L83.9404 53.3835C84.0007 53.1979 83.9347 52.9946 83.7768 52.8799L79.8678 50.0398C79.5148 49.7833 79.6962 49.225 80.1326 49.225L84.9644 49.225C85.1595 49.225 85.3325 49.0993 85.3928 48.9137L86.8859 44.3184Z" fill="white"/>
<path d="M106.466 44.3184C106.601 43.9034 107.188 43.9034 107.323 44.3184L108.816 48.9137C108.876 49.0993 109.049 49.225 109.244 49.225L114.076 49.225C114.513 49.225 114.694 49.7833 114.341 50.0398L110.432 52.8799C110.274 52.9946 110.208 53.1979 110.268 53.3835L111.761 57.9788C111.896 58.3938 111.421 58.7389 111.068 58.4824L107.159 55.6424C107.001 55.5277 106.788 55.5277 106.63 55.6424L102.721 58.4824C102.368 58.7389 101.893 58.3938 102.028 57.9788L103.521 53.3835C103.581 53.1979 103.515 52.9946 103.357 52.8799L99.448 50.0398C99.095 49.7833 99.2764 49.225 99.7128 49.225L104.545 49.225C104.74 49.225 104.913 49.0993 104.973 48.9137L106.466 44.3184Z" fill="white"/>
<path fill-rule="evenodd" clip-rule="evenodd" d="M126 44.6816C125.91 44.7266 125.835 44.8063 125.798 44.9208L124.275 49.6077C124.22 49.7764 124.063 49.8907 123.885 49.8907H118.957C118.561 49.8907 118.396 50.3983 118.717 50.6315L122.704 53.5281C122.847 53.6324 122.907 53.8172 122.852 53.986L121.33 58.6729C121.207 59.0501 121.639 59.3639 121.96 59.1307L125.947 56.234C125.964 56.2216 125.982 56.2106 126 56.2011V44.6816Z" fill="white"/>
<path d="M7.26753 59.3228V57.0279H1.37785V55.2813L7.77526 45.3704H9.98897V54.672H11.8574V57.0279H9.98897V59.3228H7.26753ZM4.38362 54.7939H7.45031V49.8384L4.38362 54.7939ZM15.0755 59.5056C14.1413 59.5056 13.3898 58.7745 13.3898 57.8606C13.3898 56.967 14.1413 56.2358 15.0755 56.2358C15.9691 56.2358 16.7205 56.967 16.7205 57.8606C16.7205 58.7745 15.9691 59.5056 15.0755 59.5056ZM23.7588 50.3258C26.135 50.3258 28.105 52.0318 28.105 54.8142C28.105 57.5762 26.074 59.5056 23.1292 59.5056C21.2201 59.5056 19.4735 58.7542 18.2956 57.2919L20.2859 55.7078C20.8343 56.4592 21.7482 56.9873 22.8652 56.9873C24.3478 56.9873 25.3023 56.0327 25.3023 54.7736C25.3023 53.3113 24.0431 52.5802 22.9261 52.5802C22.1544 52.5802 21.4841 52.7629 20.8139 53.291L19.3314 52.7629L19.7579 45.3704H27.3941V47.8887H22.195L22.0325 50.6102C22.6621 50.4274 23.2917 50.3258 23.7588 50.3258Z" fill="white"/>
<path d="M1.2021 68.8951H6.859V69.6786L3.24708 78.1772L2.13163 77.9515L5.61076 69.9176H1.2021V68.8951ZM11.0478 78.0976C9.1622 78.0976 7.84757 76.9954 7.84757 75.5081C7.84757 74.2865 8.5912 73.41 9.58713 73.0913V73.0648C8.94973 72.8258 8.29906 72.1087 8.29906 71.1393C8.29906 69.6786 9.49418 68.8155 11.0478 68.8155C12.6944 68.8155 13.8099 69.745 13.8099 71.1393C13.8099 72.122 13.1459 72.8523 12.5085 73.0648V73.0913C13.5177 73.3968 14.2614 74.2732 14.2614 75.5081C14.2614 77.0884 12.8405 78.0976 11.0478 78.0976ZM11.0478 72.6C12.0438 72.6 12.7343 72.0689 12.7343 71.2323C12.7343 70.3957 12.0172 69.8114 11.0478 69.8114C10.0253 69.8114 9.37466 70.4488 9.37466 71.2323C9.37466 72.0689 10.0652 72.6 11.0478 72.6ZM11.0478 77.0884C12.2961 77.0884 13.1194 76.3049 13.1194 75.3886C13.1194 74.3396 12.2828 73.6358 11.0478 73.6358C9.7996 73.6358 8.98957 74.3396 8.98957 75.3886C8.98957 76.3713 9.89255 77.0884 11.0478 77.0884ZM15.8717 78.0179V68.2445H16.9473V75.0832L16.9606 75.0965L20.1343 71.551H21.4356L19.0188 74.2201L21.4622 78.0179H20.2272L18.2752 74.977L16.9473 76.4111V78.0179H15.8717ZM26.3497 78.0179V71.551H27.4253V72.7328H27.4519C27.9167 71.9493 28.6603 71.4713 29.55 71.4713C29.643 71.4713 29.7226 71.4713 29.8156 71.4846V72.6797C29.6562 72.6664 29.4969 72.6531 29.3906 72.6531C28.1557 72.6531 27.4253 73.596 27.4253 74.8973V78.0179H26.3497ZM36.5735 74.6716C36.5735 74.8442 36.547 75.0301 36.547 75.1098H31.5009C31.647 76.3182 32.4968 77.1149 33.7185 77.1149C34.5816 77.1149 35.1925 76.7431 35.5909 76.2518L36.3478 76.8892C35.79 77.6062 34.98 78.0976 33.6787 78.0976C31.7665 78.0976 30.412 76.7697 30.412 74.7911C30.412 72.839 31.7532 71.4713 33.599 71.4713C35.3651 71.4713 36.5735 72.8258 36.5735 74.6716ZM33.5857 72.4539C32.5499 72.4539 31.7266 73.1312 31.5274 74.2334H35.4979C35.3386 73.171 34.648 72.4539 33.5857 72.4539ZM39.7907 78.0179L37.1614 71.551H38.33L40.3086 76.6501H40.3219L42.3004 71.551H43.4557L40.8265 78.0179H39.7907ZM45.3882 70.3691C44.95 70.3691 44.6048 70.0239 44.6048 69.5989C44.6048 69.174 44.95 68.8288 45.3882 68.8288C45.8265 68.8288 46.1717 69.174 46.1717 69.5989C46.1717 70.0239 45.8265 70.3691 45.3882 70.3691ZM44.8438 78.0179V71.551H45.9194V78.0179H44.8438ZM53.7689 74.6716C53.7689 74.8442 53.7424 75.0301 53.7424 75.1098H48.6963C48.8424 76.3182 49.6922 77.1149 50.9139 77.1149C51.7771 77.1149 52.3879 76.7431 52.7863 76.2518L53.5432 76.8892C52.9855 77.6062 52.1754 78.0976 50.8741 78.0976C48.9619 78.0976 47.6074 76.7697 47.6074 74.7911C47.6074 72.839 48.9486 71.4713 50.7944 71.4713C52.5605 71.4713 53.7689 72.8258 53.7689 74.6716ZM50.7811 72.4539C49.7454 72.4539 48.922 73.1312 48.7229 74.2334H52.6933C52.534 73.171 51.8435 72.4539 50.7811 72.4539ZM56.6149 78.0179L54.384 71.551H55.4862L57.1195 76.4111H57.1461L58.6333 71.551H59.5629L61.0767 76.4111H61.1033L62.7233 71.551H63.8255L61.5946 78.0179H60.5854L59.0981 73.2773H59.0848L57.5976 78.0179H56.6149ZM67.0498 78.0976C65.9742 78.0976 65.1509 77.7258 64.5268 77.1813L65.0712 76.358C65.5758 76.8493 66.1468 77.1415 67.0498 77.1415C67.8333 77.1415 68.2848 76.7564 68.2848 76.2651C68.2848 75.6941 67.6872 75.5347 66.7444 75.1894C65.6953 74.8176 64.8056 74.3927 64.8056 73.2109C64.8056 72.2149 65.7086 71.4713 66.9303 71.4713C67.7138 71.4713 68.4441 71.6838 69.1612 72.268L68.6035 73.1179C68.0457 72.6 67.4482 72.4274 66.8905 72.4274C66.3858 72.4274 65.8945 72.7195 65.8945 73.2109C65.8945 73.7155 66.4124 73.9678 67.1162 74.2201C68.4839 74.7512 69.3869 74.9903 69.3737 76.2518C69.3737 77.261 68.6035 78.0976 67.0498 78.0976Z" fill="white"/>
<path fill-rule="evenodd" clip-rule="evenodd" d="M45.1746 11.8825V13.9533H50.1444C50.0665 14.9287 49.6611 15.849 48.994 16.5648C47.9886 17.5889 46.5971 18.1405 45.1631 18.0834C42.1133 18.0834 39.641 15.611 39.641 12.5613C39.641 9.51155 42.1133 7.03924 45.1631 7.03924C46.5641 7.01639 47.9169 7.55009 48.925 8.52329L50.386 7.06225C49.0112 5.67006 47.1311 4.89398 45.1746 4.91094C42.3894 4.80255 39.768 6.22666 38.3432 8.62229C36.9183 11.0179 36.9183 14.0011 38.3432 16.3968C39.768 18.7924 42.3894 20.2165 45.1746 20.1081C47.1669 20.1981 49.1007 19.4221 50.4781 17.9798C51.6833 16.6556 52.3269 14.9148 52.2727 13.125C52.2764 12.689 52.2379 12.2536 52.1577 11.825L45.1746 11.8825ZM57.9329 10.3754C55.2341 10.3818 53.0508 12.5736 53.0551 15.2724C53.0593 17.9712 55.2494 20.1562 57.9482 20.1541C60.647 20.152 62.8337 17.9636 62.8337 15.2648C62.8526 13.9583 62.3404 12.7001 61.4144 11.7784C60.4883 10.8567 59.2277 10.3504 57.9214 10.3754H57.9329ZM63.777 15.28C63.7686 12.5827 65.946 10.3881 68.6433 10.3754C69.9496 10.3504 71.2102 10.8567 72.1363 11.7784C73.0624 12.7001 73.5746 13.9583 73.5556 15.2648C73.5556 17.9621 71.3712 20.1498 68.6739 20.154C65.9766 20.1582 63.7855 17.9773 63.777 15.28ZM65.7581 16.5514C66.2834 17.651 67.4276 18.3178 68.6433 18.2328C69.4064 18.2151 70.13 17.8899 70.6498 17.3311C71.1697 16.7722 71.4418 16.027 71.4044 15.2647C71.4014 14.046 70.6538 12.9529 69.519 12.5083C68.3843 12.0638 67.0931 12.358 66.2631 13.2503C65.433 14.1426 65.2327 15.4517 65.7581 16.5514ZM55.0399 16.5603C55.5689 17.6593 56.7164 18.3227 57.9328 18.2329H57.9213C58.6844 18.2152 59.408 17.89 59.9278 17.3312C60.4477 16.7723 60.7198 16.0271 60.6824 15.2648C60.679 14.0451 59.9299 12.9516 58.7938 12.508C57.6576 12.0644 56.3657 12.361 55.5368 13.2558C54.708 14.1506 54.5109 15.4613 55.0399 16.5603ZM93.113 10.3754C95.0203 10.4456 96.6863 11.686 97.3005 13.493L97.5421 14.0107L90.9962 16.7142C91.4065 17.6486 92.3463 18.2372 93.3661 18.1983C94.3507 18.2008 95.264 17.6851 95.7704 16.8408L97.4386 17.9912C96.5305 19.3504 95.0006 20.1628 93.3661 20.154C92.0667 20.1731 90.8155 19.6629 89.8999 18.7408C88.9843 17.8187 88.483 16.5639 88.5112 15.2647C88.4317 13.9952 88.8812 12.7495 89.753 11.8232C90.6247 10.897 91.841 10.3729 93.113 10.3754ZM90.628 15.1267C90.5809 14.4079 90.8251 13.7003 91.3056 13.1636C91.786 12.6269 92.4623 12.3061 93.1819 12.2736C93.9405 12.2236 94.6557 12.6311 94.9996 13.309L90.628 15.1267ZM87.4644 19.8665H85.3131V5.48612H87.4644V19.8665ZM81.7927 11.4684H81.7122C81.0564 10.7352 80.1189 10.3167 79.1352 10.318C76.5239 10.4446 74.4718 12.5987 74.4718 15.213C74.4718 17.8274 76.5239 19.9815 79.1352 20.1081C80.1221 20.1247 81.0657 19.7035 81.7122 18.9577H81.7812V19.6594C81.7812 21.5346 80.7803 22.5355 79.1697 22.5355C78.0726 22.5098 77.0998 21.8234 76.7078 20.7984L74.8326 21.5807C75.5547 23.3371 77.2707 24.4796 79.1697 24.4682C81.6892 24.4682 83.7715 22.9842 83.7715 19.3718V10.6631H81.7927V11.4684ZM79.3272 18.2325L79.3308 18.2328H79.3193L79.3272 18.2325ZM81.2658 17.3099C80.772 17.8686 80.0719 18.2017 79.3272 18.2325C77.7907 18.0952 76.6127 16.8077 76.6127 15.2647C76.6127 13.7205 77.7925 12.4321 79.3308 12.2966C80.0741 12.3347 80.7705 12.6714 81.2622 13.2301C81.7538 13.7889 81.9991 14.5226 81.9422 15.2647C82.0057 16.0102 81.7612 16.7492 81.2658 17.3099ZM107.378 5.48611H102.224V19.8665H104.376V14.4134H107.378C109.049 14.5335 110.648 13.71 111.52 12.2794C112.392 10.8488 112.392 9.05078 111.52 7.62019C110.648 6.18959 109.049 5.36605 107.378 5.48611ZM104.376 12.3887H107.378L107.424 12.4232C108.787 12.4232 109.892 11.3184 109.892 9.95551C109.892 8.59265 108.787 7.48784 107.424 7.48784H104.376V12.3887ZM120.643 10.3179C119.042 10.2223 117.537 11.0854 116.812 12.5153L118.721 13.309C119.106 12.6 119.873 12.1849 120.677 12.2507C121.229 12.1862 121.783 12.3461 122.216 12.6944C122.649 13.0427 122.923 13.5501 122.978 14.1028V14.2524C122.287 13.8866 121.517 13.6969 120.735 13.7002C118.675 13.7002 116.593 14.8506 116.593 16.9329C116.634 17.8299 117.036 18.6721 117.708 19.268C118.38 19.8639 119.264 20.1628 120.16 20.0966C121.263 20.1758 122.322 19.6464 122.921 18.7161H122.99V19.8665H125.06V14.3329C125.06 11.8135 123.151 10.3524 120.7 10.3524L120.643 10.3179ZM118.698 16.9788C118.698 17.8417 119.676 18.1983 120.378 18.1983L120.436 18.2328C121.732 18.2012 122.806 17.2197 122.955 15.9319C122.358 15.5988 121.683 15.4319 120.999 15.4488C119.918 15.4488 118.698 15.8284 118.698 16.9788ZM132.607 10.663L130.145 16.8983H130.076L127.522 10.663H125.221L129.052 19.3833L126.867 24.2266H129.11L135 10.663H132.607ZM115.42 19.8665H113.269V5.48612H115.42V19.8665Z" fill="white"/>
<path d="M1.80169 0.831367C1.43497 1.2847 1.25405 1.86036 1.2955 2.44197V27.8895C1.26047 28.4741 1.44973 29.0501 1.82469 29.5001L1.90522 29.5806L16.136 15.3383V15.0047L1.88222 0.750837L1.80169 0.831367Z" fill="#00D8FF"/>
<path d="M20.8529 20.0895L16.1361 15.3382V15.0046L20.8529 10.2418L20.9564 10.2993L26.605 13.509C28.2156 14.4179 28.2156 15.9134 26.605 16.8338L20.9794 20.032L20.8529 20.0895Z" fill="url(#paint0_linear_510_113984)"/>
<path d="M20.9909 20.0319L16.1361 15.1656L1.80176 29.5C2.47904 30.0953 3.48418 30.1243 4.19465 29.569L21.0024 20.0204" fill="#F1324B"/>
<path d="M20.9909 10.3108L4.18318 0.762259C3.4727 0.206918 2.46756 0.235912 1.79028 0.831285L16.1361 15.1656L20.9909 10.3108Z" fill="#00F076"/>
<path opacity="0.2" d="M20.8529 19.9169L4.18315 29.408C3.50099 29.918 2.56445 29.918 1.88229 29.408L1.80176 29.4885L1.88229 29.569C2.56316 30.0829 3.50227 30.0829 4.18315 29.569L20.9909 20.0205L20.8529 19.9169Z" fill="black"/>
<path d="M1.80173 29.339C1.42677 28.889 1.23751 28.313 1.27253 27.7284V27.9009C1.23751 28.4856 1.42677 29.0616 1.80173 29.5115L1.88226 29.431L1.80173 29.339Z" fill="black"/>
<path d="M26.6049 16.6612L20.8528 19.9169L20.9563 20.0204L26.6049 16.8222C27.2573 16.5158 27.6961 15.8839 27.7554 15.1656C27.6242 15.8154 27.1994 16.3678 26.6049 16.6612Z" fill="black"/>
<path d="M4.18311 0.923358L26.605 13.6701C27.1994 13.9635 27.6243 14.5159 27.7554 15.1657C27.6961 14.4473 27.2573 13.8155 26.605 13.509L4.18311 0.762298C2.58401 -0.158045 1.29553 0.601238 1.29553 2.44192V2.61449C1.29553 0.773803 2.58401 0.0145197 4.18311 0.923358Z" fill="black"/>
<defs>
<linearGradient id="paint0_linear_510_113984" x1="28.7103" y1="3.43092" x2="0.881424" y2="3.43092" gradientUnits="userSpaceOnUse">
<stop stop-color="#FFE000"/>
<stop offset="0.41" stop-color="#FFBD00"/>
<stop offset="0.78" stop-color="#FFA500"/>
<stop offset="1" stop-color="#FF9C00"/>
</linearGradient>
</defs>
</svg>
