<svg width="28" height="28" viewBox="0 0 28 28" fill="none" xmlns="http://www.w3.org/2000/svg">
<path d="M22.9017 4.25833C22.7662 4.14869 22.6078 4.07082 22.4382 4.03044C22.2686 3.99006 22.0921 3.9882 21.9217 4.025C20.675 4.28627 19.3881 4.28959 18.1401 4.03478C16.8921 3.77996 15.7095 3.2724 14.665 2.54333C14.4697 2.40785 14.2377 2.33525 14 2.33525C13.7623 2.33525 13.5303 2.40785 13.335 2.54333C12.2906 3.2724 11.1079 3.77996 9.85995 4.03478C8.61196 4.28959 7.32502 4.28627 6.07836 4.025C5.90796 3.9882 5.73147 3.99006 5.56188 4.03044C5.39229 4.07082 5.2339 4.14869 5.09836 4.25833C4.963 4.36814 4.85397 4.50687 4.77927 4.66435C4.70457 4.82183 4.6661 4.99404 4.66669 5.16833V13.86C4.66566 15.5327 5.06426 17.1815 5.82932 18.669C6.59437 20.1564 7.70374 21.4396 9.06503 22.4117L13.3234 25.445C13.5209 25.5857 13.7575 25.6613 14 25.6613C14.2426 25.6613 14.4791 25.5857 14.6767 25.445L18.935 22.4117C20.2963 21.4396 21.4057 20.1564 22.1707 18.669C22.9358 17.1815 23.3344 15.5327 23.3334 13.86V5.16833C23.334 4.99404 23.2955 4.82183 23.2208 4.66435C23.1461 4.50687 23.0371 4.36814 22.9017 4.25833ZM21 13.86C21.0009 15.1605 20.6912 16.4425 20.0966 17.5992C19.502 18.7559 18.6398 19.7538 17.5817 20.51L14 23.065L10.4184 20.51C9.36024 19.7538 8.49801 18.7559 7.90343 17.5992C7.30886 16.4425 6.99913 15.1605 7.00003 13.86V6.51C9.44586 6.71934 11.8954 6.15186 14 4.88833C16.1046 6.15186 18.5542 6.71934 21 6.51V13.86Z" fill="#2945FF"/>
</svg>
