<svg width="28" height="28" viewBox="0 0 28 28" fill="none" xmlns="http://www.w3.org/2000/svg">
<path d="M19.8337 10.4997V8.16634C19.8337 6.61925 19.2191 5.13551 18.1251 4.04155C17.0312 2.94759 15.5474 2.33301 14.0003 2.33301C12.4532 2.33301 10.9695 2.94759 9.87554 4.04155C8.78157 5.13551 8.16699 6.61925 8.16699 8.16634V10.4997C7.23873 10.4997 6.3485 10.8684 5.69212 11.5248C5.03574 12.1812 4.66699 13.0714 4.66699 13.9997V22.1663C4.66699 23.0946 5.03574 23.9848 5.69212 24.6412C6.3485 25.2976 7.23873 25.6663 8.16699 25.6663H19.8337C20.7619 25.6663 21.6522 25.2976 22.3085 24.6412C22.9649 23.9848 23.3337 23.0946 23.3337 22.1663V13.9997C23.3337 13.0714 22.9649 12.1812 22.3085 11.5248C21.6522 10.8684 20.7619 10.4997 19.8337 10.4997ZM10.5003 8.16634C10.5003 7.23808 10.8691 6.34785 11.5255 5.69147C12.1818 5.03509 13.0721 4.66634 14.0003 4.66634C14.9286 4.66634 15.8188 5.03509 16.4752 5.69147C17.1316 6.34785 17.5003 7.23808 17.5003 8.16634V10.4997H10.5003V8.16634ZM21.0003 22.1663C21.0003 22.4758 20.8774 22.7725 20.6586 22.9913C20.4398 23.2101 20.1431 23.333 19.8337 23.333H8.16699C7.85757 23.333 7.56083 23.2101 7.34203 22.9913C7.12324 22.7725 7.00033 22.4758 7.00033 22.1663V13.9997C7.00033 13.6903 7.12324 13.3935 7.34203 13.1747C7.56083 12.9559 7.85757 12.833 8.16699 12.833H19.8337C20.1431 12.833 20.4398 12.9559 20.6586 13.1747C20.8774 13.3935 21.0003 13.6903 21.0003 13.9997V22.1663Z" fill="#2945FF"/>
<path d="M13.0033 15.4665C13.2972 15.2669 13.6451 15.1622 14.0003 15.1663C14.3555 15.1622 14.7035 15.2669 14.9973 15.4665C15.2912 15.6661 15.5168 15.9509 15.6439 16.2826C15.771 16.6143 15.7934 16.977 15.7082 17.3218C15.6229 17.6666 15.434 17.9771 15.167 18.2113V19.833C15.167 20.1424 15.0441 20.4392 14.8253 20.6579C14.6065 20.8767 14.3097 20.9997 14.0003 20.9997C13.6909 20.9997 13.3942 20.8767 13.1754 20.6579C12.9566 20.4392 12.8337 20.1424 12.8337 19.833V18.2113C12.5666 17.9771 12.3778 17.6666 12.2925 17.3218C12.2072 16.977 12.2297 16.6143 12.3567 16.2826C12.4838 15.9509 12.7095 15.6661 13.0033 15.4665Z" fill="#2945FF"/>
</svg>
