<svg width="28" height="28" viewBox="0 0 28 28" fill="none" xmlns="http://www.w3.org/2000/svg">
<path fill-rule="evenodd" clip-rule="evenodd" d="M24.6498 5.10595C24.5364 5.05764 24.4181 5.03274 24.2949 5.03125H18.6921C18.0695 5.03125 17.7582 5.34252 17.7582 5.96506C17.7582 6.5876 18.0695 6.89887 18.6921 6.89887H22.0444L12.3078 16.7365C11.9474 17.1007 11.9489 17.6875 12.3112 18.0498C12.6761 18.4147 13.2682 18.4132 13.6312 18.0464L23.3611 8.21555V11.5679C23.3611 12.1905 23.6724 12.5017 24.2949 12.5017C24.9175 12.5017 25.2287 12.1905 25.2287 11.5679V5.96506C25.2272 5.84185 25.2023 5.72357 25.154 5.61021C25.0554 5.37268 24.8873 5.2046 24.6498 5.10595Z" fill="#2945FF"/>
<path fill-rule="evenodd" clip-rule="evenodd" d="M2.91273 22.2964C3.02608 22.3447 3.14437 22.3696 3.26758 22.3711H8.87044C9.49298 22.3711 9.80425 22.0598 9.80425 21.4373C9.80425 20.8147 9.49298 20.5035 8.87044 20.5035H5.51806L15.2547 10.6658C15.6151 10.3017 15.6136 9.71482 15.2513 9.35256C14.8864 8.98765 14.2943 8.98918 13.9313 9.35597L4.20139 19.1868V15.8344C4.20139 15.2119 3.89012 14.9006 3.26758 14.9006C2.64504 14.9006 2.33377 15.2119 2.33377 15.8344V21.4373C2.33526 21.5605 2.36016 21.6788 2.40847 21.7921C2.50711 22.0297 2.6752 22.1977 2.91273 22.2964Z" fill="#2945FF"/>
</svg>
