<svg width="375" height="293" viewBox="0 0 375 293" fill="none" xmlns="http://www.w3.org/2000/svg">
<path d="M-35.5396 38.768C68.0207 70.4003 192.907 78.9198 261.163 43.3574C337.656 3.50301 426.465 -3 529.478 -3C723.065 -3 776.267 10.7271 866.293 10.7271L826.138 185.772C792.599 230.148 745.704 288.971 598.601 235.308C435.745 175.897 330.448 205.38 269.257 264.204C208.066 323.027 102.928 273.513 49.9706 273.513C-54.7664 273.513 -28.288 192.871 -101.251 192.871C-192.847 192.871 -185.878 107.454 -185.878 107.454C-185.878 107.454 -139.1 7.13577 -35.5396 38.768Z" fill="#FFF5F3"/>
</svg>
