<svg width="8" height="14" viewBox="0 0 8 14" fill="none" xmlns="http://www.w3.org/2000/svg">
<path d="M7.30166 6.17165L2.355 1.22498C2.24654 1.11563 2.1175 1.02884 1.97533 0.969607C1.83317 0.910377 1.68068 0.879883 1.52666 0.879883C1.37265 0.879883 1.22016 0.910377 1.07799 0.969607C0.935819 1.02884 0.806785 1.11563 0.698328 1.22498C0.481035 1.44357 0.35907 1.73926 0.35907 2.04748C0.35907 2.3557 0.481035 2.65139 0.698328 2.86998L4.82833 6.99998L0.698328 11.13C0.481035 11.3486 0.35907 11.6443 0.35907 11.9525C0.35907 12.2607 0.481035 12.5564 0.698328 12.775C0.807341 12.8831 0.936627 12.9687 1.07877 13.0267C1.22091 13.0848 1.37312 13.1142 1.52666 13.1133C1.6802 13.1142 1.83241 13.0848 1.97455 13.0267C2.1167 12.9687 2.24598 12.8831 2.355 12.775L7.30166 7.82831C7.41101 7.71986 7.49781 7.59082 7.55704 7.44865C7.61627 7.30648 7.64676 7.15399 7.64676 6.99998C7.64676 6.84597 7.61627 6.69348 7.55704 6.55131C7.49781 6.40914 7.41101 6.2801 7.30166 6.17165Z" fill="#CCCCCC"/>
</svg>
