<svg width="28" height="28" viewBox="0 0 28 28" fill="none" xmlns="http://www.w3.org/2000/svg">
<path d="M10.5 11.6667H11.6667C11.9761 11.6667 12.2728 11.5438 12.4916 11.325C12.7104 11.1062 12.8333 10.8095 12.8333 10.5C12.8333 10.1906 12.7104 9.89388 12.4916 9.67508C12.2728 9.45629 11.9761 9.33337 11.6667 9.33337H10.5C10.1906 9.33337 9.89384 9.45629 9.67504 9.67508C9.45625 9.89388 9.33333 10.1906 9.33333 10.5C9.33333 10.8095 9.45625 11.1062 9.67504 11.325C9.89384 11.5438 10.1906 11.6667 10.5 11.6667ZM10.5 14C10.1906 14 9.89384 14.123 9.67504 14.3418C9.45625 14.5605 9.33333 14.8573 9.33333 15.1667C9.33333 15.4761 9.45625 15.7729 9.67504 15.9917C9.89384 16.2105 10.1906 16.3334 10.5 16.3334H17.5C17.8094 16.3334 18.1062 16.2105 18.325 15.9917C18.5437 15.7729 18.6667 15.4761 18.6667 15.1667C18.6667 14.8573 18.5437 14.5605 18.325 14.3418C18.1062 14.123 17.8094 14 17.5 14H10.5ZM23.3333 10.43C23.3212 10.3229 23.2977 10.2173 23.2633 10.115V10.01C23.2072 9.89008 23.1324 9.77982 23.0417 9.68337L16.0417 2.68337C15.9452 2.59263 15.835 2.5178 15.715 2.46171C15.6802 2.45676 15.6448 2.45676 15.61 2.46171C15.4915 2.39374 15.3606 2.35011 15.225 2.33337H8.16667C7.23841 2.33337 6.34817 2.70212 5.69179 3.3585C5.03542 4.01488 4.66667 4.90512 4.66667 5.83337V22.1667C4.66667 23.095 5.03542 23.9852 5.69179 24.6416C6.34817 25.298 7.23841 25.6667 8.16667 25.6667H19.8333C20.7616 25.6667 21.6518 25.298 22.3082 24.6416C22.9646 23.9852 23.3333 23.095 23.3333 22.1667V10.5C23.3333 10.5 23.3333 10.5 23.3333 10.43ZM16.3333 6.31171L19.355 9.33337H17.5C17.1906 9.33337 16.8938 9.21046 16.675 8.99167C16.4562 8.77287 16.3333 8.47613 16.3333 8.16671V6.31171ZM21 22.1667C21 22.4761 20.8771 22.7729 20.6583 22.9917C20.4395 23.2105 20.1428 23.3334 19.8333 23.3334H8.16667C7.85725 23.3334 7.5605 23.2105 7.34171 22.9917C7.12292 22.7729 7 22.4761 7 22.1667V5.83337C7 5.52396 7.12292 5.22721 7.34171 5.00842C7.5605 4.78962 7.85725 4.66671 8.16667 4.66671H14V8.16671C14 9.09497 14.3687 9.9852 15.0251 10.6416C15.6815 11.298 16.5717 11.6667 17.5 11.6667H21V22.1667ZM17.5 18.6667H10.5C10.1906 18.6667 9.89384 18.7896 9.67504 19.0084C9.45625 19.2272 9.33333 19.524 9.33333 19.8334C9.33333 20.1428 9.45625 20.4395 9.67504 20.6583C9.89384 20.8771 10.1906 21 10.5 21H17.5C17.8094 21 18.1062 20.8771 18.325 20.6583C18.5437 20.4395 18.6667 20.1428 18.6667 19.8334C18.6667 19.524 18.5437 19.2272 18.325 19.0084C18.1062 18.7896 17.8094 18.6667 17.5 18.6667Z" fill="#2945FF"/>
</svg>
