<svg width="28" height="28" viewBox="0 0 28 28" fill="none" xmlns="http://www.w3.org/2000/svg">
<path d="M14.0003 15.1667C13.6451 15.1625 13.2972 15.2673 13.0033 15.4669C12.7095 15.6665 12.4838 15.9513 12.3567 16.283C12.2297 16.6147 12.2072 16.9774 12.2925 17.3222C12.3778 17.667 12.5666 17.9774 12.8337 18.2117V19.8334C12.8337 20.1428 12.9566 20.4395 13.1754 20.6583C13.3942 20.8771 13.6909 21 14.0003 21C14.3097 21 14.6065 20.8771 14.8253 20.6583C15.0441 20.4395 15.167 20.1428 15.167 19.8334V18.2117C15.434 17.9774 15.6229 17.667 15.7082 17.3222C15.7934 16.9774 15.771 16.6147 15.6439 16.283C15.5168 15.9513 15.2912 15.6665 14.9973 15.4669C14.7035 15.2673 14.3555 15.1625 14.0003 15.1667ZM19.8337 10.5H10.5003V8.1667C10.4986 7.47392 10.7026 6.79621 11.0863 6.21942C11.47 5.64262 12.0163 5.19268 12.656 4.92658C13.2956 4.66048 13.9998 4.59019 14.6794 4.72462C15.359 4.85904 15.9835 5.19213 16.4737 5.6817C16.9123 6.12978 17.226 6.68483 17.3837 7.2917C17.422 7.44031 17.4892 7.57992 17.5814 7.70256C17.6737 7.82521 17.7892 7.92848 17.9214 8.00648C18.0535 8.08448 18.1998 8.13568 18.3517 8.15717C18.5037 8.17865 18.6584 8.17 18.807 8.1317C18.9556 8.09339 19.0952 8.0262 19.2179 7.93394C19.3405 7.84168 19.4438 7.72617 19.5218 7.594C19.5998 7.46183 19.651 7.31559 19.6725 7.16363C19.6939 7.01168 19.6853 6.85698 19.647 6.70836C19.3812 5.69896 18.8541 4.77745 18.1187 4.0367C17.3022 3.22279 16.2629 2.66905 15.1319 2.44541C14.001 2.22177 12.8291 2.33825 11.7644 2.78014C10.6996 3.22204 9.7896 3.96953 9.14933 4.92823C8.50907 5.88693 8.16724 7.01385 8.16699 8.1667V10.5C7.23873 10.5 6.3485 10.8688 5.69212 11.5252C5.03574 12.1815 4.66699 13.0718 4.66699 14V22.1667C4.66699 23.095 5.03574 23.9852 5.69212 24.6416C6.3485 25.2979 7.23873 25.6667 8.16699 25.6667H19.8337C20.7619 25.6667 21.6522 25.2979 22.3085 24.6416C22.9649 23.9852 23.3337 23.095 23.3337 22.1667V14C23.3337 13.0718 22.9649 12.1815 22.3085 11.5252C21.6522 10.8688 20.7619 10.5 19.8337 10.5ZM21.0003 22.1667C21.0003 22.4761 20.8774 22.7729 20.6586 22.9917C20.4398 23.2104 20.1431 23.3334 19.8337 23.3334H8.16699C7.85757 23.3334 7.56083 23.2104 7.34203 22.9917C7.12324 22.7729 7.00033 22.4761 7.00033 22.1667V14C7.00033 13.6906 7.12324 13.3939 7.34203 13.1751C7.56083 12.9563 7.85757 12.8334 8.16699 12.8334H19.8337C20.1431 12.8334 20.4398 12.9563 20.6586 13.1751C20.8774 13.3939 21.0003 13.6906 21.0003 14V22.1667Z" fill="#2945FF"/>
</svg>
