<svg width="72" height="72" viewBox="0 0 72 72" fill="none" xmlns="http://www.w3.org/2000/svg">
<path d="M49.8601 29.412H13.14C12.06 29.412 11.196 30.276 11.196 31.356V55.836V59.22C11.196 60.3 12.06 61.164 13.14 61.164H49.8601C50.9401 61.164 51.804 60.3 51.804 59.22V55.836V31.356C51.804 30.276 50.9401 29.412 49.8601 29.412ZM31.5 35.244C34.092 35.244 36.252 37.332 36.252 39.996C36.252 41.724 35.316 43.236 33.948 44.028V47.556C33.948 48.852 32.868 49.932 31.572 49.932C30.276 49.932 29.196 48.852 29.196 47.556V44.028C27.828 43.236 26.892 41.724 26.892 39.924C26.82 37.404 28.908 35.244 31.5 35.244Z" fill="#FFAD9F"/>
<path d="M36.2521 39.996C36.2521 41.724 35.3161 43.236 33.9481 44.028V47.556C33.9481 48.852 32.8681 49.932 31.5721 49.932C30.2761 49.932 29.1961 48.852 29.1961 47.556V44.028C27.8281 43.236 26.8921 41.724 26.8921 39.924C26.8921 37.332 28.9801 35.172 31.6441 35.172C34.0921 35.244 36.2521 37.404 36.2521 39.996Z" fill="white"/>
<path d="M49.212 22.14V29.412H43.956V22.14C43.956 18.684 42.588 15.588 40.356 13.356C38.124 11.124 35.028 9.756 31.572 9.756C24.732 9.756 19.188 15.3 19.188 22.14V29.412H13.86V22.14C13.86 12.42 21.78 4.5 31.5 4.5C36.396 4.5 40.788 6.516 44.028 9.684C47.196 12.852 49.212 17.316 49.212 22.14Z" fill="#FFAD9F"/>
<path d="M13.86 29.412H13.14C12.06 29.412 11.196 30.276 11.196 31.356V55.836M33.948 44.028V47.556C33.948 48.852 32.868 49.932 31.572 49.932C30.276 49.932 29.196 48.852 29.196 47.556V44.028C27.828 43.236 26.892 41.724 26.892 39.924C26.892 37.332 28.98 35.172 31.644 35.172C34.236 35.172 36.396 37.26 36.396 39.924C36.252 41.724 35.316 43.236 33.948 44.028Z" stroke="black" stroke-width="1.5" stroke-miterlimit="10" stroke-linecap="round" stroke-linejoin="round"/>
<path d="M36.2521 39.996C36.2521 41.724 35.3161 43.236 33.9481 44.028V47.556C33.9481 48.852 32.8681 49.932 31.5721 49.932C30.2761 49.932 29.1961 48.852 29.1961 47.556V44.028C27.8281 43.236 26.8921 41.724 26.8921 39.924C26.8921 37.332 28.9801 35.172 31.6441 35.172C34.0921 35.244 36.2521 37.404 36.2521 39.996Z" stroke="black" stroke-width="1.5" stroke-miterlimit="10" stroke-linecap="round" stroke-linejoin="round"/>
<path d="M49.212 22.14V29.412H43.956V22.14C43.956 18.684 42.588 15.588 40.356 13.356C38.124 11.124 35.028 9.756 31.572 9.756C24.732 9.756 19.188 15.3 19.188 22.14V29.412H13.86V22.14C13.86 12.42 21.78 4.5 31.5 4.5C36.396 4.5 40.788 6.516 44.028 9.684C47.196 12.852 49.212 17.316 49.212 22.14Z" stroke="black" stroke-width="1.5" stroke-miterlimit="10" stroke-linecap="round" stroke-linejoin="round"/>
<path d="M43.8841 22.14V29.412H19.1161V22.14C19.1161 15.3 24.6601 9.75598 31.5001 9.75598C34.9561 9.75598 38.0521 11.124 40.2841 13.356C42.5161 15.66 43.8841 18.756 43.8841 22.14Z" stroke="black" stroke-width="1.5" stroke-miterlimit="10" stroke-linecap="round" stroke-linejoin="round"/>
<path d="M11.196 55.8359H51.804" stroke="black" stroke-width="1.5" stroke-miterlimit="10" stroke-linecap="round" stroke-linejoin="round"/>
<path d="M49.212 29.412H49.932C51.012 29.412 51.8761 30.276 51.8761 31.356V59.148C51.8761 60.228 51.012 61.092 49.932 61.092H13.14C12.06 61.092 11.196 60.228 11.196 59.148V55.764V53.028" stroke="black" stroke-width="1.5" stroke-miterlimit="10" stroke-linecap="round" stroke-linejoin="round"/>
<path d="M46.4761 36.612C47.5099 36.612 48.3481 35.7739 48.3481 34.74C48.3481 33.7062 47.5099 32.868 46.4761 32.868C45.4422 32.868 44.6041 33.7062 44.6041 34.74C44.6041 35.7739 45.4422 36.612 46.4761 36.612Z" fill="white" stroke="black" stroke-width="1.5" stroke-miterlimit="10" stroke-linecap="round" stroke-linejoin="round"/>
<path d="M16.5241 36.612C17.558 36.612 18.3961 35.7739 18.3961 34.74C18.3961 33.7062 17.558 32.868 16.5241 32.868C15.4902 32.868 14.6521 33.7062 14.6521 34.74C14.6521 35.7739 15.4902 36.612 16.5241 36.612Z" fill="white" stroke="black" stroke-width="1.5" stroke-miterlimit="10" stroke-linecap="round" stroke-linejoin="round"/>
<path d="M46.4761 52.38C47.5099 52.38 48.3481 51.5419 48.3481 50.508C48.3481 49.4741 47.5099 48.636 46.4761 48.636C45.4422 48.636 44.6041 49.4741 44.6041 50.508C44.6041 51.5419 45.4422 52.38 46.4761 52.38Z" fill="white" stroke="black" stroke-width="1.5" stroke-miterlimit="10" stroke-linecap="round" stroke-linejoin="round"/>
<path d="M16.5241 52.38C17.558 52.38 18.3961 51.5419 18.3961 50.508C18.3961 49.4741 17.558 48.636 16.5241 48.636C15.4902 48.636 14.6521 49.4741 14.6521 50.508C14.6521 51.5419 15.4902 52.38 16.5241 52.38Z" fill="white" stroke="black" stroke-width="1.5" stroke-miterlimit="10" stroke-linecap="round" stroke-linejoin="round"/>
<path d="M59.8681 37.62V42.732L58.2841 45.9L59.8681 48.852L58.2841 51.876L59.8681 54.972L58.2841 57.924L59.8681 61.092L55.8361 66.06L51.8041 61.092V37.62C53.0281 38.196 54.3961 38.556 55.8361 38.556C57.2761 38.556 58.6441 38.196 59.8681 37.62Z" fill="#86C5F9"/>
<path d="M55.8361 20.052C50.7241 20.052 46.5481 24.228 46.5481 29.34C46.5481 33.012 48.7081 36.18 51.8041 37.692C53.0281 38.268 54.3961 38.628 55.8361 38.628C57.2761 38.628 58.6441 38.268 59.8681 37.692C62.9641 36.18 65.1241 33.012 65.1241 29.34C65.1241 24.156 60.9481 20.052 55.8361 20.052ZM58.0681 27.108C58.0681 28.332 57.0601 29.34 55.8361 29.34C54.6121 29.34 53.6041 28.332 53.6041 27.108C53.6041 25.884 54.6121 24.876 55.8361 24.876C57.0601 24.876 58.0681 25.884 58.0681 27.108Z" fill="#86C5F9"/>
<path d="M55.8361 38.556V42.732" stroke="black" stroke-width="1.5" stroke-miterlimit="10" stroke-linecap="round" stroke-linejoin="round"/>
<path d="M55.8361 55.116V61.092" stroke="black" stroke-width="1.5" stroke-miterlimit="10" stroke-linecap="round" stroke-linejoin="round"/>
<path d="M59.8681 61.092L55.8361 66.06L51.8041 61.092V37.62" stroke="black" stroke-width="1.5" stroke-miterlimit="10" stroke-linecap="round" stroke-linejoin="round"/>
<path d="M59.8681 37.62V42.732" stroke="black" stroke-width="1.5" stroke-miterlimit="10" stroke-linecap="round" stroke-linejoin="round"/>
<path d="M59.8681 42.7319L58.2841 45.8999L59.8681 48.8519L58.2841 51.9479L59.8681 54.9719L58.2841 57.9239L59.8681 61.0919" stroke="black" stroke-width="1.5" stroke-miterlimit="10" stroke-linecap="round" stroke-linejoin="round"/>
<path d="M55.8361 29.34C57.0688 29.34 58.0681 28.3407 58.0681 27.108C58.0681 25.8753 57.0688 24.876 55.8361 24.876C54.6034 24.876 53.6041 25.8753 53.6041 27.108C53.6041 28.3407 54.6034 29.34 55.8361 29.34Z" stroke="black" stroke-width="1.5" stroke-miterlimit="10" stroke-linecap="round" stroke-linejoin="round"/>
<path d="M55.8361 38.556C60.9657 38.556 65.1241 34.3976 65.1241 29.268C65.1241 24.1384 60.9657 19.98 55.8361 19.98C50.7064 19.98 46.5481 24.1384 46.5481 29.268C46.5481 34.3976 50.7064 38.556 55.8361 38.556Z" stroke="black" stroke-width="1.5" stroke-miterlimit="10" stroke-linecap="round" stroke-linejoin="round"/>
</svg>
