<svg width="28" height="28" viewBox="0 0 28 28" fill="none" xmlns="http://www.w3.org/2000/svg">
<path d="M19.8334 10.5V8.16665C19.8334 6.61955 19.2188 5.13582 18.1249 4.04186C17.0309 2.94789 15.5472 2.33331 14.0001 2.33331C12.453 2.33331 10.9693 2.94789 9.87529 4.04186C8.78133 5.13582 8.16675 6.61955 8.16675 8.16665V10.5C7.23849 10.5 6.34825 10.8687 5.69187 11.5251C5.0355 12.1815 4.66675 13.0717 4.66675 14V22.1666C4.66675 23.0949 5.0355 23.9851 5.69187 24.6415C6.34825 25.2979 7.23849 25.6666 8.16675 25.6666H19.8334C20.7617 25.6666 21.6519 25.2979 22.3083 24.6415C22.9647 23.9851 23.3334 23.0949 23.3334 22.1666V14C23.3334 13.0717 22.9647 12.1815 22.3083 11.5251C21.6519 10.8687 20.7617 10.5 19.8334 10.5ZM10.5001 8.16665C10.5001 7.23839 10.8688 6.34815 11.5252 5.69177C12.1816 5.0354 13.0718 4.66665 14.0001 4.66665C14.9283 4.66665 15.8186 5.0354 16.475 5.69177C17.1313 6.34815 17.5001 7.23839 17.5001 8.16665V10.5H10.5001V8.16665ZM21.0001 22.1666C21.0001 22.4761 20.8772 22.7728 20.6584 22.9916C20.4396 23.2104 20.1428 23.3333 19.8334 23.3333H8.16675C7.85733 23.3333 7.56058 23.2104 7.34179 22.9916C7.123 22.7728 7.00008 22.4761 7.00008 22.1666V14C7.00008 13.6906 7.123 13.3938 7.34179 13.175C7.56058 12.9562 7.85733 12.8333 8.16675 12.8333H19.8334C20.1428 12.8333 20.4396 12.9562 20.6584 13.175C20.8772 13.3938 21.0001 13.6906 21.0001 14V22.1666Z" fill="#2945FF"/>
<path d="M13.0031 15.4668C13.2969 15.2672 13.6449 15.1625 14.0001 15.1666C14.3553 15.1625 14.7032 15.2672 14.9971 15.4668C15.2909 15.6664 15.5166 15.9512 15.6437 16.2829C15.7708 16.6146 15.7932 16.9773 15.7079 17.3221C15.6226 17.6669 15.4338 17.9774 15.1667 18.2116V19.8333C15.1667 20.1427 15.0438 20.4395 14.825 20.6582C14.6062 20.877 14.3095 21 14.0001 21C13.6907 21 13.3939 20.877 13.1751 20.6582C12.9563 20.4395 12.8334 20.1427 12.8334 19.8333V18.2116C12.5664 17.9774 12.3775 17.6669 12.2923 17.3221C12.207 16.9773 12.2294 16.6146 12.3565 16.2829C12.4836 15.9512 12.7092 15.6664 13.0031 15.4668Z" fill="#2945FF"/>
</svg>
