<svg width="28" height="28" viewBox="0 0 28 28" fill="none" xmlns="http://www.w3.org/2000/svg">
<path d="M14.6883 15.1667L12.005 17.8383C11.8957 17.9468 11.8089 18.0758 11.7496 18.218C11.6904 18.3602 11.6599 18.5127 11.6599 18.6667C11.6599 18.8207 11.6904 18.9732 11.7496 19.1153C11.8089 19.2575 11.8957 19.3865 12.005 19.495C12.1135 19.6044 12.2425 19.6911 12.3847 19.7504C12.5268 19.8096 12.6793 19.8401 12.8333 19.8401C12.9874 19.8401 13.1398 19.8096 13.282 19.7504C13.4242 19.6911 13.5532 19.6044 13.6617 19.495L18.3283 14.8283C18.4346 14.7174 18.5178 14.5865 18.5733 14.4433C18.69 14.1593 18.69 13.8407 18.5733 13.5567C18.5178 13.4135 18.4346 13.2826 18.3283 13.1717L13.6617 8.505C13.5529 8.39623 13.4238 8.30994 13.2816 8.25107C13.1395 8.1922 12.9872 8.1619 12.8333 8.1619C12.6795 8.1619 12.5272 8.1922 12.3851 8.25107C12.2429 8.30994 12.1138 8.39623 12.005 8.505C11.8962 8.61378 11.8099 8.74292 11.7511 8.88505C11.6922 9.02717 11.6619 9.1795 11.6619 9.33334C11.6619 9.48717 11.6922 9.6395 11.7511 9.78163C11.8099 9.92375 11.8962 10.0529 12.005 10.1617L14.6883 12.8333H3.50001C3.19059 12.8333 2.89384 12.9563 2.67505 13.175C2.45626 13.3938 2.33334 13.6906 2.33334 14C2.33334 14.3094 2.45626 14.6062 2.67505 14.825C2.89384 15.0438 3.19059 15.1667 3.50001 15.1667H14.6883ZM14 2.33334C11.8196 2.3236 9.68013 2.92509 7.82422 4.06956C5.96832 5.21404 4.47027 6.8557 3.50001 8.80834C3.36077 9.08681 3.33786 9.4092 3.43632 9.70457C3.53477 9.99994 3.74653 10.2441 4.02501 10.3833C4.30349 10.5226 4.62587 10.5455 4.92124 10.447C5.21661 10.3486 5.46077 10.1368 5.60001 9.85834C6.33757 8.36888 7.45948 7.10339 8.84982 6.19266C10.2402 5.28192 11.8485 4.75898 13.5086 4.67786C15.1686 4.59675 16.8203 4.96041 18.2928 5.73127C19.7653 6.50212 21.0052 7.65221 21.8845 9.06267C22.7637 10.4731 23.2504 12.0928 23.2941 13.7543C23.3379 15.4158 22.9372 17.0588 22.1334 18.5136C21.3297 19.9684 20.152 21.1822 18.7221 22.0295C17.2923 22.8768 15.6621 23.3269 14 23.3333C12.2604 23.3409 10.5539 22.8578 9.07632 21.9395C7.59878 21.0212 6.41009 19.7049 5.64668 18.1417C5.50744 17.8632 5.26328 17.6514 4.96791 17.553C4.67254 17.4545 4.35015 17.4774 4.07168 17.6167C3.7932 17.7559 3.58144 18.0001 3.48298 18.2954C3.38453 18.5908 3.40744 18.9132 3.54668 19.1917C4.47164 21.0531 5.87712 22.6336 7.61773 23.7697C9.35833 24.9058 11.3709 25.5563 13.4472 25.6538C15.5234 25.7513 17.5881 25.2924 19.4275 24.3244C21.2669 23.3565 22.8144 21.9147 23.9098 20.1481C25.0051 18.3816 25.6087 16.3545 25.6579 14.2765C25.7072 12.1985 25.2004 10.1451 24.19 8.32864C23.1795 6.51219 21.7022 4.99867 19.9107 3.94463C18.1192 2.89059 16.0786 2.33431 14 2.33334Z" fill="#2945FF"/>
</svg>
