<svg width="327" height="96" viewBox="0 0 327 96" fill="none" xmlns="http://www.w3.org/2000/svg">
<path d="M277.52 30.905C277.52 30.3499 277.878 30.1018 278.359 30.1018C278.617 30.1018 278.807 30.1609 278.975 30.2436V28.46C278.717 28.3301 278.359 28.2592 277.99 28.2592C276.413 28.2592 275.485 29.2396 275.485 30.8578V31.0114H274.735V32.7477H275.485V36.9172H277.52V32.7477H278.896V31.0114H277.52V30.905Z" fill="#333333"/>
<path d="M281.76 36.9176V31.0118H279.713V36.9176H281.76ZM281.883 29.3463C281.883 28.7085 281.38 28.1533 280.731 28.1533C280.105 28.1533 279.59 28.6967 279.59 29.3463C279.59 29.996 280.105 30.5393 280.731 30.5393C281.38 30.5393 281.883 29.9841 281.883 29.3463Z" fill="#333333"/>
<path d="M284.643 33.7757C284.643 33.1615 284.933 32.819 285.381 32.819C285.828 32.819 286.097 33.1497 286.097 33.7521V36.9177H288.144V33.1615C288.144 31.7323 287.406 30.8464 286.197 30.8464C285.515 30.8464 284.956 31.1535 284.643 31.7323V31.0118H282.596V36.9177H284.643V33.7757Z" fill="#333333"/>
<path d="M291.491 30.8937C289.799 30.8937 288.714 32.4411 288.714 33.9884C288.714 35.7129 289.904 37.0831 291.468 37.0831C292.635 37.0831 293.078 36.3626 293.078 36.3626V36.9295H295.05V31.0355H293.078V31.567C293.078 31.567 292.577 30.8937 291.491 30.8937ZM291.911 32.7954C292.705 32.7954 293.102 33.4215 293.102 33.9884C293.102 34.6026 292.67 35.205 291.911 35.205C291.293 35.205 290.721 34.6853 290.721 34.012C290.721 33.3388 291.176 32.7954 291.911 32.7954Z" fill="#333333"/>
<path d="M298.066 33.7757C298.066 33.1615 298.356 32.819 298.804 32.819C299.251 32.819 299.52 33.1497 299.52 33.7521V36.9177H301.567V33.1615C301.567 31.7323 300.829 30.8464 299.621 30.8464C298.938 30.8464 298.379 31.1535 298.066 31.7323V31.0118H296.019V36.9177H298.066V33.7757Z" fill="#333333"/>
<path d="M302.171 33.9647C302.171 35.8782 303.469 37.083 305.158 37.083C305.594 37.083 306.064 36.9885 306.5 36.7523V34.7916C306.187 35.0278 305.851 35.1459 305.482 35.1459C304.766 35.1459 304.24 34.6734 304.24 33.9647C304.24 33.256 304.766 32.7836 305.482 32.7836C305.84 32.7836 306.176 32.8899 306.5 33.1143V31.1535C306.109 30.9527 305.628 30.8464 305.191 30.8464C303.435 30.8464 302.171 32.1575 302.171 33.9647Z" fill="#333333"/>
<path d="M310.953 34.8388C310.741 35.205 310.472 35.3585 310.025 35.3585C309.488 35.3585 309.04 35.016 308.996 34.5081H312.866C312.877 34.4018 312.888 34.26 312.888 34.071C312.888 32.1221 311.714 30.8464 309.969 30.8464C308.28 30.8464 306.993 32.1812 306.993 33.9647C306.993 35.8192 308.246 37.083 310.036 37.083C311.3 37.083 312.251 36.5161 312.709 35.4885L310.953 34.8388ZM309.007 33.2678C309.052 32.8308 309.432 32.5001 309.958 32.5001C310.483 32.5001 310.864 32.8072 310.908 33.2678H309.007Z" fill="#333333"/>
<path d="M250 15.9359H254.028L256.373 22.0022L258.749 15.9359H262.671L256.766 30.2969H252.819L254.435 26.4915L250 15.9359Z" fill="#333333"/>
<path d="M266.757 15.6943C263.73 15.6943 261.817 18.4383 261.817 21.1709C261.817 24.2458 263.915 26.6837 266.699 26.6837C268.776 26.6837 269.56 25.4042 269.56 25.4042V26.4009H273.073V15.9359H269.56V16.8873C269.56 16.8873 268.686 15.6943 266.757 15.6943ZM267.504 19.0574C268.9 19.0574 269.621 20.1744 269.621 21.1824C269.621 22.2677 268.849 23.3329 267.504 23.3329C266.389 23.3329 265.382 22.4119 265.382 21.2286C265.382 20.0285 266.192 19.0574 267.504 19.0574Z" fill="#333333"/>
<path d="M274.283 26.4009V11.3149H277.957V16.9235C277.957 16.9235 278.83 15.6957 280.658 15.6957C282.894 15.6957 284.204 17.3799 284.204 19.7866V26.4009H280.556V20.6927C280.556 19.8782 280.173 19.0914 279.303 19.0914C278.419 19.0914 277.957 19.8901 277.957 20.6927V26.4009H274.283Z" fill="#333333"/>
<path d="M290.469 15.6955C287.003 15.6955 284.94 18.3598 284.94 21.2143C284.94 24.4629 287.438 26.6836 290.482 26.6836C293.433 26.6836 296.014 24.5636 296.014 21.2688C296.014 17.6637 293.311 15.6955 290.469 15.6955ZM290.502 19.0881C291.727 19.0881 292.574 20.1189 292.574 21.2182C292.574 22.1558 291.784 23.3123 290.502 23.3123C289.328 23.3123 288.446 22.3596 288.446 21.208C288.446 20.0985 289.179 19.0881 290.502 19.0881Z" fill="#333333"/>
<path d="M302.136 15.6955C298.67 15.6955 296.607 18.3598 296.607 21.2143C296.607 24.4629 299.105 26.6836 302.149 26.6836C305.099 26.6836 307.681 24.5636 307.681 21.2688C307.681 17.6637 304.978 15.6955 302.136 15.6955ZM302.169 19.0881C303.393 19.0881 304.24 20.1189 304.24 21.2182C304.24 22.1558 303.451 23.3123 302.169 23.3123C300.994 23.3123 300.113 22.3596 300.113 21.208C300.113 20.0985 300.846 19.0881 302.169 19.0881Z" fill="#333333"/>
<path d="M310.58 26.6232C311.928 26.6232 313.021 25.5188 313.021 24.1564C313.021 22.794 311.928 21.6896 310.58 21.6896C309.233 21.6896 308.14 22.794 308.14 24.1564C308.14 25.5188 309.233 26.6232 310.58 26.6232Z" fill="#333333"/>
<path d="M313.822 20.7833H309.43L313.328 11.3149H317.705L313.822 20.7833Z" fill="#333333"/>
<path d="M25.4284 3.8852C24.6355 1.90281 22.704 -0.238151 19.0863 0.0559586C14.4779 0.557624 13.0418 4.98003 13.7384 7.6183C11.9029 6.37376 8.782 5.82653 6.05794 8.16313C2.54071 11.6937 4.42204 16.4683 6.35556 17.6136C4.22464 17.4161 0.856771 18.8579 0.111725 22.6297C-0.680856 27.3126 2.88413 30.0426 6.35556 30.0426H44.8498C48.864 30.0426 51.0912 26.5651 50.8414 23.2855C50.4476 19.0053 46.5362 17.3631 44.4026 17.715C46.1852 16.7191 48.5658 12.0409 44.9458 8.3632C42.0722 5.62617 38.4091 6.62209 37.121 7.81582C37.8153 5.52937 36.6767 0.80297 32.0161 0.0554499C31.6939 0.0193312 31.3837 0 31.0881 0C27.5303 0.000508715 25.9305 2.60484 25.4284 3.8852Z" fill="#F2F2F2"/>
<path d="M6.69895 8.90822C4.66665 10.7505 3.92698 14.9249 7.59059 17.3651L22.2064 27.4063L15.1196 11.1483C13.6346 7.3118 9.57208 6.47519 6.69895 8.90822Z" fill="#333333"/>
<path d="M19.2803 1.00354C16.9045 1.05202 13.337 3.88505 14.9246 8.21116L22.2542 25.521L24.8298 7.31437C25.4258 2.79044 22.0069 0.702094 19.2803 1.00354Z" fill="#333333"/>
<path d="M25.9738 6.62015H27.3598C27.3598 6.62015 28.0999 6.62015 28.2006 6.96978C27.6552 7.41578 26.1707 7.47167 26.3678 9.85398L28.6977 25.5187L35.9772 8.16345C37.4662 4.28835 34.3408 1.05205 31.5684 0.95314C31.439 0.943837 31.309 0.936279 31.1744 0.936279C28.6861 0.936207 25.8345 2.74716 25.9738 6.62015Z" fill="#333333"/>
<path d="M35.684 11.2958L28.7988 27.3587L43.4102 17.2645C46.7784 14.8722 46.2352 11.0476 44.3498 9.15706C43.5594 8.26724 42.1081 7.5799 40.5708 7.5799C38.7545 7.57953 36.8108 8.5442 35.684 11.2958Z" fill="#333333"/>
<path d="M41.7743 19.5501L28.0524 29.1478H44.948C48.4144 29.1478 50.642 25.569 49.6517 22.2847C48.9885 20.2203 47.0262 18.5999 44.7486 18.5975C43.7899 18.5979 42.7732 18.8871 41.7743 19.5501Z" fill="#333333"/>
<path d="M6.30539 29.148H22.9518L9.22635 19.5502C6.05545 17.5101 2.49003 18.7038 1.20285 22.0893C0.111775 25.9648 2.83599 29.148 6.30539 29.148Z" fill="#333333"/>
<path d="M12.6648 37.5557C12.6648 38.5455 11.1811 40.704 6.48341 40.704C1.38813 40.704 0.0537109 37.7287 0.0537109 36.0941C0.0537109 34.7317 1.38813 31.563 6.48341 31.563C11.5762 31.563 12.6648 33.6911 12.6648 34.682H9.02793C9.02793 34.682 8.85521 33.5436 6.80361 33.5436C4.75071 33.5436 4.19551 35.1668 4.19551 36.1552C4.19551 37.1474 4.75071 38.8633 6.80361 38.8633C8.85136 38.8633 9.02728 37.5607 9.02793 37.5557H12.6648ZM50.8067 37.5557C50.8067 38.5455 49.3224 40.704 44.6252 40.704C39.5313 40.704 38.1955 37.7287 38.1955 36.0941C38.1955 34.7317 39.5313 31.563 44.6252 31.563C49.7193 31.563 50.8067 33.6911 50.8067 34.682H47.1724C47.1724 34.682 46.9988 33.5436 44.9467 33.5436C42.8936 33.5436 42.3378 35.1668 42.3378 36.1552C42.3378 37.1474 42.8936 38.8633 44.9467 38.8633C46.995 38.8633 47.1717 37.5607 47.1724 37.5557H50.8067ZM33.4852 31.7156C34.029 31.7156 37.5723 31.8861 37.5723 33.7916C37.5723 35.1298 36.3299 35.8206 35.7356 35.8206C35.7356 35.8206 37.8867 36.169 37.8867 37.8279C37.8867 39.4867 36.6253 40.4801 33.4852 40.4801H26.9563V31.7156H33.4852ZM22.6045 37.249V31.7156H25.8689V40.4801H21.0333L16.8748 34.8831V40.4801H13.6106V31.7156H18.3719L22.6045 37.249ZM33.0644 38.3978V38.3862C33.6451 38.3862 34.1145 38.0303 34.1145 37.5913C34.1145 37.1511 33.6451 36.7937 33.0644 36.7937V36.7885H30.3446V38.3978H33.0644ZM32.9902 34.7318V34.7278C33.4342 34.7278 33.7943 34.4379 33.7943 34.0765C33.7943 33.7164 33.4342 33.4239 32.9902 33.4239V33.4202H30.3696V34.7318H32.9902Z" fill="#333333"/>
<path d="M154.036 19.7668C153.447 19.7668 153.124 19.8238 152.649 20.0517C151.776 20.4505 151.13 21.0963 150.56 22.1409L150.37 22.4638L150.389 21.875C150.408 21.5522 150.427 20.9634 150.446 20.5455L150.465 19.8048H150.332C150.18 19.8048 145.166 20.8114 145.014 20.8684C144.919 20.9064 144.9 20.9444 144.9 21.1913C144.9 21.4382 144.919 21.4762 145.014 21.4952C145.071 21.5142 145.299 21.5522 145.527 21.5901C145.964 21.6661 146.097 21.7421 146.287 21.989C146.628 22.4258 146.685 23.2236 146.685 26.5474C146.685 29.2634 146.628 30.6309 146.496 31.0488C146.344 31.5616 146.059 31.8275 145.565 31.9225C145.413 31.9605 145.204 31.9984 145.109 32.0174L144.938 32.0554L144.919 32.3973C144.9 32.6442 144.919 32.7582 144.976 32.7962C145.014 32.8152 146.723 32.8342 148.775 32.8342L152.516 32.8152L152.535 32.4163C152.535 32.2074 152.535 32.0174 152.516 32.0174C152.231 32.0174 151.339 31.9035 151.187 31.8275C150.769 31.6566 150.56 31.2767 150.465 30.498C150.37 29.6053 150.294 27.3451 150.332 25.5217C150.37 23.6604 150.37 23.6604 150.484 23.5275C150.75 23.2426 151.434 23.0146 152.061 23.0146C152.554 23.0146 153.067 23.1476 153.599 23.3945C153.865 23.5275 154.093 23.6034 154.131 23.6034C154.207 23.5844 155.422 20.3366 155.422 20.1846C155.422 19.9947 154.72 19.7668 154.036 19.7668Z" fill="#333333"/>
<path d="M144.919 25.4077C144.653 23.1665 143.704 21.5331 142.127 20.6024C140.38 19.5768 137.74 19.5198 135.859 20.4695C134.492 21.1532 133.39 22.4638 132.896 23.9832C132.384 25.5407 132.384 27.592 132.896 29.1684C133.219 30.194 133.656 30.9348 134.34 31.5995C135.157 32.4163 136.22 32.9291 137.455 33.1C137.892 33.157 139.278 33.157 139.734 33.1C139.943 33.062 140.323 32.9861 140.551 32.9291C142.773 32.2833 144.292 30.5739 144.805 28.1428C144.938 27.535 144.995 26.0915 144.919 25.4077ZM139.297 32.1314C137.911 32.5492 136.923 31.2197 136.543 28.4657C136.41 27.573 136.429 25.1418 136.543 24.1352C136.809 21.913 137.493 20.7924 138.575 20.7924C139.069 20.7924 139.335 20.9063 139.715 21.2862C140.627 22.1979 141.045 23.9453 141.045 26.6803C141.045 28.8645 140.817 30.232 140.342 31.1627C140.095 31.5995 139.658 32.0174 139.297 32.1314Z" fill="#333333"/>
<path d="M126.686 16.4808H128.281C130.104 16.4808 130.408 16.5188 131.054 16.8417C131.985 17.2975 132.669 18.2092 133.276 19.8046C133.523 20.4504 133.523 20.4504 134.055 20.2795L134.416 20.1655L134.378 17.8293C134.359 16.5378 134.321 15.3982 134.321 15.3032L134.283 15.0943L127.312 15.0753C123.476 15.0753 120.266 15.0753 120.171 15.0943L120 15.1323L120.019 15.5501L120.038 15.968L120.57 16.025C121.254 16.101 121.671 16.3099 121.918 16.6518C122.469 17.4495 122.564 18.5511 122.564 23.7362C122.564 29.2633 122.45 30.6118 121.918 31.2956C121.652 31.6564 121.424 31.7704 120.798 31.8844C119.981 32.0363 120.019 32.0173 120.019 32.4352C120.019 32.6631 120.038 32.796 120.076 32.815C120.171 32.853 129.079 32.853 129.174 32.815C129.288 32.777 129.288 32.1123 129.174 32.0553C129.117 32.0363 128.832 31.9793 128.509 31.9223C128.186 31.8654 127.844 31.7894 127.73 31.7514C127.141 31.5045 126.819 30.8017 126.705 29.5292C126.61 28.6175 126.553 26.9271 126.553 25.6926V24.553L127.103 24.5719C128.262 24.6099 128.851 24.6669 129.098 24.7809C129.63 25.0088 130.047 25.6546 130.256 26.5662L130.37 27.0411L130.788 27.0601L131.206 27.0791V21.0012L130.788 21.0202L130.37 21.0392L130.256 21.514C130.028 22.4447 129.649 23.0145 129.079 23.2804C128.851 23.3944 128.68 23.4134 128.148 23.4513C127.787 23.4703 127.274 23.4893 127.028 23.4893H126.553V21.9889C126.553 20.4884 126.629 17.2785 126.686 16.7847V16.4808Z" fill="#333333"/>
<path d="M189.952 27.1931C189.534 26.3384 188.737 25.7686 187.103 25.0848C185.774 24.534 185.09 24.1352 184.691 23.6983C184.349 23.3375 184.254 23.0336 184.292 22.5018C184.33 22.0079 184.444 21.704 184.767 21.3622C185.166 20.9253 185.736 20.7734 186.4 20.9253C187.483 21.1532 188.186 21.913 188.794 23.5084C189.002 24.0782 189.04 24.0972 189.42 23.9452L189.667 23.8503V23.1855C189.667 22.8246 189.648 22.0649 189.629 21.4951L189.591 20.4695L189.401 20.3935C188.395 19.9757 186.495 19.7097 185.261 19.8237C183.855 19.9567 182.811 20.3935 182.013 21.2292C181.215 22.0459 180.854 23.0146 180.93 24.1542C180.987 25.1038 181.253 25.7686 181.842 26.3764C182.374 26.9272 182.83 27.1931 184.14 27.7059C186.229 28.5226 186.799 29.0164 186.78 30.0231C186.78 30.8778 186.324 31.5046 185.508 31.7895C185.204 31.8844 184.463 31.8844 184.064 31.7895C183.02 31.5236 182.222 30.6119 181.538 28.9405L181.367 28.5036L181.158 28.5226C181.044 28.5226 180.892 28.5606 180.816 28.5986L180.683 28.6746L180.702 29.4153C180.702 29.8142 180.721 30.6689 180.74 31.2956L180.778 32.4542L181.006 32.5492C181.481 32.7581 182.925 33.062 183.817 33.157C183.931 33.176 184.539 33.176 185.185 33.157C186.286 33.138 186.381 33.138 186.932 32.986C188.585 32.5492 189.648 31.6375 190.123 30.251C190.275 29.8142 190.294 29.7002 190.313 29.0544C190.294 28.1807 190.218 27.7439 189.952 27.1931Z" fill="#333333"/>
<path d="M177.208 20.2796C175.821 19.5769 173.675 19.6339 172.118 20.3936C170.636 21.1153 169.611 22.3309 169.041 24.0403C168.737 24.933 168.642 25.6357 168.68 26.7943C168.699 27.5161 168.737 27.8959 168.813 28.2378C169.402 30.8589 171.187 32.6253 173.694 33.0811C174.245 33.1761 175.498 33.1761 176.049 33.0811C176.847 32.9481 177.759 32.5873 178.347 32.1884C179.05 31.7136 179.772 30.9918 179.772 30.7639C179.772 30.631 179.525 30.3081 179.43 30.3081C179.392 30.3081 179.183 30.403 178.993 30.536C178.309 30.9918 177.645 31.1628 176.714 31.1628C175.441 31.1628 174.644 30.8399 173.827 30.0232C173.466 29.6623 173.314 29.4724 173.143 29.1115C172.744 28.3328 172.517 27.4211 172.479 26.3955L172.46 25.9586L176.201 25.9396L179.943 25.9206L179.962 25.6737C179.962 25.5408 179.962 25.1799 179.924 24.857C179.696 22.6348 178.765 21.0774 177.208 20.2796ZM173.447 24.895L172.498 24.914V24.7051C172.498 24.5911 172.535 24.2872 172.573 24.0403C172.896 22.008 173.656 20.7925 174.606 20.7925C175.479 20.7925 176.011 21.989 176.125 24.1922L176.163 24.819L175.29 24.857C174.796 24.857 173.96 24.876 173.447 24.895Z" fill="#333333"/>
<path d="M163.666 20.0517C163.362 19.9947 163.096 19.9757 162.526 19.9947C161.652 20.0327 161.063 20.1466 160.399 20.4505C160.19 20.5455 160 20.6405 159.981 20.6405C159.962 20.6405 159.962 19.3299 159.981 17.7155C160 15.4363 160 14.7905 159.943 14.7905C159.772 14.7905 154.625 15.7782 154.568 15.8162C154.53 15.8542 154.511 15.9681 154.511 16.1201C154.53 16.405 154.492 16.386 155.119 16.5189C155.309 16.5569 155.536 16.6519 155.612 16.7088C155.821 16.8608 155.992 17.1837 156.125 17.6395C156.22 18.0004 156.239 18.2663 156.277 20.7354C156.315 23.2615 156.315 25.8636 156.239 30.6119L156.201 32.5872L156.562 32.6632C157.094 32.7771 158.632 33.0431 159.126 33.1C159.867 33.176 161.576 33.157 162.127 33.081C164.501 32.7202 166.287 31.3527 167.122 29.2444C167.35 28.6936 167.559 27.8199 167.635 27.1931C167.73 26.4524 167.673 24.9519 167.54 24.3441C167.046 22.046 165.603 20.4505 163.666 20.0517ZM160.057 31.9604C160 31.7895 159.924 25.8636 159.943 23.5084L159.962 21.6661L160.304 21.5711C160.532 21.5141 160.798 21.4762 161.101 21.4762C161.538 21.4762 161.576 21.4951 161.937 21.6661C162.811 22.1029 163.4 23.1666 163.685 24.781C163.78 25.3888 163.799 27.0222 163.704 27.7439C163.476 29.5103 162.906 30.9348 162.127 31.6186C161.823 31.8845 161.538 32.0364 161.177 32.1124C160.912 32.1694 160.836 32.1694 160.342 32.1314C160.152 32.0934 160.114 32.0744 160.057 31.9604Z" fill="#333333"/>
<path d="M12.2898 76.9058H16.6927C16.7887 76.9058 16.8573 76.9733 16.8573 77.0678V81.7262C16.8573 81.8207 16.9259 81.8882 17.0082 81.9017C17.0631 81.9017 17.1179 81.8882 17.1454 81.8477C17.8723 81.0646 18.9285 80.4299 20.3413 80.4299C22.7416 80.4299 24.2367 81.9962 24.2367 84.5077V91.7316C24.2367 91.8261 24.1681 91.8936 24.0721 91.8936H19.6692C19.5732 91.8936 19.5046 91.8261 19.5046 91.7316V86.0065C19.5046 85.0478 18.9148 84.4807 18.2152 84.4807C17.5157 84.4807 16.8573 85.0343 16.8573 86.0065V91.7316C16.8573 91.8261 16.7887 91.8936 16.6927 91.8936H12.2898C12.1938 91.8936 12.1252 91.8261 12.1252 91.7316V77.0678C12.1252 76.9868 12.1938 76.9058 12.2898 76.9058Z" fill="#333333"/>
<path d="M74.1644 80.6865H78.5674C78.6634 80.6865 78.732 80.754 78.732 80.8485V82.2258C78.732 82.3203 78.8006 82.3878 78.8829 82.4013C78.9514 82.4013 79.02 82.3743 79.0475 82.3068C79.6784 81.1996 80.6248 80.4974 82.1336 80.5109C82.2297 80.5109 82.2982 80.5784 82.2982 80.673V85.2908C82.2982 85.3854 82.2297 85.4529 82.1336 85.4529H81.8044C79.8019 85.4529 78.7457 86.5466 78.7457 89.0311V91.7181C78.7457 91.8126 78.6771 91.8801 78.5811 91.8801H74.1781C74.0821 91.8801 74.0135 91.8126 74.0135 91.7181V80.8485C74.0135 80.7675 74.0821 80.6865 74.1644 80.6865Z" fill="#333333"/>
<path d="M72.3813 81.9558C71.38 80.9701 69.8849 80.4975 67.5669 80.4975C65.6603 80.4975 64.1926 80.8081 62.917 81.2671C62.8347 81.2941 62.7936 81.3887 62.8073 81.4697L63.548 84.2512C63.5754 84.3322 63.6577 84.3862 63.74 84.3727C63.7537 84.3727 63.7537 84.3727 63.7674 84.3592C64.7139 84.0082 65.6466 83.7921 66.7439 83.7921C68.1978 83.7921 68.8562 84.3862 68.8562 85.4124C68.8562 85.48 68.8013 85.5475 68.719 85.5475C68.7053 85.5475 68.6916 85.5475 68.6779 85.5475C68.1018 85.3584 67.0182 85.1964 66.1541 85.1964C63.5068 85.1964 61.8197 86.4521 61.8197 88.6801V88.7206C61.8197 90.935 63.3559 92.1637 65.5506 92.1637C66.8125 92.1637 67.7863 91.7317 68.5407 91.043C68.6093 90.9755 68.7053 90.9755 68.7739 91.043C68.8013 91.07 68.8288 91.124 68.8288 91.1645V91.7317C68.8288 91.8262 68.8973 91.8937 68.9934 91.8937H73.3963C73.4923 91.8937 73.5609 91.8262 73.5609 91.7317V85.507C73.5746 83.8866 73.2317 82.8064 72.3813 81.9558ZM67.4708 89.6658C66.689 89.6658 66.0443 89.0311 66.0443 88.2615C66.0443 87.4918 66.689 86.8572 67.4708 86.8572C68.2527 86.8572 68.8973 87.4918 68.8973 88.2615C68.8973 89.0311 68.2664 89.6658 67.4708 89.6658Z" fill="#333333"/>
<path d="M61.7373 76.9058H57.3343C57.2383 76.9058 57.1697 76.9733 57.1697 77.0678V81.5371C57.1697 81.6317 57.1011 81.6992 57.0188 81.7127C56.964 81.7127 56.9228 81.6992 56.8954 81.6587C56.1958 80.9835 55.2769 80.4164 53.7543 80.4164C51.0659 80.4164 48.8987 82.7794 48.8987 86.3306V86.3711C48.8987 89.8007 51.0522 92.1637 53.7955 92.1637C55.5237 92.1637 56.4016 91.34 57.1697 90.5164V91.7316C57.1697 91.8261 57.2383 91.8936 57.3343 91.8936H61.7373C61.8333 91.8936 61.9019 91.8261 61.9019 91.7316V77.0678C61.9019 76.9868 61.8333 76.9058 61.7373 76.9058ZM55.5649 87.7753C54.6322 87.7753 53.8915 87.0327 53.8915 86.128C53.8915 85.2234 54.6459 84.4807 55.5649 84.4807C56.4976 84.4807 57.2383 85.2234 57.2383 86.128C57.252 87.0327 56.4976 87.7753 55.5649 87.7753Z" fill="#333333"/>
<path d="M48.499 77.0947H44.096C44 77.0947 43.9314 77.1622 43.9314 77.2568V81.7261C43.9314 81.8206 43.8628 81.8881 43.7806 81.9016C43.7257 81.9016 43.6845 81.8881 43.6571 81.8476C42.9576 81.1725 42.0386 80.6054 40.5161 80.6054C37.8276 80.6054 35.6605 82.9684 35.6605 86.5195V86.56C35.6605 89.9897 37.8139 92.3527 40.5572 92.3527C42.2855 92.3527 43.1633 91.529 43.9314 90.7053V91.9206C43.9314 92.0151 44 92.0826 44.096 92.0826H48.499C48.595 92.0826 48.6636 92.0151 48.6636 91.9206V77.2568C48.6636 77.1757 48.595 77.0947 48.499 77.0947ZM42.4226 87.9643C41.4899 87.9643 40.7492 87.2217 40.7492 86.317C40.7492 85.4123 41.5036 84.6697 42.4226 84.6697C43.3553 84.6697 44.096 85.4123 44.096 86.317C44.096 87.2217 43.3416 87.9643 42.4226 87.9643Z" fill="#333333"/>
<path d="M35.4842 89.5171L33.1936 87.7213C33.125 87.6673 33.029 87.6673 32.9741 87.7348C32.2609 88.4234 31.5751 88.7745 30.7658 88.7745C29.8331 88.7745 29.0787 88.3424 28.7083 87.5052C28.6672 87.4242 28.7083 87.3297 28.7906 87.2892C28.8181 87.2757 28.8318 87.2757 28.8592 87.2757H35.9369C35.9643 87.0326 35.9643 86.7491 35.9643 86.4925C35.9643 83.0899 34.0852 80.3083 30.0388 80.3083C26.6235 80.3083 24.1819 82.8468 24.1819 86.1955V86.236C24.1819 89.7197 26.7058 92.0421 30.4366 92.0421C32.8233 92.0421 34.4006 91.0969 35.5254 89.7332C35.5665 89.6791 35.5665 89.5846 35.4842 89.5171C35.4979 89.5171 35.4979 89.5171 35.4842 89.5171ZM30.2994 83.8055C31.095 83.8055 31.7671 84.3861 31.8631 85.1693C31.8768 85.2638 31.8082 85.3448 31.7122 85.3448H31.6985H28.9141C28.8181 85.3448 28.7495 85.2773 28.7495 85.1828V85.1693C28.8318 84.3861 29.5039 83.8055 30.2994 83.8055Z" fill="#333333"/>
<path d="M8.14752 87.2486C8.06522 87.2081 7.96921 87.2216 7.92806 87.3026C7.48914 87.9372 7.02278 88.3018 6.24095 88.3018C5.34938 88.3018 4.62241 87.5321 4.55383 86.4384C4.55383 86.3844 4.55383 86.3439 4.55383 86.2899V86.2494C4.55383 85.1422 5.30823 84.278 6.30953 84.278C7.03649 84.278 7.51657 84.6426 7.90063 85.2637C7.94177 85.3447 8.05151 85.3717 8.12009 85.3177L11.2337 83.5894C11.3023 83.5489 11.3434 83.4544 11.3023 83.3733C10.4107 81.618 8.65503 80.4028 6.21351 80.4028C2.49638 80.4028 0 83.1303 0 86.2764V86.3169C0 86.3709 0 86.4114 0 86.4654C0.0822982 89.544 2.57868 92.15 5.98033 92.15C7.11879 92.15 8.09266 91.934 8.91564 91.5424C8.99793 91.5019 9.03908 91.4209 8.99793 91.3399C8.95679 91.2318 8.94307 91.1103 8.94307 90.9888C8.95679 90.3812 9.42314 89.8816 10.0267 89.8276C10.2461 89.8006 10.4793 89.8546 10.6713 89.9761C10.7399 90.0166 10.8359 90.0031 10.8908 89.9356C11.0417 89.7466 11.1788 89.544 11.3023 89.328L11.3709 89.22C11.412 89.1389 11.3983 89.0444 11.316 88.9904C11.316 88.9904 11.316 88.9904 11.3023 88.9904L8.14752 87.2486Z" fill="#333333"/>
<path d="M11.0005 90.827C10.3833 90.8945 9.91691 91.3941 9.9032 91.9882C9.9032 92.1502 9.94435 92.3123 10.0266 92.4608C10.6987 92.1232 11.2886 91.6371 11.7549 91.0565C11.5492 90.8945 11.2748 90.8 11.0005 90.827Z" fill="#333333"/>
<g clip-path="url(#clip0)">
<path fill-rule="evenodd" clip-rule="evenodd" d="M106.581 95.2598H108.256V86.0598H106.581V95.2598ZM112.721 95.1218H114.221V89.3171L120.535 95.2598V86.1978H119.039V91.9032L112.721 86.0598V95.1218ZM123.96 92.8936C124.776 93.5477 125.756 93.9258 126.807 93.9258C127.83 93.9258 128.548 93.5635 128.548 92.7635C128.548 92.0664 128.09 91.7932 127.288 91.4878L125.99 91.0242C124.794 90.5872 123.883 89.9489 123.883 88.482C123.883 86.9129 125.261 86.0598 126.909 86.0598C127.918 86.0598 128.838 86.3207 129.557 86.7828V88.3389C128.809 87.7711 127.992 87.3801 126.941 87.3801C126.036 87.3801 125.36 87.7273 125.36 88.451C125.36 89.1051 125.785 89.3667 126.532 89.6298L127.978 90.1516C129.38 90.6583 130.023 91.4439 130.023 92.7362C130.023 94.362 128.632 95.2598 126.807 95.2598C125.607 95.2598 124.587 94.9148 123.96 94.4792V92.8936ZM133.931 95.2598H135.605V86.0598H133.931V95.2598ZM143.459 93.8675C145.346 93.8675 146.355 92.6227 146.355 90.6576C146.355 88.6782 145.346 87.4376 143.459 87.4376H141.593V93.8675H143.459ZM140.069 86.0598H143.515C146.168 86.0598 147.883 87.8566 147.883 90.6576C147.883 93.4607 146.168 95.2598 143.515 95.2598H140.069V86.0598ZM156.256 86.0598V87.4376H152.204V89.6514H155.838V91.0134H152.203V93.8675H156.256V95.2598H150.674V86.0598H156.256ZM162.199 90.2256H163.861C164.844 90.2256 165.399 89.6708 165.399 88.8176C165.399 87.9645 164.844 87.4089 163.861 87.4089H162.199V90.2264V90.2256ZM162.199 91.5266V95.2598H160.721V86.0598H163.889C165.695 86.0598 166.864 87.0164 166.864 88.8176C166.864 90.3579 166.215 91.2427 164.833 91.4698L167.977 95.2598H166.295L163.251 91.5273H162.2L162.199 91.5266ZM105.996 76.9963C106.651 76.7498 107.161 76.0102 107.161 74.9932C107.161 73.2984 105.996 72.42 104.132 72.42H101V81.881H104.422C106.287 81.881 107.452 80.9408 107.452 79.1691C107.452 78.1672 106.84 77.2889 105.996 76.9963ZM102.471 76.3955V73.8072H104.118C105.152 73.8072 105.705 74.1925 105.705 75.0859C105.705 75.9793 105.152 76.3955 104.118 76.3955H102.471ZM102.471 77.7208H104.393C105.414 77.7208 105.967 78.2441 105.967 79.1073C105.967 79.9547 105.413 80.4945 104.394 80.4945H102.471V77.7201L102.471 77.7208ZM114.285 82.0348C116.426 82.0348 117.868 80.7094 117.868 78.1212V72.42H116.353V77.9357C116.353 79.7542 115.625 80.6023 114.285 80.6023C112.945 80.6023 112.217 79.7542 112.217 77.9357V72.42H110.703V78.1054C110.703 80.7094 112.159 82.0348 114.285 82.0348ZM121.435 81.2025C122.061 81.6653 123.081 82.0348 124.275 82.0348C126.096 82.0348 127.479 81.0788 127.479 79.3538C127.479 77.9825 126.839 77.1501 125.44 76.6111L123.999 76.0562C123.256 75.7795 122.833 75.502 122.833 74.8085C122.833 74.038 123.503 73.6685 124.406 73.6685C125.455 73.6685 126.271 74.084 127.014 74.6855V73.036C126.3 72.5437 125.382 72.2662 124.377 72.2662C122.731 72.2662 121.362 73.1755 121.362 74.8394C121.362 76.3955 122.265 77.0732 123.459 77.5354L124.756 78.0285C125.557 78.3519 126.008 78.6451 126.008 79.3847C126.008 80.2321 125.295 80.6174 124.275 80.6174C123.226 80.6174 122.25 80.2163 121.435 79.5235V81.2025ZM132.892 72.42H131.378V81.8802H132.892V72.42ZM137.213 81.8687H138.673V75.7141L144.816 82.0154V72.4057H143.36V78.4554L137.213 72.2598V81.8687ZM154.281 72.4222V73.8389H150.349V76.1159H153.875V77.5167H150.349V80.4514H154.281V81.8831H148.864V72.4222H154.281ZM157.808 81.196C158.434 81.6589 159.454 82.0283 160.648 82.0283C162.468 82.0283 163.853 81.0731 163.853 79.3474C163.853 77.976 163.211 77.1444 161.813 76.6046L160.371 76.0505C159.628 75.773 159.206 75.4956 159.206 74.802C159.206 74.0315 159.876 73.662 160.779 73.662C161.827 73.662 162.643 74.0782 163.386 74.6791V73.0303C162.673 72.5372 161.755 72.2598 160.75 72.2598C159.104 72.2598 157.735 73.169 157.735 74.8329C157.735 76.389 158.638 77.0668 159.832 77.5289L161.128 78.022C161.929 78.3454 162.381 78.6387 162.381 79.3783C162.381 80.2257 161.668 80.6109 160.647 80.6109C159.599 80.6109 158.623 80.2106 157.808 79.517V81.196ZM166.955 81.196C167.582 81.6589 168.602 82.0283 169.796 82.0283C171.617 82.0283 173 81.0731 173 79.3474C173 77.976 172.359 77.1444 170.961 76.6046L169.519 76.0505C168.776 75.773 168.354 75.4956 168.354 74.802C168.354 74.0315 169.024 73.662 169.926 73.662C170.975 73.662 171.791 74.0782 172.534 74.6791V73.0303C171.821 72.5372 170.903 72.2598 169.898 72.2598C168.251 72.2598 166.883 73.169 166.883 74.8329C166.883 76.389 167.786 77.0668 168.98 77.5289L170.277 78.022C171.078 78.3454 171.529 78.6387 171.529 79.3783C171.529 80.2257 170.816 80.6109 169.796 80.6109C168.747 80.6109 167.771 80.2106 166.955 79.517V81.196Z" fill="#333333"/>
</g>
<path d="M326.708 78.7994H324.616L324.354 76.4855C324.331 76.2833 324.16 76.1306 323.957 76.1306L321.627 76.13C321.466 76.13 321.335 76.2607 321.335 76.4222V78.7994L321.356 81.2853V85.5756C321.356 86.1202 321.416 86.6141 321.539 87.0566C321.661 87.4993 321.862 87.8806 322.14 88.2005C322.418 88.521 322.789 88.7661 323.251 88.936C323.712 89.1061 324.283 89.1914 324.962 89.1914C325.315 89.1914 325.669 89.1607 326.022 89.0997C326.274 89.0562 326.495 89.0072 326.685 88.9531C326.812 88.917 326.897 88.7991 326.895 88.6674L326.864 86.8233C326.861 86.64 326.692 86.5089 326.512 86.5437C326.476 86.5506 326.438 86.557 326.399 86.5628C326.215 86.5902 326.042 86.6036 325.879 86.6036C325.404 86.6036 325.074 86.4845 324.891 86.2457C324.708 86.007 324.616 85.6492 324.616 85.1719V81.2853H326.708C326.869 81.2853 327 81.1545 327 80.9933V79.0915C327 78.9302 326.869 78.7994 326.708 78.7994Z" fill="#333333"/>
<path d="M235.966 79.7305C235.674 79.3434 235.29 79.0275 234.815 78.783C234.352 78.5456 233.794 78.4244 233.141 78.4175L233.143 78.4163C233.132 78.4163 233.122 78.4169 233.112 78.4169C233.102 78.4169 233.092 78.4163 233.082 78.4163C233.046 78.4163 233.011 78.4189 232.975 78.4199C232.221 78.4382 231.576 78.5785 231.043 78.8441C230.556 79.087 230.162 79.3497 229.861 79.6318L229.664 78.985C229.613 78.8167 229.457 78.7016 229.281 78.7016L227.058 78.7015C226.896 78.7015 226.766 78.8323 226.766 78.9936V88.557C226.766 88.7183 226.896 88.8491 227.058 88.8491H229.836C229.997 88.8491 230.128 88.7183 230.128 88.5568V83.3473C230.128 83.062 230.165 82.7869 230.24 82.5221C230.314 82.2572 230.427 82.0228 230.576 81.8191C230.725 81.6153 230.912 81.4558 231.136 81.3402C231.361 81.225 231.622 81.1671 231.921 81.1671C232.22 81.1671 232.467 81.225 232.665 81.3402C232.861 81.4558 233.014 81.6122 233.123 81.8089C233.232 82.0061 233.31 82.2337 233.357 82.4914C233.405 82.7498 233.429 83.0213 233.429 83.3066V88.557C233.429 88.7183 233.56 88.8491 233.721 88.8491H236.499C236.66 88.8491 236.791 88.7183 236.791 88.557V82.573C236.791 82.0707 236.727 81.5679 236.597 81.0651C236.468 80.5628 236.258 80.1176 235.966 79.7305Z" fill="#333333"/>
<path d="M261.041 86.1388C260.742 85.9895 260.491 85.7924 260.287 85.5478C260.083 85.3034 259.931 85.0215 259.829 84.7022C259.727 84.3833 259.676 84.0604 259.676 83.7344C259.676 83.4082 259.727 83.0893 259.829 82.7766C259.931 82.4644 260.083 82.1893 260.287 81.9514C260.491 81.7139 260.742 81.5203 261.041 81.3707C261.34 81.2214 261.686 81.1466 262.08 81.1466C262.461 81.1466 262.8 81.2214 263.099 81.3707C263.398 81.5203 263.652 81.717 263.863 81.9616C264.074 82.2061 264.237 82.4847 264.353 82.797C264.468 83.1096 264.526 83.4288 264.526 83.7548C264.526 84.0808 264.468 84.4 264.353 84.7124C264.237 85.0251 264.074 85.3034 263.863 85.5478C263.652 85.7924 263.398 85.9895 263.099 86.1388C262.8 86.2884 262.461 86.363 262.08 86.363C261.686 86.363 261.34 86.2884 261.041 86.1388ZM267.433 74.7333H264.675C264.514 74.7333 264.383 74.8641 264.383 75.0253V79.7813H264.342C264.057 79.4419 263.656 79.1294 263.14 78.844C262.624 78.5588 261.992 78.4161 261.245 78.4161C260.512 78.4161 259.849 78.5588 259.258 78.844C258.667 79.1294 258.164 79.5164 257.75 80.0055C257.336 80.4944 257.017 81.0618 256.793 81.7068C256.568 82.3522 256.456 83.0282 256.456 83.7344C256.456 84.4409 256.565 85.12 256.782 85.772C257 86.424 257.315 86.998 257.73 87.4939C258.144 87.9898 258.65 88.3872 259.248 88.6859C259.846 88.9845 260.525 89.1342 261.286 89.1342C261.378 89.1342 261.468 89.1312 261.559 89.126C262.353 89.1089 263.03 88.9628 263.59 88.6839C264.071 88.4436 264.465 88.1844 264.772 87.9072L264.988 88.5723C265.041 88.7372 265.195 88.8489 265.368 88.8489H267.433C267.594 88.8489 267.725 88.7181 267.725 88.5569V75.0253C267.725 74.8641 267.594 74.7333 267.433 74.7333Z" fill="#333333"/>
<path d="M285.729 78.7015H282.897C282.766 78.7015 282.651 78.7892 282.616 78.9159L280.902 85.1201H280.862L279.048 78.9117C279.012 78.7871 278.898 78.7015 278.768 78.7015H275.846C275.715 78.7015 275.6 78.7883 275.565 78.9142L273.811 85.1201H273.75L272.056 78.9167C272.022 78.7897 271.906 78.7015 271.774 78.7015H268.801C268.6 78.7015 268.459 78.8993 268.525 79.089L271.828 88.6522C271.869 88.77 271.979 88.8491 272.104 88.8491H275.043C275.171 88.8491 275.284 88.7655 275.322 88.6433L277.214 82.5323H277.255L279.187 88.645C279.226 88.7665 279.339 88.8491 279.466 88.8491H282.406C282.531 88.8491 282.641 88.7703 282.682 88.6527L286.004 79.0894C286.07 78.8996 285.929 78.7015 285.729 78.7015Z" fill="#333333"/>
<path d="M302.552 74.7334H299.733C299.572 74.7334 299.441 74.8642 299.441 75.0255V88.557C299.441 88.7183 299.572 88.8491 299.733 88.8491H302.552C302.713 88.8491 302.844 88.7183 302.844 88.557V75.0255C302.844 74.8642 302.713 74.7334 302.552 74.7334Z" fill="#333333"/>
<path d="M308.134 74.7334H305.315C305.154 74.7334 305.023 74.8642 305.023 75.0255V88.557C305.023 88.7183 305.154 88.8491 305.315 88.8491H308.134C308.295 88.8491 308.426 88.7183 308.426 88.557V75.0255C308.426 74.8642 308.295 74.7334 308.134 74.7334Z" fill="#333333"/>
<path d="M289.859 85.5478C289.655 85.3034 289.502 85.0215 289.4 84.7022C289.299 84.3833 289.248 84.0604 289.248 83.7344C289.248 83.4082 289.299 83.0893 289.4 82.7766C289.502 82.4644 289.655 82.1893 289.859 81.9514C290.063 81.7139 290.314 81.5203 290.613 81.3707C290.911 81.2214 291.258 81.1466 291.652 81.1466C292.032 81.1466 292.372 81.2214 292.671 81.3707C292.97 81.5203 293.224 81.717 293.435 81.9616C293.646 82.2061 293.808 82.4847 293.924 82.797C294.04 83.1096 294.098 83.4288 294.098 83.7548C294.098 84.0808 294.04 84.4 293.924 84.7124C293.808 85.0251 293.646 85.3034 293.435 85.5478C293.224 85.7924 292.97 85.9895 292.671 86.1388C292.372 86.2884 292.032 86.363 291.652 86.363C291.258 86.363 290.911 86.2884 290.613 86.1388C290.314 85.9895 290.063 85.7924 289.859 85.5478ZM297.005 78.3545L294.676 78.354C294.499 78.354 294.343 78.4705 294.292 78.6405L294.02 79.5602C293.73 79.3051 293.363 79.0662 292.917 78.844C292.345 78.5588 291.645 78.4161 290.818 78.4161H290.817C290.083 78.4161 289.421 78.5588 288.83 78.844C288.239 79.1294 287.736 79.5164 287.322 80.0055C286.908 80.4944 286.589 81.0618 286.364 81.7068C286.14 82.3522 286.028 83.0282 286.028 83.7344C286.028 84.4409 286.137 85.12 286.354 85.772C286.571 86.424 286.887 86.998 287.302 87.4939C287.716 87.9898 288.222 88.3872 288.82 88.6859C289.418 88.9845 290.096 89.1342 290.857 89.1342C291.033 89.1342 291.205 89.1245 291.376 89.1059C291.998 89.0542 292.541 88.9143 293.003 88.6839C293.551 88.4109 293.984 88.1134 294.307 87.7925L294.56 88.5722C294.613 88.737 294.767 88.8486 294.94 88.8486L297.004 88.8489C297.166 88.8489 297.297 88.7181 297.297 88.5569V78.6465C297.297 78.4853 297.166 78.3545 297.005 78.3545Z" fill="#333333"/>
<path d="M256.099 78.4448L256.074 78.4401L256.112 78.4163C256.028 78.4163 255.946 78.4188 255.864 78.4217C255.796 78.4181 255.728 78.4163 255.659 78.4163C255.219 78.4163 254.817 78.4994 254.451 78.6621C254.298 78.7145 254.151 78.775 254.012 78.8441C253.473 79.113 253.049 79.4062 252.737 79.7232L252.532 79.0042C252.483 78.8323 252.326 78.7138 252.148 78.7138L249.94 78.7135C249.779 78.7135 249.648 78.8443 249.648 79.0056V88.557C249.648 88.7183 249.779 88.8491 249.94 88.8491H252.698C252.859 88.8491 252.99 88.7183 252.99 88.557V83.6467C252.99 83.4435 253.031 83.2065 253.112 82.9357C253.194 82.6648 253.326 82.4142 253.51 82.1837C253.693 81.9534 253.937 81.757 254.243 81.5943C254.549 81.432 254.925 81.3504 255.374 81.3504C255.51 81.3504 255.649 81.3574 255.792 81.3708L255.926 81.3876C256.087 81.4033 256.23 81.2859 256.245 81.1253L256.357 78.767C256.375 78.6067 256.259 78.4624 256.099 78.4448Z" fill="#333333"/>
<path d="M241.104 82.6138C241.118 82.3558 241.186 82.1078 241.308 81.87C241.431 81.6326 241.593 81.4253 241.797 81.2485C242.001 81.0722 242.239 80.9327 242.51 80.8309C242.782 80.729 243.081 80.678 243.407 80.678C244.073 80.678 244.572 80.8685 244.905 81.2485C245.237 81.629 245.404 82.084 245.404 82.6138H241.104ZM247.055 79.8426C246.606 79.3674 246.069 79.0041 245.445 78.7525C244.82 78.5013 244.134 78.3756 243.387 78.3756C242.612 78.3756 241.892 78.5048 241.227 78.7627C240.561 79.0208 239.984 79.3841 239.494 79.8528C239.006 80.3214 238.618 80.892 238.333 81.5644C238.048 82.2369 237.905 82.9877 237.905 83.816C237.905 84.6719 238.051 85.4329 238.343 86.0982C238.636 86.764 239.036 87.3242 239.546 87.7793C240.055 88.2346 240.649 88.5809 241.329 88.8185C242.008 89.0561 242.728 89.175 243.489 89.175C244.521 89.175 245.428 88.9882 246.209 88.6146C246.686 88.3861 247.107 88.0981 247.47 87.7501C247.609 87.6178 247.61 87.3966 247.475 87.261L246.032 85.8104C245.9 85.6777 245.682 85.672 245.552 85.8063C245.36 86.004 245.134 86.1727 244.874 86.3121C244.507 86.5092 244.059 86.6075 243.53 86.6075C243.23 86.6075 242.942 86.5601 242.663 86.465C242.385 86.3701 242.134 86.2377 241.909 86.0676C241.685 85.8979 241.502 85.6976 241.359 85.4665C241.217 85.2357 241.131 84.9775 241.104 84.6922H248.461C248.474 84.57 248.481 84.4411 248.481 84.305C248.481 84.1694 248.481 84.0335 248.481 83.8976C248.481 83.0283 248.355 82.2541 248.104 81.5747C247.852 80.8954 247.503 80.3183 247.055 79.8426Z" fill="#333333"/>
<path d="M312.891 82.6138C312.905 82.3558 312.973 82.1078 313.095 81.87C313.217 81.6326 313.38 81.4253 313.584 81.2485C313.788 81.0722 314.025 80.9327 314.297 80.8309C314.569 80.729 314.868 80.678 315.194 80.678C315.859 80.678 316.359 80.8685 316.691 81.2485C317.024 81.629 317.191 82.084 317.191 82.6138H312.891ZM318.841 79.8426C318.393 79.3674 317.856 79.0041 317.232 78.7525C316.607 78.5013 315.92 78.3756 315.173 78.3756C314.399 78.3756 313.679 78.5048 313.014 78.7627C312.348 79.0208 311.771 79.3841 311.281 79.8528C310.792 80.3214 310.405 80.892 310.12 81.5644C309.835 82.2369 309.692 82.9877 309.692 83.816C309.692 84.6719 309.838 85.4329 310.13 86.0982C310.422 86.764 310.823 87.3242 311.333 87.7793C311.842 88.2346 312.436 88.5809 313.115 88.8185C313.795 89.0561 314.515 89.175 315.276 89.175C316.308 89.175 317.214 88.9882 317.996 88.6146C318.473 88.3861 318.894 88.0981 319.257 87.7501C319.396 87.6178 319.397 87.3966 319.262 87.261L317.819 85.8104C317.687 85.6777 317.469 85.672 317.338 85.8063C317.147 86.004 316.921 86.1727 316.661 86.3121C316.294 86.5092 315.846 86.6075 315.316 86.6075C315.017 86.6075 314.728 86.5601 314.45 86.465C314.172 86.3701 313.921 86.2377 313.696 86.0676C313.472 85.8979 313.289 85.6976 313.146 85.4665C313.003 85.2357 312.918 84.9775 312.891 84.6922H320.247C320.261 84.57 320.268 84.4411 320.268 84.305C320.268 84.1694 320.268 84.0335 320.268 83.8976C320.268 83.0283 320.142 82.2541 319.891 81.5747C319.639 80.8954 319.29 80.3183 318.841 79.8426Z" fill="#333333"/>
<path d="M205.762 71.594C205.691 71.5675 205.615 71.5528 205.538 71.5528H199.32C199.068 71.5528 198.863 71.7573 198.863 72.0097V78.4927L205.762 71.594Z" fill="#333333"/>
<path d="M198.997 92.2382C199.079 92.3209 199.194 92.3721 199.32 92.3721H205.346C205.598 92.3721 205.803 92.1674 205.803 91.9152V85.4324L198.997 92.2382Z" fill="#333333"/>
<path d="M212.743 78.4928V92.314C212.756 92.3203 212.77 92.3259 212.784 92.3311L219.682 85.4326L212.743 78.4928Z" fill="#333333"/>
<path d="M205.803 85.4328V71.6121C205.789 71.6058 205.776 71.5994 205.762 71.5941L198.863 78.4928V91.9155C198.863 92.0418 198.914 92.156 198.997 92.2385L205.803 85.4328Z" fill="#333333"/>
<path d="M219.682 85.4324V72.0095C219.682 71.7571 219.478 71.5526 219.226 71.5526H213.2C212.947 71.5526 212.743 71.7568 212.743 72.0089V78.4926L219.682 85.4324Z" fill="#333333"/>
<path d="M219.682 85.4325L212.784 92.331C212.855 92.3576 212.931 92.3722 213.008 92.3722H219.226C219.478 92.3722 219.682 92.1675 219.682 91.9153V85.4325Z" fill="#333333"/>
<path d="M205.806 85.4322H205.803V85.4324L205.806 85.4322Z" fill="#D2D2D2"/>
<path d="M212.743 78.4916H212.743V78.4924L212.743 78.4916Z" fill="#D2D2D2"/>
<path d="M205.991 71.7401C205.936 71.6856 205.872 71.643 205.803 71.6117V85.4323L212.555 92.1843C212.61 92.239 212.674 92.2822 212.743 92.3137V78.4924L205.991 71.7401Z" fill="#333333"/>
<defs>
<clipPath id="clip0">
<rect width="72" height="23" fill="white" transform="translate(101 72.2598)"/>
</clipPath>
</defs>
</svg>
