<svg width="1105" height="65" viewBox="0 0 1105 65" fill="none" xmlns="http://www.w3.org/2000/svg">
<g clip-path="url(#clip0_5720_153018)">
<g clip-path="url(#clip1_5720_153018)">
<path d="M76.1967 5.61482C74.9889 2.59494 72.0465 -0.666499 66.5355 -0.218466C59.5153 0.545747 57.3276 7.28263 58.3887 11.3016C55.5927 9.40578 50.8384 8.57215 46.6887 12.1316C41.3307 17.5099 44.1967 24.7834 47.1421 26.528C43.8959 26.2271 38.7655 28.4235 37.6305 34.1693C36.4231 41.303 41.8539 45.4618 47.1421 45.4618H105.782C111.897 45.4618 115.29 40.1643 114.91 35.1683C114.31 28.6481 108.351 26.1464 105.101 26.6824C107.817 25.1653 111.443 18.0389 105.929 12.4364C101.551 8.26693 95.9709 9.78406 94.0087 11.6025C95.0664 8.11947 93.3319 0.919496 86.2321 -0.219241C85.7412 -0.274263 85.2687 -0.303711 84.8184 -0.303711C79.3987 -0.302936 76.9616 3.66438 76.1967 5.61482Z" fill="#F2F2F2"/>
<path d="M47.6653 13.2667C44.5694 16.0731 43.4426 22.4322 49.0235 26.1495L71.2885 41.4458L60.4929 16.6791C58.2308 10.8348 52.0421 9.56032 47.6653 13.2667Z" fill="#333333"/>
<path d="M66.8311 1.22519C63.2119 1.29903 57.7773 5.61474 60.1958 12.2049L71.3614 38.5739L75.2849 10.8388C76.1928 3.94726 70.9846 0.765975 66.8311 1.22519Z" fill="#333333"/>
<path d="M77.0276 9.78122H79.1389C79.1389 9.78122 80.2663 9.78122 80.4198 10.3138C79.589 10.9932 77.3275 11.0784 77.6278 14.7075L81.177 38.5704L92.2663 12.1322C94.5346 6.22906 89.7735 1.29904 85.5501 1.14836C85.3529 1.13419 85.1549 1.12268 84.9499 1.12268C81.1593 1.12257 76.8153 3.88129 77.0276 9.78122Z" fill="#333333"/>
<path d="M91.8197 16.9036L81.331 41.3732L103.589 25.9961C108.72 22.3519 107.893 16.5256 105.021 13.6456C103.817 12.2901 101.606 11.243 99.2639 11.243C96.4972 11.2425 93.5362 12.712 91.8197 16.9036Z" fill="#333333"/>
<path d="M101.097 29.4779L80.194 44.0987H105.932C111.213 44.0987 114.606 38.6468 113.097 33.6437C112.087 30.499 109.098 28.0304 105.628 28.0269C104.168 28.0274 102.619 28.4679 101.097 29.4779Z" fill="#333333"/>
<path d="M47.0657 44.0988H72.424L51.5154 29.478C46.6849 26.3702 41.2536 28.1887 39.2927 33.346C37.6306 39.2497 41.7806 44.0988 47.0657 44.0988Z" fill="#333333"/>
<path d="M56.7533 56.9069C56.7532 58.4147 54.493 61.7028 47.3368 61.7028C39.5749 61.7028 37.5421 57.1704 37.5421 54.6803C37.5421 52.6049 39.5749 47.7778 47.3368 47.7778C55.095 47.7778 56.7533 51.0197 56.7533 52.5292H51.213C51.213 52.5292 50.9499 50.7949 47.8246 50.7949C44.6973 50.7949 43.8516 53.2677 43.8516 54.7734C43.8516 56.2849 44.6973 58.8988 47.8246 58.8988C50.9441 58.8988 51.2121 56.9144 51.213 56.9069H56.7533ZM114.857 56.9069C114.857 58.4147 112.596 61.7028 105.44 61.7028C97.6804 61.7028 95.6455 57.1704 95.6455 54.6803C95.6455 52.6049 97.6805 47.7778 105.44 47.7778C113.2 47.7778 114.857 51.0197 114.857 52.5292H109.32C109.32 52.5292 109.056 50.7949 105.93 50.7949C102.802 50.7949 101.956 53.2677 101.956 54.7734C101.956 56.2849 102.802 58.8988 105.93 58.8988C109.05 58.8988 109.319 56.9144 109.32 56.9069H114.857ZM88.4701 48.0103C89.2985 48.0103 94.6962 48.27 94.6962 51.1728C94.6962 53.2114 92.8035 54.2636 91.8983 54.2636C91.8983 54.2636 95.1752 54.7945 95.1752 57.3215C95.1752 59.8485 93.2536 61.3617 88.4701 61.3617H78.5242V48.0103H88.4701ZM71.895 56.4397V48.0103H76.8678V61.3617H69.5014L63.1666 52.8355V61.3617H58.1941V48.0103H65.4472L71.895 56.4397ZM87.8291 58.1896V58.172C88.7137 58.172 89.4287 57.6298 89.4287 56.961C89.4287 56.2906 88.7137 55.7461 87.8291 55.7461V55.7381H83.6859V58.1896H87.8291ZM87.7161 52.605V52.599C88.3924 52.599 88.9409 52.1573 88.9409 51.6068C88.9409 51.0583 88.3924 50.6127 87.7161 50.6127V50.6071H83.7239V52.605H87.7161Z" fill="#333333"/>
</g>
<path d="M229.205 25.9073C228.308 25.9073 227.816 25.9941 227.093 26.3414C225.762 26.949 224.778 27.9327 223.91 29.524L223.621 30.0159L223.65 29.119C223.679 28.6271 223.708 27.7302 223.737 27.0936L223.766 25.9652H223.563C223.332 25.9652 215.693 27.4987 215.462 27.5855C215.317 27.6434 215.288 27.7012 215.288 28.0774C215.288 28.4535 215.317 28.5114 215.462 28.5403C215.549 28.5692 215.896 28.6271 216.243 28.685C216.908 28.8007 217.111 28.9164 217.4 29.2926C217.921 29.958 218.008 31.1732 218.008 36.2366C218.008 40.3741 217.921 42.4573 217.719 43.0938C217.487 43.875 217.053 44.2801 216.301 44.4247C216.069 44.4826 215.751 44.5405 215.606 44.5694L215.346 44.6273L215.317 45.1481C215.288 45.5242 215.317 45.6978 215.404 45.7557C215.462 45.7846 218.066 45.8136 221.191 45.8136L226.89 45.7846L226.919 45.177C226.919 44.8588 226.919 44.5694 226.89 44.5694C226.456 44.5694 225.097 44.3958 224.865 44.2801C224.229 44.0197 223.91 43.441 223.766 42.2547C223.621 40.8949 223.505 37.4518 223.563 34.6742C223.621 31.8387 223.621 31.8387 223.795 31.6362C224.2 31.2022 225.241 30.855 226.196 30.855C226.948 30.855 227.729 31.0575 228.54 31.4336C228.945 31.6362 229.292 31.7519 229.35 31.7519C229.465 31.723 231.317 26.7754 231.317 26.5439C231.317 26.2546 230.247 25.9073 229.205 25.9073Z" fill="#333333"/>
<path d="M215.317 34.5006C214.912 31.0864 213.465 28.5981 211.064 27.1804C208.402 25.618 204.38 25.5312 201.516 26.9779C199.433 28.0195 197.754 30.0159 197.002 32.3306C196.221 34.7031 196.221 37.8279 197.002 40.2294C197.494 41.7918 198.16 42.9202 199.201 43.9329C200.445 45.177 202.066 45.9582 203.946 46.2186C204.612 46.3054 206.724 46.3054 207.418 46.2186C207.737 46.1607 208.315 46.045 208.662 45.9582C212.048 44.9745 214.362 42.3705 215.143 38.667C215.346 37.7411 215.433 35.5422 215.317 34.5006ZM206.753 44.743C204.641 45.3795 203.136 43.3542 202.557 39.1588C202.355 37.799 202.384 34.0955 202.557 32.562C202.963 29.1768 204.004 27.4697 205.653 27.4697C206.406 27.4697 206.811 27.6433 207.389 28.222C208.778 29.6108 209.415 32.2727 209.415 36.4391C209.415 39.7664 209.067 41.8496 208.344 43.2674C207.968 43.9329 207.303 44.5694 206.753 44.743Z" fill="#333333"/>
<path d="M187.541 20.9016H189.971C192.749 20.9016 193.212 20.9594 194.196 21.4513C195.613 22.1457 196.655 23.5345 197.581 25.9649C197.957 26.9487 197.957 26.9487 198.767 26.6883L199.317 26.5147L199.259 22.9558C199.23 20.9884 199.172 19.2524 199.172 19.1077L199.114 18.7894L188.496 18.7605C182.651 18.7605 177.762 18.7605 177.617 18.7894L177.356 18.8473L177.385 19.4838L177.414 20.1204L178.224 20.2072C179.266 20.3229 179.903 20.6412 180.279 21.162C181.118 22.3772 181.262 24.0553 181.262 31.9541C181.262 40.3738 181.089 42.4281 180.279 43.4697C179.874 44.0194 179.526 44.193 178.572 44.3666C177.328 44.5981 177.385 44.5691 177.385 45.2057C177.385 45.5529 177.414 45.7554 177.472 45.7843C177.617 45.8422 191.187 45.8422 191.331 45.7843C191.505 45.7265 191.505 44.7138 191.331 44.627C191.244 44.5981 190.81 44.5113 190.319 44.4245C189.827 44.3377 189.306 44.2219 189.132 44.1641C188.235 43.7879 187.744 42.7174 187.57 40.7788C187.425 39.39 187.338 36.815 187.338 34.9343V33.1983L188.178 33.2272C189.942 33.2851 190.839 33.3719 191.216 33.5455C192.026 33.8927 192.662 34.8764 192.981 36.2652L193.154 36.9886L193.791 37.0175L194.427 37.0464V27.7877L193.791 27.8167L193.154 27.8456L192.981 28.5689C192.633 29.9867 192.055 30.8547 191.187 31.2597C190.839 31.4333 190.579 31.4623 189.769 31.5201C189.219 31.5491 188.438 31.578 188.062 31.578H187.338V29.2923C187.338 27.0065 187.454 22.1168 187.541 21.3645V20.9016Z" fill="#333333"/>
<path d="M283.918 37.2202C283.282 35.9182 282.066 35.0502 279.578 34.0086C277.553 33.1695 276.511 32.5619 275.904 31.8965C275.383 31.3467 275.238 30.8838 275.296 30.0737C275.354 29.3214 275.527 28.8585 276.019 28.3377C276.627 27.6722 277.495 27.4407 278.508 27.6722C280.157 28.0194 281.227 29.1767 282.153 31.6071C282.472 32.4751 282.529 32.5041 283.108 32.2726L283.484 32.1279V31.1153C283.484 30.5655 283.455 29.4082 283.426 28.5402L283.368 26.9778L283.079 26.8621C281.546 26.2255 278.652 25.8205 276.772 25.9941C274.631 26.1966 273.039 26.8621 271.824 28.1351C270.609 29.3793 270.059 30.8549 270.175 32.5909C270.262 34.0375 270.667 35.0502 271.564 35.9761C272.374 36.8152 273.068 37.2202 275.065 38.0014C278.247 39.2456 279.115 39.9978 279.086 41.5313C279.086 42.8333 278.392 43.7881 277.148 44.2221C276.685 44.3668 275.556 44.3668 274.949 44.2221C273.357 43.8171 272.142 42.4282 271.101 39.8821L270.84 39.2166L270.522 39.2456C270.348 39.2456 270.117 39.3034 270.001 39.3613L269.799 39.477L269.828 40.6054C269.828 41.213 269.857 42.515 269.885 43.4699L269.943 45.2348L270.291 45.3795C271.014 45.6977 273.213 46.1607 274.573 46.3053C274.746 46.3343 275.672 46.3343 276.656 46.3053C278.334 46.2764 278.479 46.2764 279.318 46.0449C281.835 45.3795 283.455 43.9907 284.179 41.8785C284.41 41.213 284.439 41.0394 284.468 40.0557C284.439 38.7248 284.323 38.0593 283.918 37.2202Z" fill="#333333"/>
<path d="M264.504 26.6885C262.392 25.618 259.123 25.7048 256.75 26.8621C254.493 27.9616 252.931 29.8133 252.063 32.4173C251.6 33.7772 251.455 34.8477 251.513 36.6127C251.542 37.7122 251.6 38.2908 251.716 38.8116C252.613 42.8044 255.332 45.4953 259.151 46.1897C259.991 46.3343 261.9 46.3343 262.739 46.1897C263.954 45.9871 265.343 45.4374 266.24 44.8298C267.311 44.1064 268.41 43.007 268.41 42.6598C268.41 42.4572 268.034 41.9654 267.889 41.9654C267.831 41.9654 267.513 42.11 267.224 42.3126C266.182 43.007 265.17 43.2674 263.752 43.2674C261.813 43.2674 260.598 42.7755 259.354 41.5314C258.804 40.9816 258.573 40.6923 258.312 40.1426C257.705 38.9563 257.358 37.5675 257.3 36.0051L257.271 35.3396L262.971 35.3107L268.671 35.2817L268.7 34.9056C268.7 34.7031 268.699 34.1533 268.642 33.6615C268.294 30.2763 266.877 27.9037 264.504 26.6885ZM258.775 33.7193L257.329 33.7483V33.43C257.329 33.2564 257.387 32.7935 257.444 32.4173C257.936 29.3215 259.094 27.4697 260.54 27.4697C261.871 27.4697 262.681 29.2925 262.855 32.6488L262.913 33.6036L261.582 33.6615C260.83 33.6615 259.557 33.6904 258.775 33.7193Z" fill="#333333"/>
<path d="M243.874 26.3412C243.411 26.2544 243.006 26.2255 242.138 26.2544C240.807 26.3123 239.911 26.4859 238.898 26.9488C238.58 27.0935 238.29 27.2382 238.261 27.2382C238.232 27.2382 238.232 25.2418 238.261 22.7824C238.29 19.3104 238.29 18.3267 238.203 18.3267C237.943 18.3267 230.102 19.8312 230.015 19.8891C229.957 19.9469 229.928 20.1205 229.928 20.352C229.957 20.786 229.9 20.7571 230.854 20.9596C231.144 21.0175 231.491 21.1621 231.607 21.2489C231.925 21.4804 232.185 21.9723 232.388 22.6667C232.533 23.2164 232.561 23.6215 232.619 27.3828C232.677 31.231 232.677 35.1949 232.561 42.4282L232.504 45.4373L233.053 45.553C233.863 45.7266 236.207 46.1317 236.959 46.2185C238.088 46.3342 240.692 46.3053 241.531 46.1896C245.147 45.6398 247.867 43.5566 249.14 40.345C249.488 39.5059 249.806 38.175 249.921 37.2202C250.066 36.0918 249.979 33.8061 249.777 32.8802C249.025 29.3792 246.826 26.9488 243.874 26.3412ZM238.377 44.4825C238.29 44.2221 238.175 35.1949 238.203 31.6071L238.232 28.8006L238.753 28.6559C239.1 28.5691 239.505 28.5112 239.968 28.5112C240.634 28.5112 240.692 28.5402 241.241 28.8006C242.572 29.466 243.469 31.0863 243.903 33.5457C244.048 34.4715 244.077 36.9598 243.932 38.0593C243.585 40.7501 242.717 42.9201 241.531 43.9617C241.068 44.3668 240.634 44.5982 240.084 44.714C239.679 44.8008 239.563 44.8008 238.811 44.7429C238.522 44.685 238.464 44.6561 238.377 44.4825Z" fill="#333333"/>
<g clip-path="url(#clip2_5720_153018)">
<path d="M386.391 42.5434C386.391 41.6977 386.937 41.3198 387.669 41.3198C388.061 41.3198 388.351 41.4098 388.607 41.5357V38.8187C388.215 38.6208 387.669 38.5128 387.107 38.5128C384.704 38.5128 383.29 40.0063 383.29 42.4714V42.7053H382.148V45.3503H383.29V51.702H386.391V45.3503H388.487V42.7053H386.391V42.5434Z" fill="#333333"/>
<path d="M392.85 51.702V42.7052H389.731V51.702H392.85ZM393.037 40.1682C393.037 39.1965 392.27 38.3508 391.282 38.3508C390.328 38.3508 389.544 39.1785 389.544 40.1682C389.544 41.1578 390.328 41.9855 391.282 41.9855C392.27 41.9855 393.037 41.1398 393.037 40.1682Z" fill="#333333"/>
<path d="M397.241 46.9157C397.241 45.9801 397.684 45.4583 398.365 45.4583C399.047 45.4583 399.456 45.9621 399.456 46.8798V51.702H402.574V45.9801C402.574 43.8029 401.45 42.4534 399.609 42.4534C398.57 42.4534 397.718 42.9212 397.241 43.8029V42.7053H394.122V51.702H397.241V46.9157Z" fill="#333333"/>
<path d="M407.674 42.5253C405.096 42.5253 403.443 44.8824 403.443 47.2396C403.443 49.8666 405.256 51.9538 407.638 51.9538C409.416 51.9538 410.091 50.8562 410.091 50.8562V51.7199H413.095V42.7412H410.091V43.5509C410.091 43.5509 409.327 42.5253 407.674 42.5253ZM408.314 45.4222C409.523 45.4222 410.127 46.3759 410.127 47.2396C410.127 48.1752 409.469 49.0929 408.314 49.0929C407.372 49.0929 406.501 48.3012 406.501 47.2755C406.501 46.2499 407.194 45.4222 408.314 45.4222Z" fill="#333333"/>
<path d="M417.689 46.9157C417.689 45.9801 418.132 45.4583 418.813 45.4583C419.495 45.4583 419.904 45.9621 419.904 46.8798V51.702H423.022V45.9801C423.022 43.8029 421.898 42.4534 420.057 42.4534C419.018 42.4534 418.166 42.9212 417.689 43.8029V42.7053H414.57V51.702H417.689V46.9157Z" fill="#333333"/>
<path d="M423.943 47.2036C423.943 50.1186 425.919 51.9539 428.492 51.9539C429.157 51.9539 429.873 51.81 430.537 51.4501V48.4632C430.06 48.8231 429.549 49.003 428.987 49.003C427.896 49.003 427.095 48.2833 427.095 47.2036C427.095 46.124 427.896 45.4043 428.987 45.4043C429.532 45.4043 430.043 45.5662 430.537 45.9081V42.9212C429.941 42.6153 429.208 42.4534 428.544 42.4534C425.868 42.4534 423.943 44.4506 423.943 47.2036Z" fill="#333333"/>
<path d="M437.321 48.5352C436.997 49.093 436.588 49.3269 435.907 49.3269C435.089 49.3269 434.407 48.8051 434.339 48.0313H440.235C440.252 47.8694 440.269 47.6535 440.269 47.3656C440.269 44.3967 438.48 42.4534 435.821 42.4534C433.248 42.4534 431.289 44.4866 431.289 47.2036C431.289 50.0286 433.197 51.9539 435.924 51.9539C437.849 51.9539 439.298 51.0902 439.996 49.5248L437.321 48.5352ZM434.356 46.142C434.424 45.4763 435.004 44.9725 435.804 44.9725C436.605 44.9725 437.185 45.4403 437.253 46.142H434.356Z" fill="#333333"/>
<path d="M344.468 19.7394H350.604L354.177 28.9806L357.796 19.7394H363.771L354.774 41.6164H348.762L351.225 35.8193L344.468 19.7394Z" fill="#333333"/>
<path d="M369.994 19.3715C365.384 19.3715 362.469 23.5515 362.469 27.7142C362.469 32.3984 365.665 36.1121 369.907 36.1121C373.071 36.1121 374.264 34.1631 374.264 34.1631V35.6814H379.616V19.7394H374.264V21.1887C374.264 21.1887 372.933 19.3715 369.994 19.3715ZM371.133 24.4946C373.26 24.4946 374.357 26.1962 374.357 27.7317C374.357 29.3851 373.181 31.0076 371.133 31.0076C369.434 31.0076 367.9 29.6047 367.9 27.802C367.9 25.9739 369.134 24.4946 371.133 24.4946Z" fill="#333333"/>
<path d="M381.459 35.6813V12.7001H387.057V21.2439C387.057 21.2439 388.386 19.3734 391.171 19.3734C394.577 19.3734 396.573 21.9392 396.573 25.6054V35.6813H391.016V26.9857C391.016 25.7449 390.432 24.5463 389.107 24.5463C387.759 24.5463 387.057 25.7631 387.057 26.9857V35.6813H381.459Z" fill="#333333"/>
<path d="M406.117 19.3733C400.837 19.3733 397.693 23.432 397.693 27.7804C397.693 32.7291 401.5 36.1121 406.137 36.1121C410.631 36.1121 414.564 32.8826 414.564 27.8635C414.564 22.3716 410.446 19.3733 406.117 19.3733ZM406.167 24.5414C408.032 24.5414 409.322 26.1118 409.322 27.7864C409.322 29.2147 408.12 30.9763 406.167 30.9763C404.378 30.9763 403.035 29.5251 403.035 27.7707C403.035 26.0807 404.151 24.5414 406.167 24.5414Z" fill="#333333"/>
<path d="M423.889 19.3733C418.61 19.3733 415.466 23.432 415.466 27.7804C415.466 32.7291 419.272 36.1121 423.909 36.1121C428.404 36.1121 432.336 32.8826 432.336 27.8635C432.336 22.3716 428.219 19.3733 423.889 19.3733ZM423.94 24.5414C425.805 24.5414 427.095 26.1118 427.095 27.7864C427.095 29.2147 425.893 30.9763 423.94 30.9763C422.15 30.9763 420.807 29.5251 420.807 27.7707C420.807 26.0807 421.924 24.5414 423.94 24.5414Z" fill="#333333"/>
<path d="M436.753 36.0198C438.806 36.0198 440.47 34.3373 440.47 32.262C440.47 30.1866 438.806 28.5042 436.753 28.5042C434.7 28.5042 433.036 30.1866 433.036 32.262C433.036 34.3373 434.7 36.0198 436.753 36.0198Z" fill="#333333"/>
<path d="M441.692 27.1237H435L440.939 12.7001H447.606L441.692 27.1237Z" fill="#333333"/>
</g>
<g clip-path="url(#clip3_5720_153018)">
<path d="M530.925 20.4789H537.632C537.778 20.4789 537.883 20.5817 537.883 20.7257V27.8221C537.883 27.9661 537.987 28.0689 538.113 28.0895C538.196 28.0895 538.28 28.0689 538.322 28.0072C539.429 26.8142 541.038 25.8474 543.19 25.8474C546.847 25.8474 549.124 28.2335 549.124 32.0593V43.0639C549.124 43.2079 549.02 43.3107 548.874 43.3107H542.166C542.02 43.3107 541.916 43.2079 541.916 43.0639V34.3425C541.916 32.8821 541.017 32.0182 539.951 32.0182C538.886 32.0182 537.883 32.8615 537.883 34.3425V43.0639C537.883 43.2079 537.778 43.3107 537.632 43.3107H530.925C530.779 43.3107 530.674 43.2079 530.674 43.0639V20.7257C530.674 20.6023 530.779 20.4789 530.925 20.4789Z" fill="#333333"/>
<path d="M625.182 26.2383H631.889C632.035 26.2383 632.14 26.3411 632.14 26.4851V28.5832C632.14 28.7271 632.244 28.83 632.37 28.8506C632.474 28.8506 632.579 28.8094 632.62 28.7066C633.582 27.0199 635.023 25.9503 637.322 25.9709C637.468 25.9709 637.572 26.0737 637.572 26.2177V33.2524C637.572 33.3964 637.468 33.4992 637.322 33.4992H636.82C633.77 33.4992 632.161 35.1653 632.161 38.95V43.0433C632.161 43.1873 632.056 43.2901 631.91 43.2901H625.203C625.056 43.2901 624.952 43.1873 624.952 43.0433V26.4851C624.952 26.3617 625.056 26.2383 625.182 26.2383Z" fill="#333333"/>
<path d="M622.465 28.1719C620.94 26.6704 618.663 25.9504 615.131 25.9504C612.227 25.9504 609.991 26.4235 608.048 27.1229C607.923 27.164 607.86 27.308 607.881 27.4314L609.009 31.6687C609.051 31.7921 609.176 31.8744 609.302 31.8538C609.323 31.8538 609.323 31.8538 609.343 31.8332C610.785 31.2984 612.206 30.9693 613.878 30.9693C616.093 30.9693 617.095 31.8744 617.095 33.4376C617.095 33.5405 617.012 33.6433 616.887 33.6433C616.866 33.6433 616.845 33.6433 616.824 33.6433C615.946 33.3554 614.296 33.1085 612.979 33.1085C608.946 33.1085 606.376 35.0215 606.376 38.4154V38.4771C606.376 41.8504 608.717 43.7222 612.06 43.7222C613.982 43.7222 615.466 43.064 616.615 42.015C616.719 41.9121 616.866 41.9121 616.97 42.015C617.012 42.0561 617.054 42.1384 617.054 42.2001V43.064C617.054 43.208 617.158 43.3108 617.304 43.3108H624.012C624.158 43.3108 624.262 43.208 624.262 43.064V33.5816C624.283 31.1133 623.761 29.4678 622.465 28.1719ZM614.985 39.9169C613.794 39.9169 612.812 38.9502 612.812 37.7777C612.812 36.6053 613.794 35.6385 614.985 35.6385C616.176 35.6385 617.158 36.6053 617.158 37.7777C617.158 38.9502 616.197 39.9169 614.985 39.9169Z" fill="#333333"/>
<path d="M606.251 20.4789H599.544C599.397 20.4789 599.293 20.5817 599.293 20.7257V27.5341C599.293 27.6781 599.188 27.781 599.063 27.8015C598.979 27.8015 598.917 27.781 598.875 27.7192C597.809 26.6908 596.409 25.8269 594.09 25.8269C589.995 25.8269 586.693 29.4265 586.693 34.8362V34.8979C586.693 40.1225 589.974 43.7221 594.153 43.7221C596.785 43.7221 598.123 42.4674 599.293 41.2126V43.0639C599.293 43.2079 599.397 43.3107 599.544 43.3107H606.251C606.397 43.3107 606.502 43.2079 606.502 43.0639V20.7257C606.502 20.6023 606.397 20.4789 606.251 20.4789ZM596.848 37.0371C595.427 37.0371 594.299 35.9058 594.299 34.5277C594.299 33.1495 595.448 32.0182 596.848 32.0182C598.269 32.0182 599.397 33.1495 599.397 34.5277C599.418 35.9058 598.269 37.0371 596.848 37.0371Z" fill="#333333"/>
<path d="M586.422 20.4789H579.714C579.568 20.4789 579.464 20.5817 579.464 20.7257V27.5341C579.464 27.6781 579.359 27.781 579.234 27.8015C579.15 27.8015 579.087 27.781 579.046 27.7192C577.98 26.6908 576.58 25.8269 574.261 25.8269C570.165 25.8269 566.864 29.4265 566.864 34.8362V34.8979C566.864 40.1225 570.144 43.7221 574.323 43.7221C576.956 43.7221 578.293 42.4674 579.464 41.2126V43.0639C579.464 43.2079 579.568 43.3107 579.714 43.3107H586.422C586.568 43.3107 586.672 43.2079 586.672 43.0639V20.7257C586.672 20.6023 586.568 20.4789 586.422 20.4789ZM577.165 37.0371C575.744 37.0371 574.616 35.9058 574.616 34.5277C574.616 33.1495 575.765 32.0182 577.165 32.0182C578.586 32.0182 579.714 33.1495 579.714 34.5277C579.714 35.9058 578.565 37.0371 577.165 37.0371Z" fill="#333333"/>
<path d="M566.258 39.6904L562.769 36.9547C562.664 36.8724 562.518 36.8724 562.434 36.9753C561.348 38.0243 560.303 38.5591 559.07 38.5591C557.649 38.5591 556.5 37.9009 555.936 36.6256C555.873 36.5022 555.936 36.3582 556.061 36.2965C556.103 36.2759 556.124 36.2759 556.166 36.2759H566.948C566.989 35.9057 566.989 35.4737 566.989 35.0829C566.989 29.8995 564.127 25.6622 557.963 25.6622C552.76 25.6622 549.041 29.5292 549.041 34.6304V34.6921C549.041 39.999 552.885 43.5369 558.569 43.5369C562.205 43.5369 564.607 42.097 566.321 40.0195C566.384 39.9373 566.384 39.7933 566.258 39.6904C566.279 39.6904 566.279 39.6904 566.258 39.6904ZM558.36 30.9897C559.572 30.9897 560.596 31.8741 560.742 33.0671C560.763 33.2111 560.658 33.3345 560.512 33.3345H560.491H556.249C556.103 33.3345 555.999 33.2317 555.999 33.0877V33.0671C556.124 31.8741 557.148 30.9897 558.36 30.9897Z" fill="#333333"/>
<path d="M524.615 36.2347C524.489 36.173 524.343 36.1936 524.28 36.317C523.612 37.2838 522.901 37.8391 521.71 37.8391C520.352 37.8391 519.245 36.6667 519.14 35.0006C519.14 34.9183 519.14 34.8566 519.14 34.7743V34.7126C519.14 33.0259 520.289 31.7095 521.815 31.7095C522.922 31.7095 523.654 32.2649 524.239 33.2111C524.301 33.3345 524.468 33.3756 524.573 33.2933L529.316 30.6605C529.42 30.5988 529.483 30.4548 529.42 30.3314C528.062 27.6574 525.388 25.8062 521.668 25.8062C516.006 25.8062 512.203 29.9611 512.203 34.7538V34.8155C512.203 34.8977 512.203 34.9594 512.203 35.0417C512.328 39.7315 516.131 43.7014 521.313 43.7014C523.048 43.7014 524.531 43.3722 525.785 42.7757C525.91 42.714 525.973 42.5906 525.91 42.4672C525.847 42.3027 525.827 42.1175 525.827 41.9324C525.847 41.0068 526.558 40.2457 527.477 40.1635C527.812 40.1223 528.167 40.2046 528.459 40.3897C528.564 40.4514 528.71 40.4309 528.794 40.328C529.023 40.04 529.232 39.7315 529.42 39.4024L529.525 39.2378C529.588 39.1144 529.567 38.9704 529.441 38.8882C529.441 38.8882 529.441 38.8882 529.42 38.8882L524.615 36.2347Z" fill="#333333"/>
<path d="M528.961 41.6858C528.021 41.7887 527.31 42.5497 527.289 43.4548C527.289 43.7016 527.352 43.9484 527.477 44.1747C528.501 43.6605 529.4 42.92 530.11 42.0355C529.797 41.7887 529.379 41.6447 528.961 41.6858Z" fill="#333333"/>
</g>
<g clip-path="url(#clip4_5720_153018)">
<path fill-rule="evenodd" clip-rule="evenodd" d="M712.432 49.6448H715.01V35.7904H712.432V49.6448ZM721.883 49.437H724.192V40.6958L733.912 49.6448V35.9983H731.609V44.5901L721.883 35.7904V49.437ZM739.184 46.0816C740.441 47.0666 741.949 47.6359 743.567 47.6359C745.142 47.6359 746.247 47.0904 746.247 45.8857C746.247 44.8358 745.542 44.4245 744.308 43.9645L742.31 43.2664C740.468 42.6083 739.067 41.6472 739.067 39.438C739.067 37.0752 741.187 35.7904 743.724 35.7904C745.278 35.7904 746.694 36.1833 747.8 36.8793V39.2226C746.65 38.3676 745.391 37.7788 743.773 37.7788C742.381 37.7788 741.34 38.3015 741.34 39.3915C741.34 40.3765 741.993 40.7704 743.144 41.1666L745.37 41.9524C747.528 42.7155 748.518 43.8985 748.518 45.8446C748.518 48.2929 746.376 49.6448 743.567 49.6448C741.72 49.6448 740.15 49.1253 739.184 48.4693V46.0816ZM754.533 49.6448H757.11V35.7904H754.533V49.6448ZM769.201 47.5482C772.106 47.5482 773.659 45.6736 773.659 42.7144C773.659 39.7335 772.105 37.8654 769.201 37.8654H766.328V47.5482H769.201ZM763.982 35.7904H769.287C773.37 35.7904 776.011 38.4964 776.011 42.7144C776.011 46.9356 773.37 49.6448 769.287 49.6448H763.982V35.7904ZM788.9 35.7904V37.8654H782.662V41.1991H788.257V43.2501H782.661V47.5482H788.9V49.6448H780.308V35.7904H788.9ZM798.049 42.0639H800.607C802.121 42.0639 802.974 41.2283 802.974 39.9435C802.974 38.6587 802.121 37.8221 800.607 37.8221H798.049V42.065V42.0639ZM798.049 44.023V49.6448H795.773V35.7904H800.65C803.43 35.7904 805.23 37.2311 805.23 39.9435C805.23 42.263 804.231 43.5954 802.104 43.9375L806.943 49.6448H804.354L799.668 44.024H798.05L798.049 44.023ZM711.531 22.1417C712.539 21.7705 713.325 20.6567 713.325 19.1252C713.325 16.5729 711.531 15.2503 708.661 15.2503H703.84V29.4975H709.109C711.979 29.4975 713.773 28.0818 713.773 25.4137C713.773 23.9049 712.831 22.5823 711.531 22.1417ZM706.104 21.2369V17.3393H708.64C710.232 17.3393 711.083 17.9194 711.083 19.2648C711.083 20.6102 710.231 21.2369 708.64 21.2369H706.104ZM706.104 23.2328H709.064C710.635 23.2328 711.486 24.0207 711.486 25.3207C711.486 26.5968 710.634 27.4096 709.065 27.4096H706.106V23.2317L706.104 23.2328ZM724.291 29.7292C727.587 29.7292 729.807 27.7333 729.807 23.8357V15.2503H727.475V23.5564C727.475 26.2948 726.354 27.572 724.291 27.572C722.228 27.572 721.108 26.2948 721.108 23.5564V15.2503H718.776V23.8118C718.776 27.7333 721.018 29.7292 724.291 29.7292ZM735.297 28.4758C736.261 29.1728 737.831 29.7292 739.669 29.7292C742.472 29.7292 744.602 28.2896 744.602 25.6919C744.602 23.6268 743.616 22.3734 741.463 21.5616L739.244 20.726C738.1 20.3093 737.45 19.8915 737.45 18.847C737.45 17.6867 738.481 17.1304 739.871 17.1304C741.486 17.1304 742.741 17.756 743.885 18.6619V16.1779C742.787 15.4364 741.374 15.0187 739.826 15.0187C737.293 15.0187 735.185 16.3879 735.185 18.8935C735.185 21.2369 736.575 22.2576 738.413 22.9535L740.409 23.696C741.643 24.1831 742.338 24.6247 742.338 25.7385C742.338 27.0146 741.239 27.5947 739.669 27.5947C738.055 27.5947 736.553 26.9908 735.297 25.9474V28.4758ZM752.934 15.2503H750.603V29.4965H752.934V15.2503ZM759.586 29.4791H761.833V20.2108L771.289 29.6999V15.2286H769.049V24.339L759.586 15.0089V29.4791ZM785.86 15.2535V17.3869H779.806V20.8158H785.235V22.9254H779.806V27.3447H785.86V29.5008H777.521V15.2535H785.86ZM791.289 28.466C792.253 29.1631 793.822 29.7194 795.661 29.7194C798.463 29.7194 800.594 28.281 800.594 25.6822C800.594 23.617 799.607 22.3647 797.455 21.5518L795.235 20.7173C794.091 20.2995 793.441 19.8817 793.441 18.8373C793.441 17.677 794.472 17.1206 795.862 17.1206C797.477 17.1206 798.732 17.7473 799.876 18.6522V16.1692C798.777 15.4267 797.365 15.0089 795.817 15.0089C793.284 15.0089 791.176 16.3781 791.176 18.8838C791.176 21.2271 792.566 22.2478 794.404 22.9438L796.4 23.6863C797.634 24.1734 798.329 24.615 798.329 25.7287C798.329 27.0048 797.231 27.585 795.66 27.585C794.046 27.585 792.544 26.9821 791.289 25.9376V28.466ZM805.371 28.466C806.335 29.1631 807.905 29.7194 809.743 29.7194C812.546 29.7194 814.675 28.281 814.675 25.6822C814.675 23.617 813.689 22.3647 811.536 21.5518L809.316 20.7173C808.174 20.2995 807.523 19.8817 807.523 18.8373C807.523 17.677 808.555 17.1206 809.944 17.1206C811.558 17.1206 812.815 17.7473 813.958 18.6522V16.1692C812.86 15.4267 811.447 15.0089 809.9 15.0089C807.366 15.0089 805.259 16.3781 805.259 18.8838C805.259 21.2271 806.649 22.2478 808.487 22.9438L810.483 23.6863C811.716 24.1734 812.411 24.615 812.411 25.7287C812.411 27.0048 811.313 27.585 809.743 27.585C808.129 27.585 806.626 26.9821 805.371 25.9376V28.466Z" fill="#333333"/>
</g>
<path d="M1069.43 27.5084H1066.24L1065.84 23.9836C1065.81 23.6756 1065.55 23.4429 1065.24 23.4429L1061.69 23.4419C1061.44 23.4419 1061.24 23.6411 1061.24 23.8871V27.5084L1061.27 31.2954V37.8309C1061.27 38.6606 1061.37 39.413 1061.55 40.0871C1061.74 40.7614 1062.05 41.3422 1062.47 41.8295C1062.89 42.3179 1063.46 42.6913 1064.16 42.95C1064.86 43.2091 1065.73 43.3391 1066.77 43.3391C1067.31 43.3391 1067.84 43.2924 1068.38 43.1994C1068.77 43.1331 1069.1 43.0585 1069.39 42.9761C1069.59 42.9211 1069.72 42.7415 1069.71 42.5409L1069.67 39.7316C1069.66 39.4524 1069.4 39.2528 1069.13 39.3057C1069.07 39.3163 1069.02 39.326 1068.96 39.3348C1068.68 39.3766 1068.41 39.397 1068.17 39.397C1067.44 39.397 1066.94 39.2156 1066.66 38.8517C1066.38 38.4881 1066.24 37.943 1066.24 37.2159V31.2954H1069.43C1069.67 31.2954 1069.87 31.0961 1069.87 30.8505V27.9534C1069.87 27.7077 1069.67 27.5084 1069.43 27.5084Z" fill="#333333"/>
<path d="M931.196 28.9268C930.751 28.3371 930.166 27.856 929.442 27.4834C928.738 27.1218 927.888 26.9373 926.892 26.9267L926.895 26.9248C926.879 26.9248 926.864 26.9257 926.848 26.9258C926.833 26.9257 926.819 26.9248 926.803 26.9248C926.748 26.9248 926.694 26.9288 926.64 26.9303C925.491 26.9582 924.508 27.1719 923.696 27.5766C922.954 27.9465 922.355 28.3468 921.896 28.7765L921.596 27.7912C921.518 27.5347 921.281 27.3595 921.013 27.3595L917.626 27.3593C917.38 27.3593 917.18 27.5585 917.18 27.8043V42.3727C917.18 42.6184 917.38 42.8176 917.626 42.8176H921.857C922.103 42.8176 922.302 42.6184 922.302 42.3724V34.4365C922.302 34.0019 922.359 33.5828 922.473 33.1795C922.587 32.7759 922.758 32.4188 922.985 32.1085C923.213 31.7981 923.497 31.555 923.839 31.379C924.18 31.2035 924.579 31.1153 925.034 31.1153C925.489 31.1153 925.867 31.2035 926.167 31.379C926.467 31.555 926.699 31.7933 926.866 32.093C927.031 32.3933 927.15 32.7401 927.222 33.1327C927.295 33.5263 927.331 33.9399 927.331 34.3746V42.3727C927.331 42.6184 927.53 42.8176 927.776 42.8176H932.008C932.254 42.8176 932.453 42.6184 932.453 42.3727V33.257C932.453 32.4918 932.355 31.7259 932.158 30.9599C931.961 30.1947 931.64 29.5165 931.196 28.9268Z" fill="#333333"/>
<path d="M969.394 38.6891C968.939 38.4616 968.556 38.1613 968.246 37.7888C967.935 37.4164 967.703 36.9871 967.547 36.5007C967.392 36.0148 967.315 35.523 967.315 35.0263C967.315 34.5295 967.392 34.0436 967.547 33.5673C967.703 33.0917 967.935 32.6725 968.246 32.3102C968.556 31.9484 968.939 31.6535 969.394 31.4255C969.849 31.1982 970.377 31.0841 970.977 31.0841C971.557 31.0841 972.074 31.1982 972.53 31.4255C972.984 31.6535 973.372 31.9531 973.694 32.3257C974.014 32.6983 974.262 33.1226 974.439 33.5983C974.614 34.0746 974.702 34.5607 974.702 35.0574C974.702 35.554 974.614 36.0403 974.439 36.5162C974.262 36.9925 974.014 37.4164 973.694 37.7888C973.372 38.1613 972.984 38.4616 972.53 38.6891C972.074 38.9171 971.557 39.0306 970.977 39.0306C970.377 39.0306 969.849 38.9171 969.394 38.6891ZM979.131 21.3145H974.93C974.684 21.3145 974.485 21.5137 974.485 21.7594V29.0044H974.423C973.988 28.4873 973.378 28.0113 972.592 27.5766C971.805 27.1421 970.843 26.9248 969.705 26.9248C968.588 26.9248 967.579 27.1421 966.678 27.5766C965.778 28.0113 965.012 28.6008 964.381 29.3458C963.75 30.0908 963.264 30.9551 962.922 31.9377C962.581 32.9208 962.41 33.9505 962.41 35.0263C962.41 36.1026 962.576 37.1371 962.907 38.1304C963.238 39.1236 963.719 39.998 964.35 40.7534C964.981 41.5088 965.752 42.1142 966.663 42.5692C967.573 43.0241 968.608 43.2521 969.767 43.2521C969.907 43.2521 970.045 43.2475 970.183 43.2397C971.392 43.2135 972.425 42.991 973.277 42.5661C974.01 42.2001 974.609 41.8053 975.078 41.383L975.407 42.3962C975.488 42.6474 975.722 42.8176 975.986 42.8176H979.131C979.377 42.8176 979.576 42.6183 979.576 42.3726V21.7594C979.576 21.5137 979.377 21.3145 979.131 21.3145Z" fill="#333333"/>
<path d="M1007 27.3593H1002.69C1002.49 27.3593 1002.31 27.4929 1002.26 27.6859L999.65 37.1371H999.588L996.826 27.6795C996.77 27.4898 996.596 27.3593 996.398 27.3593H991.947C991.748 27.3593 991.573 27.4916 991.519 27.6833L988.848 37.1371H988.755L986.174 27.6871C986.122 27.4936 985.946 27.3593 985.745 27.3593H981.215C980.91 27.3593 980.695 27.6606 980.795 27.9495L985.826 42.5178C985.888 42.6972 986.057 42.8176 986.247 42.8176H990.723C990.919 42.8176 991.091 42.6904 991.149 42.5042L994.032 33.195H994.094L997.037 42.5067C997.096 42.6918 997.268 42.8176 997.462 42.8176H1001.94C1002.13 42.8176 1002.3 42.6977 1002.36 42.5185L1007.42 27.9503C1007.52 27.6612 1007.31 27.3593 1007 27.3593Z" fill="#333333"/>
<path d="M1032.63 21.3145H1028.34C1028.09 21.3145 1027.89 21.5137 1027.89 21.7594V42.3727C1027.89 42.6184 1028.09 42.8176 1028.34 42.8176H1032.63C1032.88 42.8176 1033.07 42.6184 1033.07 42.3727V21.7594C1033.07 21.5137 1032.88 21.3145 1032.63 21.3145Z" fill="#333333"/>
<path d="M1041.13 21.3145H1036.84C1036.59 21.3145 1036.39 21.5137 1036.39 21.7594V42.3727C1036.39 42.6184 1036.59 42.8176 1036.84 42.8176H1041.13C1041.38 42.8176 1041.58 42.6184 1041.58 42.3727V21.7594C1041.58 21.5137 1041.38 21.3145 1041.13 21.3145Z" fill="#333333"/>
<path d="M1013.29 37.7888C1012.98 37.4164 1012.75 36.9871 1012.6 36.5007C1012.44 36.0148 1012.36 35.523 1012.36 35.0263C1012.36 34.5295 1012.44 34.0436 1012.6 33.5673C1012.75 33.0917 1012.98 32.6725 1013.29 32.3102C1013.6 31.9483 1013.99 31.6535 1014.44 31.4255C1014.9 31.1982 1015.43 31.0841 1016.03 31.0841C1016.6 31.0841 1017.12 31.1982 1017.58 31.4255C1018.03 31.6535 1018.42 31.9531 1018.74 32.3257C1019.06 32.6983 1019.31 33.1226 1019.49 33.5983C1019.66 34.0746 1019.75 34.5607 1019.75 35.0574C1019.75 35.554 1019.66 36.0403 1019.49 36.5162C1019.31 36.9925 1019.06 37.4164 1018.74 37.7888C1018.42 38.1613 1018.03 38.4616 1017.58 38.6891C1017.12 38.9171 1016.6 39.0306 1016.03 39.0306C1015.43 39.0306 1014.9 38.9171 1014.44 38.6891C1013.99 38.4616 1013.6 38.1613 1013.29 37.7888ZM1024.18 26.8308L1020.63 26.8301C1020.36 26.8301 1020.12 27.0076 1020.05 27.2665L1019.63 28.6676C1019.19 28.279 1018.63 27.915 1017.95 27.5766C1017.08 27.1421 1016.02 26.9248 1014.75 26.9248H1014.75C1013.64 26.9248 1012.63 27.1421 1011.73 27.5766C1010.83 28.0113 1010.06 28.6008 1009.43 29.3458C1008.8 30.0908 1008.31 30.9551 1007.97 31.9377C1007.63 32.9208 1007.46 33.9505 1007.46 35.0263C1007.46 36.1026 1007.62 37.1371 1007.95 38.1304C1008.29 39.1236 1008.77 39.998 1009.4 40.7534C1010.03 41.5088 1010.8 42.1142 1011.71 42.5692C1012.62 43.0241 1013.66 43.2521 1014.82 43.2521C1015.08 43.2521 1015.34 43.2374 1015.6 43.2091C1016.55 43.1303 1017.38 42.9171 1018.08 42.5661C1018.92 42.1503 1019.58 41.6971 1020.07 41.2083L1020.45 42.396C1020.54 42.6471 1020.77 42.817 1021.03 42.817L1024.18 42.8176C1024.42 42.8176 1024.62 42.6183 1024.62 42.3726V27.2757C1024.62 27.03 1024.42 26.8308 1024.18 26.8308Z" fill="#333333"/>
<path d="M961.865 26.9683L961.828 26.961L961.886 26.9248C961.757 26.9248 961.632 26.9286 961.507 26.9331C961.405 26.9277 961.301 26.9248 961.196 26.9248C960.525 26.9248 959.913 27.0515 959.356 27.2993C959.121 27.3791 958.898 27.4712 958.686 27.5766C957.866 27.9861 957.22 28.4329 956.744 28.9157L956.432 27.8204C956.358 27.5586 956.119 27.3781 955.847 27.3781L952.483 27.3777C952.238 27.3777 952.038 27.5769 952.038 27.8226V42.3727C952.038 42.6184 952.238 42.8176 952.483 42.8176H956.684C956.93 42.8176 957.129 42.6184 957.129 42.3727V34.8926C957.129 34.5831 957.192 34.2221 957.316 33.8095C957.44 33.3968 957.642 33.015 957.921 32.6639C958.2 32.3131 958.573 32.0139 959.038 31.7661C959.504 31.5188 960.078 31.3946 960.761 31.3946C960.968 31.3946 961.18 31.4052 961.397 31.4256L961.602 31.4511C961.847 31.4751 962.064 31.2962 962.088 31.0516L962.259 27.4591C962.286 27.2149 962.109 26.9951 961.865 26.9683Z" fill="#333333"/>
<path d="M939.023 33.3192C939.044 32.9263 939.148 32.5485 939.334 32.1862C939.52 31.8246 939.769 31.5087 940.079 31.2394C940.39 30.9709 940.751 30.7584 941.165 30.6033C941.58 30.448 942.035 30.3704 942.531 30.3704C943.545 30.3704 944.306 30.6605 944.813 31.2394C945.32 31.819 945.573 32.5122 945.573 33.3192H939.023ZM948.088 29.0977C947.404 28.3738 946.587 27.8203 945.635 27.4371C944.683 27.0544 943.638 26.8629 942.5 26.8629C941.321 26.8629 940.224 27.0598 939.21 27.4526C938.196 27.8459 937.316 28.3993 936.571 29.1132C935.826 29.8271 935.236 30.6963 934.802 31.7206C934.367 32.745 934.15 33.8888 934.15 35.1506C934.15 36.4544 934.372 37.6137 934.818 38.6271C935.263 39.6415 935.873 40.4949 936.649 41.1881C937.425 41.8817 938.33 42.4092 939.365 42.7712C940.4 43.1331 941.497 43.3143 942.656 43.3143C944.228 43.3143 945.609 43.0296 946.799 42.4606C947.527 42.1125 948.168 41.6737 948.721 41.1436C948.932 40.9421 948.935 40.6051 948.729 40.3986L946.53 38.1888C946.329 37.9867 945.997 37.9779 945.798 38.1826C945.506 38.4838 945.162 38.7406 944.766 38.953C944.207 39.2533 943.525 39.4031 942.718 39.4031C942.262 39.4031 941.822 39.3308 941.398 39.1859C940.974 39.0415 940.591 38.8396 940.25 38.5807C939.908 38.3221 939.629 38.017 939.412 37.6649C939.195 37.3134 939.065 36.92 939.023 36.4854H950.23C950.25 36.2992 950.26 36.1028 950.26 35.8955C950.26 35.6889 950.26 35.482 950.26 35.2749C950.26 33.9507 950.069 32.7713 949.686 31.7363C949.303 30.7016 948.771 29.8223 948.088 29.0977Z" fill="#333333"/>
<path d="M1048.38 33.3192C1048.4 32.9263 1048.5 32.5485 1048.69 32.1862C1048.88 31.8246 1049.13 31.5087 1049.44 31.2394C1049.75 30.9709 1050.11 30.7584 1050.52 30.6033C1050.94 30.448 1051.39 30.3704 1051.89 30.3704C1052.9 30.3704 1053.66 30.6605 1054.17 31.2394C1054.68 31.819 1054.93 32.5122 1054.93 33.3192H1048.38ZM1057.44 29.0977C1056.76 28.3738 1055.94 27.8203 1054.99 27.4371C1054.04 27.0544 1052.99 26.8629 1051.86 26.8629C1050.68 26.8629 1049.58 27.0598 1048.57 27.4526C1047.55 27.8459 1046.67 28.3993 1045.93 29.1132C1045.18 29.8271 1044.59 30.6963 1044.16 31.7206C1043.72 32.745 1043.51 33.8888 1043.51 35.1506C1043.51 36.4544 1043.73 37.6137 1044.17 38.6271C1044.62 39.6415 1045.23 40.4949 1046.01 41.1881C1046.78 41.8817 1047.69 42.4092 1048.72 42.7712C1049.76 43.1331 1050.85 43.3143 1052.01 43.3143C1053.58 43.3143 1054.97 43.0296 1056.16 42.4606C1056.88 42.1125 1057.52 41.6737 1058.08 41.1436C1058.29 40.9421 1058.29 40.6051 1058.09 40.3986L1055.89 38.1888C1055.69 37.9867 1055.35 37.9779 1055.15 38.1826C1054.86 38.4838 1054.52 38.7406 1054.12 38.953C1053.56 39.2533 1052.88 39.4031 1052.07 39.4031C1051.62 39.4031 1051.18 39.3308 1050.75 39.1859C1050.33 39.0415 1049.95 38.8396 1049.61 38.5807C1049.27 38.3221 1048.99 38.017 1048.77 37.6649C1048.55 37.3134 1048.42 36.92 1048.38 36.4854H1059.59C1059.61 36.2992 1059.62 36.1028 1059.62 35.8955C1059.62 35.6889 1059.62 35.482 1059.62 35.2749C1059.62 33.9507 1059.43 32.7713 1059.04 31.7363C1058.66 30.7016 1058.13 29.8223 1057.44 29.0977Z" fill="#333333"/>
<path d="M885.184 16.5319C885.076 16.4916 884.961 16.4692 884.843 16.4692H875.371C874.987 16.4692 874.675 16.7807 874.675 17.1652V27.0411L885.184 16.5319Z" fill="#333333"/>
<path d="M874.879 47.9806C875.005 48.1067 875.179 48.1846 875.372 48.1846H884.551C884.936 48.1846 885.247 47.8728 885.247 47.4886V37.6131L874.879 47.9806Z" fill="#333333"/>
<path d="M895.819 27.0413V48.0959C895.839 48.1054 895.86 48.1139 895.882 48.1219L906.39 37.6131L895.819 27.0413Z" fill="#333333"/>
<path d="M885.247 37.6128V16.5591C885.226 16.5494 885.206 16.5397 885.184 16.5317L874.675 27.0408V47.4883C874.675 47.6806 874.753 47.8546 874.879 47.9803L885.247 37.6128Z" fill="#333333"/>
<path d="M906.39 37.6129V17.1651C906.39 16.7807 906.079 16.4691 905.694 16.4691H896.515C896.13 16.4691 895.819 16.7802 895.819 17.1642V27.0411L906.39 37.6129Z" fill="#333333"/>
<path d="M906.39 37.613L895.881 48.1218C895.99 48.1624 896.105 48.1846 896.223 48.1846H905.694C906.079 48.1846 906.39 47.8728 906.39 47.4886V37.613Z" fill="#333333"/>
<path d="M885.25 37.6127H885.247V37.6129L885.25 37.6127Z" fill="#D2D2D2"/>
<path d="M895.819 27.0401H895.819V27.0409L895.819 27.0401Z" fill="#D2D2D2"/>
<path d="M885.533 16.7548C885.45 16.6717 885.352 16.6068 885.247 16.5591V37.6129L895.533 47.8986C895.616 47.9818 895.714 48.0477 895.819 48.0956V27.041L885.533 16.7548Z" fill="#333333"/>
</g>
<defs>
<clipPath id="clip0_5720_153018">
<rect width="1104.87" height="64.6537" fill="white"/>
</clipPath>
<clipPath id="clip1_5720_153018">
<rect width="82.3564" height="64.6537" fill="white" transform="translate(35)"/>
</clipPath>
<clipPath id="clip2_5720_153018">
<rect width="103.138" height="39.254" fill="white" transform="translate(344.468 12.6998)"/>
</clipPath>
<clipPath id="clip3_5720_153018">
<rect width="136.234" height="23.8603" fill="white" transform="translate(507.606 20.3967)"/>
</clipPath>
<clipPath id="clip4_5720_153018">
<rect width="110.835" height="34.6359" fill="white" transform="translate(703.84 15.0089)"/>
</clipPath>
</defs>
</svg>
