<svg width="108" height="66" viewBox="0 0 108 66" fill="none" xmlns="http://www.w3.org/2000/svg">
<path fill-rule="evenodd" clip-rule="evenodd" d="M26.0769 24.052H40.6731C53.8731 24.052 62.25 32.105 62.25 44.5619C62.25 58.403 52.9846 65.1977 38.1346 65.1977H26.0769V24.052ZM39.6577 33.4891C39.15 33.4891 38.3885 33.6149 37.5 33.6149V55.7606C44.8615 55.7606 50.7 52.8666 50.7 44.3103C50.7 37.1381 46.0038 33.4891 39.6577 33.4891Z" fill="black"/>
<path fill-rule="evenodd" clip-rule="evenodd" d="M107.308 36.1315V25.3103C104.388 24.052 101.723 23.4229 98.0423 23.4229C85.8577 23.4229 76.0846 32.6083 76.0846 44.6877C76.0846 56.7672 85.7308 65.5752 97.7885 65.5752C102.104 65.5752 105.023 64.6944 107.308 62.9328V52.1116C103.881 54.2507 101.596 55.1315 98.4231 55.1315C92.3308 55.1315 87.5077 50.7275 87.5077 44.1844C87.5077 37.7672 92.3308 33.1116 98.4231 33.1116C101.723 32.9858 104.135 34.1182 107.308 36.1315Z" fill="black"/>
<path fill-rule="evenodd" clip-rule="evenodd" d="M0.692307 15.8732V17.7606H8.81538V15.8732C6.53077 15.7473 6.15 15.4957 6.15 13.9857V4.17117L10.8462 17.7606H12.8769L18.0808 4.04534V13.6083C18.0808 15.6215 18.0808 15.6215 15.1615 15.7473V17.6347H24.5538V15.7473C21.8885 15.7473 21.7615 15.4957 21.7615 13.9857V4.42283C21.7615 2.78706 22.0154 2.28375 24.5538 2.28375V0.270508H16.5577L12.4962 11.3434L8.68846 0.270508H0.692307V2.28375C2.97692 2.28375 3.35769 2.28375 3.35769 4.17117V13.3566C3.23077 15.3698 3.23077 15.8732 0.692307 15.8732Z" fill="black"/>
<path fill-rule="evenodd" clip-rule="evenodd" d="M39.9115 15.8731V17.7606H47.4V15.8731C45.6231 15.7473 45.6231 15.6215 45.6231 13.1049V10.9659C45.6231 8.95261 46.5115 7.31685 48.4154 7.31685C49.9385 7.31685 50.3192 8.32347 50.3192 9.70758V14.1116C50.3192 15.6215 50.1923 15.8731 48.4154 15.8731V17.7606H55.1423V15.8731C53.6192 15.8731 53.3654 15.7473 53.3654 14.2374V11.2175C53.3654 9.07844 54.3808 7.31685 56.2846 7.31685C57.8077 7.31685 58.0615 8.19764 58.0615 9.95923V14.3632C58.0615 15.6215 58.0615 15.7473 56.2846 15.7473V17.6347H63.6462V15.7473C61.3615 15.7473 61.2346 15.8731 61.2346 14.489V9.45592C61.2346 6.56188 60.6 4.92612 57.5538 4.92612C55.7769 4.92612 54.6346 5.55526 53.2385 7.0652C52.4769 5.68109 51.4615 4.80029 49.5577 4.80029C47.6538 4.80029 46.3846 5.80691 45.3692 7.19102V5.17778H39.6577V6.93937C41.9423 6.93937 42.1962 7.06519 42.1962 8.82678V12.9791C42.3231 15.8731 42.3231 15.8731 39.9115 15.8731Z" fill="black"/>
<path fill-rule="evenodd" clip-rule="evenodd" d="M0.946153 24.052V65.1977H12.3692L12.4962 49.4692H23.6654V40.0321H12.6231L12.4962 33.6149H24.4269V24.052H0.946153Z" fill="black"/>
<path fill-rule="evenodd" clip-rule="evenodd" d="M64.6615 0.39624H69.9923V6.81346C71.3885 5.55518 72.2769 5.1777 73.8 5.1777C76.8462 5.1777 78.8769 7.82008 78.8769 11.5949C78.8769 15.6214 76.8462 18.2638 73.4192 18.2638C71.7692 18.2638 70.7539 17.7605 69.6115 16.5022L68.5962 17.8863H66.9462V4.42273C66.9462 2.40949 66.8192 2.15783 64.7885 2.15783V0.39624H64.6615ZM75.1961 11.5949C75.1961 8.70088 74.1808 7.31677 72.6577 7.31677C70.7538 7.31677 69.8654 8.95253 69.8654 11.8466C69.8654 14.3631 70.8808 16.1247 72.5308 16.1247C74.0538 16.1247 75.1961 14.7406 75.1961 11.5949Z" fill="black"/>
<path fill-rule="evenodd" clip-rule="evenodd" d="M94.8692 15.8732V17.7606H102.992V15.8732C100.708 15.8732 100.454 15.999 100.454 14.1116V11.4692C100.454 8.95266 101.342 6.68776 103.5 6.68776C103.627 6.68776 103.754 6.68776 104.262 6.81359C103.5 7.19107 102.992 7.69439 102.992 8.57518C102.992 9.5818 103.754 10.2109 104.769 10.2109C106.038 10.2109 106.8 9.33015 106.8 7.94604C106.8 6.31028 105.531 5.052 103.881 5.052C102.485 5.052 101.596 5.68114 100.327 7.06525V5.30366H94.7423V7.06525C96.6461 7.06525 97.2808 7.06525 97.2808 8.70101V13.7341C97.4077 15.7474 97.4077 15.8732 94.8692 15.8732Z" fill="black"/>
<path fill-rule="evenodd" clip-rule="evenodd" d="M84.5885 11.9724C84.5885 14.3632 85.7308 15.9989 87.7615 15.9989C89.5385 15.9989 90.4269 14.9923 90.6808 13.3565H92.9654C92.5846 16.5022 90.4269 18.2638 87.5077 18.2638C83.8269 18.2638 81.1615 16.1248 81.1615 11.8466C81.1615 8.07177 83.5731 5.17773 87.2538 5.17773C90.8077 5.17773 93.0923 7.82012 93.0923 11.9724H84.5885ZM87.1269 7.06515C85.6038 7.06515 84.7154 8.07177 84.7154 9.95919H89.5385C89.5385 8.07177 88.7769 7.06515 87.1269 7.06515Z" fill="black"/>
<path fill-rule="evenodd" clip-rule="evenodd" d="M29.6308 11.9724C29.6308 14.3632 30.9 15.9989 32.9308 15.9989C34.7077 15.9989 35.5962 14.9923 35.85 13.3565H38.0077C37.6269 16.5022 35.5962 18.2638 32.55 18.2638C28.8692 18.138 26.0769 15.9989 26.0769 11.8466C26.0769 8.07177 28.6154 5.17773 32.1692 5.17773C35.7231 5.17773 37.8808 7.82012 37.8808 11.9724H29.6308ZM32.1692 7.06515C30.6462 7.06515 29.7577 8.07177 29.7577 9.95919H34.4538C34.4538 7.94595 33.6923 7.06515 32.1692 7.06515Z" fill="black"/>
<path fill-rule="evenodd" clip-rule="evenodd" d="M63.3923 65.1977H74.8154V24.052H63.3923V65.1977Z" fill="black"/>
</svg>
