<svg width="69" height="42" viewBox="0 0 69 42" fill="none" xmlns="http://www.w3.org/2000/svg">
<g clip-path="url(#clip0_3219_140884)">
<path fill-rule="evenodd" clip-rule="evenodd" d="M16.7241 15.1995H26.0529C34.4895 15.1995 39.8435 20.3464 39.8435 28.308C39.8435 37.1543 33.9216 41.497 24.4305 41.497H16.7241V15.1995ZM25.404 21.231C25.0795 21.231 24.5928 21.3114 24.0249 21.3114V35.4655C28.7299 35.4655 32.4615 33.6158 32.4615 28.1472C32.4615 23.5632 29.46 21.231 25.404 21.231Z" fill="black"/>
<path fill-rule="evenodd" clip-rule="evenodd" d="M68.6415 22.9198V16.0037C66.7757 15.1995 65.0722 14.7974 62.7197 14.7974C54.9321 14.7974 48.6858 20.6681 48.6858 28.3885C48.6858 36.1088 54.851 41.7383 62.5574 41.7383C65.3155 41.7383 67.1813 41.1753 68.6415 40.0494V33.1333C66.4512 34.5004 64.991 35.0634 62.963 35.0634C59.0692 35.0634 55.9867 32.2486 55.9867 28.0668C55.9867 23.9653 59.0692 20.9898 62.963 20.9898C65.0722 20.9093 66.6135 21.6331 68.6415 22.9198Z" fill="black"/>
<path fill-rule="evenodd" clip-rule="evenodd" d="M0.500061 9.97192V11.1782H5.69179V9.97192C4.23161 9.8915 3.98825 9.73066 3.98825 8.76561V2.4928L6.98972 11.1782H8.28765L11.6136 2.41238V8.52434C11.6136 9.81108 11.6136 9.81108 9.74782 9.8915V11.0978H15.7508V9.8915C14.0472 9.8915 13.9661 9.73066 13.9661 8.76561V2.65364C13.9661 1.60817 14.1283 1.28649 15.7508 1.28649V-0.000244141H10.6401L8.04429 7.07677L5.61066 -0.000244141H0.500061V1.28649C1.96023 1.28649 2.2036 1.28649 2.2036 2.4928V8.3635C2.12248 9.65024 2.12248 9.97192 0.500061 9.97192Z" fill="black"/>
<path fill-rule="evenodd" clip-rule="evenodd" d="M25.566 9.97204V11.1783H30.3521V9.97204C29.2164 9.89162 29.2164 9.8112 29.2164 8.20278V6.83563C29.2164 5.5489 29.7843 4.50343 31.0011 4.50343C31.9745 4.50343 32.2179 5.1468 32.2179 6.03142V8.84615C32.2179 9.81119 32.1368 9.97204 31.0011 9.97204V11.1783H35.3005V9.97204C34.327 9.97204 34.1648 9.89162 34.1648 8.92657V6.99647C34.1648 5.62932 34.8137 4.50343 36.0306 4.50343C37.004 4.50343 37.1662 5.06638 37.1662 6.19227V9.00699C37.1662 9.8112 37.1662 9.89162 36.0306 9.89162V11.0979H40.7356V9.89162C39.2754 9.89162 39.1943 9.97204 39.1943 9.08741V5.87058C39.1943 4.02091 38.7887 2.97544 36.8418 2.97544C35.7061 2.97544 34.976 3.37754 34.0837 4.34259C33.5969 3.45796 32.948 2.89502 31.7312 2.89502C30.5144 2.89502 29.7031 3.53838 29.0542 4.42301V3.13628H25.4037V4.26217C26.8639 4.26217 27.0262 4.34259 27.0262 5.46848V8.12236C27.1073 9.97204 27.1073 9.97204 25.566 9.97204Z" fill="black"/>
<path fill-rule="evenodd" clip-rule="evenodd" d="M0.662781 15.1995V41.497H7.96364L8.04476 31.4444H15.1834V25.4129H8.12589L8.04476 21.3114H15.6701V15.1995H0.662781Z" fill="black"/>
<path fill-rule="evenodd" clip-rule="evenodd" d="M41.3851 0.0803223H44.7921V4.18178C45.6845 3.37757 46.2523 3.13631 47.2258 3.13631C49.1727 3.13631 50.4706 4.82514 50.4706 7.23776C50.4706 9.81122 49.1727 11.5001 46.9824 11.5001C45.9278 11.5001 45.2789 11.1784 44.5488 10.3742L43.8998 11.2588H42.8452V2.65378C42.8452 1.36705 42.7641 1.20621 41.4662 1.20621V0.0803223H41.3851ZM48.1181 7.23776C48.1181 5.38809 47.4691 4.50346 46.4957 4.50346C45.2789 4.50346 44.711 5.54893 44.711 7.3986C44.711 9.00702 45.36 10.1329 46.4146 10.1329C47.388 10.1329 48.1181 9.24828 48.1181 7.23776Z" fill="black"/>
<path fill-rule="evenodd" clip-rule="evenodd" d="M60.6922 9.97233V11.1786H65.8839V9.97233C64.4238 9.97233 64.2615 10.0527 64.2615 8.84644V7.15761C64.2615 5.54919 64.8294 4.10162 66.2084 4.10162C66.2895 4.10162 66.3707 4.10162 66.6951 4.18204C66.2084 4.4233 65.8839 4.74499 65.8839 5.30793C65.8839 5.9513 66.3707 6.3534 67.0196 6.3534C67.8308 6.3534 68.3175 5.79045 68.3175 4.90583C68.3175 3.86036 67.5063 3.05615 66.4518 3.05615C65.5595 3.05615 64.9916 3.45826 64.1804 4.34288V3.21699H60.6111V4.34288C61.8279 4.34288 62.2335 4.34288 62.2335 5.38835V8.60518C62.3146 9.89191 62.3146 9.97233 60.6922 9.97233Z" fill="black"/>
<path fill-rule="evenodd" clip-rule="evenodd" d="M54.1208 7.47895C54.1208 9.00694 54.8509 10.0524 56.1488 10.0524C57.2845 10.0524 57.8524 9.40904 58.0146 8.36357H59.4748C59.2314 10.3741 57.8524 11.5 55.9866 11.5C53.6341 11.5 51.9305 10.1328 51.9305 7.39853C51.9305 4.98591 53.4718 3.13623 55.8243 3.13623C58.0957 3.13623 59.5559 4.82506 59.5559 7.47895H54.1208ZM55.7432 4.34254C54.7698 4.34254 54.2019 4.98591 54.2019 6.19222H57.2845C57.2845 4.98591 56.7978 4.34254 55.7432 4.34254Z" fill="black"/>
<path fill-rule="evenodd" clip-rule="evenodd" d="M18.9954 7.47895C18.9954 9.00694 19.8066 10.0524 21.1046 10.0524C22.2403 10.0524 22.8081 9.40904 22.9704 8.36357H24.3494C24.106 10.3741 22.8081 11.5 20.8612 11.5C18.5087 11.4196 16.7241 10.0524 16.7241 7.39853C16.7241 4.98591 18.3465 3.13623 20.6179 3.13623C22.8892 3.13623 24.2683 4.82506 24.2683 7.47895H18.9954ZM20.6179 4.34254C19.6444 4.34254 19.0766 4.98591 19.0766 6.19222H22.078C22.078 4.90549 21.5913 4.34254 20.6179 4.34254Z" fill="black"/>
<path fill-rule="evenodd" clip-rule="evenodd" d="M40.5739 41.497H47.8747V15.1995H40.5739V41.497Z" fill="black"/>
</g>
<defs>
<clipPath id="clip0_3219_140884">
<rect width="68" height="41.6326" fill="white" transform="translate(0.5)"/>
</clipPath>
</defs>
</svg>
