<svg width="28" height="28" viewBox="0 0 28 28" fill="none" xmlns="http://www.w3.org/2000/svg">
<path fill-rule="evenodd" clip-rule="evenodd" d="M18.6666 2.33333H9.33331C8.36682 2.33333 7.54186 2.67504 6.85844 3.35846C6.17502 4.04188 5.83331 4.86684 5.83331 5.83333V22.1667C5.83331 24.5 6.99998 25.6667 9.33331 25.6667H18.6666C21 25.6667 22.1666 24.5 22.1666 22.1667V5.83333C22.1666 3.5 21 2.33333 18.6666 2.33333V2.33333ZM8.16665 18.6667H19.8333V5.83333C19.8333 5.05556 19.4444 4.66667 18.6666 4.66667H9.33331C9.01115 4.66667 8.73616 4.78057 8.50836 5.00838C8.28055 5.23618 8.16665 5.51117 8.16665 5.83333V18.6667ZM18.6666 23.3333C19.4444 23.3333 19.8333 22.9444 19.8333 22.1667V18.6667H8.16665V22.1667C8.16665 22.9444 8.55554 23.3333 9.33331 23.3333H18.6666Z" fill="#2945FF"/>
<path fill-rule="evenodd" clip-rule="evenodd" d="M10.5 21C10.5 20.3557 11.0223 19.8333 11.6667 19.8333H16.3333C16.9777 19.8333 17.5 20.3557 17.5 21C17.5 21.6443 16.9777 22.1667 16.3333 22.1667H11.6667C11.0223 22.1667 10.5 21.6443 10.5 21Z" fill="#2945FF"/>
</svg>
