<svg width="73" height="64" viewBox="0 0 73 64" fill="none" xmlns="http://www.w3.org/2000/svg">
<path d="M6.47797 63.0556H50.3019C51.8426 63.0556 53.2121 62.4564 54.1536 61.4293C55.1807 60.4022 55.7799 59.0327 55.7799 57.5776V52.0996H12.0415V57.5776C12.0415 59.1183 11.4424 60.4878 10.4153 61.4293C9.38815 62.4564 8.01865 63.0556 6.47797 63.0556Z" stroke="black" stroke-width="1.5" stroke-miterlimit="10" stroke-linecap="round" stroke-linejoin="round"/>
<path d="M1 5.62244V57.5777C1 60.6591 3.48222 63.0557 6.47799 63.0557C8.01868 63.0557 9.38817 62.4566 10.3297 61.4295C11.3568 60.4023 11.956 59.0328 11.956 57.5777V52.0998H44.7383V22.142V5.62244H26.1645H1Z" stroke="black" stroke-width="1.5" stroke-miterlimit="10" stroke-linecap="round" stroke-linejoin="round"/>
<path d="M23.3411 33.8679C30.103 40.6298 40.631 41.3146 48.1632 35.9222C49.0192 35.323 49.7895 34.6383 50.5599 33.8679C51.3302 33.0976 52.015 32.3273 52.6141 31.4713C58.0065 23.9391 57.3218 13.4111 50.6455 6.64918C43.1132 -0.883059 30.9589 -0.883059 23.4267 6.64918C15.8089 14.0958 15.8089 26.3357 23.3411 33.8679ZM26.5937 9.90174C32.3284 4.16697 41.5725 4.16697 47.3073 9.90174C53.0421 15.6365 53.0421 24.8806 47.3073 30.6154C41.5725 36.3502 32.3284 36.3502 26.5937 30.6154C20.8589 24.8806 20.8589 15.5509 26.5937 9.90174Z" fill="#86C5F9"/>
<path d="M48.1622 35.9223L66.6504 54.4105C67.8488 55.6088 69.8174 55.6088 71.0157 54.4105C72.214 53.2122 72.214 51.2436 71.0157 50.0452L52.6131 31.4714C52.0139 32.3274 51.3292 33.0977 50.5588 33.8681C49.7885 34.6384 49.0182 35.3232 48.1622 35.9223Z" fill="#86C5F9"/>
<path d="M26.5926 30.6154C32.3274 36.3502 41.5715 36.3502 47.3063 30.6154C53.0411 24.8807 53.0411 15.6366 47.3063 9.90179C41.5715 4.16702 32.3274 4.16702 26.5926 9.90179C20.8579 15.551 20.8579 24.8807 26.5926 30.6154Z" fill="white"/>
<path d="M50.5589 33.8673C49.7885 34.6377 49.0182 35.3224 48.1622 35.9216" stroke="black" stroke-width="1.5" stroke-miterlimit="10" stroke-linecap="round" stroke-linejoin="round"/>
<path d="M52.6131 31.4706C52.014 32.3265 51.3292 33.0969 50.5589 33.8672" stroke="black" stroke-width="1.5" stroke-miterlimit="10" stroke-linecap="round" stroke-linejoin="round"/>
<path d="M48.1622 35.9208C40.6299 41.3132 30.1019 40.6284 23.34 33.8665C15.8078 26.3343 15.8078 14.0944 23.34 6.64777C30.8723 -0.798878 43.1122 -0.884472 50.5588 6.64777C57.3207 13.4097 58.0054 23.9377 52.5275 31.4699" stroke="black" stroke-width="1.5" stroke-miterlimit="10" stroke-linecap="round" stroke-linejoin="round"/>
<path d="M48.1622 35.9215L66.6505 54.4097C67.8488 55.608 69.8174 55.608 71.0157 54.4097L71.1013 54.3241C72.2996 53.1258 72.2996 51.1571 71.1013 49.9588L52.6131 31.4706" stroke="black" stroke-width="1.5" stroke-miterlimit="10" stroke-linecap="round" stroke-linejoin="round"/>
<path d="M36.9497 34.8946C45.0333 34.8946 51.5862 28.3416 51.5862 20.2581C51.5862 12.1746 45.0333 5.62158 36.9497 5.62158C28.8662 5.62158 22.3132 12.1746 22.3132 20.2581C22.3132 28.3416 28.8662 34.8946 36.9497 34.8946Z" stroke="black" stroke-width="1.5" stroke-miterlimit="10" stroke-linecap="round" stroke-linejoin="round"/>
<path d="M6.47797 20.259H17.6907" stroke="black" stroke-width="1.5" stroke-miterlimit="10" stroke-linecap="round" stroke-linejoin="round"/>
<path d="M6.47797 26.6782H18.8034" stroke="black" stroke-width="1.5" stroke-miterlimit="10" stroke-linecap="round" stroke-linejoin="round"/>
<path d="M6.47797 33.0981H22.5696" stroke="black" stroke-width="1.5" stroke-miterlimit="10" stroke-linecap="round" stroke-linejoin="round"/>
<path d="M6.47797 39.5175H36.9493" stroke="black" stroke-width="1.5" stroke-miterlimit="10" stroke-linecap="round" stroke-linejoin="round"/>
<path d="M6.47797 45.9366H39.2603" stroke="black" stroke-width="1.5" stroke-miterlimit="10" stroke-linecap="round" stroke-linejoin="round"/>
<path d="M31.4713 25.7371L42.4272 14.7811" stroke="black" stroke-width="1.5" stroke-miterlimit="10" stroke-linecap="round" stroke-linejoin="round"/>
<path d="M31.4713 14.7811L42.4272 25.7371" stroke="black" stroke-width="1.5" stroke-miterlimit="10" stroke-linecap="round" stroke-linejoin="round"/>
</svg>
