<svg width="28" height="28" viewBox="0 0 28 28" fill="none" xmlns="http://www.w3.org/2000/svg">
<path d="M14.2426 24.6925C18.3679 24.6925 21.4012 22.3872 21.4012 18.7168C21.4012 16.3205 20.1576 14.5915 18.1859 13.6815V13.5905C19.7936 12.5895 20.7642 10.9515 20.7642 8.91916C20.7642 5.33983 17.7309 3.3075 13.9392 3.3075C10.8452 3.3075 8.29724 4.9455 7.38724 7.2205L11.3306 9.3135C11.8159 8.25183 12.5439 7.6755 13.7876 7.6755C15.0919 7.6755 16.0322 8.52483 16.0322 9.79883C16.0322 10.9818 15.2739 11.8615 13.8179 11.8615H12.1192V15.6835H13.4842C15.3649 15.6835 16.3052 16.7452 16.3052 18.0495C16.3052 19.5662 15.1526 20.3852 13.8786 20.3852C12.2709 20.3852 11.3306 19.6268 10.8756 18.2012L6.59857 19.8998C7.59957 22.6298 10.4206 24.6925 14.2426 24.6925Z" fill="#2945FF"/>
</svg>
