<svg width="72" height="52" viewBox="0 0 72 52" fill="none" xmlns="http://www.w3.org/2000/svg">
<g clip-path="url(#clip0_63_72591)">
<path d="M18.2978 11.6288C14.8395 9.20066 9.61527 7.87621 8.95304 8.90634C8.21723 9.78931 10.4247 13.3948 11.8227 15.9701C9.83601 17.4417 8.07007 19.4284 7.11352 21.7094C5.78907 22.298 4.24387 22.5924 1.96287 22.5924C-0.0238161 22.5924 0.785573 28.0373 2.69867 31.6428C4.39103 34.8068 15.2074 41.429 16.6054 41.7234V51.3624H20.9467L23.8164 45.6231C26.5389 46.5061 30.8801 47.0212 33.8969 47.0212C37.2081 47.0212 40.6664 46.7269 43.9775 45.6967L46.8472 51.2889H51.1884L53.0279 40.2518C56.6334 36.7935 58.3258 32.2314 58.3258 26.8601V26.6393C58.0314 15.9701 45.7434 8.24411 32.4989 8.24411C26.9068 8.24411 21.9768 9.78931 18.2978 11.6288C19.2544 12.2911 19.9902 13.0269 20.5788 13.8363L18.2978 11.6288Z" fill="#FFAD9F"/>
<path d="M18.2978 11.6288C14.8395 9.20066 9.61527 7.87621 8.95304 8.90634C8.21723 9.78931 10.4247 13.3948 11.8227 15.9701C9.83601 17.4417 8.07007 19.4284 7.11352 21.7094C5.78907 22.298 4.24387 22.5924 1.96287 22.5924C-0.0238161 22.5924 0.785573 28.0373 2.69867 31.6428C4.39103 34.8068 15.2074 41.429 16.6054 41.7234V51.3624H20.9467L23.8164 45.6232C26.5389 46.5061 30.8801 47.0212 33.8969 47.0212C37.2081 47.0212 40.6664 46.7269 43.9775 45.6967L46.8472 51.2889H51.1884L53.0279 40.2518C56.6334 36.7935 58.3258 32.2314 58.3258 26.8601V26.6393C58.0314 15.9701 45.7434 8.24411 32.4989 8.24411C26.9068 8.24411 21.9768 9.78931 18.2978 11.6288ZM18.2978 11.6288C19.2544 12.2911 19.9902 13.0269 20.5788 13.8363" stroke="black" stroke-miterlimit="10" stroke-linecap="round" stroke-linejoin="round"/>
<path d="M58.1788 26.6393L61.9314 24.1376C63.1823 23.3282 64.801 23.9168 65.2425 25.3885C65.8312 27.0808 67.7443 27.4487 68.9951 26.1978L70.6875 24.5055" stroke="black" stroke-miterlimit="10" stroke-linecap="round" stroke-linejoin="round"/>
<path d="M16.6057 25.9771C17.8654 25.9771 18.8867 24.9559 18.8867 23.6961C18.8867 22.4363 17.8654 21.4151 16.6057 21.4151C15.3459 21.4151 14.3246 22.4363 14.3246 23.6961C14.3246 24.9559 15.3459 25.9771 16.6057 25.9771Z" fill="white" stroke="black" stroke-miterlimit="10" stroke-linecap="round" stroke-linejoin="round"/>
<path d="M50.6735 43.8572C50.6735 39.7367 47.3623 36.352 43.1682 36.352C38.9741 36.352 35.7366 39.7367 35.7366 43.8572C35.7366 45.6967 36.3988 47.3155 37.4289 48.64C38.827 50.3323 40.8872 51.3625 43.1682 51.3625C45.5228 51.3625 47.5831 50.3323 48.9075 48.64C50.0848 47.3155 50.6735 45.6232 50.6735 43.8572Z" fill="#FFF46C" stroke="black" stroke-miterlimit="10" stroke-linecap="round" stroke-linejoin="round"/>
<path d="M58.1785 47.6099H43.2416V51.2889H58.1785V47.6099Z" fill="#FFF46C" stroke="black" stroke-miterlimit="10" stroke-linecap="round" stroke-linejoin="round"/>
<path d="M58.1785 43.9308H43.2416V47.6098H58.1785V43.9308Z" fill="#FFF46C" stroke="black" stroke-miterlimit="10" stroke-linecap="round" stroke-linejoin="round"/>
<path d="M58.1785 40.2518H43.2416V43.9309H58.1785V40.2518Z" fill="#FFF46C" stroke="black" stroke-miterlimit="10" stroke-linecap="round" stroke-linejoin="round"/>
<path d="M39.1947 13.4684C39.3419 13.3212 39.4155 13.2477 39.5626 13.1005C40.6663 11.776 41.255 10.1573 41.255 8.31774C41.255 4.19722 37.9438 0.8125 33.7497 0.8125C29.5556 0.8125 26.2445 4.12364 26.2445 8.31774C26.2445 10.1573 26.9067 11.776 27.9369 13.1005C28.0104 13.2477 28.1576 13.3948 28.3048 13.4684C31.8366 12.5118 35.4421 12.5118 39.1947 13.4684Z" fill="#FFF46C"/>
<path d="M25.95 14.425C25.95 14.425 28.7461 12.7327 33.7496 12.7327C38.7531 12.7327 41.5491 14.425 41.5491 14.425" stroke="black" stroke-miterlimit="10" stroke-linecap="round" stroke-linejoin="round"/>
<path d="M39.1947 13.4684C39.3419 13.3212 39.4155 13.2477 39.5626 13.1005C40.6663 11.776 41.255 10.1573 41.255 8.31774C41.255 4.19722 37.9438 0.8125 33.7497 0.8125C29.5556 0.8125 26.2445 4.12364 26.2445 8.31774C26.2445 10.1573 26.9067 11.776 27.9369 13.1005C28.0104 13.2477 28.1576 13.3948 28.3048 13.4684" stroke="black" stroke-miterlimit="10" stroke-linecap="round" stroke-linejoin="round"/>
</g>
<defs>
<clipPath id="clip0_63_72591">
<rect width="71.5" height="52" fill="white"/>
</clipPath>
</defs>
</svg>
