<svg width="28" height="28" viewBox="0 0 28 28" fill="none" xmlns="http://www.w3.org/2000/svg">
<path d="M23.333 20.4983C23.911 19.5512 24.1587 18.4391 24.0373 17.3362C23.916 16.2333 23.4323 15.2017 22.6622 14.4029C21.892 13.6042 20.8787 13.0833 19.781 12.9218C18.6832 12.7603 17.5629 12.9673 16.5953 13.5104C15.6277 14.0535 14.8675 14.9021 14.4336 15.9233C13.9997 16.9445 13.9166 18.0808 14.1974 19.1543C14.4781 20.2278 15.1068 21.1779 15.9851 21.856C16.8634 22.534 17.9417 22.9018 19.0513 22.9017C19.9729 22.8974 20.876 22.6433 21.6647 22.1667L23.6713 24.185C23.7798 24.2944 23.9088 24.3811 24.051 24.4404C24.1932 24.4996 24.3457 24.5301 24.4997 24.5301C24.6537 24.5301 24.8062 24.4996 24.9483 24.4404C25.0905 24.3811 25.2195 24.2944 25.328 24.185C25.4374 24.0765 25.5242 23.9475 25.5834 23.8053C25.6426 23.6632 25.6731 23.5107 25.6731 23.3567C25.6731 23.2027 25.6426 23.0502 25.5834 22.908C25.5242 22.7658 25.4374 22.6368 25.328 22.5283L23.333 20.4983ZM20.9997 19.8333C20.4855 20.3233 19.8024 20.5967 19.0922 20.5967C18.3819 20.5967 17.6989 20.3233 17.1847 19.8333C16.681 19.3263 16.3983 18.6406 16.3983 17.9258C16.3983 17.2111 16.681 16.5254 17.1847 16.0183C17.435 15.7675 17.7323 15.5685 18.0596 15.4328C18.3869 15.297 18.7378 15.2271 19.0922 15.2271C19.4465 15.2271 19.7974 15.297 20.1247 15.4328C20.452 15.5685 20.7494 15.7675 20.9997 16.0183C21.5034 16.5254 21.7861 17.2111 21.7861 17.9258C21.7861 18.6406 21.5034 19.3263 20.9997 19.8333ZM22.1663 3.5H5.83301C4.90475 3.5 4.01451 3.86875 3.35813 4.52513C2.70176 5.1815 2.33301 6.07174 2.33301 7V17.5C2.33301 18.4283 2.70176 19.3185 3.35813 19.9749C4.01451 20.6313 4.90475 21 5.83301 21H10.4997C10.8091 21 11.1058 20.8771 11.3246 20.6583C11.5434 20.4395 11.6663 20.1428 11.6663 19.8333C11.6663 19.5239 11.5434 19.2272 11.3246 19.0084C11.1058 18.7896 10.8091 18.6667 10.4997 18.6667H5.83301C5.52359 18.6667 5.22684 18.5438 5.00805 18.325C4.78926 18.1062 4.66634 17.8094 4.66634 17.5V10.5H23.333V11.6667C23.333 11.9761 23.4559 12.2728 23.6747 12.4916C23.8935 12.7104 24.1903 12.8333 24.4997 12.8333C24.8091 12.8333 25.1058 12.7104 25.3246 12.4916C25.5434 12.2728 25.6663 11.9761 25.6663 11.6667V7C25.6663 6.07174 25.2976 5.1815 24.6412 4.52513C23.9848 3.86875 23.0946 3.5 22.1663 3.5ZM23.333 8.16667H4.66634V7C4.66634 6.69058 4.78926 6.39383 5.00805 6.17504C5.22684 5.95625 5.52359 5.83333 5.83301 5.83333H22.1663C22.4758 5.83333 22.7725 5.95625 22.9913 6.17504C23.2101 6.39383 23.333 6.69058 23.333 7V8.16667ZM11.6663 12.8333H8.16634C7.85692 12.8333 7.56018 12.9563 7.34138 13.175C7.12259 13.3938 6.99967 13.6906 6.99967 14C6.99967 14.3094 7.12259 14.6062 7.34138 14.825C7.56018 15.0438 7.85692 15.1667 8.16634 15.1667H11.6663C11.9758 15.1667 12.2725 15.0438 12.4913 14.825C12.7101 14.6062 12.833 14.3094 12.833 14C12.833 13.6906 12.7101 13.3938 12.4913 13.175C12.2725 12.9563 11.9758 12.8333 11.6663 12.8333Z" fill="#2945FF"/>
</svg>
