<svg width="8" height="14" viewBox="0 0 8 14" fill="none" xmlns="http://www.w3.org/2000/svg">
<path d="M7.36265 6.22373L2.39187 1.30129C2.28288 1.19247 2.15343 1.10631 2.01097 1.04777C1.86851 0.989236 1.71588 0.959487 1.56186 0.960239C1.40785 0.960992 1.25551 0.99223 1.11364 1.05215C0.971757 1.11208 0.843148 1.1995 0.735227 1.30938C0.519004 1.52903 0.398485 1.82531 0.39999 2.13353C0.401496 2.44174 0.524904 2.73683 0.743262 2.95436L4.89339 7.06414L0.783608 11.2143C0.567385 11.4339 0.446866 11.7302 0.448371 12.0384C0.449877 12.3466 0.573285 12.6417 0.791643 12.8592C0.901183 12.9668 1.03088 13.0517 1.17331 13.1091C1.31574 13.1665 1.46808 13.1952 1.62162 13.1935C1.77516 13.1937 1.92722 13.1635 2.06908 13.1047C2.21094 13.046 2.33981 12.9598 2.44829 12.8512L7.37074 7.88038C7.47956 7.77139 7.56572 7.64193 7.62425 7.49948C7.68279 7.35702 7.71254 7.20438 7.71179 7.05037C7.71103 6.89636 7.67979 6.74402 7.61987 6.60214C7.55995 6.46026 7.47252 6.33165 7.36265 6.22373Z" fill="#2945FF"/>
</svg>
