<svg width="64" height="64" viewBox="0 0 64 64" fill="none" xmlns="http://www.w3.org/2000/svg">
<path d="M32.692 62.6564C32.4122 62.7714 32.1838 62.8613 32.0141 62.9266C31.8433 62.855 31.6127 62.7564 31.3297 62.6306C30.6622 62.334 29.704 61.887 28.5523 61.2897C26.2463 60.0937 23.1769 58.3017 20.1133 55.9161C13.9558 51.1214 8 44.0752 8 34.784V34.6939V34.6039V34.514V34.4241V34.3342V34.2444V34.1547V34.065V33.9753V33.8857V33.7962V33.7067V33.6173V33.5279V33.4386V33.3493V33.2601V33.1709V33.0819V32.9928V32.9038V32.8149V32.7261V32.6373V32.5485V32.4599V32.3712V32.2827V32.1942V32.1058V32.0174V31.9291V31.8409V31.7527V31.6646V31.5766V31.4886V31.4007V31.3129V31.2251V31.1374V31.0498V30.9622V30.8747V30.7873V30.6999V30.6127V30.5255V30.4383V30.3513V30.2643V30.1774V30.0905V30.0038V29.9171V29.8305V29.7439V29.6575V29.5711V29.4848V29.3986V29.3124V29.2263V29.1404V29.0545V28.9686V28.8829V28.7972V28.7116V28.6262V28.5407V28.4554V28.3702V28.285V28.1999V28.1149V28.03V27.9452V27.8605V27.7759V27.6913V27.6069V27.5225V27.4382V27.354V27.2699V27.1859V27.102V27.0182V26.9344V26.8508V26.7672V26.6838V26.6004V26.5172V26.434V26.3509V26.268V26.1851V26.1023V26.0196V25.9371V25.8546V25.7722V25.6899V25.6077V25.5257V25.4437V25.3618V25.2801V25.1984V25.1168V25.0354V24.954V24.8728V24.7916V24.7106V24.6297V24.5488V24.4681V24.3875V24.307V24.2266V24.1464V24.0662V23.9861V23.9062V23.8263V23.7466V23.667V23.5875V23.5081V23.4289V23.3497V23.2707V23.1918V23.113V23.0343V22.9557V22.8772V22.7989V22.7207V22.6426V22.5646V22.4868V22.409V22.3314V22.2539V22.1765V22.0993V22.0222V21.9452V21.8683V21.7915V21.7149V21.6384V21.562V21.4858V21.4097V21.3337V21.2578V21.1821V21.1065V21.031V20.9556V20.8804V20.8053V20.7304V20.6556V20.5809V20.5063V20.4319V20.3576V20.2834V20.2094V20.1355V20.0618V19.9882V19.9147V19.8414V19.7682V19.6951V19.6222V19.5494V19.4768V19.4043V19.3319V19.2597V19.1876V19.1157V19.0439V18.9723V18.9008V18.8294V18.7582V18.6871V18.6162V18.5454V18.4748V18.4043V18.334V18.2638V18.1938V18.1239V18.0542V17.9846V17.9152V17.8459V17.7768V17.7078V17.639V17.5703V17.5018V17.4334V17.3652V17.2972V17.2293V17.1615V17.094V17.0265V16.9593V16.8922V16.8252V16.7584V16.6918V16.6254V16.559V16.4929V16.4269V16.3611V16.2954V16.23V16.1646V16.0995V16.0345V15.9696V15.905V15.8405V15.7761V15.712V15.648V15.5841V15.5205V15.457V15.3937V15.3305V15.2675V15.2047V15.1421V15.0796V15.0173V14.9552V14.8933V14.8315V14.7699V14.7085V14.6472V14.5862V14.5253V14.4646V14.404V14.3437V14.2835V14.2235V14.1637V14.104V14.0446V13.9853V13.9262V13.8673V13.8086V13.75V13.6917V13.6335V13.5755V13.5177V13.4601V13.4027V13.3454V13.2883V13.2315V13.1748V13.1183V13.062V13.0059V12.95V12.8942V12.8387V12.7833V12.7282V12.6732V12.6184V12.5638V12.5095V12.4553V12.4013V12.3475V12.2939V12.2405V12.1873V12.1343V12.0814V12.0288V11.9764V11.9242V11.8722V11.8204V11.7688V11.7174V11.6662V11.6151V11.5643V11.5137V11.4634V11.4132V11.3632V11.3134V11.2638V11.2145V11.1653V11.1164V11.0676V11.0191V10.9708V10.9227V10.8747V10.8271V10.7796V10.7323V10.6852V10.6384V10.5918V10.5454V10.4992V10.4532V10.4074V10.3618V10.3165V10.2714V10.2265V10.1818V10.1373V10.093V10.049V10.0052V9.9616V9.91823V9.87508V9.83215V9.78944V9.74695V9.70469V9.66265V9.62084V9.57925V9.53788V9.49674V9.45583V9.41514V9.37469V9.33445V9.29445V9.25468V9.21513V9.17581V9.13673V9.09787V9.05925V9.02086V8.9827V8.94477V8.90707V8.86961V8.83239V8.79539V8.75864V8.72212V8.68583V8.64978V8.61397V8.57839V8.54306V8.50796V8.4731V8.43848V8.40411V8.36997V8.33607V8.30241V8.269V8.23583V8.2029V8.17022V8.13778V8.10558V8.07363V8.04193V8.01047V7.97925V7.94829V7.91757V7.8871V7.85688V7.82691V7.79718V7.76771V7.73849V7.70952V7.6808V7.65233V7.62411V7.59615V7.56844V7.54099V7.51379V7.48684V7.46015V7.43372V7.40754V7.38162V7.35596V7.33055V7.3054V7.28052V7.25589V7.23152V7.20741V7.18356V7.15998V7.13666V7.1136V7.0908V7.09001C8.37621 7.05763 8.85708 7.01245 9.42811 6.95105C10.9101 6.79169 13.0018 6.52278 15.4488 6.08393C20.2104 5.22993 26.3612 3.72483 31.9887 1.10564C37.6166 3.7249 43.773 5.22999 48.5401 6.08396C50.9899 6.52281 53.0844 6.79171 54.5685 6.95107C55.141 7.01254 55.623 7.05775 56 7.09014V7.09052V7.11331V7.13636V7.15968V7.18326V7.2071V7.2312V7.25556V7.28018V7.30506V7.3302V7.3556V7.38126V7.40717V7.43334V7.45977V7.48645V7.51339V7.54058V7.56803V7.59573V7.62369V7.65189V7.68036V7.70907V7.73803V7.76725V7.79671V7.82643V7.85639V7.88661V7.91707V7.94778V7.97874V8.00994V8.04139V8.07309V8.10503V8.13722V8.16965V8.20233V8.23525V8.26841V8.30182V8.33546V8.36935V8.40348V8.43785V8.47246V8.50731V8.5424V8.57773V8.6133V8.6491V8.68514V8.72142V8.75793V8.79468V8.83166V8.86888V8.90633V8.94402V8.98194V9.02009V9.05847V9.09709V9.13594V9.17501V9.21432V9.25386V9.29362V9.33362V9.37384V9.41429V9.45497V9.49587V9.537V9.57836V9.61994V9.66175V9.70378V9.74603V9.78851V9.83121V9.87413V9.91727V9.96064V10.0042V10.048V10.0921V10.1363V10.1808V10.2254V10.2703V10.3155V10.3608V10.4063V10.4521V10.4981V10.5443V10.5907V10.6373V10.6841V10.7312V10.7784V10.8259V10.8736V10.9215V10.9696V11.0179V11.0664V11.1152V11.1641V11.2133V11.2626V11.3122V11.3619V11.4119V11.4621V11.5125V11.5631V11.6139V11.6649V11.7161V11.7675V11.8191V11.8709V11.9229V11.9751V12.0275V12.0801V12.1329V12.1859V12.2391V12.2925V12.3461V12.3999V12.4539V12.508V12.5624V12.617V12.6718V12.7267V12.7819V12.8372V12.8927V12.9485V13.0044V13.0605V13.1168V13.1733V13.23V13.2868V13.3439V13.4011V13.4585V13.5161V13.5739V13.6319V13.6901V13.7484V13.807V13.8657V13.9246V13.9837V14.043V14.1024V14.162V14.2219V14.2818V14.342V14.4024V14.4629V14.5236V14.5845V14.6455V14.7068V14.7682V14.8298V14.8915V14.9535V15.0156V15.0779V15.1403V15.203V15.2658V15.3287V15.3919V15.4552V15.5187V15.5823V15.6462V15.7102V15.7743V15.8386V15.9031V15.9678V16.0326V16.0976V16.1628V16.2281V16.2936V16.3592V16.4251V16.491V16.5572V16.6235V16.6899V16.7566V16.8233V16.8903V16.9574V17.0246V17.0921V17.1596V17.2274V17.2953V17.3633V17.4315V17.4999V17.5684V17.637V17.7058V17.7748V17.8439V17.9132V17.9826V18.0522V18.122V18.1918V18.2619V18.332V18.4024V18.4728V18.5435V18.6142V18.6852V18.7562V18.8274V18.8988V18.9703V19.0419V19.1137V19.1856V19.2577V19.3299V19.4023V19.4748V19.5474V19.6202V19.6931V19.7662V19.8394V19.9127V19.9862V20.0598V20.1335V20.2074V20.2814V20.3556V20.4299V20.5043V20.5788V20.6535V20.7284V20.8033V20.8784V20.9536V21.029V21.1044V21.1801V21.2558V21.3317V21.4077V21.4838V21.56V21.6364V21.7129V21.7895V21.8663V21.9432V22.0202V22.0973V22.1746V22.2519V22.3294V22.407V22.4848V22.5626V22.6406V22.7187V22.7969V22.8753V22.9537V23.0323V23.111V23.1898V23.2687V23.3478V23.4269V23.5062V23.5856V23.6651V23.7447V23.8244V23.9043V23.9842V24.0643V24.1445V24.2247V24.3051V24.3856V24.4662V24.547V24.6278V24.7087V24.7898V24.8709V24.9522V25.0335V25.115V25.1966V25.2782V25.36V25.4419V25.5239V25.606V25.6882V25.7704V25.8528V25.9353V26.0179V26.1006V26.1834V26.2663V26.3492V26.4323V26.5155V26.5988V26.6821V26.7656V26.8491V26.9328V27.0165V27.1004V27.1843V27.2683V27.3524V27.4366V27.5209V27.6053V27.6898V27.7744V27.859V27.9437V28.0286V28.1135V28.1985V28.2836V28.3687V28.454V28.5393V28.6248V28.7103V28.7959V28.8815V28.9673V29.0531V29.1391V29.2251V29.3111V29.3973V29.4835V29.5699V29.6563V29.7427V29.8293V29.9159V30.0026V30.0894V30.1762V30.2632V30.3502V30.4373V30.5244V30.6116V30.6989V30.7863V30.8737V30.9612V31.0488V31.1365V31.2242V31.312V31.3998V31.4878V31.5757V31.6638V31.7519V31.8401V31.9284V32.0167V32.1051V32.1935V32.282V32.3706V32.4592V32.5479V32.6367V32.7255V32.8144V32.9033V32.9923V33.0814V33.1705V33.2597V33.3489V33.4382V33.5275V33.6169V33.7064V33.7959V33.8855V33.9751V34.0648V34.1545V34.2443V34.3341V34.424V34.5139V34.6039V34.6939V34.784C56 44.5326 50.0327 51.5771 43.8935 56.2463C40.834 58.5733 37.7685 60.2801 35.4654 61.4054C34.3151 61.9674 33.3583 62.3826 32.692 62.6564Z" stroke="#2945FF" stroke-width="6"/>
<path d="M25 36.25C25 39.424 28.136 42 32 42C35.864 42 39 39.424 39 36.25C39 33.076 35.864 30.5 32 30.5C28.136 30.5 25 27.924 25 24.75C25 21.576 28.136 19 32 19C35.864 19 39 21.576 39 24.75" stroke="#2945FF" stroke-width="6" stroke-miterlimit="10" stroke-linecap="round" stroke-linejoin="round"/>
<path d="M32 19V14" stroke="#2945FF" stroke-width="6" stroke-miterlimit="10" stroke-linecap="round" stroke-linejoin="round"/>
<path d="M32 47V42" stroke="#2945FF" stroke-width="6" stroke-miterlimit="10" stroke-linecap="round" stroke-linejoin="round"/>
</svg>
