<svg width="29" height="28" viewBox="0 0 29 28" fill="none" xmlns="http://www.w3.org/2000/svg">
<path d="M23.3717 4.25835C23.2334 4.14871 23.0717 4.07083 22.8987 4.03045C22.7256 3.99007 22.5455 3.98822 22.3716 4.02501C21.0993 4.28628 19.786 4.28961 18.5124 4.03479C17.2388 3.77998 16.0319 3.27241 14.966 2.54335C14.7667 2.40787 14.5299 2.33527 14.2873 2.33527C14.0448 2.33527 13.808 2.40787 13.6087 2.54335C12.5428 3.27241 11.3359 3.77998 10.0623 4.03479C8.78869 4.28961 7.47534 4.28628 6.2031 4.02501C6.02919 3.98822 5.84909 3.99007 5.67601 4.03045C5.50294 4.07083 5.3413 4.14871 5.20298 4.25835C5.06485 4.36815 4.95358 4.50689 4.87734 4.66437C4.80111 4.82184 4.76185 4.99405 4.76246 5.16835V13.86C4.7614 15.5327 5.16819 17.1815 5.94894 18.669C6.7297 20.1565 7.86183 21.4397 9.25106 22.4117L13.5968 25.445C13.7984 25.5857 14.0398 25.6613 14.2873 25.6613C14.5349 25.6613 14.7762 25.5857 14.9779 25.445L19.3236 22.4117C20.7128 21.4397 21.845 20.1565 22.6257 18.669C23.4065 17.1815 23.8133 15.5327 23.8122 13.86V5.16835C23.8128 4.99405 23.7736 4.82184 23.6973 4.66437C23.6211 4.50689 23.5098 4.36815 23.3717 4.25835ZM21.431 13.86C21.4319 15.1606 21.1158 16.4425 20.509 17.5992C19.9023 18.7559 19.0223 19.7538 17.9425 20.51L14.2873 23.065L10.6322 20.51C9.55232 19.7538 8.6724 18.7559 8.06562 17.5992C7.45885 16.4425 7.14276 15.1606 7.14368 13.86V6.51001C9.6397 6.71935 12.1395 6.15187 14.2873 4.88835C16.4351 6.15187 18.935 6.71935 21.431 6.51001V13.86Z" fill="#2945FF"/>
<path fill-rule="evenodd" clip-rule="evenodd" d="M11.9959 15.7266C11.6006 16.1917 11.4595 16.7807 11.4595 17.2083C11.4595 17.6916 11.0597 18.0833 10.5665 18.0833C10.0734 18.0833 9.67358 17.6916 9.67358 17.2083C9.67359 16.4693 9.90346 15.4541 10.6235 14.6068C11.3715 13.7265 12.5662 13.125 14.286 13.125C16.0057 13.125 17.2008 13.7265 17.9494 14.6064C18.67 15.4535 18.9008 16.4688 18.9008 17.2083C18.9008 17.6916 18.501 18.0833 18.0078 18.0833C17.5147 18.0833 17.1149 17.6916 17.1149 17.2083C17.1149 16.7812 16.9734 16.1923 16.5776 15.7269C16.2095 15.2943 15.5437 14.875 14.286 14.875C13.0283 14.875 12.3633 15.2943 11.9959 15.7266Z" fill="#2945FF"/>
<path fill-rule="evenodd" clip-rule="evenodd" d="M14.2873 12.25C14.9449 12.25 15.4779 11.7277 15.4779 11.0834C15.4779 10.439 14.9449 9.91669 14.2873 9.91669C13.6298 9.91669 13.0967 10.439 13.0967 11.0834C13.0967 11.7277 13.6298 12.25 14.2873 12.25ZM14.2873 14C15.9312 14 17.2638 12.6942 17.2638 11.0834C17.2638 9.47252 15.9312 8.16669 14.2873 8.16669C12.6434 8.16669 11.3108 9.47252 11.3108 11.0834C11.3108 12.6942 12.6434 14 14.2873 14Z" fill="#2945FF"/>
</svg>
