<svg width="39" height="39" viewBox="0 0 34 34" fill="none" xmlns="http://www.w3.org/2000/svg">
<path fill-rule="evenodd" clip-rule="evenodd" d="M23.766 9.40748C22.5161 7.02597 20.2669 5.89866 16.8792 5.89866C12.9001 5.89866 10.5341 7.50539 9.55429 10.9533C12.4645 12.0933 14.2731 11.9884 17.3545 10.0977L17.7881 9.83169L18.2914 9.90504C20.9678 10.2951 22.3535 10.1057 23.766 9.40748ZM24.6646 12.0886C24.7077 12.3097 24.7463 12.537 24.7803 12.7706V21.8783L20.8207 25.7089C20.6331 25.6657 20.4378 25.6428 20.2371 25.6428C18.8097 25.6428 17.6526 26.7999 17.6526 28.2273C17.6526 29.6547 18.8097 30.8118 20.2371 30.8118C21.6645 30.8118 22.8216 29.6547 22.8216 28.2273C22.8216 28.0563 22.805 27.8892 22.7733 27.7275L27.161 23.4829C27.4139 23.2382 27.5649 22.9083 27.5862 22.5591C29.4152 21.7942 31.0767 19.6357 31.0767 16.9643C31.0767 14.192 29.3741 12.2874 27.4486 11.6983C26.3951 6.06099 22.7604 3.09015 16.8792 3.09015C11.0642 3.09015 7.50232 6.06906 6.51127 11.6991C4.5868 12.2891 2.88574 14.1932 2.88574 16.9643C2.88574 19.7764 4.72684 22.0202 6.66636 22.6682C7.70872 26.2693 11.2156 29.6316 15.4402 29.6316C16.2157 29.6316 16.8445 29.0029 16.8445 28.2273C16.8445 27.4518 16.2157 26.8231 15.4402 26.8231C12.0545 26.8231 9.15912 23.3582 9.15912 20.5293V13.8009C12.3981 14.9384 14.9206 14.7745 18.3874 12.7525C21.1517 13.1022 22.9515 12.8602 24.6646 12.0886ZM6.35062 19.0314V15.0475C5.96549 15.4974 5.69425 16.1449 5.69425 16.9643C5.69425 17.78 5.97486 18.4955 6.35062 19.0314ZM28.2682 16.9643C28.2682 17.7966 27.9761 18.5245 27.5888 19.0639V15.021C27.9861 15.4718 28.2682 16.1287 28.2682 16.9643ZM13.1912 22.4264C15.2865 24.4753 18.5843 24.4753 20.7359 22.4383C21.162 22.0348 21.1804 21.3623 20.7769 20.9362C20.3735 20.5101 19.701 20.4917 19.2749 20.8952C17.947 22.1524 15.9504 22.1524 14.6769 20.9071C14.2573 20.4968 13.5846 20.5043 13.1744 20.9239C12.7641 21.3434 12.7716 22.0161 13.1912 22.4264ZM14.3425 15.2884H13.0622C12.2086 15.2884 11.7818 15.6459 11.7818 16.3609C11.7818 17.0759 12.2086 17.4334 13.0622 17.4334H14.3425C15.1961 17.4334 15.6228 17.0759 15.6228 16.3609C15.6228 15.6459 15.1961 15.2884 14.3425 15.2884ZM19.5969 15.2884H20.8773C21.7308 15.2884 22.1576 15.6459 22.1576 16.3609C22.1576 17.0759 21.7308 17.4334 20.8773 17.4334H19.5969C18.7434 17.4334 18.3166 17.0759 18.3166 16.3609C18.3166 15.6459 18.7434 15.2884 19.5969 15.2884Z" fill="#2945FF"/>
</svg>
