<svg width="69" height="64" viewBox="0 0 69 64" fill="none" xmlns="http://www.w3.org/2000/svg">
<g clip-path="url(#clip0)">
<path d="M67.5073 4.20375V43.8451C67.5073 45.7173 65.9607 47.2639 64.0886 47.2639H43.6574L34.4593 63.2181L25.3426 47.2639H4.91144C3.03926 47.2639 1.49268 45.7173 1.49268 43.8451V4.20375C1.49268 2.33158 3.03926 0.784993 4.91144 0.784993H64.0886C65.9607 0.703594 67.5073 2.25018 67.5073 4.20375Z" fill="white"/>
<path d="M25.3426 47.2656H4.91144C3.03926 47.2656 1.49268 45.719 1.49268 43.8468V4.20544C1.49268 2.33327 3.03926 0.786682 4.91144 0.786682H64.0886C65.9607 0.786682 67.5073 2.33327 67.5073 4.20544V43.8468C67.5073 45.719 65.9607 47.2656 64.0886 47.2656H43.6574" stroke="black" stroke-width="1.5" stroke-miterlimit="10" stroke-linecap="round" stroke-linejoin="round"/>
<path d="M43.6577 47.264L34.541 63.2182" stroke="black" stroke-width="1.5" stroke-miterlimit="10" stroke-linecap="round" stroke-linejoin="round"/>
<path d="M34.5404 63.2182L25.3423 47.264" stroke="black" stroke-width="1.5" stroke-miterlimit="10" stroke-linecap="round" stroke-linejoin="round"/>
<path d="M36.0055 7.29686L53.7505 39.0425C54.4017 40.1821 53.5877 41.5659 52.2853 41.5659H16.7139C15.4115 41.5659 14.5975 40.1821 15.2487 39.0425L32.9937 7.29686C33.6449 6.15727 35.3543 6.15727 36.0055 7.29686Z" fill="#FFAD9F"/>
<path d="M34.4588 16.7393C35.11 16.7393 35.6798 17.3091 35.6798 17.9603V29.9259C35.6798 30.5771 35.11 31.1469 34.4588 31.1469C33.8076 31.1469 33.2378 30.5771 33.2378 29.9259V17.9603C33.2378 17.3091 33.8076 16.7393 34.4588 16.7393Z" stroke="black" stroke-width="1.5" stroke-miterlimit="10" stroke-linecap="round" stroke-linejoin="round"/>
<path d="M34.4588 34.1586C35.11 34.1586 35.6798 34.7284 35.6798 35.3796C35.6798 36.0308 35.11 36.6006 34.4588 36.6006C33.8076 36.6006 33.2378 36.0308 33.2378 35.3796C33.2378 34.7284 33.8076 34.1586 34.4588 34.1586Z" stroke="black" stroke-width="1.5" stroke-miterlimit="10" stroke-linecap="round" stroke-linejoin="round"/>
<path d="M36.0055 7.29686L53.7505 39.0425C54.4017 40.1821 53.5877 41.5659 52.2853 41.5659H16.7139C15.4115 41.5659 14.5975 40.1821 15.2487 39.0425L32.9937 7.29686C33.6449 6.15727 35.3543 6.15727 36.0055 7.29686Z" stroke="black" stroke-width="1.5" stroke-miterlimit="10" stroke-linecap="round" stroke-linejoin="round"/>
</g>
<defs>
<clipPath id="clip0">
<rect width="68" height="64" fill="white" transform="translate(0.5)"/>
</clipPath>
</defs>
</svg>
