<svg width="57" height="64" viewBox="0 0 57 64" fill="none" xmlns="http://www.w3.org/2000/svg">
<path d="M12.5819 8.88031H40.4541V63.2386H1.03271V20.4295V8.88031H12.5819Z" fill="white"/>
<path d="M40.4541 8.88031V63.2386H1.03271V20.4295V8.88031H12.5819H40.4541Z" stroke="black" stroke-width="1.5" stroke-miterlimit="10" stroke-linecap="round" stroke-linejoin="round"/>
<path d="M5.96045 50.5346H35.3725" stroke="black" stroke-width="1.5" stroke-miterlimit="10" stroke-linecap="round" stroke-linejoin="round"/>
<path d="M5.96045 44.7599H35.3725" stroke="black" stroke-width="1.5" stroke-miterlimit="10" stroke-linecap="round" stroke-linejoin="round"/>
<path d="M5.96045 38.9853H35.3725" stroke="black" stroke-width="1.5" stroke-miterlimit="10" stroke-linecap="round" stroke-linejoin="round"/>
<path d="M5.96045 33.2107H35.3725" stroke="black" stroke-width="1.5" stroke-miterlimit="10" stroke-linecap="round" stroke-linejoin="round"/>
<path d="M5.96045 27.4361H35.3725" stroke="black" stroke-width="1.5" stroke-miterlimit="10" stroke-linecap="round" stroke-linejoin="round"/>
<path d="M5.96069 21.6615H35.3727" stroke="black" stroke-width="1.5" stroke-miterlimit="10" stroke-linecap="round" stroke-linejoin="round"/>
<path d="M34.6798 35.7515C43.0144 35.7515 49.7708 28.995 49.7708 20.6605C49.7708 12.326 43.0144 5.56952 34.6798 5.56952C26.3453 5.56952 19.5889 12.326 19.5889 20.6605C19.5889 28.995 26.3453 35.7515 34.6798 35.7515Z" fill="white"/>
<path d="M16.6622 28.899C20.7429 37.8304 30.6753 42.2961 39.9146 39.7553C40.9156 39.4473 41.9935 39.1393 42.9944 38.6773C43.9954 38.2154 44.9193 37.6764 45.8432 37.0604C53.7737 31.7478 56.8535 21.3535 52.7728 12.3451C48.1531 2.48978 36.3729 -1.89893 26.4405 2.64377C16.4312 7.18646 12.1195 18.9667 16.6622 28.899ZM28.3654 6.95548C35.9109 3.49071 44.8423 6.80149 48.3071 14.347C51.7718 21.8925 48.4611 30.9009 40.8386 34.3656C33.2931 37.8304 24.3617 34.5196 20.8969 26.8971C17.5091 19.3516 20.8199 10.4202 28.3654 6.95548Z" fill="#FFAD9F"/>
<path d="M39.8384 39.7553L49.7707 61.3908C50.4637 63.0077 52.3885 63.7007 54.0054 62.9307H54.0824C55.6993 62.1608 56.3923 60.3129 55.6993 58.696L45.767 37.0605C44.92 37.6764 43.9191 38.2154 42.9182 38.6774C41.9172 39.1393 40.9163 39.5243 39.8384 39.7553Z" fill="#FFAD9F"/>
<path d="M42.9182 38.6773C41.9172 39.1393 40.9163 39.5243 39.8384 39.7553" stroke="black" stroke-width="1.5" stroke-miterlimit="10" stroke-linecap="round" stroke-linejoin="round"/>
<path d="M45.767 37.0605C44.9201 37.6764 43.9191 38.2154 42.9182 38.6773" stroke="black" stroke-width="1.5" stroke-miterlimit="10" stroke-linecap="round" stroke-linejoin="round"/>
<path d="M39.838 39.7557C30.6756 42.2965 20.7433 37.8308 16.5856 28.8994C12.1199 18.9671 16.4316 7.1869 26.4409 2.64421C36.4503 -1.89849 48.1535 2.49022 52.6962 12.4225C56.7769 21.3539 53.6971 31.7482 45.7666 37.1379" stroke="black" stroke-width="1.5" stroke-miterlimit="10" stroke-linecap="round" stroke-linejoin="round"/>
<path d="M39.8384 39.7553L49.7707 61.3908C50.5407 63.0077 52.3885 63.7007 54.0054 62.9307H54.0824C55.6993 62.1608 56.3923 60.3129 55.6223 58.696L45.767 37.0605" stroke="black" stroke-width="1.5" stroke-miterlimit="10" stroke-linecap="round" stroke-linejoin="round"/>
<path d="M34.6798 35.7516C43.0144 35.7516 49.7708 28.9951 49.7708 20.6606C49.7708 12.3261 43.0144 5.56961 34.6798 5.56961C26.3453 5.56961 19.5889 12.3261 19.5889 20.6606C19.5889 28.9951 26.3453 35.7516 34.6798 35.7516Z" stroke="black" stroke-width="1.5" stroke-miterlimit="10" stroke-linecap="round" stroke-linejoin="round"/>
<path d="M34.6799 9.57333C35.4499 9.57333 35.9888 10.1893 35.9888 10.8822V24.3563C35.9888 25.1263 35.3729 25.6652 34.6799 25.6652C33.91 25.6652 33.371 25.0493 33.371 24.3563V10.8822C33.294 10.1893 33.91 9.57333 34.6799 9.57333Z" stroke="black" stroke-width="1.5" stroke-miterlimit="10" stroke-linecap="round" stroke-linejoin="round"/>
<path d="M34.6797 29.0529C35.4496 29.0529 35.9886 29.6689 35.9886 30.3618C35.9886 31.1318 35.3726 31.6707 34.6797 31.6707C33.9097 31.6707 33.3708 31.0548 33.3708 30.3618C33.2938 29.6689 33.9097 29.0529 34.6797 29.0529Z" stroke="black" stroke-width="1.5" stroke-miterlimit="10" stroke-linecap="round" stroke-linejoin="round"/>
</svg>
