<svg width="28" height="28" viewBox="0 0 28 28" fill="none" xmlns="http://www.w3.org/2000/svg">
<path fill-rule="evenodd" clip-rule="evenodd" d="M21.2644 9.1744C19.6098 9.1744 18.4266 10.2191 18.2339 11.0729C18.0413 11.9267 18.7529 12.9714 20.4075 12.9714C22.9135 12.9714 24.9646 14.6474 24.4007 17.146C23.8367 19.6446 21.0292 21.3206 18.5231 21.3206C16.0171 21.3206 13.9661 19.6446 14.53 17.146C14.6718 16.5175 15.3091 16.0079 15.9535 16.0079C16.5978 16.0079 17.0052 16.5175 16.8633 17.146C16.6706 17.9997 17.3823 19.0445 19.0368 19.0445C20.6914 19.0445 21.8746 17.9997 22.0673 17.146C22.26 16.2922 21.5484 15.2475 19.8938 15.2475C17.3877 15.2475 15.3367 13.5715 15.9006 11.0729C16.4645 8.57432 19.2721 6.89832 21.7781 6.89832C24.2842 6.89832 26.3352 8.57432 25.7713 11.0729C25.6294 11.7014 24.9921 12.2109 24.3478 12.2109C23.7034 12.2109 23.2961 11.7014 23.438 11.0729C23.6306 10.2191 22.919 9.1744 21.2644 9.1744Z" fill="#2945FF"/>
<path fill-rule="evenodd" clip-rule="evenodd" d="M22.3737 4.25781C23.018 4.25781 23.4254 4.76733 23.2835 5.39585L22.6876 8.03632C22.5457 8.66485 21.9084 9.17437 21.2641 9.17437C20.6197 9.17437 20.2124 8.66485 20.3543 8.03632L20.9502 5.39585C21.092 4.76733 21.7294 4.25781 22.3737 4.25781Z" fill="#2945FF"/>
<path fill-rule="evenodd" clip-rule="evenodd" d="M19.0368 19.0444C19.6811 19.0444 20.0885 19.554 19.9466 20.1825L19.3507 22.8229C19.2088 23.4515 18.5715 23.961 17.9272 23.961C17.2828 23.961 16.8755 23.4515 17.0173 22.8229L17.6133 20.1825C17.7551 19.554 18.3925 19.0444 19.0368 19.0444Z" fill="#2945FF"/>
<path fill-rule="evenodd" clip-rule="evenodd" d="M8.0498 9.33335C8.0498 8.68902 8.57214 8.16669 9.21647 8.16669L14.1022 8.16669C14.7465 8.16669 15.2689 8.68902 15.2689 9.33335C15.2689 9.97769 14.7465 10.5 14.1022 10.5L9.21647 10.5C8.57214 10.5 8.0498 9.97769 8.0498 9.33335Z" fill="#2945FF"/>
<path fill-rule="evenodd" clip-rule="evenodd" d="M5.16211 14C5.16211 13.3557 5.68444 12.8334 6.32878 12.8334L12.6583 12.8334C13.3027 12.8334 13.825 13.3557 13.825 14C13.825 14.6444 13.3027 15.1667 12.6583 15.1667L6.32878 15.1667C5.68444 15.1667 5.16211 14.6444 5.16211 14Z" fill="#2945FF"/>
<path fill-rule="evenodd" clip-rule="evenodd" d="M2.27441 18.6667C2.27441 18.0223 2.79675 17.5 3.44108 17.5L11.2145 17.5C11.8588 17.5 12.3811 18.0223 12.3811 18.6667C12.3811 19.311 11.8588 19.8333 11.2145 19.8333L3.44108 19.8333C2.79675 19.8333 2.27441 19.311 2.27441 18.6667Z" fill="#2945FF"/>
</svg>
