<svg width="28" height="28" viewBox="0 0 28 28" fill="none" xmlns="http://www.w3.org/2000/svg">
<path fill-rule="evenodd" clip-rule="evenodd" d="M5.83334 4.66666H22.1667C23.0949 4.66666 23.9852 5.03541 24.6416 5.69178C25.2979 6.34816 25.6667 7.2384 25.6667 8.16666L25.6667 12.8333C25.6667 13.4777 25.1443 14 24.5 14C23.8557 14 23.3333 13.4777 23.3333 12.8333L23.3333 11.6667H4.66668V18.6667C4.66668 18.9761 4.78959 19.2728 5.00839 19.4916C5.22718 19.7104 5.52392 19.8333 5.83334 19.8333L16.3333 19.8333C16.9777 19.8333 17.5 20.3557 17.5 21C17.5 21.6443 16.9777 22.1667 16.3333 22.1667L5.83334 22.1667C4.90509 22.1667 4.01485 21.7979 3.35847 21.1415C2.70209 20.4852 2.33334 19.5949 2.33334 18.6667V8.16666C2.33334 7.2384 2.70209 6.34816 3.35847 5.69178C4.01485 5.03541 4.90509 4.66666 5.83334 4.66666ZM11.6667 16.3333H8.16667C7.85725 16.3333 7.56051 16.2104 7.34171 15.9916C7.12292 15.7728 7.00001 15.4761 7.00001 15.1667C7.00001 14.8572 7.12292 14.5605 7.34171 14.3417C7.56051 14.1229 7.85725 14 8.16667 14H11.6667C11.9761 14 12.2728 14.1229 12.4916 14.3417C12.7104 14.5605 12.8333 14.8572 12.8333 15.1667C12.8333 15.4761 12.7104 15.7728 12.4916 15.9916C12.2728 16.2104 11.9761 16.3333 11.6667 16.3333ZM4.66668 9.33332H23.3333V8.16666C23.3333 7.85724 23.2104 7.56049 22.9916 7.3417C22.7728 7.12291 22.4761 6.99999 22.1667 6.99999H5.83335C5.52393 6.99999 5.22718 7.12291 5.00839 7.3417C4.7896 7.56049 4.66668 7.85724 4.66668 8.16666V9.33332Z" fill="#2945FF"/>
<path d="M23.2004 16.5178L22.7201 15.0769C22.5428 14.545 21.7906 14.545 21.6133 15.0769L21.133 16.5178C21.0536 16.756 20.8307 16.9167 20.5796 16.9167H19.163C18.6116 16.9167 18.368 17.611 18.7986 17.9555L20.0701 18.9727C20.2749 19.1365 20.3452 19.4169 20.2419 19.658L19.4397 21.5297C19.2112 22.063 19.8167 22.5667 20.2994 22.2448L21.8431 21.2157C22.0391 21.0851 22.2944 21.0851 22.4903 21.2157L24.034 22.2448C24.5168 22.5667 25.1223 22.063 24.8937 21.5297L24.0916 19.658C23.9883 19.4169 24.0585 19.1365 24.2633 18.9727L25.5348 17.9555C25.9654 17.611 25.7218 16.9167 25.1704 16.9167H23.7538C23.5027 16.9167 23.2798 16.756 23.2004 16.5178Z" fill="#2945FF"/>
</svg>
