<svg width="28" height="28" viewBox="0 0 28 28" fill="none" xmlns="http://www.w3.org/2000/svg">
<path d="M8.16732 16.3334H11.6673C11.9767 16.3334 12.2735 16.2104 12.4923 15.9916C12.7111 15.7729 12.834 15.4761 12.834 15.1667C12.834 14.8573 12.7111 14.5605 12.4923 14.3417C12.2735 14.1229 11.9767 14 11.6673 14H8.16732C7.8579 14 7.56115 14.1229 7.34236 14.3417C7.12357 14.5605 7.00065 14.8573 7.00065 15.1667C7.00065 15.4761 7.12357 15.7729 7.34236 15.9916C7.56115 16.2104 7.8579 16.3334 8.16732 16.3334ZM22.1673 4.66669H5.83398C4.90573 4.66669 4.01549 5.03544 3.35911 5.69181C2.70273 6.34819 2.33398 7.23843 2.33398 8.16669V18.6667C2.33398 19.5949 2.70273 20.4852 3.35911 21.1416C4.01549 21.7979 4.90573 22.1667 5.83398 22.1667H22.1673C23.0956 22.1667 23.9858 21.7979 24.6422 21.1416C25.2986 20.4852 25.6673 19.5949 25.6673 18.6667V8.16669C25.6673 7.23843 25.2986 6.34819 24.6422 5.69181C23.9858 5.03544 23.0956 4.66669 22.1673 4.66669ZM23.334 18.6667C23.334 18.9761 23.2111 19.2729 22.9923 19.4916C22.7735 19.7104 22.4767 19.8334 22.1673 19.8334H5.83398C5.52457 19.8334 5.22782 19.7104 5.00903 19.4916C4.79023 19.2729 4.66732 18.9761 4.66732 18.6667V11.6667H23.334V18.6667ZM23.334 9.33335H4.66732V8.16669C4.66732 7.85727 4.79023 7.56052 5.00903 7.34173C5.22782 7.12294 5.52457 7.00002 5.83398 7.00002H22.1673C22.4767 7.00002 22.7735 7.12294 22.9923 7.34173C23.2111 7.56052 23.334 7.85727 23.334 8.16669V9.33335Z" fill="#2945FF"/>
</svg>
